<svg xmlns="http://www.w3.org/2000/svg" width="511.626" height="511.627" viewBox="0 0 511.626 511.627"><path fill="#046B99" d="M498.208 68.235c-8.945-8.947-19.7-13.418-32.26-13.418H45.68c-12.562 0-23.318 4.47-32.264 13.418C4.47 77.18 0 87.935 0 100.5V411.13c0 12.566 4.47 23.312 13.418 32.257 8.945 8.952 19.7 13.42 32.264 13.42h420.266c12.56 0 23.315-4.468 32.26-13.42 8.95-8.946 13.42-19.698 13.42-32.258V100.5c-.002-12.565-4.47-23.32-13.42-32.265zm-23.13 342.89c0 2.475-.903 4.616-2.714 6.424-1.81 1.81-3.95 2.705-6.42 2.705H45.68c-2.475 0-4.617-.896-6.424-2.706-1.81-1.81-2.712-3.95-2.712-6.425V191.858c6.09 6.852 12.657 13.134 19.7 18.843 51.012 39.21 91.553 71.375 121.627 96.5 9.708 8.187 17.608 14.562 23.698 19.13 6.09 4.572 14.322 9.186 24.694 13.847 10.373 4.668 20.13 6.99 29.265 6.99h.571c9.134 0 18.894-2.322 29.263-6.99 10.377-4.66 18.614-9.274 24.702-13.846 6.09-4.568 13.99-10.943 23.698-19.13 30.074-25.125 70.61-57.29 121.624-96.5 7.043-5.707 13.613-11.99 19.694-18.842v219.267zm0-303.205v3.14c0 11.23-4.42 23.745-13.27 37.543-8.852 13.798-18.42 24.792-28.692 32.974-36.74 28.936-74.897 59.1-114.495 90.506-1.14.95-4.473 3.757-9.995 8.418-5.514 4.67-9.894 8.242-13.13 10.713-3.242 2.478-7.472 5.475-12.704 8.993-5.235 3.518-10.04 6.14-14.417 7.85-4.377 1.708-8.47 2.563-12.275 2.563h-.571c-3.806 0-7.895-.856-12.275-2.563-4.377-1.71-9.185-4.333-14.417-7.85-5.23-3.52-9.467-6.517-12.703-8.994-3.234-2.47-7.614-6.044-13.132-10.712-5.52-4.66-8.854-7.466-9.995-8.417-39.59-31.406-77.75-61.57-114.487-90.506-27.98-22.076-41.97-49.106-41.97-81.083 0-2.472.904-4.615 2.713-6.42 1.81-1.81 3.95-2.715 6.424-2.715H465.95c1.52.854 2.854 1.092 3.997.714 1.143-.385 1.998.33 2.566 2.138.57 1.81 1.095 2.664 1.57 2.57.477-.096.764 1.093.86 3.57.088 2.474.136 3.72.136 3.72v3.848h-.002z"/></svg>