<svg xmlns="http://www.w3.org/2000/svg" width="402.041" height="402.04" viewBox="0 0 402.041 402.04"><path fill="#00547A" d="M54.816 292.382c-15.23 0-28.17 5.33-38.83 15.988C5.33 319.026 0 331.97 0 347.197c0 15.232 5.325 28.172 15.985 38.828 10.662 10.657 23.606 15.988 38.83 15.988 15.228 0 28.17-5.33 38.83-15.988 10.655-10.656 15.985-23.596 15.985-38.828 0-15.23-5.33-28.17-15.986-38.827-10.657-10.657-23.598-15.988-38.828-15.988zM181.01 221.002c-21.51-21.698-46.158-38.97-73.948-51.816-27.79-12.85-56.914-20.51-87.366-22.985H18.27c-4.948 0-9.04 1.62-12.274 4.855-4 3.422-5.996 7.898-5.996 13.417v38.543c0 4.757 1.57 8.85 4.708 12.28 3.14 3.428 7.09 5.33 11.848 5.707 43.586 4.19 80.845 21.752 111.773 52.678 30.93 30.926 48.49 68.187 52.676 111.77.382 4.765 2.284 8.713 5.712 11.848 3.427 3.148 7.517 4.72 12.275 4.72h38.545c5.517 0 9.99-1.995 13.415-5.996 3.62-3.812 5.236-8.38 4.863-13.71-2.478-30.446-10.14-59.572-22.987-87.36-12.847-27.792-30.122-52.438-51.82-73.95z"/><path fill="#00547A" d="M367.728 239.7c-20.365-45.584-48.345-86.077-83.936-121.48-35.405-35.595-75.896-63.573-121.485-83.94C116.723 13.917 68.997 2.494 19.127.02h-.856C13.323.02 9.136 1.733 5.71 5.16 1.903 8.583 0 12.964 0 18.294V59.12c0 4.76 1.667 8.896 4.996 12.418 3.33 3.523 7.373 5.376 12.132 5.57 40.924 2.478 79.8 12.188 116.63 29.127 36.83 16.94 68.806 38.972 95.93 66.09 27.118 27.123 49.15 59.1 66.09 95.93 16.94 36.837 26.556 75.706 28.838 116.628.195 4.764 2.046 8.81 5.564 12.14 3.524 3.328 7.762 4.998 12.71 4.998h40.823c5.33 0 9.7-1.9 13.134-5.714 3.81-3.806 5.517-8.274 5.144-13.415-2.47-49.873-13.897-97.6-34.262-143.19z"/></svg>