<svg xmlns="http://www.w3.org/2000/svg" width="449.956" height="449.956" viewBox="0 0 449.956 449.956"><path fill="#046B99" d="M449.956 85.657c-17.702 7.614-35.408 12.37-53.102 14.28 19.985-11.992 33.503-28.932 40.546-50.82-18.28 10.847-37.787 18.268-58.532 22.267-18.274-19.414-40.73-29.125-67.383-29.125-25.502 0-47.246 8.99-65.24 26.98-17.984 17.986-26.977 39.73-26.977 65.234 0 6.85.76 13.896 2.284 21.128-37.688-1.903-73.042-11.372-106.068-28.407C82.46 110.158 54.434 87.46 31.404 59.1c-8.376 14.273-12.565 29.788-12.565 46.537 0 15.798 3.71 30.456 11.137 43.97 7.422 13.512 17.417 24.455 29.98 32.83-14.85-.57-28.743-4.474-41.684-11.707v1.142c0 22.27 6.995 41.824 20.983 58.674C53.246 247.394 70.9 258 92.216 262.38c-7.994 2.09-16.085 3.137-24.268 3.137-5.33 0-11.136-.475-17.416-1.42 5.9 18.46 16.75 33.633 32.546 45.535 15.8 11.896 33.69 18.028 53.677 18.418-33.498 26.262-71.66 39.393-114.486 39.393-8.187 0-15.608-.373-22.27-1.14C42.825 393.9 90.03 407.7 141.61 407.7c32.74 0 63.48-5.18 92.21-15.557 28.747-10.368 53.298-24.266 73.666-41.685 20.362-17.415 37.925-37.448 52.674-60.097 14.75-22.65 25.738-46.298 32.977-70.946 7.23-24.653 10.848-49.344 10.848-74.092 0-5.33-.096-9.325-.287-11.99 18.087-13.128 33.504-29.024 46.258-47.673z"/></svg>