<?xml version="1.0" encoding="UTF-8" standalone="no"?>
<svg width="62px" height="61px" viewBox="0 0 62 61" version="1.1" xmlns="http://www.w3.org/2000/svg" xmlns:xlink="http://www.w3.org/1999/xlink">
    <!-- Generator: Sketch 3.8.3 (29802) - http://www.bohemiancoding.com/sketch -->
    <title>Group 13</title>
    <desc>Created with Sketch.</desc>
    <defs>
        <polygon id="path-1" points="61.2728098 0 0 0 0 21.5385465 0 43.0770931 61.2728098 43.0770931 61.2728098 21.5385465"></polygon>
    </defs>
    <g id="Page-1" stroke="none" stroke-width="1" fill="none" fill-rule="evenodd">
        <g id="Home-3" transform="translate(-84.000000, -895.000000)">
            <g id="Group" transform="translate(84.000000, 893.000000)">
                <g id="Group-13" transform="translate(0.000000, 2.000000)">
                    <path d="M43.8483129,30.4078964 L18.3179755,30.4078964 C17.6133382,30.4078964 17.0414586,30.9755105 17.0414586,31.6748921 C17.0414586,32.3742737 17.6133382,32.9418878 18.3179755,32.9418878 L43.8483129,32.9418878 C44.5529502,32.9418878 45.1248298,32.3742737 45.1248298,31.6748921 C45.1248298,30.9755105 44.5529502,30.4078964 43.8483129,30.4078964" id="Fill-1" fill="#00BFE7"></path>
                    <path d="M20.5357959,58.2818015 L20.6353642,58.0841502 C21.9195402,55.4716051 23.0301099,53.2138187 26.4281978,53.2138187 L35.7314527,53.2138187 C39.2137908,53.2138187 40.2860649,55.494411 41.5268393,58.132296 L41.5983243,58.2818015 L20.5357959,58.2818015 Z M43.8398879,57.0578837 C42.5020982,54.2147453 40.8375202,50.6798274 35.7314527,50.6798274 L32.3588952,50.6798274 L32.3588952,46.8788403 C32.3588952,46.1794587 31.7895687,45.6118446 31.0823783,45.6118446 C30.377741,45.6118446 29.8058614,46.1794587 29.8058614,46.8788403 L29.8058614,50.6798274 L26.4281978,50.6798274 C21.4344638,50.6798274 19.7213782,54.1691335 18.3427399,56.9717279 L17.8397923,57.9726545 C17.7478831,58.1500339 17.6993754,58.3502192 17.6993754,58.5529386 C17.6993754,59.7793904 18.7971799,60.8157929 20.0966741,60.8157929 L42.0655295,60.8157929 C43.3854479,60.8157929 44.4602751,59.8376722 44.4602751,58.6390943 C44.4602751,58.4439769 44.4168735,58.2513936 44.3275174,58.0765482 L43.8398879,57.0578837 Z" id="Fill-3" fill="#00BFE7"></path>
                    <g id="Group-7" transform="translate(0.446739, 0.000000)">
                        <mask id="mask-2" fill="white">
                            <use xlink:href="#path-1"></use>
                        </mask>
                        <g id="Clip-6"></g>
                        <path d="M58.7197761,37.9406926 C58.7197761,39.4965633 57.583676,40.5431017 55.8961207,40.5431017 L5.36902996,40.5431017 C3.68402769,40.5431017 2.55303374,39.4965633 2.55303374,37.9406926 L2.55303374,5.53347695 C2.55303374,3.88131458 3.81678544,2.53323117 5.36902996,2.53323117 L55.8961207,2.53323117 C57.4509183,2.53323117 58.7197761,3.88131458 58.7197761,5.53347695 L58.7197761,37.9406926 Z M55.8961207,-0.000760197411 L5.36902996,-0.000760197411 C2.40751082,-0.000760197411 0,2.48255134 0,5.53347695 L0,37.9406926 C0,40.9181324 2.25688183,43.0770931 5.36902996,43.0770931 L55.8961207,43.0770931 C59.0108219,43.0770931 61.2728098,40.9181324 61.2728098,37.9406926 L61.2728098,5.53347695 C61.2728098,2.48255134 58.8601929,-0.000760197411 55.8961207,-0.000760197411 L55.8961207,-0.000760197411 Z" id="Fill-5" fill="#00BFE7" mask="url(#mask-2)"></path>
                    </g>
                    <path d="M25.6579475,12.4325219 C27.1055176,10.9957487 29.0305051,10.2026094 31.0805912,10.2026094 C33.1281242,10.2026094 35.0531117,10.9957487 36.5032348,12.4325219 C39.4928374,15.3998257 39.4928374,20.2296133 36.5032348,23.1969172 C33.6055416,26.0755314 28.5556408,26.0729974 25.6579475,23.1969172 C24.2103774,21.7601441 23.4112778,19.8495146 23.4112778,17.8147195 C23.4112778,15.7799245 24.2103774,13.869295 25.6579475,12.4325219 M31.0805912,27.960821 C33.8123373,27.960821 36.3781362,26.9066806 38.3082297,24.9884491 C42.2935154,21.0354226 42.2935154,14.5990845 38.3082297,10.64099 C36.3755832,8.72529248 33.8097843,7.66861808 31.0805912,7.66861808 C28.3488451,7.66861808 25.7830462,8.72529248 23.8529527,10.64099 C21.9228592,12.5566874 20.8582441,15.1058827 20.8582441,17.8147195 C20.8582441,20.5235563 21.9228592,23.0727516 23.8529527,24.9884491 C25.7830462,26.9066806 28.3513981,27.960821 31.0805912,27.960821" id="Fill-8" fill="#00BFE7"></path>
                    <path d="M28.687122,22.1181971 C28.6973342,22.128333 28.7100994,22.130867 28.7228645,22.141003 C28.7330767,22.1536729 28.7356297,22.1663429 28.7483949,22.1764789 C28.8224328,22.2474306 28.911789,22.2829065 28.9960391,22.3310523 C29.0445468,22.3614602 29.0879483,22.4020041 29.1415621,22.422276 C29.2947441,22.4856258 29.4581382,22.5185677 29.6189794,22.5185677 C29.7823735,22.5185677 29.9432146,22.4856258 30.0989497,22.422276 C30.1500104,22.4020041 30.193412,22.3614602 30.2444726,22.3310523 C30.3287227,22.2829065 30.4180789,22.2474306 30.4921169,22.1764789 C30.502329,22.1663429 30.5074351,22.1536729 30.5176472,22.141003 C30.5278594,22.130867 30.5431776,22.128333 30.5533897,22.1181971 L36.0041168,16.3356288 C36.4866401,15.8237625 36.4611098,15.0204872 35.945397,14.5440969 C35.4271311,14.0677065 34.6229255,14.0879784 34.1404021,14.6023787 L29.6189794,19.3966903 L28.0207802,17.7014501 C27.5382569,17.1895838 26.7314982,17.1667779 26.2157854,17.6406343 C25.7000726,18.1195587 25.6745422,18.9203 26.1545126,19.4321662 L28.687122,22.1181971 Z" id="Fill-10" fill="#00BFE7"></path>
                </g>
            </g>
        </g>
    </g>
</svg>