<?xml version="1.0" encoding="UTF-8" standalone="no"?>
<svg width="63px" height="64px" viewBox="0 0 63 64" version="1.1" xmlns="http://www.w3.org/2000/svg" xmlns:xlink="http://www.w3.org/1999/xlink">
    <!-- Generator: Sketch 3.8.3 (29802) - http://www.bohemiancoding.com/sketch -->
    <title>Group 8</title>
    <desc>Created with Sketch.</desc>
    <defs></defs>
    <g id="Page-1" stroke="none" stroke-width="1" fill="none" fill-rule="evenodd">
        <g id="Home-3" transform="translate(-468.000000, -893.000000)" fill="#00BFE7">
            <g id="Group" transform="translate(84.000000, 893.000000)">
                <g id="Group-8" transform="translate(384.000000, 0.000000)">
                    <path d="M26.2857598,36.0122644 L26.2857598,57.1936577 C26.2857598,57.9316761 26.8779063,58.5258208 27.6075154,58.5258208 C28.3371245,58.5258208 28.929271,57.9316761 28.929271,57.1936577 L28.929271,36.0122644 C28.929271,35.2769104 28.3371245,34.6801013 27.6075154,34.6801013 C26.8779063,34.6801013 26.2857598,35.2769104 26.2857598,36.0122644" id="Fill-1"></path>
                    <path d="M20.9963583,36.0122644 L20.9963583,57.1936577 C20.9963583,57.9316761 21.5885048,58.5258208 22.3181139,58.5258208 C23.047723,58.5258208 23.6398695,57.9316761 23.6398695,57.1936577 L23.6398695,36.0122644 C23.6398695,35.2769104 23.047723,34.6801013 22.3181139,34.6801013 C21.5885048,34.6801013 20.9963583,35.2769104 20.9963583,36.0122644" id="Fill-3"></path>
                    <path d="M13.0658249,36.0122644 L13.0658249,57.1936577 C13.0658249,57.9316761 13.6579714,58.5258208 14.3875805,58.5258208 C15.1171895,58.5258208 15.709336,57.9316761 15.709336,57.1936577 L15.709336,36.0122644 C15.709336,35.2769104 15.1171895,34.6801013 14.3875805,34.6801013 C13.6579714,34.6801013 13.0658249,35.2769104 13.0658249,36.0122644" id="Fill-5"></path>
                    <path d="M7.77880256,36.0122644 L7.77880256,57.1936577 C7.77880256,57.9316761 8.37094906,58.5258208 9.10055814,58.5258208 C9.83016722,58.5258208 10.4223137,57.9316761 10.4223137,57.1936577 L10.4223137,36.0122644 C10.4223137,35.2769104 9.83016722,34.6801013 9.10055814,34.6801013 C8.37094906,34.6801013 7.77880256,35.2769104 7.77880256,36.0122644" id="Fill-7"></path>
                    <path d="M39.5033156,36.0122644 L39.5033156,57.1936577 C39.5033156,57.9316761 40.0954621,58.5258208 40.8250712,58.5258208 C41.5546803,58.5258208 42.1468268,57.9316761 42.1468268,57.1936577 L42.1468268,36.0122644 C42.1468268,35.2769104 41.5546803,34.6801013 40.8250712,34.6801013 C40.0954621,34.6801013 39.5033156,35.2769104 39.5033156,36.0122644" id="Fill-9"></path>
                    <path d="M34.2162933,36.0122644 L34.2162933,57.1936577 C34.2162933,57.9316761 34.8084398,58.5258208 35.5380489,58.5258208 C36.267658,58.5258208 36.8598045,57.9316761 36.8598045,57.1936577 L36.8598045,36.0122644 C36.8598045,35.2769104 36.267658,34.6801013 35.5380489,34.6801013 C34.8084398,34.6801013 34.2162933,35.2769104 34.2162933,36.0122644" id="Fill-11"></path>
                    <path d="M52.7235149,36.0122644 L52.7235149,57.1936577 C52.7235149,57.9316761 53.3156614,58.5258208 54.0452705,58.5258208 C54.7748796,58.5258208 55.3670261,57.9316761 55.3670261,57.1936577 L55.3670261,36.0122644 C55.3670261,35.2769104 54.7748796,34.6801013 54.0452705,34.6801013 C53.3156614,34.6801013 52.7235149,35.2769104 52.7235149,36.0122644" id="Fill-13"></path>
                    <path d="M47.4338491,36.0122644 L47.4338491,57.1936577 C47.4338491,57.9316761 48.0259956,58.5258208 48.7556047,58.5258208 C49.4852137,58.5258208 50.0773602,57.9316761 50.0773602,57.1936577 L50.0773602,36.0122644 C50.0773602,35.2769104 49.4852137,34.6801013 48.7556047,34.6801013 C48.0259956,34.6801013 47.4338491,35.2769104 47.4338491,36.0122644" id="Fill-15"></path>
                    <path d="M61.668628,61.2687447 L1.53932317,61.2687447 C0.809714091,61.2687447 0.217567592,61.8655537 0.217567592,62.6009078 C0.217567592,63.3362618 0.809714091,63.9330709 1.53932317,63.9330709 L61.668628,63.9330709 C62.3982371,63.9330709 62.9903836,63.3362618 62.9903836,62.6009078 C62.9903836,61.8655537 62.3982371,61.2687447 61.668628,61.2687447" id="Fill-17"></path>
                    <path d="M1.53905882,31.9571599 L61.6683636,31.9571599 C62.4006162,31.9571599 62.9901192,31.3603508 62.9901192,30.6249968 C62.9901192,29.8896428 62.4006162,29.2928337 61.6683636,29.2928337 L1.53905882,29.2928337 C0.80944974,29.2928337 0.217303241,29.8896428 0.217303241,30.6249968 C0.217303241,31.3603508 0.80944974,31.9571599 1.53905882,31.9571599" id="Fill-20"></path>
                    <path d="M20.0409934,26.4489319 C20.7706025,26.4489319 21.362749,25.8521228 21.362749,25.1167688 C21.362749,19.9213327 25.9571714,15.6957113 31.6037112,15.6957113 C37.2528946,15.6957113 41.847317,19.9213327 41.847317,25.1167688 C41.847317,25.8521228 42.4394635,26.4489319 43.1690725,26.4489319 C43.8986816,26.4489319 44.4908281,25.8521228 44.4908281,25.1167688 C44.4908281,18.8769168 39.4047126,13.7880538 32.9254668,13.1566085 L32.9254668,2.66449185 L39.01876,2.66449185 C39.7483691,2.66449185 40.3405156,2.07034711 40.3405156,1.33232875 C40.3405156,0.596974715 39.7483691,0.00016564522 39.01876,0.00016564522 L31.6037112,0.00016564522 C30.8741021,0.00016564522 30.2819556,0.596974715 30.2819556,1.33232875 L30.2819556,13.1566085 C23.8053533,13.7880538 18.7192378,18.8769168 18.7192378,25.1167688 C18.7192378,25.8521228 19.3113843,26.4489319 20.0409934,26.4489319" id="Fill-22"></path>
                </g>
            </g>
        </g>
    </g>
</svg>