<?xml version="1.0" encoding="UTF-8" standalone="no"?>
<svg width="55px" height="62px" viewBox="0 0 55 62" version="1.1" xmlns="http://www.w3.org/2000/svg" xmlns:xlink="http://www.w3.org/1999/xlink">
    <!-- Generator: Sketch 3.8.3 (29802) - http://www.bohemiancoding.com/sketch -->
    <title>Group 10</title>
    <desc>Created with Sketch.</desc>
    <defs>
        <polygon id="path-1" points="10.9521739 9.08730159 10.9521739 0.111555556 0.0985456523 0.111555556 0.0985456523 9.08730159 10.9521739 9.08730159"></polygon>
    </defs>
    <g id="Page-1" stroke="none" stroke-width="1" fill="none" fill-rule="evenodd">
        <g id="Home-3" transform="translate(-280.000000, -894.000000)">
            <g id="Group" transform="translate(84.000000, 893.000000)">
                <g id="Group-10" transform="translate(196.000000, 1.000000)">
                    <path d="M28.5453913,58.9350921 C26.6958261,58.9350921 25.1906087,57.4330603 25.1906087,55.5874095 C25.1906087,53.7417587 26.6958261,52.239727 28.5453913,52.239727 C30.3949565,52.239727 31.8975652,53.7417587 31.8975652,55.5874095 C31.8975652,57.4330603 30.3949565,58.9350921 28.5453913,58.9350921 M16.941913,30.3027746 C16.941913,27.4679175 19.2506087,25.1615048 22.0888696,25.1615048 C24.9297391,25.1615048 27.2410435,27.4679175 27.2410435,30.3027746 C27.2410435,33.1350286 24.9297391,35.4414413 22.0888696,35.4414413 C19.2506087,35.4414413 16.941913,33.1350286 16.941913,30.3027746 M45.2775652,2.67528254 C47.1271304,2.67528254 48.6323478,4.17731429 48.6323478,6.02296508 C48.6323478,7.86861587 47.1271304,9.37064762 45.2775652,9.37064762 C44.3958261,9.37064762 43.6027826,9.01140952 43.0053913,8.45433016 C42.9714783,8.41528254 42.9532174,8.36321905 42.914087,8.3267746 C42.888,8.30334603 42.8566957,8.29553651 42.828,8.27471111 C42.2775652,7.67858413 41.9227826,6.89763175 41.9227826,6.02296508 C41.9227826,4.17731429 43.428,2.67528254 45.2775652,2.67528254 M4.49582609,42.399727 C3.45495652,42.399727 2.60973913,41.5562984 2.60973913,40.5176317 C2.60973913,39.4763619 3.45495652,38.6329333 4.49582609,38.6329333 C5.53930435,38.6329333 6.38452174,39.4763619 6.38452174,40.5176317 C6.38452174,41.5562984 5.53930435,42.399727 4.49582609,42.399727 M28.5453913,49.6365524 C28.488,49.6365524 28.4332174,49.6521714 28.3758261,49.6547746 L25.2375652,37.3651873 C26.3410435,36.8731873 27.2906087,36.1182667 28.0497391,35.199346 L29.3045217,35.9204254 C29.508,36.0375683 29.7323478,36.0922349 29.954087,36.0922349 C30.4053913,36.0922349 30.8436522,35.8579492 31.0862609,35.4388381 C31.4436522,34.8166794 31.2271304,34.0201079 30.6036522,33.6608698 L29.354087,32.9449968 C29.6566957,32.1171873 29.8497391,31.2347111 29.8497391,30.3027746 C29.8497391,28.5690603 29.2549565,26.983727 28.2871304,25.6925524 L42.1288696,11.0549016 C43.0445217,11.6276 44.1193043,11.9738222 45.2775652,11.9738222 C48.5671304,11.9738222 51.2410435,9.30296508 51.2410435,6.02296508 C51.2410435,2.7403619 48.5671304,0.0721079365 45.2775652,0.0721079365 C41.988,0.0721079365 39.314087,2.7403619 39.314087,6.02296508 C39.314087,7.20480635 39.6714783,8.30334603 40.2688696,9.23007619 L26.4166957,23.8781397 C25.1801739,23.0451238 23.6906087,22.5583302 22.0888696,22.5583302 C21.2253913,22.5583302 20.4062609,22.7327429 19.6288696,22.9956635 L18.9297391,21.7201079 C18.5853913,21.0875365 17.7949565,20.8532508 17.1610435,21.199473 C16.5271304,21.5456952 16.2975652,22.3370603 16.641913,22.9670286 L17.3358261,24.2295683 C15.5201739,25.6482984 14.3332174,27.8297587 14.3332174,30.3027746 C14.3332174,31.2242984 14.5210435,32.0989651 14.8210435,32.9189651 L11.2471304,35.0769968 C11.2158261,35.095219 11.1975652,35.1290603 11.1688696,35.1498857 C11.1375652,35.1655048 11.1010435,35.1655048 11.0723478,35.183727 L7.59756522,37.2818857 C6.79147826,36.5087429 5.70104348,36.0297587 4.49582609,36.0297587 C2.01756522,36.0297587 0.00104347826,38.0420127 0.00104347826,40.5176317 C0.00104347826,42.9906476 2.01756522,45.0029016 4.49582609,45.0029016 C6.97408696,45.0029016 8.99321739,42.9906476 8.99321739,40.5176317 C8.99321739,40.1844254 8.95147826,39.8616317 8.88104348,39.5492508 L12.4210435,37.4094413 C12.4575652,37.3886159 12.4784348,37.3521714 12.5123478,37.3261397 C12.5384348,37.3131238 12.5697391,37.3209333 12.5984348,37.3027111 L16.1149565,35.1785206 C17.5393043,36.9122349 19.6732174,38.0446159 22.0888696,38.0446159 C22.3001739,38.0446159 22.4984348,37.9977587 22.7045217,37.9821397 L25.8532174,50.3081714 C23.9201739,51.2947746 22.581913,53.2783937 22.581913,55.5874095 C22.581913,58.8700127 25.2558261,61.5382667 28.5453913,61.5382667 C31.8323478,61.5382667 34.5062609,58.8700127 34.5062609,55.5874095 C34.5062609,52.3074095 31.8323478,49.6365524 28.5453913,49.6365524" id="Fill-1" fill="#00BFE7"></path>
                    <g id="Group-5" transform="translate(43.739130, 41.712870)">
                        <mask id="mask-2" fill="white">
                            <use xlink:href="#path-1"></use>
                        </mask>
                        <g id="Clip-4"></g>
                        <path d="M6.45530435,6.48412698 C5.41443478,6.48412698 4.5666087,5.63809524 4.5666087,4.59942857 C4.5666087,3.5607619 5.41443478,2.71473016 6.45530435,2.71473016 C7.49617391,2.71473016 8.344,3.5607619 8.344,4.59942857 C8.344,5.63809524 7.49617391,6.48412698 6.45530435,6.48412698 M6.45530435,0.111555556 C5.23965217,0.111555556 4.13878261,0.600952381 3.33008696,1.38450794 L2.05443478,0.653015873 C1.43095652,0.298984127 0.632695652,0.50984127 0.272695652,1.13460317 C-0.0873043478,1.7567619 0.129217391,2.55333333 0.752695652,2.90996825 L2.06226087,3.65968254 C1.99704348,3.96425397 1.95791304,4.27663492 1.95791304,4.59942857 C1.95791304,7.07244444 3.97704348,9.08730159 6.45530435,9.08730159 C8.93356522,9.08730159 10.9526957,7.07244444 10.9526957,4.59942857 C10.9526957,2.1264127 8.93356522,0.111555556 6.45530435,0.111555556" id="Fill-3" fill="#00BFE7" mask="url(#mask-2)"></path>
                    </g>
                    <path d="M8.20826087,2.6031746 C9.24913043,2.6031746 10.0969565,3.44920635 10.0969565,4.48787302 C10.0969565,5.25580952 9.6326087,5.91180952 8.97,6.20596825 C8.96478261,6.20857143 8.95695652,6.20596825 8.95173913,6.2111746 C8.94652174,6.21377778 8.94130435,6.2215873 8.93608696,6.22419048 C8.71173913,6.31790476 8.46652174,6.37257143 8.20826087,6.37257143 C7.1673913,6.37257143 6.31956522,5.52653968 6.31956522,4.48787302 C6.31956522,3.44920635 7.1673913,2.6031746 8.20826087,2.6031746 M8.20826087,8.97574603 C8.45869565,8.97574603 8.70130435,8.93930159 8.94130435,8.90025397 L9.68478261,10.2617143 C9.92217391,10.6938413 10.3682609,10.9385397 10.83,10.9385397 C11.0413043,10.9385397 11.2578261,10.8890794 11.456087,10.779746 C12.0873913,10.4335238 12.3195652,9.6447619 11.9726087,9.01219048 L11.2786957,7.74704762 C12.1526087,6.92704762 12.7056522,5.77384127 12.7056522,4.48787302 C12.7056522,2.01225397 10.6865217,0 8.20826087,0 C5.73,0 3.71086957,2.01225397 3.71086957,4.48787302 C3.71086957,6.96088889 5.73,8.97574603 8.20826087,8.97574603" id="Fill-6" fill="#00BFE7"></path>
                    <path d="M12.0041739,14.496819 L14.325913,18.7321841 C14.5606957,19.1643111 15.0067826,19.4090095 15.4685217,19.4090095 C15.6798261,19.4090095 15.8963478,19.3595492 16.0946087,19.2502159 C16.7285217,18.9039937 16.958087,18.1152317 16.6137391,17.4826603 L14.292,13.2498984 C13.9476522,12.6147238 13.1546087,12.3856444 12.5206957,12.7318667 C11.8893913,13.0754857 11.6572174,13.8668508 12.0041739,14.496819" id="Fill-8" fill="#00BFE7"></path>
                    <path d="M40.7277391,39.4646476 L35.6668696,36.5621079 C35.0433913,36.2080762 34.2451304,36.4163302 33.8851304,37.0436952 C33.5251304,37.665854 33.7416522,38.4624254 34.3651304,38.8190603 L39.4286087,41.7216 C39.632087,41.8387429 39.8564348,41.8960127 40.0781739,41.8960127 C40.5294783,41.8960127 40.9677391,41.661727 41.2103478,41.2426159 C41.5677391,40.617854 41.3512174,39.8238857 40.7277391,39.4646476" id="Fill-10" fill="#00BFE7"></path>
                </g>
            </g>
        </g>
    </g>
</svg>