<?xml version="1.0" encoding="UTF-8" standalone="no"?>
<svg width="58px" height="61px" viewBox="0 0 58 61" version="1.1" xmlns="http://www.w3.org/2000/svg" xmlns:xlink="http://www.w3.org/1999/xlink">
    <!-- Generator: Sketch 3.8.3 (29802) - http://www.bohemiancoding.com/sketch -->
    <title>Group 11</title>
    <desc>Created with Sketch.</desc>
    <defs></defs>
    <g id="Page-1" stroke="none" stroke-width="1" fill="none" fill-rule="evenodd">
        <g id="Home-3" transform="translate(-869.000000, -895.000000)" fill="#00BFE7">
            <g id="Group" transform="translate(84.000000, 893.000000)">
                <g id="Group-11" transform="translate(785.000000, 2.000000)">
                    <path d="M8.97834783,37.0671238 C8.25834783,37.0671238 7.674,37.6502349 7.674,38.3687111 L7.674,59.2123302 C7.674,59.9308063 8.25834783,60.5139175 8.97834783,60.5139175 C9.69834783,60.5139175 10.2826957,59.9308063 10.2826957,59.2123302 L10.2826957,38.3687111 C10.2826957,37.6502349 9.69834783,37.0671238 8.97834783,37.0671238" id="Fill-1"></path>
                    <path d="M8.97834783,5.64732698 C10.1731304,5.64732698 11.1461739,6.61831111 11.1461739,7.81056508 C11.1461739,9.25272381 9.93052174,11.0931683 8.97834783,11.0931683 C8.02617391,11.0931683 6.81052174,9.25272381 6.81052174,7.81056508 C6.81052174,6.61831111 7.78356522,5.64732698 8.97834783,5.64732698 M8.97834783,13.6963429 C11.8505217,13.6963429 13.7548696,10.1534222 13.7548696,7.81056508 C13.7548696,5.18135873 11.6131304,3.04415238 8.97834783,3.04415238 C6.34356522,3.04415238 4.20182609,5.18135873 4.20182609,7.81056508 C4.20182609,10.1534222 6.10617391,13.6963429 8.97834783,13.6963429" id="Fill-3"></path>
                    <path d="M16.356,14.5652825 C16.2125217,14.4481397 16.0455652,14.3596317 15.8681739,14.3101714 C15.6333913,14.2450921 15.3568696,14.2268698 14.0316522,14.1722032 L13.3507826,14.1409651 C12.2394783,14.0576635 11.1725217,14.6928381 10.622087,15.7627429 C10.3142609,16.361473 9.54469565,16.5749333 8.9786087,16.5749333 C8.41252174,16.5749333 7.64295652,16.361473 7.33773913,15.765346 C6.78469565,14.6954413 5.7986087,14.0732825 4.60643478,14.1409651 L3.92295652,14.1722032 C2.60034783,14.2268698 2.32382609,14.2450921 2.08904348,14.3101714 C1.91165217,14.3596317 1.74469565,14.4481397 1.60121739,14.5652825 C1.02469565,15.0416635 -0.506608696,16.3068063 0.169043478,34.2869333 C0.182086957,34.6461714 0.393391304,35.0991238 0.664695652,35.3360127 C1.03513043,35.6588063 1.42382609,35.7447111 1.86991304,35.7264889 L3.18208696,59.285219 C3.22382609,60.0010921 3.876,60.5816 4.55686957,60.5113143 C5.27686957,60.4722667 5.82730435,59.8579175 5.78556522,59.1394413 L4.416,34.5134095 C4.40034783,34.1541714 4.18121739,33.6960127 3.90991304,33.4591238 C3.54991304,33.1467429 3.12730435,33.0686476 2.736,33.0634413 C2.33426087,21.1070603 2.98643478,17.6474413 3.20034783,16.8066159 C3.456,16.7936 3.7586087,16.7831873 4.02991304,16.7727746 L4.77078261,16.7389333 C4.90121739,16.7571556 4.96121739,16.8456635 5.016,16.9549968 C5.72556522,18.3268698 7.24382609,19.1781079 8.9786087,19.1781079 C10.7133913,19.1781079 12.2316522,18.3268698 12.9412174,16.9523937 C12.996,16.8456635 13.1577391,16.7623619 13.1864348,16.7389333 L13.9246957,16.7727746 C14.1829565,16.7831873 14.4673043,16.7936 14.6994783,16.8014095 C15.0046957,17.8452825 15.6125217,21.4428698 15.2212174,33.0634413 C14.829913,33.0686476 14.4073043,33.1467429 14.0473043,33.4591238 C13.7812174,33.6908063 13.562087,34.1411556 13.5438261,34.4925841 L12.1690435,59.1394413 C12.1273043,59.8579175 12.6777391,60.4722667 13.3977391,60.5113143 C13.4212174,60.5139175 13.4473043,60.5139175 13.4707826,60.5139175 C14.1568696,60.5139175 14.7333913,59.9776635 14.7725217,59.285219 L16.0873043,35.7264889 C16.4786087,35.7369016 16.922087,35.6588063 17.289913,35.3360127 C17.5612174,35.0991238 17.7725217,34.6513778 17.7881739,34.2921397 C18.4638261,16.3068063 16.9325217,15.0416635 16.356,14.5652825" id="Fill-5"></path>
                    <path d="M43.7958261,16.482 C43.5532174,16.7995873 41.7245217,19.2465714 41.1636522,21.6440952 L40.274087,21.6440952 L40.274087,14.6571746 C40.274087,13.9386984 39.6923478,13.3555873 38.9697391,13.3555873 C38.2497391,13.3555873 37.6653913,13.9386984 37.6653913,14.6571746 L37.6653913,21.6440952 L36.8071304,21.6440952 C36.288,19.4470159 34.6914783,17.2134921 34.2375652,16.6147619 C34.1984348,16.5496825 34.1566957,16.4898095 34.1071304,16.4325397 C32.5132174,14.5868889 31.5245217,12.0826349 31.5245217,9.89596825 C31.5245217,5.87406349 34.8636522,2.60447619 38.9697391,2.60447619 C43.0784348,2.60447619 46.4201739,5.87406349 46.4201739,9.89596825 C46.4201739,12.0774286 45.434087,14.5790794 43.7958261,16.482 L43.7958261,16.482 Z M41.5236522,28.0557143 L41.234087,28.0557143 C40.8897391,28.0557143 40.5584348,28.1936825 40.3132174,28.4357778 L39.4158261,29.3286667 L38.5236522,29.3286667 L37.6288696,28.4357778 C37.3836522,28.1936825 37.0523478,28.0557143 36.7053913,28.0557143 L36.4184348,28.0557143 L36.4184348,24.2472698 L41.5236522,24.2472698 L41.5236522,28.0557143 Z M38.9697391,0.0013015873 C33.4262609,0.0013015873 28.9158261,4.43971429 28.9158261,9.89596825 C28.9158261,12.6761587 30.0793043,15.7010476 32.0332174,18.017873 C32.0488696,18.0413016 32.0645217,18.0647302 32.0827826,18.0855556 C32.568,18.7103175 33.7784348,20.5195238 34.2036522,22.0163492 C33.9610435,22.2532381 33.8097391,22.5812381 33.8097391,22.9456825 L33.8097391,29.3573016 C33.8097391,30.078381 34.3914783,30.6588889 35.114087,30.6588889 L36.1653913,30.6588889 L37.0627826,31.5517778 C37.308,31.7964762 37.6393043,31.9318413 37.9836522,31.9318413 L39.9558261,31.9318413 C40.3027826,31.9318413 40.634087,31.7964762 40.8793043,31.5517778 L41.7766957,30.6588889 L42.828,30.6588889 C43.548,30.6588889 44.1323478,30.078381 44.1323478,29.3573016 L44.1323478,22.9456825 C44.1323478,22.6046667 43.994087,22.3000952 43.7775652,22.0684127 C44.1401739,20.7043492 45.1471304,19.0070794 45.8201739,18.1193968 C47.8288696,15.7895556 49.0288696,12.7152063 49.0288696,9.89596825 C49.0288696,4.43971429 44.5158261,0.0013015873 38.9697391,0.0013015873 L38.9697391,0.0013015873 Z" id="Fill-8"></path>
                    <path d="M26.3882609,9.9727619 C26.3882609,9.25428571 25.803913,8.6711746 25.083913,8.6711746 L21.4604348,8.6711746 C20.7404348,8.6711746 20.156087,9.25428571 20.156087,9.9727619 C20.156087,10.6912381 20.7404348,11.2743492 21.4604348,11.2743492 L25.083913,11.2743492 C25.803913,11.2743492 26.3882609,10.6912381 26.3882609,9.9727619" id="Fill-10"></path>
                    <path d="M24.5261739,0.824946032 C24.0070435,0.332946032 23.180087,0.340755556 22.6818261,0.863993651 C22.1835652,1.3820254 22.1966087,2.20462857 22.7183478,2.7044381 L25.6453043,5.50805714 C25.8983478,5.75015238 26.2218261,5.86989841 26.547913,5.86989841 C26.8896522,5.86989841 27.234,5.73713651 27.4896522,5.4716127 C27.987913,4.95097778 27.9722609,4.1283746 27.4531304,3.63116825 L24.5261739,0.824946032 Z" id="Fill-12"></path>
                    <path d="M25.6445217,14.4356444 L22.7175652,17.2418667 C22.1984348,17.739073 22.1827826,18.5616762 22.6810435,19.0823111 C22.9366957,19.3478349 23.2810435,19.4832 23.6227826,19.4832 C23.9488696,19.4832 24.2723478,19.3608508 24.5253913,19.1187556 L27.4523478,16.3151365 C27.974087,15.815327 27.9871304,14.9927238 27.4888696,14.4746921 C26.9932174,13.9540571 26.1662609,13.9436444 25.6445217,14.4356444" id="Fill-14"></path>
                    <path d="M56.564087,8.6711746 L52.9406087,8.6711746 C52.2206087,8.6711746 51.6362609,9.25428571 51.6362609,9.9727619 C51.6362609,10.6912381 52.2206087,11.2743492 52.9406087,11.2743492 L56.564087,11.2743492 C57.284087,11.2743492 57.8684348,10.6912381 57.8684348,9.9727619 C57.8684348,9.25428571 57.284087,8.6711746 56.564087,8.6711746" id="Fill-16"></path>
                    <path d="M51.4766087,5.87093968 C51.8026957,5.87093968 52.1261739,5.75119365 52.3818261,5.50909841 L55.3087826,2.70287619 C55.827913,2.20566984 55.8435652,1.38046349 55.3426957,0.862431746 C54.8470435,0.341796825 54.0226957,0.331384127 53.4983478,0.825987302 L50.5713913,3.62960635 C50.0522609,4.12941587 50.0366087,4.95201905 50.5374783,5.47005079 C50.7905217,5.73817778 51.1348696,5.87093968 51.4766087,5.87093968" id="Fill-18"></path>
                    <path d="M52.3810435,14.4356444 C51.8593043,13.9436444 51.0375652,13.9540571 50.5366957,14.4746921 C50.0384348,14.9927238 50.0514783,15.815327 50.5732174,16.3151365 L53.5001739,19.1187556 C53.7532174,19.3608508 54.0766957,19.4832 54.4027826,19.4832 C54.7445217,19.4832 55.0888696,19.3478349 55.3445217,19.0823111 C55.8427826,18.5616762 55.8271304,17.739073 55.308,17.2418667 L52.3810435,14.4356444 Z" id="Fill-20"></path>
                    <path d="M41.8213043,8.50483175 L40.4282609,8.9812127 L39.8152174,8.61676825 C39.4056522,8.37467302 38.8969565,8.37206984 38.4821739,8.61676825 L37.83,9.00464127 L36.5021739,8.51524444 C35.8317391,8.26794286 35.0778261,8.6115619 34.8273913,9.28578413 C34.5795652,9.96000635 34.9213043,10.7097206 35.5995652,10.9570222 L37.5117391,11.6624825 C37.6552174,11.714546 37.8091304,11.743181 37.9604348,11.743181 C38.1926087,11.743181 38.4247826,11.6807048 38.6282609,11.5583556 L39.15,11.251181 L39.6117391,11.5271175 C39.9378261,11.7197524 40.3421739,11.7614032 40.7021739,11.639054 L42.6665217,10.9674349 C43.3473913,10.7357524 43.7126087,9.99384762 43.4778261,9.31441905 C43.2456522,8.63499048 42.5047826,8.27575238 41.8213043,8.50483175" id="Fill-22"></path>
                </g>
            </g>
        </g>
    </g>
</svg>