<?xml version="1.0" encoding="UTF-8" standalone="no"?>
<svg width="69px" height="53px" viewBox="0 0 69 53" version="1.1" xmlns="http://www.w3.org/2000/svg" xmlns:xlink="http://www.w3.org/1999/xlink">
    <!-- Generator: Sketch 3.8.3 (29802) - http://www.bohemiancoding.com/sketch -->
    <title>Group 12</title>
    <desc>Created with Sketch.</desc>
    <defs>
        <polygon id="path-1" points="1 53.24932 69.3337717 53.24932 69.3337717 0.172170634 1 0.172170634 1 35.9769286 25.4087532 35.9769286 25.4087532 0.17246142 0.998832899 0.17246142 0.998832899 35.9769286"></polygon>
        <polygon id="path-3" points="0.155516227 36.8021663 24.567479 36.8021663 24.567479 0.998280669 0.155516227 0.998280669 0.155516227 36.8021663"></polygon>
        <polygon id="path-5" points="0.155516227 36.8021663 24.567479 36.8021663 24.567479 0.998280669 0.155516227 0.998280669 0.155516227 36.8021663"></polygon>
    </defs>
    <g id="Page-1" stroke="none" stroke-width="1" fill="none" fill-rule="evenodd">
        <g id="Home-3" transform="translate(-667.000000, -899.000000)">
            <g id="Group" transform="translate(84.000000, 893.000000)">
                <g id="Group-12" transform="translate(581.000000, 5.000000)">
                    <g id="Group-3" transform="translate(0.973932, 0.735398)">
                        <mask id="mask-2" fill="white">
                            <use xlink:href="#path-1"></use>
                        </mask>
                        <g id="Clip-2"></g>
                    </g>
                    <path d="M11.812886,12.2525798 C11.812886,10.9527669 12.8720303,9.89430624 14.1791836,9.89430624 C15.4834191,9.89430624 16.5454812,10.9527669 16.5454812,12.2525798 C16.5454812,13.5523928 15.4834191,14.6108535 14.1791836,14.6108535 C12.8720303,14.6108535 11.812886,13.5523928 11.812886,12.2525798 M19.463234,12.2525798 C19.463234,9.35053662 17.0940187,6.98644729 14.1791836,6.98644729 C11.2672663,6.98644729 8.89513319,9.35053662 8.89513319,12.2525798 C8.89513319,15.1546231 11.2672663,17.5187124 14.1791836,17.5187124 C17.0940187,17.5187124 19.463234,15.1546231 19.463234,12.2525798" id="Fill-4" fill="#00BFE7"></path>
                    <g id="Group-8" transform="translate(45.740224, 17.182551)">
                        <mask id="mask-4" fill="white">
                            <use xlink:href="#path-3"></use>
                        </mask>
                        <g id="Clip-7"></g>
                        <path d="M12.3604764,32.656141 C8.96129432,27.2707863 3.07326907,17.1165428 3.07326907,13.1618546 C3.07326907,8.05856219 7.23982014,3.90613962 12.3604764,3.90613962 C17.4840504,3.90613962 21.6506015,8.05856219 21.6506015,13.1618546 C21.6506015,17.1165428 15.7596585,27.2707863 12.3604764,32.656141 M12.3604764,0.998280669 C5.62922057,0.998280669 0.155516227,6.45342406 0.155516227,13.1618546 C0.155516227,19.3323313 10.0175209,34.4444743 11.1408557,36.1455718 C11.4122067,36.5555799 11.8702939,36.8027479 12.3604764,36.8027479 C12.8506589,36.8027479 13.3087461,36.5555799 13.5800971,36.1455718 C14.7034319,34.4444743 24.5683543,19.3323313 24.5683543,13.1618546 C24.5683543,6.45342406 19.0917322,0.998280669 12.3604764,0.998280669" id="Fill-6" fill="#00BFE7" mask="url(#mask-4)"></path>
                    </g>
                    <g id="Group-8" transform="translate(1.973932, 0.000000)">
                        <mask id="mask-6" fill="white">
                            <use xlink:href="#path-5"></use>
                        </mask>
                        <g id="Clip-7"></g>
                        <path d="M12.3604764,32.656141 C8.96129432,27.2707863 3.07326907,17.1165428 3.07326907,13.1618546 C3.07326907,8.05856219 7.23982014,3.90613962 12.3604764,3.90613962 C17.4840504,3.90613962 21.6506015,8.05856219 21.6506015,13.1618546 C21.6506015,17.1165428 15.7596585,27.2707863 12.3604764,32.656141 M12.3604764,0.998280669 C5.62922057,0.998280669 0.155516227,6.45342406 0.155516227,13.1618546 C0.155516227,19.3323313 10.0175209,34.4444743 11.1408557,36.1455718 C11.4122067,36.5555799 11.8702939,36.8027479 12.3604764,36.8027479 C12.8506589,36.8027479 13.3087461,36.5555799 13.5800971,36.1455718 C14.7034319,34.4444743 24.5683543,19.3323313 24.5683543,13.1618546 C24.5683543,6.45342406 19.0917322,0.998280669 12.3604764,0.998280669" id="Fill-6" fill="#00BFE7" mask="url(#mask-6)"></path>
                    </g>
                    <path d="M58.1007008,31.8806277 C56.7964652,31.8806277 55.7344032,30.8250749 55.7344032,29.525262 C55.7344032,28.225449 56.7964652,27.1669884 58.1007008,27.1669884 C59.4049363,27.1669884 60.4699161,28.225449 60.4699161,29.525262 C60.4699161,30.8250749 59.4049363,31.8806277 58.1007008,31.8806277 M58.1007008,24.2591294 C55.1887834,24.2591294 52.8166504,26.6203109 52.8166504,29.525262 C52.8166504,32.4273052 55.1887834,34.7884867 58.1007008,34.7884867 C61.0155359,34.7884867 63.3876689,32.4273052 63.3876689,29.525262 C63.3876689,26.6203109 61.0155359,24.2591294 58.1007008,24.2591294" id="Fill-9" fill="#00BFE7"></path>
                    <path d="M51.0117284,50.1768762 L48.2106857,49.3684915 C47.4228924,49.1358627 46.6234282,49.5894887 46.4016789,50.3571635 C46.1799297,51.130654 46.6234282,51.9361309 47.3966327,52.1629439 L50.1976754,52.9713287 C50.3348098,53.0120387 50.4690264,53.026578 50.603243,53.026578 C51.2363954,53.026578 51.819946,52.6165699 52.0066822,51.9797488 C52.2284314,51.2062583 51.7849329,50.4007814 51.0117284,50.1768762" id="Fill-11" fill="#00BFE7"></path>
                    <path d="M28.5955086,43.6908969 L25.7944659,42.8825121 C25.0095904,42.6527912 24.2072084,43.1006015 23.9854591,43.8711841 C23.7637099,44.6446746 24.2072084,45.4501515 24.9804129,45.6769645 L27.7814556,46.4853493 C27.91859,46.5260593 28.0557244,46.5405986 28.1870232,46.5405986 C28.8201756,46.5405986 29.4037262,46.1305905 29.5904624,45.4937694 C29.8122116,44.7202789 29.3687131,43.914802 28.5955086,43.6908969" id="Fill-13" fill="#00BFE7"></path>
                    <path d="M39.8023056,46.9337412 L36.9983451,46.1253564 C36.2251406,45.8956355 35.416923,46.3463537 35.1922561,47.1198441 C34.9705068,47.8875189 35.4140053,48.6929958 36.1901275,48.9198088 L38.994088,49.7281936 C39.1253869,49.7689036 39.2625213,49.7834429 39.3967379,49.7834429 C40.0298903,49.7834429 40.6134408,49.370527 40.800177,48.7337058 C41.0219262,47.9660311 40.5784278,47.1576463 39.8023056,46.9337412" id="Fill-15" fill="#00BFE7"></path>
                    <path d="M17.3860858,40.4477618 L14.585043,39.639377 C13.806003,39.412564 13.0007032,39.8574664 12.7760363,40.628049 C12.554287,41.4015395 12.9977855,42.2070164 13.77099,42.4338294 L16.5720327,43.2422142 C16.7091671,43.2829243 16.8433837,43.2974635 16.9776004,43.2974635 C17.6107527,43.2974635 18.1943033,42.8874554 18.3810395,42.2506343 C18.6027887,41.4800517 18.1592903,40.6716669 17.3860858,40.4477618" id="Fill-17" fill="#00BFE7"></path>
                </g>
            </g>
        </g>
    </g>
</svg>