<svg width="448" height="324" viewBox="0 0 448 324" fill="none" xmlns="http://www.w3.org/2000/svg">
<g clip-path="url(#clip0_382_1692)">
<path d="M383.068 63.7881C383.068 63.7881 372.797 64.9435 372.134 80.7896C371.582 93.9946 370.455 101.354 375.846 104.109C377.774 105.093 380.04 105.18 382.098 104.506L404.107 97.2959C404.107 97.2959 404.438 73.5268 396.818 67.7496C389.198 61.9724 383.068 63.7881 383.068 63.7881Z" fill="#1C304A"/>
<path d="M395.201 100.213L384.062 103.862V87.8872H394.168L395.201 100.213Z" fill="#FAAFB2"/>
<path d="M355.152 190.903C354.548 194.563 352.098 197.188 349.68 196.765C347.262 196.342 345.791 193.033 346.396 189.371C346.616 187.905 347.198 186.519 348.092 185.329L350.853 169.856L358.366 171.423L354.847 186.51C355.31 187.937 355.414 189.444 355.152 190.903Z" fill="#FAAFB2"/>
<path d="M386.653 293.798H376.22L367.17 238.256H389.296L386.653 293.798Z" fill="#FAAFB2"/>
<path d="M366.061 302.726C364.964 302.726 363.987 302.698 363.252 302.631C360.48 302.378 357.836 300.34 356.507 299.148C355.911 298.614 355.719 297.759 356.03 297.023C356.253 296.494 356.698 296.101 357.251 295.943L364.573 293.859L376.43 285.888L376.562 286.124C376.612 286.213 377.776 288.302 378.166 289.715C378.314 290.253 378.275 290.7 378.05 291.046C377.894 291.286 377.677 291.425 377.501 291.504C377.716 291.729 378.388 292.182 380.459 292.511C383.486 292.989 384.119 289.868 384.145 289.735L384.165 289.63L384.255 289.572C385.694 288.648 386.579 288.228 386.886 288.318C387.077 288.375 387.396 288.47 388.254 296.976C388.341 297.242 388.943 299.2 388.534 301.071C388.088 303.108 379.161 302.407 377.376 302.246C377.325 302.252 370.641 302.725 366.061 302.726Z" fill="#1C304A"/>
<path d="M410.222 293.798H399.788L391.738 238.256L413.864 236.256L410.222 293.798Z" fill="#FAAFB2"/>
<path d="M389.629 302.726C388.532 302.726 387.556 302.698 386.82 302.631C384.048 302.378 381.405 300.34 380.076 299.148C379.479 298.614 379.288 297.759 379.598 297.023C379.821 296.495 380.266 296.101 380.819 295.943L388.142 293.859L399.998 285.888L400.131 286.124C400.18 286.213 401.344 288.302 401.734 289.715C401.883 290.253 401.844 290.7 401.618 291.046C401.462 291.286 401.246 291.425 401.069 291.504C401.284 291.729 401.957 292.182 404.027 292.511C407.055 292.989 407.688 289.868 407.713 289.735L407.733 289.63L407.823 289.572C409.263 288.648 410.15 288.23 410.454 288.318C410.645 288.375 410.965 288.47 411.822 296.976C411.909 297.242 412.512 299.2 412.102 301.071C411.656 303.108 402.729 302.407 400.944 302.246C400.893 302.252 394.209 302.726 389.629 302.726Z" fill="#1C304A"/>
<path d="M413.224 157.379H356.531L374.754 97.626H400.965L413.224 157.379Z" fill="#A9AEB1"/>
<path d="M377.942 97.6351C377.942 97.6351 365.352 97.305 364.026 100.606C362.701 103.908 347.129 182.478 347.129 182.478H357.4L377.942 97.6351Z" fill="#A9AEB1"/>
<path d="M385.441 92.3094C391.571 92.3094 396.541 87.358 396.541 81.2502C396.541 75.1423 391.571 70.1909 385.441 70.1909C379.311 70.1909 374.342 75.1423 374.342 81.2502C374.342 87.358 379.311 92.3094 385.441 92.3094Z" fill="#FAAFB2"/>
<path d="M383.999 78.7992C383.999 81.0082 382.209 82.7989 380 82.7989C377.791 82.7989 376 81.0082 376 78.7992C376 76.5902 380 76.7992 380 76.7992C380 76.7992 383.999 76.5902 383.999 78.7992Z" fill="white" fill-opacity="0.3"/>
<path d="M393.999 78.8001C393.999 81.0092 392.209 82.7999 390 82.7999C387.791 82.7999 386 81.0092 386 78.8001C386 76.5911 390 76.8002 390 76.8002C390 76.8002 393.999 76.5911 393.999 78.8001Z" fill="white" fill-opacity="0.3"/>
<path fill-rule="evenodd" clip-rule="evenodd" d="M389.998 76.7992C389.998 76.7992 385.998 76.5902 385.998 78.7992C385.998 78.7993 385.998 78.7994 385.998 78.7996H383.999C383.999 78.7995 383.999 78.7994 383.999 78.7992C383.999 76.5902 380 76.7993 380 76.7993C380 76.7993 376 76.5902 376 78.7992C376 81.0083 377.791 82.799 380 82.799C381.863 82.799 383.429 81.5245 383.873 79.7995H386.125C386.569 81.5244 388.135 82.7989 389.998 82.7989C392.207 82.7989 393.998 81.0082 393.998 78.7992C393.998 76.5902 389.998 76.7992 389.998 76.7992ZM389.947 77.7979L389.947 77.7979L389.943 77.7977L389.919 77.7968C389.897 77.796 389.861 77.795 389.814 77.7944C389.719 77.7932 389.58 77.7936 389.413 77.8002C389.073 77.8138 388.638 77.8524 388.217 77.9466C387.782 78.044 387.445 78.1829 387.237 78.3447C387.065 78.4776 386.998 78.6036 386.998 78.7992C386.998 80.4559 388.341 81.799 389.998 81.799C391.655 81.799 392.998 80.4559 392.998 78.7992C392.998 78.6036 392.931 78.4776 392.76 78.3447C392.551 78.1829 392.215 78.044 391.78 77.9466C391.359 77.8524 390.923 77.8138 390.583 77.8002C390.416 77.7936 390.278 77.7932 390.183 77.7944C390.136 77.795 390.1 77.796 390.077 77.7968L390.053 77.7977L390.05 77.7978L390.049 77.7979L390.049 77.7979L390.049 77.7979L390.049 77.7979L390.049 77.7979L389.998 77.8006L389.947 77.7979L389.947 77.7979L389.947 77.7979ZM379.949 77.798L379.948 77.7979L379.945 77.7978L379.921 77.7969C379.898 77.7961 379.862 77.7951 379.815 77.7945C379.72 77.7933 379.582 77.7937 379.415 77.8003C379.075 77.8138 378.639 77.8524 378.218 77.9467C377.783 78.0441 377.447 78.1829 377.238 78.3448C377.067 78.4777 377 78.6037 377 78.7992C377 80.456 378.343 81.7991 380 81.7991C381.656 81.7991 383 80.456 383 78.7992C383 78.6037 382.933 78.4777 382.761 78.3448C382.553 78.1829 382.216 78.0441 381.781 77.9467C381.36 77.8524 380.925 77.8138 380.585 77.8003C380.418 77.7937 380.279 77.7933 380.184 77.7945C380.137 77.7951 380.101 77.7961 380.078 77.7969L380.055 77.7978L380.051 77.7979L380.051 77.7979L380.051 77.798L380.05 77.798L380.05 77.798L380.05 77.798L380 77.8006L379.949 77.798L379.949 77.798L379.949 77.798Z" fill="#2F2E41"/>
<path d="M382.405 67.9146C382.405 67.9146 376.296 92.6265 383.088 104.181L373.521 102.156C373.521 102.156 369.814 75.1084 377.269 70.191L382.405 67.9146Z" fill="#1C304A"/>
<path d="M408.689 157.379H363.423L345.22 231.811C344.886 234.955 346.886 237.888 349.951 238.706C359.939 241.37 389.9 245.145 426.169 234.63C429.66 233.618 431.64 229.95 430.545 226.496L408.689 157.379Z" fill="#1C304A"/>
<path d="M389.238 97.6256L399.586 97.1719C404.066 97.5089 408.118 99.939 410.52 103.723C417.83 115.237 431.513 139.511 419.297 142.836C403.199 147.218 395.399 122.828 395.399 122.828L389.238 97.6256Z" fill="#A9AEB1"/>
<path d="M385.687 104.857C383.561 101.812 383.484 98.2285 385.515 96.8532C387.545 95.4779 390.914 96.8315 393.04 99.8778C393.907 101.083 394.459 102.481 394.649 103.956L403.486 116.973L397.001 121.064L388.978 107.797C387.648 107.094 386.52 106.086 385.687 104.857Z" fill="#FAAFB2"/>
<path d="M390.918 115.386L398.22 108.689L412.658 122.083L399.231 131.229L390.918 115.386Z" fill="#A9AEB1"/>
<path d="M262.375 82.3955H33.1735C24.2411 82.3955 17 89.6105 17 98.5106V98.5106C17 107.411 24.2411 114.626 33.1735 114.626H262.375C271.308 114.626 278.549 107.411 278.549 98.5106C278.549 89.6105 271.308 82.3955 262.375 82.3955Z" fill="#0B4778"/>
<path d="M151.184 163.833C143.083 163.833 136.492 157.266 136.492 149.195C136.492 141.123 143.083 134.556 151.184 134.556C159.285 134.556 165.876 141.123 165.876 149.195C165.876 157.266 159.285 163.833 151.184 163.833ZM151.184 138.534C145.284 138.534 140.485 143.316 140.485 149.195C140.485 155.073 145.284 159.855 151.184 159.855C157.084 159.855 161.884 155.073 161.884 149.195C161.884 143.316 157.084 138.534 151.184 138.534Z" fill="#484662"/>
<path d="M178.897 175.822C178.437 175.822 177.975 175.664 177.598 175.343L159.027 159.476C158.19 158.76 158.093 157.505 158.811 156.671C159.529 155.837 160.789 155.741 161.626 156.456L180.197 172.323C181.034 173.038 181.131 174.294 180.413 175.128C180.018 175.586 179.459 175.822 178.897 175.822Z" fill="#484662"/>
<path d="M276.494 66.1484H228.905C227.771 66.1484 226.852 67.0646 226.852 68.1947V68.1947C226.852 69.3248 227.771 70.2409 228.905 70.2409H276.494C277.628 70.2409 278.547 69.3248 278.547 68.1947C278.547 67.0646 277.628 66.1484 276.494 66.1484Z" fill="#3F3D56"/>
<path d="M66.6422 19.4297H19.0536C17.9195 19.4297 17 20.3458 17 21.4759V21.4759C17 22.606 17.9195 23.5222 19.0536 23.5222H66.6422C67.7764 23.5222 68.6958 22.606 68.6958 21.4759C68.6958 20.3458 67.7764 19.4297 66.6422 19.4297Z" fill="#3F3D56"/>
<path d="M158.729 37.2881H19.0536C17.9194 37.2881 17 38.2042 17 39.3343V39.3343C17 40.4644 17.9194 41.3806 19.0536 41.3806H158.729C159.863 41.3806 160.783 40.4644 160.783 39.3343C160.783 38.2042 159.863 37.2881 158.729 37.2881Z" fill="#3F3D56"/>
</g>
<defs>
<clipPath id="clip0_382_1692">
<rect width="414" height="284" fill="white" transform="translate(17 20)"/>
</clipPath>
</defs>
</svg>
