<svg width="448" height="382" viewBox="0 0 448 382" fill="none" xmlns="http://www.w3.org/2000/svg">
<path d="M177.695 80.2858H128.681C126.999 80.2858 125.631 78.9177 125.631 77.2362C125.631 75.5546 126.999 74.1865 128.681 74.1865H177.695C179.377 74.1865 180.745 75.5546 180.745 77.2362C180.745 78.9177 179.377 80.2858 177.695 80.2858Z" fill="#0B4778"/>
<path d="M215.947 90.6076H128.681C126.999 90.6076 125.631 89.2394 125.631 87.5579C125.631 85.8764 126.999 84.5083 128.681 84.5083H215.947C217.628 84.5083 218.996 85.8764 218.996 87.5579C218.996 89.2394 217.628 90.6076 215.947 90.6076Z" fill="#0B4778"/>
<path d="M215.947 100.837H128.681C126.999 100.837 125.631 99.4685 125.631 97.7869C125.631 96.1054 126.999 94.7373 128.681 94.7373H215.947C217.628 94.7373 218.996 96.1054 218.996 97.7869C218.996 99.4685 217.628 100.837 215.947 100.837Z" fill="#0B4778"/>
<path d="M225.191 153.919V152.458C208.324 152.458 193.595 138.68 189.679 119.487L196.034 121.122C192.96 118.21 189.855 113.335 187.928 109.35C186.791 113.628 184.666 119.003 182.199 122.445L188.212 119.597C192.211 139.564 207.573 153.919 225.191 153.919Z" fill="#1C304A"/>
<path d="M218.811 97.9973C218.811 99.6087 217.5 100.92 215.888 100.92H177.895C176.284 100.92 174.973 99.6087 174.973 97.9973C174.973 96.3858 176.284 95.0747 177.895 95.0747H215.888C217.5 95.0747 218.811 96.3858 218.811 97.9973Z" fill="#0B4778"/>
<path d="M47.732 260.796C47.1536 258.782 46.1632 257.064 44.984 255.839L40.6998 236.309L31.3613 238.596L36.7127 258.161C36.3608 259.816 36.4312 261.793 37.0096 263.807C38.3309 268.408 41.8023 271.463 44.7632 270.632C47.7241 269.8 49.0532 265.397 47.732 260.796Z" fill="#FFB6B6"/>
<path d="M46.4409 132.685C46.4409 132.685 36.3544 132.337 30.5093 138.912C23.8126 147.093 19.2351 179.147 22.6714 181.305L31.9817 247.417L45.2581 245.593L41.8507 166.268L46.4409 132.685Z" fill="#97D4EA"/>
<path d="M114.533 244.125L112.116 324.814H77.4108L76.008 293.711L69.8414 324.814H32.6445L37.2841 271.346L42.0771 260.102L45.3211 252.481L114.533 244.125Z" fill="#11181D"/>
<path d="M86.9666 119.505L62.8555 118.044L54.8185 128.273C47.8772 129.759 41.6077 131.678 37.2831 134.849C38.3178 165.481 39.045 205.313 48.3202 213.027L37.084 271.159C37.084 271.159 40.4054 268.313 45.9537 269.318C47.8705 269.665 50.1844 273.983 52.5397 274.244C70.6374 276.255 99.9855 274.187 114.532 244.125L108.886 200.606L110.347 137.041C105.779 133.43 100.099 131.083 93.5424 129.734L86.9666 119.505Z" fill="#97D4EA"/>
<path d="M133.387 101.722C133.648 104.255 133.316 106.637 132.551 108.547L136.568 132.521L125.104 134.098L122.264 109.61C121.125 107.896 120.313 105.632 120.051 103.099C119.454 97.3124 121.954 92.313 125.637 91.9327C129.319 91.5523 132.789 95.9352 133.387 101.722Z" fill="#FFB6B6"/>
<path d="M95.2732 138.872C94.073 140.643 94.4074 142.633 94.1208 145.025C92.9042 155.178 112.361 185.181 125.823 188.635C127.59 189.089 128.596 190.994 130.38 191.378C135.662 192.513 140.58 188.32 140.295 182.925L136.638 113.728L121.274 118.968L122.258 154.894C122.16 147.451 115.326 139.873 110.149 136.721C110.149 136.721 99.6638 132.394 95.2732 138.872Z" fill="#97D4EA"/>
<path d="M77.4138 116.153C89.1433 116.153 98.6519 106.644 98.6519 94.9148C98.6519 83.1854 89.1433 73.6768 77.4138 73.6768C65.6844 73.6768 56.1758 83.1854 56.1758 94.9148C56.1758 106.644 65.6844 116.153 77.4138 116.153Z" fill="#FFB6B6"/>
<path d="M96.0591 79.6328C95.8764 79.6767 98.8548 76.7737 98.9817 76.7102C101.904 75.2489 98.9013 89.5329 96.7897 89.1311C91.5949 88.1447 89.3518 86.1866 87.3353 91.0746C86.7727 92.4335 86.422 93.9679 85.326 94.9397C83.8209 96.2621 81.3221 96.1525 80.0947 97.7307C79.1083 99.002 79.3932 100.872 80.1239 102.304C80.8545 103.744 81.9651 104.964 82.6299 106.433C83.3752 108.084 80.1969 113.337 78.9841 116.289V116.296L78.9769 116.314C78.6546 117.088 77.8887 114.857 77.0802 114.635C76.1126 114.368 74.6873 116.653 73.1462 116.238C73.1389 116.238 73.1316 116.23 73.1243 116.23C71.6557 115.821 70.0191 115.383 68.3971 114.945H68.3898C63.8233 113.703 62.6689 115.485 62.4497 115.434L59.6148 112.468C58.6419 111.759 58.7519 109.473 58.0658 108.858C57.5048 108.356 56.1061 109.517 55.6939 109.034C53.6727 106.667 53.2076 104.298 52.0161 99.6231C50.9275 95.3488 48.6698 82.5553 53.3094 81.9781C57.6859 81.4301 54.4857 75.3366 58.8915 75.5631C58.6284 74.4525 59.118 73.2616 59.9144 72.4433C60.7034 71.6176 61.7556 71.1062 62.815 70.6678C68.0391 68.5344 67.1696 66.7005 72.6786 67.9425C73.2266 67.1754 80.2534 65.1754 81.2471 65.4311C81.3202 65.4457 79.7147 68.5636 83.6382 67.9425C83.4921 68.8413 85.631 66.8924 85.8301 70.1345C90.0148 67.623 92.2671 73.6342 92.4059 74.5183C92.5886 75.6216 90.9227 75.059 92.0333 75.227C92.6909 75.3293 93.816 76.6664 93.7065 77.3312C94.1813 76.6883 94.6563 76.0526 95.1385 75.4097C95.2262 75.417 95.3065 75.4316 95.3942 75.4462C97.6154 75.87 95.0689 83.131 95.1604 80.8676C95.3285 76.7102 98.2729 79.1433 96.0591 79.6328Z" fill="#11181D"/>
<path d="M368.092 74.9657C367.308 81.4153 366.45 87.8561 365.52 94.2863C365.143 96.898 364.744 99.5429 363.693 101.964C362.976 103.616 361.971 105.125 360.972 106.623C359.791 108.395 358.591 110.188 356.988 111.588C355.385 112.988 353.302 113.971 351.18 113.807C356.81 110.017 360.595 103.606 361.192 96.8449C361.474 93.6668 361.088 90.4721 361.014 87.2825C360.94 84.0928 361.207 80.7922 362.679 77.9613C364.15 75.1305 367.057 72.8645 370.247 72.945L368.092 74.9657Z" fill="#11181D"/>
<path d="M311.029 212.525C306.447 216.241 300.817 216.89 298.452 213.974C296.087 211.059 297.884 205.683 302.466 201.967C304.471 200.34 306.678 199.302 308.723 198.892L328.334 183.391L335.413 192.748L315.329 207.037C314.506 208.954 313.034 210.898 311.029 212.525Z" fill="#A0616A"/>
<path d="M314.733 191.481L343.953 163.754L346.876 161.563C346.876 161.563 363.649 145.221 367.993 144.846C369.832 144.688 371.672 145.147 373.222 146.154C375.726 147.777 377.022 150.45 377.022 153.143C377.022 155.394 376.116 157.656 374.26 159.321L347.509 183.337L336.128 193.552L321.975 206.261L320.536 203.33L315.671 193.4L314.733 191.481Z" fill="#0B4778"/>
<path d="M377.212 172.717L347.955 181.678C352.853 183.058 354.904 212.905 350.346 213.832C350.346 213.832 398.834 217.281 396.189 213.832C392.963 209.628 397.289 181.69 399.351 181.678L377.212 172.717Z" fill="#A0616A"/>
<path d="M416.145 324.817L413.588 293.955C413.588 282.915 412.872 272.942 411.725 264.05C407.129 228.358 395.607 210.063 395.607 210.063H352.499C352.441 210.129 352.382 210.18 352.324 210.246L352.316 210.253C342.146 220.942 336.856 247.822 334.503 264.05C333.386 271.773 332.933 277.085 332.933 277.085L328.717 314.552L331.764 324.817H356.846L356.452 322.618L372.592 264.05L372.789 263.334L372.964 264.05L387.928 324.817L416.145 324.817Z" fill="#11181D"/>
<path d="M353.382 154.914L362.491 136.525L370.167 123.166L376.374 116.841H393.36L394.941 123.166L404.43 128.437L407.786 154.793L395.829 211.977C374.5 215.909 350.5 211.977 350.5 211.977C350.5 211.977 355 202.409 350.5 188.909C346 175.409 344.368 166.675 344.368 166.675L343.988 164.682L353.382 154.914Z" fill="#0B4778"/>
<path d="M352.288 188.177C346.392 188.01 341.698 184.832 341.805 181.08C341.911 177.327 346.777 174.421 352.674 174.588C355.255 174.662 357.606 175.312 359.424 176.334L384.401 177.357L383.671 189.067L359.127 186.817C357.253 187.734 354.87 188.25 352.288 188.177Z" fill="#A0616A"/>
<path d="M384.23 148.205L407.79 171.596L366.752 175.799L357.215 189.213L414.415 191.11C419.576 192.948 425.074 189.381 425.498 183.919C425.642 182.075 413.89 135.279 406.776 130.935C398.438 125.843 384.23 148.205 384.23 148.205Z" fill="#0B4778"/>
<path d="M400.596 93.8893C400.767 83.2648 392.293 74.5131 381.668 74.3418C371.044 74.1704 362.292 82.6444 362.121 93.269C361.949 103.893 370.423 112.645 381.048 112.817C391.672 112.988 400.424 104.514 400.596 93.8893Z" fill="#A0616A"/>
<path d="M423.592 153.525C423.11 155.352 419.355 156.295 418.478 158.64C415.687 160.233 417.199 147.22 416.074 146.365C415.204 145.715 414.971 147.286 414.773 145.934C414.028 140.863 409.155 141.996 405.545 141.178C405.136 140.381 404.822 139.607 404.618 138.854C404.252 137.495 402.586 137.02 401.6 138.021C401.154 137.627 400.833 136.231 400.519 134.836C400.292 133.82 400.066 132.805 399.803 132.162L397.289 126.492L398.1 130.715C396.456 130.123 394.798 130.737 393.841 128.706C392.613 126.097 392.124 123.043 393.015 120.303C393.826 117.819 395.192 112.843 396.734 108.723C394.988 109.987 392.891 110.907 390.458 111.368C391.32 109.731 392.197 108.065 392.562 106.246C392.92 104.426 392.701 102.403 391.546 100.956C390.597 99.765 389.194 100.065 388.01 99.1074C387.089 98.3622 386.293 96.4552 385.738 95.4104C388.105 103.279 389.895 111.638 386.885 119.149C384.803 124.351 380.419 128.581 375.158 130.503C377.956 128.501 380.689 126.368 382.786 123.65C385.029 120.734 386.49 117.052 386.045 113.399C385.343 107.663 374.705 89.5214 373.397 85.9559C374.113 89.4411 373.836 92.1591 371.951 93.6569C371.461 88.6008 365.952 89.0611 362.949 87.0373C362.949 87.0373 360.626 73.9076 366.076 73.8273C368.707 73.7908 371.461 67.6095 373.85 66.5063C377.664 64.7454 380.002 65.9437 384.233 66.0752C388.456 66.1994 392.511 68.0187 395.09 71.3577C396.442 73.1039 396.938 71.7157 398.97 72.8044C400.899 73.8346 402.199 72.8775 404.384 72.9432C408.76 73.0601 413.005 75.3982 415.46 79.0148C417.915 82.6388 419.428 82.3027 418.456 87.9067C418.441 87.9725 418.441 88.104 418.456 88.3012C418.989 97.1274 417.623 105.975 414.123 114.1C413.042 116.599 418.331 119.178 418.324 122.298C418.316 125.922 412.479 129.224 413.02 130.773C414.569 138.233 423.271 136.575 421.218 149.061C421.05 150.077 423.914 152.305 423.592 153.525Z" fill="#11181D"/>
<path d="M370.29 130.679C370.451 130.628 370.612 130.57 370.772 130.504C370.568 130.65 370.371 130.789 370.166 130.935L370.29 130.679Z" fill="#11181D"/>
<path d="M397.392 69.1223C395.299 69.4333 393.173 65.9609 394.362 61.1455C396.951 65.1053 398.275 69.5629 398.483 74.4593L397.088 74.8917L397.392 69.1223Z" fill="#0B4778"/>
<path d="M408.086 64.6279C406.658 69.6888 399.405 73.0758 398.123 71.3146L397.977 74.3326L397.08 73.179C399.681 69.3107 403.227 66.3432 408.086 64.6279Z" fill="#0B4778"/>
<path d="M248.816 201.1C248.816 199.419 250.185 198.051 251.866 198.051H300.881C302.562 198.051 303.931 199.419 303.931 201.1C303.931 202.782 302.562 204.15 300.881 204.15H251.866C250.185 204.15 248.816 202.782 248.816 201.1Z" fill="#0B4778"/>
<path d="M248.816 221.558C248.816 219.877 250.185 218.509 251.866 218.509H300.881C302.562 218.509 303.931 219.877 303.931 221.558C303.931 223.24 302.562 224.608 300.881 224.608H251.866C250.185 224.608 248.816 223.24 248.816 221.558Z" fill="#0B4778"/>
<path d="M213.614 214.472C211.933 214.472 210.564 213.104 210.564 211.422C210.564 209.741 211.933 208.373 213.614 208.373H300.88C302.562 208.373 303.93 209.741 303.93 211.422C303.93 213.104 302.562 214.472 300.88 214.472H213.614Z" fill="#0B4778"/>
<path d="M207.126 185.284L201.113 182.436C203.58 185.878 205.705 191.253 206.842 195.531C208.769 191.546 211.874 186.671 214.948 183.759L208.593 185.394C212.509 166.201 227.238 152.423 244.105 152.423V150.962C226.487 150.962 211.125 165.317 207.126 185.284Z" fill="#1C304A"/>
<path d="M234.803 214.528H196.809C195.198 214.528 193.887 213.217 193.887 211.605C193.887 209.994 195.198 208.683 196.809 208.683H234.803C236.414 208.683 237.725 209.994 237.725 211.605C237.725 213.217 236.414 214.528 234.803 214.528Z" fill="#0B4778"/>
<path d="M245.899 154.757C246.911 148.521 242.676 142.644 236.44 141.632C230.203 140.62 224.327 144.856 223.315 151.092C222.303 157.329 226.538 163.205 232.775 164.217C239.011 165.229 244.887 160.994 245.899 154.757Z" fill="#1C304A"/>
<path d="M172.503 70.1121C176.4 70.1121 179.559 66.953 179.559 63.0561C179.559 59.1591 176.4 56 172.503 56C168.606 56 165.447 59.1591 165.447 63.0561C165.447 66.953 168.606 70.1121 172.503 70.1121Z" fill="#0B4778"/>
<path d="M255.066 192.129C258.963 192.129 262.122 188.97 262.122 185.073C262.122 181.176 258.963 178.017 255.066 178.017C251.169 178.017 248.01 181.176 248.01 185.073C248.01 188.97 251.169 192.129 255.066 192.129Z" fill="#0B4778"/>
<rect x="20.5" y="324" width="407" height="2" fill="#DFE1E2"/>
</svg>
