<svg width="448" height="382" viewBox="0 0 448 382" fill="none" xmlns="http://www.w3.org/2000/svg">
<path d="M178.195 80.8771H129.181C127.499 80.8771 126.131 79.509 126.131 77.8275C126.131 76.1459 127.499 74.7778 129.181 74.7778H178.195C179.877 74.7778 181.245 76.1459 181.245 77.8275C181.245 79.509 179.877 80.8771 178.195 80.8771Z" fill="#0B4778"/>
<path d="M216.447 91.1989H129.181C127.499 91.1989 126.131 89.8308 126.131 88.1492C126.131 86.4677 127.499 85.0996 129.181 85.0996H216.447C218.128 85.0996 219.496 86.4677 219.496 88.1492C219.496 89.8308 218.128 91.1989 216.447 91.1989Z" fill="#0B4778"/>
<path d="M216.447 101.428H129.181C127.499 101.428 126.131 100.06 126.131 98.3782C126.131 96.6967 127.499 95.3286 129.181 95.3286H216.447C218.128 95.3286 219.496 96.6967 219.496 98.3782C219.496 100.06 218.128 101.428 216.447 101.428Z" fill="#0B4778"/>
<path d="M225.691 154.51V153.049C208.824 153.049 194.095 139.271 190.179 120.078L196.534 121.713C193.46 118.801 190.355 113.926 188.428 109.941C187.291 114.219 185.166 119.594 182.699 123.036L188.712 120.188C192.711 140.155 208.073 154.51 225.691 154.51Z" fill="#1C304A"/>
<path d="M219.311 98.5886C219.311 100.2 218 101.511 216.388 101.511H178.395C176.784 101.511 175.473 100.2 175.473 98.5886C175.473 96.9771 176.784 95.666 178.395 95.666H216.388C218 95.666 219.311 96.9771 219.311 98.5886Z" fill="#0B4778"/>
<path d="M48.232 261.387C47.6536 259.373 46.6632 257.655 45.484 256.43L41.1998 236.9L31.8613 239.188L37.2127 258.752C36.8608 260.408 36.9312 262.384 37.5096 264.398C38.8309 268.999 42.3023 272.055 45.2632 271.223C48.2241 270.392 49.5532 265.988 48.232 261.387Z" fill="#FFB6B6"/>
<path d="M46.9409 133.276C46.9409 133.276 36.8544 132.928 31.0093 139.504C24.3126 147.684 19.7351 179.738 23.1714 181.896L32.4817 248.009L45.7581 246.184L42.3507 166.86L46.9409 133.276Z" fill="#97D4EA"/>
<path d="M115.033 244.716L112.616 325.406H77.9108L76.508 294.302L70.3414 325.406H33.1445L37.7841 271.938L42.5771 260.693L45.8211 253.072L115.033 244.716Z" fill="#11181D"/>
<path d="M87.4666 120.097L63.3555 118.635L55.3185 128.864C48.3772 130.35 42.1077 132.269 37.7831 135.44C38.8178 166.073 39.545 205.904 48.8202 213.618L37.584 271.75C37.584 271.75 40.9054 268.904 46.4537 269.909C48.3705 270.256 50.6844 274.574 53.0397 274.836C71.1374 276.846 100.486 274.779 115.032 244.716L109.386 201.198L110.847 137.632C106.279 134.021 100.599 131.674 94.0424 130.326L87.4666 120.097Z" fill="#97D4EA"/>
<path d="M133.887 102.313C134.148 104.846 133.816 107.229 133.051 109.139L137.068 133.112L125.604 134.69L122.764 110.201C121.625 108.488 120.813 106.224 120.551 103.691C119.954 97.9037 122.454 92.9043 126.137 92.524C129.819 92.1437 133.289 96.5265 133.887 102.313Z" fill="#FFB6B6"/>
<path d="M95.7732 139.463C94.573 141.234 94.9074 143.225 94.6208 145.616C93.4042 155.77 112.861 185.772 126.323 189.227C128.09 189.68 129.096 191.586 130.88 191.969C136.162 193.104 141.08 188.912 140.795 183.516L137.138 114.319L121.774 119.559L122.758 155.485C122.66 148.042 115.826 140.464 110.649 137.312C110.649 137.312 100.164 132.985 95.7732 139.463Z" fill="#97D4EA"/>
<path d="M77.9138 116.744C89.6433 116.744 99.1519 107.236 99.1519 95.5061C99.1519 83.7767 89.6433 74.2681 77.9138 74.2681C66.1844 74.2681 56.6758 83.7767 56.6758 95.5061C56.6758 107.236 66.1844 116.744 77.9138 116.744Z" fill="#FFB6B6"/>
<path d="M96.5591 80.2241C96.3764 80.268 99.3548 77.365 99.4817 77.3015C102.404 75.8402 99.4013 90.1243 97.2897 89.7224C92.0949 88.736 89.8518 86.7779 87.8353 91.6659C87.2727 93.0249 86.922 94.5592 85.826 95.531C84.3209 96.8534 81.8221 96.7438 80.5947 98.322C79.6083 99.5933 79.8932 101.464 80.6239 102.896C81.3545 104.335 82.4651 105.555 83.1299 107.024C83.8752 108.675 80.6969 113.928 79.4841 116.88V116.888L79.4769 116.905C79.1546 117.679 78.3887 115.449 77.5802 115.226C76.6126 114.96 75.1873 117.244 73.6462 116.829C73.6389 116.829 73.6316 116.822 73.6243 116.822C72.1557 116.413 70.5191 115.974 68.8971 115.536H68.8898C64.3233 114.294 63.1689 116.077 62.9497 116.025L60.1148 113.059C59.1419 112.351 59.2519 110.064 58.5658 109.45C58.0048 108.947 56.6061 110.108 56.1939 109.625C54.1727 107.258 53.7076 104.89 52.5161 100.214C51.4275 95.9401 49.1698 83.1466 53.8094 82.5694C58.1859 82.0214 54.9857 75.9279 59.3915 76.1544C59.1284 75.0438 59.618 73.8529 60.4144 73.0346C61.2034 72.2089 62.2556 71.6975 63.315 71.2591C68.5391 69.1257 67.6696 67.2918 73.1786 68.5338C73.7266 67.7667 80.7534 65.7667 81.7471 66.0224C81.8202 66.037 80.2147 69.1549 84.1382 68.5338C83.9921 69.4326 86.131 67.4837 86.3301 70.7258C90.5148 68.2143 92.7671 74.2255 92.9059 75.1096C93.0886 76.2129 91.4227 75.6503 92.5333 75.8183C93.1909 75.9206 94.316 77.2577 94.2065 77.9225C94.6813 77.2796 95.1563 76.6439 95.6385 76.001C95.7262 76.0083 95.8065 76.0229 95.8942 76.0375C98.1154 76.4613 95.5689 83.7223 95.6604 81.4589C95.8285 77.3015 98.7729 79.7346 96.5591 80.2241Z" fill="#11181D"/>
<path d="M368.592 75.5571C367.808 82.0066 366.95 88.4474 366.02 94.8777C365.643 97.4893 365.244 100.134 364.193 102.555C363.476 104.207 362.471 105.716 361.472 107.215C360.291 108.986 359.091 110.78 357.488 112.18C355.885 113.58 353.802 114.563 351.68 114.398C357.31 110.608 361.095 104.197 361.692 97.4362C361.974 94.2581 361.588 91.0635 361.514 87.8738C361.44 84.6842 361.707 81.3835 363.179 78.5526C364.65 75.7218 367.557 73.4558 370.747 73.5363L368.592 75.5571Z" fill="#11181D"/>
<path d="M311.529 213.116C306.947 216.832 301.317 217.481 298.952 214.565C296.587 211.65 298.384 206.274 302.966 202.558C304.971 200.932 307.178 199.893 309.223 199.484L328.834 183.982L335.913 193.34L315.829 207.628C315.006 209.545 313.534 211.49 311.529 213.116Z" fill="#A0616A"/>
<path d="M315.233 192.072L344.453 164.346L347.376 162.154C347.376 162.154 364.149 145.812 368.493 145.438C370.332 145.28 372.172 145.738 373.722 146.745C376.226 148.369 377.522 151.041 377.522 153.735C377.522 155.985 376.616 158.247 374.76 159.912L348.009 183.928L336.628 194.144L322.475 206.853L321.036 203.922L316.171 193.991L315.233 192.072Z" fill="#0B4778"/>
<path d="M377.712 173.308L348.455 182.269C353.353 183.649 355.404 213.496 350.846 214.423C350.846 214.423 399.334 217.872 396.689 214.423C393.463 210.219 397.789 182.281 399.851 182.269L377.712 173.308Z" fill="#A0616A"/>
<path d="M416.645 325.409L414.088 294.546C414.088 283.506 413.372 273.533 412.225 264.641C407.629 228.949 396.107 210.654 396.107 210.654H352.999C352.941 210.72 352.882 210.771 352.824 210.837L352.816 210.844C342.646 221.534 337.356 248.414 335.003 264.641C333.886 272.364 333.433 277.676 333.433 277.676L329.217 315.143L332.264 325.409H357.346L356.952 323.209L373.092 264.641L373.289 263.925L373.464 264.641L388.428 325.409L416.645 325.409Z" fill="#11181D"/>
<path d="M353.882 155.505L362.991 137.117L370.667 123.758L376.874 117.432H393.86L395.441 123.758L404.93 129.029L408.286 155.385L396.329 212.568C375 216.5 351 212.568 351 212.568C351 212.568 355.5 203 351 189.5C346.5 176 344.868 167.266 344.868 167.266L344.488 165.274L353.882 155.505Z" fill="#0B4778"/>
<path d="M352.788 188.768C346.892 188.601 342.198 185.423 342.305 181.671C342.411 177.919 347.277 175.012 353.174 175.18C355.755 175.253 358.106 175.903 359.924 176.926L384.901 177.948L384.171 189.659L359.627 187.408C357.753 188.326 355.37 188.841 352.788 188.768Z" fill="#A0616A"/>
<path d="M384.73 148.797L408.29 172.188L367.252 176.39L357.715 189.805L414.915 191.701C420.076 193.539 425.574 189.973 425.998 184.511C426.142 182.666 414.39 135.87 407.276 131.526C398.938 126.434 384.73 148.797 384.73 148.797Z" fill="#0B4778"/>
<path d="M401.096 94.4807C401.267 83.8561 392.793 75.1044 382.168 74.9331C371.544 74.7617 362.792 83.2357 362.621 93.8603C362.449 104.485 370.923 113.237 381.548 113.408C392.172 113.579 400.924 105.105 401.096 94.4807Z" fill="#A0616A"/>
<path d="M424.092 154.117C423.61 155.943 419.855 156.886 418.978 159.231C416.187 160.824 417.699 147.811 416.574 146.957C415.704 146.306 415.471 147.877 415.273 146.525C414.528 141.455 409.655 142.587 406.045 141.769C405.636 140.973 405.322 140.198 405.118 139.446C404.752 138.087 403.086 137.612 402.1 138.613C401.654 138.218 401.333 136.823 401.019 135.427C400.792 134.411 400.566 133.396 400.303 132.753L397.789 127.083L398.6 131.306C396.956 130.714 395.298 131.328 394.341 129.297C393.113 126.689 392.624 123.634 393.515 120.895C394.326 118.41 395.692 113.435 397.234 109.314C395.488 110.578 393.391 111.499 390.958 111.959C391.82 110.322 392.697 108.656 393.062 106.837C393.42 105.018 393.201 102.994 392.046 101.547C391.097 100.356 389.694 100.656 388.51 99.6987C387.589 98.9535 386.793 97.0465 386.238 96.0017C388.605 103.871 390.395 112.229 387.385 119.74C385.303 124.942 380.919 129.173 375.658 131.094C378.456 129.092 381.189 126.959 383.286 124.241C385.529 121.326 386.99 117.643 386.545 113.99C385.843 108.255 375.205 90.1127 373.897 86.5472C374.613 90.0324 374.336 92.7504 372.451 94.2482C371.961 89.1922 366.452 89.6524 363.449 87.6286C363.449 87.6286 361.126 74.499 366.576 74.4186C369.207 74.3821 371.961 68.2008 374.35 67.0976C378.164 65.3367 380.502 66.535 384.733 66.6665C388.956 66.7907 393.011 68.61 395.59 71.949C396.942 73.6953 397.438 72.307 399.47 73.3957C401.399 74.4259 402.699 73.4688 404.884 73.5345C409.26 73.6514 413.505 75.9895 415.96 79.6061C418.415 83.2301 419.928 82.894 418.956 88.498C418.941 88.5638 418.941 88.6953 418.956 88.8926C419.489 97.7187 418.123 106.567 414.623 114.691C413.542 117.19 418.831 119.769 418.824 122.889C418.816 126.513 412.979 129.816 413.52 131.365C415.069 138.824 423.771 137.166 421.718 149.653C421.55 150.668 424.414 152.897 424.092 154.117Z" fill="#11181D"/>
<path d="M370.79 131.271C370.951 131.219 371.112 131.161 371.272 131.095C371.068 131.241 370.871 131.38 370.666 131.526L370.79 131.271Z" fill="#11181D"/>
<path d="M397.892 69.7136C395.799 70.0246 393.673 66.5522 394.862 61.7368C397.451 65.6966 398.775 70.1542 398.983 75.0507L397.588 75.4831L397.892 69.7136Z" fill="#0B4778"/>
<path d="M408.586 65.2192C407.158 70.2801 399.905 73.6671 398.623 71.9059L398.477 74.9239L397.58 73.7703C400.181 69.902 403.727 66.9345 408.586 65.2192Z" fill="#0B4778"/>
<path d="M249.316 201.692C249.316 200.01 250.685 198.642 252.366 198.642H301.381C303.062 198.642 304.431 200.01 304.431 201.692C304.431 203.373 303.062 204.741 301.381 204.741H252.366C250.685 204.741 249.316 203.373 249.316 201.692Z" fill="#0B4778"/>
<path d="M249.316 222.15C249.316 220.468 250.685 219.1 252.366 219.1H301.381C303.062 219.1 304.431 220.468 304.431 222.15C304.431 223.831 303.062 225.199 301.381 225.199H252.366C250.685 225.199 249.316 223.831 249.316 222.15Z" fill="#0B4778"/>
<path d="M214.114 215.063C212.433 215.063 211.064 213.695 211.064 212.013C211.064 210.332 212.433 208.964 214.114 208.964H301.38C303.062 208.964 304.43 210.332 304.43 212.013C304.43 213.695 303.062 215.063 301.38 215.063H214.114Z" fill="#0B4778"/>
<path d="M207.626 185.876L201.613 183.027C204.08 186.469 206.205 191.845 207.342 196.122C209.269 192.138 212.374 187.262 215.448 184.35L209.093 185.985C213.009 166.793 227.738 153.015 244.605 153.015V151.553C226.987 151.553 211.625 165.909 207.626 185.876Z" fill="#1C304A"/>
<path d="M235.303 215.119H197.309C195.698 215.119 194.387 213.808 194.387 212.196C194.387 210.585 195.698 209.274 197.309 209.274H235.303C236.914 209.274 238.225 210.585 238.225 212.196C238.225 213.808 236.914 215.119 235.303 215.119Z" fill="#0B4778"/>
<path d="M246.399 155.348C247.411 149.112 243.176 143.236 236.94 142.224C230.703 141.212 224.827 145.447 223.815 151.683C222.803 157.92 227.038 163.796 233.275 164.808C239.511 165.82 245.387 161.585 246.399 155.348Z" fill="#1C304A"/>
<path d="M173.003 70.7034C176.9 70.7034 180.059 67.5443 180.059 63.6474C180.059 59.7504 176.9 56.5913 173.003 56.5913C169.106 56.5913 165.947 59.7504 165.947 63.6474C165.947 67.5443 169.106 70.7034 173.003 70.7034Z" fill="#0B4778"/>
<path d="M255.566 192.72C259.463 192.72 262.622 189.561 262.622 185.664C262.622 181.767 259.463 178.608 255.566 178.608C251.669 178.608 248.51 181.767 248.51 185.664C248.51 189.561 251.669 192.72 255.566 192.72Z" fill="#0B4778"/>
</svg>
