<svg width="448" height="295" viewBox="0 0 448 295" fill="none" xmlns="http://www.w3.org/2000/svg">
<path d="M100.492 279.905C104.592 276.445 107.083 270.979 106.43 265.658C105.776 260.337 101.731 255.446 96.483 254.316C91.2351 253.186 85.253 256.314 83.659 261.433C82.7818 251.563 81.771 241.28 76.5163 232.876C71.7584 225.265 63.5175 219.82 54.5863 218.846C45.6551 217.872 36.2517 221.551 30.6816 228.59C25.1115 235.63 23.7477 245.863 27.6489 253.945C30.5227 259.899 35.8173 264.329 41.3647 267.934C59.2905 279.483 80.7901 284.18 101.908 281.16L100.492 279.905Z" fill="#A9AEB1"/>
<path d="M39.5127 221.755C46.882 227.749 53.6427 234.453 59.6967 241.769C65.7518 249.078 71.0826 256.957 75.6143 265.294C78.1473 269.97 80.4228 274.782 82.4305 279.706C82.8399 280.708 81.211 281.144 80.8062 280.153C77.2499 271.472 72.8502 263.159 67.67 255.334C62.5151 247.538 56.6149 240.26 50.0524 233.601C46.3407 229.837 42.4245 226.279 38.3215 222.945C37.4805 222.261 38.6786 221.077 39.5127 221.755Z" fill="white"/>
<path d="M345.191 8.28906H123.124C122.277 8.29 121.466 8.62611 120.868 9.22367C120.269 9.82122 119.933 10.6314 119.932 11.4765V161.74C119.933 162.585 120.269 163.396 120.868 163.993C121.466 164.591 122.277 164.927 123.124 164.928H345.191C346.038 164.927 346.849 164.591 347.447 163.993C348.046 163.396 348.382 162.585 348.383 161.74V11.4765C348.382 10.6314 348.046 9.82122 347.447 9.22367C346.849 8.62611 346.038 8.29 345.191 8.28906ZM347.471 161.74C347.471 162.344 347.231 162.923 346.803 163.35C346.376 163.777 345.796 164.017 345.191 164.017H123.124C122.519 164.017 121.939 163.777 121.512 163.35C121.084 162.923 120.844 162.344 120.844 161.74V11.4765C120.844 10.8727 121.084 10.2938 121.512 9.86686C121.939 9.43994 122.519 9.19999 123.124 9.19975H345.191C345.796 9.19999 346.376 9.43994 346.803 9.86686C347.231 10.2938 347.471 10.8727 347.471 11.4765V161.74Z" fill="#1C304A"/>
<path d="M347.926 21.0571H120.387V21.9678H347.926V21.0571Z" fill="#1C304A"/>
<path d="M128.138 17.8513C129.649 17.8513 130.874 16.6282 130.874 15.1193C130.874 13.6104 129.649 12.3872 128.138 12.3872C126.627 12.3872 125.402 13.6104 125.402 15.1193C125.402 16.6282 126.627 17.8513 128.138 17.8513Z" fill="#1C304A"/>
<path d="M136.005 17.8513C137.517 17.8513 138.741 16.6282 138.741 15.1193C138.741 13.6104 137.517 12.3872 136.005 12.3872C134.494 12.3872 133.27 13.6104 133.27 15.1193C133.27 16.6282 134.494 17.8513 136.005 17.8513Z" fill="#1C304A"/>
<path d="M143.871 17.8513C145.382 17.8513 146.607 16.6282 146.607 15.1193C146.607 13.6104 145.382 12.3872 143.871 12.3872C142.36 12.3872 141.135 13.6104 141.135 15.1193C141.135 16.6282 142.36 17.8513 143.871 17.8513Z" fill="#1C304A"/>
<path d="M253.31 42.2122H215.006C214.16 42.2122 213.348 41.8764 212.749 41.2787C212.151 40.6809 211.814 39.8702 211.814 39.0248C211.814 38.1795 212.151 37.3687 212.749 36.771C213.348 36.1732 214.16 35.8374 215.006 35.8374H253.31C254.156 35.8374 254.968 36.1732 255.567 36.771C256.165 37.3687 256.502 38.1795 256.502 39.0248C256.502 39.8702 256.165 40.6809 255.567 41.2787C254.968 41.8764 254.156 42.2122 253.31 42.2122Z" fill="#DFE1E2"/>
<path d="M279.528 57.6942H188.786C187.939 57.6942 187.127 57.3584 186.529 56.7606C185.93 56.1628 185.594 55.3521 185.594 54.5068C185.594 53.6614 185.93 52.8507 186.529 52.2529C187.127 51.6551 187.939 51.3193 188.786 51.3193H279.528C280.375 51.3193 281.186 51.6551 281.785 52.2529C282.384 52.8507 282.72 53.6614 282.72 54.5068C282.72 55.3521 282.384 56.1628 281.785 56.7606C281.186 57.3584 280.375 57.6942 279.528 57.6942Z" fill="#DFE1E2"/>
<path d="M160.945 106.329C157.506 106.329 154.143 105.31 151.284 103.402C148.424 101.494 146.195 98.7815 144.878 95.6083C143.562 92.435 143.218 88.9433 143.889 85.5747C144.56 82.206 146.216 79.1117 148.648 76.683C151.08 74.2544 154.179 72.6004 157.553 71.9304C160.926 71.2603 164.423 71.6042 167.6 72.9186C170.778 74.233 173.494 76.4588 175.405 79.3146C177.316 82.1704 178.336 85.528 178.336 88.9626C178.331 93.5667 176.497 97.9808 173.237 101.236C169.976 104.492 165.556 106.323 160.945 106.329ZM160.945 72.7943C157.743 72.7943 154.613 73.7426 151.95 75.5192C149.287 77.2958 147.212 79.8209 145.987 82.7753C144.761 85.7296 144.44 88.9805 145.065 92.1169C145.69 95.2532 147.232 98.1341 149.496 100.395C151.761 102.656 154.646 104.196 157.787 104.82C160.927 105.444 164.183 105.124 167.141 103.9C170.1 102.676 172.629 100.604 174.408 97.9452C176.187 95.2863 177.136 92.1604 177.136 88.9626C177.132 84.676 175.424 80.5664 172.389 77.5353C169.353 74.5042 165.238 72.7992 160.945 72.7943Z" fill="#1C304A"/>
<path d="M167.701 98.1684C167.245 98.1685 166.809 97.9882 166.486 97.6669C166.164 97.3457 165.983 96.9098 165.982 96.4551V86.7114C165.982 86.2572 166.163 85.8217 166.485 85.5005C166.807 85.1793 167.243 84.9987 167.698 84.9981H167.701C168.156 84.9987 168.592 85.1793 168.913 85.5005C169.235 85.8217 169.416 86.2572 169.416 86.7114V96.4551C169.416 96.9093 169.235 97.3448 168.913 97.666C168.592 97.9872 168.156 98.1679 167.701 98.1684ZM163.221 98.1684C162.994 98.1707 162.768 98.1281 162.558 98.0431C162.347 97.9581 162.156 97.8324 161.994 97.6732C161.832 97.5139 161.704 97.3244 161.615 97.1153C161.527 96.9063 161.481 96.6819 161.481 96.4551V91.2065C161.481 90.7522 161.662 90.3168 161.984 89.9956C162.305 89.6744 162.741 89.4938 163.196 89.4933H163.221C163.676 89.4938 164.112 89.6744 164.433 89.9956C164.755 90.3168 164.936 90.7522 164.937 91.2065V96.4551C164.936 96.9093 164.755 97.3448 164.433 97.666C164.112 97.9872 163.676 98.1679 163.221 98.1684ZM158.698 98.1684C158.243 98.1685 157.806 97.9882 157.483 97.6669C157.161 97.3457 156.98 96.9098 156.979 96.4551V81.4702C156.98 81.0159 157.161 80.5804 157.482 80.2592C157.804 79.938 158.24 79.7574 158.695 79.7568H158.698C159.153 79.7574 159.589 79.938 159.91 80.2592C160.232 80.5804 160.413 81.0159 160.414 81.4702V96.4551C160.413 96.9093 160.232 97.3448 159.91 97.666C159.589 97.9872 159.153 98.1679 158.698 98.1684ZM154.192 98.1684C153.966 98.1687 153.743 98.1245 153.535 98.0384C153.326 97.9523 153.137 97.8261 152.977 97.6668C152.818 97.5075 152.691 97.3184 152.605 97.1103C152.519 96.9022 152.474 96.6791 152.475 96.4538L152.477 94.2032C152.477 93.7488 152.658 93.3132 152.98 92.992C153.301 92.6709 153.738 92.4906 154.193 92.4908C154.648 92.4909 155.084 92.6716 155.406 92.9931C155.727 93.3145 155.908 93.7503 155.908 94.2047V96.4551C155.907 96.9093 155.726 97.3448 155.405 97.666C155.083 97.9872 154.647 98.1679 154.192 98.1684Z" fill="#0B4778"/>
<path d="M234.848 106.329C231.408 106.329 228.046 105.31 225.186 103.402C222.326 101.494 220.097 98.7815 218.781 95.6083C217.465 92.435 217.12 88.9433 217.791 85.5747C218.462 82.206 220.118 79.1117 222.551 76.683C224.983 74.2544 228.081 72.6004 231.455 71.9304C234.828 71.2603 238.325 71.6042 241.503 72.9186C244.68 74.233 247.396 76.4588 249.307 79.3146C251.218 82.1704 252.238 85.528 252.238 88.9626C252.233 93.5667 250.399 97.9808 247.139 101.236C243.879 104.492 239.458 106.323 234.848 106.329ZM234.848 72.7943C231.645 72.7943 228.515 73.7426 225.852 75.5192C223.19 77.2958 221.114 79.8209 219.889 82.7753C218.663 85.7296 218.343 88.9805 218.967 92.1169C219.592 95.2532 221.134 98.1341 223.399 100.395C225.663 102.656 228.548 104.196 231.689 104.82C234.83 105.444 238.085 105.124 241.044 103.9C244.002 102.676 246.531 100.604 248.31 97.9452C250.089 95.2863 251.039 92.1604 251.039 88.9626C251.034 84.676 249.327 80.5664 246.291 77.5353C243.256 74.5042 239.14 72.7992 234.848 72.7943Z" fill="#1C304A"/>
<path d="M225.608 95.2575C225.358 95.2574 225.114 95.1834 224.906 95.0448C224.698 94.9062 224.536 94.7092 224.44 94.4787C224.345 94.2482 224.319 93.9945 224.368 93.7497C224.416 93.5048 224.536 93.2798 224.713 93.1031L231.138 86.6685C231.238 86.5678 231.357 86.488 231.489 86.4336C231.62 86.3792 231.76 86.3514 231.902 86.3517H231.903C232.045 86.3513 232.186 86.379 232.317 86.4332C232.448 86.4874 232.567 86.5671 232.667 86.6675L235.647 89.6434C235.707 89.7037 235.778 89.7515 235.857 89.784C235.936 89.8166 236.02 89.8332 236.105 89.833C236.19 89.8332 236.275 89.8165 236.354 89.784C236.432 89.7514 236.504 89.7035 236.564 89.6432L240.771 85.4346C240.791 85.4146 240.807 85.3908 240.818 85.3646C240.829 85.3385 240.834 85.3104 240.834 85.2821C240.834 85.2537 240.829 85.2257 240.818 85.1995C240.807 85.1734 240.791 85.1496 240.771 85.1296L239.409 83.7725C239.319 83.6821 239.257 83.5668 239.232 83.4412C239.207 83.3157 239.219 83.1855 239.268 83.0672C239.317 82.9489 239.4 82.8477 239.507 82.7766C239.614 82.7054 239.739 82.6675 239.867 82.6675H244.702C244.874 82.6677 245.039 82.7359 245.16 82.8572C245.282 82.9785 245.35 83.143 245.35 83.3146V88.1398C245.35 88.2678 245.312 88.393 245.241 88.4994C245.17 88.6058 245.069 88.6888 244.95 88.7378C244.832 88.7868 244.702 88.7996 244.576 88.7747C244.45 88.7497 244.335 88.6881 244.244 88.5976L242.881 87.236C242.861 87.216 242.837 87.2001 242.811 87.1892C242.785 87.1784 242.756 87.1728 242.728 87.1728C242.7 87.1728 242.672 87.1784 242.645 87.1892C242.619 87.2001 242.595 87.216 242.575 87.236L236.878 92.9215C236.778 93.022 236.659 93.1016 236.528 93.1558C236.397 93.21 236.256 93.2377 236.114 93.2373C235.973 93.2377 235.832 93.2099 235.701 93.1557C235.57 93.1015 235.451 93.0218 235.351 92.9213L232.369 89.944C232.246 89.8263 232.082 89.7607 231.911 89.7607C231.74 89.7607 231.576 89.8263 231.453 89.944L226.502 94.8874C226.385 95.0051 226.246 95.0984 226.092 95.1619C225.939 95.2255 225.774 95.2579 225.608 95.2575Z" fill="#0B4778"/>
<path d="M306.894 104.962C303.455 104.962 300.093 103.944 297.233 102.036C294.373 100.127 292.144 97.4152 290.828 94.242C289.511 91.0688 289.167 87.5771 289.838 84.2085C290.509 80.8398 292.165 77.7455 294.597 75.3168C297.03 72.8882 300.128 71.2342 303.502 70.5642C306.875 69.8941 310.372 70.238 313.55 71.5524C316.727 72.8668 319.443 75.0926 321.354 77.9484C323.265 80.8042 324.285 84.1617 324.285 87.5964C324.28 92.2005 322.446 96.6146 319.186 99.8702C315.925 103.126 311.505 104.957 306.894 104.962Z" fill="#DFE1E2"/>
<path d="M160.946 117.131C157.961 117.135 155.027 117.903 152.424 119.362C156.186 119.694 159.713 121.328 162.396 123.982C165.079 126.636 166.749 130.143 167.116 133.896C167.484 137.649 166.527 141.413 164.41 144.536C162.294 147.659 159.151 149.945 155.525 150.999C156.204 151.224 156.897 151.405 157.599 151.541C158.702 151.758 159.823 151.866 160.946 151.865C165.559 151.865 169.982 150.035 173.244 146.778C176.505 143.521 178.338 139.104 178.338 134.498C178.338 129.892 176.505 125.474 173.244 122.217C169.982 118.961 165.559 117.131 160.946 117.131Z" fill="#DFE1E2"/>
<path d="M154.347 118.433C153.245 118.213 152.124 118.103 151 118.106C146.528 118.101 142.226 119.815 138.986 122.891C135.745 125.968 133.814 130.172 133.594 134.632C133.373 139.092 134.879 143.465 137.8 146.846C140.721 150.227 144.832 152.357 149.282 152.792C153.733 153.228 158.18 151.938 161.703 149.188C165.226 146.438 167.555 142.44 168.206 138.022C168.857 133.605 167.781 129.106 165.201 125.459C162.621 121.812 158.734 119.296 154.347 118.433ZM155.524 151C153.296 151.647 150.956 151.808 148.661 151.473C146.366 151.139 144.169 150.316 142.221 149.06C140.272 147.804 138.616 146.144 137.365 144.194C136.114 142.244 135.297 140.048 134.97 137.755C134.643 135.461 134.812 133.125 135.468 130.903C136.123 128.682 137.249 126.626 138.769 124.877C140.289 123.127 142.168 121.724 144.278 120.763C146.388 119.801 148.681 119.303 151 119.303C151.479 119.303 151.953 119.326 152.423 119.362C156.185 119.694 159.712 121.329 162.395 123.983C165.078 126.637 166.747 130.143 167.115 133.896C167.483 137.65 166.526 141.413 164.409 144.536C162.293 147.659 159.15 149.946 155.524 151Z" fill="#1C304A"/>
<path d="M161.126 132.415C160.551 129.899 159 127.714 156.813 126.339C154.626 124.964 151.983 124.512 149.462 125.082C149.216 125.138 148.961 125.207 148.736 125.276L151.06 135.474L161.273 133.157C161.23 132.92 161.182 132.661 161.126 132.415Z" fill="#0B4778"/>
<path d="M160.137 134.947L149.92 137.264L147.601 127.066C145.819 127.616 144.233 128.665 143.031 130.088C141.828 131.511 141.06 133.249 140.816 135.095C140.572 136.941 140.864 138.818 141.656 140.504C142.448 142.189 143.708 143.613 145.285 144.605C146.863 145.598 148.693 146.118 150.557 146.103C152.422 146.089 154.243 145.541 155.805 144.525C157.368 143.508 158.605 142.066 159.372 140.368C160.138 138.671 160.401 136.789 160.129 134.947H160.137Z" fill="#0B4778"/>
<path d="M339.391 152.732C335.951 152.732 332.589 151.713 329.729 149.805C326.869 147.897 324.64 145.185 323.324 142.012C322.008 138.838 321.663 135.347 322.334 131.978C323.005 128.609 324.661 125.515 327.094 123.086C329.526 120.658 332.624 119.004 335.998 118.334C339.371 117.664 342.868 118.008 346.046 119.322C349.223 120.636 351.939 122.862 353.85 125.718C355.761 128.574 356.781 131.931 356.781 135.366C356.776 139.97 354.942 144.384 351.682 147.64C348.422 150.895 344.001 152.727 339.391 152.732Z" fill="white"/>
<path d="M339.391 152.732C335.951 152.732 332.589 151.713 329.729 149.805C326.869 147.897 324.64 145.185 323.324 142.012C322.008 138.838 321.663 135.347 322.334 131.978C323.005 128.609 324.661 125.515 327.094 123.086C329.526 120.658 332.624 119.004 335.998 118.334C339.371 117.664 342.868 118.008 346.046 119.322C349.223 120.636 351.939 122.862 353.85 125.718C355.761 128.574 356.781 131.931 356.781 135.366C356.776 139.97 354.942 144.384 351.682 147.64C348.422 150.895 344.001 152.727 339.391 152.732ZM339.391 119.198C336.188 119.198 333.058 120.146 330.395 121.922C327.733 123.699 325.657 126.224 324.432 129.179C323.206 132.133 322.886 135.384 323.51 138.52C324.135 141.657 325.677 144.537 327.942 146.799C330.206 149.06 333.091 150.6 336.232 151.224C339.373 151.847 342.628 151.527 345.587 150.303C348.545 149.08 351.074 147.007 352.853 144.349C354.632 141.69 355.582 138.564 355.582 135.366C355.577 131.079 353.87 126.97 350.834 123.939C347.799 120.908 343.683 119.203 339.391 119.198Z" fill="#1C304A"/>
<path d="M344.185 132.352L340.794 137.529C341.067 137.859 341.215 138.274 341.213 138.701C341.212 139.195 341.015 139.668 340.666 140.017C340.316 140.365 339.842 140.561 339.348 140.561C338.854 140.561 338.38 140.365 338.03 140.017C337.68 139.668 337.483 139.195 337.482 138.701C337.483 138.582 337.494 138.462 337.515 138.344L335.277 137.042C334.988 137.322 334.616 137.5 334.217 137.55C333.818 137.601 333.414 137.52 333.064 137.321L330.684 139.549V141.769C330.685 142.208 330.859 142.629 331.17 142.94C331.481 143.25 331.902 143.426 332.341 143.428H346.437C346.877 143.426 347.298 143.251 347.609 142.94C347.92 142.629 348.096 142.208 348.098 141.769V133.535L345.821 132.023C345.592 132.2 345.325 132.322 345.042 132.38C344.758 132.437 344.464 132.427 344.185 132.352Z" fill="#0B4778"/>
<path d="M333.985 133.853C334.479 133.853 334.954 134.05 335.304 134.399C335.653 134.748 335.85 135.222 335.85 135.716V135.956L338.184 137.261C338.517 136.988 338.935 136.839 339.366 136.839C339.502 136.84 339.637 136.854 339.77 136.882L343.168 131.63C342.998 131.392 342.887 131.117 342.844 130.828C342.801 130.539 342.827 130.244 342.919 129.966C343.012 129.689 343.169 129.438 343.377 129.232C343.585 129.027 343.839 128.874 344.118 128.785C344.397 128.697 344.693 128.675 344.982 128.722C345.271 128.769 345.544 128.884 345.78 129.056C346.016 129.229 346.208 129.455 346.34 129.716C346.472 129.977 346.541 130.265 346.541 130.557C346.54 130.705 346.524 130.853 346.49 130.997L348.098 132.069V128.963C348.096 128.523 347.92 128.102 347.609 127.792C347.298 127.481 346.877 127.306 346.437 127.304H332.341C331.902 127.306 331.48 127.481 331.17 127.792C330.859 128.103 330.685 128.524 330.684 128.963V137.861L332.237 136.374C332.134 136.093 332.099 135.791 332.137 135.494C332.176 135.197 332.285 134.913 332.457 134.667C332.628 134.421 332.857 134.221 333.123 134.082C333.389 133.944 333.685 133.871 333.985 133.871V133.853Z" fill="#0B4778"/>
<path d="M349.963 277.956L345.414 277.5L345.008 259.735L351.722 260.409L349.963 277.956Z" fill="#9E616A"/>
<path d="M350.681 282.482L336.012 281.012L336.03 280.826C336.182 279.312 336.929 277.92 338.107 276.957C339.285 275.993 340.798 275.537 342.312 275.689L342.313 275.689L351.272 276.587L350.681 282.482Z" fill="#11181D"/>
<path d="M370.721 282.329C362.127 282.329 355.135 268.622 355.135 251.773C355.113 247.025 355.7 242.293 356.883 237.694C357.044 237.078 357.22 236.469 357.404 235.879C360.254 226.699 365.232 221.218 370.721 221.218C379.316 221.218 386.307 234.925 386.307 251.773C386.307 268.622 379.316 282.329 370.721 282.329ZM370.721 221.964C365.653 221.964 360.823 227.381 358.116 236.102C357.935 236.68 357.763 237.279 357.605 237.882C356.438 242.419 355.859 247.087 355.881 251.771C355.881 268.21 362.539 281.583 370.721 281.583C378.904 281.583 385.561 268.21 385.561 251.773C385.561 235.336 378.904 221.964 370.721 221.964Z" fill="#1C304A"/>
<path d="M350.983 282.884L333.785 281.127L333.854 280.645L351.051 282.402L350.983 282.884Z" fill="#1C304A"/>
<path d="M374.494 269.879C371.228 269.879 368.766 262.095 368.766 251.774C368.766 241.452 371.228 233.668 374.494 233.668C377.759 233.668 380.222 241.452 380.222 251.774C380.222 262.095 377.759 269.879 374.494 269.879ZM374.494 234.414C372.098 234.414 369.512 241.051 369.512 251.774C369.512 262.496 372.098 269.134 374.494 269.134C376.89 269.134 379.476 262.496 379.476 251.774C379.476 241.051 376.89 234.414 374.494 234.414Z" fill="#1C304A"/>
<path d="M375.102 255.846C376.245 255.846 377.171 254.023 377.171 251.773C377.171 249.524 376.245 247.701 375.102 247.701C373.96 247.701 373.033 249.524 373.033 251.773C373.033 254.023 373.96 255.846 375.102 255.846Z" fill="#DFE1E2"/>
<path d="M406.503 282.706C397.64 282.706 390.43 268.781 390.43 251.664C390.409 246.936 390.989 242.224 392.155 237.642C392.331 236.971 392.517 236.322 392.708 235.709C395.637 226.262 400.794 220.622 406.503 220.622C415.365 220.622 422.576 234.547 422.576 251.664C422.576 268.781 415.366 282.706 406.503 282.706ZM406.503 221.367C401.219 221.367 396.206 226.948 393.421 235.931C393.233 236.533 393.05 237.171 392.877 237.828C391.727 242.349 391.155 246.997 391.176 251.662C391.176 268.37 398.052 281.961 406.503 281.961C414.954 281.961 421.83 268.37 421.83 251.664C421.83 234.958 414.954 221.367 406.503 221.367Z" fill="#1C304A"/>
<path d="M410.275 269.769C407.009 269.769 404.547 261.986 404.547 251.664C404.547 241.342 407.009 233.559 410.275 233.559C413.54 233.559 416.003 241.342 416.003 251.664C416.003 261.986 413.54 269.769 410.275 269.769ZM410.275 234.304C407.879 234.304 405.293 240.942 405.293 251.664C405.293 262.386 407.879 269.023 410.275 269.023C412.671 269.023 415.257 262.386 415.257 251.664C415.257 240.942 412.671 234.304 410.275 234.304Z" fill="#1C304A"/>
<path d="M410.885 255.736C412.028 255.736 412.954 253.913 412.954 251.664C412.954 249.414 412.028 247.591 410.885 247.591C409.743 247.591 408.816 249.414 408.816 251.664C408.816 253.913 409.743 255.736 410.885 255.736Z" fill="#DFE1E2"/>
<path d="M352.131 139.438C351.934 139.95 351.852 140.499 351.89 141.046C351.928 141.592 352.085 142.124 352.351 142.604C352.617 143.083 352.985 143.499 353.428 143.821C353.872 144.143 354.381 144.364 354.919 144.468L356.819 157.659L361.998 153.061L359.4 141.239C359.515 140.323 359.29 139.397 358.768 138.636C358.245 137.875 357.462 137.332 356.566 137.11C355.67 136.888 354.723 137.003 353.906 137.432C353.089 137.861 352.457 138.575 352.131 139.438Z" fill="#9E616A"/>
<path d="M370.6 191.299L403.947 191.177V204.314L370.6 205.66V191.299Z" fill="#1C304A"/>
<path d="M363 281.455L358.475 280.801L358.84 263.035L365.519 263.999L363 281.455Z" fill="#9E616A"/>
<path d="M363.522 286.008L348.93 283.902L348.956 283.718C349.174 282.212 349.981 280.853 351.199 279.942C352.418 279.03 353.949 278.64 355.455 278.858L364.368 280.144L363.522 286.008Z" fill="#11181D"/>
<path d="M342.122 235.856L341.637 235.829L343.11 209.067H373.279V209.554H343.57L342.122 235.856Z" fill="#1C304A"/>
<path d="M345.306 282.778L345.225 283.258L365.695 286.71L365.776 286.23L345.306 282.778Z" fill="#1C304A"/>
<path d="M393.542 235.881C393.359 236.468 393.187 237.067 393.026 237.678L392.517 237.734L376.686 239.493L340.418 235.842L378.146 233.895L393.065 235.82L393.542 235.881Z" fill="#1C304A"/>
<path d="M385.247 145.655C385.247 145.655 379.976 143.974 376.587 150.697C373.198 157.421 367.926 164.816 367.926 164.816L370.938 165.489C370.938 165.489 371.691 160.782 373.574 160.11L372.821 166.161C372.821 166.161 395.415 173.221 405.582 165.489L405.205 163.136C405.205 163.136 406.711 163.472 406.711 165.489L407.841 164.48C407.841 164.48 406.711 162.463 403.322 159.774C401.098 158.009 400.334 154.65 400.071 152.551C399.857 150.761 399.066 149.09 397.817 147.791C395.564 145.461 391.461 142.984 385.247 145.655Z" fill="#11181D"/>
<path d="M366.049 218.995L365.313 221.615C365.313 221.615 350.493 218.02 348.563 227.315C346.632 236.609 343.984 265.376 343.984 265.376L351.468 266.911L358.574 235.552L387.359 229.273L385.474 213.028L366.049 218.995Z" fill="#11181D"/>
<path d="M378.512 223.307C378.512 223.307 358.552 219.169 357.092 229.149C355.632 239.128 357.822 258.114 358.066 258.601C358.309 259.088 357.092 268.094 357.092 268.094L365.855 269.311C365.855 269.311 371.453 242.78 369.019 235.964L385.488 234.945C391.173 234.594 395.817 230.103 396.144 224.417C396.269 222.24 395.725 220.264 393.847 219.169C388.005 215.761 377.295 215.761 377.295 215.761L378.512 223.307Z" fill="#11181D"/>
<path d="M388.005 169.938C392.844 169.938 396.768 166.014 396.768 161.175C396.768 156.335 392.844 152.412 388.005 152.412C383.165 152.412 379.242 156.335 379.242 161.175C379.242 166.014 383.165 169.938 388.005 169.938Z" fill="#A0616A"/>
<path d="M379.728 175.081L374.13 174.382L370.014 184.099C370.014 184.099 364.272 219.778 365.732 220.264C366.551 220.554 367.42 220.678 368.288 220.63L395.921 222.068C395.921 222.068 397.154 216.509 396.667 212.371C396.18 208.233 401.878 185.579 401.878 185.579L400.783 175.234L396.12 175.148L392.764 172.537L383.422 172.508L379.728 175.081Z" fill="#A9AEB1"/>
<path d="M374.372 175.599L374.129 174.138L367.314 165.863L360.317 142.701L353.604 149.787L360.742 172.434L370.478 184.848L374.372 175.599Z" fill="#A9AEB1"/>
<path d="M376.492 162.223C376.492 162.223 378.852 158.772 381.487 158.019C384.123 157.266 384.5 153.5 384.5 153.5C384.5 153.5 388.931 160.34 393.073 160.717C395.096 160.9 396.657 169.749 397 167.5C401 159 396.449 151.679 396.449 151.679L388.918 149.796L381.764 150.55L376.115 154.315L376.492 162.223Z" fill="#11181D"/>
<path d="M404.678 221.49L404.442 211.501H381.791L381.067 238.283L380.58 238.27L381.317 211.015H404.913L404.921 211.25L405.164 221.473L404.678 221.49Z" fill="#1C304A"/>
<path d="M404.19 207.85H403.703V189.271L411.56 191.551L411.424 192.019L404.19 189.919V207.85Z" fill="#1C304A"/>
<path d="M407.598 188.865L412.709 190.812L411.736 193.489L407.598 191.785V188.865Z" fill="#1C304A"/>
<path d="M387.396 209.798V213.692H401.899V210.057L387.396 209.798Z" fill="#1C304A"/>
<path d="M350.152 207.851V211.745H364.655V208.109L350.152 207.851Z" fill="#1C304A"/>
<path opacity="0.15" d="M399.44 188L398.71 201.874L388 204.065L397.736 200.17L399.44 188Z" fill="black"/>
<path d="M367.391 226.732C363.951 226.732 360.589 225.713 357.729 223.805C354.869 221.897 352.64 219.185 351.324 216.012C350.008 212.838 349.663 209.347 350.334 205.978C351.005 202.609 352.661 199.515 355.094 197.086C357.526 194.658 360.624 193.004 363.998 192.334C367.371 191.664 370.868 192.008 374.046 193.322C377.223 194.636 379.939 196.862 381.85 199.718C383.761 202.574 384.781 205.931 384.781 209.366C384.776 213.97 382.942 218.384 379.682 221.64C376.422 224.895 372.001 226.727 367.391 226.732Z" fill="white"/>
<path d="M367.391 226.732C363.951 226.732 360.589 225.713 357.729 223.805C354.869 221.897 352.64 219.185 351.324 216.012C350.008 212.838 349.663 209.347 350.334 205.978C351.005 202.609 352.661 199.515 355.094 197.086C357.526 194.658 360.624 193.004 363.998 192.334C367.371 191.664 370.868 192.008 374.046 193.322C377.223 194.636 379.939 196.862 381.85 199.718C383.761 202.574 384.781 205.931 384.781 209.366C384.776 213.97 382.942 218.384 379.682 221.64C376.422 224.895 372.001 226.727 367.391 226.732ZM367.391 193.198C364.188 193.198 361.058 194.146 358.395 195.923C355.733 197.699 353.657 200.224 352.432 203.179C351.206 206.133 350.886 209.384 351.51 212.52C352.135 215.657 353.677 218.537 355.942 220.799C358.206 223.06 361.091 224.6 364.232 225.224C367.373 225.847 370.628 225.527 373.587 224.303C376.545 223.08 379.074 221.007 380.853 218.349C382.632 215.69 383.582 212.564 383.582 209.366C383.577 205.079 381.87 200.97 378.834 197.939C375.799 194.908 371.683 193.203 367.391 193.198Z" fill="#1C304A"/>
<path d="M374.894 216.324C374.257 216.325 373.635 216.137 373.105 215.784C372.576 215.431 372.163 214.929 371.919 214.342C371.675 213.755 371.611 213.109 371.735 212.486C371.858 211.862 372.165 211.289 372.614 210.839C373.064 210.39 373.637 210.083 374.262 209.959C374.886 209.834 375.533 209.898 376.121 210.14C376.71 210.383 377.212 210.795 377.566 211.323C377.92 211.851 378.11 212.473 378.11 213.108C378.11 213.961 377.772 214.778 377.168 215.381C376.565 215.984 375.747 216.323 374.894 216.324ZM367.39 216.324C366.537 216.323 365.72 215.985 365.117 215.383C364.514 214.78 364.175 213.964 364.174 213.113V205.619C364.175 204.768 364.514 203.952 365.117 203.351C365.72 202.749 366.538 202.412 367.39 202.412C368.242 202.412 369.06 202.749 369.663 203.351C370.266 203.952 370.605 204.768 370.606 205.619V213.113C370.605 213.964 370.266 214.78 369.663 215.383C369.06 215.985 368.243 216.323 367.39 216.324ZM359.888 216.324C359.035 216.323 358.217 215.984 357.614 215.382C357.01 214.779 356.671 213.962 356.67 213.11V210.117C356.67 209.264 357.009 208.447 357.613 207.844C358.216 207.241 359.035 206.903 359.888 206.903C360.742 206.903 361.561 207.241 362.164 207.844C362.768 208.447 363.107 209.264 363.107 210.117V213.11C363.106 213.962 362.766 214.779 362.163 215.382C361.56 215.984 360.742 216.323 359.888 216.324Z" fill="#0B4778"/>
<path d="M373.491 211.883C373.973 212.143 374.507 212.295 375.054 212.327C375.601 212.36 376.149 212.272 376.659 212.069C377.168 211.867 377.627 211.555 378.003 211.156C378.379 210.758 378.664 210.281 378.836 209.76L392.162 209.563L388.264 203.838L376.207 204.904C375.313 204.673 374.365 204.777 373.544 205.198C372.722 205.619 372.084 206.327 371.749 207.187C371.414 208.047 371.407 209 371.728 209.866C372.049 210.731 372.676 211.449 373.491 211.883Z" fill="#9E616A"/>
<path d="M398.104 176.937L400.295 175.234C400.295 175.234 403.946 173.286 404.676 180.102C405.406 186.917 410.761 209.554 405.406 209.798C400.051 210.041 380.082 210.578 380.082 210.578L379.336 203.865L399.078 202.009L398.104 176.937Z" fill="#A9AEB1"/>
<path d="M116.144 277.132L124.445 276.532L124.648 255.83L113.824 256.716L116.144 277.132Z" fill="#A0616A"/>
<path d="M133.227 280.289L116.567 282.176L115.837 275.749L126.06 274.591C127.767 274.397 129.481 274.889 130.825 275.957C132.169 277.026 133.033 278.584 133.227 280.289Z" fill="#11181D"/>
<path d="M64.6318 276.802L73.9664 276.801L76.504 256.254L64.6309 256.254L64.6318 276.802Z" fill="#A0616A"/>
<path d="M80.2539 281.748L63.4878 281.748L63.4875 275.28L73.7758 275.279C75.4938 275.279 77.1415 275.961 78.3564 277.174C79.5713 278.387 80.2538 280.032 80.2539 281.748Z" fill="#11181D"/>
<path d="M107.906 184.915L110.952 194.809L122.487 230.539L126.838 264.432L112.83 264.866L106.738 233.581L89.8519 210.986L75.5762 270.081L63.3086 269.212C63.3086 269.212 70.2708 192.736 79.8438 184.915C79.8438 184.915 100.509 177.528 107.906 184.915Z" fill="#11181D"/>
<path d="M108.995 186.87C108.995 186.87 105.301 142.549 87.0252 145.591C68.7495 148.633 76.3643 191.433 76.3643 191.433C76.3643 191.433 80.2806 199.254 89.8535 190.564C99.4265 181.873 108.995 186.87 108.995 186.87Z" fill="#0B4778"/>
<path d="M70.5984 123.562C70.9242 122.932 71.2975 122.327 71.7149 121.753C72.7911 120.258 74.1577 118.992 75.7339 118.032C77.3101 117.072 79.0639 116.436 80.8914 116.162C81.8206 116.021 82.7615 115.972 83.7004 116.015C90.1356 116.322 95.6441 121.039 96.841 127.708C96.8539 127.791 96.8668 127.868 96.8796 127.948L96.8989 128.073L99 141.796L97.5231 142.02L91.754 142.894L79.6977 144.722L71.2709 146L69.1698 132.277C68.7034 129.295 69.2038 126.242 70.5984 123.562Z" fill="#11181D"/>
<path d="M85 140C79.4772 140 75 135.523 75 130C75 124.477 79.4772 120 85 120C90.5229 120 95 124.477 95 130C95 135.523 90.5229 140 85 140Z" fill="#9F616A"/>
<path d="M71.5002 123.815V132L89.9999 129.5L90.9999 123.815L94 129.019L97.4999 128.025C96.9876 125.03 95.5972 122.277 93.5231 120.152C91.449 118.026 88.7947 116.634 85.9309 116.171C83.0672 115.707 80.1371 116.194 77.5498 117.565C74.9626 118.935 72.8478 121.12 71.5002 123.815Z" fill="#11181D"/>
<path d="M141.179 148.76C140.836 149.299 140.379 149.757 139.839 150.1C139.3 150.444 138.692 150.665 138.058 150.749C137.424 150.832 136.779 150.776 136.169 150.583C135.559 150.391 134.998 150.067 134.527 149.635L121.5 159L120.838 149L134.444 143.202C135.223 142.459 136.248 142.028 137.325 141.99C138.401 141.951 139.454 142.309 140.284 142.994C141.114 143.679 141.664 144.644 141.829 145.707C141.994 146.77 141.763 147.856 141.179 148.76Z" fill="#A0616A"/>
<path d="M89.2926 151.002L111.514 152.753L131.427 143.366L134.45 151.821L112.651 165.687C112.651 165.687 89.5721 167.251 84.2363 161.174C82.2354 158.895 82.0066 156.82 82.5023 155.118C82.9365 153.723 83.8665 152.534 85.1172 151.776C86.3678 151.018 87.8529 150.743 89.2926 151.002Z" fill="#0B4778"/>
<path d="M234.391 152.732C230.951 152.732 227.589 151.713 224.729 149.805C221.869 147.897 219.64 145.185 218.324 142.012C217.008 138.838 216.663 135.347 217.334 131.978C218.005 128.609 219.661 125.515 222.094 123.086C224.526 120.658 227.624 119.004 230.998 118.334C234.371 117.664 237.868 118.008 241.046 119.322C244.223 120.636 246.939 122.862 248.85 125.718C250.761 128.574 251.781 131.931 251.781 135.366C251.776 139.97 249.942 144.384 246.682 147.64C243.422 150.895 239.001 152.727 234.391 152.732ZM234.391 119.198C231.188 119.198 228.058 120.146 225.395 121.923C222.733 123.699 220.657 126.224 219.432 129.179C218.206 132.133 217.886 135.384 218.51 138.52C219.135 141.657 220.677 144.537 222.942 146.799C225.206 149.06 228.091 150.6 231.232 151.224C234.373 151.847 237.628 151.527 240.587 150.303C243.545 149.08 246.074 147.007 247.853 144.349C249.632 141.69 250.582 138.564 250.582 135.366C250.577 131.079 248.869 126.97 245.834 123.939C242.799 120.908 238.683 119.203 234.391 119.198Z" fill="#1C304A"/>
<path d="M240.774 142.652H228.007C227.644 142.652 227.296 142.508 227.039 142.251C226.783 141.995 226.639 141.648 226.639 141.285C226.639 140.923 226.783 140.576 227.039 140.32C227.296 140.063 227.644 139.919 228.007 139.919H240.774C241.137 139.919 241.485 140.063 241.742 140.32C241.998 140.576 242.142 140.923 242.142 141.285C242.142 141.648 241.998 141.995 241.742 142.251C241.485 142.508 241.137 142.652 240.774 142.652Z" fill="#0B4778"/>
<path d="M240.774 136.732H228.007C227.644 136.732 227.296 136.588 227.039 136.332C226.783 136.076 226.639 135.728 226.639 135.366C226.639 135.004 226.783 134.656 227.039 134.4C227.296 134.144 227.644 134 228.007 134H240.774C241.137 134 241.485 134.144 241.742 134.4C241.998 134.656 242.142 135.004 242.142 135.366C242.142 135.728 241.998 136.076 241.742 136.332C241.485 136.588 241.137 136.732 240.774 136.732Z" fill="#0B4778"/>
<path d="M240.774 130.813H228.007C227.644 130.813 227.296 130.669 227.039 130.413C226.783 130.156 226.639 129.809 226.639 129.447C226.639 129.084 226.783 128.737 227.039 128.481C227.296 128.224 227.644 128.081 228.007 128.081H240.774C241.137 128.081 241.485 128.224 241.742 128.481C241.998 128.737 242.142 129.084 242.142 129.447C242.142 129.809 241.998 130.156 241.742 130.413C241.485 130.669 241.137 130.813 240.774 130.813Z" fill="#0B4778"/>
</svg>
