<?xml version="1.0" standalone="no"?>
<!DOCTYPE svg PUBLIC "-//W3C//DTD SVG 1.1//EN" "http://www.w3.org/Graphics/SVG/1.1/DTD/svg11.dtd" >
<svg xmlns="http://www.w3.org/2000/svg" xmlns:xlink="http://www.w3.org/1999/xlink" version="1.1">
<metadata>
Created by FontForge 20160407 at Thu May 12 17:46:31 2016
 By Jimmy Wärting
Copyright (URW)++,Copyright 1999 by (URW)++ Design &#38; Development; Cyrillic glyphs added by Valek Filippov (C) 2001-2005
</metadata>
<defs>
<font id="NimbusSanL-ReguItal" horiz-adv-x="556" >
  <font-face 
    font-family="Nimbus Sans L"
    font-weight="400"
    font-style="italic"
    font-stretch="normal"
    units-per-em="1000"
    panose-1="2 0 5 3 0 0 0 0 0 0"
    ascent="800"
    descent="-200"
    x-height="524"
    cap-height="729"
    bbox="-178 -284 1139 979"
    underline-thickness="50"
    underline-position="-201"
    slope="-12"
    unicode-range="U+0020-FB02"
  />
<missing-glyph horiz-adv-x="364" 
d="M33 0v666h265v-666h-265zM66 33h199v600h-199v-600z" />
    <glyph glyph-name=".notdef" horiz-adv-x="364" 
d="M33 0v666h265v-666h-265zM66 33h199v600h-199v-600z" />
    <glyph glyph-name="NULL" horiz-adv-x="0" 
 />
    <glyph glyph-name="nonmarkingreturn" horiz-adv-x="333" 
 />
    <glyph glyph-name="space" unicode=" " horiz-adv-x="278" 
 />
    <glyph glyph-name="exclam" unicode="!" horiz-adv-x="278" 
d="M363 729l-74 -350l-67 -211h-40l23 211l74 350h84zM230 103l-22 -103h-84l22 103h84z" />
    <glyph glyph-name="quotedbl" unicode="&#x22;" horiz-adv-x="355" 
d="M202 709h94l-24 -111l-55 -134h-40l1 134zM361 709h94l-24 -111l-55 -134h-40l1 134z" />
    <glyph glyph-name="numbersign" unicode="#" 
d="M632 697l-77 -194h94l-14 -64h-105l-73 -184h107l-14 -64h-118l-83 -211h-76l83 211h-125l-83 -211h-76l83 211h-101l14 64h112l73 184h-109l13 64h121l77 194h76l-76 -194h124l77 194h76zM454 439h-124l-74 -184h125z" />
    <glyph glyph-name="dollar" unicode="$" 
d="M407 770h59l-11 -54q75 -4 116.5 -43.5t41.5 -107.5q0 -22 -6 -46h-79l1 15q1 9 1 21q0 39 -24.5 64t-65.5 27l-53 -249q90 -28 121 -48q57 -38 57 -106q0 -57 -23 -111.5t-61 -88.5q-69 -63 -183 -66l-22 -103h-59l22 103q-88 14 -129 51.5t-41 105.5q0 29 8 74h79
l-1 -11q-3 -29 -3 -47q0 -41 23 -64.5t78 -39.5l58 272q-90 31 -114 52q-45 39 -45 99q0 50 20.5 100t54.5 81q63 58 169 66zM330 405l51 240q-62 -4 -102 -43q-44 -42 -44 -101q0 -37 21.5 -58.5t73.5 -37.5zM368 309l-56 -263q79 6 122 49t43 116q0 36 -24.5 58t-84.5 40z
" />
    <glyph glyph-name="percent" unicode="%" horiz-adv-x="889" 
d="M759 709h66l-550 -729h-66zM345 682q58 0 98 -37.5t40 -92.5q0 -81 -64.5 -143.5t-148.5 -62.5q-59 0 -97.5 37.5t-38.5 94.5q0 79 65 141.5t146 62.5zM329 616q-48 0 -86.5 -37.5t-38.5 -84.5q0 -35 23.5 -58.5t58.5 -23.5q49 0 88 37.5t39 84.5q0 37 -23 59.5t-61 22.5
zM757 320q58 0 98 -37.5t40 -92.5q0 -81 -64.5 -143.5t-148.5 -62.5q-59 0 -97.5 37.5t-38.5 94.5q0 79 65 141.5t146 62.5zM741 254q-48 0 -86.5 -37.5t-38.5 -84.5q0 -35 23.5 -58.5t58.5 -23.5q49 0 88 37.5t39 84.5q0 37 -23 59.5t-61 22.5z" />
    <glyph glyph-name="ampersand" unicode="&#x26;" horiz-adv-x="667" 
d="M565 334h79q-20 -99 -100 -183l90 -151h-106l-46 78q-68 -56 -118.5 -78.5t-110.5 -22.5q-79 0 -124.5 40.5t-45.5 110.5q0 122 112 204q43 30 93 58q-7 18 -9 23l-18 42q-14 34 -14 68q0 73 63 129.5t145 56.5q61 0 97 -33t36 -89q0 -65 -44 -116t-137 -93l98 -163
q43 50 60 119zM377 434q69 35 98.5 67t29.5 73q0 30 -18.5 47.5t-50.5 17.5q-44 0 -75 -31t-31 -75q0 -21 8 -38.5t39 -60.5zM448 137l-119 199q-84 -45 -121 -86.5t-37 -90.5t29.5 -77t79.5 -28q69 0 168 83z" />
    <glyph glyph-name="quoteright" unicode="&#x2019;" horiz-adv-x="222" 
d="M215 708h94l-21 -100q-13 -59 -44.5 -93.5t-77.5 -37.5l8 38q52 7 67 90h-48z" />
    <glyph glyph-name="parenleft" unicode="(" horiz-adv-x="333" 
d="M391 729h55q-255 -313 -255 -650q0 -149 55 -292h-55q-78 137 -78 329q0 152 73.5 314t204.5 299z" />
    <glyph glyph-name="parenright" unicode=")" horiz-adv-x="333" 
d="M48 -213h-55q124 152 189.5 317t65.5 327q0 158 -55 298h55q35 -62 56 -149.5t21 -172.5q0 -196 -109 -392q-69 -124 -168 -228z" />
    <glyph glyph-name="asterisk" unicode="*" horiz-adv-x="389" 
d="M319 729h62l-29 -112l110 38l9 -62l-113 -27l53 -91l-58 -37l-44 96l-81 -95l-47 40l92 88l-104 31l30 59l100 -40z" />
    <glyph glyph-name="plus" unicode="+" horiz-adv-x="584" 
d="M591 269l-15 -72h-207l-44 -208h-70l44 208h-207l15 72h207l44 204h70l-44 -204h207z" />
    <glyph glyph-name="comma" unicode="," horiz-adv-x="278" 
d="M109 103h105l-26 -119q-13 -64 -48 -98.5t-85 -32.5l8 38q36 0 54.5 24t28.5 85h-59z" />
    <glyph glyph-name="hyphen" unicode="-" horiz-adv-x="333" 
d="M351 312l-15 -72h-239l15 72h239z" />
    <glyph glyph-name="period" unicode="." horiz-adv-x="278" 
d="M213 103l-22 -103h-104l22 103h104z" />
    <glyph glyph-name="slash" unicode="/" horiz-adv-x="278" 
d="M379 729h55l-391 -749h-55z" />
    <glyph glyph-name="zero" unicode="0" 
d="M418 709q85 0 132.5 -51.5t47.5 -143.5q0 -108 -32 -227t-80 -188q-84 -122 -210 -122q-78 0 -128 48t-50 145q0 108 32.5 228t79.5 189q83 122 208 122zM406 632q-92 0 -150 -123q-28 -62 -49 -159.5t-21 -168.5q0 -59 27 -93t74 -34q49 0 85.5 30t66.5 94
q28 60 49.5 157.5t21.5 168.5q0 61 -27.5 94.5t-76.5 33.5z" />
    <glyph glyph-name="one" unicode="1" 
d="M367 505h-159l13 63q108 15 143.5 37.5t75.5 103.5h58l-151 -709h-88z" />
    <glyph glyph-name="two" unicode="2" 
d="M524 87l-19 -87h-471q33 121 83 179.5t180 127.5l104 52q62 32 96.5 75t34.5 91t-32 77.5t-84 29.5q-90 0 -139 -69q-24 -34 -42 -100h-88q29 127 97 186.5t184 59.5q100 0 150 -56q42 -47 42 -116q0 -150 -198 -250l-112 -57q-137 -68 -163 -143h377z" />
    <glyph glyph-name="three" unicode="3" 
d="M290 325l16 75h12h6q112 0 153 47q34 37 34 98q0 40 -28.5 63.5t-77.5 23.5q-87 0 -134 -64q-20 -27 -34 -88h-88q25 96 66 144q76 85 202 85q82 0 132 -40t50 -106q0 -67 -29 -113.5t-93 -82.5q42 -21 60 -48t18 -70q0 -49 -20 -99t-54 -87q-78 -86 -217 -86
q-94 0 -143.5 43t-49.5 124q0 24 5 62h88l-2 -13q-3 -24 -3 -39q0 -46 32.5 -73t85.5 -27q84 0 137 50.5t53 131.5q0 43 -35 67t-97 24q-24 0 -45 -2z" />
    <glyph glyph-name="four" unicode="4" 
d="M362 170h-299l20 92l416 447h66l-98 -461h106l-17 -78h-106l-36 -170h-88zM379 248l65 308l-286 -308h221z" />
    <glyph glyph-name="five" unicode="5" 
d="M629 709l-18 -87h-300l-70 -198q70 43 140 43q85 0 135.5 -47t50.5 -125q0 -114 -69 -202q-88 -116 -227 -116q-94 0 -152 49q-49 41 -49 126v10v12h88q4 -120 125 -120q85 0 140.5 61t55.5 154q0 58 -33 89.5t-93 31.5q-44 0 -73.5 -13.5t-75.5 -53.5h-80l135 386h370z
" />
    <glyph glyph-name="six" unicode="6" 
d="M610 524h-88q1 2 1 5q0 1 -5 30q-4 22 -12 34t-25 23q-25 16 -60 16q-76 0 -133 -73.5t-79 -200.5q84 84 179 84q80 0 129 -47t49 -124q0 -98 -67 -185q-83 -109 -213 -109q-88 0 -140.5 51.5t-52.5 138.5q0 94 31 209.5t74 183.5q95 149 237 149q80 0 128 -43t48 -115
q0 -16 -1 -27zM364 365q-76 0 -129.5 -55.5t-53.5 -135.5q0 -53 33 -86.5t85 -33.5q74 0 126.5 59t52.5 143q0 49 -31.5 79t-82.5 30z" />
    <glyph glyph-name="seven" unicode="7" 
d="M671 709l-17 -81q-128 -126 -248.5 -306t-170.5 -322h-98q67 158 160.5 295t262.5 327h-383l19 87h475z" />
    <glyph glyph-name="eight" unicode="8" 
d="M233 373l-12 10q-31 25 -41.5 44.5t-10.5 52.5q0 87 65 152q74 77 187 77q96 0 145 -52q38 -41 38 -96q0 -70 -44 -125q-19 -24 -67 -53l-16 -10q83 -47 83 -134q0 -91 -68 -167q-84 -95 -211 -95q-94 0 -150.5 45.5t-56.5 122.5q0 155 159 228zM407 632
q-65 0 -107.5 -40t-42.5 -101q0 -39 28.5 -61t78.5 -22q78 0 119 50q33 40 33 87q0 41 -29 64t-80 23zM344 334q-76 0 -129 -50.5t-53 -123.5q0 -47 34.5 -76.5t90.5 -29.5q79 0 132 49.5t53 122.5q0 49 -34.5 78.5t-93.5 29.5z" />
    <glyph glyph-name="nine" unicode="9" 
d="M84 162h87q0 -52 25.5 -80t73.5 -28q151 0 211 270q-44 -37 -56 -45q-51 -35 -122 -35q-81 0 -129 47t-48 126q0 92 64 183q77 109 214 109q95 0 147 -55q48 -53 48 -129q0 -103 -42 -259q-21 -79 -51 -131t-78 -92q-78 -66 -170 -66q-80 0 -127.5 43t-47.5 115
q0 16 1 27zM392 632q-73 0 -125.5 -58t-52.5 -138q0 -54 30 -84.5t83 -30.5q76 0 130 57t54 136q0 50 -34 84t-85 34z" />
    <glyph glyph-name="colon" unicode=":" horiz-adv-x="278" 
d="M236 103l-22 -103h-104l22 103h104zM326 524l-22 -103h-104l22 103h104z" />
    <glyph glyph-name="semicolon" unicode=";" horiz-adv-x="278" 
d="M325 524l-22 -103h-104l22 103h104zM132 103h105l-26 -119q-13 -64 -48 -98.5t-85 -32.5l8 38q36 0 54.5 24t28.5 85h-59z" />
    <glyph glyph-name="less" unicode="&#x3c;" horiz-adv-x="584" 
d="M87 198l15 69l533 207l-17 -79l-422 -164l353 -163l-17 -77z" />
    <glyph glyph-name="equal" unicode="=" horiz-adv-x="584" 
d="M609 355l-15 -72h-483l14 72h484zM572 183l-14 -72h-484l15 72h483z" />
    <glyph glyph-name="greater" unicode="&#x3e;" horiz-adv-x="584" 
d="M596 267l-15 -69l-533 -207l17 79l422 164l-353 163l17 77z" />
    <glyph glyph-name="question" unicode="?" 
d="M371 199h-90l12 55q11 46 33.5 73t102.5 90q58 47 81.5 82.5t23.5 78.5q0 38 -30 62t-77 24q-66 0 -103.5 -37.5t-54.5 -119.5h-85q47 234 265 234q80 0 123 -34q58 -45 58 -117q0 -58 -34 -110t-111 -110q-56 -41 -75 -64t-29 -60zM351 103l-22 -103h-90l22 103h90z" />
    <glyph glyph-name="at" unicode="@" horiz-adv-x="1015" 
d="M771 501h82l-149 -280q-24 -45 -24 -58q0 -14 12.5 -25t28.5 -11q53 0 107.5 43.5t89.5 111t35 132.5q0 108 -83 179t-210 71q-121 0 -235.5 -67.5t-185.5 -176.5t-71 -224q0 -117 85 -189t222 -72q82 0 204 32l13 -67q-115 -42 -245 -42q-86 0 -163.5 33t-130.5 92
q-73 82 -73 199q0 98 45.5 198.5t126.5 182.5q83 83 197 130.5t232 47.5q154 0 254.5 -87t100.5 -220q0 -65 -21 -130.5t-56 -110.5q-46 -59 -120 -97.5t-143 -38.5q-49 0 -73 16q-10 7 -18 21t-8 26v5v9q-11 -8 -15 -12q-72 -60 -137 -60q-61 0 -98 38t-37 101
q0 74 47.5 150t121.5 124.5t147 48.5q91 0 109 -89zM614 455q-74 0 -141 -79q-32 -37 -51.5 -82.5t-19.5 -83.5q0 -37 21.5 -61.5t54.5 -24.5q69 0 130 87q32 45 53 95.5t21 83.5q0 65 -68 65z" />
    <glyph glyph-name="A" unicode="A" horiz-adv-x="667" 
d="M524 219h-285l-123 -219h-99l415 729h120l101 -729h-102zM514 297l-40 333l-191 -333h231z" />
    <glyph glyph-name="B" unicode="B" horiz-adv-x="667" 
d="M79 0l155 729h296q97 0 145 -51q36 -39 36 -94q0 -67 -35.5 -119t-100.5 -81q53 -23 75 -51.5t22 -74.5q0 -100 -65 -171q-78 -87 -198 -87h-330zM261 415h180q93 0 136 46q38 41 38 100q0 86 -124 86h-180zM190 82h227q81 0 125 57q34 46 34 103q0 91 -106 91h-226z" />
    <glyph glyph-name="C" unicode="C" horiz-adv-x="722" 
d="M770 503h-96q-6 81 -44.5 119t-114.5 38q-136 0 -226 -133q-81 -121 -81 -267q0 -91 47.5 -146.5t125.5 -55.5q59 0 112.5 26t84.5 71q25 33 59 111h98q-49 -118 -105 -179q-101 -110 -263 -110q-131 0 -198 85q-57 72 -57 180q0 94 34.5 190.5t93.5 167.5
q117 141 292 141q143 0 206 -107q28 -50 32 -131z" />
    <glyph glyph-name="D" unicode="D" horiz-adv-x="722" 
d="M89 0l155 729h282q98 0 156 -52q35 -31 56 -82.5t21 -106.5q0 -94 -32.5 -193t-83.5 -161q-110 -134 -272 -134h-282zM200 82h172q139 0 219 123q30 48 51 127t21 148q0 78 -45.5 122.5t-125.5 44.5h-171z" />
    <glyph glyph-name="E" unicode="E" horiz-adv-x="667" 
d="M255 332l-54 -250h429l-17 -82h-523l155 729h506l-17 -82h-412l-50 -233h396l-18 -82h-395z" />
    <glyph glyph-name="F" unicode="F" horiz-adv-x="611" 
d="M255 332l-71 -332h-94l155 729h489l-17 -82h-395l-50 -233h347l-17 -82h-347z" />
    <glyph glyph-name="G" unicode="G" horiz-adv-x="778" 
d="M793 385l-83 -389h-59l-4 90q-49 -41 -81 -60q-85 -49 -188 -49q-108 0 -179 59q-42 34 -66 94t-24 131q0 97 41 193.5t113 168.5q118 118 292 118q118 0 186 -58t68 -158v-6v-4v-7h-91q-1 63 -37 99q-50 53 -144 53q-150 0 -244 -122q-40 -53 -64 -124t-24 -137
q0 -89 37 -145q23 -34 68 -54t101 -20q101 0 181 65q74 61 95 154l6 26h-222l18 82h304z" />
    <glyph glyph-name="H" unicode="H" horiz-adv-x="722" 
d="M621 332h-373l-71 -332h-94l155 729h94l-67 -315h373l67 315h94l-155 -729h-94z" />
    <glyph glyph-name="I" unicode="I" horiz-adv-x="278" 
d="M349 729l-155 -729h-94l155 729h94z" />
    <glyph glyph-name="J" unicode="J" horiz-adv-x="500" 
d="M487 729h94l-116 -547q-21 -98 -87 -151.5t-165 -53.5q-70 0 -111 32q-55 45 -55 113q0 22 6 48l14 64h94l-14 -66q-4 -16 -4 -34q0 -34 25 -55t65 -21q59 0 98 44q30 34 47 114z" />
    <glyph glyph-name="K" unicode="K" horiz-adv-x="667" 
d="M226 249l-53 -249h-94l155 729h94l-79 -373l444 373h120l-361 -298l206 -431h-110l-168 376z" />
    <glyph glyph-name="L" unicode="L" 
d="M329 729l-138 -647h360l-17 -82h-454l155 729h94z" />
    <glyph glyph-name="M" unicode="M" horiz-adv-x="833" 
d="M467 0h-97l-77 605l-129 -605h-89l155 729h129l80 -627l346 627h131l-155 -729h-89l129 605z" />
    <glyph glyph-name="N" unicode="N" horiz-adv-x="722" 
d="M801 729l-155 -729h-106l-249 591l-126 -591h-89l155 729h104l250 -598l127 598h89z" />
    <glyph glyph-name="O" unicode="O" horiz-adv-x="778" 
d="M537 741q142 0 219 -77q33 -34 52.5 -87.5t19.5 -112.5q0 -119 -52.5 -231t-140.5 -179q-100 -77 -244 -77q-64 0 -121 20.5t-93 56.5q-73 73 -73 209q0 95 37.5 188.5t104.5 162.5q121 127 291 127zM525 660q-70 0 -133.5 -33.5t-107.5 -93.5q-84 -116 -84 -262
q0 -89 41 -141q26 -33 70 -52.5t93 -19.5q73 0 136 33t107 94q40 54 62.5 123.5t22.5 137.5q0 89 -41 142q-26 33 -70.5 52.5t-95.5 19.5z" />
    <glyph glyph-name="P" unicode="P" horiz-adv-x="667" 
d="M251 309l-66 -309h-94l155 729h302q185 0 185 -161q0 -128 -99 -207q-65 -52 -155 -52h-228zM268 391h194q92 0 140 61q35 46 35 98q0 97 -120 97h-194z" />
    <glyph glyph-name="Q" unicode="Q" horiz-adv-x="778" 
d="M733 -1l-60 -58l-87 87q-55 -29 -96.5 -40t-99.5 -11q-135 0 -210.5 76t-75.5 211q0 115 54 224t143 176q104 77 236 77q141 0 218 -77q73 -75 73 -208q0 -108 -45 -207t-128 -173zM524 205l74 -73q134 129 134 314q0 89 -41 142q-26 34 -70.5 53t-95.5 19
q-71 0 -134 -33.5t-106 -93.5q-40 -54 -62.5 -123.5t-22.5 -137.5q0 -101 55.5 -157.5t153.5 -56.5q54 0 119 29l-62 62z" />
    <glyph glyph-name="R" unicode="R" horiz-adv-x="722" 
d="M254 314l-67 -314h-94l155 729h336q96 0 141 -37.5t45 -116.5q0 -47 -18.5 -92.5t-48.5 -73.5q-24 -21 -73 -49q35 -23 47.5 -43t12.5 -53q0 -28 -21 -138q-6 -32 -6 -50q0 -34 21 -53l-5 -23h-113q-4 28 -4 47q0 24 3 40.5t21 91.5q8 35 8 60q0 75 -101 75h-239z
M271 396h231q92 0 135 53q37 47 37 109q0 38 -21 61q-25 28 -98 28h-230z" />
    <glyph glyph-name="S" unicode="S" horiz-adv-x="667" 
d="M706 515h-88q4 27 4 36q0 49 -32 78q-34 31 -120 31q-97 0 -152 -49q-44 -41 -44 -93q0 -33 21.5 -51t79.5 -35l172 -49q67 -19 98 -68q24 -38 24 -78q0 -42 -24.5 -91.5t-62.5 -84.5q-90 -84 -252 -84q-113 0 -177 51t-64 141q0 30 9 63h87q-4 -25 -4 -41
q0 -68 40 -100.5t125 -32.5q118 0 180 56q47 44 47 95q0 36 -26.5 59.5t-86.5 40.5l-171 48q-50 14 -80.5 51t-30.5 84q0 38 20.5 85.5t51.5 78.5q82 85 238 85q113 0 172 -52q54 -47 54 -118q0 -19 -8 -56z" />
    <glyph glyph-name="T" unicode="T" horiz-adv-x="611" 
d="M493 647l-138 -647h-94l138 647h-241l17 82h573l-17 -82h-238z" />
    <glyph glyph-name="U" unicode="U" horiz-adv-x="722" 
d="M706 729h94l-109 -512q-23 -109 -112.5 -174.5t-215.5 -65.5q-120 0 -184 58q-24 22 -39.5 55.5t-15.5 64.5q0 30 14 96l102 478h94l-109 -512q-5 -27 -5 -44q0 -52 44.5 -83.5t116.5 -31.5q85 0 142.5 42.5t73.5 116.5z" />
    <glyph glyph-name="V" unicode="V" horiz-adv-x="667" 
d="M392 0h-100l-107 729h97l83 -617l336 617h99z" />
    <glyph glyph-name="W" unicode="W" horiz-adv-x="944" 
d="M744 0h-102l-41 592l-290 -592h-102l-32 729h100l15 -592l288 592h96l41 -592l263 592h104z" />
    <glyph glyph-name="X" unicode="X" horiz-adv-x="667" 
d="M471 374l179 -374h-115l-134 304l-264 -304h-115l339 374l-167 355h113l125 -285l248 285h114z" />
    <glyph glyph-name="Y" unicode="Y" horiz-adv-x="667" 
d="M448 286l-61 -286h-94l61 286l-186 443h112l136 -357l289 357h111z" />
    <glyph glyph-name="Z" unicode="Z" horiz-adv-x="611" 
d="M737 729l-18 -84l-556 -563h438l-17 -82h-556l18 84l555 563h-406l17 82h525z" />
    <glyph glyph-name="bracketleft" unicode="[" horiz-adv-x="278" 
d="M405 729l-15 -72h-102l-170 -798h102l-15 -72h-186l200 942h186z" />
    <glyph glyph-name="backslash" unicode="\" horiz-adv-x="278" 
d="M147 729h55l78 -749h-55z" />
    <glyph glyph-name="bracketright" unicode="]" horiz-adv-x="278" 
d="M-23 -213l15 72h103l170 798h-103l15 72h187l-200 -942h-187z" />
    <glyph glyph-name="asciicircum" unicode="^" horiz-adv-x="469" 
d="M349 709h73l74 -380h-69l-58 299l-182 -299h-72z" />
    <glyph glyph-name="underscore" unicode="_" 
d="M551 -126l-11 -50h-599l11 50h599z" />
    <glyph glyph-name="quoteleft" unicode="&#x2018;" horiz-adv-x="222" 
d="M256 477h-93l21 100q14 61 46 95t78 37l-8 -39q-29 -3 -45 -24t-24 -66h47z" />
    <glyph glyph-name="a" unicode="a" 
d="M552 51l-13 -65q-12 -2 -14 -3q-25 -6 -39 -6q-36 0 -56 17.5t-20 48.5v4v7q-50 -44 -88 -57q-55 -20 -113 -20q-67 0 -105.5 34t-38.5 94q0 92 82 144q37 23 81 33.5t144 19.5q55 5 74.5 16.5t26.5 42.5l3 18q2 16 2 19q0 28 -30.5 46t-75.5 18q-70 0 -107 -37
q-18 -18 -30 -56h-84q14 83 76.5 126.5t166.5 43.5q79 0 126.5 -31t47.5 -82q0 -10 -6 -37l-64 -301q-1 -3 -1 -10q0 -29 38 -29q8 0 17 2zM431 164l20 94q-43 -15 -146 -29q-71 -10 -103 -30q-22 -13 -35.5 -36t-13.5 -48q0 -32 23 -49t66 -17q66 0 122.5 34.5t66.5 80.5z
" />
    <glyph glyph-name="b" unicode="b" 
d="M209 729h84l-58 -275q37 40 61 55q50 30 115 30q76 0 126.5 -56t50.5 -140q0 -77 -30.5 -156t-80.5 -132q-34 -35 -83.5 -56.5t-99.5 -21.5q-70 0 -111 41q-20 20 -37 60l-17 -78h-75zM383 462q-92 0 -152 -101q-46 -79 -46 -178q0 -59 30 -94t81 -35q97 0 158 101
q46 76 46 169q0 65 -31 101.5t-86 36.5z" />
    <glyph glyph-name="c" unicode="c" horiz-adv-x="500" 
d="M551 348h-84q1 9 1 22q0 43 -27.5 67.5t-74.5 24.5q-92 0 -148 -89q-54 -85 -54 -192q0 -58 30.5 -92.5t82.5 -34.5q111 0 157 126h84q-23 -79 -58 -120q-71 -83 -197 -83q-94 0 -143 62q-44 55 -44 131q0 69 23 142.5t58 119.5q82 107 224 107q83 0 129 -47
q44 -46 44 -100q0 -1 -0.5 -5t-1 -11t-0.5 -13z" />
    <glyph glyph-name="d" unicode="d" 
d="M650 729l-155 -729h-81l16 76q-19 -38 -57 -61q-63 -38 -129 -38q-78 0 -124.5 52.5t-46.5 140.5q0 158 83 263.5t207 105.5q53 0 86 -21t57 -70l60 281h84zM355 462q-94 0 -150 -101q-44 -83 -44 -171q0 -65 31 -100.5t86 -35.5q90 0 149 101q46 80 46 172
q0 64 -31 99.5t-87 35.5z" />
    <glyph glyph-name="e" unicode="e" 
d="M563 234h-386q-5 -19 -5 -46q0 -64 32.5 -99t91.5 -35q101 0 156 105h84q-23 -81 -93.5 -131.5t-160.5 -50.5q-85 0 -136 50q-62 59 -62 146q0 61 24.5 136t59.5 122q37 50 96.5 79t124.5 29q81 0 136 -49.5t55 -121.5q0 -42 -14 -117zM195 306h294q3 24 3 33
q0 56 -31.5 89.5t-84.5 33.5q-61 0 -111 -43.5t-70 -112.5z" />
    <glyph glyph-name="f" unicode="f" horiz-adv-x="278" 
d="M370 524l-14 -67h-86l-97 -457h-84l97 457h-70l14 67h70l19 89q12 56 51.5 87.5t97.5 31.5q22 0 45 -5l-15 -69q-14 2 -27 2q-32 0 -48 -14.5t-24 -52.5l-15 -69h86z" />
    <glyph glyph-name="g" unicode="g" 
d="M525 524h76l-93 -439q-20 -95 -43 -147.5t-61 -88.5q-70 -67 -195 -67q-80 0 -128.5 34.5t-48.5 92.5q0 10 1 18l1 13h84v-8v-6q0 -34 28.5 -53t79.5 -19q80 0 123.5 44t65.5 146l4 19q-75 -80 -172 -80q-76 0 -124.5 51.5t-48.5 133.5q0 69 25.5 145t65.5 126
q37 46 91.5 73t112.5 27q51 0 92 -30q27 -20 47 -63zM363 462q-47 0 -87.5 -26.5t-67.5 -75.5q-46 -82 -46 -176q0 -59 29.5 -94t79.5 -35q45 0 86 26.5t66 72.5q46 80 46 185q0 56 -29 89.5t-77 33.5z" />
    <glyph glyph-name="h" unicode="h" 
d="M225 729h84l-57 -270q47 44 89 62t98 18q63 0 99 -33.5t36 -92.5q0 -20 -4 -37l-80 -376h-84l73 343q6 27 6 39q0 38 -23.5 61.5t-61.5 23.5q-68 0 -117.5 -47.5t-67.5 -130.5l-61 -289h-84z" />
    <glyph glyph-name="i" unicode="i" horiz-adv-x="222" 
d="M261 524l-111 -524h-84l111 524h84zM305 729l-22 -103h-84l22 103h84z" />
    <glyph glyph-name="j" unicode="j" horiz-adv-x="222" 
d="M180 524h84l-134 -633q-14 -62 -52 -85.5t-124 -23.5q-8 0 -19 3l15 71q18 -2 25 -2q38 0 53.5 14t24.5 56zM308 729l-22 -103h-84l22 103h84z" />
    <glyph glyph-name="k" unicode="k" horiz-adv-x="500" 
d="M297 729l-90 -423l269 218h108l-222 -181l140 -343h-96l-114 291l-107 -88l-43 -203h-84l155 729h84z" />
    <glyph glyph-name="l" unicode="l" horiz-adv-x="222" 
d="M307 729l-155 -729h-84l155 729h84z" />
    <glyph glyph-name="m" unicode="m" horiz-adv-x="833" 
d="M182 524h76l-13 -65q48 45 87.5 62.5t90.5 17.5q97 0 121 -83q86 83 181 83q64 0 95 -34q32 -37 32 -77q0 -33 -6 -55l-79 -373h-84l72 341q9 34 9 49q0 36 -20.5 56.5t-55.5 20.5q-54 0 -99.5 -40t-57.5 -98l-70 -329h-84l77 361q4 17 4 37q0 31 -22.5 50t-59.5 19
q-50 0 -94.5 -40.5t-56.5 -97.5l-70 -329h-84z" />
    <glyph glyph-name="n" unicode="n" 
d="M181 524h76l-13 -65q78 80 194 80q62 0 99 -34t37 -91q0 -21 -4 -38l-80 -376h-84l74 349q6 24 6 37q0 35 -25 58t-62 23q-67 0 -116.5 -47.5t-67.5 -130.5l-61 -289h-84z" />
    <glyph glyph-name="o" unicode="o" 
d="M384 539q87 0 137 -49q55 -53 55 -138q0 -65 -22.5 -138.5t-56.5 -120.5q-84 -116 -228 -116q-84 0 -136.5 52t-52.5 135q0 64 22 137.5t56 121.5q38 55 97 85.5t129 30.5zM371 462q-102 0 -159 -105q-44 -81 -44 -173q0 -60 31 -95t84 -35q103 0 161 105q44 81 44 174
q0 61 -31 95t-86 34z" />
    <glyph glyph-name="p" unicode="p" 
d="M7 -213l157 737h81l-18 -84q17 35 57 60q60 39 128 39q80 0 127 -52.5t47 -142.5q0 -74 -24 -146.5t-64 -121.5q-38 -47 -91.5 -73t-112.5 -26q-53 0 -86.5 21t-56.5 70l-60 -281h-84zM379 462q-93 0 -149 -101q-47 -81 -47 -177q0 -60 32 -95t87 -35q97 0 152 101
q44 81 44 169q0 65 -31.5 101.5t-87.5 36.5z" />
    <glyph glyph-name="q" unicode="q" 
d="M450 -213h-84l59 275q-43 -43 -62 -55q-48 -30 -115 -30q-76 0 -126.5 56t-50.5 140q0 77 30.5 156t80.5 132q34 36 83.5 57t100.5 21q111 0 147 -101l19 86h75zM364 462q-99 0 -159 -101q-46 -77 -46 -175q0 -60 32 -96t85 -36q91 0 152 101q46 79 46 178q0 59 -30 94
t-80 35z" />
    <glyph glyph-name="r" unicode="r" horiz-adv-x="333" 
d="M180 524h76l-17 -82q46 53 83.5 75t81.5 22q12 0 32 -3l-18 -85q-168 6 -207 -179l-58 -272h-84z" />
    <glyph glyph-name="s" unicode="s" horiz-adv-x="500" 
d="M514 378h-84q1 8 1 22q0 29 -24 45.5t-68 16.5q-64 0 -98 -33q-30 -28 -30 -62q0 -39 85 -60l76 -19q66 -16 93.5 -42.5t27.5 -72.5q0 -89 -67 -142.5t-179 -53.5q-87 0 -136.5 34t-49.5 94q0 23 6 51h89q-2 -20 -2 -25q0 -37 28 -57t80 -20q71 0 111 34q12 10 22 29
t10 33q0 16 -13 33q-11 13 -57 26l-74 19q-77 20 -107.5 45.5t-30.5 71.5q0 35 16.5 71.5t43.5 62.5q63 60 173 60q73 0 118.5 -33t45.5 -85q0 -18 -6 -43z" />
    <glyph glyph-name="t" unicode="t" horiz-adv-x="278" 
d="M366 524l-14 -67h-89l-78 -367q-2 -12 -2 -14q0 -12 10 -19.5t26 -7.5q13 0 48 8l-16 -73q-25 -7 -65 -7q-41 0 -65 21t-24 58q0 16 3 31l79 370h-71l14 67h71l31 144h84l-31 -144h89z" />
    <glyph glyph-name="u" unicode="u" 
d="M483 0h-76l12 57q-83 -80 -193 -80q-65 0 -101.5 29t-36.5 80q0 19 3 34l86 404h84l-79 -371q-3 -15 -3 -27q0 -35 24 -56t65 -21q64 0 113 48.5t66 129.5l63 297h84z" />
    <glyph glyph-name="v" unicode="v" horiz-adv-x="500" 
d="M287 0h-91l-74 524h92l49 -422l244 422h91z" />
    <glyph glyph-name="w" unicode="w" horiz-adv-x="722" 
d="M556 0h-95l-12 418l-195 -418h-96l-40 524h91l19 -408l189 408h105l11 -408l196 408h91z" />
    <glyph glyph-name="x" unicode="x" horiz-adv-x="500" 
d="M350 267l123 -267h-94l-90 200l-174 -200h-98l239 267l-118 257h93l88 -192l167 192h97z" />
    <glyph glyph-name="y" unicode="y" horiz-adv-x="500" 
d="M501 524h89l-368 -634q-63 -108 -165 -108q-27 0 -49 10l16 75q36 -4 44 -4q28 0 44 10.5t36 41.5l52 81l-68 528h90l46 -407z" />
    <glyph glyph-name="z" unicode="z" horiz-adv-x="500" 
d="M557 524l-18 -75l-392 -377h326l-15 -72h-427l18 74l395 378h-294l15 72h392z" />
    <glyph glyph-name="braceleft" unicode="{" horiz-adv-x="334" 
d="M431 729l-14 -65h-16q-37 0 -53.5 -14t-24.5 -53l-39 -181q-22 -109 -108 -157q28 -18 38 -38.5t10 -58.5q0 -32 -6 -61l-39 -181q-4 -16 -4 -33q0 -34 54 -34h16l-14 -66h-47q-41 0 -63.5 21t-22.5 58q0 27 6 54l35 166q9 40 9 67q0 62 -57 71l15 69q44 8 68.5 39.5
t37.5 98.5l36 166q13 59 42 90q39 42 94 42h47z" />
    <glyph glyph-name="bar" unicode="|" horiz-adv-x="260" 
d="M255 729h60l-201 -941h-60z" />
    <glyph glyph-name="braceright" unicode="}" horiz-adv-x="334" 
d="M-16 -213l14 65h16q37 0 53.5 14t24.5 53l39 181q13 67 35.5 100.5t72.5 56.5q-48 42 -48 105q0 26 6 54l39 181q4 16 4 33q0 34 -54 34h-16l14 65h47q38 0 62 -22.5t24 -59.5q0 -21 -6 -50l-35 -166q-9 -45 -9 -72q0 -57 57 -66l-15 -70q-85 -13 -106 -138l-36 -166
q-13 -58 -40 -90q-20 -24 -41 -33t-55 -9h-47z" />
    <glyph glyph-name="asciitilde" unicode="~" horiz-adv-x="584" 
d="M542 411h52q-9 -55 -34 -88q-40 -55 -102 -55q-38 0 -74 26l-85 63q-21 15 -39 15q-47 0 -71 -79h-52q19 70 54.5 107.5t83.5 37.5q27 0 51 -16l102 -69q26 -17 47 -17q51 0 67 75z" />
    <glyph glyph-name="exclamdown" unicode="&#xa1;" horiz-adv-x="333" 
d="M76 -205l74 350l67 211h40l-23 -211l-74 -350h-84zM211 421l22 103h84l-22 -103h-84z" />
    <glyph glyph-name="cent" unicode="&#xa2;" 
d="M407 463l-87 -410q53 6 87.5 36t57.5 91h84q-26 -99 -85.5 -148t-159.5 -55l-21 -97h-40l21 98q-77 8 -122.5 60.5t-45.5 132.5q0 86 32 166.5t86 129.5q68 61 169 71l19 90h40l-19 -90q33 0 62 -10q43 -16 71.5 -55t28.5 -81q0 -1 -0.5 -5t-1 -11t-0.5 -13l-1 -15h-84
q1 9 1 23q0 76 -80 90zM281 56l85 404q-53 -10 -90 -45q-41 -40 -66.5 -104t-25.5 -128q0 -53 26 -87t71 -40z" />
    <glyph glyph-name="sterling" unicode="&#xa3;" 
d="M447 376l-12 -55h-137l1 -11q2 -26 2 -27q0 -34 -18 -73q-17 -37 -38 -60.5t-76 -63.5q-3 -2 -7 -5.5t-11.5 -9t-14.5 -10.5q78 39 133 39q27 0 53 -9q63 -21 102 -21q40 0 94 31l25 -70q-66 -54 -142 -54q-49 0 -139 35q-31 11 -63 11q-53 0 -118 -37l-37 66
q174 115 174 219q0 18 -10 50h-113l12 55h83q-4 12 -9 22q-21 49 -21 82q0 97 86 173t196 76q83 0 134.5 -41.5t51.5 -108.5q0 -28 -9 -82h-88q9 33 9 57q0 45 -31.5 71.5t-84.5 26.5q-71 0 -119.5 -46t-48.5 -114q0 -20 3 -31t19 -57q1 -1 9 -28h160z" />
    <glyph glyph-name="fraction" unicode="&#x2044;" horiz-adv-x="167" 
d="M428 709h58l-606 -729h-58z" />
    <glyph glyph-name="yen" unicode="&#xa5;" 
d="M573 354l-11 -51h-172l-17 -77h172l-10 -51h-173l-37 -175h-88l37 175h-174l11 51h174l17 77h-175l11 51h154l-130 355h85l116 -322l248 322h85l-277 -355h154z" />
    <glyph glyph-name="florin" unicode="&#x192;" 
d="M567 464l-15 -72h-127l-158 -397q-42 -106 -102 -156.5t-145 -50.5q-28 0 -52 10l35 86q23 -19 50 -19q74 0 119 114l165 413h-112l15 72h125l43 103q32 77 90.5 124t122.5 47q38 0 75 -19l-46 -78q-25 20 -48 20q-72 0 -121 -128l-27 -69h113z" />
    <glyph glyph-name="section" unicode="&#xa7;" 
d="M575 524h-84q10 29 10 51q0 35 -22.5 56t-60.5 21q-42 0 -73.5 -30t-31.5 -69q0 -17 8.5 -29.5t33.5 -32.5l127 -101q38 -31 53 -48q24 -33 24 -75q0 -33 -14.5 -71.5t-37.5 -64.5q-34 -40 -95 -60q30 -41 30 -87q0 -66 -55 -126q-62 -71 -162 -71q-73 0 -117.5 38
t-44.5 100q0 24 11 61h85q-8 -28 -8 -45q0 -34 24.5 -55.5t62.5 -21.5q46 0 79 30.5t33 71.5q0 39 -38 72l-145 124q-63 53 -63 112q0 68 48 123q17 19 33.5 30.5t61.5 35.5q-26 33 -26 77q0 74 65.5 131.5t149.5 57.5q67 0 110 -38t43 -97q0 -22 -12 -61l-1 -1
q0 -2 -0.5 -4t-0.5 -4zM236 229l138 -121q97 50 97 123q0 48 -53 91l-131 106q-53 -30 -74 -56.5t-21 -62.5q0 -24 9.5 -41t34.5 -39z" />
    <glyph glyph-name="currency" unicode="&#xa4;" 
d="M526 191l-70 -54l-42 53q-44 -30 -105 -30q-60 0 -90 25l-65 -52l-44 58l60 49q-14 26 -14 65q0 37 15 73q9 22 40 63l3 4l-42 55l66 56l45 -58q46 27 102 27q61 0 93 -29l68 56l47 -58l-69 -56q13 -23 13 -57q0 -35 -15.5 -74.5t-38.5 -61.5zM369 448q-52 0 -93 -38
t-41 -87q0 -37 26 -61.5t64 -24.5q52 0 92.5 39t40.5 88q0 35 -26 59.5t-63 24.5z" />
    <glyph glyph-name="quotesingle" unicode="'" horiz-adv-x="191" 
d="M198 709h94l-24 -111l-55 -134h-40l1 134z" />
    <glyph glyph-name="quotedblleft" unicode="&#x201c;" horiz-adv-x="333" 
d="M239 477h-93l21 100q13 59 44.5 93.5t76.5 38.5l-8 -39q-52 -7 -66 -90h47zM400 477h-93l21 100q13 59 44.5 93.5t76.5 38.5l-8 -39q-51 -7 -67 -90h48z" />
    <glyph glyph-name="guillemotleft" unicode="&#xab;" 
d="M147 227l19 89l177 122l-18 -83l-121 -84l86 -83l-18 -82zM352 227l19 89l177 122l-18 -83l-121 -84l86 -83l-18 -82z" />
    <glyph glyph-name="guilsinglleft" unicode="&#x2039;" horiz-adv-x="333" 
d="M140 227l19 89l177 122l-18 -83l-121 -84l86 -83l-18 -82z" />
    <glyph glyph-name="guilsinglright" unicode="&#x203a;" horiz-adv-x="333" 
d="M307 317l-19 -89l-179 -122l18 83l123 84l-88 83l18 82z" />
    <glyph glyph-name="fi" unicode="&#xfb01;" horiz-adv-x="500" 
d="M364 524l-14 -67h-86l-97 -457h-84l97 457h-70l14 67h70l19 89q12 56 51.5 87.5t97.5 31.5q22 0 45 -5l-15 -69q-15 2 -27 2q-32 0 -48 -14.5t-24 -52.5l-15 -69h86zM547 524l-111 -524h-84l111 524h84zM591 729l-22 -103h-84l22 103h84z" />
    <glyph glyph-name="fl" unicode="&#xfb02;" horiz-adv-x="500" 
d="M369 524l-14 -67h-86l-97 -457h-84l97 457h-70l14 67h70l19 89q12 56 51.5 87.5t97.5 31.5q23 0 45 -5l-15 -69q-14 2 -27 2q-32 0 -48 -14.5t-24 -52.5l-15 -69h86zM585 729l-155 -729h-84l155 729h84z" />
    <glyph glyph-name="endash" unicode="&#x2013;" 
d="M628 312l-15 -72h-567l15 72h567z" />
    <glyph glyph-name="dagger" unicode="&#x2020;" 
d="M620 501l-17 -81h-195l-126 -597h-88l126 597h-193l17 81h194l44 208h88l-44 -208h194z" />
    <glyph glyph-name="daggerdbl" unicode="&#x2021;" 
d="M620 501l-17 -81h-191l-66 -308h191l-17 -81h-191l-44 -208h-88l44 208h-190l17 81h190l66 308h-190l17 81h190l44 208h88l-44 -208h191z" />
    <glyph glyph-name="periodcentered" unicode="&#xb7;" horiz-adv-x="278" 
d="M293 295l-22 -103h-105l22 103h105z" />
    <glyph glyph-name="paragraph" unicode="&#xb6;" horiz-adv-x="537" 
d="M677 729l-14 -64h-56l-179 -843h-64l179 843h-83l-179 -843h-64l93 437q-77 2 -121 49.5t-44 127.5q0 114 86 203.5t196 89.5h250z" />
    <glyph glyph-name="bullet" unicode="&#x2022;" horiz-adv-x="350" 
d="M274 470q45 0 73.5 -27.5t28.5 -70.5q0 -59 -47.5 -105.5t-108.5 -46.5q-42 0 -71 28.5t-29 69.5q0 59 47 105.5t107 46.5z" />
    <glyph glyph-name="quotesinglbase" unicode="&#x201a;" horiz-adv-x="222" 
d="M86 103h94l-21 -100q-13 -59 -44.5 -93.5t-77.5 -37.5l8 38q52 7 67 90h-48z" />
    <glyph glyph-name="quotedblbase" unicode="&#x201e;" horiz-adv-x="333" 
d="M69 103h94l-21 -100q-13 -59 -44.5 -93.5t-77.5 -37.5l8 38q52 7 67 90h-48zM228 103h94l-21 -100q-13 -59 -44.5 -93.5t-77.5 -37.5l8 38q52 7 67 90h-48z" />
    <glyph glyph-name="quotedblright" unicode="&#x201d;" horiz-adv-x="333" 
d="M199 708h94l-21 -100q-13 -59 -44.5 -93.5t-77.5 -37.5l8 38q52 7 67 90h-48zM358 708h94l-21 -100q-13 -59 -44.5 -93.5t-77.5 -37.5l8 38q52 7 67 90h-48z" />
    <glyph glyph-name="guillemotright" unicode="&#xbb;" 
d="M319 317l-19 -89l-179 -122l18 83l123 84l-88 83l18 82zM518 317l-19 -89l-179 -122l18 83l123 84l-88 83l18 82z" />
    <glyph glyph-name="ellipsis" unicode="&#x2026;" horiz-adv-x="1000" 
d="M241 103l-22 -103h-104l22 103h104zM574 103l-22 -103h-104l22 103h104zM907 103l-22 -103h-104l22 103h104z" />
    <glyph glyph-name="perthousand" unicode="&#x2030;" horiz-adv-x="1000" 
d="M649 738h66l-556 -758h-66zM314 725q52 0 86 -32t34 -81q0 -73 -56 -127.5t-131 -54.5q-50 0 -84.5 33.5t-34.5 82.5q0 69 57 124t129 55zM302 670q-46 0 -80 -34.5t-34 -79.5q0 -31 21 -51t53 -20q45 0 78.5 34.5t33.5 80.5q0 29 -21 49.5t-51 20.5zM543 276
q52 0 86 -32t34 -81q0 -73 -56 -127.5t-131 -54.5q-50 0 -84.5 33.5t-34.5 82.5q0 69 57 124t129 55zM531 221q-46 0 -80 -34.5t-34 -79.5q0 -31 21 -51t53 -20q45 0 78.5 34.5t33.5 80.5q0 29 -21 49.5t-51 20.5zM904 276q52 0 86 -32t34 -81q0 -73 -56 -127.5t-131 -54.5
q-50 0 -84.5 33.5t-34.5 82.5q0 69 57 124t129 55zM892 221q-46 0 -80 -34.5t-34 -79.5q0 -31 21 -51t53 -20q45 0 78.5 34.5t33.5 80.5q0 29 -21 49.5t-51 20.5z" />
    <glyph glyph-name="questiondown" unicode="&#xbf;" horiz-adv-x="611" 
d="M344 325h90l-12 -55q-11 -46 -35 -74.5t-102 -88.5q-104 -82 -104 -160q0 -40 29 -63.5t78 -23.5q66 0 103.5 37.5t54.5 119.5h85q-47 -234 -265 -234q-97 0 -145 55q-35 40 -35 90q0 73 51 140q27 35 93 86q56 41 75 64t29 60zM364 421l22 103h90l-22 -103h-90z" />
    <glyph glyph-name="grave" unicode="`" horiz-adv-x="333" 
d="M285 740l72 -148h-53l-125 148h106z" />
    <glyph glyph-name="acute" unicode="&#xb4;" horiz-adv-x="333" 
d="M346 740h112l-180 -148h-60z" />
    <glyph glyph-name="circumflex" unicode="&#x2c6;" horiz-adv-x="333" 
d="M274 741h95l64 -150h-63l-56 99l-104 -99h-64z" />
    <glyph glyph-name="tilde" unicode="&#x2dc;" horiz-adv-x="333" 
d="M418 719h53q-16 -49 -45 -78t-63 -29q-27 0 -103 26q-16 6 -27 6q-27 0 -43 -24q-1 -1 -7 -9h-53q16 47 32 67q12 16 32.5 26t39.5 10q22 0 73 -17q43 -15 63 -15q15 0 24.5 7.5t23.5 29.5z" />
    <glyph glyph-name="macron" unicode="&#xaf;" horiz-adv-x="333" 
d="M450 696l-15 -69h-275l15 69h275z" />
    <glyph glyph-name="breve" unicode="&#x2d8;" horiz-adv-x="333" 
d="M170 729h53v-8v-5q0 -22 22.5 -36t59.5 -14q94 0 110 63h56q-15 -59 -46 -86q-54 -49 -133 -49q-56 0 -91.5 27.5t-35.5 71.5q0 12 5 36z" />
    <glyph glyph-name="dotaccent" unicode="&#x2d9;" horiz-adv-x="333" 
d="M370 715l-22 -103h-104l22 103h104z" />
    <glyph glyph-name="dieresis" unicode="&#xa8;" horiz-adv-x="333" 
d="M285 715l-22 -103h-104l22 103h104zM446 715l-22 -103h-104l22 103h104z" />
    <glyph glyph-name="ring" unicode="&#x2da;" horiz-adv-x="333" 
d="M324 754q31 0 51.5 -19t20.5 -48q0 -42 -33 -75t-76 -33q-30 0 -50.5 20.5t-20.5 49.5q0 40 33.5 72.5t74.5 32.5zM317 710q-21 0 -38 -16t-17 -36q0 -16 10 -25.5t25 -9.5q20 0 37 16.5t17 35.5q0 15 -10 25t-24 10z" />
    <glyph glyph-name="cedilla" unicode="&#xb8;" horiz-adv-x="333" 
d="M165 0h41l-30 -56q13 2 21 2q28 0 47.5 -15t19.5 -36q0 -47 -41 -78t-104 -31q-51 0 -118 34l28 38q57 -29 94 -29q28 0 45.5 15.5t17.5 39.5q0 9 -9 15.5t-22 6.5q-4 0 -20 -3l-7 -1l-13 6z" />
    <glyph glyph-name="hungarumlaut" unicode="&#x2dd;" horiz-adv-x="333" 
d="M219 740h112l-180 -150h-60zM393 740h112l-180 -150h-60z" />
    <glyph glyph-name="ogonek" unicode="&#x2db;" horiz-adv-x="333" 
d="M165 0h69l-22 -11q-38 -19 -53.5 -29.5t-28.5 -25.5q-20 -23 -20 -50q0 -20 18.5 -32t47.5 -12q40 0 70 10l-9 -45q-30 -10 -68 -10q-64 0 -99 20t-35 55q0 57 59 96q29 19 71 34z" />
    <glyph glyph-name="caron" unicode="&#x2c7;" horiz-adv-x="333" 
d="M335 592h-95l-64 148h63l56 -98l104 98h64z" />
    <glyph glyph-name="emdash" unicode="&#x2014;" horiz-adv-x="1000" 
d="M1068 312l-15 -72h-1011l15 72h1011z" />
    <glyph glyph-name="AE" unicode="&#xc6;" horiz-adv-x="1000" 
d="M513 214h-269l-130 -214h-103l454 729h622l-17 -82h-371l-49 -233h351l-18 -82h-351l-53 -250h388l-17 -82h-482zM531 295l74 352h-100l-212 -352h238z" />
    <glyph glyph-name="ordfeminine" unicode="&#xaa;" horiz-adv-x="370" 
d="M406 354l-11 -51h-288l11 51h288zM432 449l-9 -44q-2 0 -5 -1q-4 -1 -5 -1q-17 -4 -26 -4q-42 0 -47 43q-46 -43 -109 -43q-46 0 -70.5 21t-24.5 59q0 58 50 89q35 22 134 32q33 4 43 9.5t15 23.5l2 8q2 10 2 15q0 10 -11 23q-12 12 -51 12q-42 0 -61 -22
q-12 -14 -19 -35h-56q15 53 34 71q39 37 119 37q48 0 76 -17.5t28 -48.5q0 -15 -1 -18l-41 -190q-1 -3 -1 -7q0 -5 5 -9.5t12 -4.5q5 0 9 1zM353 515l10 51q-20 -7 -51 -11q-68 -9 -88 -22q-28 -17 -28 -47q0 -37 53 -37q34 0 66.5 21t37.5 45z" />
    <glyph glyph-name="Lslash" unicode="&#x141;" 
d="M261 315l-50 -233h359l-18 -82h-452l58 276l-83 -51l17 79l83 51l80 374h94l-71 -335l196 118l-17 -79z" />
    <glyph glyph-name="Oslash" unicode="&#xd8;" horiz-adv-x="778" 
d="M32 15l94 85q-38 65 -38 168q0 91 38 184t103 162q121 127 290 127q73 0 133 -22.5t93 -61.5l87 78l35 -39l-92 -83q37 -64 37 -150q0 -119 -53.5 -232t-140.5 -177q-105 -77 -240 -77q-142 0 -220 80l-91 -81zM202 168l470 424q-57 68 -164 68q-136 0 -230 -114.5
t-94 -280.5q0 -55 18 -97zM700 546l-470 -423q26 -30 69 -47.5t92 -17.5q70 0 133.5 34t107.5 93q39 53 61.5 122.5t22.5 135.5q0 63 -16 103z" />
    <glyph glyph-name="OE" unicode="&#x152;" horiz-adv-x="1000" 
d="M687 327l-53 -245h340l-17 -82h-434l16 77q-81 -100 -207 -100q-104 0 -167.5 66.5t-63.5 175.5q0 105 38 218.5t96 178.5q52 58 122 91.5t139 33.5q121 0 166 -88l16 76h430l-17 -82h-336l-51 -238h327l-18 -82h-326zM562 182l76 357q-28 121 -158 121q-133 0 -211 -137
q-30 -51 -51 -140t-21 -161q0 -76 41.5 -120t113.5 -44q125 0 210 124z" />
    <glyph glyph-name="ordmasculine" unicode="&#xba;" horiz-adv-x="365" 
d="M388 354l-11 -51h-263l11 51h263zM336 742q52 0 81 -26q35 -33 35 -89q0 -38 -14 -83t-34 -74q-52 -71 -142 -71q-50 0 -81.5 30.5t-31.5 79.5q0 42 13.5 88.5t34.5 74.5q51 70 139 70zM327 690q-50 0 -84 -47.5t-34 -117.5q0 -35 17.5 -54.5t49.5 -19.5q49 0 82.5 48
t33.5 118q0 34 -17.5 53.5t-47.5 19.5z" />
    <glyph glyph-name="ae" unicode="&#xe6;" horiz-adv-x="889" 
d="M225 369h-84q21 77 53 109q64 61 193 61q85 0 135 -40q21 -18 24 -25q73 65 182 65q76 0 131.5 -50t55.5 -119q0 -44 -14 -119l-3 -17h-386q-5 -22 -5 -53v-12v-6q0 -48 43 -84q29 -25 82 -25q100 0 155 105h84q-24 -82 -94 -132t-161 -50q-117 0 -174 102
q-105 -102 -241 -102q-65 0 -103.5 34.5t-38.5 93.5q0 43 22 81.5t60 62.5q38 23 81.5 33t140.5 18q54 5 73 17t27 44l5 25q2 14 2 19q0 26 -28 41.5t-76 15.5q-59 0 -92 -22t-49 -71zM421 164l20 93q-27 -10 -47 -13.5t-95 -14.5q-70 -9 -103 -30q-49 -31 -49 -84
q0 -66 90 -66q63 0 118.5 35t65.5 80zM530 306h294q3 22 3 33q0 56 -31 89.5t-84 33.5q-62 0 -110.5 -41.5t-71.5 -114.5z" />
    <glyph glyph-name="dotlessi" unicode="&#x131;" horiz-adv-x="278" 
d="M290 527l-112 -527h-84l112 527h84z" />
    <glyph glyph-name="lslash" unicode="&#x142;" horiz-adv-x="222" 
d="M239 414l73 42l-14 -67l-73 -42l-74 -347h-84l67 314l-72 -44l14 67l73 45l73 347h84z" />
    <glyph glyph-name="oslash" unicode="&#xf8;" horiz-adv-x="611" 
d="M19 -2l83 76q-21 45 -21 90q0 63 22 137t56 122q80 116 224 116q105 0 154 -67l76 69l26 -30l-81 -74q19 -42 19 -83q0 -67 -22 -140t-57 -121q-84 -116 -224 -116q-105 0 -151 64l-78 -71zM175 141l295 269q-29 52 -101 52q-100 0 -156 -105q-44 -80 -44 -177
q0 -21 6 -39zM484 370l-294 -268q29 -48 99 -48q48 0 89 27.5t68 77.5q18 34 30.5 83.5t12.5 85.5q0 17 -5 42z" />
    <glyph glyph-name="oe" unicode="&#x153;" horiz-adv-x="944" 
d="M838 159h84q-24 -82 -94 -132t-161 -50q-98 0 -159 78q-10 12 -17 29q-38 -51 -94.5 -79t-121.5 -28q-88 0 -136 49q-54 56 -54 139q0 61 21.5 133.5t55.5 123.5q78 117 224 117q127 0 172 -103q32 44 94 73.5t123 29.5q81 0 136 -49.5t55 -121.5q0 -42 -14 -117l-3 -17
h-386q-7 -36 -7 -58q0 -56 34.5 -89t92.5 -33q100 0 155 105zM371 462q-83 0 -140.5 -81.5t-57.5 -199.5q0 -59 30 -93t82 -34q102 0 160 105q42 78 42 175q0 60 -31 94t-85 34zM581 306h294q3 21 3 32q0 57 -31 90.5t-83 33.5q-61 0 -112 -43.5t-71 -112.5z" />
    <glyph glyph-name="germandbls" unicode="&#xdf;" horiz-adv-x="611" 
d="M376 349l18 82q74 -1 123.5 37.5t49.5 96.5q0 41 -26.5 64t-72.5 23q-119 0 -144 -114l-114 -538h-84l114 538q10 49 28 79.5t53 58.5q66 53 152 53q85 0 133.5 -39.5t48.5 -107.5q0 -60 -31 -107t-89 -72q84 -37 84 -125q0 -50 -18.5 -103.5t-48.5 -92.5
q-81 -105 -228 -105q-15 0 -26 4l17 78h10q9 -1 19 -1q78 0 132.5 56.5t54.5 136.5q0 98 -124 98h-10h-21z" />
    <glyph glyph-name="Adieresis" unicode="&#xc4;" horiz-adv-x="667" 
d="M524 219h-285l-123 -219h-99l415 729h120l101 -729h-102zM514 297l-40 333l-191 -333h231zM501 914l-22 -103h-104l22 103h104zM662 914l-22 -103h-104l22 103h104z" />
    <glyph glyph-name="Aacute" unicode="&#xc1;" horiz-adv-x="667" 
d="M524 219h-285l-123 -219h-99l415 729h120l101 -729h-102zM514 297l-40 333l-191 -333h231zM555 939h112l-180 -148h-60z" />
    <glyph glyph-name="Agrave" unicode="&#xc0;" horiz-adv-x="667" 
d="M524 219h-285l-123 -219h-99l415 729h120l101 -729h-102zM514 297l-40 333l-191 -333h231zM483 939l72 -148h-53l-125 148h106z" />
    <glyph glyph-name="Acircumflex" unicode="&#xc2;" horiz-adv-x="667" 
d="M524 219h-285l-123 -219h-99l415 729h120l101 -729h-102zM514 297l-40 333l-191 -333h231zM486 940h95l64 -150h-63l-56 99l-104 -99h-64z" />
    <glyph glyph-name="Abreve" unicode="&#x102;" horiz-adv-x="667" 
d="M524 219h-285l-123 -219h-99l415 729h120l101 -729h-102zM514 297l-40 333l-191 -333h231zM382 928h53v-8v-5q0 -22 22.5 -36t59.5 -14q94 0 110 63h56q-15 -59 -46 -86q-54 -49 -133 -49q-56 0 -91.5 27.5t-35.5 71.5q0 12 5 36z" />
    <glyph glyph-name="Atilde" unicode="&#xc3;" horiz-adv-x="667" 
d="M524 219h-285l-123 -219h-99l415 729h120l101 -729h-102zM514 297l-40 333l-191 -333h231zM627 918h53q-16 -49 -45 -78t-63 -29q-27 0 -103 26q-17 6 -27 6q-27 0 -43 -24q-1 -1 -7 -9h-53q16 47 32 67q12 16 32.5 26t39.5 10q22 0 73 -17q43 -15 63 -15q15 0 24.5 7.5
t23.5 29.5z" />
    <glyph glyph-name="Aring" unicode="&#xc5;" horiz-adv-x="667" 
d="M524 219h-285l-123 -219h-99l415 729h120l101 -729h-102zM514 297l-40 333l-191 -333h231zM533 953q31 0 51.5 -19t20.5 -48q0 -42 -33 -75t-76 -33q-30 0 -50.5 20.5t-20.5 49.5q0 40 33.5 72.5t74.5 32.5zM526 909q-21 0 -38 -16t-17 -36q0 -16 10 -25.5t25 -9.5
q20 0 37 16t17 36q0 15 -10 25t-24 10z" />
    <glyph glyph-name="Aogonek" unicode="&#x104;" horiz-adv-x="667" 
d="M524 219h-298l-110 -219h-99l415 729h120l101 -729q-67 -29 -96.5 -56.5t-29.5 -59.5q0 -20 18.5 -32t49.5 -12q39 0 68 10l-9 -45q-47 -10 -72 -10q-60 0 -95 20t-35 55q0 56 57 95q27 19 73 35h-31zM514 297l-40 333l-191 -333h231z" />
    <glyph glyph-name="Ccedilla" unicode="&#xc7;" horiz-adv-x="722" 
d="M368 -23l-17 -33q13 2 21 2q28 0 47.5 -15t19.5 -36q0 -47 -41 -78t-104 -31q-51 0 -118 34l28 38q55 -29 94 -29q28 0 45.5 15.5t17.5 39.5q0 9 -9 15.5t-22 6.5q-5 0 -20 -3l-7 -1l-13 6l38 71q-50 7 -77.5 18.5t-53.5 34.5q-85 76 -85 210q0 94 34.5 190.5t93.5 167.5
q117 141 292 141q143 0 206 -107q28 -50 32 -131h-96q-6 81 -44.5 119t-114.5 38q-136 0 -226 -133q-81 -121 -81 -267q0 -91 47.5 -146.5t125.5 -55.5q59 0 112.5 26t84.5 71q25 33 59 111h98q-59 -148 -147.5 -217.5t-219.5 -71.5z" />
    <glyph glyph-name="Cacute" unicode="&#x106;" horiz-adv-x="722" 
d="M770 503h-96q-6 81 -44.5 119t-114.5 38q-136 0 -226 -133q-81 -121 -81 -267q0 -91 47.5 -146.5t125.5 -55.5q59 0 112.5 26t84.5 71q25 33 59 111h98q-49 -118 -105 -179q-101 -110 -263 -110q-131 0 -198 85q-57 72 -57 180q0 94 34.5 190.5t93.5 167.5
q117 141 292 141q143 0 206 -107q28 -50 32 -131zM621 939h112l-180 -148h-60z" />
    <glyph glyph-name="Ccaron" unicode="&#x10c;" horiz-adv-x="722" 
d="M770 503h-96q-6 81 -44.5 119t-114.5 38q-136 0 -226 -133q-81 -121 -81 -267q0 -91 47.5 -146.5t125.5 -55.5q59 0 112.5 26t84.5 71q25 33 59 111h98q-49 -118 -105 -179q-101 -110 -263 -110q-131 0 -198 85q-57 72 -57 180q0 94 34.5 190.5t93.5 167.5
q117 141 292 141q143 0 206 -107q28 -50 32 -131zM596 791h-95l-64 148h63l56 -98l104 98h64z" />
    <glyph glyph-name="Dcaron" unicode="&#x10e;" horiz-adv-x="722" 
d="M89 0l155 729h282q98 0 156 -52q35 -31 56 -82.5t21 -106.5q0 -94 -32.5 -193t-83.5 -161q-110 -134 -272 -134h-282zM200 82h172q139 0 219 123q30 48 51 127t21 148q0 78 -45.5 122.5t-125.5 44.5h-171zM536 791h-95l-64 148h63l56 -98l104 98h64z" />
    <glyph glyph-name="Edieresis" unicode="&#xcb;" horiz-adv-x="667" 
d="M255 332l-54 -250h429l-17 -82h-523l155 729h506l-17 -82h-412l-50 -233h396l-18 -82h-395zM505 914l-22 -103h-104l22 103h104zM666 914l-22 -103h-104l22 103h104z" />
    <glyph glyph-name="Eacute" unicode="&#xc9;" horiz-adv-x="667" 
d="M255 332l-54 -250h429l-17 -82h-523l155 729h506l-17 -82h-412l-50 -233h396l-18 -82h-395zM582 939h112l-180 -148h-60z" />
    <glyph glyph-name="Egrave" unicode="&#xc8;" horiz-adv-x="667" 
d="M255 332l-54 -250h429l-17 -82h-523l155 729h506l-17 -82h-412l-50 -233h396l-18 -82h-395zM495 939l72 -148h-53l-125 148h106z" />
    <glyph glyph-name="Ecircumflex" unicode="&#xca;" horiz-adv-x="667" 
d="M255 332l-54 -250h429l-17 -82h-523l155 729h506l-17 -82h-412l-50 -233h396l-18 -82h-395zM495 940h95l64 -150h-63l-56 99l-104 -99h-64z" />
    <glyph glyph-name="Ecaron" unicode="&#x11a;" horiz-adv-x="667" 
d="M255 332l-54 -250h429l-17 -82h-523l155 729h506l-17 -82h-412l-50 -233h396l-18 -82h-395zM555 791h-95l-64 148h63l56 -98l104 98h64z" />
    <glyph glyph-name="Edotaccent" unicode="&#x116;" horiz-adv-x="667" 
d="M255 332l-54 -250h429l-17 -82h-523l155 729h506l-17 -82h-412l-50 -233h396l-18 -82h-395zM585 914l-22 -103h-104l22 103h104z" />
    <glyph glyph-name="Eogonek" unicode="&#x118;" horiz-adv-x="667" 
d="M255 332l-54 -250h429l-17 -82q-68 -32 -91 -52q-35 -32 -35 -64q0 -20 18.5 -32t49.5 -12q39 0 68 10l-9 -45q-47 -10 -72 -10q-60 0 -95 20t-35 55q0 56 57 95q23 16 73 35h-452l155 729h506l-17 -82h-412l-50 -233h396l-18 -82h-395z" />
    <glyph glyph-name="Gbreve" unicode="&#x11e;" horiz-adv-x="778" 
d="M793 385l-83 -389h-59l-4 90q-49 -41 -81 -60q-85 -49 -188 -49q-108 0 -179 59q-42 34 -66 94t-24 131q0 97 41 193.5t113 168.5q118 118 292 118q118 0 186 -58t68 -158v-6v-4v-7h-91q-1 63 -37 99q-50 53 -144 53q-150 0 -244 -122q-40 -53 -64 -124t-24 -137
q0 -89 37 -145q23 -34 68 -54t101 -20q101 0 181 65q74 61 95 154l6 26h-222l18 82h304zM443 928h53v-8v-5q0 -22 22.5 -36t59.5 -14q94 0 110 63h56q-15 -59 -46 -86q-54 -49 -133 -49q-56 0 -91.5 27.5t-35.5 71.5q0 12 5 36z" />
    <glyph glyph-name="Idieresis" unicode="&#xcf;" horiz-adv-x="278" 
d="M349 729l-155 -729h-94l155 729h94zM306 907l-22 -103h-104l22 103h104zM467 907l-22 -103h-104l22 103h104z" />
    <glyph glyph-name="Iacute" unicode="&#xcd;" horiz-adv-x="278" 
d="M349 729l-155 -729h-94l155 729h94zM367 939h112l-180 -148h-60z" />
    <glyph glyph-name="Igrave" unicode="&#xcc;" horiz-adv-x="278" 
d="M349 729l-155 -729h-94l155 729h94zM306 939l72 -148h-53l-125 148h106z" />
    <glyph glyph-name="Icircumflex" unicode="&#xce;" horiz-adv-x="278" 
d="M349 729l-155 -729h-94l155 729h94zM295 940h95l64 -150h-63l-56 99l-104 -99h-64z" />
    <glyph glyph-name="Idotaccent" unicode="&#x130;" horiz-adv-x="278" 
d="M349 729l-155 -729h-94l155 729h94zM389 914l-22 -103h-104l22 103h104z" />
    <glyph glyph-name="Lacute" unicode="&#x139;" 
d="M329 729l-138 -647h360l-17 -82h-454l155 729h94zM368 939h112l-180 -148h-60z" />
    <glyph glyph-name="Lcaron" unicode="&#x13d;" 
d="M329 729l-138 -647h360l-17 -82h-454l155 729h94zM429 729h100l-19 -93q-14 -62 -48 -96.5t-81 -34.5l8 38q58 0 74 88h-55z" />
    <glyph glyph-name="Nacute" unicode="&#x143;" horiz-adv-x="722" 
d="M801 729l-155 -729h-106l-249 591l-126 -591h-89l155 729h104l250 -598l127 598h89zM594 939h112l-180 -148h-60z" />
    <glyph glyph-name="Ncaron" unicode="&#x147;" horiz-adv-x="722" 
d="M801 729l-155 -729h-106l-249 591l-126 -591h-89l155 729h104l250 -598l127 598h89zM570 791h-95l-64 148h63l56 -98l104 98h64z" />
    <glyph glyph-name="Ntilde" unicode="&#xd1;" horiz-adv-x="722" 
d="M801 729l-155 -729h-106l-249 591l-126 -591h-89l155 729h104l250 -598l127 598h89zM669 918h53q-16 -49 -45 -78t-63 -29q-27 0 -103 26q-17 6 -27 6q-27 0 -43 -24q-1 -1 -7 -9h-53q16 47 32 67q12 16 32.5 26t39.5 10q22 0 73 -17q43 -15 63 -15q15 0 24.5 7.5
t23.5 29.5z" />
    <glyph glyph-name="Odieresis" unicode="&#xd6;" horiz-adv-x="778" 
d="M537 741q142 0 219 -77q33 -34 52.5 -87.5t19.5 -112.5q0 -119 -52.5 -231t-140.5 -179q-100 -77 -244 -77q-64 0 -121 20.5t-93 56.5q-73 73 -73 209q0 95 37.5 188.5t104.5 162.5q121 127 291 127zM525 660q-70 0 -133.5 -33.5t-107.5 -93.5q-84 -116 -84 -262
q0 -89 41 -141q26 -33 70 -52.5t93 -19.5q73 0 136 33t107 94q40 54 62.5 123.5t22.5 137.5q0 89 -41 142q-26 33 -70.5 52.5t-95.5 19.5zM550 914l-22 -103h-104l22 103h104zM711 914l-22 -103h-104l22 103h104z" />
    <glyph glyph-name="Oacute" unicode="&#xd3;" horiz-adv-x="778" 
d="M537 741q142 0 219 -77q33 -34 52.5 -87.5t19.5 -112.5q0 -119 -52.5 -231t-140.5 -179q-100 -77 -244 -77q-64 0 -121 20.5t-93 56.5q-73 73 -73 209q0 95 37.5 188.5t104.5 162.5q121 127 291 127zM525 660q-70 0 -133.5 -33.5t-107.5 -93.5q-84 -116 -84 -262
q0 -89 41 -141q26 -33 70 -52.5t93 -19.5q73 0 136 33t107 94q40 54 62.5 123.5t22.5 137.5q0 89 -41 142q-26 33 -70.5 52.5t-95.5 19.5zM621 939h112l-180 -148h-60z" />
    <glyph glyph-name="Ograve" unicode="&#xd2;" horiz-adv-x="778" 
d="M537 741q142 0 219 -77q33 -34 52.5 -87.5t19.5 -112.5q0 -119 -52.5 -231t-140.5 -179q-100 -77 -244 -77q-64 0 -121 20.5t-93 56.5q-73 73 -73 209q0 95 37.5 188.5t104.5 162.5q121 127 291 127zM525 660q-70 0 -133.5 -33.5t-107.5 -93.5q-84 -116 -84 -262
q0 -89 41 -141q26 -33 70 -52.5t93 -19.5q73 0 136 33t107 94q40 54 62.5 123.5t22.5 137.5q0 89 -41 142q-26 33 -70.5 52.5t-95.5 19.5zM538 939l72 -148h-53l-125 148h106z" />
    <glyph glyph-name="Ocircumflex" unicode="&#xd4;" horiz-adv-x="778" 
d="M537 741q142 0 219 -77q33 -34 52.5 -87.5t19.5 -112.5q0 -119 -52.5 -231t-140.5 -179q-100 -77 -244 -77q-64 0 -121 20.5t-93 56.5q-73 73 -73 209q0 95 37.5 188.5t104.5 162.5q121 127 291 127zM525 660q-70 0 -133.5 -33.5t-107.5 -93.5q-84 -116 -84 -262
q0 -89 41 -141q26 -33 70 -52.5t93 -19.5q73 0 136 33t107 94q40 54 62.5 123.5t22.5 137.5q0 89 -41 142q-26 33 -70.5 52.5t-95.5 19.5zM538 940h95l64 -150h-63l-56 99l-104 -99h-64z" />
    <glyph glyph-name="Otilde" unicode="&#xd5;" horiz-adv-x="778" 
d="M537 741q142 0 219 -77q33 -34 52.5 -87.5t19.5 -112.5q0 -119 -52.5 -231t-140.5 -179q-100 -77 -244 -77q-64 0 -121 20.5t-93 56.5q-73 73 -73 209q0 95 37.5 188.5t104.5 162.5q121 127 291 127zM525 660q-70 0 -133.5 -33.5t-107.5 -93.5q-84 -116 -84 -262
q0 -89 41 -141q26 -33 70 -52.5t93 -19.5q73 0 136 33t107 94q40 54 62.5 123.5t22.5 137.5q0 89 -41 142q-26 33 -70.5 52.5t-95.5 19.5zM694 918h53q-16 -49 -45 -78t-63 -29q-27 0 -103 26q-16 6 -27 6q-27 0 -43 -24q-1 -1 -7 -9h-53q16 47 32 67q12 16 32.5 26t39.5 10
q22 0 73 -17q43 -15 63 -15q15 0 24.5 7.5t23.5 29.5z" />
    <glyph glyph-name="Ohungarumlaut" unicode="&#x150;" horiz-adv-x="778" 
d="M537 741q142 0 219 -77q33 -34 52.5 -87.5t19.5 -112.5q0 -119 -52.5 -231t-140.5 -179q-100 -77 -244 -77q-64 0 -121 20.5t-93 56.5q-73 73 -73 209q0 95 37.5 188.5t104.5 162.5q121 127 291 127zM525 660q-70 0 -133.5 -33.5t-107.5 -93.5q-84 -116 -84 -262
q0 -89 41 -141q26 -33 70 -52.5t93 -19.5q73 0 136 33t107 94q40 54 62.5 123.5t22.5 137.5q0 89 -41 142q-26 33 -70.5 52.5t-95.5 19.5zM555 939h112l-180 -150h-60zM729 939h112l-180 -150h-60z" />
    <glyph glyph-name="Racute" unicode="&#x154;" horiz-adv-x="722" 
d="M254 314l-67 -314h-94l155 729h336q96 0 141 -37.5t45 -116.5q0 -47 -18.5 -92.5t-48.5 -73.5q-24 -21 -73 -49q35 -23 47.5 -43t12.5 -53q0 -28 -21 -138q-6 -32 -6 -50q0 -34 21 -53l-5 -23h-113q-4 28 -4 47q0 24 3 40.5t21 91.5q8 35 8 60q0 75 -101 75h-239z
M271 396h231q92 0 135 53q37 47 37 109q0 38 -21 61q-25 28 -98 28h-230zM577 939h112l-180 -148h-60z" />
    <glyph glyph-name="Rcaron" unicode="&#x158;" horiz-adv-x="722" 
d="M254 314l-67 -314h-94l155 729h336q96 0 141 -37.5t45 -116.5q0 -47 -18.5 -92.5t-48.5 -73.5q-24 -21 -73 -49q35 -23 47.5 -43t12.5 -53q0 -28 -21 -138q-6 -32 -6 -50q0 -34 21 -53l-5 -23h-113q-4 28 -4 47q0 24 3 40.5t21 91.5q8 35 8 60q0 75 -101 75h-239z
M271 396h231q92 0 135 53q37 47 37 109q0 38 -21 61q-25 28 -98 28h-230zM556 791h-95l-64 148h63l56 -98l104 98h64z" />
    <glyph glyph-name="Sacute" unicode="&#x15a;" horiz-adv-x="667" 
d="M706 515h-88q4 27 4 36q0 49 -32 78q-34 31 -120 31q-97 0 -152 -49q-44 -41 -44 -93q0 -33 21.5 -51t79.5 -35l172 -49q67 -19 98 -68q24 -38 24 -78q0 -42 -24.5 -91.5t-62.5 -84.5q-90 -84 -252 -84q-113 0 -177 51t-64 141q0 30 9 63h87q-4 -25 -4 -41
q0 -68 40 -100.5t125 -32.5q118 0 180 56q47 44 47 95q0 36 -26.5 59.5t-86.5 40.5l-171 48q-50 14 -80.5 51t-30.5 84q0 38 20.5 85.5t51.5 78.5q82 85 238 85q113 0 172 -52q54 -47 54 -118q0 -19 -8 -56zM566 939h112l-180 -148h-60z" />
    <glyph glyph-name="Scaron" unicode="&#x160;" horiz-adv-x="667" 
d="M706 515h-88q4 27 4 36q0 49 -32 78q-34 31 -120 31q-97 0 -152 -49q-44 -41 -44 -93q0 -33 21.5 -51t79.5 -35l172 -49q67 -19 98 -68q24 -38 24 -78q0 -42 -24.5 -91.5t-62.5 -84.5q-90 -84 -252 -84q-113 0 -177 51t-64 141q0 30 9 63h87q-4 -25 -4 -41
q0 -68 40 -100.5t125 -32.5q118 0 180 56q47 44 47 95q0 36 -26.5 59.5t-86.5 40.5l-171 48q-50 14 -80.5 51t-30.5 84q0 38 20.5 85.5t51.5 78.5q82 85 238 85q113 0 172 -52q54 -47 54 -118q0 -19 -8 -56zM547 791h-95l-64 148h63l56 -98l104 98h64z" />
    <glyph glyph-name="Scedilla" unicode="&#x15e;" horiz-adv-x="667" 
d="M338 -22l-18 -34q13 2 21 2q28 0 47.5 -15t19.5 -36q0 -47 -41 -78t-104 -31q-50 0 -118 34l28 38q55 -29 94 -29q28 0 45.5 15.5t17.5 39.5q0 9 -9.5 15.5t-21.5 6.5q-5 0 -20 -3l-7 -1l-13 6l37 70q-86 11 -127 37q-80 53 -80 154q0 30 9 63h87q-4 -25 -4 -41
q0 -68 40 -100.5t125 -32.5q118 0 180 56q47 44 47 95q0 36 -26.5 59.5t-86.5 40.5l-171 48q-50 14 -80.5 51t-30.5 84q0 38 20.5 85.5t51.5 78.5q82 85 238 85q113 0 172 -52q54 -47 54 -118q0 -19 -8 -56h-88q4 27 4 36q0 49 -32 78q-34 31 -120 31q-97 0 -152 -49
q-44 -41 -44 -93q0 -33 21.5 -51t79.5 -35l172 -49q67 -19 98 -68q24 -38 24 -78q0 -54 -35.5 -112t-88.5 -93q-84 -54 -207 -54z" />
    <glyph glyph-name="Tcaron" unicode="&#x164;" horiz-adv-x="611" 
d="M493 647l-138 -647h-94l138 647h-241l17 82h573l-17 -82h-238zM524 791h-95l-64 148h63l56 -98l104 98h64z" />
    <glyph glyph-name="Udieresis" unicode="&#xdc;" horiz-adv-x="722" 
d="M532 914l-23 -103h-103l22 103h104zM693 914l-23 -103h-103l22 103h104zM706 729h94l-109 -512q-23 -109 -112.5 -174.5t-215.5 -65.5q-120 0 -184 58q-24 22 -39.5 55.5t-15.5 64.5q0 28 14 96l102 478h94l-109 -512q-5 -25 -5 -43q0 -52 44.5 -84t116.5 -32
q85 0 142.5 42.5t73.5 116.5z" />
    <glyph glyph-name="Uacute" unicode="&#xda;" horiz-adv-x="722" 
d="M591 939h112l-180 -148h-60zM706 729h94l-109 -512q-23 -109 -112.5 -174.5t-215.5 -65.5q-120 0 -184 58q-24 22 -39.5 55.5t-15.5 64.5q0 28 14 96l102 478h94l-109 -512q-5 -25 -5 -43q0 -52 44.5 -84t116.5 -32q85 0 142.5 42.5t73.5 116.5z" />
    <glyph glyph-name="Ugrave" unicode="&#xd9;" horiz-adv-x="722" 
d="M514 939l72 -148h-54l-124 148h106zM706 729h94l-109 -512q-23 -109 -112.5 -174.5t-215.5 -65.5q-120 0 -184 58q-24 22 -39.5 55.5t-15.5 64.5q0 28 14 96l102 478h94l-109 -512q-5 -25 -5 -43q0 -52 44.5 -84t116.5 -32q85 0 142.5 42.5t73.5 116.5z" />
    <glyph glyph-name="Ucircumflex" unicode="&#xdb;" horiz-adv-x="722" 
d="M517 940h94l65 -150h-64l-56 99l-103 -99h-64zM706 729h94l-109 -512q-23 -109 -112.5 -174.5t-215.5 -65.5q-120 0 -184 58q-24 22 -39.5 55.5t-15.5 64.5q0 28 14 96l102 478h94l-109 -512q-5 -25 -5 -43q0 -52 44.5 -84t116.5 -32q85 0 142.5 42.5t73.5 116.5z" />
    <glyph glyph-name="Uring" unicode="&#x16e;" horiz-adv-x="722" 
d="M706 729h94l-109 -512q-23 -109 -112.5 -174.5t-215.5 -65.5q-120 0 -184 58q-24 22 -39.5 55.5t-15.5 64.5q0 28 14 96l102 478h94l-109 -512q-5 -25 -5 -43q0 -52 44.5 -84t116.5 -32q85 0 142.5 42.5t73.5 116.5zM567 953q31 0 51.5 -19t20.5 -48q0 -42 -33 -75
t-76 -33q-30 0 -50.5 20.5t-20.5 49.5q0 40 33.5 72.5t74.5 32.5zM560 909q-21 0 -38 -16t-17 -36q0 -16 10 -25.5t25 -9.5q20 0 37 16t17 36q0 15 -10 25t-24 10z" />
    <glyph glyph-name="Uhungarumlaut" unicode="&#x170;" horiz-adv-x="722" 
d="M706 729h94l-109 -512q-23 -109 -112.5 -174.5t-215.5 -65.5q-120 0 -184 58q-24 22 -39.5 55.5t-15.5 64.5q0 28 14 96l102 478h94l-109 -512q-5 -25 -5 -43q0 -52 44.5 -84t116.5 -32q85 0 142.5 42.5t73.5 116.5zM520 939h112l-180 -150h-60zM694 939h112l-180 -150
h-60z" />
    <glyph glyph-name="Yacute" unicode="&#xdd;" horiz-adv-x="667" 
d="M448 286l-61 -286h-94l61 286l-186 443h112l136 -357l289 357h111zM564 939h112l-180 -148h-60z" />
    <glyph glyph-name="Zacute" unicode="&#x179;" horiz-adv-x="611" 
d="M737 729l-18 -84l-556 -563h438l-17 -82h-556l18 84l555 563h-406l17 82h525zM552 939h112l-180 -148h-60z" />
    <glyph glyph-name="Zcaron" unicode="&#x17d;" horiz-adv-x="611" 
d="M737 729l-18 -84l-556 -563h438l-17 -82h-556l18 84l555 563h-406l17 82h525zM531 791h-95l-64 148h63l56 -98l104 98h64z" />
    <glyph glyph-name="Zdotaccent" unicode="&#x17b;" horiz-adv-x="611" 
d="M737 729l-18 -84l-556 -563h438l-17 -82h-556l18 84l555 563h-406l17 82h525zM562 914l-22 -103h-104l22 103h104z" />
    <glyph glyph-name="Amacron" unicode="&#x100;" horiz-adv-x="667" 
d="M524 219h-285l-123 -219h-99l415 729h120l101 -729h-102zM514 297l-40 333l-191 -333h231zM663 895l-15 -69h-275l15 69h275z" />
    <glyph glyph-name="Tcommaaccent" unicode="&#x162;" horiz-adv-x="611" 
d="M493 647l-138 -647h-94l138 647h-241l17 82h573l-17 -82h-238zM244 -60h100l-19 -93q-14 -62 -48 -96.5t-81 -34.5l8 38q58 0 74 88h-55z" />
    <glyph glyph-name="Ydieresis" unicode="&#x178;" horiz-adv-x="667" 
d="M448 286l-61 -286h-94l61 286l-186 443h112l136 -357l289 357h111zM504 914l-22 -103h-104l22 103h104zM665 914l-22 -103h-104l22 103h104z" />
    <glyph glyph-name="Emacron" unicode="&#x112;" horiz-adv-x="667" 
d="M255 332l-54 -250h429l-17 -82h-523l155 729h506l-17 -82h-412l-50 -233h396l-18 -82h-395zM667 895l-15 -69h-275l15 69h275z" />
    <glyph glyph-name="Imacron" unicode="&#x12a;" horiz-adv-x="278" 
d="M349 729l-155 -729h-94l155 729h94zM458 895l-15 -69h-248l16 69h247z" />
    <glyph glyph-name="Iogonek" unicode="&#x12e;" horiz-adv-x="278" 
d="M349 729l-155 -729q-10 -8 -16 -12q-75 -58 -75 -103q0 -20 16.5 -32t43.5 -12q18 0 46 9l-9 -45q-30 -10 -57 -10q-50 0 -82.5 21t-32.5 55q0 45 57 94q25 21 50 35h-35l155 729h94z" />
    <glyph glyph-name="Kcommaaccent" unicode="&#x136;" horiz-adv-x="667" 
d="M226 249l-53 -249h-94l155 729h94l-79 -373l444 373h120l-361 -298l206 -431h-110l-168 376zM286 -60h100l-19 -93q-14 -62 -48 -96.5t-81 -34.5l8 38q58 0 74 88h-55z" />
    <glyph glyph-name="Lcommaaccent" unicode="&#x13b;" 
d="M329 729l-138 -647h360l-17 -82h-454l155 729h94zM244 -60h100l-19 -93q-14 -62 -48 -96.5t-81 -34.5l8 38q58 0 74 88h-55z" />
    <glyph glyph-name="Ncommaaccent" unicode="&#x145;" horiz-adv-x="722" 
d="M801 729l-155 -729h-106l-249 591l-126 -591h-89l155 729h104l250 -598l127 598h89zM282 -60h100l-19 -93q-14 -62 -48 -96.5t-81 -34.5l8 38q58 0 74 88h-55z" />
    <glyph glyph-name="Omacron" unicode="&#x14c;" horiz-adv-x="778" 
d="M537 741q142 0 219 -77q33 -34 52.5 -87.5t19.5 -112.5q0 -119 -52.5 -231t-140.5 -179q-100 -77 -244 -77q-64 0 -121 20.5t-93 56.5q-73 73 -73 209q0 95 37.5 188.5t104.5 162.5q121 127 291 127zM525 660q-70 0 -133.5 -33.5t-107.5 -93.5q-84 -116 -84 -262
q0 -89 41 -141q26 -33 70 -52.5t93 -19.5q73 0 136 33t107 94q40 54 62.5 123.5t22.5 137.5q0 89 -41 142q-26 33 -70.5 52.5t-95.5 19.5zM713 895l-15 -69h-275l15 69h275z" />
    <glyph glyph-name="Rcommaaccent" unicode="&#x156;" horiz-adv-x="722" 
d="M254 314l-67 -314h-94l155 729h336q96 0 141 -37.5t45 -116.5q0 -47 -18.5 -92.5t-48.5 -73.5q-24 -21 -73 -49q35 -23 47.5 -43t12.5 -53q0 -28 -21 -138q-6 -32 -6 -50q0 -34 21 -53l-5 -23h-113q-4 28 -4 47q0 24 3 40.5t21 91.5q8 35 8 60q0 75 -101 75h-239z
M271 396h231q92 0 135 53q37 47 37 109q0 38 -21 61q-25 28 -98 28h-230zM310 -60h100l-19 -93q-14 -62 -48 -96.5t-81 -34.5l8 38q58 0 74 88h-55z" />
    <glyph glyph-name="Gcommaaccent" unicode="&#x122;" horiz-adv-x="778" 
d="M793 385l-83 -389h-59l-4 90q-49 -41 -81 -60q-85 -49 -188 -49q-108 0 -179 59q-42 34 -66 94t-24 131q0 97 41 193.5t113 168.5q118 118 292 118q118 0 186 -58t68 -158v-6v-4v-7h-91q-1 63 -37 99q-50 53 -144 53q-150 0 -244 -122q-40 -53 -64 -124t-24 -137
q0 -89 37 -145q23 -34 68 -54t101 -20q101 0 181 65q74 61 95 154l6 26h-222l18 82h304zM331 -60h100l-19 -93q-14 -62 -48 -96.5t-81 -34.5l8 38q58 0 74 88h-55z" />
    <glyph glyph-name="Umacron" unicode="&#x16a;" horiz-adv-x="722" 
d="M706 729h94l-109 -512q-23 -109 -112.5 -174.5t-215.5 -65.5q-120 0 -184 58q-24 22 -39.5 55.5t-15.5 64.5q0 28 14 96l102 478h94l-109 -512q-5 -25 -5 -43q0 -52 44.5 -84t116.5 -32q85 0 142.5 42.5t73.5 116.5zM692 895l-15 -69h-274l15 69h274z" />
    <glyph glyph-name="Uogonek" unicode="&#x172;" horiz-adv-x="722" 
d="M568 -150l-9 -45q-27 -10 -72 -10q-63 0 -97 20t-34 58q0 65 97 114q-47 -10 -87 -10q-123 0 -187 58q-24 22 -39.5 55.5t-15.5 64.5q0 30 14 96l102 478h94l-109 -512q-5 -27 -5 -44q0 -52 44.5 -83.5t116.5 -31.5q85 0 142.5 42.5t73.5 116.5l109 512h94l-109 -512
q-17 -72 -56 -121t-121 -102q-38 -26 -60.5 -56t-22.5 -54q0 -20 18 -32t48 -12q39 0 71 10z" />
    <glyph glyph-name="adieresis" unicode="&#xe4;" 
d="M552 51l-13 -65q-12 -2 -14 -3q-25 -6 -39 -6q-36 0 -56 17.5t-20 48.5v4v7q-50 -44 -88 -57q-55 -20 -113 -20q-67 0 -105.5 34t-38.5 94q0 92 82 144q37 23 81 33.5t144 19.5q55 5 74.5 16.5t26.5 42.5l3 18q2 16 2 19q0 28 -30.5 46t-75.5 18q-70 0 -107 -37
q-18 -18 -30 -56h-84q14 83 76.5 126.5t166.5 43.5q79 0 126.5 -31t47.5 -82q0 -10 -6 -37l-64 -301q-1 -3 -1 -10q0 -29 38 -29q8 0 17 2zM431 164l20 94q-43 -15 -146 -29q-71 -10 -103 -30q-22 -13 -35.5 -36t-13.5 -48q0 -32 23 -49t66 -17q66 0 122.5 34.5t66.5 80.5z
M403 715l-22 -103h-104l22 103h104zM564 715l-22 -103h-104l22 103h104z" />
    <glyph glyph-name="aacute" unicode="&#xe1;" 
d="M552 51l-13 -65q-12 -2 -14 -3q-25 -6 -39 -6q-36 0 -56 17.5t-20 48.5v4v7q-50 -44 -88 -57q-55 -20 -113 -20q-67 0 -105.5 34t-38.5 94q0 92 82 144q37 23 81 33.5t144 19.5q55 5 74.5 16.5t26.5 42.5l3 18q2 16 2 19q0 28 -30.5 46t-75.5 18q-70 0 -107 -37
q-18 -18 -30 -56h-84q14 83 76.5 126.5t166.5 43.5q79 0 126.5 -31t47.5 -82q0 -10 -6 -37l-64 -301q-1 -3 -1 -10q0 -29 38 -29q8 0 17 2zM431 164l20 94q-43 -15 -146 -29q-71 -10 -103 -30q-22 -13 -35.5 -36t-13.5 -48q0 -32 23 -49t66 -17q66 0 122.5 34.5t66.5 80.5z
M458 740h112l-180 -148h-60z" />
    <glyph glyph-name="agrave" unicode="&#xe0;" 
d="M552 51l-13 -65q-12 -2 -14 -3q-25 -6 -39 -6q-36 0 -56 17.5t-20 48.5v4v7q-50 -44 -88 -57q-55 -20 -113 -20q-67 0 -105.5 34t-38.5 94q0 92 82 144q37 23 81 33.5t144 19.5q55 5 74.5 16.5t26.5 42.5l3 18q2 16 2 19q0 28 -30.5 46t-75.5 18q-70 0 -107 -37
q-18 -18 -30 -56h-84q14 83 76.5 126.5t166.5 43.5q79 0 126.5 -31t47.5 -82q0 -10 -6 -37l-64 -301q-1 -3 -1 -10q0 -29 38 -29q8 0 17 2zM431 164l20 94q-43 -15 -146 -29q-71 -10 -103 -30q-22 -13 -35.5 -36t-13.5 -48q0 -32 23 -49t66 -17q66 0 122.5 34.5t66.5 80.5z
M391 740l72 -148h-53l-125 148h106z" />
    <glyph glyph-name="acircumflex" unicode="&#xe2;" 
d="M552 51l-13 -65q-12 -2 -14 -3q-25 -6 -39 -6q-36 0 -56 17.5t-20 48.5v4v7q-50 -44 -88 -57q-55 -20 -113 -20q-67 0 -105.5 34t-38.5 94q0 92 82 144q37 23 81 33.5t144 19.5q55 5 74.5 16.5t26.5 42.5l3 18q2 16 2 19q0 28 -30.5 46t-75.5 18q-70 0 -107 -37
q-18 -18 -30 -56h-84q14 83 76.5 126.5t166.5 43.5q79 0 126.5 -31t47.5 -82q0 -10 -6 -37l-64 -301q-1 -3 -1 -10q0 -29 38 -29q8 0 17 2zM431 164l20 94q-43 -15 -146 -29q-71 -10 -103 -30q-22 -13 -35.5 -36t-13.5 -48q0 -32 23 -49t66 -17q66 0 122.5 34.5t66.5 80.5z
M393 741h95l64 -150h-63l-56 99l-104 -99h-64z" />
    <glyph glyph-name="abreve" unicode="&#x103;" 
d="M552 51l-13 -65q-12 -2 -14 -3q-25 -6 -39 -6q-36 0 -56 17.5t-20 48.5v4v7q-50 -44 -88 -57q-55 -20 -113 -20q-67 0 -105.5 34t-38.5 94q0 92 82 144q37 23 81 33.5t144 19.5q55 5 74.5 16.5t26.5 42.5l3 18q2 16 2 19q0 28 -30.5 46t-75.5 18q-70 0 -107 -37
q-18 -18 -30 -56h-84q14 83 76.5 126.5t166.5 43.5q79 0 126.5 -31t47.5 -82q0 -10 -6 -37l-64 -301q-1 -3 -1 -10q0 -29 38 -29q8 0 17 2zM431 164l20 94q-43 -15 -146 -29q-71 -10 -103 -30q-22 -13 -35.5 -36t-13.5 -48q0 -32 23 -49t66 -17q66 0 122.5 34.5t66.5 80.5z
M281 729h53v-8v-5q0 -22 22.5 -36t59.5 -14q94 0 110 63h56q-15 -59 -46 -86q-54 -49 -133 -49q-56 0 -91.5 27.5t-35.5 71.5q0 12 5 36z" />
    <glyph glyph-name="atilde" unicode="&#xe3;" 
d="M552 51l-13 -65q-12 -2 -14 -3q-25 -6 -39 -6q-36 0 -56 17.5t-20 48.5v4v7q-50 -44 -88 -57q-55 -20 -113 -20q-67 0 -105.5 34t-38.5 94q0 92 82 144q37 23 81 33.5t144 19.5q55 5 74.5 16.5t26.5 42.5l3 18q2 16 2 19q0 28 -30.5 46t-75.5 18q-70 0 -107 -37
q-18 -18 -30 -56h-84q14 83 76.5 126.5t166.5 43.5q79 0 126.5 -31t47.5 -82q0 -10 -6 -37l-64 -301q-1 -3 -1 -10q0 -29 38 -29q8 0 17 2zM431 164l20 94q-43 -15 -146 -29q-71 -10 -103 -30q-22 -13 -35.5 -36t-13.5 -48q0 -32 23 -49t66 -17q66 0 122.5 34.5t66.5 80.5z
M530 719h53q-16 -49 -45 -78t-63 -29q-27 0 -103 26q-16 6 -27 6q-27 0 -43 -24q-1 -1 -7 -9h-53q16 47 32 67q12 16 32.5 26t39.5 10q22 0 73 -17q43 -15 63 -15q15 0 24.5 7.5t23.5 29.5z" />
    <glyph glyph-name="aring" unicode="&#xe5;" 
d="M552 51l-13 -65q-12 -2 -14 -3q-25 -6 -39 -6q-36 0 -56 17.5t-20 48.5v4v7q-50 -44 -88 -57q-55 -20 -113 -20q-67 0 -105.5 34t-38.5 94q0 92 82 144q37 23 81 33.5t144 19.5q55 5 74.5 16.5t26.5 42.5l3 18q2 16 2 19q0 28 -30.5 46t-75.5 18q-70 0 -107 -37
q-18 -18 -30 -56h-84q14 83 76.5 126.5t166.5 43.5q79 0 126.5 -31t47.5 -82q0 -10 -6 -37l-64 -301q-1 -3 -1 -10q0 -29 38 -29q8 0 17 2zM431 164l20 94q-43 -15 -146 -29q-71 -10 -103 -30q-22 -13 -35.5 -36t-13.5 -48q0 -32 23 -49t66 -17q66 0 122.5 34.5t66.5 80.5z
M441 754q31 0 51.5 -19t20.5 -48q0 -42 -33 -75t-76 -33q-30 0 -50.5 20.5t-20.5 49.5q0 40 33.5 72.5t74.5 32.5zM434 710q-21 0 -38 -16t-17 -36q0 -16 10 -25.5t25 -9.5q20 0 37 16.5t17 35.5q0 15 -10 25t-24 10z" />
    <glyph glyph-name="aogonek" unicode="&#x105;" 
d="M552 51l-13 -65q-41 -10 -72.5 -40.5t-31.5 -61.5q0 -20 18.5 -32t49.5 -12q39 0 68 10l-9 -45q-44 -10 -72 -10q-62 0 -96 20t-34 57q0 34 21 57.5t74 51.5q-45 14 -45 62v4v7q-50 -44 -88 -57q-55 -20 -113 -20q-67 0 -105.5 34t-38.5 94q0 92 82 144q37 23 81 33.5
t144 19.5q55 5 74.5 16.5t26.5 42.5l3 18q2 16 2 19q0 28 -30.5 46t-75.5 18q-70 0 -107 -37q-18 -18 -30 -56h-84q14 83 76.5 126.5t166.5 43.5q79 0 126.5 -31t47.5 -82q0 -10 -6 -37l-64 -301q-1 -3 -1 -10q0 -29 38 -29q8 0 17 2zM431 164l20 94q-43 -15 -146 -29
q-71 -10 -103 -30q-22 -13 -35.5 -36t-13.5 -48q0 -32 23 -49t66 -17q66 0 122.5 34.5t66.5 80.5z" />
    <glyph glyph-name="cacute" unicode="&#x107;" horiz-adv-x="500" 
d="M551 348h-84q1 9 1 22q0 43 -27.5 67.5t-74.5 24.5q-92 0 -148 -89q-54 -85 -54 -192q0 -58 30.5 -92.5t82.5 -34.5q111 0 157 126h84q-23 -79 -58 -120q-71 -83 -197 -83q-94 0 -143 62q-44 55 -44 131q0 69 23 142.5t58 119.5q82 107 224 107q83 0 129 -47
q44 -46 44 -100q0 -1 -0.5 -5t-1 -11t-0.5 -13zM463 740h112l-180 -148h-60z" />
    <glyph glyph-name="ccaron" unicode="&#x10d;" horiz-adv-x="500" 
d="M551 348h-84q1 9 1 22q0 43 -27.5 67.5t-74.5 24.5q-92 0 -148 -89q-54 -85 -54 -192q0 -58 30.5 -92.5t82.5 -34.5q111 0 157 126h84q-23 -79 -58 -120q-71 -83 -197 -83q-94 0 -143 62q-44 55 -44 131q0 69 23 142.5t58 119.5q82 107 224 107q83 0 129 -47
q44 -46 44 -100q0 -1 -0.5 -5t-1 -11t-0.5 -13zM435 592h-95l-64 148h63l56 -98l104 98h64z" />
    <glyph glyph-name="ccedilla" unicode="&#xe7;" horiz-adv-x="500" 
d="M271 -23l-18 -33q13 2 21 2q28 0 47.5 -15t19.5 -36q0 -47 -41 -78t-104 -31q-51 0 -118 34l28 38q57 -29 94 -29q28 0 45.5 15.5t17.5 39.5q0 9 -9.5 15.5t-21.5 6.5q-5 0 -20 -3l-7 -1l-13 6l38 70q-35 7 -54 15.5t-37 25.5q-63 58 -63 151q0 69 23 142.5t58 119.5
q82 107 224 107q83 0 129 -47q44 -46 44 -99q0 -1 -0.5 -5t-1 -11.5t-0.5 -13.5l-1 -15h-84q1 9 1 22q0 43 -27.5 67.5t-74.5 24.5q-92 0 -148 -89q-54 -85 -54 -192q0 -58 30.5 -92.5t82.5 -34.5q111 0 157 126h84q-24 -97 -87 -148.5t-160 -54.5z" />
    <glyph glyph-name="dcaron" unicode="&#x10f;" horiz-adv-x="650" 
d="M650 729l-155 -729h-81l16 76q-19 -38 -57 -61q-63 -38 -129 -38q-78 0 -124.5 52.5t-46.5 140.5q0 158 83 263.5t207 105.5q53 0 86 -21t57 -70l60 281h84zM355 462q-94 0 -150 -101q-44 -83 -44 -171q0 -65 31 -100.5t86 -35.5q90 0 149 101q46 80 46 172
q0 64 -31 99.5t-87 35.5zM710 729h100l-19 -93q-14 -62 -48 -96.5t-81 -34.5l8 38q58 0 74 88h-55z" />
    <glyph glyph-name="edieresis" unicode="&#xeb;" 
d="M563 234h-386q-5 -19 -5 -46q0 -64 32.5 -99t91.5 -35q101 0 156 105h84q-23 -81 -93.5 -131.5t-160.5 -50.5q-85 0 -136 50q-62 59 -62 146q0 61 24.5 136t59.5 122q37 50 96.5 79t124.5 29q81 0 136 -49.5t55 -121.5q0 -42 -14 -117zM195 306h294q3 24 3 33
q0 56 -31.5 89.5t-84.5 33.5q-61 0 -111 -43.5t-70 -112.5zM400 715l-22 -103h-104l22 103h104zM561 715l-22 -103h-104l22 103h104z" />
    <glyph glyph-name="eacute" unicode="&#xe9;" 
d="M563 234h-386q-5 -19 -5 -46q0 -64 32.5 -99t91.5 -35q101 0 156 105h84q-23 -81 -93.5 -131.5t-160.5 -50.5q-85 0 -136 50q-62 59 -62 146q0 61 24.5 136t59.5 122q37 50 96.5 79t124.5 29q81 0 136 -49.5t55 -121.5q0 -42 -14 -117zM195 306h294q3 24 3 33
q0 56 -31.5 89.5t-84.5 33.5q-61 0 -111 -43.5t-70 -112.5zM468 740h112l-180 -148h-60z" />
    <glyph glyph-name="egrave" unicode="&#xe8;" 
d="M563 234h-386q-5 -19 -5 -46q0 -64 32.5 -99t91.5 -35q101 0 156 105h84q-23 -81 -93.5 -131.5t-160.5 -50.5q-85 0 -136 50q-62 59 -62 146q0 61 24.5 136t59.5 122q37 50 96.5 79t124.5 29q81 0 136 -49.5t55 -121.5q0 -42 -14 -117zM195 306h294q3 24 3 33
q0 56 -31.5 89.5t-84.5 33.5q-61 0 -111 -43.5t-70 -112.5zM384 740l72 -148h-53l-125 148h106z" />
    <glyph glyph-name="ecircumflex" unicode="&#xea;" 
d="M563 234h-386q-5 -19 -5 -46q0 -64 32.5 -99t91.5 -35q101 0 156 105h84q-23 -81 -93.5 -131.5t-160.5 -50.5q-85 0 -136 50q-62 59 -62 146q0 61 24.5 136t59.5 122q37 50 96.5 79t124.5 29q81 0 136 -49.5t55 -121.5q0 -42 -14 -117zM195 306h294q3 24 3 33
q0 56 -31.5 89.5t-84.5 33.5q-61 0 -111 -43.5t-70 -112.5zM389 741h95l64 -150h-63l-56 99l-104 -99h-64z" />
    <glyph glyph-name="ecaron" unicode="&#x11b;" 
d="M563 234h-386q-5 -19 -5 -46q0 -64 32.5 -99t91.5 -35q101 0 156 105h84q-23 -81 -93.5 -131.5t-160.5 -50.5q-85 0 -136 50q-62 59 -62 146q0 61 24.5 136t59.5 122q37 50 96.5 79t124.5 29q81 0 136 -49.5t55 -121.5q0 -42 -14 -117zM195 306h294q3 24 3 33
q0 56 -31.5 89.5t-84.5 33.5q-61 0 -111 -43.5t-70 -112.5zM450 592h-95l-64 148h63l56 -98l104 98h64z" />
    <glyph glyph-name="edotaccent" unicode="&#x117;" 
d="M563 234h-386q-5 -19 -5 -46q0 -64 32.5 -99t91.5 -35q101 0 156 105h84q-23 -81 -93.5 -131.5t-160.5 -50.5q-85 0 -136 50q-62 59 -62 146q0 61 24.5 136t59.5 122q37 50 96.5 79t124.5 29q81 0 136 -49.5t55 -121.5q0 -42 -14 -117zM195 306h294q3 24 3 33
q0 56 -31.5 89.5t-84.5 33.5q-61 0 -111 -43.5t-70 -112.5zM482 715l-22 -103h-104l22 103h104z" />
    <glyph glyph-name="eogonek" unicode="&#x119;" 
d="M464 -150l-9 -45q-30 -10 -68 -10q-62 0 -98 19q-36 18 -36 59q0 31 20.5 55.5t72.5 55.5q-37 -7 -66 -7q-83 0 -134 50q-62 59 -62 146q0 61 24.5 136t59.5 122q37 50 96.5 79t124.5 29q81 0 136 -49.5t55 -121.5q0 -42 -14 -117l-3 -17h-386q-5 -19 -5 -46
q0 -64 32.5 -99t91.5 -35q101 0 156 105h84q-22 -83 -141 -173q-31 -24 -49.5 -51.5t-18.5 -48.5q0 -20 19 -33t48 -13q40 0 70 10zM195 306h294q3 24 3 33q0 56 -31.5 89.5t-84.5 33.5q-61 0 -111 -43.5t-70 -112.5z" />
    <glyph glyph-name="gbreve" unicode="&#x11f;" 
d="M525 524h76l-93 -439q-20 -95 -43 -147.5t-61 -88.5q-70 -67 -195 -67q-80 0 -128.5 34.5t-48.5 92.5q0 10 1 18l1 13h84v-8v-6q0 -34 28.5 -53t79.5 -19q80 0 123.5 44t65.5 146l4 19q-75 -80 -172 -80q-76 0 -124.5 51.5t-48.5 133.5q0 69 25.5 145t65.5 126
q37 46 91.5 73t112.5 27q51 0 92 -30q27 -20 47 -63zM363 462q-47 0 -87.5 -26.5t-67.5 -75.5q-46 -82 -46 -176q0 -59 29.5 -94t79.5 -35q45 0 86 26.5t66 72.5q46 80 46 185q0 56 -29 89.5t-77 33.5zM288 729h53v-8v-5q0 -22 22.5 -36t59.5 -14q94 0 110 63h56
q-15 -59 -46 -86q-54 -49 -133 -49q-56 0 -91.5 27.5t-35.5 71.5q0 12 5 36z" />
    <glyph glyph-name="idieresis" unicode="&#xef;" horiz-adv-x="278" 
d="M290 527l-112 -527h-84l112 527h84zM258 708l-22 -103h-104l22 103h104zM419 708l-22 -103h-104l22 103h104z" />
    <glyph glyph-name="iacute" unicode="&#xed;" horiz-adv-x="278" 
d="M290 527l-112 -527h-84l112 527h84zM319 740h112l-180 -148h-60z" />
    <glyph glyph-name="igrave" unicode="&#xec;" horiz-adv-x="278" 
d="M290 527l-112 -527h-84l112 527h84zM258 740l72 -148h-53l-125 148h106z" />
    <glyph glyph-name="icircumflex" unicode="&#xee;" horiz-adv-x="278" 
d="M290 527l-112 -527h-84l112 527h84zM247 741h95l64 -150h-63l-56 99l-104 -99h-64z" />
    <glyph glyph-name="lacute" unicode="&#x13a;" horiz-adv-x="222" 
d="M307 729l-155 -729h-84l155 729h84zM351 939h112l-180 -148h-60z" />
    <glyph glyph-name="lcaron" unicode="&#x13e;" horiz-adv-x="307" 
d="M307 729l-155 -729h-84l155 729h84zM367 729h100l-19 -93q-14 -62 -48 -96.5t-81 -34.5l8 38q58 0 74 88h-55z" />
    <glyph glyph-name="nacute" unicode="&#x144;" 
d="M181 524h76l-13 -65q78 80 194 80q62 0 99 -34t37 -91q0 -21 -4 -38l-80 -376h-84l74 349q6 24 6 37q0 35 -25 58t-62 23q-67 0 -116.5 -47.5t-67.5 -130.5l-61 -289h-84zM468 740h112l-180 -148h-60z" />
    <glyph glyph-name="ncaron" unicode="&#x148;" 
d="M181 524h76l-13 -65q78 80 194 80q62 0 99 -34t37 -91q0 -21 -4 -38l-80 -376h-84l74 349q6 24 6 37q0 35 -25 58t-62 23q-67 0 -116.5 -47.5t-67.5 -130.5l-61 -289h-84zM450 592h-95l-64 148h63l56 -98l104 98h64z" />
    <glyph glyph-name="ntilde" unicode="&#xf1;" 
d="M181 524h76l-13 -65q78 80 194 80q62 0 99 -34t37 -91q0 -21 -4 -38l-80 -376h-84l74 349q6 24 6 37q0 35 -25 58t-62 23q-67 0 -116.5 -47.5t-67.5 -130.5l-61 -289h-84zM536 719h53q-16 -49 -45 -78t-63 -29q-27 0 -103 26q-16 6 -27 6q-27 0 -43 -24q-1 -1 -7 -9h-53
q16 47 32 67q12 16 32.5 26t39.5 10q22 0 73 -17q43 -15 63 -15q15 0 24.5 7.5t23.5 29.5z" />
    <glyph glyph-name="odieresis" unicode="&#xf6;" 
d="M384 539q87 0 137 -49q55 -53 55 -138q0 -65 -22.5 -138.5t-56.5 -120.5q-84 -116 -228 -116q-84 0 -136.5 52t-52.5 135q0 64 22 137.5t56 121.5q38 55 97 85.5t129 30.5zM371 462q-102 0 -159 -105q-44 -81 -44 -173q0 -60 31 -95t84 -35q103 0 161 105q44 81 44 174
q0 61 -31 95t-86 34zM395 715l-22 -103h-104l22 103h104zM556 715l-22 -103h-104l22 103h104z" />
    <glyph glyph-name="oacute" unicode="&#xf3;" 
d="M384 539q87 0 137 -49q55 -53 55 -138q0 -65 -22.5 -138.5t-56.5 -120.5q-84 -116 -228 -116q-84 0 -136.5 52t-52.5 135q0 64 22 137.5t56 121.5q38 55 97 85.5t129 30.5zM371 462q-102 0 -159 -105q-44 -81 -44 -173q0 -60 31 -95t84 -35q103 0 161 105q44 81 44 174
q0 61 -31 95t-86 34zM464 740h112l-180 -148h-60z" />
    <glyph glyph-name="ograve" unicode="&#xf2;" 
d="M384 539q87 0 137 -49q55 -53 55 -138q0 -65 -22.5 -138.5t-56.5 -120.5q-84 -116 -228 -116q-84 0 -136.5 52t-52.5 135q0 64 22 137.5t56 121.5q38 55 97 85.5t129 30.5zM371 462q-102 0 -159 -105q-44 -81 -44 -173q0 -60 31 -95t84 -35q103 0 161 105q44 81 44 174
q0 61 -31 95t-86 34zM380 740l72 -148h-53l-125 148h106z" />
    <glyph glyph-name="ocircumflex" unicode="&#xf4;" 
d="M384 539q87 0 137 -49q55 -53 55 -138q0 -65 -22.5 -138.5t-56.5 -120.5q-84 -116 -228 -116q-84 0 -136.5 52t-52.5 135q0 64 22 137.5t56 121.5q38 55 97 85.5t129 30.5zM371 462q-102 0 -159 -105q-44 -81 -44 -173q0 -60 31 -95t84 -35q103 0 161 105q44 81 44 174
q0 61 -31 95t-86 34zM383 741h95l64 -150h-63l-56 99l-104 -99h-64z" />
    <glyph glyph-name="otilde" unicode="&#xf5;" 
d="M384 539q87 0 137 -49q55 -53 55 -138q0 -65 -22.5 -138.5t-56.5 -120.5q-84 -116 -228 -116q-84 0 -136.5 52t-52.5 135q0 64 22 137.5t56 121.5q38 55 97 85.5t129 30.5zM371 462q-102 0 -159 -105q-44 -81 -44 -173q0 -60 31 -95t84 -35q103 0 161 105q44 81 44 174
q0 61 -31 95t-86 34zM530 719h53q-16 -49 -45 -78t-63 -29q-27 0 -103 26q-16 6 -27 6q-27 0 -43 -24q-1 -1 -7 -9h-53q16 47 32 67q12 16 32.5 26t39.5 10q22 0 73 -17q43 -15 63 -15q15 0 24.5 7.5t23.5 29.5z" />
    <glyph glyph-name="ohungarumlaut" unicode="&#x151;" 
d="M384 539q87 0 137 -49q55 -53 55 -138q0 -65 -22.5 -138.5t-56.5 -120.5q-84 -116 -228 -116q-84 0 -136.5 52t-52.5 135q0 64 22 137.5t56 121.5q38 55 97 85.5t129 30.5zM371 462q-102 0 -159 -105q-44 -81 -44 -173q0 -60 31 -95t84 -35q103 0 161 105q44 81 44 174
q0 61 -31 95t-86 34zM397 740h112l-180 -150h-60zM571 740h112l-180 -150h-60z" />
    <glyph glyph-name="racute" unicode="&#x155;" horiz-adv-x="333" 
d="M180 524h76l-17 -82q46 53 83.5 75t81.5 22q12 0 32 -3l-18 -85q-168 6 -207 -179l-58 -272h-84zM386 740h112l-180 -148h-60z" />
    <glyph glyph-name="sacute" unicode="&#x15b;" horiz-adv-x="500" 
d="M514 378h-84q1 8 1 22q0 29 -24 45.5t-68 16.5q-64 0 -98 -33q-30 -28 -30 -62q0 -39 85 -60l76 -19q66 -16 93.5 -42.5t27.5 -72.5q0 -89 -67 -142.5t-179 -53.5q-87 0 -136.5 34t-49.5 94q0 23 6 51h89q-2 -20 -2 -25q0 -37 28 -57t80 -20q71 0 111 34q12 10 22 29
t10 33q0 16 -13 33q-11 13 -57 26l-74 19q-77 20 -107.5 45.5t-30.5 71.5q0 35 16.5 71.5t43.5 62.5q63 60 173 60q73 0 118.5 -33t45.5 -85q0 -18 -6 -43zM433 740h112l-180 -148h-60z" />
    <glyph glyph-name="scaron" unicode="&#x161;" horiz-adv-x="500" 
d="M514 378h-84q1 8 1 22q0 29 -24 45.5t-68 16.5q-64 0 -98 -33q-30 -28 -30 -62q0 -39 85 -60l76 -19q66 -16 93.5 -42.5t27.5 -72.5q0 -89 -67 -142.5t-179 -53.5q-87 0 -136.5 34t-49.5 94q0 23 6 51h89q-2 -20 -2 -25q0 -37 28 -57t80 -20q71 0 111 34q12 10 22 29
t10 33q0 16 -13 33q-11 13 -57 26l-74 19q-77 20 -107.5 45.5t-30.5 71.5q0 35 16.5 71.5t43.5 62.5q63 60 173 60q73 0 118.5 -33t45.5 -85q0 -18 -6 -43zM419 592h-95l-64 148h63l56 -98l104 98h64z" />
    <glyph glyph-name="scommaaccent" unicode="&#x219;" horiz-adv-x="500" 
d="M514 378h-84q1 8 1 22q0 29 -24 45.5t-68 16.5q-64 0 -98 -33q-30 -28 -30 -62q0 -39 85 -60l76 -19q66 -16 93.5 -42.5t27.5 -72.5q0 -89 -67 -142.5t-179 -53.5q-87 0 -136.5 34t-49.5 94q0 23 6 51h89q-2 -20 -2 -25q0 -37 28 -57t80 -20q71 0 111 34q12 10 22 29
t10 33q0 16 -13 33q-11 13 -57 26l-74 19q-77 20 -107.5 45.5t-30.5 71.5q0 35 16.5 71.5t43.5 62.5q63 60 173 60q73 0 118.5 -33t45.5 -85q0 -18 -6 -43zM191 -60h100l-19 -93q-14 -62 -48 -96.5t-81 -34.5l8 38q58 0 74 88h-55z" />
    <glyph glyph-name="tcaron" unicode="&#x165;" horiz-adv-x="319" 
d="M366 524l-14 -67h-89l-78 -367q-2 -12 -2 -14q0 -12 10 -19.5t26 -7.5q13 0 48 8l-16 -73q-25 -7 -65 -7q-41 0 -65 21t-24 58q0 16 3 31l79 370h-71l14 67h71l31 144h84l-31 -144h89zM392 801h100l-19 -93q-14 -62 -48 -96.5t-81 -34.5l8 38q58 0 74 88h-55z" />
    <glyph glyph-name="udieresis" unicode="&#xfc;" 
d="M483 0h-76l12 57q-83 -80 -193 -80q-65 0 -101.5 29t-36.5 80q0 19 3 34l86 404h84l-79 -371q-3 -15 -3 -27q0 -35 24 -56t65 -21q64 0 113 48.5t66 129.5l63 297h84zM394 715l-22 -103h-104l22 103h104zM555 715l-22 -103h-104l22 103h104z" />
    <glyph glyph-name="uacute" unicode="&#xfa;" 
d="M483 0h-76l12 57q-83 -80 -193 -80q-65 0 -101.5 29t-36.5 80q0 19 3 34l86 404h84l-79 -371q-3 -15 -3 -27q0 -35 24 -56t65 -21q64 0 113 48.5t66 129.5l63 297h84zM463 740h112l-180 -148h-60z" />
    <glyph glyph-name="ugrave" unicode="&#xf9;" 
d="M483 0h-76l12 57q-83 -80 -193 -80q-65 0 -101.5 29t-36.5 80q0 19 3 34l86 404h84l-79 -371q-3 -15 -3 -27q0 -35 24 -56t65 -21q64 0 113 48.5t66 129.5l63 297h84zM376 740l72 -148h-53l-125 148h106z" />
    <glyph glyph-name="ucircumflex" unicode="&#xfb;" 
d="M483 0h-76l12 57q-83 -80 -193 -80q-65 0 -101.5 29t-36.5 80q0 19 3 34l86 404h84l-79 -371q-3 -15 -3 -27q0 -35 24 -56t65 -21q64 0 113 48.5t66 129.5l63 297h84zM380 741h95l64 -150h-63l-56 99l-104 -99h-64z" />
    <glyph glyph-name="uring" unicode="&#x16f;" 
d="M483 0h-76l12 57q-83 -80 -193 -80q-65 0 -101.5 29t-36.5 80q0 19 3 34l86 404h84l-79 -371q-3 -15 -3 -27q0 -35 24 -56t65 -21q64 0 113 48.5t66 129.5l63 297h84zM432 754q31 0 51.5 -19t20.5 -48q0 -42 -33 -75t-76 -33q-30 0 -50.5 20.5t-20.5 49.5q0 40 33.5 72.5
t74.5 32.5zM425 710q-21 0 -38 -16t-17 -36q0 -16 10 -25.5t25 -9.5q20 0 37 16.5t17 35.5q0 15 -10 25t-24 10z" />
    <glyph glyph-name="uhungarumlaut" unicode="&#x171;" 
d="M483 0h-76l12 57q-83 -80 -193 -80q-65 0 -101.5 29t-36.5 80q0 19 3 34l86 404h84l-79 -371q-3 -15 -3 -27q0 -35 24 -56t65 -21q64 0 113 48.5t66 129.5l63 297h84zM397 740h112l-180 -150h-60zM571 740h112l-180 -150h-60z" />
    <glyph glyph-name="yacute" unicode="&#xfd;" horiz-adv-x="500" 
d="M501 524h89l-368 -634q-63 -108 -165 -108q-27 0 -49 10l16 75q36 -4 44 -4q28 0 44 10.5t36 41.5l52 81l-68 528h90l46 -407zM434 740h112l-180 -148h-60z" />
    <glyph glyph-name="zacute" unicode="&#x17a;" horiz-adv-x="500" 
d="M557 524l-18 -75l-392 -377h326l-15 -72h-427l18 74l395 378h-294l15 72h392zM440 740h112l-180 -148h-60z" />
    <glyph glyph-name="zcaron" unicode="&#x17e;" horiz-adv-x="500" 
d="M557 524l-18 -75l-392 -377h326l-15 -72h-427l18 74l395 378h-294l15 72h392zM420 592h-95l-64 148h63l56 -98l104 98h64z" />
    <glyph glyph-name="zdotaccent" unicode="&#x17c;" horiz-adv-x="500" 
d="M557 524l-18 -75l-392 -377h326l-15 -72h-427l18 74l395 378h-294l15 72h392zM450 715l-22 -103h-104l22 103h104z" />
    <glyph glyph-name="ydieresis" unicode="&#xff;" horiz-adv-x="500" 
d="M501 524h89l-368 -634q-63 -108 -165 -108q-27 0 -49 10l16 75q36 -4 44 -4q28 0 44 10.5t36 41.5l52 81l-68 528h90l46 -407zM372 715l-22 -103h-104l22 103h104zM533 715l-22 -103h-104l22 103h104z" />
    <glyph glyph-name="tcommaaccent" unicode="&#x163;" horiz-adv-x="278" 
d="M366 524l-15 -67h-88l-78 -367q-2 -10 -2 -14q0 -12 9.5 -19.5t25.5 -7.5t49 8l-16 -73q-26 -7 -65 -7q-41 0 -65 21t-24 58q0 16 3 31l79 370h-71l14 67h71l31 144h84l-31 -144h89zM103 -60h100l-19 -93q-14 -62 -48 -96.5t-81 -34.5l8 38q58 0 74 88h-55z" />
    <glyph glyph-name="amacron" unicode="&#x101;" 
d="M552 51l-13 -65q-12 -2 -14 -3q-25 -6 -39 -6q-36 0 -56 17.5t-20 48.5v4v7q-50 -44 -88 -57q-55 -20 -113 -20q-67 0 -105.5 34t-38.5 94q0 92 82 144q37 23 81 33.5t144 19.5q55 5 74.5 16.5t26.5 42.5l3 18q2 16 2 19q0 28 -30.5 46t-75.5 18q-70 0 -107 -37
q-18 -18 -30 -56h-84q14 83 76.5 126.5t166.5 43.5q79 0 126.5 -31t47.5 -82q0 -10 -6 -37l-64 -301q-1 -3 -1 -10q0 -29 38 -29q8 0 17 2zM431 164l20 94q-43 -15 -146 -29q-71 -10 -103 -30q-22 -13 -35.5 -36t-13.5 -48q0 -32 23 -49t66 -17q66 0 122.5 34.5t66.5 80.5z
M567 696l-15 -69h-275l15 69h275z" />
    <glyph glyph-name="emacron" unicode="&#x113;" 
d="M563 234h-386q-5 -19 -5 -46q0 -64 32.5 -99t91.5 -35q101 0 156 105h84q-23 -81 -93.5 -131.5t-160.5 -50.5q-85 0 -136 50q-62 59 -62 146q0 61 24.5 136t59.5 122q37 50 96.5 79t124.5 29q81 0 136 -49.5t55 -121.5q0 -42 -14 -117zM195 306h294q3 24 3 33
q0 56 -31.5 89.5t-84.5 33.5q-61 0 -111 -43.5t-70 -112.5zM563 696l-15 -69h-275l15 69h275z" />
    <glyph glyph-name="imacron" unicode="&#x12b;" horiz-adv-x="222" 
d="M261 524l-111 -524h-84l111 524h84zM373 696l-15 -69h-234l15 69h234z" />
    <glyph glyph-name="kcommaaccent" unicode="&#x137;" horiz-adv-x="500" 
d="M297 729l-90 -423l269 218h108l-222 -181l140 -343h-96l-114 291l-107 -88l-43 -203h-84l155 729h84zM207 -60h100l-19 -93q-14 -62 -48 -96.5t-81 -34.5l8 38q58 0 74 88h-55z" />
    <glyph glyph-name="lcommaaccent" unicode="&#x13c;" horiz-adv-x="222" 
d="M307 729l-155 -729h-84l155 729h84zM47 -60h100l-19 -93q-14 -62 -48 -96.5t-81 -34.5l8 38q58 0 74 88h-55z" />
    <glyph glyph-name="ncommaaccent" unicode="&#x146;" 
d="M181 524h76l-13 -65q78 80 194 80q62 0 99 -34t37 -91q0 -21 -4 -38l-80 -376h-84l74 349q6 24 6 37q0 35 -25 58t-62 23q-67 0 -116.5 -47.5t-67.5 -130.5l-61 -289h-84zM217 -60h100l-19 -93q-14 -62 -48 -96.5t-81 -34.5l8 38q58 0 74 88h-55z" />
    <glyph glyph-name="omacron" unicode="&#x14d;" 
d="M384 539q87 0 137 -49q55 -53 55 -138q0 -65 -22.5 -138.5t-56.5 -120.5q-84 -116 -228 -116q-84 0 -136.5 52t-52.5 135q0 64 22 137.5t56 121.5q38 55 97 85.5t129 30.5zM371 462q-102 0 -159 -105q-44 -81 -44 -173q0 -60 31 -95t84 -35q103 0 161 105q44 81 44 174
q0 61 -31 95t-86 34zM559 696l-15 -69h-275l15 69h275z" />
    <glyph glyph-name="rcommaaccent" unicode="&#x157;" horiz-adv-x="333" 
d="M181 524h75l-17 -82q47 53 84.5 75t80.5 22q12 0 32 -3l-18 -85h-10q-77 1 -128 -45.5t-69 -133.5l-58 -272h-84zM53 -60h100l-19 -93q-14 -62 -48 -96.5t-81 -34.5l8 38q58 0 74 88h-55z" />
    <glyph glyph-name="umacron" unicode="&#x16b;" 
d="M483 0h-76l12 57q-83 -80 -193 -80q-65 0 -101.5 29t-36.5 80q0 19 3 34l86 404h84l-79 -371q-3 -15 -3 -27q0 -35 24 -56t65 -21q64 0 113 48.5t66 129.5l63 297h84zM560 696l-15 -69h-275l15 69h275z" />
    <glyph glyph-name="uogonek" unicode="&#x173;" 
d="M594 524l-111 -524q-30 -16 -69 -53q-36 -32 -36 -62q0 -19 16 -32t39 -13q34 0 62 10l-9 -45q-30 -10 -67 -10q-53 0 -84 21t-31 57t32 69t91 58h-20l12 57q-83 -80 -193 -80q-65 0 -101.5 29t-36.5 80q0 19 3 34l86 404h84l-79 -371q-3 -15 -3 -27q0 -35 24 -56t65 -21
q64 0 113 48.5t66 129.5l63 297h84z" />
    <glyph glyph-name="rcaron" unicode="&#x159;" horiz-adv-x="333" 
d="M180 524h76l-17 -82q46 53 83.5 75t81.5 22q12 0 32 -3l-18 -85q-168 6 -207 -179l-58 -272h-84zM358 592h-95l-64 148h63l56 -98l104 98h64z" />
    <glyph glyph-name="scedilla" unicode="&#x15f;" horiz-adv-x="500" 
d="M255 -23l-18 -33q13 2 21 2q28 0 47.5 -15t19.5 -36q0 -47 -41 -78t-104 -31q-51 0 -118 34l28 38q55 -29 94 -29q28 0 45.5 15.5t17.5 39.5q0 9 -9 15.5t-22 6.5q-5 0 -20 -3l-7 -1l-13 6l38 70q-153 20 -153 127q0 17 6 51h89q-2 -20 -2 -25q0 -37 28 -57t80 -20
q72 0 112 34q12 10 22 29t10 33q0 16 -13 33q-11 14 -58 26l-74 19q-77 20 -107.5 45.5t-30.5 71.5q0 35 16.5 71.5t43.5 62.5q63 60 173 60q73 0 119 -32.5t46 -85.5q0 -14 -7 -43h-83v11v5v6q0 62 -91 62q-65 0 -99 -33q-30 -28 -30 -62q0 -39 85 -60l76 -19
q66 -16 94 -42.5t28 -72.5q0 -48 -23 -90t-62 -66q-59 -36 -154 -40z" />
    <glyph glyph-name="gcommaaccent" unicode="&#x123;" horiz-adv-x="527" 
d="M496 524h76l-93 -439q-20 -95 -43 -147.5t-61 -88.5q-70 -67 -195 -67q-80 0 -128.5 34.5t-48.5 92.5q0 10 1 18l1 13h84v-8v-6q0 -34 28.5 -53t79.5 -19q80 0 123.5 44t65.5 146l4 19q-75 -80 -172 -80q-76 0 -124.5 51.5t-48.5 133.5q0 69 25.5 145t65.5 126
q37 46 91.5 73t112.5 27q51 0 92 -30q27 -20 47 -63zM334 462q-47 0 -87.5 -26.5t-67.5 -75.5q-46 -82 -46 -176q0 -59 29.5 -94t79.5 -35q45 0 86 26.5t66 72.5q46 80 46 185q0 56 -29 89.5t-77 33.5zM430 589h-100l20 93q14 62 47.5 96.5t80.5 34.5l-8 -38q-58 0 -74 -88
h55z" />
    <glyph glyph-name="iogonek" unicode="&#x12f;" horiz-adv-x="222" 
d="M261 524l-111 -524q-34 -26 -55.5 -59t-21.5 -57q0 -20 15 -31.5t40 -11.5q11 0 36 9l-9 -45q-31 -10 -53 -10q-45 0 -73.5 21.5t-28.5 55.5q0 62 100 128h-34l111 524h84zM305 729l-23 -103h-84l23 103h84z" />
    <glyph glyph-name="Scommaaccent" unicode="&#x218;" horiz-adv-x="667" 
d="M706 515h-88q4 27 4 36q0 49 -32 78q-34 31 -120 31q-97 0 -152 -49q-44 -41 -44 -93q0 -33 21.5 -51t79.5 -35l172 -49q67 -19 98 -68q24 -38 24 -78q0 -42 -24.5 -91.5t-62.5 -84.5q-90 -84 -252 -84q-113 0 -177 51t-64 141q0 30 9 63h87q-4 -25 -4 -41
q0 -68 40 -100.5t125 -32.5q118 0 180 56q47 44 47 95q0 36 -26.5 59.5t-86.5 40.5l-171 48q-50 14 -80.5 51t-30.5 84q0 38 20.5 85.5t51.5 78.5q82 85 238 85q113 0 172 -52q54 -47 54 -118q0 -19 -8 -56zM276 -60h100l-19 -93q-14 -62 -48 -96.5t-81 -34.5l8 38
q58 0 74 88h-55z" />
    <glyph glyph-name="Eth" unicode="&#xd0;" horiz-adv-x="722" 
d="M161 341h-68l13 67h70l68 321h282q98 0 156 -52q35 -31 56 -82.5t21 -106.5q0 -94 -32.5 -193t-83.5 -161q-110 -134 -272 -134h-282zM255 341l-55 -259h172q139 0 219 123q30 47 51 127t21 148q0 79 -45.5 123t-125.5 44h-171l-51 -239h166l-14 -67h-167z" />
    <glyph glyph-name="Dcroat" unicode="&#x110;" horiz-adv-x="722" 
d="M161 341h-68l13 67h70l68 321h282q98 0 156 -52q35 -31 56 -82.5t21 -106.5q0 -94 -32.5 -193t-83.5 -161q-110 -134 -272 -134h-282zM255 341l-55 -259h172q139 0 219 123q30 47 51 127t21 148q0 79 -45.5 123t-125.5 44h-171l-51 -239h166l-14 -67h-167z" />
    <glyph glyph-name="Thorn" unicode="&#xde;" horiz-adv-x="667" 
d="M226 191l-41 -191h-94l155 729h94l-25 -118h208q185 0 185 -161q0 -128 -99 -207q-65 -52 -155 -52h-228zM243 273h194q92 0 140 61q35 46 35 98q0 97 -120 97h-195z" />
    <glyph glyph-name="dcroat" unicode="&#x111;" 
d="M550 653l16 76h84l-16 -76h61l-11 -53h-62l-127 -600h-81l16 76q-19 -38 -57 -61q-63 -38 -129 -38q-78 0 -124.5 52.5t-46.5 140.5q0 76 23.5 149t63.5 121q82 99 203 99q53 0 86 -21t57 -70l32 152h-150l12 53h150zM355 462q-94 0 -150 -101q-44 -83 -44 -171
q0 -65 31 -100.5t86 -35.5q90 0 149 101q46 80 46 172q0 64 -31 99.5t-87 35.5z" />
    <glyph glyph-name="eth" unicode="&#xf0;" 
d="M251 564l-32 39l89 41q-16 15 -20 17l-27 18q-8 4 -28 19l42 45l22 -14q25 -14 35 -22q30 -21 37 -26q1 0 8 -5l99 43l39 -38l-95 -41q156 -134 156 -293q0 -62 -22.5 -135t-56.5 -119q-82 -116 -224 -116q-87 0 -138 49q-55 55 -55 138q0 63 22 136.5t56 122.5
q36 52 91.5 81.5t119.5 29.5q32 0 66 -17q-38 50 -84 92zM371 462q-102 0 -159 -105q-44 -81 -44 -173q0 -60 31 -95t84 -35q103 0 161 105q44 81 44 174q0 61 -31 95t-86 34z" />
    <glyph glyph-name="thorn" unicode="&#xfe;" 
d="M7 -213l200 942h84l-61 -289q22 43 73.5 71t108.5 28q80 0 127 -52.5t47 -142.5q0 -74 -24 -146.5t-64 -121.5q-38 -47 -91.5 -73t-112.5 -26q-53 0 -86.5 21t-56.5 70l-60 -281h-84zM379 462q-93 0 -149 -101q-47 -81 -47 -177q0 -60 32 -95t87 -35q97 0 152 101
q44 81 44 169q0 65 -31.5 101.5t-87.5 36.5z" />
    <glyph glyph-name="Euro" unicode="&#x20ac;" 
d="M47 313h55q5 30 16 66h-79l35 59h63q38 99 102 170q90 101 219 101q98 0 178 -67l-49 -80q-46 40 -79 55.5t-72 15.5q-65 0 -114.5 -46t-94.5 -149h285l-36 -59h-270q-10 -29 -15 -66h246l-36 -59h-215v-14q0 -184 127 -184q37 0 74 12.5t105 48.5l-20 -93
q-85 -46 -178 -46q-199 0 -199 247q0 18 1 29h-84z" />
    <glyph glyph-name="onesuperior" unicode="&#xb9;" horiz-adv-x="390" 
d="M302 580h-97l10 46q68 9 88.5 21.5t45.5 61.5h44l-90 -425h-64z" />
    <glyph glyph-name="twosuperior" unicode="&#xb2;" horiz-adv-x="390" 
d="M412 344l-12 -60h-300q21 76 52 111t113 77l63 31q75 35 75 91q0 27 -18.5 43.5t-49.5 16.5q-42 0 -67 -23.5t-38 -75.5h-63q18 80 61 117t117 37q56 0 89.5 -28.5t33.5 -77.5q0 -90 -124 -151l-68 -33q-71 -35 -95 -75h231z" />
    <glyph glyph-name="threesuperior" unicode="&#xb3;" horiz-adv-x="390" 
d="M256 474l11 53h12h4q107 0 107 79q0 22 -16.5 35t-45.5 13q-50 0 -76 -35q-12 -15 -21 -54h-63q18 65 43 92q47 52 127 52q53 0 85 -25t32 -66q0 -38 -16 -64.5t-53 -49.5q44 -21 44 -70q0 -70 -52.5 -117t-130.5 -47q-60 0 -92 26.5t-32 76.5q0 8 3 41h64l-1 -12
q-1 -9 -1 -21q0 -25 18.5 -40.5t49.5 -15.5q49 0 79 27.5t30 72.5q0 50 -78 50q-15 0 -31 -1z" />
    <glyph glyph-name="degree" unicode="&#xb0;" horiz-adv-x="606" 
d="M442 686q63 0 107.5 -44.5t44.5 -106.5q0 -64 -44.5 -108t-108.5 -44q-61 0 -105.5 45t-44.5 107t44.5 106.5t106.5 44.5zM443 643q-44 0 -75.5 -32t-31.5 -76t31 -76.5t74 -32.5q45 0 76.5 31.5t31.5 77.5q0 44 -31.5 76t-74.5 32z" />
    <glyph glyph-name="minus" unicode="&#x2212;" horiz-adv-x="584" 
d="M601 269l-15 -72h-505l15 72h505z" />
    <glyph glyph-name="multiply" unicode="&#xd7;" horiz-adv-x="584" 
d="M529 427l39 -50l-178 -146l117 -147l-61 -50l-116 147l-178 -146l-39 49l178 147l-115 146l60 49l115 -145z" />
    <glyph glyph-name="divide" unicode="&#xf7;" horiz-adv-x="584" 
d="M591 269l-15 -72h-484l15 72h484zM305 104q22 0 37 -15.5t15 -37.5q0 -20 -15.5 -35.5t-36.5 -15.5t-36.5 15.5t-15.5 36.5t15.5 36.5t36.5 15.5zM379 462q22 0 37 -15.5t15 -37.5q0 -20 -15.5 -35.5t-36.5 -15.5t-36.5 15.5t-15.5 36.5q0 22 15 37t37 15z" />
    <glyph glyph-name="trademark" unicode="&#x2122;" horiz-adv-x="1000" 
d="M430 674l-81 -382h-68l81 382h-154l12 55h374l-11 -55h-153zM814 292h-71l-48 341l-73 -341h-67l93 437h94l55 -362l209 362h90l-93 -437h-67l73 341z" />
    <glyph glyph-name="plusminus" unicode="&#xb1;" horiz-adv-x="584" 
d="M625 429l-15 -72h-207l-44 -208h-71l45 208h-207l15 72h207l43 204h71l-44 -204h207zM549 72l-15 -72h-484l15 72h484z" />
    <glyph glyph-name="onehalf" unicode="&#xbd;" horiz-adv-x="947" 
d="M302 580h-97l10 46q68 9 88.5 21.5t45.5 61.5h44l-90 -425h-64zM808 709h58l-606 -729h-58zM909 60l-12 -60h-300q21 76 52 111t113 77l63 31q75 35 75 91q0 27 -18.5 43.5t-49.5 16.5q-42 0 -67 -23.5t-38 -75.5h-63q18 80 61 117t117 37q56 0 89.5 -28.5t33.5 -77.5
q0 -90 -124 -151l-68 -33q-71 -35 -95 -75h231z" />
    <glyph glyph-name="onequarter" unicode="&#xbc;" horiz-adv-x="947" 
d="M302 580h-97l10 46q68 9 88.5 21.5t45.5 61.5h44l-90 -425h-64zM818 709h58l-606 -729h-58zM798 100h-184l13 60l256 265h47l-57 -270h65l-12 -55h-65l-21 -100h-63zM810 155l34 161l-156 -161h122z" />
    <glyph glyph-name="threequarters" unicode="&#xbe;" horiz-adv-x="947" 
d="M256 474l11 53h12h4q107 0 107 79q0 22 -16.5 35t-45.5 13q-50 0 -76 -35q-12 -15 -21 -54h-63q18 65 43 92q47 52 127 52q53 0 85 -25t32 -66q0 -38 -16 -64.5t-53 -49.5q44 -21 44 -70q0 -70 -52.5 -117t-130.5 -47q-60 0 -92 26.5t-32 76.5q0 8 3 41h64l-1 -12
q-1 -9 -1 -21q0 -25 18.5 -40.5t49.5 -15.5q49 0 79 27.5t30 72.5q0 50 -78 50q-15 0 -31 -1zM838 709h58l-606 -729h-58zM798 100h-184l13 60l256 265h47l-57 -270h65l-12 -55h-65l-21 -100h-63zM810 155l34 161l-156 -161h122z" />
    <glyph glyph-name="commaaccent" horiz-adv-x="333" 
d="M105 -60h100l-19 -93q-14 -62 -48 -96.5t-81 -34.5l8 38q58 0 74 88h-55z" />
    <glyph glyph-name="copyright" unicode="&#xa9;" horiz-adv-x="737" 
d="M637 437h-71q-2 49 -20.5 71t-57.5 22q-73 0 -122 -74q-45 -69 -45 -155q0 -50 26 -81.5t69 -31.5q85 0 131 124h71q-31 -78 -66 -116q-64 -70 -152 -70q-70 0 -110.5 44.5t-40.5 121.5q0 121 77 214q74 86 177 86q67 0 99.5 -37.5t34.5 -117.5zM530 742
q133 0 219.5 -85.5t86.5 -216.5q0 -118 -67 -225t-177 -172t-231 -65q-133 0 -219.5 86t-86.5 217q0 117 67 224t177 172t231 65zM516 680q-99 0 -190 -54.5t-146 -144.5t-55 -188q0 -109 71 -181t179 -72q99 0 190 54.5t146 145t55 188.5q0 109 -71 180.5t-179 71.5z" />
    <glyph glyph-name="registered" unicode="&#xae;" horiz-adv-x="737" 
d="M341 325l-39 -185h-70l94 445h206q119 0 119 -89q0 -42 -18 -78q-16 -30 -62 -58q17 -14 23 -25t6 -31q0 -17 -8 -56q-7 -45 -7 -54q0 -18 12 -29l-5 -25h-78q-4 16 -4 28q0 25 15 85q4 22 4 32q0 40 -54 40h-134zM355 388h129q50 0 72 28q19 26 19 60q0 25 -15 35.5
t-48 10.5h-129zM530 742q133 0 219.5 -85.5t86.5 -216.5q0 -118 -67 -225t-177 -172t-231 -65q-133 0 -219.5 86t-86.5 217q0 117 67 224t177 172t231 65zM516 680q-99 0 -190 -54.5t-146 -144.5t-55 -188q0 -109 71 -181t179 -72q99 0 190 54.5t146 145t55 188.5
q0 109 -71 180.5t-179 71.5z" />
    <glyph glyph-name="lozenge" unicode="&#x25ca;" horiz-adv-x="489" 
d="M270 744l192 -372l-192 -372h-62l-192 372l192 372h62zM240 60l160 312l-160 312l-161 -312z" />
    <glyph glyph-name="Delta" unicode="&#x394;" horiz-adv-x="712" 
d="M10 0l449 729h100l142 -729h-691zM160 82h424l-99 534z" />
    <glyph glyph-name="notequal" unicode="&#x2260;" horiz-adv-x="584" 
d="M197 111h-123l15 72h161l79 100h-218l14 72h257l96 125l62 -39l-66 -86h135l-15 -72h-174l-78 -100h230l-14 -72h-270l-83 -109l-62 39z" />
    <glyph glyph-name="radical" unicode="&#x221a;" horiz-adv-x="542" 
d="M670 913l35 -5l-352 -944l-136 497l-104 -46l-11 33l163 73l110 -396z" />
    <glyph glyph-name="lessequal" unicode="&#x2264;" horiz-adv-x="584" 
d="M549 72l-15 -72h-489l15 72h489zM111 308l15 69l533 207l-17 -79l-422 -164l353 -163l-17 -77z" />
    <glyph glyph-name="greaterequal" unicode="&#x2265;" horiz-adv-x="584" 
d="M71 72h489l-15 -72h-489zM626 377l-15 -69l-533 -207l17 79l422 164l-353 163l17 77z" />
    <glyph glyph-name="logicalnot" unicode="&#xac;" horiz-adv-x="584" 
d="M114 377h505l-61 -291h-70l46 219h-435z" />
    <glyph glyph-name="summation" unicode="&#x2211;" horiz-adv-x="711" 
d="M183 17h317q78 0 110 22q17 12 27.5 25t35.5 52q2 4 8 13h25q-48 -98 -91 -226q-31 9 -78 9h-480q-41 0 -75 -4l429 340l-248 514q56 -7 111 -7h486l-27 -179h-22q-3 69 -19 95q-26 36 -104 36h-262l194 -409z" />
    <glyph glyph-name="partialdiff" unicode="&#x2202;" horiz-adv-x="490" 
d="M102 670l-40 52q62 28 132 28q115 0 189.5 -97.5t74.5 -247.5q0 -77 -19 -164t-47 -138q-66 -118 -180 -118q-80 0 -135 56t-55 138q0 103 74 179q50 50 122 50q40 0 69.5 -13t80.5 -52q11 72 11 113q0 119 -55 195q-38 52 -110 52q-27 0 -43 -4.5t-61 -24.5zM361 304
l-2 4q-17 26 -45 41.5t-57 15.5q-61 0 -104 -62t-43 -149q0 -65 23.5 -101t65.5 -36q41 0 74 32t53 90q18 56 35 165z" />
    <glyph glyph-name="brokenbar" unicode="&#xa6;" horiz-adv-x="260" 
d="M255 729h60l-86 -401h-60zM140 189h60l-86 -401h-60z" />
    <glyph glyph-name="mu" unicode="&#x3bc;" 
d="M554 49l-14 -63q-10 -2 -13 -3q-26 -6 -41 -6q-40 0 -57.5 14.5t-17.5 49.5q0 7 3 19q-80 -83 -183 -83q-52 0 -81 29l-48 -226h-84l158 744h84l-77 -364q-3 -15 -3 -30q0 -37 23 -58.5t63 -21.5q64 0 113.5 48.5t66.5 128.5l63 297h84l-93 -436q-1 -3 -1 -11
q0 -31 38 -31q5 0 17 3z" />
    <glyph glyph-name="afii10017" unicode="&#x410;" horiz-adv-x="667" 
d="M524 219h-285l-123 -219h-99l415 729h120l101 -729h-102zM514 297l-40 333l-191 -333h231z" />
    <glyph glyph-name="afii10018" unicode="&#x411;" horiz-adv-x="639" 
d="M580 61q-70 -61 -172 -61h-329l155 729h489l-17 -82h-396l-50 -232h180q228 1 228 -177q0 -100 -88 -177zM189 82h227q66 0 105 35q57 48 57 121q0 35 -19 60q-25 35 -89 35h-227z" />
    <glyph glyph-name="afii10019" unicode="&#x412;" horiz-adv-x="667" 
d="M79 0l155 729h296q97 0 145 -51q36 -39 36 -94q0 -67 -35.5 -119t-100.5 -81q53 -23 75 -51.5t22 -74.5q0 -100 -65 -171q-78 -87 -198 -87h-330zM261 415h180q93 0 136 46q38 41 38 100q0 86 -124 86h-180zM190 82h227q81 0 125 57q34 46 34 103q0 91 -106 91h-226z" />
    <glyph glyph-name="afii10020" unicode="&#x413;" horiz-adv-x="611" 
d="M183 0h-93l155 729h489l-17 -82h-396z" />
    <glyph glyph-name="afii10021" unicode="&#x414;" horiz-adv-x="816" 
d="M726 0zM305 82h331l120 565h-262l-50 -239q-56 -229 -139 -326zM168 74q61 26 103 111t77 226l70 318h450l-139 -655h91l-45 -209h-80l29 135h-584l-29 -135h-80l45 209h92z" />
    <glyph glyph-name="afii10022" unicode="&#x415;" horiz-adv-x="667" 
d="M255 332l-54 -250h429l-17 -82h-523l155 729h506l-17 -82h-412l-50 -233h396l-18 -82h-395z" />
    <glyph glyph-name="afii10023" unicode="&#x401;" horiz-adv-x="667" 
d="M255 332l-54 -250h429l-17 -82h-523l155 729h506l-17 -82h-412l-50 -233h396l-18 -82h-395zM505 914l-22 -103h-104l22 103h104zM666 914l-22 -103h-104l22 103h104z" />
    <glyph glyph-name="afii10024" unicode="&#x416;" horiz-adv-x="897" 
d="M487 324l-355 -324h-110l405 375l-212 354h120l173 -308l65 308h93l-65 -308l303 308h120l-362 -354l245 -375h-110l-217 324l-69 -324h-93z" />
    <glyph glyph-name="afii10025" unicode="&#x417;" horiz-adv-x="652" 
d="M307 321l17 82h88q69 0 129.5 51t60.5 111q0 45 -37.5 71.5t-102.5 26.5q-87 0 -142 -38.5t-71 -109.5h-88q23 107 106 166.5t209 59.5q104 0 161.5 -43.5t57.5 -121.5q0 -72 -39 -124t-104 -78q97 -39 97 -134q0 -128 -91.5 -195.5t-244.5 -67.5q-109 0 -175.5 47.5
t-66.5 137.5q0 27 8 70h88q-6 -24 -6 -44q0 -64 46.5 -96.5t128.5 -32.5q94 0 155 41t61 108q0 43 -38 78t-99 35h-108z" />
    <glyph glyph-name="afii10026" unicode="&#x418;" horiz-adv-x="731" 
d="M238 729h88l-127 -596l508 596h101l-155 -729h-88l126 591l-503 -591h-105z" />
    <glyph glyph-name="afii10027" unicode="&#x419;" horiz-adv-x="731" 
d="M416 928h53v-8v-5q0 -22 22.5 -36t59.5 -14q94 0 110 63h56q-15 -59 -46 -86q-54 -49 -133 -49q-56 0 -91.5 27.5t-35.5 71.5q0 12 5 36zM238 729h88l-127 -596l508 596h101l-155 -729h-88l126 591l-503 -591h-105z" />
    <glyph glyph-name="afii10028" unicode="&#x41a;" horiz-adv-x="664" 
d="M172 0h-93l155 729h93l-67 -315l430 315h120l-487 -354l344 -375h-119l-307 324z" />
    <glyph glyph-name="afii10029" unicode="&#x41b;" horiz-adv-x="646" 
d="M610 647h-262l-49 -227q-21 -86 -45 -153.5t-59 -132t-83 -99.5t-106 -35l20 94q57 0 99 84.5t79 239.5l67 311h450l-154 -729h-94z" />
    <glyph glyph-name="afii10030" unicode="&#x41c;" horiz-adv-x="833" 
d="M467 0h-97l-77 605l-129 -605h-89l155 729h129l80 -627l346 627h131l-155 -729h-89l129 605z" />
    <glyph glyph-name="afii10031" unicode="&#x41d;" horiz-adv-x="722" 
d="M621 332h-373l-71 -332h-94l155 729h94l-67 -315h373l67 315h94l-155 -729h-94z" />
    <glyph glyph-name="afii10032" unicode="&#x41e;" horiz-adv-x="778" 
d="M537 741q142 0 219 -77q33 -34 52.5 -87.5t19.5 -112.5q0 -119 -52.5 -231t-140.5 -179q-100 -77 -244 -77q-64 0 -121 20.5t-93 56.5q-73 73 -73 209q0 95 37.5 188.5t104.5 162.5q121 127 291 127zM525 660q-70 0 -133.5 -33.5t-107.5 -93.5q-84 -116 -84 -262
q0 -89 41 -141q26 -33 70 -52.5t93 -19.5q73 0 136 33t107 94q40 54 62.5 123.5t22.5 137.5q0 89 -41 142q-26 33 -70.5 52.5t-95.5 19.5z" />
    <glyph glyph-name="afii10033" unicode="&#x41f;" horiz-adv-x="722" 
d="M688 647h-373l-138 -647h-94l155 729h561l-155 -729h-94z" />
    <glyph glyph-name="afii10034" unicode="&#x420;" horiz-adv-x="667" 
d="M251 309l-66 -309h-94l155 729h302q185 0 185 -161q0 -128 -99 -207q-65 -52 -155 -52h-228zM268 391h194q92 0 140 61q35 46 35 98q0 97 -120 97h-194z" />
    <glyph glyph-name="afii10035" unicode="&#x421;" horiz-adv-x="722" 
d="M770 503h-96q-6 81 -44.5 119t-114.5 38q-136 0 -226 -133q-81 -121 -81 -267q0 -91 47.5 -146.5t125.5 -55.5q59 0 112.5 26t84.5 71q25 33 59 111h98q-54 -130 -100 -180q-100 -109 -268 -109q-131 0 -198 85q-57 72 -57 180q0 94 34.5 190.5t93.5 167.5
q117 141 292 141q143 0 206 -107q28 -50 32 -131z" />
    <glyph glyph-name="afii10036" unicode="&#x422;" horiz-adv-x="611" 
d="M493 647l-138 -647h-94l138 647h-241l17 82h573l-17 -82h-238z" />
    <glyph glyph-name="afii10037" unicode="&#x423;" horiz-adv-x="530" 
d="M135 0h-113l181 244l-139 485h113l104 -379l265 379h111z" />
    <glyph glyph-name="afii10038" unicode="&#x424;" horiz-adv-x="891" 
d="M399 94q-47 0 -82 2.5t-78.5 14t-72 31.5t-48 58t-19.5 90q0 93 30.5 160.5t87 107.5t130 58.5t167.5 18.5l21 94h94l-20 -94q34 0 55 -0.5t57 -4t58.5 -10t50.5 -20t44 -32t27.5 -47.5t11.5 -66q1 -84 -21.5 -148.5t-60.5 -104t-93.5 -64.5t-114 -34.5t-129.5 -9.5
l-20 -94h-94zM419 188l75 353q-292 0 -292 -226q0 -31 7.5 -53.5t25 -36t33 -21.5t45 -11.5t46 -4t49.5 -0.5h11zM514 188q33 0 58.5 2t63.5 8.5t65.5 22t54 39.5t40 64.5t13.5 93.5q0 26 -8 45.5t-19 32.5t-31 22t-36 13.5t-42.5 6.5t-41.5 2.5t-42 0.5z" />
    <glyph glyph-name="afii10039" unicode="&#x425;" horiz-adv-x="667" 
d="M471 374l179 -374h-110l-140 301l-263 -301h-115l339 374l-167 355h113l123 -281l250 281h114z" />
    <glyph glyph-name="afii10040" unicode="&#x426;" horiz-adv-x="722" 
d="M567 82l138 647h94l-139 -655h92l-45 -209h-80l29 135h-573l155 729h94l-138 -647h373z" />
    <glyph glyph-name="afii10041" unicode="&#x427;" horiz-adv-x="642" 
d="M503 282h-180q-80 0 -122 38.5t-42 101.5q0 24 5 43l56 264h93l-57 -267q-4 -15 -4 -31q0 -67 89 -67h179l78 365h93l-155 -729h-93z" />
    <glyph glyph-name="afii10042" unicode="&#x428;" horiz-adv-x="836" 
d="M459 82h194l138 647h94l-155 -729h-670l155 729h94l-138 -647h194l138 647h94z" />
    <glyph glyph-name="afii10043" unicode="&#x429;" horiz-adv-x="837" 
d="M742 0h-682l155 729h94l-138 -647h194l138 647h94l-138 -647h194l138 647h94l-139 -655h92l-45 -209h-80z" />
    <glyph glyph-name="afii10044" unicode="&#x42a;" horiz-adv-x="866" 
d="M752 61q-70 -61 -172 -61h-329l137 647h-230l17 82h324l-66 -314h180q119 0 173.5 -44.5t54.5 -135.5q0 -58 -22 -96.5t-67 -77.5zM362 82h227q65 0 104 35q57 49 57 122q0 35 -18 59q-25 35 -90 35h-227z" />
    <glyph glyph-name="afii10045" unicode="&#x42b;" horiz-adv-x="886" 
d="M963 729l-155 -729h-94l155 729h94zM584 61q-70 -61 -172 -61h-329l155 729h93l-67 -314h180q228 0 228 -179q0 -57 -22.5 -97.5t-65.5 -77.5zM193 82h227q66 0 105 35q57 48 57 121q0 35 -19 60q-25 35 -89 35h-227z" />
    <glyph glyph-name="afii10046" unicode="&#x42c;" horiz-adv-x="698" 
d="M584 61q-70 -61 -172 -61h-329l155 729h93l-66 -314h180q228 0 228 -181q0 -57 -22.5 -96t-66.5 -77zM194 82h227q65 0 104 35q57 49 57 122q0 35 -18 59q-25 35 -90 35h-227z" />
    <glyph glyph-name="afii10047" unicode="&#x42d;" horiz-adv-x="717" 
d="M656 332h-366l17 82h364q2 15 2 45q0 95 -46 147.5t-130 52.5q-95 0 -154 -46q-44 -34 -76 -110h-95q94 238 332 238q130 0 196.5 -73t66.5 -203q0 -127 -50 -231t-131 -172q-100 -85 -241 -85q-241 0 -241 236q0 25 3 53h96q-4 -70 9 -113q13 -45 52 -69.5t98 -24.5
q103 0 182.5 73.5t111.5 199.5z" />
    <glyph glyph-name="afii10048" unicode="&#x42e;" horiz-adv-x="1049" 
d="M379 332h-155l-70 -332h-94l155 729h93l-67 -315h158q47 148 160.5 237.5t256.5 89.5q134 0 208.5 -74.5t74.5 -205.5q0 -132 -55.5 -237t-146.5 -170q-106 -77 -242 -77q-132 0 -207 75.5t-75 204.5q0 36 6 75zM799 659q-134 0 -233 -114.5t-99 -271.5
q0 -99 54.5 -156.5t150.5 -57.5q135 0 233.5 114t98.5 272q0 100 -54 157t-151 57z" />
    <glyph glyph-name="afii10049" unicode="&#x42f;" horiz-adv-x="691" 
d="M476 314l-344 -314h-110l340 315q-183 8 -183 176q0 100 88 177q70 61 172 61h329l-155 -729h-93l67 314h-111zM658 647h-227q-66 0 -105 -35q-57 -48 -57 -121q0 -35 19 -60q25 -35 89 -35h227z" />
    <glyph glyph-name="afii10065" unicode="&#x430;" 
d="M552 51l-13 -65q-12 -2 -14 -3q-25 -6 -39 -6q-36 0 -56 17.5t-20 48.5v4v7q-50 -44 -88 -57q-55 -20 -113 -20q-67 0 -105.5 34t-38.5 94q0 92 82 144q37 23 81 33.5t144 19.5q55 5 74.5 16.5t26.5 42.5l3 18q2 16 2 19q0 28 -30.5 46t-75.5 18q-70 0 -107 -37
q-18 -18 -30 -56h-84q14 83 76.5 126.5t166.5 43.5q79 0 126.5 -31t47.5 -82q0 -10 -6 -37l-64 -301q-1 -3 -1 -10q0 -29 38 -29q8 0 17 2zM431 164l20 94q-43 -15 -146 -29q-71 -10 -103 -30q-22 -13 -35.5 -36t-13.5 -48q0 -32 23 -49t66 -17q66 0 122.5 34.5t66.5 80.5z
" />
    <glyph glyph-name="afii10066" unicode="&#x431;" 
d="M263 514q55 25 115 25q91 0 139.5 -49t48.5 -141q0 -98 -39 -183t-109.5 -137t-157.5 -52q-91 0 -139.5 50t-48.5 142q0 43 10 89q85 401 248 432q9 2 65.5 10.5t88.5 15.5q23 5 43.5 22t24.5 37l74 1q-6 -28 -11.5 -43.5t-19 -36t-40.5 -34t-69 -22.5q-115 -25 -126 -29
q-12 -4 -23 -11t-17.5 -11t-16.5 -17t-12.5 -16t-14.5 -21.5t-13 -20.5zM363 462q-83 0 -142.5 -83t-59.5 -192q0 -63 30 -98t85 -35q81 0 141 83t60 192q0 64 -29.5 98.5t-84.5 34.5z" />
    <glyph glyph-name="afii10067" unicode="&#x432;" horiz-adv-x="538" 
d="M70 0l112 525h239q60 0 93.5 -26.5t33.5 -75.5q0 -50 -28 -91.5t-69 -54.5q36 -9 54.5 -34.5t18.5 -58.5q0 -80 -67 -140q-51 -44 -124 -44h-263zM219 307h118q52 0 80 18q42 28 42 68q0 18 -19 37q-20 19 -72 19h-118zM170 76h152q46 0 75 26q38 32 38 82q0 16 -15 27
q-26 20 -65 20h-152z" />
    <glyph glyph-name="afii10068" unicode="&#x433;" horiz-adv-x="430" 
d="M181 524h295l-16 -76h-211l-95 -448h-84z" />
    <glyph glyph-name="afii10069" unicode="&#x434;" horiz-adv-x="640" 
d="M78 64q61 7 125 234l54 226h339l-97 -460h64l-39 -184h-70l25 120h-402l-25 -120h-70l39 184h57zM196 76h221l79 372h-172l-34 -152q-39 -147 -94 -220z" />
    <glyph glyph-name="afii10070" unicode="&#x435;" 
d="M563 234h-386q-5 -19 -5 -46q0 -64 32.5 -99t91.5 -35q101 0 156 105h84q-23 -81 -93.5 -131.5t-160.5 -50.5q-85 0 -136 50q-62 59 -62 146q0 61 24.5 136t59.5 122q37 50 96.5 79t124.5 29q81 0 136 -49.5t55 -121.5q0 -42 -14 -117zM195 306h294q3 24 3 33
q0 56 -31.5 89.5t-84.5 33.5q-61 0 -111 -43.5t-70 -112.5z" />
    <glyph glyph-name="afii10071" unicode="&#x451;" 
d="M563 234h-386q-5 -19 -5 -46q0 -64 32.5 -99t91.5 -35q101 0 156 105h84q-23 -81 -93.5 -131.5t-160.5 -50.5q-85 0 -136 50q-62 59 -62 146q0 61 24.5 136t59.5 122q37 50 96.5 79t124.5 29q81 0 136 -49.5t55 -121.5q0 -42 -14 -117zM195 306h294q3 24 3 33
q0 56 -31.5 89.5t-84.5 33.5q-61 0 -111 -43.5t-70 -112.5zM400 715l-22 -103h-104l22 103h104zM561 715l-22 -103h-104l22 103h104z" />
    <glyph glyph-name="afii10072" unicode="&#x436;" horiz-adv-x="818" 
d="M424 216l-304 -216h-103l360 264l-217 260h107l175 -222l47 222h83l-47 -222l269 222h107l-327 -260l248 -264h-103l-212 216l-46 -216h-83z" />
    <glyph glyph-name="afii10073" unicode="&#x437;" horiz-adv-x="495" 
d="M237 221l16 76h62q52 0 84.5 28t32.5 65q0 30 -26 51t-70 21q-102 0 -123 -84h-88q17 77 75 119t149 42q80 0 125.5 -33.5t45.5 -92.5q0 -99 -93 -146q64 -31 64 -98q0 -89 -70.5 -140.5t-184.5 -51.5q-176 0 -176 132q0 19 5 47h88q-4 -46 10 -67q25 -35 96 -35
q56 0 96.5 27t40.5 67q0 28 -23.5 50.5t-61.5 22.5h-74z" />
    <glyph glyph-name="afii10074" unicode="&#x438;" horiz-adv-x="560" 
d="M181 524h84l-88 -413l323 413h98l-111 -524h-83l87 413l-322 -413h-99z" />
    <glyph glyph-name="afii10075" unicode="&#x439;" horiz-adv-x="560" 
d="M294 729h53v-8v-5q0 -22 22.5 -36t59.5 -14q94 0 110 63h56q-15 -59 -46 -86q-54 -49 -133 -49q-56 0 -91.5 27.5t-35.5 71.5q0 12 5 36zM181 524h84l-88 -413l323 413h98l-111 -524h-83l87 413l-322 -413h-99z" />
    <glyph glyph-name="afii10076" unicode="&#x43a;" horiz-adv-x="510" 
d="M264 524l-47 -222l269 222h107l-327 -260l248 -264h-103l-212 216l-46 -216h-83l111 524h83z" />
    <glyph glyph-name="afii10077" unicode="&#x43b;" 
d="M204 524h339l-112 -524h-84l96 448h-172l-38 -164q-79 -284 -219 -284l17 80q64 0 118 202z" />
    <glyph glyph-name="afii10078" unicode="&#x43c;" horiz-adv-x="621" 
d="M181 524h84l89 -311l221 311h84l-111 -524h-84l74 348l-186 -262h-50l-74 262l-74 -348h-84z" />
    <glyph glyph-name="afii10079" unicode="&#x43d;" horiz-adv-x="561" 
d="M181 524h84l-46 -215h250l46 215h84l-111 -524h-84l49 233h-250l-49 -233h-84z" />
    <glyph glyph-name="afii10080" unicode="&#x43e;" 
d="M384 539q87 0 137 -49q55 -53 55 -138q0 -65 -22.5 -138.5t-56.5 -120.5q-84 -116 -228 -116q-84 0 -136.5 52t-52.5 135q0 64 22 137.5t56 121.5q38 55 97 85.5t129 30.5zM371 462q-102 0 -159 -105q-44 -81 -44 -173q0 -60 31 -95t84 -35q103 0 161 105q44 81 44 174
q0 61 -31 95t-86 34z" />
    <glyph glyph-name="afii10081" unicode="&#x43f;" horiz-adv-x="560" 
d="M181 524h417l-111 -524h-84l95 448h-249l-95 -448h-84z" />
    <glyph glyph-name="afii10082" unicode="&#x440;" 
d="M7 -213l157 737h81l-18 -84q17 35 57 60q60 39 128 39q80 0 127 -52.5t47 -142.5q0 -74 -24 -146.5t-64 -121.5q-38 -47 -91.5 -73t-112.5 -26q-53 0 -86.5 21t-56.5 70l-60 -281h-84zM379 462q-93 0 -149 -101q-47 -81 -47 -177q0 -60 32 -95t87 -35q97 0 152 101
q44 81 44 169q0 65 -31.5 101.5t-87.5 36.5z" />
    <glyph glyph-name="afii10083" unicode="&#x441;" horiz-adv-x="500" 
d="M551 348h-84q1 9 1 22q0 43 -27.5 67.5t-74.5 24.5q-92 0 -148 -89q-54 -85 -54 -192q0 -58 30.5 -92.5t82.5 -34.5q111 0 157 126h84q-23 -79 -58 -120q-71 -83 -197 -83q-94 0 -143 62q-44 55 -44 131q0 69 23 142.5t58 119.5q82 107 224 107q83 0 129 -47
q44 -46 44 -100q0 -1 -0.5 -5t-1 -11t-0.5 -13z" />
    <glyph glyph-name="afii10084" unicode="&#x442;" horiz-adv-x="400" 
d="M116 524h372l-16 -76h-144l-95 -448h-84l95 448h-144z" />
    <glyph glyph-name="afii10085" unicode="&#x443;" horiz-adv-x="500" 
d="M501 524h89l-368 -634q-63 -108 -165 -108q-27 0 -49 10l16 75q36 -4 44 -4q28 0 44 10.5t36 41.5l52 81l-68 528h90l46 -407z" />
    <glyph glyph-name="afii10086" unicode="&#x444;" horiz-adv-x="916" 
d="M591 445q65 94 180 94q84 0 129.5 -50.5t45.5 -141.5q0 -147 -86 -258.5t-207 -111.5q-97 0 -145 78l-58 -273h-83l59 278q-74 -83 -179 -83q-84 0 -130 50t-46 138q0 155 88.5 264.5t210.5 109.5q51 0 87.5 -25.5t50.5 -68.5l49 229h83zM741 461q-78 0 -138 -82.5
t-60 -188.5q0 -63 29.5 -99t81.5 -36q83 0 143 80.5t60 187.5q0 65 -30.5 101.5t-85.5 36.5zM366 461q-81 0 -142.5 -81t-61.5 -187q0 -64 31 -101t86 -37q77 0 137 83t60 189q0 63 -28.5 98.5t-81.5 35.5z" />
    <glyph glyph-name="afii10087" unicode="&#x445;" horiz-adv-x="500" 
d="M350 267l123 -267h-94l-90 200l-174 -200h-98l239 267l-118 257h93l88 -192l167 192h97z" />
    <glyph glyph-name="afii10088" unicode="&#x446;" horiz-adv-x="560" 
d="M70 0l111 524h84l-95 -448h249l95 448h84l-97 -460h80l-39 -184h-70l26 120h-428z" />
    <glyph glyph-name="afii10089" unicode="&#x447;" horiz-adv-x="497" 
d="M172 524h84l-35 -165q-3 -13 -3 -26q0 -49 55 -49h127l51 240h84l-111 -524h-84l44 208h-117q-134 0 -134 110q0 15 6 51z" />
    <glyph glyph-name="afii10090" unicode="&#x448;" horiz-adv-x="695" 
d="M404 76h150l95 448h84l-111 -524h-552l111 524h84l-95 -448h150l95 448h84z" />
    <glyph glyph-name="afii10091" unicode="&#x449;" horiz-adv-x="695" 
d="M632 0h-562l111 524h84l-95 -448h150l95 448h84l-95 -448h150l95 448h84l-98 -460h80l-39 -184h-70z" />
    <glyph glyph-name="afii10092" unicode="&#x44a;" horiz-adv-x="640" 
d="M115 524l267 1l-46 -218h118q95 0 140.5 -29.5t45.5 -92.5q0 -83 -67 -141q-50 -44 -123 -44h-263l95 448h-183zM287 76h152q50 0 81 30t31 78q0 23 -23.5 35t-55.5 12h-152z" />
    <glyph glyph-name="afii10093" unicode="&#x44b;" horiz-adv-x="734" 
d="M772 524l-111 -524h-83l111 524h83zM265 525l-46 -218h118q98 0 142 -28.5t44 -91.5q0 -85 -67 -143q-50 -44 -123 -44h-263l111 525h84zM170 76h152q49 0 80.5 31.5t31.5 75.5q0 23 -23.5 35.5t-55.5 12.5h-152z" />
    <glyph glyph-name="afii10094" unicode="&#x44c;" horiz-adv-x="523" 
d="M265 525l-46 -218h118q99 0 142.5 -28.5t43.5 -91.5q0 -85 -67 -143q-50 -44 -123 -44h-263l111 525h84zM170 76h152q50 0 81 31.5t31 76.5q0 23 -23.5 35t-55.5 12h-152z" />
    <glyph glyph-name="afii10095" unicode="&#x44d;" horiz-adv-x="534" 
d="M227 232l15 77h224q1 7 1 22q0 63 -28.5 97t-82.5 34q-107 0 -148 -114h-84q21 70 59 113q75 78 189 78q86 0 134 -52.5t48 -145.5q0 -42 -10 -88q-27 -127 -105.5 -201.5t-185.5 -74.5q-83 0 -128 42.5t-45 119.5q0 20 3 41h84v-13q0 -113 101 -113q65 0 113.5 47.5
t71.5 131.5z" />
    <glyph glyph-name="afii10096" unicode="&#x44e;" horiz-adv-x="768" 
d="M336 309q4 18 14.5 43t33.5 58.5t53 61.5t78 47.5t103 19.5q91 0 139.5 -49t48.5 -141q0 -163 -81 -267.5t-226 -104.5q-54 0 -93 17t-58.5 46.5t-28 60.5t-8.5 67q0 34 7 65h-113l-51 -233h-84l112 524h84l-45 -215h115zM602 462q-83 0 -142 -81.5t-59 -193.5
q0 -63 30 -98t85 -35q82 0 141.5 82t59.5 194q0 63 -30 97.5t-85 34.5z" />
    <glyph glyph-name="afii10097" unicode="&#x44f;" horiz-adv-x="564" 
d="M313 219q-84 3 -124 32t-40 87q0 82 55.5 134.5t134.5 52.5h263l-112 -525h-84l47 218h-28l-306 -218h-103zM502 449h-152q-49 0 -80.5 -32t-31.5 -76q0 -17 14 -27q26 -20 65 -20h152z" />
    <glyph glyph-name="uni0400" unicode="&#x400;" horiz-adv-x="667" 
d="M468 949l72 -148h-53l-125 148h106zM255 332l-54 -250h429l-17 -82h-523l155 729h506l-17 -82h-412l-50 -233h396l-18 -82h-395z" />
    <glyph glyph-name="afii10051" unicode="&#x402;" horiz-adv-x="686" 
d="M388 -140l23 82h42q45 0 63 17t26 51l57 257q4 15 4 31q0 67 -89 67h-199l-78 -365h-93l137 647h-200l17 82h492l-17 -82h-199l-42 -200h200q80 0 122 -38.5t42 -101.5q0 -24 -5 -43l-56 -264q-15 -66 -51.5 -103t-112.5 -37h-83z" />
    <glyph glyph-name="afii10052" unicode="&#x403;" horiz-adv-x="611" 
d="M603 949h112l-180 -148h-60zM183 0h-93l155 729h489l-17 -82h-396z" />
    <glyph glyph-name="afii10053" unicode="&#x404;" horiz-adv-x="717" 
d="M215 386h366l-17 -82h-364q-2 -15 -2 -45q0 -95 46 -147.5t130 -52.5q95 0 154 46q44 34 76 110h95q-94 -238 -332 -238q-130 0 -196.5 73t-66.5 203q0 127 50 231t131 172q100 85 241 85q241 0 241 -236q0 -25 -3 -53h-96q4 70 -9 113q-13 45 -52 69.5t-98 24.5
q-103 0 -182.5 -73.5t-111.5 -199.5z" />
    <glyph glyph-name="afii10054" unicode="&#x405;" horiz-adv-x="667" 
d="M629 515h-88q14 71 -24.5 109.5t-125.5 38.5q-74 0 -126 -34t-64 -89q-8 -42 14 -66t84 -42l172 -49q70 -20 100 -68t16 -115q-10 -47 -41 -92.5t-74 -74.5q-86 -56 -217 -56q-169 0 -223 104q-29 56 -11 151h88q-16 -64 14 -112q38 -61 155 -61q90 0 141 31
q27 17 47 44.5t26 56.5q9 43 -17.5 71.5t-91.5 46.5l-170 48q-135 37 -107 170q21 99 102.5 156.5t201.5 57.5q126 0 183.5 -59.5t35.5 -166.5z" />
    <glyph glyph-name="afii10055" unicode="&#x406;" horiz-adv-x="278" 
d="M349 729l-155 -729h-94l155 729h94z" />
    <glyph glyph-name="afii10056" unicode="&#x407;" horiz-adv-x="278" 
d="M349 729l-155 -729h-94l155 729h94zM306 907l-22 -103h-104l22 103h104zM467 907l-22 -103h-104l22 103h104z" />
    <glyph glyph-name="afii10057" unicode="&#x408;" horiz-adv-x="500" 
d="M487 729h94l-116 -547q-21 -98 -87 -151.5t-165 -53.5q-70 0 -111 32q-55 45 -55 113q0 22 6 48l14 64h94l-14 -66q-4 -16 -4 -34q0 -34 25 -55t65 -21q59 0 98 44q30 34 47 114z" />
    <glyph glyph-name="afii10058" unicode="&#x409;" horiz-adv-x="1087" 
d="M271 729h449l-66 -314h180q228 0 228 -181q0 -57 -22.5 -96t-66.5 -77q-70 -61 -172 -61h-329l138 647h-262l-49 -227q-92 -420 -293 -420l20 94q108 0 178 324zM583 82h227q65 0 104 35q57 49 57 122q0 35 -18 59q-25 35 -90 35h-227z" />
    <glyph glyph-name="afii10059" unicode="&#x40a;" horiz-adv-x="1164" 
d="M550 0l70 332h-373l-70 -332h-94l154 729h93l-66 -315h374l66 315h93l-66 -314h180q119 0 173.5 -45.5t54.5 -133.5q0 -102 -77.5 -169t-182.5 -67h-329zM660 82h227q72 0 116.5 45t44.5 110q0 96 -108 96h-227z" />
    <glyph glyph-name="afii10060" unicode="&#x40b;" horiz-adv-x="646" 
d="M332 447h160q80 0 122 -38.5t42 -101.5q0 -24 -5 -43l-56 -264h-93l57 267q4 15 4 31q0 67 -89 67h-159l-78 -365h-93l137 647h-200l17 82h492l-17 -82h-199z" />
    <glyph glyph-name="afii10061" unicode="&#x40c;" horiz-adv-x="664" 
d="M636 949h112l-180 -148h-60zM172 0h-93l155 729h93l-67 -315l430 315h120l-487 -354l344 -375h-119l-307 324z" />
    <glyph glyph-name="uni040D" unicode="&#x40d;" horiz-adv-x="731" 
d="M493 949l72 -148h-53l-125 148h106zM238 729h88l-127 -596l508 596h101l-155 -729h-88l126 591l-503 -591h-105z" />
    <glyph glyph-name="afii10062" unicode="&#x40e;" horiz-adv-x="530" 
d="M254 936h53v-8v-5q0 -22 22.5 -36t59.5 -14q94 0 110 63h56q-15 -59 -46 -86q-54 -49 -133 -49q-56 0 -91.5 27.5t-35.5 71.5q0 12 5 36zM135 0h-113l181 244l-139 485h113l104 -379l265 379h111z" />
    <glyph glyph-name="afii10145" unicode="&#x40f;" horiz-adv-x="722" 
d="M332 0h-249l155 729h94l-138 -647h373l138 647h94l-155 -729h-232l-29 -135h-80z" />
    <glyph glyph-name="uni0450" unicode="&#x450;" 
d="M356 747l72 -148h-53l-125 148h106zM563 234h-386q-5 -19 -5 -46q0 -64 32.5 -99t91.5 -35q101 0 156 105h84q-23 -81 -93.5 -131.5t-160.5 -50.5q-85 0 -136 50q-62 59 -62 146q0 61 24.5 136t59.5 122q37 50 96.5 79t124.5 29q81 0 136 -49.5t55 -121.5q0 -42 -14 -117
zM195 306h294q3 24 3 33q0 56 -31.5 89.5t-84.5 33.5q-61 0 -111 -43.5t-70 -112.5z" />
    <glyph glyph-name="afii10099" unicode="&#x452;" 
d="M313 -126l12 55q37 0 55 17t26 54l69 323q6 27 6 39q0 38 -23.5 61.5t-61.5 23.5q-68 0 -117.5 -47.5t-67.5 -130.5l-57 -269h-84l130 612h-81l15 69h81l10 48h84l-10 -48h160l-15 -69h-160l-36 -173q47 44 89 62t98 18q63 0 99 -33.5t36 -92.5q0 -20 -4 -37l-76 -356
q-14 -68 -50.5 -97t-126.5 -29z" />
    <glyph glyph-name="afii10100" unicode="&#x453;" horiz-adv-x="430" 
d="M443 747h112l-180 -148h-60zM181 524h295l-16 -76h-211l-95 -448h-84z" />
    <glyph glyph-name="afii10101" unicode="&#x454;" horiz-adv-x="534" 
d="M407 284l-15 -77h-224q-1 -7 -1 -22q0 -63 28.5 -97t82.5 -34q107 0 148 114h84q-21 -70 -59 -113q-75 -78 -189 -78q-86 0 -134 52.5t-48 145.5q0 42 10 88q27 127 105.5 201.5t185.5 74.5q83 0 128 -42.5t45 -119.5q0 -20 -3 -41h-84v13q0 113 -101 113
q-65 0 -113.5 -47.5t-71.5 -131.5z" />
    <glyph glyph-name="afii10102" unicode="&#x455;" horiz-adv-x="500" 
d="M464 378h-88q7 41 -15.5 62.5t-72.5 21.5q-51 0 -85 -21.5t-42 -57.5q-6 -28 13 -45.5t68 -29.5l76 -19q74 -19 101.5 -53.5t15.5 -92.5q-17 -76 -85 -121t-167 -45q-103 0 -145 44t-26 135h88q-4 -46 10 -67q25 -35 97 -35q55 0 93.5 22.5t45.5 59.5q6 29 -9 46t-56 27
l-74 19q-88 22 -118 55.5t-16 95.5q15 73 79 116.5t156 43.5q91 0 131 -42t25 -119z" />
    <glyph glyph-name="afii10103" unicode="&#x456;" horiz-adv-x="222" 
d="M261 524l-111 -524h-84l111 524h84zM305 729l-22 -103h-84l22 103h84z" />
    <glyph glyph-name="afii10104" unicode="&#x457;" horiz-adv-x="278" 
d="M290 527l-112 -527h-84l112 527h84zM258 708l-22 -103h-104l22 103h104zM419 708l-22 -103h-104l22 103h104z" />
    <glyph glyph-name="afii10105" unicode="&#x458;" horiz-adv-x="222" 
d="M180 524h84l-134 -633q-14 -62 -52 -85.5t-124 -23.5q-8 0 -19 3l15 71q18 -2 25 -2q38 0 53.5 14t24.5 56zM308 729l-22 -103h-84l22 103h84z" />
    <glyph glyph-name="afii10106" unicode="&#x459;" horiz-adv-x="786" 
d="M204 524l338 1l-46 -218h118q99 0 142.5 -28.5t43.5 -91.5q0 -85 -67 -143q-50 -44 -123 -44h-263l96 448h-172l-38 -164q-18 -77 -45 -137.5t-73 -103.5t-101 -43l17 80q36 0 66.5 54t51.5 148zM447 76h152q50 0 81 31.5t31 76.5q0 23 -23.5 35t-55.5 12h-152z" />
    <glyph glyph-name="afii10107" unicode="&#x45a;" horiz-adv-x="796" 
d="M348 0l50 233h-250l-50 -233h-84l112 524h84l-46 -215h250l46 215l83 1l-46 -218h118q99 0 142.5 -28.5t43.5 -91.5q0 -85 -67 -143q-50 -44 -123 -44h-263zM448 76h152q50 0 81 31.5t31 76.5q0 23 -23.5 35t-55.5 12h-152z" />
    <glyph glyph-name="afii10108" unicode="&#x45b;" 
d="M215 681l10 48h84l-10 -48h160l-15 -69h-160l-32 -173q47 44 89 62t98 18q63 0 99 -33.5t36 -92.5q0 -20 -4 -37l-80 -356h-84l73 323q6 27 6 39q0 38 -23.5 61.5t-61.5 23.5q-68 0 -117.5 -47.5t-67.5 -130.5l-61 -269h-84l130 612h-81l15 69h81z" />
    <glyph glyph-name="afii10109" unicode="&#x45c;" horiz-adv-x="510" 
d="M501 747h112l-180 -148h-60zM264 524l-47 -222l269 222h107l-327 -260l248 -264h-103l-212 216l-46 -216h-83l111 524h83z" />
    <glyph glyph-name="uni045D" unicode="&#x45d;" horiz-adv-x="560" 
d="M360 747l72 -148h-53l-125 148h106zM181 524h84l-88 -413l323 413h98l-111 -524h-83l87 413l-322 -413h-99z" />
    <glyph glyph-name="afii10110" unicode="&#x45e;" horiz-adv-x="500" 
d="M255 734h53v-8v-5q0 -22 22.5 -36t59.5 -14q94 0 110 63h56q-15 -59 -46 -86q-54 -49 -133 -49q-56 0 -91.5 27.5t-35.5 71.5q0 12 5 36zM501 524h89l-368 -634q-63 -108 -165 -108q-27 0 -49 10l16 75q36 -4 44 -4q28 0 44 10.5t36 41.5l52 81l-68 528h90l46 -407z" />
    <glyph glyph-name="afii10193" unicode="&#x45f;" horiz-adv-x="560" 
d="M254 0h-184l111 524h84l-95 -448h249l95 448h84l-111 -524h-164l-25 -120h-70z" />
    <glyph glyph-name="uni048C" unicode="&#x48c;" horiz-adv-x="698" 
d="M194 82h227q65 0 104 35q42 36 53 90q12 55 -14 91q-25 35 -90 35h-227zM306 610h94l-15 -69h-94l-26 -126h180q129 1 182.5 -52t44.5 -155q-18 -87 -88 -147q-70 -61 -172 -61h-329l115 541h-88l15 69h88l25 119h93z" />
    <glyph glyph-name="uni048D" unicode="&#x48d;" horiz-adv-x="523" 
d="M170 76h152q47 0 74 26q26 21 34 53q5 18 4 32t-14 24q-26 20 -65 20h-152zM165 449l16 76h84l-16 -76h97l-15 -69h-97l-15 -73h118q111 1 153.5 -36.5t29.5 -120.5q-14 -62 -64 -106t-123 -44h-263l80 380h-94l15 69h94z" />
    <glyph glyph-name="uni048E" unicode="&#x48e;" horiz-adv-x="667" 
d="M590 441q29 31 40 78q13 60 -17 94t-97 34h-194l-55 -256h194q39 0 70 12l-59 59l60 38zM652 379l74 -74l-59 -38l-71 71q-55 -29 -117 -29h-229l-66 -309h-93l155 729h301q108 0 154.5 -55.5t24.5 -158.5q-18 -84 -74 -136z" />
    <glyph glyph-name="uni048F" unicode="&#x48f;" 
d="M449 151q28 46 41 104q19 94 -10.5 150t-98.5 56q-66 0 -118 -55.5t-71 -147.5t9 -147.5t94 -55.5q60 0 109 43l-72 73l59 38zM507 93l79 -79l-60 -38l-65 66q-74 -65 -168 -65q-96 0 -144 78l-58 -273h-84l158 742h77l-17 -79q79 94 187 94q104 0 148.5 -77t15.5 -209
q-20 -94 -69 -160z" />
    <glyph glyph-name="afii10050" unicode="&#x490;" horiz-adv-x="611" 
d="M95 0h-93l155 729l396 -1l21 97h93l-38 -178h-396z" />
    <glyph glyph-name="afii10098" unicode="&#x491;" horiz-adv-x="430" 
d="M115 524h211l22 105h84l-39 -181h-211l-95 -448h-84z" />
    <glyph glyph-name="uni0492" unicode="&#x492;" horiz-adv-x="611" 
d="M290 504h92l-15 -69h-91l-93 -435h-93l92 435h-90l15 69h90l48 225h489l-17 -82h-396z" />
    <glyph glyph-name="uni0493" unicode="&#x493;" horiz-adv-x="430" 
d="M146 361l35 163h295l-16 -76h-211l-18 -87h103l-15 -69h-103l-62 -292h-84l62 292h-88l15 69h87z" />
    <glyph glyph-name="uni0494" unicode="&#x494;" horiz-adv-x="611" 
d="M183 0h-93l155 729h489l-17 -82h-397l-42 -200h160q80 0 122 -38.5t42 -101.5q0 -24 -5 -43l-56 -264q-15 -66 -51.5 -103t-112.5 -37h-83l23 82h42q45 0 63 17t26 51l57 257q4 15 4 31q0 67 -89 67h-159z" />
    <glyph glyph-name="uni0495" unicode="&#x495;" horiz-adv-x="430" 
d="M204 237l-50 -237h-84l111 524h295l-16 -76h-211l-29 -139h90q63 0 99 -33.5t36 -92.5q0 -20 -4 -37l-31 -146q-14 -68 -50.5 -97t-126.5 -29l12 55q37 0 55 17t26 54l24 113q6 27 6 39q0 38 -23.5 61.5t-61.5 23.5h-67z" />
    <glyph glyph-name="uni0496" unicode="&#x496;" horiz-adv-x="897" 
d="M859 74h64l-45 -209h-80l29 135h-30l-217 324l-69 -324h-93l69 324l-355 -324h-110l405 375l-212 354h120l173 -308l65 308h93l-65 -308l303 308h120l-362 -354z" />
    <glyph glyph-name="uni0497" unicode="&#x497;" horiz-adv-x="818" 
d="M762 64h74l-39 -184h-70l26 120h-34l-212 216l-46 -216h-83l46 216l-304 -216h-103l360 264l-217 260h107l175 -222l47 222h83l-47 -222l269 222h107l-327 -260z" />
    <glyph glyph-name="uni0498" unicode="&#x498;" horiz-adv-x="652" 
d="M268 -21q-91 9 -144 55.5t-53 127.5q0 27 8 70h88q-6 -24 -6 -44q0 -64 46.5 -96.5t128.5 -32.5q94 0 155 41t61 108q0 43 -38 78t-99 35h-108l17 82h88q69 0 129.5 51t60.5 111q0 45 -37.5 71.5t-102.5 26.5q-87 0 -142 -38.5t-71 -109.5h-88q23 107 106 166.5t209 59.5
q104 0 161.5 -43.5t57.5 -121.5q0 -72 -39 -124t-104 -78q97 -39 97 -134q0 -120 -81.5 -187t-220.5 -75l20 -12q59 -39 59 -96q0 -35 -35 -55t-99 -20q-38 0 -68 10l-9 45q30 -10 70 -10q29 0 47.5 12t18.5 32q0 27 -20 50t-63 45z" />
    <glyph glyph-name="uni0499" unicode="&#x499;" horiz-adv-x="495" 
d="M194 -21q-134 15 -134 130q0 19 5 47h88q-4 -46 10 -67q25 -35 96 -35q56 0 96.5 27t40.5 67q0 28 -23.5 50.5t-61.5 22.5h-74l16 76h62q52 0 84.5 28t32.5 65q0 30 -26 51t-70 21q-102 0 -123 -84h-88q17 77 75 119t149 42q80 0 125.5 -33.5t45.5 -92.5q0 -99 -93 -146
q64 -31 64 -98q0 -81 -60 -132t-159 -59l21 -12q59 -39 59 -96q0 -35 -35 -55t-99 -20q-38 0 -68 10l-9 45q30 -10 70 -10q29 0 47.5 12t18.5 32q0 27 -20 50t-63 45z" />
    <glyph glyph-name="uni049A" unicode="&#x49a;" horiz-adv-x="664" 
d="M592 74h82l-45 -209h-80l29 135h-30l-307 324l-69 -324h-93l155 729h93l-67 -315l430 315h120l-487 -354z" />
    <glyph glyph-name="uni049B" unicode="&#x49b;" horiz-adv-x="510" 
d="M454 64h73l-39 -184h-70l26 120h-33l-212 216l-46 -216h-83l111 524h83l-47 -222l269 222h107l-327 -260z" />
    <glyph glyph-name="uni049C" unicode="&#x49c;" horiz-adv-x="664" 
d="M297 265l-56 59l-69 -324h-93l155 729h93l-67 -315l81 60l35 163h84l-19 -91l249 183h120l-391 -284l-30 -142l278 -303h-119l-182 192l-17 -79h-84z" />
    <glyph glyph-name="uni049D" unicode="&#x49d;" horiz-adv-x="510" 
d="M228 186l-29 30l-46 -216h-83l111 524h83l-47 -222l43 36l27 126h64l-13 -62l148 122h107l-276 -219l-16 -78l213 -227h-103l-130 132l-11 -52h-64z" />
    <glyph glyph-name="uni049E" unicode="&#x49e;" horiz-adv-x="664" 
d="M308 638h90l-15 -69h-90l-33 -155l430 315h120l-487 -354l335 -375h-110l-307 324l-69 -324h-93l121 569h-92l15 69h92l19 91h93z" />
    <glyph glyph-name="uni049F" unicode="&#x49f;" horiz-adv-x="510" 
d="M167 456l14 68h83l-14 -68h60l-15 -59h-58l-20 -95l269 222h107l-327 -260l248 -264h-103l-212 216l-46 -216h-83l84 397h-64l15 59h62z" />
    <glyph glyph-name="uni04A0" unicode="&#x4a0;" horiz-adv-x="704" 
d="M366 729l-66 -315l430 315h120l-487 -354l344 -375h-119l-307 324l-69 -324h-94l137 647h-230l17 82h324z" />
    <glyph glyph-name="uni04A1" unicode="&#x4a1;" horiz-adv-x="618" 
d="M373 525l-48 -223l269 222h107l-327 -260l248 -264h-103l-212 216l-46 -216h-83l95 448h-183l16 76z" />
    <glyph glyph-name="uni04A2" unicode="&#x4a2;" horiz-adv-x="722" 
d="M644 0h-94l71 332h-373l-71 -332h-94l155 729h93l-67 -315h374l67 315h94l-140 -655h81l-45 -209h-80z" />
    <glyph glyph-name="uni04A3" unicode="&#x4a3;" horiz-adv-x="561" 
d="M488 0h-84l49 233h-250l-49 -233h-84l111 524h84l-46 -215h250l46 215h84l-98 -460h70l-39 -184h-70z" />
    <glyph glyph-name="uni04A4" unicode="&#x4a4;" horiz-adv-x="1010" 
d="M642 0h-92l71 332h-373l-71 -332h-94l155 729h94l-67 -315h373l66 315h429l-17 -82h-336z" />
    <glyph glyph-name="uni04A5" unicode="&#x4a5;" horiz-adv-x="753" 
d="M487 0h-83l49 233h-250l-49 -233h-84l111 524h84l-46 -215h250l45 215h285l-16 -76h-201z" />
    <glyph glyph-name="uni04A6" unicode="&#x4a6;" horiz-adv-x="1061" 
d="M799 729l-58 -282h160q80 0 122 -38.5t42 -101.5q0 -24 -5 -43l-56 -264q-15 -66 -51.5 -103t-112.5 -37h-83l23 82h42q45 0 63 17t26 51l57 257q4 15 4 31q0 67 -89 67h-159l-78 -365h-96l138 647h-373l-138 -647h-94l155 729h561z" />
    <glyph glyph-name="uni04A7" unicode="&#x4a7;" horiz-adv-x="803" 
d="M552 309h90q63 0 99 -33.5t36 -92.5q0 -20 -4 -37l-31 -146q-14 -68 -50.5 -97t-126.5 -29l12 55q37 0 55 17t26 54l24 113q6 27 6 39q0 38 -23.5 61.5t-61.5 23.5h-67l-50 -237h-83l95 448h-249l-95 -448h-84l111 524h417z" />
    <glyph glyph-name="uni04A8" unicode="&#x4a8;" horiz-adv-x="722" 
d="M381 58q83 0 150 46q-39 55 -39 120q0 85 48 155.5t116 70.5q37 0 65.5 -27.5t28.5 -60.5q0 -125 -93 -248q22 -22 65 -56l-72 -78l-65 62q-93 -65 -218 -65q-131 0 -198 85q-57 72 -57 180q0 94 34.5 190.5t93.5 167.5q117 141 292 141q143 0 206 -107q28 -50 32 -131
h-96q-6 81 -44.5 119t-114.5 38q-136 0 -226 -133q-81 -121 -81 -267q0 -91 47.5 -146.5t125.5 -55.5zM608 180q46 68 46 144q0 34 -16 34q-22 0 -35 -31t-13 -67q0 -46 18 -80z" />
    <glyph glyph-name="uni04A9" unicode="&#x4a9;" horiz-adv-x="500" 
d="M277 54q27 0 57 11q-25 37 -25 82q0 63 36 111t91 48q37 0 62.5 -27t25.5 -65q0 -86 -74 -158q21 -9 50 -12l-38 -65q-37 6 -74 30q-59 -32 -125 -32q-94 0 -143 62q-44 55 -44 131q0 69 23 142.5t58 119.5q82 107 224 107q83 0 129 -47q44 -46 44 -100q0 -1 -0.5 -5
t-1 -11t-0.5 -13l-1 -15h-84q1 9 1 22q0 43 -27.5 67.5t-74.5 24.5q-92 0 -148 -89q-54 -85 -54 -192q0 -58 30.5 -92.5t82.5 -34.5zM396 106q45 47 45 116q0 28 -15 28q-16 0 -27 -33.5t-11 -69.5q0 -22 8 -41z" />
    <glyph glyph-name="uni04AA" unicode="&#x4aa;" horiz-adv-x="722" 
d="M323 -21q-98 12 -154 83q-57 72 -57 180q0 94 34.5 190.5t93.5 167.5q117 141 292 141q143 0 206 -107q28 -50 32 -131h-96q-6 81 -44.5 119t-114.5 38q-136 0 -226 -133q-81 -121 -81 -267q0 -91 47.5 -146.5t125.5 -55.5q59 0 112.5 26t84.5 71q25 33 59 111h98
q-54 -130 -100 -180q-88 -95 -234 -108l21 -12q59 -39 59 -96q0 -35 -35 -55t-99 -20q-38 0 -68 10l-9 45q30 -10 70 -10q29 0 47.5 12t18.5 32q0 27 -20 50t-63 45z" />
    <glyph glyph-name="uni04AB" unicode="&#x4ab;" horiz-adv-x="500" 
d="M215 -19q-58 12 -95 58q-44 55 -44 131q0 69 23 142.5t58 119.5q82 107 224 107q83 0 129 -47q44 -46 44 -100q0 -1 -0.5 -5t-1 -11t-0.5 -13l-1 -15h-84q1 9 1 22q0 43 -27.5 67.5t-74.5 24.5q-92 0 -148 -89q-54 -85 -54 -192q0 -58 30.5 -92.5t82.5 -34.5
q111 0 157 126h84q-23 -79 -58 -120q-60 -70 -164 -81q13 -6 22 -13q59 -39 59 -96q0 -35 -35 -55t-99 -20q-38 0 -68 10l-9 45q30 -10 70 -10q29 0 47.5 12t18.5 32q0 27 -20 50q-19 23 -67 47z" />
    <glyph glyph-name="uni04AC" unicode="&#x4ac;" horiz-adv-x="611" 
d="M353 0h-93l138 647h-240l17 82h572l-17 -82h-239l-122 -573h80l-45 -209h-80z" />
    <glyph glyph-name="uni04AD" unicode="&#x4ad;" horiz-adv-x="400" 
d="M246 64h70l-39 -184h-70l26 120h-84l95 448h-144l16 76h372l-16 -76h-144z" />
    <glyph glyph-name="uni04AE" unicode="&#x4ae;" horiz-adv-x="667" 
d="M448 286l-61 -286h-94l61 286l-186 443h112l136 -357l289 357h111z" />
    <glyph glyph-name="uni04AF" unicode="&#x4af;" horiz-adv-x="667" 
d="M429 86l-41 -286h-93l41 286l-179 438h115l125 -350l217 350h111z" />
    <glyph glyph-name="uni04B0" unicode="&#x4b0;" horiz-adv-x="667" 
d="M334 190h-220l14 70h220l5 26l-194 443h115l144 -355l278 355h111l-361 -443l-5 -26h220l-14 -70h-220l-38 -190h-93z" />
    <glyph glyph-name="uni04B1" unicode="&#x4b1;" horiz-adv-x="667" 
d="M429 86h220l-10 -70h-220l-31 -216h-93l31 216h-220l10 70h220l-178 438h115l124 -350l218 350h111z" />
    <glyph glyph-name="uni04B2" unicode="&#x4b2;" horiz-adv-x="665" 
d="M614 74h51l-45 -209h-80l29 135h-35l-134 304l-265 -304h-113l338 374l-167 355h113l126 -286l249 286h111l-321 -355z" />
    <glyph glyph-name="uni04B3" unicode="&#x4b3;" horiz-adv-x="496" 
d="M444 64h42l-39 -184h-70l26 120h-27l-89 201l-175 -201h-95l241 267l-120 257h95l86 -190l166 190h94l-230 -253z" />
    <glyph glyph-name="uni04B4" unicode="&#x4b4;" horiz-adv-x="879" 
d="M473 647l-122 -565h373l138 647h94l-139 -655h92l-45 -209h-80l29 135h-572l138 647h-221l17 82h533l-17 -82h-218z" />
    <glyph glyph-name="uni04B5" unicode="&#x4b5;" horiz-adv-x="629" 
d="M318 448l-79 -372h249l95 448h84l-97 -460h80l-39 -184h-70l26 120h-428l95 448h-134l16 76h352l-16 -76h-134z" />
    <glyph glyph-name="uni04B6" unicode="&#x4b6;" horiz-adv-x="642" 
d="M548 0h-105l60 282h-180q-80 0 -122 38.5t-42 101.5q0 24 5 43l56 264h93l-57 -267q-4 -15 -4 -31q0 -67 89 -67h179l78 365h93l-139 -655h92l-45 -209h-80z" />
    <glyph glyph-name="uni04B7" unicode="&#x4b7;" horiz-adv-x="497" 
d="M435 0h-95l44 208h-117q-134 0 -134 110q0 15 6 51l33 155h84l-35 -165q-3 -13 -3 -26q0 -49 55 -49h127l51 240h84l-97 -460h80l-39 -184h-70z" />
    <glyph glyph-name="uni04B8" unicode="&#x4b8;" horiz-adv-x="642" 
d="M351 364l28 130h84l-28 -130h85l78 365h93l-155 -729h-93l60 282h-85l-28 -132h-84l28 132h-11q-80 0 -122 38.5t-42 101.5q0 24 5 43l56 264h93l-57 -267q-4 -15 -4 -31q0 -67 89 -67h10z" />
    <glyph glyph-name="uni04B9" unicode="&#x4b9;" horiz-adv-x="497" 
d="M254 208q-121 5 -121 110q0 15 6 51l33 155h84l-35 -165q-3 -13 -3 -26q0 -48 52 -49l22 103h70l-22 -103h60l51 240h84l-111 -524h-84l44 208h-60l-20 -95h-70z" />
    <glyph glyph-name="uni04BA" unicode="&#x4ba;" horiz-adv-x="642" 
d="M347 447h180q80 0 122 -38.5t42 -101.5q0 -24 -5 -43l-56 -264h-93l57 267q4 15 4 31q0 67 -89 67h-179l-78 -365h-93l155 729h93z" />
    <glyph glyph-name="uni04BB" unicode="&#x4bb;" horiz-adv-x="497" 
d="M496 0h-84l35 165q3 13 3 26q0 49 -55 49h-127l-51 -240h-84l111 524h84l-44 -208h117q134 0 134 -110q0 -15 -6 -51z" />
    <glyph glyph-name="uni04BC" unicode="&#x4bc;" horiz-adv-x="722" 
d="M272 503h400q-6 81 -44.5 119t-114.5 38q-136 0 -226 -133zM140 421q-50 2 -99 46.5t-49 104.5q0 41 13.5 85.5t34.5 71.5q50 65 135 65q49 0 77 -29q26 -26 26 -60q0 -8 -1 -17v-9h-51q1 5 1 13q0 25 -16.5 40t-44.5 15q-56 0 -89 -53q-33 -51 -33 -115
q0 -35 18.5 -55.5t49.5 -20.5h63q28 55 63 97q117 141 292 141q143 0 206 -107q34 -61 34 -213h-535q-29 -79 -29 -161q0 -91 47.5 -146.5t125.5 -55.5q59 0 112.5 26t84.5 71q25 33 59 111h98q-54 -130 -100 -180q-100 -109 -268 -109q-131 0 -198 85q-57 72 -57 180
q0 86 30 179z" />
    <glyph glyph-name="uni04BD" unicode="&#x4bd;" horiz-adv-x="605" 
d="M314 348h263q1 9 1 22q0 43 -27.5 67.5t-74.5 24.5q-92 0 -148 -89q-10 -16 -14 -25zM198 272q-54 3 -88.5 44.5t-34.5 78.5q0 62 33 105q33 42 89 42q34 0 52 -18q18 -20 18 -40l-1 -4v-8l-1 -6h-33v9q0 37 -41 37q-37 0 -59 -36q-21 -34 -21 -77q0 -23 12 -37t34 -14
h64q20 48 46 84q82 107 224 107q83 0 129 -47q44 -46 44 -100q0 -74 -16 -120h-362q-12 -46 -12 -91q0 -58 30.5 -92.5t82.5 -34.5q111 0 157 126h84q-23 -79 -58 -120q-71 -83 -197 -83q-94 0 -143 62q-44 55 -44 131q0 51 12 102z" />
    <glyph glyph-name="uni04BE" unicode="&#x4be;" horiz-adv-x="722" 
d="M272 503h400q-6 81 -44.5 119t-114.5 38q-136 0 -226 -133zM323 -21q-100 12 -156 83q-57 72 -57 180q0 86 30 179q-50 2 -99 46.5t-49 104.5q0 41 13.5 85.5t34.5 71.5q50 65 135 65q49 0 77 -29q26 -26 26 -60q0 -8 -1 -17v-9h-51q1 5 1 13q0 25 -16.5 40t-44.5 15
q-56 0 -89 -53q-33 -51 -33 -115q0 -35 18.5 -55.5t49.5 -20.5h63q28 55 63 97q117 141 292 141q143 0 206 -107q34 -61 34 -213h-535q-29 -79 -29 -161q0 -91 47.5 -146.5t125.5 -55.5q59 0 112.5 26t84.5 71q25 33 59 111h98q-54 -130 -100 -180q-88 -95 -232 -108l21 -12
q59 -39 59 -96q0 -35 -35 -55t-99 -20q-38 0 -68 10l-9 45q30 -10 70 -10q29 0 47.5 12t18.5 32q0 27 -20 50t-63 45z" />
    <glyph glyph-name="uni04BF" unicode="&#x4bf;" horiz-adv-x="605" 
d="M314 348h263q1 9 1 22q0 43 -27.5 67.5t-74.5 24.5q-92 0 -148 -89q-10 -16 -14 -25zM330 -20q-63 12 -100 59q-44 55 -44 131q0 51 12 102q-54 3 -88.5 44.5t-34.5 78.5q0 62 33 105q33 42 89 42q34 0 52 -18q18 -20 18 -40l-1 -4v-8l-1 -6h-33v9q0 37 -41 37
q-37 0 -59 -36q-21 -34 -21 -77q0 -23 12 -37t34 -14h64q20 48 46 84q82 107 224 107q83 0 129 -47q44 -46 44 -100q0 -74 -16 -120h-362q-12 -46 -12 -91q0 -58 30.5 -92.5t82.5 -34.5q111 0 157 126h84q-23 -79 -58 -120q-60 -70 -161 -81q13 -6 22 -13q59 -39 59 -96
q0 -35 -35 -55t-99 -20q-38 0 -68 10l-9 45q30 -10 70 -10q29 0 47.5 12t18.5 32q0 27 -20 50q-18 22 -65 46z" />
    <glyph glyph-name="uni04C0" unicode="&#x4c0;" horiz-adv-x="278" 
d="M349 729l-155 -729h-94l155 729h94z" />
    <glyph glyph-name="uni04C1" unicode="&#x4c1;" horiz-adv-x="897" 
d="M513 936h53v-8v-5q0 -22 22.5 -36t59.5 -14q94 0 110 63h56q-15 -59 -46 -86q-54 -49 -133 -49q-56 0 -91.5 27.5t-35.5 71.5q0 12 5 36zM487 324l-355 -324h-110l405 375l-212 354h120l173 -308l65 308h93l-65 -308l303 308h120l-362 -354l245 -375h-110l-217 324
l-69 -324h-93z" />
    <glyph glyph-name="uni04C2" unicode="&#x4c2;" horiz-adv-x="818" 
d="M425 734h53v-8v-5q0 -22 22.5 -36t59.5 -14q94 0 110 63h56q-15 -59 -46 -86q-54 -49 -133 -49q-56 0 -91.5 27.5t-35.5 71.5q0 12 5 36zM424 216l-304 -216h-103l360 264l-217 260h107l175 -222l47 222h83l-47 -222l269 222h107l-327 -260l248 -264h-103l-212 216
l-46 -216h-83z" />
    <glyph glyph-name="uni04C3" unicode="&#x4c3;" horiz-adv-x="664" 
d="M459 294h-224l-63 -294h-93l155 729h93l-67 -315l430 315h120l-487 -354h156q70 -1 118.5 -47t48.5 -102q0 -15 -2 -22l-33 -204q-14 -66 -51 -103t-113 -37h-83l23 82h42q45 0 63 17t26 51l40 191q1 3 1 11q0 30 -28.5 56t-71.5 26z" />
    <glyph glyph-name="uni04C4" unicode="&#x4c4;" horiz-adv-x="510" 
d="M483 143q0 -20 -4 -37l-19 -106q-14 -68 -50.5 -97t-126.5 -29l12 55q37 0 55 17t26 54l20 93q6 27 6 39q0 64 -78 64h-129l-42 -196h-83l111 524h83l-47 -222l269 222h107l-327 -260h90q72 0 99.5 -32t27.5 -89z" />
    <glyph glyph-name="uni04C7" unicode="&#x4c7;" horiz-adv-x="722" 
d="M550 0l71 332h-373l-71 -332h-94l155 729h94l-67 -315h373l67 315h94l-155 -729q-14 -66 -51 -103t-113 -37h-83l23 82h42q75 0 88 58z" />
    <glyph glyph-name="uni04C8" unicode="&#x4c8;" horiz-adv-x="561" 
d="M404 0l49 233h-250l-49 -233h-84l111 524h84l-46 -215h250l46 215h84l-111 -524q-14 -68 -50.5 -97t-126.5 -29l12 55q37 0 55 17t26 54z" />
    <glyph glyph-name="uni04CB" unicode="&#x4cb;" horiz-adv-x="642" 
d="M432 0l-30 -135h-80l45 209h92l44 208h-180q-80 0 -122 38.5t-42 101.5q0 24 5 43l56 264h93l-57 -267q-4 -15 -4 -31q0 -67 89 -67h179l78 365h93l-155 -729h-104z" />
    <glyph glyph-name="uni04CC" unicode="&#x4cc;" horiz-adv-x="497" 
d="M330 0l-26 -120h-70l39 184h80l31 144h-117q-134 0 -134 110q0 15 6 51l33 155h84l-35 -165q-3 -13 -3 -26q0 -49 55 -49h127l51 240h84l-111 -524h-94z" />
    <glyph glyph-name="uni04D0" unicode="&#x4d0;" horiz-adv-x="667" 
d="M386 936h53v-8v-5q0 -22 22.5 -36t59.5 -14q94 0 110 63h56q-15 -59 -46 -86q-54 -49 -133 -49q-56 0 -91.5 27.5t-35.5 71.5q0 12 5 36zM524 219h-285l-123 -219h-99l415 729h120l101 -729h-102zM514 297l-40 333l-191 -333h231z" />
    <glyph glyph-name="uni04D1" unicode="&#x4d1;" 
d="M285 734h53v-8v-5q0 -22 22.5 -36t59.5 -14q94 0 110 63h56q-15 -59 -46 -86q-54 -49 -133 -49q-56 0 -91.5 27.5t-35.5 71.5q0 12 5 36zM552 51l-13 -65q-12 -2 -14 -3q-25 -6 -39 -6q-36 0 -56 17.5t-20 48.5v4v7q-50 -44 -88 -57q-55 -20 -113 -20q-67 0 -105.5 34
t-38.5 94q0 92 82 144q37 23 81 33.5t144 19.5q55 5 74.5 16.5t26.5 42.5l3 18q2 16 2 19q0 28 -30.5 46t-75.5 18q-70 0 -107 -37q-18 -18 -30 -56h-84q14 83 76.5 126.5t166.5 43.5q79 0 126.5 -31t47.5 -82q0 -10 -6 -37l-64 -301q-1 -3 -1 -10q0 -29 38 -29q8 0 17 2z
M431 164l20 94q-43 -15 -146 -29q-71 -10 -103 -30q-22 -13 -35.5 -36t-13.5 -48q0 -32 23 -49t66 -17q66 0 122.5 34.5t66.5 80.5z" />
    <glyph glyph-name="uni04D2" unicode="&#x4d2;" horiz-adv-x="667" 
d="M501 904l-22 -103h-104l22 103h104zM662 904l-22 -103h-104l22 103h104zM524 219h-285l-123 -219h-99l415 729h120l101 -729h-102zM514 297l-40 333l-191 -333h231z" />
    <glyph glyph-name="uni04D3" unicode="&#x4d3;" 
d="M400 702l-22 -103h-104l22 103h104zM561 702l-22 -103h-104l22 103h104zM552 51l-13 -65q-12 -2 -14 -3q-25 -6 -39 -6q-36 0 -56 17.5t-20 48.5v4v7q-50 -44 -88 -57q-55 -20 -113 -20q-67 0 -105.5 34t-38.5 94q0 92 82 144q37 23 81 33.5t144 19.5q55 5 74.5 16.5
t26.5 42.5l3 18q2 16 2 19q0 28 -30.5 46t-75.5 18q-70 0 -107 -37q-18 -18 -30 -56h-84q14 83 76.5 126.5t166.5 43.5q79 0 126.5 -31t47.5 -82q0 -10 -6 -37l-64 -301q-1 -3 -1 -10q0 -29 38 -29q8 0 17 2zM431 164l20 94q-43 -15 -146 -29q-71 -10 -103 -30
q-22 -13 -35.5 -36t-13.5 -48q0 -32 23 -49t66 -17q66 0 122.5 34.5t66.5 80.5z" />
    <glyph glyph-name="uni04D4" unicode="&#x4d4;" horiz-adv-x="1000" 
d="M513 214h-269l-130 -214h-103l454 729h622l-17 -82h-371l-49 -233h351l-18 -82h-351l-53 -250h388l-17 -82h-482zM531 295l74 352h-100l-212 -352h238z" />
    <glyph glyph-name="uni04D5" unicode="&#x4d5;" horiz-adv-x="889" 
d="M225 369h-84q21 77 53 109q64 61 193 61q85 0 135 -40q21 -18 24 -25q73 65 182 65q76 0 131.5 -50t55.5 -119q0 -44 -14 -119l-3 -17h-386q-5 -22 -5 -53v-12v-6q0 -48 43 -84q29 -25 82 -25q100 0 155 105h84q-24 -82 -94 -132t-161 -50q-117 0 -174 102
q-105 -102 -241 -102q-65 0 -103.5 34.5t-38.5 93.5q0 43 22 81.5t60 62.5q38 23 81.5 33t140.5 18q54 5 73 17t27 44l5 25q2 14 2 19q0 26 -28 41.5t-76 15.5q-59 0 -92 -22t-49 -71zM421 164l20 93q-27 -10 -47 -13.5t-95 -14.5q-70 -9 -103 -30q-49 -31 -49 -84
q0 -66 90 -66q63 0 118.5 35t65.5 80zM530 306h294q3 22 3 33q0 56 -31 89.5t-84 33.5q-62 0 -110.5 -41.5t-71.5 -114.5z" />
    <glyph glyph-name="uni04D6" unicode="&#x4d6;" horiz-adv-x="667" 
d="M392 936h53v-8v-5q0 -22 22.5 -36t59.5 -14q94 0 110 63h56q-15 -59 -46 -86q-54 -49 -133 -49q-56 0 -91.5 27.5t-35.5 71.5q0 12 5 36zM255 332l-54 -250h429l-17 -82h-523l155 729h506l-17 -82h-412l-50 -233h396l-18 -82h-395z" />
    <glyph glyph-name="uni04D7" unicode="&#x4d7;" 
d="M280 734h53v-8v-5q0 -22 22.5 -36t59.5 -14q94 0 110 63h56q-15 -59 -46 -86q-54 -49 -133 -49q-56 0 -91.5 27.5t-35.5 71.5q0 12 5 36zM563 234h-386q-5 -19 -5 -46q0 -64 32.5 -99t91.5 -35q101 0 156 105h84q-23 -81 -93.5 -131.5t-160.5 -50.5q-85 0 -136 50
q-62 59 -62 146q0 61 24.5 136t59.5 122q37 50 96.5 79t124.5 29q81 0 136 -49.5t55 -121.5q0 -42 -14 -117zM195 306h294q3 24 3 33q0 56 -31.5 89.5t-84.5 33.5q-61 0 -111 -43.5t-70 -112.5z" />
    <glyph glyph-name="uni04D8" unicode="&#x4d8;" horiz-adv-x="722" 
d="M645 297q29 79 29 161q0 91 -47.5 146.5t-125.5 55.5q-59 0 -112.5 -26t-84.5 -71q-25 -33 -59 -111h-98q54 130 100 180q100 109 268 109q131 0 198 -85q57 -72 57 -180q0 -94 -34.5 -190.5t-93.5 -167.5q-117 -141 -292 -141q-143 0 -206 107q-34 61 -34 213h535z
M608 215h-400q6 -81 44.5 -119t114.5 -38q136 0 226 133z" />
    <glyph glyph-name="afii10846" unicode="&#x4d9;" horiz-adv-x="495" 
d="M454 244q12 46 12 91q0 58 -30.5 92.5t-82.5 34.5q-111 0 -157 -126h-84q23 79 58 120q71 83 197 83q94 0 143 -62q44 -55 44 -131q0 -69 -23 -142.5t-58 -119.5q-82 -107 -224 -107q-83 0 -129 47q-44 46 -44 100q0 74 16 120h362zM426 168h-263q-1 -9 -1 -22
q0 -43 27.5 -67.5t74.5 -24.5q92 0 148 89q10 16 14 25z" />
    <glyph glyph-name="uni04DA" unicode="&#x4da;" horiz-adv-x="722" 
d="M521 904l-22 -103h-104l22 103h104zM682 904l-22 -103h-104l22 103h104zM645 297q29 79 29 161q0 91 -47.5 146.5t-125.5 55.5q-59 0 -112.5 -26t-84.5 -71q-25 -33 -59 -111h-98q54 130 100 180q100 109 268 109q131 0 198 -85q57 -72 57 -180q0 -94 -34.5 -190.5
t-93.5 -167.5q-117 -141 -292 -141q-143 0 -206 107q-34 61 -34 213h535zM608 215h-400q6 -81 44.5 -119t114.5 -38q136 0 226 133z" />
    <glyph glyph-name="uni04DB" unicode="&#x4db;" horiz-adv-x="495" 
d="M373 702l-22 -103h-104l22 103h104zM534 702l-22 -103h-104l22 103h104zM454 244q12 46 12 91q0 58 -30.5 92.5t-82.5 34.5q-111 0 -157 -126h-84q23 79 58 120q71 83 197 83q94 0 143 -62q44 -55 44 -131q0 -69 -23 -142.5t-58 -119.5q-82 -107 -224 -107q-83 0 -129 47
q-44 46 -44 100q0 74 16 120h362zM426 168h-263q-1 -9 -1 -22q0 -43 27.5 -67.5t74.5 -24.5q92 0 148 89q10 16 14 25z" />
    <glyph glyph-name="uni04DC" unicode="&#x4dc;" horiz-adv-x="897" 
d="M628 904l-22 -103h-104l22 103h104zM789 904l-22 -103h-104l22 103h104zM487 324l-355 -324h-110l405 375l-212 354h120l173 -308l65 308h93l-65 -308l303 308h120l-362 -354l245 -375h-110l-217 324l-69 -324h-93z" />
    <glyph glyph-name="uni04DD" unicode="&#x4dd;" horiz-adv-x="818" 
d="M540 702l-22 -103h-104l22 103h104zM701 702l-22 -103h-104l22 103h104zM424 216l-304 -216h-103l360 264l-217 260h107l175 -222l47 222h83l-47 -222l269 222h107l-327 -260l248 -264h-103l-212 216l-46 -216h-83z" />
    <glyph glyph-name="uni04DE" unicode="&#x4de;" horiz-adv-x="652" 
d="M482 904l-22 -103h-104l22 103h104zM643 904l-22 -103h-104l22 103h104zM307 321l17 82h88q69 0 129.5 51t60.5 111q0 45 -37.5 71.5t-102.5 26.5q-87 0 -142 -38.5t-71 -109.5h-88q23 107 106 166.5t209 59.5q104 0 161.5 -43.5t57.5 -121.5q0 -72 -39 -124t-104 -78
q97 -39 97 -134q0 -128 -91.5 -195.5t-244.5 -67.5q-109 0 -175.5 47.5t-66.5 137.5q0 27 8 70h88q-6 -24 -6 -44q0 -64 46.5 -96.5t128.5 -32.5q94 0 155 41t61 108q0 43 -38 78t-99 35h-108z" />
    <glyph glyph-name="uni04DF" unicode="&#x4df;" horiz-adv-x="495" 
d="M355 702l-22 -103h-104l22 103h104zM516 702l-22 -103h-104l22 103h104zM237 221l16 76h62q52 0 84.5 28t32.5 65q0 30 -26 51t-70 21q-102 0 -123 -84h-88q17 77 75 119t149 42q80 0 125.5 -33.5t45.5 -92.5q0 -99 -93 -146q64 -31 64 -98q0 -89 -70.5 -140.5
t-184.5 -51.5q-176 0 -176 132q0 19 5 47h88q-4 -46 10 -67q25 -35 96 -35q56 0 96.5 27t40.5 67q0 28 -23.5 50.5t-61.5 22.5h-74z" />
    <glyph glyph-name="uni04E0" unicode="&#x4e0;" horiz-adv-x="649" 
d="M307 321l17 82h88q65 -6 128.5 56t94 127t12.5 61h-406l18 82h502q-8 -30 -11.5 -43t-16 -53t-22.5 -63.5t-28.5 -60t-36.5 -59.5t-42.5 -45t-51.5 -31q97 -39 97 -134q0 -128 -91.5 -195.5t-244.5 -67.5q-109 0 -175.5 47.5t-66.5 137.5q0 27 8 70h88q-6 -24 -6 -44
q0 -64 46.5 -96.5t128.5 -32.5q94 0 155 41t61 108q0 43 -38 78t-99 35h-108z" />
    <glyph glyph-name="uni04E1" unicode="&#x4e1;" horiz-adv-x="492" 
d="M237 221l16 76h62q44 0 83 51t43 100h-271l16 76h360q-50 -227 -119 -257q64 -31 64 -98q0 -89 -70.5 -140.5t-184.5 -51.5q-176 0 -176 132q0 19 5 47h88q-4 -46 10 -67q25 -35 96 -35q56 0 96.5 27t40.5 67q0 28 -23.5 50.5t-61.5 22.5h-74z" />
    <glyph glyph-name="uni04E2" unicode="&#x4e2;" horiz-adv-x="731" 
d="M691 870l-15 -69h-275l15 69h275zM238 729h88l-127 -596l508 596h101l-155 -729h-88l126 591l-503 -591h-105z" />
    <glyph glyph-name="uni04E3" unicode="&#x4e3;" horiz-adv-x="560" 
d="M558 668l-15 -69h-275l15 69h275zM181 524h84l-88 -413l323 413h98l-111 -524h-83l87 413l-322 -413h-99z" />
    <glyph glyph-name="uni04E4" unicode="&#x4e4;" horiz-adv-x="731" 
d="M532 904l-22 -103h-104l22 103h104zM693 904l-22 -103h-104l22 103h104zM238 729h88l-127 -596l508 596h101l-155 -729h-88l126 591l-503 -591h-105z" />
    <glyph glyph-name="uni04E5" unicode="&#x4e5;" horiz-adv-x="560" 
d="M399 702l-22 -103h-104l22 103h104zM560 702l-22 -103h-104l22 103h104zM181 524h84l-88 -413l323 413h98l-111 -524h-83l87 413l-322 -413h-99z" />
    <glyph glyph-name="uni04E6" unicode="&#x4e6;" horiz-adv-x="778" 
d="M543 904l-22 -103h-104l22 103h104zM704 904l-22 -103h-104l22 103h104zM537 741q142 0 219 -77q33 -34 52.5 -87.5t19.5 -112.5q0 -119 -52.5 -231t-140.5 -179q-100 -77 -244 -77q-64 0 -121 20.5t-93 56.5q-73 73 -73 209q0 95 37.5 188.5t104.5 162.5
q121 127 291 127zM525 660q-70 0 -133.5 -33.5t-107.5 -93.5q-84 -116 -84 -262q0 -89 41 -141q26 -33 70 -52.5t93 -19.5q73 0 136 33t107 94q40 54 62.5 123.5t22.5 137.5q0 89 -41 142q-26 33 -70.5 52.5t-95.5 19.5z" />
    <glyph glyph-name="uni04E7" unicode="&#x4e7;" 
d="M390 702l-22 -103h-104l22 103h104zM551 702l-22 -103h-104l22 103h104zM384 539q87 0 137 -49q55 -53 55 -138q0 -65 -22.5 -138.5t-56.5 -120.5q-84 -116 -228 -116q-84 0 -136.5 52t-52.5 135q0 64 22 137.5t56 121.5q38 55 97 85.5t129 30.5zM371 462
q-102 0 -159 -105q-44 -81 -44 -173q0 -60 31 -95t84 -35q103 0 161 105q44 81 44 174q0 61 -31 95t-86 34z" />
    <glyph glyph-name="uni04E8" unicode="&#x4e8;" horiz-adv-x="780" 
d="M547 741q161 0 234.5 -106t36.5 -282q-19 -90 -69.5 -169.5t-120.5 -129.5q-106 -77 -242 -77q-157 0 -232 105.5t-39 276.5q37 171 156 276.5t276 105.5zM732 397q15 121 -39 191.5t-163 70.5q-107 0 -192 -71.5t-120 -190.5h514zM718 328h-515q-18 -122 36.5 -195.5
t163.5 -73.5t195.5 74t119.5 195z" />
    <glyph glyph-name="uni04E9" unicode="&#x4e9;" horiz-adv-x="554" 
d="M386 539q113 0 159.5 -74.5t17.5 -210.5q-27 -129 -106.5 -203t-189.5 -74q-112 0 -158.5 74.5t-18.5 206.5t106.5 206.5t189.5 74.5zM482 293q10 80 -19.5 124.5t-92.5 44.5t-111.5 -45t-72.5 -124h296zM468 224h-297q-10 -80 20 -125t93 -45t112 45.5t72 124.5z" />
    <glyph glyph-name="uni04EA" unicode="&#x4ea;" horiz-adv-x="780" 
d="M553 904l-22 -103h-104l22 103h104zM714 904l-22 -103h-104l22 103h104zM547 741q161 0 234.5 -106t36.5 -282q-19 -90 -69.5 -169.5t-120.5 -129.5q-106 -77 -242 -77q-157 0 -232 105.5t-39 276.5q37 171 156 276.5t276 105.5zM732 397q15 121 -39 191.5t-163 70.5
q-107 0 -192 -71.5t-120 -190.5h514zM718 328h-515q-18 -122 36.5 -195.5t163.5 -73.5t195.5 74t119.5 195z" />
    <glyph glyph-name="uni04EB" unicode="&#x4eb;" horiz-adv-x="554" 
d="M392 702l-22 -103h-104l22 103h104zM553 702l-22 -103h-104l22 103h104zM386 539q113 0 159.5 -74.5t17.5 -210.5q-27 -129 -106.5 -203t-189.5 -74q-112 0 -158.5 74.5t-18.5 206.5t106.5 206.5t189.5 74.5zM482 293q10 80 -19.5 124.5t-92.5 44.5t-111.5 -45
t-72.5 -124h296zM468 224h-297q-10 -80 20 -125t93 -45t112 45.5t72 124.5z" />
    <glyph glyph-name="uni04EC" unicode="&#x4ec;" horiz-adv-x="717" 
d="M510 904l-22 -103h-104l22 103h104zM671 904l-22 -103h-104l22 103h104zM656 332h-366l17 82h364q2 15 2 45q0 95 -46 147.5t-130 52.5q-95 0 -154 -46q-44 -34 -76 -110h-95q94 238 332 238q130 0 196.5 -73t66.5 -203q0 -127 -50 -231t-131 -172q-100 -85 -241 -85
q-241 0 -241 236q0 25 3 53h96q-4 -70 9 -113q13 -45 52 -69.5t98 -24.5q103 0 182.5 73.5t111.5 199.5z" />
    <glyph glyph-name="uni04ED" unicode="&#x4ed;" horiz-adv-x="534" 
d="M378 702l-22 -103h-104l22 103h104zM539 702l-22 -103h-104l22 103h104zM227 232l15 77h224q1 7 1 22q0 63 -28.5 97t-82.5 34q-107 0 -148 -114h-84q21 70 59 113q75 78 189 78q86 0 134 -52.5t48 -145.5q0 -42 -10 -88q-27 -127 -105.5 -201.5t-185.5 -74.5
q-83 0 -128 42.5t-45 119.5q0 20 3 41h84v-13q0 -113 101 -113q65 0 113.5 47.5t71.5 131.5z" />
    <glyph glyph-name="uni04EE" unicode="&#x4ee;" horiz-adv-x="530" 
d="M528 870l-15 -69h-275l15 69h275zM135 0h-113l181 244l-139 485h113l104 -379l265 379h111z" />
    <glyph glyph-name="uni04EF" unicode="&#x4ef;" horiz-adv-x="500" 
d="M529 668l-15 -69h-275l15 69h275zM501 524h89l-368 -634q-63 -108 -165 -108q-27 0 -49 10l16 75q36 -4 44 -4q28 0 44 10.5t36 41.5l52 81l-68 528h90l46 -407z" />
    <glyph glyph-name="uni04F0" unicode="&#x4f0;" horiz-adv-x="530" 
d="M369 904l-22 -103h-104l22 103h104zM530 904l-22 -103h-104l22 103h104zM135 0h-113l181 244l-139 485h113l104 -379l265 379h111z" />
    <glyph glyph-name="uni04F1" unicode="&#x4f1;" horiz-adv-x="500" 
d="M371 702l-22 -103h-104l22 103h104zM532 702l-22 -103h-104l22 103h104zM501 524h89l-368 -634q-63 -108 -165 -108q-27 0 -49 10l16 75q36 -4 44 -4q28 0 44 10.5t36 41.5l52 81l-68 528h90l46 -407z" />
    <glyph glyph-name="uni04F2" unicode="&#x4f2;" horiz-adv-x="530" 
d="M387 951h112l-180 -150h-60zM561 951h112l-180 -150h-60zM135 0h-113l181 244l-139 485h113l104 -379l265 379h111z" />
    <glyph glyph-name="uni04F3" unicode="&#x4f3;" horiz-adv-x="500" 
d="M388 749h112l-180 -150h-60zM562 749h112l-180 -150h-60zM501 524h89l-368 -634q-63 -108 -165 -108q-27 0 -49 10l16 75q36 -4 44 -4q28 0 44 10.5t36 41.5l52 81l-68 528h90l46 -407z" />
    <glyph glyph-name="uni04F4" unicode="&#x4f4;" horiz-adv-x="642" 
d="M464 904l-22 -103h-104l22 103h104zM625 904l-22 -103h-104l22 103h104zM503 282h-180q-80 0 -122 38.5t-42 101.5q0 24 5 43l56 264h93l-57 -267q-4 -15 -4 -31q0 -67 89 -67h179l78 365h93l-155 -729h-93z" />
    <glyph glyph-name="uni04F5" unicode="&#x4f5;" horiz-adv-x="497" 
d="M363 702l-22 -103h-104l22 103h104zM524 702l-22 -103h-104l22 103h104zM172 524h84l-35 -165q-3 -13 -3 -26q0 -49 55 -49h127l51 240h84l-111 -524h-84l44 208h-117q-134 0 -134 110q0 15 6 51z" />
    <glyph glyph-name="uni04F8" unicode="&#x4f8;" horiz-adv-x="886" 
d="M609 904l-22 -103h-104l22 103h104zM770 904l-22 -103h-104l22 103h104zM963 729l-155 -729h-94l155 729h94zM584 61q-70 -61 -172 -61h-329l155 729h93l-67 -314h180q228 0 228 -179q0 -57 -22.5 -97.5t-65.5 -77.5zM193 82h227q66 0 105 35q57 48 57 121q0 35 -19 60
q-25 35 -89 35h-227z" />
    <glyph glyph-name="uni04F9" unicode="&#x4f9;" horiz-adv-x="734" 
d="M232 702l-22 -103h-104l22 103h104zM393 702l-22 -103h-104l22 103h104zM772 524l-111 -524h-83l111 524h83zM265 525l-46 -218h118q98 0 142 -28.5t44 -91.5q0 -85 -67 -143q-50 -44 -123 -44h-263l111 525h84zM170 76h152q49 0 80.5 31.5t31.5 75.5q0 23 -23.5 35.5
t-55.5 12.5h-152z" />
    <glyph glyph-name="uniF6C4" unicode="&#xf6c4;" horiz-adv-x="430" 
d="M181 524h295l-16 -76h-211l-95 -448h-84z" />
    <glyph glyph-name="uniF6C5" unicode="&#xf6c5;" 
d="M307 539q91 0 139.5 -49t48.5 -141q0 -158 -87 -265t-220 -107q-91 0 -139 50t-48 141q0 110 44 196t118 133q-41 20 -41 54q0 42 49.5 85.5t102.5 53.5q123 23 138 26q24 5 44.5 22t24.5 37h74q-6 -29 -11.5 -44t-19.5 -35t-40.5 -33.5t-68.5 -22.5q-24 -5 -71 -14.5
t-70 -14.5q-22 -5 -42 -19t-20 -27q0 -28 61 -28q14 0 34 2zM291 462q-83 0 -142 -83.5t-59 -191.5q0 -63 30 -98t85 -35q84 0 142.5 82t58.5 194q0 63 -30 97.5t-85 34.5z" />
    <glyph glyph-name="uniF6C6" unicode="&#xf6c6;" horiz-adv-x="640" 
d="M78 64q61 7 125 234l54 226h339l-97 -460h64l-39 -184h-70l25 120h-402l-25 -120h-70l39 184h57zM196 76h221l79 372h-172l-34 -152q-39 -147 -94 -220z" />
    <glyph glyph-name="uniF6C7" unicode="&#xf6c7;" horiz-adv-x="560" 
d="M181 524h417l-111 -524h-84l95 448h-249l-95 -448h-84z" />
    <glyph glyph-name="one_eight_f" unicode="&#xe18f;" horiz-adv-x="852" 
d="M388 338q21 0 36 -14.5t15 -36.5q0 -21 -15 -35.5t-36 -14.5t-36 14.5t-15 35.5q0 22 15 36.5t36 14.5zM790 741q12 0 12 -12v-728q0 -5 -3.5 -8.5t-8.5 -3.5h-728q-12 0 -12 12v728q0 12 12 12h728zM261 479q0 5 -4 5h-66q-4 0 -4 -5v-25q0 -4 4 -4h35v-239q0 -4 4 -4
h27q4 0 4 4v268zM388 202q35 0 60 25t25 60q0 22 -9.5 40t-26.5 29q26 24 26 57q0 31 -22 52.5t-53 21.5q-32 0 -53.5 -21.5t-21.5 -52.5q0 -16 7 -30.5t19 -26.5q-17 -11 -26.5 -29t-9.5 -40q0 -35 24.5 -60t60.5 -25zM627 479q0 5 -4 5h-104q-4 0 -4 -5v-268q0 -4 4 -4h26
q5 0 5 4v122h60q4 0 4 4v25q0 5 -4 5h-60v83h73q4 0 4 4v25zM388 373q-17 0 -29 11.5t-12 28.5t12 29t29 12t29 -12t12 -29t-12 -28.5t-29 -11.5z" />
    <glyph glyph-name="Ccircumflex" unicode="&#x108;" horiz-adv-x="722" 
d="M530 979h95l64 -150h-63l-56 99l-104 -99h-64zM770 503h-96q-6 81 -44.5 119t-114.5 38q-136 0 -226 -133q-81 -121 -81 -267q0 -91 47.5 -146.5t125.5 -55.5q59 0 112.5 26t84.5 71q25 33 59 111h98q-49 -118 -105 -179q-101 -110 -263 -110q-131 0 -198 85
q-57 72 -57 180q0 94 34.5 190.5t93.5 167.5q117 141 292 141q143 0 206 -107q28 -50 32 -131z" />
    <glyph glyph-name="ccircumflex" unicode="&#x109;" horiz-adv-x="500" 
d="M377 774h95l64 -150h-63l-56 99l-104 -99h-64zM551 348h-84q1 9 1 22q0 43 -27.5 67.5t-74.5 24.5q-92 0 -148 -89q-54 -85 -54 -192q0 -58 30.5 -92.5t82.5 -34.5q111 0 157 126h84q-23 -79 -58 -120q-71 -83 -197 -83q-94 0 -143 62q-44 55 -44 131q0 69 23 142.5
t58 119.5q82 107 224 107q83 0 129 -47q44 -46 44 -100q0 -1 -0.5 -5t-1 -11t-0.5 -13z" />
    <glyph glyph-name="Cdotaccent" unicode="&#x10a;" horiz-adv-x="722" 
d="M620 932l-22 -103h-104l22 103h104zM770 503h-96q-6 81 -44.5 119t-114.5 38q-136 0 -226 -133q-81 -121 -81 -267q0 -91 47.5 -146.5t125.5 -55.5q59 0 112.5 26t84.5 71q25 33 59 111h98q-49 -118 -105 -179q-101 -110 -263 -110q-131 0 -198 85q-57 72 -57 180
q0 94 34.5 190.5t93.5 167.5q117 141 292 141q143 0 206 -107q28 -50 32 -131z" />
    <glyph glyph-name="cdotaccent" unicode="&#x10b;" horiz-adv-x="500" 
d="M467 727l-22 -103h-104l22 103h104zM551 348h-84q1 9 1 22q0 43 -27.5 67.5t-74.5 24.5q-92 0 -148 -89q-54 -85 -54 -192q0 -58 30.5 -92.5t82.5 -34.5q111 0 157 126h84q-23 -79 -58 -120q-71 -83 -197 -83q-94 0 -143 62q-44 55 -44 131q0 69 23 142.5t58 119.5
q82 107 224 107q83 0 129 -47q44 -46 44 -100q0 -1 -0.5 -5t-1 -11t-0.5 -13z" />
    <glyph glyph-name="Ebreve" unicode="&#x114;" horiz-adv-x="667" 
d="M406 964h53v-8v-5q0 -22 22.5 -36t59.5 -14q94 0 110 63h56q-15 -59 -46 -86q-54 -49 -133 -49q-56 0 -91.5 27.5t-35.5 71.5q0 12 5 36zM255 332l-54 -250h429l-17 -82h-523l155 729h506l-17 -82h-412l-50 -233h396l-18 -82h-395z" />
    <glyph glyph-name="ebreve" unicode="&#x115;" 
d="M291 759h53v-8v-5q0 -22 22.5 -36t59.5 -14q94 0 110 63h56q-15 -59 -46 -86q-54 -49 -133 -49q-56 0 -91.5 27.5t-35.5 71.5q0 12 5 36zM563 234h-386q-5 -19 -5 -46q0 -64 32.5 -99t91.5 -35q101 0 156 105h84q-23 -81 -93.5 -131.5t-160.5 -50.5q-85 0 -136 50
q-62 59 -62 146q0 61 24.5 136t59.5 122q37 50 96.5 79t124.5 29q81 0 136 -49.5t55 -121.5q0 -42 -14 -117zM195 306h294q3 24 3 33q0 56 -31.5 89.5t-84.5 33.5q-61 0 -111 -43.5t-70 -112.5z" />
    <glyph glyph-name="Gcircumflex" unicode="&#x11c;" horiz-adv-x="778" 
d="M543 979h95l64 -150h-63l-56 99l-104 -99h-64zM793 385l-83 -389h-59l-4 90q-49 -41 -81 -60q-85 -49 -188 -49q-108 0 -179 59q-42 34 -66 94t-24 131q0 97 41 193.5t113 168.5q118 118 292 118q118 0 186 -58t68 -158v-6v-4v-7h-91q-1 63 -37 99q-50 53 -144 53
q-150 0 -244 -122q-40 -53 -64 -124t-24 -137q0 -89 37 -145q23 -34 68 -54t101 -20q101 0 181 65q74 61 95 154l6 26h-222l18 82h304z" />
    <glyph glyph-name="gcircumflex" unicode="&#x11d;" 
d="M381 774h95l64 -150h-63l-56 99l-104 -99h-64zM525 524h76l-93 -439q-20 -95 -43 -147.5t-61 -88.5q-70 -67 -195 -67q-80 0 -128.5 34.5t-48.5 92.5q0 10 1 18l1 13h84v-8v-6q0 -34 28.5 -53t79.5 -19q80 0 123.5 44t65.5 146l4 19q-75 -80 -172 -80q-76 0 -124.5 51.5
t-48.5 133.5q0 69 25.5 145t65.5 126q37 46 91.5 73t112.5 27q51 0 92 -30q27 -20 47 -63zM363 462q-47 0 -87.5 -26.5t-67.5 -75.5q-46 -82 -46 -176q0 -59 29.5 -94t79.5 -35q45 0 86 26.5t66 72.5q46 80 46 185q0 56 -29 89.5t-77 33.5z" />
    <glyph glyph-name="Gdotaccent" unicode="&#x120;" horiz-adv-x="778" 
d="M633 932l-22 -103h-104l22 103h104zM793 385l-83 -389h-59l-4 90q-49 -41 -81 -60q-85 -49 -188 -49q-108 0 -179 59q-42 34 -66 94t-24 131q0 97 41 193.5t113 168.5q118 118 292 118q118 0 186 -58t68 -158v-6v-4v-7h-91q-1 63 -37 99q-50 53 -144 53q-150 0 -244 -122
q-40 -53 -64 -124t-24 -137q0 -89 37 -145q23 -34 68 -54t101 -20q101 0 181 65q74 61 95 154l6 26h-222l18 82h304z" />
    <glyph glyph-name="gdotaccent" unicode="&#x121;" 
d="M471 727l-22 -103h-104l22 103h104zM525 524h76l-93 -439q-20 -95 -43 -147.5t-61 -88.5q-70 -67 -195 -67q-80 0 -128.5 34.5t-48.5 92.5q0 10 1 18l1 13h84v-8v-6q0 -34 28.5 -53t79.5 -19q80 0 123.5 44t65.5 146l4 19q-75 -80 -172 -80q-76 0 -124.5 51.5
t-48.5 133.5q0 69 25.5 145t65.5 126q37 46 91.5 73t112.5 27q51 0 92 -30q27 -20 47 -63zM363 462q-47 0 -87.5 -26.5t-67.5 -75.5q-46 -82 -46 -176q0 -59 29.5 -94t79.5 -35q45 0 86 26.5t66 72.5q46 80 46 185q0 56 -29 89.5t-77 33.5z" />
    <glyph glyph-name="Hcircumflex" unicode="&#x124;" horiz-adv-x="722" 
d="M524 979h95l64 -150h-63l-56 99l-104 -99h-64zM621 332h-373l-71 -332h-94l155 729h94l-67 -315h373l67 315h94l-155 -729h-94z" />
    <glyph glyph-name="hcircumflex" unicode="&#x125;" 
d="M441 979h95l64 -150h-63l-56 99l-104 -99h-64zM225 729h84l-57 -270q47 44 89 62t98 18q63 0 99 -33.5t36 -92.5q0 -20 -4 -37l-80 -376h-84l73 343q6 27 6 39q0 38 -23.5 61.5t-61.5 23.5q-68 0 -117.5 -47.5t-67.5 -130.5l-61 -289h-84z" />
    <glyph glyph-name="Hbar" unicode="&#x126;" horiz-adv-x="772" 
d="M797 626h67l-12 -69h-70l-118 -557h-94l71 332h-373l-71 -332h-94l118 557h-71l12 69h74l22 103h94l-22 -103h373l22 103h94zM688 557h-373l-30 -143h373z" />
    <glyph glyph-name="hbar" unicode="&#x127;" horiz-adv-x="575" 
d="M231 666l13 63h84l-13 -63h124l-15 -69h-124l-29 -138q47 44 89 62t98 18q63 0 99 -33.5t36 -92.5q0 -20 -4 -37l-80 -376h-84l73 343q6 27 6 39q0 38 -23.5 61.5t-61.5 23.5q-68 0 -117.5 -47.5t-67.5 -130.5l-61 -289h-84l127 597h-67l15 69h67z" />
    <glyph glyph-name="Itilde" unicode="&#x128;" horiz-adv-x="278" 
d="M452 937h53q-16 -49 -45 -78t-63 -29q-27 0 -103 26q-16 6 -27 6q-27 0 -43 -24q-1 -1 -7 -9h-53q16 47 32 67q12 16 32.5 26t39.5 10q22 0 73 -17q43 -15 63 -15q15 0 24.5 7.5t23.5 29.5zM349 729l-155 -729h-94l155 729h94z" />
    <glyph glyph-name="itilde" unicode="&#x129;" horiz-adv-x="278" 
d="M398 732h53q-16 -49 -45 -78t-63 -29q-27 0 -103 26q-16 6 -27 6q-27 0 -43 -24q-1 -1 -7 -9h-53q16 47 32 67q12 16 32.5 26t39.5 10q22 0 73 -17q43 -15 63 -15q15 0 24.5 7.5t23.5 29.5zM290 527l-112 -527h-84l112 527h84z" />
    <glyph glyph-name="Ibreve" unicode="&#x12c;" horiz-adv-x="278" 
d="M202 964h53v-8v-5q0 -22 22.5 -36t59.5 -14q94 0 110 63h56q-15 -59 -46 -86q-54 -49 -133 -49q-56 0 -91.5 27.5t-35.5 71.5q0 12 5 36zM349 729l-155 -729h-94l155 729h94z" />
    <glyph glyph-name="ibreve" unicode="&#x12d;" horiz-adv-x="278" 
d="M147 759h53v-8v-5q0 -22 22.5 -36t59.5 -14q94 0 110 63h56q-15 -59 -46 -86q-54 -49 -133 -49q-56 0 -91.5 27.5t-35.5 71.5q0 12 5 36zM290 527l-112 -527h-84l112 527h84z" />
    <glyph glyph-name="IJ" unicode="&#x132;" horiz-adv-x="742" 
d="M718 729h94l-116 -547q-21 -98 -87 -151.5t-165 -53.5q-70 0 -111 32q-55 45 -55 113q0 22 6 48l14 64h94l-14 -66q-4 -16 -4 -34q0 -34 25 -55t65 -21q59 0 98 44q30 34 47 114zM349 729l-155 -729h-94l155 729h94z" />
    <glyph glyph-name="ij" unicode="&#x133;" horiz-adv-x="362" 
d="M315 524h84l-134 -633q-14 -62 -52 -85.5t-124 -23.5q-9 0 -19 3l15 71q18 -2 25 -2q38 0 53.5 14t24.5 56zM443 729l-22 -103h-84l22 103h84zM261 524l-111 -524h-84l111 524h84zM305 729l-22 -103h-84l22 103h84z" />
    <glyph glyph-name="Jcircumflex" unicode="&#x134;" horiz-adv-x="500" 
d="M487 729h94l-116 -547q-21 -98 -87 -151.5t-165 -53.5q-70 0 -111 32q-55 45 -55 113q0 22 6 48l14 64h94l-14 -66q-4 -16 -4 -34q0 -34 25 -55t65 -21q59 0 98 44q30 34 47 114zM534 951h95l64 -150h-63l-56 99l-104 -99h-64z" />
    <glyph glyph-name="jcircumflex" unicode="&#x135;" horiz-adv-x="222" 
d="M180 524h84l-134 -633q-14 -62 -52 -85.5t-124 -23.5q-8 0 -19 3l15 71q18 -2 25 -2q38 0 53.5 14t24.5 56zM228 828h95l64 -150h-63l-56 99l-104 -99h-64z" />
    <glyph glyph-name="kgreenlandic" unicode="&#x138;" horiz-adv-x="510" 
d="M264 524l-47 -222l269 222h107l-327 -260l248 -264h-103l-212 216l-46 -216h-83l111 524h83z" />
    <glyph glyph-name="Ldot" unicode="&#x13f;" 
d="M480 416l-22 -103h-105l22 103h105zM329 729l-138 -647h360l-17 -82h-454l155 729h94z" />
    <glyph glyph-name="ldot" unicode="&#x140;" horiz-adv-x="500" 
d="M445 393l-22 -103h-105l22 103h105zM307 729l-155 -729h-84l155 729h84z" />
    <glyph glyph-name="napostrophe" unicode="&#x149;" 
d="M242 788h94l-21 -100q-13 -59 -44.5 -93.5t-77.5 -37.5l8 38q52 7 67 90h-48zM181 524h76l-13 -65q78 80 194 80q62 0 99 -34t37 -91q0 -21 -4 -38l-80 -376h-84l74 349q6 24 6 37q0 35 -25 58t-62 23q-67 0 -116.5 -47.5t-67.5 -130.5l-61 -289h-84z" />
    <glyph glyph-name="Eng" unicode="&#x14a;" horiz-adv-x="722" 
d="M646 0q-15 -69 -66 -112.5t-141 -43.5l12 55q33 0 62 25.5t29 56.5q0 11 -4 19l-247 591l-126 -591h-89l155 729h104l250 -598l127 598h89z" />
    <glyph glyph-name="eng" unicode="&#x14b;" 
d="M406 0l74 349q6 32 6 37q0 35 -25 58t-62 23q-67 0 -116.5 -47.5t-67.5 -130.5l-61 -289h-84l111 524h76l-13 -65q78 80 194 80q62 0 99 -34t37 -91q0 -21 -4 -38l-80 -376q-14 -68 -50.5 -97t-126.5 -29l12 55q37 0 55 17t26 54z" />
    <glyph glyph-name="Obreve" unicode="&#x14e;" horiz-adv-x="778" 
d="M443 964h53v-8v-5q0 -22 22.5 -36t59.5 -14q94 0 110 63h56q-15 -59 -46 -86q-54 -49 -133 -49q-56 0 -91.5 27.5t-35.5 71.5q0 12 5 36zM537 741q142 0 219 -77q33 -34 52.5 -87.5t19.5 -112.5q0 -119 -52.5 -231t-140.5 -179q-100 -77 -244 -77q-64 0 -121 20.5
t-93 56.5q-73 73 -73 209q0 95 37.5 188.5t104.5 162.5q121 127 291 127zM525 660q-70 0 -133.5 -33.5t-107.5 -93.5q-84 -116 -84 -262q0 -89 41 -141q26 -33 70 -52.5t93 -19.5q73 0 136 33t107 94q40 54 62.5 123.5t22.5 137.5q0 89 -41 142q-26 33 -70.5 52.5
t-95.5 19.5z" />
    <glyph glyph-name="obreve" unicode="&#x14f;" 
d="M284 759h53v-8v-5q0 -22 22.5 -36t59.5 -14q94 0 110 63h56q-15 -59 -46 -86q-54 -49 -133 -49q-56 0 -91.5 27.5t-35.5 71.5q0 12 5 36zM384 539q87 0 137 -49q55 -53 55 -138q0 -65 -22.5 -138.5t-56.5 -120.5q-84 -116 -228 -116q-84 0 -136.5 52t-52.5 135
q0 64 22 137.5t56 121.5q38 55 97 85.5t129 30.5zM371 462q-102 0 -159 -105q-44 -81 -44 -173q0 -60 31 -95t84 -35q103 0 161 105q44 81 44 174q0 61 -31 95t-86 34z" />
    <glyph glyph-name="Scircumflex" unicode="&#x15c;" horiz-adv-x="667" 
d="M495 979h95l64 -150h-63l-56 99l-104 -99h-64zM706 515h-88q4 27 4 36q0 49 -32 78q-34 31 -120 31q-97 0 -152 -49q-44 -41 -44 -93q0 -33 21.5 -51t79.5 -35l172 -49q67 -19 98 -68q24 -38 24 -78q0 -42 -24.5 -91.5t-62.5 -84.5q-90 -84 -252 -84q-113 0 -177 51
t-64 141q0 30 9 63h87q-4 -25 -4 -41q0 -68 40 -100.5t125 -32.5q118 0 180 56q47 44 47 95q0 36 -26.5 59.5t-86.5 40.5l-171 48q-50 14 -80.5 51t-30.5 84q0 38 20.5 85.5t51.5 78.5q82 85 238 85q113 0 172 -52q54 -47 54 -118q0 -19 -8 -56z" />
    <glyph glyph-name="scircumflex" unicode="&#x15d;" horiz-adv-x="500" 
d="M362 774h95l64 -150h-63l-56 99l-104 -99h-64zM514 378h-84q1 8 1 22q0 29 -24 45.5t-68 16.5q-64 0 -98 -33q-30 -28 -30 -62q0 -39 85 -60l76 -19q66 -16 93.5 -42.5t27.5 -72.5q0 -89 -67 -142.5t-179 -53.5q-87 0 -136.5 34t-49.5 94q0 23 6 51h89q-2 -20 -2 -25
q0 -37 28 -57t80 -20q71 0 111 34q12 10 22 29t10 33q0 16 -13 33q-11 13 -57 26l-74 19q-77 20 -107.5 45.5t-30.5 71.5q0 35 16.5 71.5t43.5 62.5q63 60 173 60q73 0 118.5 -33t45.5 -85q0 -18 -6 -43z" />
    <glyph glyph-name="Tbar" unicode="&#x166;" horiz-adv-x="611" 
d="M351 424l48 223h-241l17 82h573l-17 -82h-238l-48 -223h91l-15 -69h-90l-76 -355h-94l76 355h-91l15 69h90z" />
    <glyph glyph-name="tbar" unicode="&#x167;" horiz-adv-x="278" 
d="M151 325l28 132h-71l14 67h71l31 144h84l-31 -144h89l-14 -67h-89l-28 -132h95l-15 -69h-95l-35 -166q-2 -12 -2 -14q0 -12 10 -19.5t26 -7.5q13 0 48 8l-16 -73q-25 -7 -65 -7q-41 0 -65 21t-24 58q0 16 3 31l36 169h-70l15 69h70z" />
    <glyph glyph-name="Utilde" unicode="&#x168;" horiz-adv-x="722" 
d="M670 937h53q-16 -49 -45 -78t-63 -29q-27 0 -103 26q-16 6 -27 6q-27 0 -43 -24q-1 -1 -7 -9h-53q16 47 32 67q12 16 32.5 26t39.5 10q22 0 73 -17q43 -15 63 -15q15 0 24.5 7.5t23.5 29.5zM706 729h94l-109 -512q-23 -109 -112.5 -174.5t-215.5 -65.5q-120 0 -184 58
q-24 22 -39.5 55.5t-15.5 64.5q0 30 14 96l102 478h94l-109 -512q-5 -27 -5 -44q0 -52 44.5 -83.5t116.5 -31.5q85 0 142.5 42.5t73.5 116.5z" />
    <glyph glyph-name="utilde" unicode="&#x169;" 
d="M536 732h53q-16 -49 -45 -78t-63 -29q-27 0 -103 26q-16 6 -27 6q-27 0 -43 -24q-1 -1 -7 -9h-53q16 47 32 67q12 16 32.5 26t39.5 10q22 0 73 -17q43 -15 63 -15q15 0 24.5 7.5t23.5 29.5zM483 0h-76l12 57q-83 -80 -193 -80q-65 0 -101.5 29t-36.5 80q0 19 3 34l86 404
h84l-79 -371q-3 -15 -3 -27q0 -35 24 -56t65 -21q64 0 113 48.5t66 129.5l63 297h84z" />
    <glyph glyph-name="Ubreve" unicode="&#x16c;" horiz-adv-x="722" 
d="M419 964h53v-8v-5q0 -22 22.5 -36t59.5 -14q94 0 110 63h56q-15 -59 -46 -86q-54 -49 -133 -49q-56 0 -91.5 27.5t-35.5 71.5q0 12 5 36zM706 729h94l-109 -512q-23 -109 -112.5 -174.5t-215.5 -65.5q-120 0 -184 58q-24 22 -39.5 55.5t-15.5 64.5q0 30 14 96l102 478h94
l-109 -512q-5 -27 -5 -44q0 -52 44.5 -83.5t116.5 -31.5q85 0 142.5 42.5t73.5 116.5z" />
    <glyph glyph-name="ubreve" unicode="&#x16d;" 
d="M285 759h53v-8v-5q0 -22 22.5 -36t59.5 -14q94 0 110 63h56q-15 -59 -46 -86q-54 -49 -133 -49q-56 0 -91.5 27.5t-35.5 71.5q0 12 5 36zM483 0h-76l12 57q-83 -80 -193 -80q-65 0 -101.5 29t-36.5 80q0 19 3 34l86 404h84l-79 -371q-3 -15 -3 -27q0 -35 24 -56t65 -21
q64 0 113 48.5t66 129.5l63 297h84z" />
    <glyph glyph-name="Wcircumflex" unicode="&#x174;" horiz-adv-x="944" 
d="M636 979h95l64 -150h-63l-56 99l-104 -99h-64zM744 0h-102l-41 592l-290 -592h-102l-32 729h100l15 -592l288 592h96l41 -592l263 592h104z" />
    <glyph glyph-name="wcircumflex" unicode="&#x175;" horiz-adv-x="722" 
d="M475 774h95l64 -150h-63l-56 99l-104 -99h-64zM556 0h-95l-12 418l-195 -418h-96l-40 524h91l19 -408l189 408h105l11 -408l196 408h91z" />
    <glyph glyph-name="Ycircumflex" unicode="&#x176;" horiz-adv-x="667" 
d="M498 979h95l64 -150h-63l-56 99l-104 -99h-64zM448 286l-61 -286h-94l61 286l-186 443h112l136 -357l289 357h111z" />
    <glyph glyph-name="ycircumflex" unicode="&#x177;" horiz-adv-x="500" 
d="M367 774h95l64 -150h-63l-56 99l-104 -99h-64zM501 524h89l-368 -634q-63 -108 -165 -108q-27 0 -49 10l16 75q36 -4 44 -4q28 0 44 10.5t36 41.5l52 81l-68 528h90l46 -407z" />
    <glyph glyph-name="longs" unicode="&#x17f;" horiz-adv-x="278" 
d="M173 0h-84l97 457h-70l14 67h70l19 89q12 56 51.5 87.5t97.5 31.5q22 0 45 -5l-15 -69q-14 2 -27 2q-32 0 -48 -14.5t-24 -52.5z" />
    <glyph glyph-name="afii61352" unicode="&#x2116;" horiz-adv-x="1126" 
d="M1090 291l-11 -50h-331l11 50h331zM953 632q63 0 107.5 -44.5t44.5 -106.5q0 -64 -44.5 -108t-108.5 -44q-61 0 -105.5 45t-44.5 107t44.5 106.5t106.5 44.5zM954 589q-44 0 -75.5 -32t-31.5 -76t31 -76.5t74 -32.5q45 0 76.5 31.5t31.5 77.5q0 44 -31.5 76t-74.5 32z
M801 729l-155 -729h-106l-249 591l-126 -591h-89l155 729h104l250 -598l127 598h89z" />
    <glyph glyph-name="infinity" unicode="&#x221e;" horiz-adv-x="838" 
d="M514 453q39 53 88 73.5t114 20.5q87 0 134.5 -39.5t47.5 -119.5q0 -115 -80 -191t-197 -76q-66 0 -103.5 20t-54.5 73q-69 -95 -202 -95q-87 0 -134.5 39.5t-47.5 120.5q0 115 80 191t197 76q66 0 104 -20.5t54 -72.5zM701 462q-72 0 -124.5 -44.5t-52.5 -119.5
q0 -93 119 -93q70 0 122.5 45t52.5 119q0 50 -29.5 71.5t-87.5 21.5zM276 204q72 0 124.5 44.5t52.5 120.5q0 92 -119 92q-70 0 -122.5 -45t-52.5 -119q0 -51 29 -72t88 -21z" />
    <glyph glyph-name="uniF6C8" unicode="&#xf6c8;" horiz-adv-x="400" 
d="M116 524h372l-16 -76h-144l-95 -448h-84l95 448h-144z" />
    </font>
</defs>
</svg>
