<?xml version="1.0" standalone="no"?>
<!DOCTYPE svg PUBLIC "-//W3C//DTD SVG 1.1//EN" "http://www.w3.org/Graphics/SVG/1.1/DTD/svg11.dtd" >
<svg xmlns="http://www.w3.org/2000/svg" xmlns:xlink="http://www.w3.org/1999/xlink" version="1.1">
<metadata>
Created by FontForge 20160407 at Thu May 12 17:46:15 2016
 By Jimmy Wärting
Copyright (URW)++,Copyright 1999 by (URW)++ Design &#38; Development; Cyrillic glyphs added by Valek Filippov (C) 2001-2005
</metadata>
<defs>
<font id="NimbusSanL-Bold" horiz-adv-x="556" >
  <font-face 
    font-family="Nimbus Sans L"
    font-weight="700"
    font-stretch="normal"
    units-per-em="1000"
    panose-1="2 0 8 3 0 0 0 0 0 0"
    ascent="800"
    descent="-200"
    x-height="540"
    cap-height="729"
    bbox="-173 -307 1097 979"
    underline-thickness="69"
    underline-position="-223"
    unicode-range="U+0020-FB02"
  />
<missing-glyph horiz-adv-x="364" 
d="M33 0v666h265v-666h-265zM66 33h199v600h-199v-600z" />
    <glyph glyph-name=".notdef" horiz-adv-x="364" 
d="M33 0v666h265v-666h-265zM66 33h199v600h-199v-600z" />
    <glyph glyph-name="NULL" horiz-adv-x="0" 
 />
    <glyph glyph-name="nonmarkingreturn" horiz-adv-x="333" 
 />
    <glyph glyph-name="space" unicode=" " horiz-adv-x="278" 
 />
    <glyph glyph-name="exclam" unicode="!" horiz-adv-x="333" 
d="M262 726v-210l-42 -309h-67l-41 309v210h150zM262 146v-146h-150v146h150z" />
    <glyph glyph-name="quotedbl" unicode="&#x22;" horiz-adv-x="474" 
d="M188 729v-130l-42 -129h-56l-40 129v130h138zM424 729v-130l-42 -129h-56l-40 129v130h138z" />
    <glyph glyph-name="numbersign" unicode="#" 
d="M146 -32h-106l40 204h-77v99h97l30 153h-99v99h119l34 174h105l-34 -174h103l34 174h105l-34 -174h90v-99h-109l-31 -153h100v-99h-119l-40 -204h-105l40 204h-103zM205 271h103l30 153h-103z" />
    <glyph glyph-name="dollar" unicode="$" 
d="M517 498h-128q2 46 -19 75.5t-59 34.5v-201q116 -32 166 -81t50 -131q0 -56 -22.5 -102.5t-63.5 -72.5q-51 -32 -130 -41v-105h-68v105q-82 8 -135 46q-86 61 -86 173v9h131q5 -106 90 -121v213q-204 47 -204 213q0 84 53.5 136t150.5 61v54h68v-54q95 -5 150 -61
t56 -150zM243 427v181q-81 -16 -81 -92q0 -63 81 -89zM311 282v-196q84 21 84 97q0 73 -84 99z" />
    <glyph glyph-name="percent" unicode="%" horiz-adv-x="889" 
d="M206 701q77 0 130.5 -53.5t53.5 -130.5q0 -73 -54.5 -126.5t-129.5 -53.5q-76 0 -130 53.5t-54 128.5t54 128.5t130 53.5zM206 602q-35 0 -60 -24.5t-25 -58.5q0 -35 25 -59.5t60 -24.5t60 24.5t25 58.5q0 35 -25 59.5t-60 24.5zM606 709h76l-395 -729h-77zM679 352
q77 0 130.5 -53.5t53.5 -131.5q0 -73 -54.5 -126.5t-129.5 -53.5q-76 0 -130 53.5t-54 129.5q0 75 54 128.5t130 53.5zM679 253q-35 0 -60 -24.5t-25 -59.5t25 -59.5t60 -24.5t60 24.5t25 58.5q0 35 -25 60t-60 25z" />
    <glyph glyph-name="ampersand" unicode="&#x26;" horiz-adv-x="722" 
d="M526 373h113v-11v-5q-2 -58 -20 -113.5t-48 -89.5l123 -154h-161l-46 56q-60 -45 -102 -62t-93 -17q-107 0 -172 59.5t-65 156.5q0 71 34.5 116.5t122.5 91.5q-9 12 -12 15l-28 34q-42 50 -42 106q0 71 54.5 119t134.5 48t129 -42.5t49 -112.5q0 -54 -25 -92t-92 -84
l116 -144q30 57 30 115v10zM278 319l-47 -29q-43 -29 -43 -80q0 -45 32.5 -81t73.5 -36q48 0 120 55zM317 470q60 33 60 86q0 28 -15 43t-42 15q-25 0 -41.5 -13.5t-16.5 -34.5q0 -19 8.5 -33.5t46.5 -62.5z" />
    <glyph glyph-name="quoteright" unicode="&#x2019;" horiz-adv-x="278" 
d="M66 729h135v-109q0 -79 -45 -117q-37 -31 -90 -34v46q83 15 80 89h-80v125z" />
    <glyph glyph-name="parenleft" unicode="(" horiz-adv-x="333" 
d="M203 729h100q-79 -153 -109.5 -253.5t-30.5 -210.5t30 -210t110 -255h-100q-86 130 -124.5 239.5t-38.5 225.5q0 115 38.5 225t124.5 239z" />
    <glyph glyph-name="parenright" unicode=")" horiz-adv-x="333" 
d="M122 -200h-100q79 153 109.5 253.5t30.5 210.5t-30 210t-110 255h100q86 -130 124.5 -239.5t38.5 -225.5q0 -115 -38.5 -225t-124.5 -239z" />
    <glyph glyph-name="asterisk" unicode="*" horiz-adv-x="389" 
d="M132 544l-109 36l22 69l109 -36v116h72v-116l109 36l22 -70l-109 -35l67 -94l-58 -43l-67 94l-67 -94l-58 43z" />
    <glyph glyph-name="plus" unicode="+" horiz-adv-x="584" 
d="M533 291v-119h-182v-182h-119v182h-182v119h182v182h119v-182h182z" />
    <glyph glyph-name="comma" unicode="," horiz-adv-x="278" 
d="M64 146h150v-137q0 -58 -12 -90.5t-42 -55.5q-39 -30 -96 -37v56q86 17 86 115v3h-86v146z" />
    <glyph glyph-name="hyphen" unicode="-" horiz-adv-x="333" 
d="M298 342v-135h-272v135h272z" />
    <glyph glyph-name="period" unicode="." horiz-adv-x="278" 
d="M214 146v-146h-150v146h150z" />
    <glyph glyph-name="slash" unicode="/" horiz-adv-x="278" 
d="M208 714h67l-206 -728h-67z" />
    <glyph glyph-name="zero" unicode="0" 
d="M273 724q129 0 194 -105q50 -81 50 -273q0 -197 -60 -278q-67 -91 -184 -91q-128 0 -194 105q-50 82 -50 268q0 203 60 283q66 91 184 91zM273 611q-61 0 -86 -67q-18 -52 -18 -193q0 -152 22 -199q26 -55 82 -55q61 0 86 65q18 50 18 187q0 158 -22 205q-26 57 -82 57z
" />
    <glyph glyph-name="one" unicode="1" 
d="M238 489h-170v93q184 0 217 127h93v-709h-140v489z" />
    <glyph glyph-name="two" unicode="2" 
d="M512 125v-125h-482q5 98 39.5 156.5t124.5 119.5q117 83 149 122t32 98q0 53 -26.5 83.5t-73.5 30.5q-48 0 -74.5 -33t-26.5 -92v-23h-134q-1 11 -1 25q0 112 61.5 174.5t171.5 62.5q112 0 177.5 -61t65.5 -164q0 -72 -33.5 -122t-125.5 -118q-79 -57 -105 -81.5
t-39 -52.5h300z" />
    <glyph glyph-name="three" unicode="3" 
d="M217 317v94h12q124 0 124 107q0 44 -23 68.5t-65 24.5q-65 0 -86 -50q-10 -25 -11 -75h-130v12q0 95 41 146q62 80 189 80q103 0 164 -52.5t61 -140.5q0 -49 -22 -84.5t-71 -66.5q60 -29 88 -71.5t28 -104.5q0 -104 -67.5 -165.5t-180.5 -61.5q-109 0 -173.5 62.5
t-65.5 168.5h136q6 -111 106 -111q46 0 75.5 30t29.5 77q0 39 -21 67.5t-56 38.5q-28 7 -82 7z" />
    <glyph glyph-name="four" unicode="4" 
d="M522 273v-116h-74v-157h-140v157h-284v118l259 434h165v-436h74zM308 273v303l-185 -303h185z" />
    <glyph glyph-name="five" unicode="5" 
d="M489 709v-125h-293l-23 -148q57 43 123 43q98 0 159.5 -68t61.5 -177q0 -115 -71 -186t-185 -71q-103 0 -167.5 57.5t-66.5 150.5h138q5 -88 98 -88q53 0 83.5 36t30.5 98q0 64 -30.5 100.5t-83.5 36.5q-67 0 -90 -54h-126l63 395h379z" />
    <glyph glyph-name="six" unicode="6" 
d="M507 548h-130q-14 34 -33.5 48.5t-53.5 14.5q-42 0 -70.5 -27t-38.5 -75q-6 -30 -9 -105q33 34 65 48.5t76 14.5q91 0 148.5 -64t57.5 -166q0 -116 -65.5 -188t-171.5 -72q-63 0 -115.5 28t-83.5 77q-51 81 -51 255q0 180 59 277q67 110 203 110q120 0 179 -81
q25 -36 34 -95zM279 357q-49 0 -79 -36.5t-30 -95.5q0 -56 30 -92t78 -36q47 0 77.5 37t30.5 94q0 59 -29 94t-78 35z" />
    <glyph glyph-name="seven" unicode="7" 
d="M528 709v-110q-126 -152 -185 -291.5t-69 -307.5h-141q26 206 93 347q21 46 72.5 124t83.5 113h-353v125h499z" />
    <glyph glyph-name="eight" unicode="8" 
d="M409 386q61 -33 88.5 -76t27.5 -106q0 -100 -70 -163.5t-181 -63.5q-112 0 -182 63t-70 164q0 63 27.5 106t88.5 76q-48 26 -70 60t-22 85q0 84 64.5 138.5t163.5 54.5q98 0 162.5 -54.5t64.5 -137.5q0 -73 -46 -116q-14 -13 -46 -30zM275 611q-47 0 -76.5 -25.5
t-29.5 -66.5t29.5 -67.5t76.5 -26.5q46 0 75.5 26t29.5 67t-29 67t-76 26zM273 330q-50 0 -80.5 -32t-30.5 -86q0 -53 30 -84t81 -31t81.5 31t30.5 82q0 55 -30 87.5t-82 32.5z" />
    <glyph glyph-name="nine" unicode="9" 
d="M38 165h135q2 -31 25.5 -50t60.5 -19q117 0 117 202q-31 -35 -44 -44q-36 -26 -92 -26q-94 0 -153 68t-59 178q0 111 66.5 180.5t172.5 69.5q131 0 200 -116q49 -81 49 -238q0 -184 -59 -284q-64 -110 -202 -110q-92 0 -153.5 53.5t-63.5 135.5zM263 610
q-47 0 -74.5 -36.5t-27.5 -97.5t28 -96.5t76 -35.5t78 36t30 94q0 62 -29.5 99t-80.5 37z" />
    <glyph glyph-name="colon" unicode=":" horiz-adv-x="333" 
d="M263 146v-146h-150v146h150zM263 520v-146h-150v146h150z" />
    <glyph glyph-name="semicolon" unicode=";" horiz-adv-x="333" 
d="M113 146h150v-137q0 -58 -12 -90.5t-42 -55.5q-39 -30 -96 -37v56q86 17 86 115v3h-86v146zM263 520v-146h-150v146h150z" />
    <glyph glyph-name="less" unicode="&#x3c;" horiz-adv-x="584" 
d="M529 474v-109l-382 -133l382 -131v-111l-489 182v121z" />
    <glyph glyph-name="equal" unicode="=" horiz-adv-x="584" 
d="M534 411v-119h-484v119h484zM534 171v-119h-484v119h484z" />
    <glyph glyph-name="greater" unicode="&#x3e;" horiz-adv-x="584" 
d="M40 -10v109l382 133l-382 131v111l489 -182v-121z" />
    <glyph glyph-name="question" unicode="?" horiz-adv-x="611" 
d="M369 201h-124q-2 64 19 105.5t80 92.5q44 36 57.5 57t13.5 55q0 49 -30 82t-75 33q-50 0 -81.5 -41t-28.5 -102v-2h-136q1 113 47 174q65 89 196 89q110 0 179.5 -64t69.5 -166q0 -63 -25 -104t-95 -90q-45 -32 -56 -51t-11 -68zM385 146v-146h-150v146h150z" />
    <glyph glyph-name="at" unicode="@" horiz-adv-x="975" 
d="M644 508h90l-78 -280q-8 -30 -8 -42q0 -22 13 -35.5t36 -13.5q56 0 110 72q51 71 51 161q0 118 -98 206q-104 92 -249 92q-175 0 -284 -126q-103 -119 -103 -276q0 -153 118 -245q104 -81 244 -81q116 0 207 41l28 -73q-101 -46 -237 -46q-185 0 -306 95
q-72 56 -111.5 137t-39.5 170q0 87 38.5 178t104.5 159q139 144 346 144q190 0 320 -125q111 -108 111 -265q0 -121 -82 -215q-75 -84 -168 -84q-51 0 -89 26q-26 18 -36 49q-62 -75 -150 -75q-68 0 -116 50t-48 121q0 108 74 200q34 42 82.5 66.5t99.5 24.5q79 0 114 -72z
M511 447q-59 0 -107.5 -63.5t-48.5 -139.5q0 -45 26 -76t63 -31q48 0 88 47q28 32 45.5 77.5t17.5 83.5q0 47 -22.5 74.5t-61.5 27.5z" />
    <glyph glyph-name="A" unicode="A" horiz-adv-x="722" 
d="M501 147h-273l-49 -147h-153l259 729h166l252 -729h-154zM460 272l-95 285l-95 -285h190z" />
    <glyph glyph-name="B" unicode="B" horiz-adv-x="722" 
d="M82 0v729h325q110 0 172 -53q66 -58 66 -139q0 -47 -23 -81t-77 -69q121 -71 121 -177q0 -44 -19.5 -86.5t-52.5 -70.5q-63 -53 -184 -53h-328zM232 604v-165h163q106 0 106 82q0 83 -106 83h-163zM232 314v-189h179q111 0 111 94q0 95 -111 95h-179z" />
    <glyph glyph-name="C" unicode="C" horiz-adv-x="722" 
d="M682 482h-143q-12 52 -33 78q-42 53 -123 53q-89 0 -139 -68t-50 -189q0 -119 48.5 -186t135.5 -67q70 0 112 38t49 108h146q-7 -125 -91 -198.5t-220 -73.5q-152 0 -241 102.5t-89 278.5q0 177 90 280t244 103q168 0 255 -115q42 -56 49 -144z" />
    <glyph glyph-name="D" unicode="D" horiz-adv-x="722" 
d="M77 0v729h285q84 0 138.5 -20t91.5 -64q89 -106 89 -280q0 -176 -89 -280q-71 -85 -230 -85h-285zM227 125h135q169 0 169 239q0 240 -169 240h-135v-479z" />
    <glyph glyph-name="E" unicode="E" horiz-adv-x="667" 
d="M229 314v-189h395v-125h-545v729h527v-125h-377v-165h349v-125h-349z" />
    <glyph glyph-name="F" unicode="F" horiz-adv-x="611" 
d="M224 314v-314h-150v729h512v-125h-362v-165h319v-125h-319z" />
    <glyph glyph-name="G" unicode="G" horiz-adv-x="778" 
d="M711 392v-394h-90l-18 96q-42 -61 -94 -89t-126 -28q-148 0 -244.5 108t-96.5 274q0 170 98 276t255 106q132 0 217 -66t99 -179h-141q-17 49 -45 73q-50 44 -129 44q-95 0 -149.5 -67t-54.5 -185q0 -112 58.5 -184t149.5 -72q92 0 149 70q31 36 36 92h-166v125h292z" />
    <glyph glyph-name="H" unicode="H" horiz-adv-x="722" 
d="M507 331h-289v-331h-150v729h150v-273h288v273h151v-729h-150v331z" />
    <glyph glyph-name="I" unicode="I" horiz-adv-x="278" 
d="M213 729v-729h-150v729h150z" />
    <glyph glyph-name="J" unicode="J" 
d="M336 729h150v-539q0 -102 -61 -157.5t-173 -55.5q-103 0 -167 58q-61 57 -61 163v72h150v-70q0 -50 19 -72.5t62 -22.5q39 0 60 22t21 63v539z" />
    <glyph glyph-name="K" unicode="K" horiz-adv-x="722" 
d="M224 244v-244h-150v729h150v-320l285 320h177l-291 -314l322 -415h-179l-239 322z" />
    <glyph glyph-name="L" unicode="L" horiz-adv-x="611" 
d="M230 729v-604h349v-125h-499v729h150z" />
    <glyph glyph-name="M" unicode="M" horiz-adv-x="833" 
d="M216 568v-568h-150v729h224l132 -580l128 580h226v-729h-150v568l-129 -568h-150z" />
    <glyph glyph-name="N" unicode="N" horiz-adv-x="722" 
d="M511 0l-293 504v-504h-150v729h154l289 -496v496h150v-729h-150z" />
    <glyph glyph-name="O" unicode="O" horiz-adv-x="778" 
d="M390 741q156 0 250 -101q102 -110 102 -286q0 -77 -27.5 -151.5t-74.5 -124.5q-94 -101 -249 -101t-249 101q-49 52 -75.5 125.5t-26.5 155.5q0 171 102 281q93 101 248 101zM391 613q-91 0 -146 -69.5t-55 -184.5t55 -184.5t146 -69.5q90 0 145.5 69t55.5 181
q0 118 -54.5 188t-146.5 70z" />
    <glyph glyph-name="P" unicode="P" horiz-adv-x="667" 
d="M226 260v-260h-150v729h322q114 0 174.5 -58t60.5 -168q0 -111 -60 -177t-160 -66h-187zM226 385h140q117 0 117 109q0 56 -28.5 83t-88.5 27h-140v-219z" />
    <glyph glyph-name="Q" unicode="Q" horiz-adv-x="778" 
d="M665 103l80 -76l-76 -81l-86 81q-83 -50 -189 -50q-155 0 -249 101q-48 52 -75 126t-27 155t27 155t75 126q94 101 249 101t249 -101q48 -52 75 -125.5t27 -153.5q0 -74 -21.5 -143.5t-58.5 -114.5zM480 278l82 -78q33 66 33 158q0 116 -54.5 185.5t-146.5 69.5
q-91 0 -146 -69.5t-55 -184.5t55 -184.5t145 -69.5q52 0 88 19l-77 73z" />
    <glyph glyph-name="R" unicode="R" horiz-adv-x="722" 
d="M230 289v-289h-150v729h391q92 0 141 -50q55 -57 55 -147q0 -132 -123 -180q27 -11 40 -17.5t26.5 -21.5t18 -27t9 -44t5.5 -63t2 -92q0 -42 32 -60v-27h-161q-14 26 -18.5 50t-4.5 75q0 29 1 48q1 13 1 29q0 46 -22 66.5t-71 20.5h-172zM230 414h181q57 0 79 19
q27 24 27 78q0 51 -27 74q-23 19 -79 19h-181v-190z" />
    <glyph glyph-name="S" unicode="S" horiz-adv-x="667" 
d="M607 507h-140q-8 114 -153 114q-58 0 -92 -24.5t-34 -65.5q0 -40 29 -59.5t109 -35.5l114 -22q101 -20 147 -67.5t46 -133.5q0 -111 -79 -173.5t-220 -62.5q-140 0 -217.5 62t-84.5 179h146q4 -59 46 -90t118 -31q68 0 107.5 26t39.5 72q0 44 -31 68t-106 38l-102 20
q-111 21 -158 66t-47 130q0 107 72.5 165.5t203.5 58.5q160 0 235 -83q51 -57 51 -151z" />
    <glyph glyph-name="T" unicode="T" horiz-adv-x="611" 
d="M385 604v-604h-150v604h-221v125h584v-125h-213z" />
    <glyph glyph-name="U" unicode="U" horiz-adv-x="722" 
d="M504 729h150v-494q0 -120 -71 -184q-82 -74 -218 -74t-218 74q-71 64 -71 184v494h150v-494q0 -130 139 -130t139 130v494z" />
    <glyph glyph-name="V" unicode="V" horiz-adv-x="667" 
d="M397 0h-127l-246 729h151l162 -549l159 549h151z" />
    <glyph glyph-name="W" unicode="W" horiz-adv-x="944" 
d="M730 0h-135l-122 569l-119 -569h-135l-206 729h159l113 -546l113 546h148l118 -547l109 547h159z" />
    <glyph glyph-name="X" unicode="X" horiz-adv-x="667" 
d="M419 372l234 -372h-178l-140 253l-139 -253h-174l230 367l-222 362h178l128 -240l134 240h174z" />
    <glyph glyph-name="Y" unicode="Y" horiz-adv-x="667" 
d="M419 270v-270h-150v270l-242 459h167l149 -322l139 322h168z" />
    <glyph glyph-name="Z" unicode="Z" horiz-adv-x="611" 
d="M578 729v-125l-372 -479h372v-125h-548v125l373 479h-373v125h548z" />
    <glyph glyph-name="bracketleft" unicode="[" horiz-adv-x="333" 
d="M308 729v-102h-112v-725h112v-102h-242v929h242z" />
    <glyph glyph-name="backslash" unicode="\" horiz-adv-x="278" 
d="M55 714l234 -728h-67l-234 728h67z" />
    <glyph glyph-name="bracketright" unicode="]" horiz-adv-x="333" 
d="M18 -200v102h112v725h-112v102h242v-929h-242z" />
    <glyph glyph-name="asciicircum" unicode="^" horiz-adv-x="584" 
d="M522 270h-113l-121 300l-115 -300h-112l165 425h125z" />
    <glyph glyph-name="underscore" unicode="_" 
d="M578 -120v-69h-600v69h600z" />
    <glyph glyph-name="quoteleft" unicode="&#x2018;" horiz-adv-x="278" 
d="M202 469h-135v109q0 79 45 117q37 31 90 34v-46q-83 -15 -80 -89h80v-125z" />
    <glyph glyph-name="a" unicode="a" 
d="M524 17v-17h-152q-16 20 -16 54q-74 -77 -164 -77q-77 0 -126 51q-38 41 -38 111q0 143 159 170l56 10q69 11 88 21q24 13 24 42q0 54 -81 54q-52 0 -73 -16t-26 -58h-135q13 187 231 187q221 0 221 -166v-300q0 -37 32 -66zM355 217v38q-19 -9 -59 -17l-48 -9
q-44 -9 -62 -26t-18 -48q0 -30 20.5 -47.5t55.5 -17.5q53 0 82 33t29 94z" />
    <glyph glyph-name="b" unicode="b" horiz-adv-x="611" 
d="M59 729h140v-259q50 79 149 79q49 0 95 -23.5t74 -63.5q58 -84 58 -199q0 -122 -65 -204t-162 -82q-99 0 -149 78v-55h-140v729zM317 432q-52 0 -85 -46.5t-33 -120.5q0 -77 32.5 -124t85.5 -47q52 0 85 47t33 121q0 75 -33 122.5t-85 47.5z" />
    <glyph glyph-name="c" unicode="c" 
d="M522 338h-134q-12 53 -34.5 75.5t-65.5 22.5q-62 0 -87 -46q-27 -51 -27 -131q0 -79 30.5 -124t83.5 -45q41 0 64 22.5t36 74.5h134q-10 -97 -73.5 -153.5t-161.5 -56.5q-120 0 -186.5 74t-66.5 208q0 138 67 214t188 76q101 0 163.5 -56t69.5 -155z" />
    <glyph glyph-name="d" unicode="d" horiz-adv-x="611" 
d="M405 0v55q-52 -78 -149 -78q-49 0 -95 23.5t-74 62.5q-58 84 -58 199q0 122 65 204.5t162 82.5q98 0 149 -79v259h140v-729h-140zM287 432q-52 0 -85 -47.5t-33 -122.5q0 -74 33 -121t85 -47t85 46t33 120q0 77 -32.5 124.5t-85.5 47.5z" />
    <glyph glyph-name="e" unicode="e" 
d="M524 226h-362q3 -68 20 -95q31 -47 92 -47q80 0 107 68h138q-23 -80 -91 -127.5t-159 -47.5q-115 0 -181 74.5t-66 204.5q0 136 67 214.5t183 78.5q82 0 143.5 -41.5t88.5 -115.5q21 -61 21 -142q0 -12 -1 -24zM164 319h215q-4 50 -22 78q-32 45 -87 45q-92 0 -106 -123z
" />
    <glyph glyph-name="f" unicode="f" horiz-adv-x="333" 
d="M313 529v-93h-83v-436h-140v436h-76v93h76v65q0 135 138 135q41 0 80 -3v-105q-18 3 -40 3q-38 0 -38 -42v-53h83z" />
    <glyph glyph-name="g" unicode="g" horiz-adv-x="611" 
d="M408 540h133v-558q0 -95 -67.5 -147.5t-189.5 -52.5t-186 52q-52 43 -53 101h145q17 -63 99 -63q53 0 86 30.5t33 79.5v73q-39 -44 -72.5 -61t-80.5 -17q-100 0 -160.5 77t-60.5 203q0 125 64 208.5t160 83.5q90 0 150 -92v83zM288 432q-51 0 -82.5 -48t-31.5 -125
q0 -73 31 -119t81 -46q55 0 89.5 46t34.5 119q0 75 -34.5 124t-87.5 49z" />
    <glyph glyph-name="h" unicode="h" horiz-adv-x="611" 
d="M67 729h140v-267q58 87 158 87q72 0 121 -41q55 -46 55 -146v-362h-140v330q0 43 -16 67q-24 33 -70 33q-47 0 -77.5 -30t-30.5 -76v-324h-140v729z" />
    <glyph glyph-name="i" unicode="i" horiz-adv-x="278" 
d="M207 540v-540h-140v540h140zM207 729v-125h-140v125h140z" />
    <glyph glyph-name="j" unicode="j" horiz-adv-x="278" 
d="M210 540v-634q0 -66 -29 -95t-94 -29q-36 0 -83 5v112q13 -4 25 -4q23 0 32 9.5t9 32.5v603h140zM210 729v-125h-140v125h140z" />
    <glyph glyph-name="k" unicode="k" 
d="M199 330l177 210h159l-184 -204l197 -336h-164l-129 238l-56 -61v-177h-140v729h140v-399z" />
    <glyph glyph-name="l" unicode="l" horiz-adv-x="278" 
d="M207 729v-729h-140v729h140z" />
    <glyph glyph-name="m" unicode="m" horiz-adv-x="889" 
d="M60 540h139v-67q35 41 68.5 58.5t79.5 17.5q106 0 147 -80q60 80 158 80q81 0 126.5 -44t45.5 -123v-382h-140v360q0 32 -20.5 51t-55.5 19q-45 0 -70.5 -28t-25.5 -78v-324h-140v360q0 32 -20.5 51t-55.5 19q-45 0 -70.5 -28t-25.5 -78v-324h-140v540z" />
    <glyph glyph-name="n" unicode="n" horiz-adv-x="611" 
d="M63 540h140v-78q58 87 162 87q86 0 133.5 -49t47.5 -138v-362h-140v333q0 97 -90 97q-51 0 -82 -29t-31 -77v-324h-140v540z" />
    <glyph glyph-name="o" unicode="o" horiz-adv-x="611" 
d="M301 549q127 0 197.5 -76.5t70.5 -213.5q0 -130 -72 -206t-195 -76q-125 0 -196 76.5t-71 209.5t71 209.5t195 76.5zM302 436q-57 0 -92 -48t-35 -125t35 -125t92 -48q56 0 91.5 47.5t35.5 123.5q0 80 -34.5 127.5t-92.5 47.5z" />
    <glyph glyph-name="p" unicode="p" horiz-adv-x="611" 
d="M198 540v-80q50 89 150 89q49 0 95 -23.5t73 -61.5q58 -81 58 -202q0 -123 -64.5 -204.5t-161.5 -81.5q-100 0 -150 88v-282h-140v758h140zM316 432q-53 0 -85.5 -47t-32.5 -123t32.5 -122.5t85.5 -46.5q52 0 85 47t33 120q0 77 -32.5 124.5t-85.5 47.5z" />
    <glyph glyph-name="q" unicode="q" horiz-adv-x="611" 
d="M404 540h140v-758h-140v282q-49 -88 -151 -88q-48 0 -94 23.5t-73 61.5q-58 79 -58 201q0 124 64.5 205.5t161.5 81.5q100 0 150 -89v80zM286 432q-53 0 -85.5 -47t-32.5 -123t32.5 -122.5t85.5 -46.5q52 0 85 46t33 120q0 79 -32.5 126t-85.5 47z" />
    <glyph glyph-name="r" unicode="r" horiz-adv-x="389" 
d="M63 540h140v-106q22 55 62 85t88 30q9 0 17 -1v-142q-25 4 -44 4q-123 0 -123 -123v-287h-140v540z" />
    <glyph glyph-name="s" unicode="s" 
d="M505 366h-135q-1 73 -101 73q-37 0 -59 -13.5t-22 -36.5q0 -16 10 -24.5t39 -17.5l177 -51q106 -31 106 -136q0 -84 -64 -135q-60 -48 -172 -48q-249 0 -255 180h137q8 -37 27 -51q29 -19 83 -19q49 0 76.5 14t27.5 39q0 16 -10.5 26t-36.5 18l-167 52q-64 21 -88 45
q-30 33 -30 88q0 83 59.5 131.5t162.5 48.5q109 0 171 -48.5t64 -134.5z" />
    <glyph glyph-name="t" unicode="t" horiz-adv-x="333" 
d="M301 529v-93h-78v-294q0 -36 9 -47.5t37 -11.5q11 0 32 3v-98q-34 -11 -81 -11q-137 0 -137 127v332h-69v93h69v145h140v-145h78z" />
    <glyph glyph-name="u" unicode="u" horiz-adv-x="611" 
d="M541 0h-140v64q-58 -87 -162 -87q-86 0 -133.5 49t-47.5 138v376h140v-347q0 -97 90 -97q51 0 82 29t31 77v338h140v-540z" />
    <glyph glyph-name="v" unicode="v" 
d="M350 0h-147l-189 540h148l117 -395l109 395h148z" />
    <glyph glyph-name="w" unicode="w" horiz-adv-x="778" 
d="M613 0h-145l-81 381l-86 -381h-144l-152 540h145l86 -378l82 378h140l81 -378l82 378h145z" />
    <glyph glyph-name="x" unicode="x" 
d="M355 272l180 -272h-168l-91 168l-92 -168h-168l180 272l-176 268h168l88 -163l87 163h168z" />
    <glyph glyph-name="y" unicode="y" 
d="M394 540h144l-222 -639q-17 -48 -33.5 -69.5t-45.5 -33.5q-41 -17 -101 -17q-22 0 -50 4v105q22 -6 37 -6q37 0 62 26t25 64v3v1l-201 562h154l119 -393z" />
    <glyph glyph-name="z" unicode="z" horiz-adv-x="500" 
d="M459 540v-113l-265 -314h274v-113h-447v113l267 314h-249v113h420z" />
    <glyph glyph-name="braceleft" unicode="{" horiz-adv-x="389" 
d="M317 729v-99h-37q-45 0 -45 -57v-195q0 -55 -20.5 -78t-76.5 -31q56 -9 76.5 -32t20.5 -78v-195q0 -37 10 -51t35 -14h37v-99h-76q-54 0 -88.5 39.5t-34.5 100.5v210q0 30 -7 44.5t-24 22.5q-14 5 -46 5l-4 1v92h4h12q65 1 65 63v211q0 61 34.5 100.5t88.5 39.5h76z" />
    <glyph glyph-name="bar" unicode="|" horiz-adv-x="280" 
d="M180 729v-929h-80v929h80z" />
    <glyph glyph-name="braceright" unicode="}" horiz-adv-x="389" 
d="M72 -200v99h37q45 0 45 57v195q0 55 20.5 78t76.5 31q-56 9 -76.5 32t-20.5 78v195q0 37 -10 51t-35 14h-37v99h76q54 0 88.5 -39.5t34.5 -100.5v-210q0 -30 7 -44.5t24 -22.5q14 -5 46 -5l4 -1v-92h-4h-12q-65 -1 -65 -63v-211q0 -61 -34.5 -100.5t-88.5 -39.5h-76z" />
    <glyph glyph-name="asciitilde" unicode="~" horiz-adv-x="584" 
d="M441 288h78q-9 -146 -127 -146q-45 0 -83 26l-57 42q-32 24 -61 24q-36 0 -48 -27q-4 -11 -5 -38h-78q7 145 127 145q48 0 83 -25l57 -42q34 -25 61 -25q36 0 48 27q4 11 5 39z" />
    <glyph glyph-name="exclamdown" unicode="&#xa1;" horiz-adv-x="333" 
d="M66 -186v210l42 309h67l41 -309v-210h-150zM66 394v146h150v-146h-150z" />
    <glyph glyph-name="cent" unicode="&#xa2;" 
d="M303 435v-344q34 5 54 27.5t31 68.5h134q-8 -90 -69 -148t-150 -62v-101h-44v102q-104 7 -163.5 81.5t-59.5 199.5q0 129 57 203.5t166 85.5v86h44v-85q92 -1 152.5 -59.5t66.5 -151.5h-134q-10 46 -30 69t-55 28zM259 94v339q-83 -22 -83 -173q0 -141 83 -166z" />
    <glyph glyph-name="sterling" unicode="&#xa3;" 
d="M375 371v-55h-122q15 -32 15 -59q0 -44 -26 -82.5t-90 -88.5q78 37 112 37q21 0 64 -11q37 -10 63 -10q47 0 105 29l41 -109q-76 -45 -145 -45q-32 0 -99 16q-64 16 -98 16q-49 0 -109 -30l-55 101q63 43 86.5 75t23.5 76q0 34 -21 85h-89v55h60q-34 59 -43.5 85.5
t-9.5 59.5q0 90 74 150q64 49 164 49q162 0 218 -110q21 -41 28 -121h-132l-1 11q-4 34 -11.5 51t-23.5 31q-30 27 -77 27q-43 0 -70.5 -25.5t-27.5 -65.5q0 -22 27 -77q23 -47 30 -65h139z" />
    <glyph glyph-name="fraction" unicode="&#x2044;" horiz-adv-x="167" 
d="M250 715h87l-423 -735h-87z" />
    <glyph glyph-name="yen" unicode="&#xa5;" 
d="M497 351v-59h-142v-53h142v-59h-142v-180h-140v180h-145v59h145v53h-145v59h138l-203 353h139l139 -254l134 254h135l-192 -353h137z" />
    <glyph glyph-name="florin" unicode="&#x192;" 
d="M500 480v-97h-137l-59 -382q-19 -124 -68 -173q-48 -48 -125 -48q-47 0 -90 22l24 115q35 -21 57 -21q26 0 40.5 24.5t24.5 86.5l60 376h-123v97h138l11 59q17 106 62 155.5t124 49.5q40 0 96 -17l-20 -115q-36 16 -55 16q-58 0 -76 -107l-7 -41h123z" />
    <glyph glyph-name="section" unicode="&#xa7;" 
d="M473 544h-127q-10 77 -78 77q-29 0 -46.5 -14t-17.5 -37q0 -21 18.5 -38.5t71.5 -46.5l127 -70q97 -54 97 -153q0 -50 -22 -82.5t-72 -55.5q70 -49 70 -134t-60 -138t-158 -53q-209 0 -211 201h131v-10q3 -43 19 -58q22 -22 62 -22q34 0 55 17t21 44t-18 45
q-10 10 -52 33l-171 100q-79 46 -79 132q0 45 19.5 75.5t72.5 71.5q-28 28 -34 37q-27 35 -27 86q0 75 59 123.5t150 48.5q58 0 104.5 -20.5t69.5 -55.5q23 -38 26 -103zM337 306l-143 76q-42 -25 -42 -65q0 -23 11.5 -38t41.5 -32l147 -80q46 32 46 65q0 24 -13 39.5
t-48 34.5z" />
    <glyph glyph-name="currency" unicode="&#xa4;" 
d="M388 528l73 73l69 -69l-75 -75q27 -54 27 -103q0 -57 -29 -108l77 -76l-69 -68l-75 75q-34 -19 -53.5 -24.5t-46.5 -5.5q-69 0 -111 31l-79 -78l-68 69l78 77q-30 55 -30 106q0 59 29 105l-79 79l69 68l77 -77q51 31 109 31q59 0 107 -30zM280 460q-45 0 -76.5 -31
t-31.5 -77q0 -44 31.5 -75.5t75.5 -31.5t75.5 31.5t31.5 76.5q0 44 -31.5 75.5t-74.5 31.5z" />
    <glyph glyph-name="quotesingle" unicode="'" horiz-adv-x="238" 
d="M188 729v-130l-42 -129h-56l-40 129v130h138z" />
    <glyph glyph-name="quotedblleft" unicode="&#x201c;" horiz-adv-x="500" 
d="M206 469h-135v109q0 79 45 117q37 31 90 34v-46q-83 -15 -80 -89h80v-125zM433 469h-135v109q0 79 45 117q37 31 90 34v-46q-83 -15 -80 -89h80v-125z" />
    <glyph glyph-name="guillemotleft" unicode="&#xab;" 
d="M88 218v114l167 149v-117l-101 -89l101 -89v-114zM301 218v114l167 149v-117l-101 -89l101 -89v-114z" />
    <glyph glyph-name="guilsinglleft" unicode="&#x2039;" horiz-adv-x="333" 
d="M83 218v114l167 149v-117l-101 -89l101 -89v-114z" />
    <glyph glyph-name="guilsinglright" unicode="&#x203a;" horiz-adv-x="333" 
d="M247 335v-115l-167 -148v117l101 89l-101 89v114z" />
    <glyph glyph-name="fi" unicode="&#xfb01;" horiz-adv-x="611" 
d="M548 540v-540h-140v540h140zM548 729v-125h-140v125h140zM308 529v-93h-83v-436h-140v436h-76v93h76v65q0 135 138 135q41 0 80 -3v-105q-18 3 -40 3q-38 0 -38 -42v-53h83z" />
    <glyph glyph-name="fl" unicode="&#xfb02;" horiz-adv-x="611" 
d="M546 729v-729h-140v729h140zM311 529v-93h-83v-436h-140v436h-76v93h76v65q0 135 138 135q41 0 80 -3v-105q-18 3 -40 3q-38 0 -38 -42v-53h83z" />
    <glyph glyph-name="endash" unicode="&#x2013;" 
d="M557 311v-104h-566v104h566z" />
    <glyph glyph-name="dagger" unicode="&#x2020;" 
d="M523 485v-116h-179v-563h-134v563h-179v116h179v224h134v-224h179z" />
    <glyph glyph-name="daggerdbl" unicode="&#x2021;" 
d="M520 485v-116h-179v-223h179v-116h-179v-224h-134v224h-179v116h179v223h-179v116h179v224h134v-224h179z" />
    <glyph glyph-name="periodcentered" unicode="&#xb7;" horiz-adv-x="278" 
d="M64 292h124v-123h-124v123z" />
    <glyph glyph-name="paragraph" unicode="&#xb6;" 
d="M529 729v-72h-43v-848h-98v848h-63v-848h-98v458q-92 4 -150 68t-58 160q0 87 51 155q58 79 156 79h303z" />
    <glyph glyph-name="bullet" unicode="&#x2022;" horiz-adv-x="350" 
d="M177 425q50 0 86.5 -37t36.5 -88q0 -52 -36.5 -88.5t-88.5 -36.5t-88.5 36.5t-36.5 88.5t37 88.5t90 36.5z" />
    <glyph glyph-name="quotesinglbase" unicode="&#x201a;" horiz-adv-x="278" 
d="M66 125h135v-109q0 -79 -45 -117q-37 -31 -90 -34v46q83 15 80 89h-80v125z" />
    <glyph glyph-name="quotedblbase" unicode="&#x201e;" horiz-adv-x="500" 
d="M72 125h135v-109q0 -79 -45 -117q-37 -31 -90 -34v46q83 15 80 89h-80v125zM297 125h135v-109q0 -79 -45 -117q-37 -31 -90 -34v46q83 15 80 89h-80v125z" />
    <glyph glyph-name="quotedblright" unicode="&#x201d;" horiz-adv-x="500" 
d="M73 729h135v-109q0 -79 -45 -117q-37 -31 -90 -34v46q83 15 80 89h-80v125zM305 729h135v-109q0 -79 -45 -117q-37 -31 -90 -34v46q83 15 80 89h-80v125z" />
    <glyph glyph-name="guillemotright" unicode="&#xbb;" 
d="M255 335v-115l-167 -148v117l101 89l-101 89v114zM462 335v-115l-167 -148v117l101 89l-101 89v114z" />
    <glyph glyph-name="ellipsis" unicode="&#x2026;" horiz-adv-x="1000" 
d="M242 146v-146h-150v146h150zM575 146v-146h-150v146h150zM908 146v-146h-150v146h150z" />
    <glyph glyph-name="perthousand" unicode="&#x2030;" horiz-adv-x="1000" 
d="M160 739q63 0 106.5 -43.5t43.5 -106.5q0 -59 -44 -102.5t-105 -43.5q-62 0 -106 43.5t-44 104.5t44 104.5t105 43.5zM160 659q-29 0 -49.5 -20.5t-20.5 -48.5q0 -29 20.5 -49.5t49.5 -20.5t50 20.5t21 48.5q0 29 -20.5 49.5t-50.5 20.5zM496 738h67l-421 -759h-66z
M471 274q63 0 106.5 -43.5t43.5 -106.5q0 -60 -44 -103t-105 -43q-62 0 -106 43.5t-44 104.5t44 104.5t105 43.5zM471 194q-29 0 -49.5 -20.5t-20.5 -48.5q0 -29 21 -49.5t50 -20.5t49.5 20.5t20.5 48.5q0 29 -20.5 49.5t-50.5 20.5zM840 274q63 0 106.5 -43.5t43.5 -106.5
q0 -60 -44 -103t-105 -43q-62 0 -106 43.5t-44 104.5t44 104.5t105 43.5zM840 194q-29 0 -49.5 -20.5t-20.5 -48.5q0 -29 21 -49.5t50 -20.5t49.5 20.5t20.5 48.5q0 29 -20.5 49.5t-50.5 20.5z" />
    <glyph glyph-name="questiondown" unicode="&#xbf;" horiz-adv-x="611" 
d="M239 339h124q2 -64 -19 -105.5t-81 -92.5q-44 -36 -57.5 -57t-13.5 -55q0 -49 30 -82t75 -33q50 0 82 41t29 102v2h136q-1 -113 -47 -174q-65 -89 -196 -89q-111 0 -180.5 64t-69.5 166q0 63 25.5 104t95.5 90q45 32 56 51t11 68zM223 394v146h150v-146h-150z" />
    <glyph glyph-name="grave" unicode="`" horiz-adv-x="333" 
d="M17 757h126l70 -150h-70z" />
    <glyph glyph-name="acute" unicode="&#xb4;" horiz-adv-x="333" 
d="M317 757l-126 -150h-70l70 150h126z" />
    <glyph glyph-name="circumflex" unicode="&#x2c6;" horiz-adv-x="333" 
d="M116 757h107l103 -150h-78l-82 100l-82 -100h-76z" />
    <glyph glyph-name="tilde" unicode="&#x2dc;" horiz-adv-x="333" 
d="M282 749h63q-6 -127 -95 -127q-24 0 -55 12l-71 26q-18 6 -30 6q-18 0 -27 -10.5t-13 -34.5h-63q3 58 28 91t66 33q20 0 56 -13l71 -25q14 -6 34 -6q32 0 36 48z" />
    <glyph glyph-name="macron" unicode="&#xaf;" horiz-adv-x="333" 
d="M315 719v-79h-299v79h299z" />
    <glyph glyph-name="breve" unicode="&#x2d8;" horiz-adv-x="333" 
d="M299 748v-11q0 -56 -38 -94t-94 -38t-94 38t-38 95v10h56q9 -66 77 -66q64 0 75 66h56z" />
    <glyph glyph-name="dotaccent" unicode="&#x2d9;" horiz-adv-x="333" 
d="M222 743v-122h-110v122h110z" />
    <glyph glyph-name="dieresis" unicode="&#xa8;" horiz-adv-x="333" 
d="M128 743v-122h-110v122h110zM314 743v-122h-110v122h110z" />
    <glyph glyph-name="ring" unicode="&#x2da;" horiz-adv-x="333" 
d="M168 770q37 0 63 -26.5t26 -64.5q0 -37 -26.5 -63t-63.5 -26t-63.5 26t-26.5 64t26.5 64t64.5 26zM168 722q-18 0 -30.5 -12.5t-12.5 -29.5t12.5 -29.5t30.5 -12.5q17 0 29 12.5t12 29.5t-12 29.5t-29 12.5z" />
    <glyph glyph-name="cedilla" unicode="&#xb8;" horiz-adv-x="333" 
d="M162 0h43l-29 -63q21 7 42 7q35 0 55.5 -19t20.5 -52q0 -45 -33.5 -69t-95.5 -24q-55 0 -138 28l19 52q69 -30 105 -30q24 0 40.5 12t16.5 29q0 16 -14 25.5t-37 9.5q-24 0 -49 -12z" />
    <glyph glyph-name="hungarumlaut" unicode="&#x2dd;" horiz-adv-x="333" 
d="M152 757l-126 -147h-70l70 147h126zM340 757l-126 -147h-70l70 147h126z" />
    <glyph glyph-name="ogonek" unicode="&#x2db;" horiz-adv-x="333" 
d="M169 0h75q-64 -40 -86.5 -67.5t-22.5 -65.5q0 -50 76 -50q30 0 57 6v-47q-39 -10 -79 -10q-67 0 -105.5 25.5t-38.5 69.5t33 81t91 58z" />
    <glyph glyph-name="caron" unicode="&#x2c7;" horiz-adv-x="333" 
d="M219 607h-107l-103 150h78l82 -97l82 97h76z" />
    <glyph glyph-name="emdash" unicode="&#x2014;" horiz-adv-x="1000" 
d="M1003 311v-104h-1010v104h1010z" />
    <glyph glyph-name="AE" unicode="&#xc6;" horiz-adv-x="1000" 
d="M430 152h-223l-53 -152h-153l263 729h682v-125h-366v-165h339v-125h-339v-189h386v-125h-536v152zM430 277v327h-67l-114 -327h181z" />
    <glyph glyph-name="ordfeminine" unicode="&#xaa;" horiz-adv-x="370" 
d="M321 340v-78h-284v78h284zM329 410v-10h-92q-9 11 -10 32q-43 -46 -98 -46q-44 0 -71 27t-27 71q0 87 95 103l34 6q41 7 52 13q15 7 15 24q0 31 -49 31q-30 0 -43 -10t-16 -34h-78q2 112 135 112t133 -100v-179q0 -22 20 -40zM227 530v23q-11 -6 -35 -10l-29 -6
q-26 -5 -37 -15t-11 -29q0 -39 46 -39q31 0 48.5 20t17.5 56z" />
    <glyph glyph-name="Lslash" unicode="&#x141;" horiz-adv-x="611" 
d="M230 423l165 112v-88l-165 -113v-209h367v-125h-517v257l-80 -56v89l80 56v383h150v-306z" />
    <glyph glyph-name="Oslash" unicode="&#xd8;" horiz-adv-x="778" 
d="M165 52l-83 -91l-51 46l86 95q-82 110 -82 257q0 173 103 281q94 101 250 101q137 0 232 -84l83 92l52 -45l-89 -99q74 -101 74 -248q0 -80 -27 -154t-76 -125q-94 -101 -249 -101q-136 0 -223 75zM567 497l-311 -344q50 -48 132 -48q92 0 147 70t55 186q0 75 -23 136z
M214 209l314 346q-55 58 -140 58q-93 0 -148 -70t-55 -187q0 -83 29 -147z" />
    <glyph glyph-name="OE" unicode="&#x152;" horiz-adv-x="1000" 
d="M624 314v-189h346v-125h-490v59q-37 -46 -70.5 -64t-84.5 -18q-130 0 -213.5 107.5t-83.5 274.5q0 169 84 275.5t217 106.5q48 0 81.5 -14.5t69.5 -49.5v52h471v-125h-327v-165h299v-125h-299zM474 178v362q-42 73 -118 73q-80 0 -129 -69.5t-49 -184.5q0 -114 49 -184
t128 -70q77 0 119 73z" />
    <glyph glyph-name="ordmasculine" unicode="&#xba;" horiz-adv-x="365" 
d="M334 340v-78h-301v78h301zM183 729q76 0 118 -46t42 -128q0 -78 -43 -123.5t-117 -45.5t-117 46t-43 125q0 80 43 126t117 46zM183 661q-34 0 -55 -28.5t-21 -74.5t21 -75t55 -29t55 28.5t21 73.5q0 47 -21 76t-55 29z" />
    <glyph glyph-name="ae" unicode="&#xe6;" horiz-adv-x="889" 
d="M712 152h138q-23 -80 -91 -127.5t-159 -47.5q-136 0 -200 104q-89 -105 -205 -105q-77 0 -122.5 44.5t-45.5 120.5q0 145 159 171l56 10q69 11 88 21q24 13 24 40q0 53 -85 53q-47 0 -68.5 -16.5t-26.5 -57.5h-131q3 187 228 187q117 0 175 -50q62 50 155 50
q84 0 145.5 -41.5t89.5 -115.5q21 -60 21 -142q0 -12 -1 -24h-362q0 -62 20 -93q32 -49 94 -49q36 0 65.5 19.5t38.5 48.5zM354 216v38q-22 -13 -59 -19l-48 -7q-80 -11 -80 -73q0 -31 20.5 -48.5t55.5 -17.5q54 0 82.5 32.5t28.5 94.5zM495 319h216q-11 123 -109 123
t-107 -123z" />
    <glyph glyph-name="dotlessi" unicode="&#x131;" horiz-adv-x="278" 
d="M207 540v-540h-140v540h140z" />
    <glyph glyph-name="lslash" unicode="&#x142;" horiz-adv-x="278" 
d="M196 442l56 40v-79l-56 -40v-363h-140v294l-56 -40v79l56 40v356h140v-287z" />
    <glyph glyph-name="oslash" unicode="&#xf8;" horiz-adv-x="611" 
d="M126 35l-72 -73l-43 40l75 77q-50 72 -50 184q0 133 72 209.5t197 76.5q107 0 182 -62l68 70l43 -41l-72 -73q47 -73 47 -180q0 -133 -71.5 -209.5t-195.5 -76.5q-116 0 -180 58zM421 336l-201 -204q36 -42 86 -42q55 0 91 48t36 122q0 40 -12 76zM190 184l202 206
q-39 47 -89 47q-56 0 -91.5 -48t-35.5 -123q0 -46 14 -82z" />
    <glyph glyph-name="oe" unicode="&#x153;" horiz-adv-x="944" 
d="M776 152h138q-24 -80 -92 -127.5t-158 -47.5q-113 0 -179 75q-77 -75 -195 -75q-125 0 -196 76.5t-71 209.5t71 209.5t196 76.5q122 0 195 -76q65 76 180 76q83 0 145 -41.5t89 -115.5q21 -61 21 -142q0 -12 -1 -24h-362q1 -62 21 -94q29 -48 93 -48q37 0 66 19t39 49z
M290 436q-57 0 -92 -48t-35 -125t35 -125t92 -48q56 0 91.5 47.5t35.5 123.5q0 80 -34.5 127.5t-92.5 47.5zM559 319h215q-5 52 -23 78q-32 45 -85 45q-28 0 -52.5 -14.5t-37.5 -39.5q-13 -26 -17 -69z" />
    <glyph glyph-name="germandbls" unicode="&#xdf;" horiz-adv-x="611" 
d="M285 349v95h9q45 1 71.5 25t26.5 64q0 39 -26 61t-72 22q-41 0 -64 -21t-23 -58v-537h-140v518q0 113 61 161q63 50 175 50q101 0 165 -51t64 -131q0 -102 -87 -136q46 -9 79 -40q51 -50 51 -135q0 -114 -60 -183.5t-158 -69.5q-23 0 -72 6v112q6 1 13 1l20 1
q52 1 84.5 35.5t32.5 87.5q0 57 -36.5 90t-100.5 33h-13z" />
    <glyph glyph-name="Adieresis" unicode="&#xc4;" horiz-adv-x="722" 
d="M501 147h-273l-49 -147h-153l259 729h166l252 -729h-154zM460 272l-95 285l-95 -285h190zM326 922v-122h-110v122h110zM512 922v-122h-110v122h110z" />
    <glyph glyph-name="Aacute" unicode="&#xc1;" horiz-adv-x="722" 
d="M501 147h-273l-49 -147h-153l259 729h166l252 -729h-154zM460 272l-95 285l-95 -285h190zM510 936l-126 -150h-70l70 150h126z" />
    <glyph glyph-name="Agrave" unicode="&#xc0;" horiz-adv-x="722" 
d="M501 147h-273l-49 -147h-153l259 729h166l252 -729h-154zM460 272l-95 285l-95 -285h190zM221 936h126l70 -150h-70z" />
    <glyph glyph-name="Acircumflex" unicode="&#xc2;" horiz-adv-x="722" 
d="M501 147h-273l-49 -147h-153l259 729h166l252 -729h-154zM460 272l-95 285l-95 -285h190zM313 936h107l103 -150h-78l-82 100l-82 -100h-76z" />
    <glyph glyph-name="Abreve" unicode="&#x102;" horiz-adv-x="722" 
d="M501 147h-273l-49 -147h-153l259 729h166l252 -729h-154zM460 272l-95 285l-95 -285h190zM493 927v-11q0 -56 -38 -94t-94 -38t-94 38t-38 95v10h56q9 -66 77 -66q33 0 50.5 15.5t24.5 50.5h56z" />
    <glyph glyph-name="Atilde" unicode="&#xc3;" horiz-adv-x="722" 
d="M501 147h-273l-49 -147h-153l259 729h166l252 -729h-154zM460 272l-95 285l-95 -285h190zM484 928h63q-7 -127 -95 -127q-25 0 -55 12l-71 26q-16 6 -30 6q-18 0 -27 -10.5t-13 -34.5h-63q3 58 28 91t66 33q21 0 56 -13l71 -25q21 -6 34 -6q32 0 36 48z" />
    <glyph glyph-name="Aring" unicode="&#xc5;" horiz-adv-x="722" 
d="M501 147h-273l-49 -147h-153l259 729h166l252 -729h-154zM460 272l-95 285l-95 -285h190zM365 949q37 0 63 -26.5t26 -64.5q0 -37 -26.5 -63t-63.5 -26q-38 0 -64 26.5t-26 63.5q0 38 26.5 64t64.5 26zM365 901q-18 0 -30.5 -12.5t-12.5 -29.5t12.5 -29.5t30.5 -12.5
q17 0 29 12.5t12 29.5t-12 29.5t-29 12.5z" />
    <glyph glyph-name="Aogonek" unicode="&#x104;" horiz-adv-x="722" 
d="M501 147h-273l-49 -147h-153l259 729h167l251 -729q-52 -23 -82.5 -57.5t-30.5 -71.5q0 -53 76 -53q27 0 57 5v-47q-36 -9 -75 -9q-70 0 -109 25t-39 70q0 44 32.5 80.5t91.5 57.5h-75zM461 272l-95 285l-96 -285h191z" />
    <glyph glyph-name="Ccedilla" unicode="&#xc7;" horiz-adv-x="722" 
d="M379 -23l-19 -40q20 7 42 7q35 0 55.5 -19t20.5 -52q0 -45 -33.5 -69t-95.5 -24q-55 0 -138 28l19 52q69 -30 105 -30q24 0 40.5 12t16.5 29q0 16 -14 25.5t-37 9.5q-24 0 -49 -12l43 83q-69 12 -106.5 28.5t-73.5 50.5q-111 106 -111 302q0 177 90 280t244 103
q168 0 255 -115q42 -56 49 -144h-143q-12 52 -33 78q-42 53 -123 53q-89 0 -139 -68t-50 -189q0 -119 48.5 -186t135.5 -67q70 0 112 38t49 108h146q-6 -124 -87.5 -196.5t-218.5 -75.5z" />
    <glyph glyph-name="Cacute" unicode="&#x106;" horiz-adv-x="722" 
d="M682 482h-143q-12 52 -33 78q-42 53 -123 53q-89 0 -139 -68t-50 -189q0 -119 48.5 -186t135.5 -67q70 0 112 38t49 108h146q-7 -125 -91 -198.5t-220 -73.5q-152 0 -241 102.5t-89 278.5q0 177 90 280t244 103q168 0 255 -115q42 -56 49 -144zM510 936l-126 -150h-70
l70 150h126z" />
    <glyph glyph-name="Ccaron" unicode="&#x10c;" horiz-adv-x="722" 
d="M682 482h-143q-12 52 -33 78q-42 53 -123 53q-89 0 -139 -68t-50 -189q0 -119 48.5 -186t135.5 -67q70 0 112 38t49 108h146q-7 -125 -91 -198.5t-220 -73.5q-152 0 -241 102.5t-89 278.5q0 177 90 280t244 103q168 0 255 -115q42 -56 49 -144zM427 786h-107l-103 150h78
l82 -97l82 97h76z" />
    <glyph glyph-name="Dcaron" unicode="&#x10e;" horiz-adv-x="722" 
d="M77 0v729h285q84 0 138.5 -20t91.5 -64q89 -106 89 -280q0 -176 -89 -280q-71 -85 -230 -85h-285zM227 125h135q169 0 169 239q0 240 -169 240h-135v-479zM390 786h-107l-103 150h78l82 -97l82 97h76z" />
    <glyph glyph-name="Edieresis" unicode="&#xcb;" horiz-adv-x="667" 
d="M229 314v-189h395v-125h-545v729h527v-125h-377v-165h349v-125h-349zM307 922v-122h-110v122h110zM493 922v-122h-110v122h110z" />
    <glyph glyph-name="Eacute" unicode="&#xc9;" horiz-adv-x="667" 
d="M229 314v-189h395v-125h-545v729h527v-125h-377v-165h349v-125h-349zM480 936l-126 -150h-70l70 150h126z" />
    <glyph glyph-name="Egrave" unicode="&#xc8;" horiz-adv-x="667" 
d="M229 314v-189h395v-125h-545v729h527v-125h-377v-165h349v-125h-349zM208 936h126l70 -150h-70z" />
    <glyph glyph-name="Ecircumflex" unicode="&#xca;" horiz-adv-x="667" 
d="M229 314v-189h395v-125h-545v729h527v-125h-377v-165h349v-125h-349zM294 936h107l103 -150h-78l-82 100l-82 -100h-76z" />
    <glyph glyph-name="Ecaron" unicode="&#x11a;" horiz-adv-x="667" 
d="M229 314v-189h395v-125h-545v729h527v-125h-377v-165h349v-125h-349zM396 786h-107l-103 150h78l82 -97l82 97h76z" />
    <glyph glyph-name="Edotaccent" unicode="&#x116;" horiz-adv-x="667" 
d="M229 314v-189h395v-125h-545v729h527v-125h-377v-165h349v-125h-349zM400 922v-122h-110v122h110z" />
    <glyph glyph-name="Eogonek" unicode="&#x118;" horiz-adv-x="667" 
d="M229 314v-189h395v-125q-109 -58 -109 -129q0 -53 76 -53q27 0 57 5v-47q-40 -9 -74 -9q-71 0 -110 25t-39 70q0 81 125 138h-471v729h527v-125h-377v-165h349v-125h-349z" />
    <glyph glyph-name="Gbreve" unicode="&#x11e;" horiz-adv-x="778" 
d="M711 392v-394h-90l-18 96q-42 -61 -94 -89t-126 -28q-148 0 -244.5 108t-96.5 274q0 170 98 276t255 106q132 0 217 -66t99 -179h-141q-17 49 -45 73q-50 44 -129 44q-95 0 -149.5 -67t-54.5 -185q0 -112 58.5 -184t149.5 -72q92 0 149 70q31 36 36 92h-166v125h292z
M530 927v-11q0 -56 -38 -94t-94 -38t-94 38t-38 95v10h56q9 -66 77 -66q33 0 50.5 15.5t24.5 50.5h56z" />
    <glyph glyph-name="Idieresis" unicode="&#xcf;" horiz-adv-x="278" 
d="M213 729v-729h-150v729h150zM101 922v-122h-110v122h110zM287 922v-122h-110v122h110z" />
    <glyph glyph-name="Iacute" unicode="&#xcd;" horiz-adv-x="278" 
d="M213 729v-729h-150v729h150zM290 936l-126 -150h-70l70 150h126z" />
    <glyph glyph-name="Igrave" unicode="&#xcc;" horiz-adv-x="278" 
d="M213 729v-729h-150v729h150zM-10 936h126l70 -150h-70z" />
    <glyph glyph-name="Icircumflex" unicode="&#xce;" horiz-adv-x="278" 
d="M213 729v-729h-150v729h150zM89 936h107l103 -150h-78l-82 100l-82 -100h-76z" />
    <glyph glyph-name="Idotaccent" unicode="&#x130;" horiz-adv-x="278" 
d="M213 729v-729h-150v729h150zM193 922v-122h-110v122h110z" />
    <glyph glyph-name="Lacute" unicode="&#x139;" horiz-adv-x="611" 
d="M230 729v-604h349v-125h-499v729h150zM298 936l-126 -150h-70l70 150h126z" />
    <glyph glyph-name="Lcaron" unicode="&#x13d;" horiz-adv-x="611" 
d="M230 729v-604h349v-125h-499v729h150zM330 729h122v-103q0 -61 -34.5 -101.5t-87.5 -42.5v46q69 13 67 89h-67v112z" />
    <glyph glyph-name="Nacute" unicode="&#x143;" horiz-adv-x="722" 
d="M511 0l-293 504v-504h-150v729h154l289 -496v496h150v-729h-150zM500 936l-126 -150h-70l70 150h126z" />
    <glyph glyph-name="Ncaron" unicode="&#x147;" horiz-adv-x="722" 
d="M511 0l-293 504v-504h-150v729h154l289 -496v496h150v-729h-150zM417 786h-107l-103 150h78l82 -97l82 97h76z" />
    <glyph glyph-name="Ntilde" unicode="&#xd1;" horiz-adv-x="722" 
d="M511 0l-293 504v-504h-150v729h154l289 -496v496h150v-729h-150zM485 928h63q-7 -127 -95 -127q-25 0 -55 12l-71 26q-17 6 -30 6q-18 0 -27 -10.5t-13 -34.5h-63q3 58 28 91t66 33q21 0 56 -13l71 -25q21 -6 34 -6q31 0 36 48z" />
    <glyph glyph-name="Odieresis" unicode="&#xd6;" horiz-adv-x="778" 
d="M390 741q156 0 250 -101q102 -110 102 -286q0 -77 -27.5 -151.5t-74.5 -124.5q-94 -101 -249 -101t-249 101q-49 52 -75.5 125.5t-26.5 155.5q0 171 102 281q93 101 248 101zM391 613q-91 0 -146 -69.5t-55 -184.5t55 -184.5t146 -69.5q90 0 145.5 69t55.5 181
q0 118 -54.5 188t-146.5 70zM353 922v-122h-110v122h110zM539 922v-122h-110v122h110z" />
    <glyph glyph-name="Oacute" unicode="&#xd3;" horiz-adv-x="778" 
d="M390 741q156 0 250 -101q102 -110 102 -286q0 -77 -27.5 -151.5t-74.5 -124.5q-94 -101 -249 -101t-249 101q-49 52 -75.5 125.5t-26.5 155.5q0 171 102 281q93 101 248 101zM391 613q-91 0 -146 -69.5t-55 -184.5t55 -184.5t146 -69.5q90 0 145.5 69t55.5 181
q0 118 -54.5 188t-146.5 70zM530 936l-126 -150h-70l70 150h126z" />
    <glyph glyph-name="Ograve" unicode="&#xd2;" horiz-adv-x="778" 
d="M390 741q156 0 250 -101q102 -110 102 -286q0 -77 -27.5 -151.5t-74.5 -124.5q-94 -101 -249 -101t-249 101q-49 52 -75.5 125.5t-26.5 155.5q0 171 102 281q93 101 248 101zM391 613q-91 0 -146 -69.5t-55 -184.5t55 -184.5t146 -69.5q90 0 145.5 69t55.5 181
q0 118 -54.5 188t-146.5 70zM254 936h126l70 -150h-70z" />
    <glyph glyph-name="Ocircumflex" unicode="&#xd4;" horiz-adv-x="778" 
d="M390 741q156 0 250 -101q102 -110 102 -286q0 -77 -27.5 -151.5t-74.5 -124.5q-94 -101 -249 -101t-249 101q-49 52 -75.5 125.5t-26.5 155.5q0 171 102 281q93 101 248 101zM391 613q-91 0 -146 -69.5t-55 -184.5t55 -184.5t146 -69.5q90 0 145.5 69t55.5 181
q0 118 -54.5 188t-146.5 70zM340 936h107l103 -150h-78l-82 100l-82 -100h-76z" />
    <glyph glyph-name="Otilde" unicode="&#xd5;" horiz-adv-x="778" 
d="M390 741q156 0 250 -101q102 -110 102 -286q0 -77 -27.5 -151.5t-74.5 -124.5q-94 -101 -249 -101t-249 101q-49 52 -75.5 125.5t-26.5 155.5q0 171 102 281q93 101 248 101zM391 613q-91 0 -146 -69.5t-55 -184.5t55 -184.5t146 -69.5q90 0 145.5 69t55.5 181
q0 118 -54.5 188t-146.5 70zM512 928h63q-7 -127 -95 -127q-25 0 -55 12l-71 26q-16 6 -30 6q-18 0 -27 -10.5t-13 -34.5h-63q3 58 28 91t66 33q21 0 56 -13l71 -25q21 -6 34 -6q32 0 36 48z" />
    <glyph glyph-name="Ohungarumlaut" unicode="&#x150;" horiz-adv-x="778" 
d="M390 741q156 0 250 -101q102 -110 102 -286q0 -77 -27.5 -151.5t-74.5 -124.5q-94 -101 -249 -101t-249 101q-49 52 -75.5 125.5t-26.5 155.5q0 171 102 281q93 101 248 101zM391 613q-91 0 -146 -69.5t-55 -184.5t55 -184.5t146 -69.5q90 0 145.5 69t55.5 181
q0 118 -54.5 188t-146.5 70zM461 936l-126 -147h-70l70 147h126zM649 936l-126 -147h-70l70 147h126z" />
    <glyph glyph-name="Racute" unicode="&#x154;" horiz-adv-x="722" 
d="M230 289v-289h-150v729h391q92 0 141 -50q55 -57 55 -147q0 -132 -123 -180q27 -11 40 -17.5t26.5 -21.5t18 -27t9 -44t5.5 -63t2 -92q0 -42 32 -60v-27h-161q-14 26 -18.5 50t-4.5 75q0 29 1 48q1 13 1 29q0 46 -22 66.5t-71 20.5h-172zM230 414h181q57 0 79 19
q27 24 27 78q0 51 -27 74q-23 19 -79 19h-181v-190zM494 936l-126 -150h-70l70 150h126z" />
    <glyph glyph-name="Rcaron" unicode="&#x158;" horiz-adv-x="722" 
d="M230 289v-289h-150v729h391q92 0 141 -50q55 -57 55 -147q0 -132 -123 -180q27 -11 40 -17.5t26.5 -21.5t18 -27t9 -44t5.5 -63t2 -92q0 -42 32 -60v-27h-161q-14 26 -18.5 50t-4.5 75q0 29 1 48q1 13 1 29q0 46 -22 66.5t-71 20.5h-172zM230 414h181q57 0 79 19
q27 24 27 78q0 51 -27 74q-23 19 -79 19h-181v-190zM410 786h-107l-103 150h78l82 -97l82 97h76z" />
    <glyph glyph-name="Sacute" unicode="&#x15a;" horiz-adv-x="667" 
d="M607 507h-140q-8 114 -153 114q-58 0 -92 -24.5t-34 -65.5q0 -40 29 -59.5t109 -35.5l114 -22q101 -20 147 -67.5t46 -133.5q0 -111 -79 -173.5t-220 -62.5q-140 0 -217.5 62t-84.5 179h146q4 -59 46 -90t118 -31q68 0 107.5 26t39.5 72q0 44 -31 68t-106 38l-102 20
q-111 21 -158 66t-47 130q0 107 72.5 165.5t203.5 58.5q160 0 235 -83q51 -57 51 -151zM466 936l-126 -150h-70l70 150h126z" />
    <glyph glyph-name="Scaron" unicode="&#x160;" horiz-adv-x="667" 
d="M607 507h-140q-8 114 -153 114q-58 0 -92 -24.5t-34 -65.5q0 -40 29 -59.5t109 -35.5l114 -22q101 -20 147 -67.5t46 -133.5q0 -111 -79 -173.5t-220 -62.5q-140 0 -217.5 62t-84.5 179h146q4 -59 46 -90t118 -31q68 0 107.5 26t39.5 72q0 44 -31 68t-106 38l-102 20
q-111 21 -158 66t-47 130q0 107 72.5 165.5t203.5 58.5q160 0 235 -83q51 -57 51 -151zM380 786h-107l-103 150h78l82 -97l82 97h76z" />
    <glyph glyph-name="Scedilla" unicode="&#x15e;" horiz-adv-x="667" 
d="M340 -23l-17 -39q23 6 41 6q36 0 56.5 -19t20.5 -52q0 -45 -33.5 -69t-95.5 -24q-57 0 -138 28l19 52q68 -30 105 -30q24 0 40.5 12t16.5 29q0 16 -14 25.5t-37 9.5q-24 0 -49 -12l42 83q-128 13 -192.5 72t-72.5 169h146q4 -59 46 -90t118 -31q68 0 107.5 26t39.5 72
q0 44 -31 68t-106 38l-102 20q-111 21 -158 66t-47 130q0 107 72.5 165.5t203.5 58.5q160 0 235 -83q51 -57 51 -151h-140q-8 114 -153 114q-58 0 -92 -24.5t-34 -65.5q0 -40 29 -59.5t109 -35.5l114 -22q101 -20 147 -67.5t46 -132.5q0 -223 -293 -237z" />
    <glyph glyph-name="Tcaron" unicode="&#x164;" horiz-adv-x="611" 
d="M385 604v-604h-150v604h-221v125h584v-125h-213zM361 786h-107l-103 150h78l82 -97l82 97h76z" />
    <glyph glyph-name="Udieresis" unicode="&#xdc;" horiz-adv-x="722" 
d="M504 729h150v-494q0 -120 -71 -184q-82 -74 -218 -74t-218 74q-71 64 -71 184v494h150v-494q0 -130 139 -130t139 130v494zM327 922v-122h-110v122h110zM513 922v-122h-110v122h110z" />
    <glyph glyph-name="Uacute" unicode="&#xda;" horiz-adv-x="722" 
d="M504 729h150v-494q0 -120 -71 -184q-82 -74 -218 -74t-218 74q-71 64 -71 184v494h150v-494q0 -130 139 -130t139 130v494zM504 936l-126 -150h-70l70 150h126z" />
    <glyph glyph-name="Ugrave" unicode="&#xd9;" horiz-adv-x="722" 
d="M504 729h150v-494q0 -120 -71 -184q-82 -74 -218 -74t-218 74q-71 64 -71 184v494h150v-494q0 -130 139 -130t139 130v494zM228 936h126l70 -150h-70z" />
    <glyph glyph-name="Ucircumflex" unicode="&#xdb;" horiz-adv-x="722" 
d="M504 729h150v-494q0 -120 -71 -184q-82 -74 -218 -74t-218 74q-71 64 -71 184v494h150v-494q0 -130 139 -130t139 130v494zM314 936h107l103 -150h-78l-82 100l-82 -100h-76z" />
    <glyph glyph-name="Uring" unicode="&#x16e;" horiz-adv-x="722" 
d="M504 729h150v-494q0 -120 -71 -184q-82 -74 -218 -74t-218 74q-71 64 -71 184v494h150v-494q0 -130 139 -130t139 130v494zM366 949q37 0 63 -26.5t26 -64.5q0 -37 -26.5 -63t-63.5 -26t-63.5 26.5t-26.5 63.5q0 38 26.5 64t64.5 26zM366 901q-18 0 -30.5 -12.5
t-12.5 -29.5t12.5 -29.5t30.5 -12.5q17 0 29 12.5t12 29.5t-12 29.5t-29 12.5z" />
    <glyph glyph-name="Uhungarumlaut" unicode="&#x170;" horiz-adv-x="722" 
d="M504 729h150v-494q0 -120 -71 -184q-82 -74 -218 -74t-218 74q-71 64 -71 184v494h150v-494q0 -130 139 -130t139 130v494zM433 936l-126 -147h-70l70 147h126zM621 936l-126 -147h-70l70 147h126z" />
    <glyph glyph-name="Yacute" unicode="&#xdd;" horiz-adv-x="667" 
d="M419 270v-270h-150v270l-242 459h167l149 -322l139 322h168zM480 936l-126 -150h-70l70 150h126z" />
    <glyph glyph-name="Zacute" unicode="&#x179;" horiz-adv-x="611" 
d="M578 729v-125l-372 -479h372v-125h-548v125l373 479h-373v125h548zM441 936l-126 -150h-70l70 150h126z" />
    <glyph glyph-name="Zcaron" unicode="&#x17d;" horiz-adv-x="611" 
d="M578 729v-125l-372 -479h372v-125h-548v125l373 479h-373v125h548zM358 786h-107l-103 150h78l82 -97l82 97h76z" />
    <glyph glyph-name="Zdotaccent" unicode="&#x17b;" horiz-adv-x="611" 
d="M578 729v-125l-372 -479h372v-125h-548v125l373 479h-373v125h548zM362 922v-122h-110v122h110z" />
    <glyph glyph-name="Amacron" unicode="&#x100;" horiz-adv-x="722" 
d="M501 147h-273l-49 -147h-153l259 729h166l252 -729h-154zM460 272l-95 285l-95 -285h190zM514 898v-79h-299v79h299z" />
    <glyph glyph-name="Tcommaaccent" unicode="&#x162;" horiz-adv-x="611" 
d="M385 604v-604h-150v604h-221v125h584v-125h-213zM252 -60h122v-103q0 -61 -34.5 -101.5t-87.5 -42.5v46q69 13 67 89h-67v112z" />
    <glyph glyph-name="Ydieresis" unicode="&#x178;" horiz-adv-x="667" 
d="M419 270v-270h-150v270l-242 459h167l149 -322l139 322h168zM304 922v-122h-110v122h110zM490 922v-122h-110v122h110z" />
    <glyph glyph-name="Emacron" unicode="&#x112;" horiz-adv-x="667" 
d="M229 314v-189h395v-125h-545v729h527v-125h-377v-165h349v-125h-349zM494 898v-79h-299v79h299z" />
    <glyph glyph-name="Imacron" unicode="&#x12a;" horiz-adv-x="278" 
d="M213 729v-729h-150v729h150zM274 898v-79h-272v79h272z" />
    <glyph glyph-name="Iogonek" unicode="&#x12e;" horiz-adv-x="278" 
d="M213 729v-729q-89 -64 -89 -131q0 -22 17.5 -36.5t45.5 -14.5q23 0 50 5v-47q-39 -9 -70 -9q-62 0 -97.5 26t-35.5 71q0 76 113 136h-84v729h150z" />
    <glyph glyph-name="Kcommaaccent" unicode="&#x136;" horiz-adv-x="722" 
d="M224 244v-244h-150v729h150v-320l285 320h177l-291 -314l322 -415h-179l-239 322zM315 -60h122v-103q0 -61 -34.5 -101.5t-87.5 -42.5v46q69 13 67 89h-67v112z" />
    <glyph glyph-name="Lcommaaccent" unicode="&#x13b;" horiz-adv-x="611" 
d="M230 729v-604h349v-125h-499v729h150zM269 -60h122v-103q0 -61 -34.5 -101.5t-87.5 -42.5v46q69 13 67 89h-67v112z" />
    <glyph glyph-name="Ncommaaccent" unicode="&#x145;" horiz-adv-x="722" 
d="M511 0l-293 504v-504h-150v729h154l289 -496v496h150v-729h-150zM300 -60h122v-103q0 -61 -34.5 -101.5t-87.5 -42.5v46q69 13 67 89h-67v112z" />
    <glyph glyph-name="Omacron" unicode="&#x14c;" horiz-adv-x="778" 
d="M390 741q156 0 250 -101q102 -110 102 -286q0 -77 -27.5 -151.5t-74.5 -124.5q-94 -101 -249 -101t-249 101q-49 52 -75.5 125.5t-26.5 155.5q0 171 102 281q93 101 248 101zM391 613q-91 0 -146 -69.5t-55 -184.5t55 -184.5t146 -69.5q90 0 145.5 69t55.5 181
q0 118 -54.5 188t-146.5 70zM541 898v-79h-299v79h299z" />
    <glyph glyph-name="Rcommaaccent" unicode="&#x156;" horiz-adv-x="722" 
d="M230 289v-289h-150v729h391q92 0 141 -50q55 -57 55 -147q0 -132 -123 -180q27 -11 40 -17.5t26.5 -21.5t18 -27t9 -44t5.5 -63t2 -92q0 -42 32 -60v-27h-161q-14 26 -18.5 50t-4.5 75q0 29 1 48q1 13 1 29q0 46 -22 66.5t-71 20.5h-172zM230 414h181q57 0 79 19
q27 24 27 78q0 51 -27 74q-23 19 -79 19h-181v-190zM318 -60h122v-103q0 -61 -34.5 -101.5t-87.5 -42.5v46q69 13 67 89h-67v112z" />
    <glyph glyph-name="Gcommaaccent" unicode="&#x122;" horiz-adv-x="778" 
d="M711 392v-394h-90l-18 96q-42 -61 -94 -89t-126 -28q-148 0 -244.5 108t-96.5 274q0 170 98 276t255 106q132 0 217 -66t99 -179h-141q-17 49 -45 73q-50 44 -129 44q-95 0 -149.5 -67t-54.5 -185q0 -112 58.5 -184t149.5 -72q92 0 149 70q31 36 36 92h-166v125h292z
M332 -60h122v-103q0 -61 -34.5 -101.5t-87.5 -42.5v46q69 13 67 89h-67v112z" />
    <glyph glyph-name="Umacron" unicode="&#x16a;" horiz-adv-x="722" 
d="M504 729h150v-494q0 -120 -71 -184q-82 -74 -218 -74t-218 74q-71 64 -71 184v494h150v-494q0 -130 139 -130t139 130v494zM515 898v-79h-299v79h299z" />
    <glyph glyph-name="Uogonek" unicode="&#x172;" horiz-adv-x="722" 
d="M597 -177v-47q-39 -10 -80 -10q-40 0 -76 12q-68 22 -68 84q0 36 23.5 65.5t80.5 65.5q-59 -16 -109 -16q-139 0 -221 74q-71 64 -71 184v494h150v-494q0 -130 139 -130t139 130v494h150v-494q0 -98 -52 -166q-17 -21 -75 -82q-65 -71 -65 -119q0 -51 77 -51q29 0 58 6z
" />
    <glyph glyph-name="adieresis" unicode="&#xe4;" 
d="M524 17v-17h-152q-16 20 -16 54q-74 -77 -164 -77q-77 0 -126 51q-38 41 -38 111q0 143 159 170l56 10q69 11 88 21q24 13 24 42q0 54 -81 54q-52 0 -73 -16t-26 -58h-135q13 187 231 187q221 0 221 -166v-300q0 -37 32 -66zM355 217v38q-19 -9 -59 -17l-48 -9
q-44 -9 -62 -26t-18 -48q0 -30 20.5 -47.5t55.5 -17.5q53 0 82 33t29 94zM234 743v-122h-110v122h110zM420 743v-122h-110v122h110z" />
    <glyph glyph-name="aacute" unicode="&#xe1;" 
d="M524 17v-17h-152q-16 20 -16 54q-74 -77 -164 -77q-77 0 -126 51q-38 41 -38 111q0 143 159 170l56 10q69 11 88 21q24 13 24 42q0 54 -81 54q-52 0 -73 -16t-26 -58h-135q13 187 231 187q221 0 221 -166v-300q0 -37 32 -66zM355 217v38q-19 -9 -59 -17l-48 -9
q-44 -9 -62 -26t-18 -48q0 -30 20.5 -47.5t55.5 -17.5q53 0 82 33t29 94zM411 757l-126 -150h-70l70 150h126z" />
    <glyph glyph-name="agrave" unicode="&#xe0;" 
d="M524 17v-17h-152q-16 20 -16 54q-74 -77 -164 -77q-77 0 -126 51q-38 41 -38 111q0 143 159 170l56 10q69 11 88 21q24 13 24 42q0 54 -81 54q-52 0 -73 -16t-26 -58h-135q13 187 231 187q221 0 221 -166v-300q0 -37 32 -66zM355 217v38q-19 -9 -59 -17l-48 -9
q-44 -9 -62 -26t-18 -48q0 -30 20.5 -47.5t55.5 -17.5q53 0 82 33t29 94zM132 757h126l70 -150h-70z" />
    <glyph glyph-name="acircumflex" unicode="&#xe2;" 
d="M524 17v-17h-152q-16 20 -16 54q-74 -77 -164 -77q-77 0 -126 51q-38 41 -38 111q0 143 159 170l56 10q69 11 88 21q24 13 24 42q0 54 -81 54q-52 0 -73 -16t-26 -58h-135q13 187 231 187q221 0 221 -166v-300q0 -37 32 -66zM355 217v38q-19 -9 -59 -17l-48 -9
q-44 -9 -62 -26t-18 -48q0 -30 20.5 -47.5t55.5 -17.5q53 0 82 33t29 94zM221 757h107l103 -150h-78l-82 100l-82 -100h-76z" />
    <glyph glyph-name="abreve" unicode="&#x103;" 
d="M524 17v-17h-152q-16 20 -16 54q-74 -77 -164 -77q-77 0 -126 51q-38 41 -38 111q0 143 159 170l56 10q69 11 88 21q24 13 24 42q0 54 -81 54q-52 0 -73 -16t-26 -58h-135q13 187 231 187q221 0 221 -166v-300q0 -37 32 -66zM355 217v38q-19 -9 -59 -17l-48 -9
q-44 -9 -62 -26t-18 -48q0 -30 20.5 -47.5t55.5 -17.5q53 0 82 33t29 94zM407 748v-11q0 -56 -38 -94t-94 -38t-94 38t-38 95v10h56q9 -66 77 -66q64 0 75 66h56z" />
    <glyph glyph-name="atilde" unicode="&#xe3;" 
d="M524 17v-17h-152q-16 20 -16 54q-74 -77 -164 -77q-77 0 -126 51q-38 41 -38 111q0 143 159 170l56 10q69 11 88 21q24 13 24 42q0 54 -81 54q-52 0 -73 -16t-26 -58h-135q13 187 231 187q221 0 221 -166v-300q0 -37 32 -66zM355 217v38q-19 -9 -59 -17l-48 -9
q-44 -9 -62 -26t-18 -48q0 -30 20.5 -47.5t55.5 -17.5q53 0 82 33t29 94zM386 749h63q-6 -127 -95 -127q-24 0 -55 12l-71 26q-18 6 -30 6q-18 0 -27 -10.5t-13 -34.5h-63q3 58 28 91t66 33q20 0 56 -13l71 -25q14 -6 34 -6q32 0 36 48z" />
    <glyph glyph-name="aring" unicode="&#xe5;" 
d="M524 17v-17h-152q-16 20 -16 54q-74 -77 -164 -77q-77 0 -126 51q-38 41 -38 111q0 143 159 170l56 10q69 11 88 21q24 13 24 42q0 54 -81 54q-52 0 -73 -16t-26 -58h-135q13 187 231 187q221 0 221 -166v-300q0 -37 32 -66zM355 217v38q-19 -9 -59 -17l-48 -9
q-44 -9 -62 -26t-18 -48q0 -30 20.5 -47.5t55.5 -17.5q53 0 82 33t29 94zM273 770q37 0 63 -26.5t26 -64.5q0 -37 -26.5 -63t-63.5 -26q-38 0 -64 26t-26 64t26.5 64t64.5 26zM273 722q-18 0 -30.5 -12.5t-12.5 -29.5t12.5 -29.5t30.5 -12.5q17 0 29 12.5t12 29.5t-12 29.5
t-29 12.5z" />
    <glyph glyph-name="aogonek" unicode="&#x105;" 
d="M524 17v-17q-109 -58 -109 -129q0 -53 76 -53q25 0 57 5v-47q-36 -9 -75 -9q-70 0 -109 25t-39 69t33 81.5t91 57.5h-77q-16 20 -16 54q-74 -77 -164 -77q-77 0 -126 51q-38 41 -38 111q0 143 159 170l56 10q69 11 88 21q24 13 24 42q0 54 -81 54q-52 0 -73 -16t-26 -58
h-135q13 187 231 187q221 0 221 -166v-300q0 -37 32 -66zM355 217v38q-19 -9 -59 -17l-48 -9q-44 -9 -62 -26t-18 -48q0 -30 20.5 -47.5t55.5 -17.5q53 0 82 33t29 94z" />
    <glyph glyph-name="cacute" unicode="&#x107;" 
d="M522 338h-134q-12 53 -34.5 75.5t-65.5 22.5q-62 0 -87 -46q-27 -51 -27 -131q0 -79 30.5 -124t83.5 -45q41 0 64 22.5t36 74.5h134q-10 -97 -73.5 -153.5t-161.5 -56.5q-120 0 -186.5 74t-66.5 208q0 138 67 214t188 76q101 0 163.5 -56t69.5 -155zM427 757l-126 -150
h-70l70 150h126z" />
    <glyph glyph-name="ccaron" unicode="&#x10d;" 
d="M522 338h-134q-12 53 -34.5 75.5t-65.5 22.5q-62 0 -87 -46q-27 -51 -27 -131q0 -79 30.5 -124t83.5 -45q41 0 64 22.5t36 74.5h134q-10 -97 -73.5 -153.5t-161.5 -56.5q-120 0 -186.5 74t-66.5 208q0 138 67 214t188 76q101 0 163.5 -56t69.5 -155zM341 607h-107
l-103 150h78l82 -97l82 97h76z" />
    <glyph glyph-name="ccedilla" unicode="&#xe7;" 
d="M291 -23l-17 -40q18 7 41 7q36 0 56.5 -19t20.5 -52q0 -45 -33.5 -69t-95.5 -24q-58 0 -138 28l19 52q67 -30 104 -30q24 0 41 12t17 29q0 16 -14 25.5t-37 9.5q-25 0 -50 -12l43 85q-104 14 -159 86t-55 194q0 138 67 214t188 76q101 0 163.5 -56t69.5 -155h-134
q-12 53 -34.5 75.5t-65.5 22.5q-62 0 -87 -46q-27 -51 -27 -130q0 -91 38 -137q26 -33 77 -33q40 0 63 22.5t36 74.5h134q-8 -94 -72.5 -152.5t-158.5 -57.5z" />
    <glyph glyph-name="dcaron" unicode="&#x10f;" horiz-adv-x="707" 
d="M405 0v55q-52 -78 -149 -78q-49 0 -95 23.5t-74 62.5q-58 84 -58 199q0 122 65 204.5t162 82.5q98 0 149 -79v259h140v-729h-140zM287 432q-52 0 -85 -47.5t-33 -122.5q0 -74 33 -121t85 -47t85 46t33 120q0 77 -32.5 124.5t-85.5 47.5zM598 729h122v-103
q0 -61 -34.5 -101.5t-87.5 -42.5v46q69 13 67 89h-67v112z" />
    <glyph glyph-name="edieresis" unicode="&#xeb;" 
d="M524 226h-362q3 -68 20 -95q31 -47 92 -47q80 0 107 68h138q-23 -80 -91 -127.5t-159 -47.5q-115 0 -181 74.5t-66 204.5q0 136 67 214.5t183 78.5q82 0 143.5 -41.5t88.5 -115.5q21 -61 21 -142q0 -12 -1 -24zM164 319h215q-4 50 -22 78q-32 45 -87 45q-92 0 -106 -123z
M242 743v-122h-110v122h110zM428 743v-122h-110v122h110z" />
    <glyph glyph-name="eacute" unicode="&#xe9;" 
d="M524 226h-362q3 -68 20 -95q31 -47 92 -47q80 0 107 68h138q-23 -80 -91 -127.5t-159 -47.5q-115 0 -181 74.5t-66 204.5q0 136 67 214.5t183 78.5q82 0 143.5 -41.5t88.5 -115.5q21 -61 21 -142q0 -12 -1 -24zM164 319h215q-4 50 -22 78q-32 45 -87 45q-92 0 -106 -123z
M419 757l-126 -150h-70l70 150h126z" />
    <glyph glyph-name="egrave" unicode="&#xe8;" 
d="M524 226h-362q3 -68 20 -95q31 -47 92 -47q80 0 107 68h138q-23 -80 -91 -127.5t-159 -47.5q-115 0 -181 74.5t-66 204.5q0 136 67 214.5t183 78.5q82 0 143.5 -41.5t88.5 -115.5q21 -61 21 -142q0 -12 -1 -24zM164 319h215q-4 50 -22 78q-32 45 -87 45q-92 0 -106 -123z
M133 757h126l70 -150h-70z" />
    <glyph glyph-name="ecircumflex" unicode="&#xea;" 
d="M524 226h-362q3 -68 20 -95q31 -47 92 -47q80 0 107 68h138q-23 -80 -91 -127.5t-159 -47.5q-115 0 -181 74.5t-66 204.5q0 136 67 214.5t183 78.5q82 0 143.5 -41.5t88.5 -115.5q21 -61 21 -142q0 -12 -1 -24zM164 319h215q-4 50 -22 78q-32 45 -87 45q-92 0 -106 -123z
M229 757h107l103 -150h-78l-82 100l-82 -100h-76z" />
    <glyph glyph-name="ecaron" unicode="&#x11b;" 
d="M524 226h-362q3 -68 20 -95q31 -47 92 -47q80 0 107 68h138q-23 -80 -91 -127.5t-159 -47.5q-115 0 -181 74.5t-66 204.5q0 136 67 214.5t183 78.5q82 0 143.5 -41.5t88.5 -115.5q21 -61 21 -142q0 -12 -1 -24zM164 319h215q-4 50 -22 78q-32 45 -87 45q-92 0 -106 -123z
M331 607h-107l-103 150h78l82 -97l82 97h76z" />
    <glyph glyph-name="edotaccent" unicode="&#x117;" 
d="M524 226h-362q3 -68 20 -95q31 -47 92 -47q80 0 107 68h138q-23 -80 -91 -127.5t-159 -47.5q-115 0 -181 74.5t-66 204.5q0 136 67 214.5t183 78.5q82 0 143.5 -41.5t88.5 -115.5q21 -61 21 -142q0 -12 -1 -24zM164 319h215q-4 50 -22 78q-32 45 -87 45q-92 0 -106 -123z
M335 743v-122h-110v122h110z" />
    <glyph glyph-name="eogonek" unicode="&#x119;" 
d="M478 -177v-47q-39 -10 -79 -10q-67 0 -105.5 26t-38.5 71q0 34 21 61.5t74 64.5q-47 -13 -82 -13q-114 0 -180.5 75t-66.5 205q0 136 67 214.5t183 78.5q82 0 144 -42t89 -115q21 -60 21 -142q0 -12 -1 -24h-362q3 -68 20 -96q30 -47 92 -47q79 0 106 69h138
q-10 -38 -25 -61t-59 -70q-51 -56 -70 -88t-19 -64q0 -52 76 -52q29 0 57 6zM163 319h216q-4 51 -23 78q-31 45 -86 45q-94 0 -107 -123z" />
    <glyph glyph-name="gbreve" unicode="&#x11f;" horiz-adv-x="611" 
d="M408 540h133v-558q0 -95 -67.5 -147.5t-189.5 -52.5t-186 52q-52 43 -53 101h145q17 -63 99 -63q53 0 86 30.5t33 79.5v73q-39 -44 -72.5 -61t-80.5 -17q-100 0 -160.5 77t-60.5 203q0 125 64 208.5t160 83.5q90 0 150 -92v83zM288 432q-51 0 -82.5 -48t-31.5 -125
q0 -73 31 -119t81 -46q55 0 89.5 46t34.5 119q0 75 -34.5 124t-87.5 49zM438 748v-11q0 -56 -38 -94t-94 -38t-94 38t-38 95v10h56q9 -66 77 -66q64 0 75 66h56z" />
    <glyph glyph-name="idieresis" unicode="&#xef;" horiz-adv-x="278" 
d="M207 540v-540h-140v540h140zM101 743v-122h-110v122h110zM287 743v-122h-110v122h110z" />
    <glyph glyph-name="iacute" unicode="&#xed;" horiz-adv-x="278" 
d="M207 540v-540h-140v540h140zM290 757l-126 -150h-70l70 150h126z" />
    <glyph glyph-name="igrave" unicode="&#xec;" horiz-adv-x="278" 
d="M207 540v-540h-140v540h140zM-10 757h126l70 -150h-70z" />
    <glyph glyph-name="icircumflex" unicode="&#xee;" horiz-adv-x="278" 
d="M207 540v-540h-140v540h140zM89 757h107l103 -150h-78l-82 100l-82 -100h-76z" />
    <glyph glyph-name="lacute" unicode="&#x13a;" horiz-adv-x="278" 
d="M207 729v-729h-140v729h140zM278 936l-126 -150h-70l70 150h126z" />
    <glyph glyph-name="lcaron" unicode="&#x13e;" horiz-adv-x="369" 
d="M207 729v-729h-140v729h140zM260 729h122v-103q0 -61 -34.5 -101.5t-87.5 -42.5v46q69 13 67 89h-67v112z" />
    <glyph glyph-name="nacute" unicode="&#x144;" horiz-adv-x="611" 
d="M63 540h140v-78q58 87 162 87q86 0 133.5 -49t47.5 -138v-362h-140v333q0 97 -90 97q-51 0 -82 -29t-31 -77v-324h-140v540zM439 757l-126 -150h-70l70 150h126z" />
    <glyph glyph-name="ncaron" unicode="&#x148;" horiz-adv-x="611" 
d="M63 540h140v-78q58 87 162 87q86 0 133.5 -49t47.5 -138v-362h-140v333q0 97 -90 97q-51 0 -82 -29t-31 -77v-324h-140v540zM351 607h-107l-103 150h78l82 -97l82 97h76z" />
    <glyph glyph-name="ntilde" unicode="&#xf1;" horiz-adv-x="611" 
d="M63 540h140v-78q58 87 162 87q86 0 133.5 -49t47.5 -138v-362h-140v333q0 97 -90 97q-51 0 -82 -29t-31 -77v-324h-140v540zM415 749h63q-6 -127 -95 -127q-23 0 -55 12l-71 26q-18 6 -30 6q-18 0 -27 -10.5t-13 -34.5h-63q3 58 28 91t66 33q20 0 56 -13l71 -25
q14 -6 34 -6q31 0 36 48z" />
    <glyph glyph-name="odieresis" unicode="&#xf6;" horiz-adv-x="611" 
d="M301 549q127 0 197.5 -76.5t70.5 -213.5q0 -130 -72 -206t-195 -76q-125 0 -196 76.5t-71 209.5t71 209.5t195 76.5zM302 436q-57 0 -92 -48t-35 -125t35 -125t92 -48q56 0 91.5 47.5t35.5 123.5q0 80 -34.5 127.5t-92.5 47.5zM264 743v-122h-110v122h110zM450 743v-122
h-110v122h110z" />
    <glyph glyph-name="oacute" unicode="&#xf3;" horiz-adv-x="611" 
d="M301 549q127 0 197.5 -76.5t70.5 -213.5q0 -130 -72 -206t-195 -76q-125 0 -196 76.5t-71 209.5t71 209.5t195 76.5zM302 436q-57 0 -92 -48t-35 -125t35 -125t92 -48q56 0 91.5 47.5t35.5 123.5q0 80 -34.5 127.5t-92.5 47.5zM441 757l-126 -150h-70l70 150h126z" />
    <glyph glyph-name="ograve" unicode="&#xf2;" horiz-adv-x="611" 
d="M301 549q127 0 197.5 -76.5t70.5 -213.5q0 -130 -72 -206t-195 -76q-125 0 -196 76.5t-71 209.5t71 209.5t195 76.5zM302 436q-57 0 -92 -48t-35 -125t35 -125t92 -48q56 0 91.5 47.5t35.5 123.5q0 80 -34.5 127.5t-92.5 47.5zM165 757h126l70 -150h-70z" />
    <glyph glyph-name="ocircumflex" unicode="&#xf4;" horiz-adv-x="611" 
d="M301 549q127 0 197.5 -76.5t70.5 -213.5q0 -130 -72 -206t-195 -76q-125 0 -196 76.5t-71 209.5t71 209.5t195 76.5zM302 436q-57 0 -92 -48t-35 -125t35 -125t92 -48q56 0 91.5 47.5t35.5 123.5q0 80 -34.5 127.5t-92.5 47.5zM251 757h107l103 -150h-78l-82 100
l-82 -100h-76z" />
    <glyph glyph-name="otilde" unicode="&#xf5;" horiz-adv-x="611" 
d="M301 549q127 0 197.5 -76.5t70.5 -213.5q0 -130 -72 -206t-195 -76q-125 0 -196 76.5t-71 209.5t71 209.5t195 76.5zM302 436q-57 0 -92 -48t-35 -125t35 -125t92 -48q56 0 91.5 47.5t35.5 123.5q0 80 -34.5 127.5t-92.5 47.5zM419 749h63q-6 -127 -95 -127q-23 0 -55 12
l-71 26q-18 6 -30 6q-18 0 -27 -10.5t-13 -34.5h-63q3 58 28 91t66 33q20 0 56 -13l71 -25q14 -6 34 -6q31 0 36 48z" />
    <glyph glyph-name="ohungarumlaut" unicode="&#x151;" horiz-adv-x="611" 
d="M301 549q127 0 197.5 -76.5t70.5 -213.5q0 -130 -72 -206t-195 -76q-125 0 -196 76.5t-71 209.5t71 209.5t195 76.5zM302 436q-57 0 -92 -48t-35 -125t35 -125t92 -48q56 0 91.5 47.5t35.5 123.5q0 80 -34.5 127.5t-92.5 47.5zM371 757l-126 -147h-70l70 147h126z
M559 757l-126 -147h-70l70 147h126z" />
    <glyph glyph-name="racute" unicode="&#x155;" horiz-adv-x="389" 
d="M63 540h140v-106q22 55 62 85t88 30q9 0 17 -1v-142q-25 4 -44 4q-123 0 -123 -123v-287h-140v540zM348 757l-126 -150h-70l70 150h126z" />
    <glyph glyph-name="sacute" unicode="&#x15b;" 
d="M505 366h-135q-1 73 -101 73q-37 0 -59 -13.5t-22 -36.5q0 -16 10 -24.5t39 -17.5l177 -51q106 -31 106 -136q0 -84 -64 -135q-60 -48 -172 -48q-249 0 -255 180h137q8 -37 27 -51q29 -19 83 -19q49 0 76.5 14t27.5 39q0 16 -10.5 26t-36.5 18l-167 52q-64 21 -88 45
q-30 33 -30 88q0 83 59.5 131.5t162.5 48.5q109 0 171 -48.5t64 -134.5zM419 757l-126 -150h-70l70 150h126z" />
    <glyph glyph-name="scaron" unicode="&#x161;" 
d="M505 366h-135q-1 73 -101 73q-37 0 -59 -13.5t-22 -36.5q0 -16 10 -24.5t39 -17.5l177 -51q106 -31 106 -136q0 -84 -64 -135q-60 -48 -172 -48q-249 0 -255 180h137q8 -37 27 -51q29 -19 83 -19q49 0 76.5 14t27.5 39q0 16 -10.5 26t-36.5 18l-167 52q-64 21 -88 45
q-30 33 -30 88q0 83 59.5 131.5t162.5 48.5q109 0 171 -48.5t64 -134.5zM332 607h-107l-103 150h78l82 -97l82 97h76z" />
    <glyph glyph-name="scommaaccent" unicode="&#x219;" 
d="M505 366h-135q-1 73 -101 73q-37 0 -59 -13.5t-22 -36.5q0 -16 10 -24.5t39 -17.5l177 -51q106 -31 106 -136q0 -84 -64 -135q-60 -48 -172 -48q-249 0 -255 180h137q8 -37 27 -51q29 -19 83 -19q49 0 76.5 14t27.5 39q0 16 -10.5 26t-36.5 18l-167 52q-64 21 -88 45
q-30 33 -30 88q0 83 59.5 131.5t162.5 48.5q109 0 171 -48.5t64 -134.5zM227 -60h122v-103q0 -61 -34.5 -101.5t-87.5 -42.5v46q69 13 67 89h-67v112z" />
    <glyph glyph-name="tcaron" unicode="&#x165;" horiz-adv-x="385" 
d="M301 529v-93h-78v-294q0 -36 9 -47.5t37 -11.5q11 0 32 3v-98q-34 -11 -81 -11q-137 0 -137 127v332h-69v93h69v145h140v-145h78zM276 829h122v-103q0 -61 -34.5 -101.5t-87.5 -42.5v46q69 13 67 89h-67v112z" />
    <glyph glyph-name="udieresis" unicode="&#xfc;" horiz-adv-x="611" 
d="M541 0h-140v64q-58 -87 -162 -87q-86 0 -133.5 49t-47.5 138v376h140v-347q0 -97 90 -97q51 0 82 29t31 77v338h140v-540zM261 743v-122h-110v122h110zM447 743v-122h-110v122h110z" />
    <glyph glyph-name="uacute" unicode="&#xfa;" horiz-adv-x="611" 
d="M541 0h-140v64q-58 -87 -162 -87q-86 0 -133.5 49t-47.5 138v376h140v-347q0 -97 90 -97q51 0 82 29t31 77v338h140v-540zM438 757l-126 -150h-70l70 150h126z" />
    <glyph glyph-name="ugrave" unicode="&#xf9;" horiz-adv-x="611" 
d="M541 0h-140v64q-58 -87 -162 -87q-86 0 -133.5 49t-47.5 138v376h140v-347q0 -97 90 -97q51 0 82 29t31 77v338h140v-540zM163 757h126l70 -150h-70z" />
    <glyph glyph-name="ucircumflex" unicode="&#xfb;" horiz-adv-x="611" 
d="M541 0h-140v64q-58 -87 -162 -87q-86 0 -133.5 49t-47.5 138v376h140v-347q0 -97 90 -97q51 0 82 29t31 77v338h140v-540zM248 757h107l103 -150h-78l-82 100l-82 -100h-76z" />
    <glyph glyph-name="uring" unicode="&#x16f;" horiz-adv-x="611" 
d="M541 0h-140v64q-58 -87 -162 -87q-86 0 -133.5 49t-47.5 138v376h140v-347q0 -97 90 -97q51 0 82 29t31 77v338h140v-540zM300 770q37 0 63 -26.5t26 -64.5q0 -37 -26.5 -63t-63.5 -26t-63.5 26t-26.5 64t26.5 64t64.5 26zM300 722q-18 0 -30.5 -12.5t-12.5 -29.5
t12.5 -29.5t30.5 -12.5q17 0 29 12.5t12 29.5t-12 29.5t-29 12.5z" />
    <glyph glyph-name="uhungarumlaut" unicode="&#x171;" horiz-adv-x="611" 
d="M541 0h-140v64q-58 -87 -162 -87q-86 0 -133.5 49t-47.5 138v376h140v-347q0 -97 90 -97q51 0 82 29t31 77v338h140v-540zM371 757l-126 -147h-70l70 147h126zM559 757l-126 -147h-70l70 147h126z" />
    <glyph glyph-name="yacute" unicode="&#xfd;" 
d="M394 540h144l-222 -639q-17 -48 -33.5 -69.5t-45.5 -33.5q-41 -17 -101 -17q-22 0 -50 4v105q22 -6 37 -6q37 0 62 26t25 64v3v1l-201 562h154l119 -393zM412 757l-126 -150h-70l70 150h126z" />
    <glyph glyph-name="zacute" unicode="&#x17a;" horiz-adv-x="500" 
d="M459 540v-113l-265 -314h274v-113h-447v113l267 314h-249v113h420zM387 757l-126 -150h-70l70 150h126z" />
    <glyph glyph-name="zcaron" unicode="&#x17e;" horiz-adv-x="500" 
d="M459 540v-113l-265 -314h274v-113h-447v113l267 314h-249v113h420zM302 607h-107l-103 150h78l82 -97l82 97h76z" />
    <glyph glyph-name="zdotaccent" unicode="&#x17c;" horiz-adv-x="500" 
d="M459 540v-113l-265 -314h274v-113h-447v113l267 314h-249v113h420zM306 743v-122h-110v122h110z" />
    <glyph glyph-name="ydieresis" unicode="&#xff;" 
d="M394 540h144l-222 -639q-17 -48 -33.5 -69.5t-45.5 -33.5q-41 -17 -101 -17q-22 0 -50 4v105q22 -6 37 -6q37 0 62 26t25 64v3v1l-201 562h154l119 -393zM235 743v-122h-110v122h110zM421 743v-122h-110v122h110z" />
    <glyph glyph-name="tcommaaccent" unicode="&#x163;" horiz-adv-x="333" 
d="M301 529v-93h-78v-294q0 -36 9 -47.5t37 -11.5q11 0 32 3v-98q-34 -11 -81 -11q-137 0 -137 127v332h-69v93h69v145h140v-145h78zM127 -60h122v-103q0 -61 -34.5 -101.5t-87.5 -42.5v46q69 13 67 89h-67v112z" />
    <glyph glyph-name="amacron" unicode="&#x101;" 
d="M524 17v-17h-152q-16 20 -16 54q-74 -77 -164 -77q-77 0 -126 51q-38 41 -38 111q0 143 159 170l56 10q69 11 88 21q24 13 24 42q0 54 -81 54q-52 0 -73 -16t-26 -58h-135q13 187 231 187q221 0 221 -166v-300q0 -37 32 -66zM355 217v38q-19 -9 -59 -17l-48 -9
q-44 -9 -62 -26t-18 -48q0 -30 20.5 -47.5t55.5 -17.5q53 0 82 33t29 94zM422 719v-79h-299v79h299z" />
    <glyph glyph-name="emacron" unicode="&#x113;" 
d="M524 226h-362q3 -68 20 -95q31 -47 92 -47q80 0 107 68h138q-23 -80 -91 -127.5t-159 -47.5q-115 0 -181 74.5t-66 204.5q0 136 67 214.5t183 78.5q82 0 143.5 -41.5t88.5 -115.5q21 -61 21 -142q0 -12 -1 -24zM164 319h215q-4 50 -22 78q-32 45 -87 45q-92 0 -106 -123z
M430 719v-79h-299v79h299z" />
    <glyph glyph-name="imacron" unicode="&#x12b;" horiz-adv-x="278" 
d="M207 540v-540h-140v540h140zM266 719v-79h-259v79h259z" />
    <glyph glyph-name="kcommaaccent" unicode="&#x137;" 
d="M199 330l177 210h159l-184 -204l197 -336h-164l-129 238l-56 -61v-177h-140v729h140v-399zM229 -60h122v-103q0 -61 -34.5 -101.5t-87.5 -42.5v46q69 13 67 89h-67v112z" />
    <glyph glyph-name="lcommaaccent" unicode="&#x13c;" horiz-adv-x="278" 
d="M207 729v-729h-140v729h140zM78 -60h122v-103q0 -61 -34.5 -101.5t-87.5 -42.5v46q69 13 67 89h-67v112z" />
    <glyph glyph-name="ncommaaccent" unicode="&#x146;" horiz-adv-x="611" 
d="M63 540h140v-78q58 87 162 87q86 0 133.5 -49t47.5 -138v-362h-140v333q0 97 -90 97q-51 0 -82 -29t-31 -77v-324h-140v540zM244 -60h122v-103q0 -61 -34.5 -101.5t-87.5 -42.5v46q69 13 67 89h-67v112z" />
    <glyph glyph-name="omacron" unicode="&#x14d;" horiz-adv-x="611" 
d="M301 549q127 0 197.5 -76.5t70.5 -213.5q0 -130 -72 -206t-195 -76q-125 0 -196 76.5t-71 209.5t71 209.5t195 76.5zM302 436q-57 0 -92 -48t-35 -125t35 -125t92 -48q56 0 91.5 47.5t35.5 123.5q0 80 -34.5 127.5t-92.5 47.5zM452 719v-79h-299v79h299z" />
    <glyph glyph-name="rcommaaccent" unicode="&#x157;" horiz-adv-x="389" 
d="M63 540h140v-106q22 55 62 85t88 30q9 0 17 -1v-142q-25 4 -44 4q-123 0 -123 -123v-287h-140v540zM74 -60h122v-103q0 -61 -34.5 -101.5t-87.5 -42.5v46q69 13 67 89h-67v112z" />
    <glyph glyph-name="umacron" unicode="&#x16b;" horiz-adv-x="611" 
d="M541 0h-140v64q-58 -87 -162 -87q-86 0 -133.5 49t-47.5 138v376h140v-347q0 -97 90 -97q51 0 82 29t31 77v338h140v-540zM449 719v-79h-299v79h299z" />
    <glyph glyph-name="uogonek" unicode="&#x173;" horiz-adv-x="611" 
d="M465 0h-64v64q-58 -87 -162 -87q-86 0 -133.5 49t-47.5 138v376h140v-347q0 -97 90 -97q51 0 82 29t31 77v338h140v-540q-111 -56 -111 -129q0 -53 76 -53q26 0 58 5v-47q-36 -9 -75 -9q-71 0 -110 25t-39 70q0 33 21.5 64.5t57.5 52.5q14 9 46 21z" />
    <glyph glyph-name="rcaron" unicode="&#x159;" horiz-adv-x="389" 
d="M63 540h140v-106q22 55 62 85t88 30q9 0 17 -1v-142q-25 4 -44 4q-123 0 -123 -123v-287h-140v540zM264 607h-107l-103 150h78l82 -97l82 97h76z" />
    <glyph glyph-name="scedilla" unicode="&#x15f;" 
d="M283 -23l-19 -40q21 7 42 7q35 0 55.5 -19t20.5 -52q0 -45 -33 -69t-95 -24q-56 0 -139 28l19 52q69 -30 105 -30q24 0 40.5 12t16.5 29q0 16 -14 25.5t-37 9.5q-24 0 -49 -12l43 84q-107 13 -156.5 55t-53.5 124h137q8 -37 27 -51q29 -19 83 -19q49 0 76.5 14t27.5 39
q0 16 -10.5 26t-36.5 18l-167 52q-64 21 -88 45q-30 33 -30 88q0 83 59.5 131.5t162.5 48.5q109 0 171 -48.5t64 -134.5h-135q-1 73 -101 73q-37 0 -59 -13.5t-22 -36.5q0 -16 10 -24.5t39 -17.5l177 -51q106 -31 106 -136q0 -81 -61 -132t-158 -51h-18z" />
    <glyph glyph-name="gcommaaccent" unicode="&#x123;" horiz-adv-x="611" 
d="M408 540h133v-558q0 -95 -67.5 -147.5t-189.5 -52.5t-186 52q-52 43 -53 101h145q17 -63 99 -63q53 0 86 30.5t33 79.5v73q-39 -44 -72.5 -61t-80.5 -17q-100 0 -160.5 77t-60.5 203q0 125 64 208.5t160 83.5q90 0 150 -92v83zM288 432q-51 0 -82.5 -48t-31.5 -125
q0 -73 31 -119t81 -46q55 0 89.5 46t34.5 119q0 75 -34.5 124t-87.5 49zM365 606h-122v103q0 61 34.5 101.5t87.5 42.5v-46q-69 -13 -67 -89h67v-112z" />
    <glyph glyph-name="iogonek" unicode="&#x12f;" horiz-adv-x="278" 
d="M207 540v-540q-83 -58 -83 -128q0 -30 22 -43q19 -11 41 -11q15 0 44 5v-47q-40 -9 -63 -9q-62 0 -98 26t-36 71q0 71 110 136h-77v540h140zM207 729v-125h-140v125h140z" />
    <glyph glyph-name="Scommaaccent" unicode="&#x218;" horiz-adv-x="667" 
d="M607 507h-140q-8 114 -153 114q-58 0 -92 -24.5t-34 -65.5q0 -40 29 -59.5t109 -35.5l114 -22q101 -20 147 -67.5t46 -133.5q0 -111 -79 -173.5t-220 -62.5q-140 0 -217.5 62t-84.5 179h146q4 -59 46 -90t118 -31q68 0 107.5 26t39.5 72q0 44 -31 68t-106 38l-102 20
q-111 21 -158 66t-47 130q0 107 72.5 165.5t203.5 58.5q160 0 235 -83q51 -57 51 -151zM282 -60h122v-103q0 -61 -34.5 -101.5t-87.5 -42.5v46q69 13 67 89h-67v112z" />
    <glyph glyph-name="Eth" unicode="&#xd0;" horiz-adv-x="722" 
d="M77 339h-77v80h77v310h285q86 0 140 -20t91 -64q41 -52 64.5 -126t23.5 -154q0 -81 -23.5 -154.5t-64.5 -125.5q-36 -45 -90.5 -65t-140.5 -20h-285v339zM227 339v-214h135q92 0 129 54q46 65 46 185q0 121 -46 186q-37 54 -129 54h-135v-185h150v-80h-150z" />
    <glyph glyph-name="Dcroat" unicode="&#x110;" horiz-adv-x="722" 
d="M77 339h-77v80h77v310h285q86 0 140 -20t91 -64q41 -52 64.5 -126t23.5 -154q0 -81 -23.5 -154.5t-64.5 -125.5q-36 -45 -90.5 -65t-140.5 -20h-285v339zM227 339v-214h135q92 0 129 54q46 65 46 185q0 121 -46 186q-37 54 -129 54h-135v-185h150v-80h-150z" />
    <glyph glyph-name="Thorn" unicode="&#xde;" horiz-adv-x="667" 
d="M226 140v-140h-150v729h150v-120h172q116 0 173 -56q62 -61 62 -171q0 -112 -59.5 -177t-160.5 -65h-187zM226 265h140q117 0 117 109q0 56 -28.5 83t-88.5 27h-140v-219z" />
    <glyph glyph-name="dcroat" unicode="&#x111;" horiz-adv-x="611" 
d="M405 596h-133v67h133v66h140v-66h60v-67h-60v-596h-140v55q-52 -78 -149 -78t-162 82t-65 203q0 122 65 204.5t162 82.5q98 0 149 -79v126zM287 432q-52 0 -85 -47.5t-33 -122.5q0 -74 33 -121t85 -47t85 46t33 120q0 77 -32.5 124.5t-85.5 47.5z" />
    <glyph glyph-name="eth" unicode="&#xf0;" horiz-adv-x="611" 
d="M432 710l-84 -50q113 -77 167 -172t54 -219q0 -138 -70.5 -215t-196.5 -77q-125 0 -196 76.5t-71 211.5q0 165 113 232q60 37 126 37q36 0 85 -19q-40 64 -95 96l-77 -46l-42 37l70 44q-38 23 -90 48l67 47q35 -13 87 -42q2 -2 15 -7l87 52zM302 429q-57 0 -91.5 -46.5
t-34.5 -122.5q0 -77 34.5 -123.5t91.5 -46.5t91.5 46t34.5 121q0 79 -34 125.5t-92 46.5z" />
    <glyph glyph-name="thorn" unicode="&#xfe;" horiz-adv-x="611" 
d="M198 729v-269q50 89 150 89q97 0 161.5 -81.5t64.5 -205.5q0 -122 -64.5 -203.5t-161.5 -81.5q-100 0 -150 87v-282h-140v947h140zM316 432q-53 0 -85.5 -47t-32.5 -123q0 -75 32.5 -121.5t85.5 -46.5q52 0 85 46.5t33 119.5q0 77 -32.5 124.5t-85.5 47.5z" />
    <glyph glyph-name="Euro" unicode="&#x20ac;" 
d="M30 318h40q-2 14 -2 35t1 33h-63l24 68h48q28 128 103 199t183 71q52 0 90 -14t92 -54l-45 -129q-84 67 -146 67q-94 0 -131 -140h251l-24 -68h-240q-3 -24 -3 -41t2 -27h217l-25 -68h-181q20 -68 54.5 -105t79.5 -37q30 0 58.5 10t87.5 42v-149q-103 -34 -152 -34
q-59 0 -116 30.5t-91 80.5q-45 66 -64 162h-72z" />
    <glyph glyph-name="onesuperior" unicode="&#xb9;" horiz-adv-x="351" 
d="M147 573h-107v61q117 0 138 75h64v-425h-95v289z" />
    <glyph glyph-name="twosuperior" unicode="&#xb2;" horiz-adv-x="351" 
d="M326 365v-81h-310q2 61 24 96.5t80 72.5q74 49 93.5 71t19.5 56q0 30 -16 47t-45 17t-44.5 -18.5t-15.5 -52.5q0 -2 2 -16h-92q-1 8 -1 18q0 69 40.5 106t115.5 37q73 0 112 -34.5t39 -99.5q0 -45 -21 -75t-81 -71q-50 -35 -59 -43q-9 -6 -28 -30h187z" />
    <glyph glyph-name="threesuperior" unicode="&#xb3;" horiz-adv-x="351" 
d="M134 471v62h11q75 0 75 58q0 25 -14.5 39.5t-38.5 14.5q-38 0 -50 -28q-7 -14 -7 -46h-88q3 66 28 98q40 49 120 49q66 0 105.5 -32t39.5 -85q0 -57 -52 -89q66 -32 66 -103q0 -63 -43.5 -100.5t-115.5 -37.5q-73 0 -113.5 37.5t-41.5 105.5h92q4 -66 65 -66
q27 0 44.5 17t17.5 43q0 61 -84 63h-16z" />
    <glyph glyph-name="degree" unicode="&#xb0;" horiz-adv-x="606" 
d="M303 686q62 0 106.5 -44.5t44.5 -106.5q0 -64 -44.5 -108t-108.5 -44q-61 0 -105.5 45t-44.5 107t44.5 106.5t107.5 44.5zM303 623q-37 0 -63 -26t-26 -63q0 -35 26 -61.5t61 -26.5q38 0 64 26t26 63q0 36 -26 62t-62 26z" />
    <glyph glyph-name="minus" unicode="&#x2212;" horiz-adv-x="584" 
d="M544 291v-119h-504v119h504z" />
    <glyph glyph-name="multiply" unicode="&#xd7;" horiz-adv-x="584" 
d="M421 444l84 -84l-129 -129l128 -129l-84 -84l-128 129l-128 -128l-84 84l128 128l-129 128l84 85l129 -129z" />
    <glyph glyph-name="divide" unicode="&#xf7;" horiz-adv-x="584" 
d="M534 291v-119h-484v119h484zM230 474h124v-123h-124v123zM230 112h124v-123h-124v123z" />
    <glyph glyph-name="trademark" unicode="&#x2122;" horiz-adv-x="1000" 
d="M303 651v-378h-95v378h-137v78h365v-78h-133zM755 273h-94l-85 349v-349h-91v456h137l86 -350l84 350h137v-456h-91v349z" />
    <glyph glyph-name="plusminus" unicode="&#xb1;" horiz-adv-x="584" 
d="M527 103v-119h-471v119h471zM527 432v-119h-176v-176h-119v176h-176v119h176v176h119v-176h176z" />
    <glyph glyph-name="onehalf" unicode="&#xbd;" horiz-adv-x="869" 
d="M147 573h-107v61q117 0 138 75h64v-425h-95v289zM587 715h87l-423 -735h-87zM844 81v-81h-310q2 61 24 96.5t80 72.5q74 49 93.5 71t19.5 56q0 30 -16 47t-45 17t-44.5 -18.5t-15.5 -52.5q0 -2 2 -16h-92q-1 8 -1 18q0 69 40.5 106t115.5 37q73 0 112 -34.5t39 -99.5
q0 -45 -21 -75t-81 -71q-46 -32 -59 -43q-9 -6 -28 -30h187z" />
    <glyph glyph-name="onequarter" unicode="&#xbc;" horiz-adv-x="869" 
d="M147 573h-107v61q117 0 138 75h64v-425h-95v289zM593 715h87l-423 -735h-87zM850 168v-75h-46v-93h-95v93h-179v74l165 258h109v-257h46zM709 168v164l-106 -164h106z" />
    <glyph glyph-name="threequarters" unicode="&#xbe;" horiz-adv-x="869" 
d="M134 471v62h11q75 0 75 58q0 25 -14.5 39.5t-38.5 14.5q-38 0 -50 -28q-7 -14 -7 -46h-88q3 66 28 98q40 49 120 49q66 0 105.5 -32t39.5 -85q0 -57 -52 -89q66 -32 66 -103q0 -63 -43.5 -100.5t-115.5 -37.5q-73 0 -113.5 37.5t-41.5 105.5h92q4 -66 65 -66
q27 0 44.5 17t17.5 43q0 61 -84 63h-16zM625 715h87l-423 -735h-87zM850 168v-75h-46v-93h-95v93h-179v74l165 258h109v-257h46zM709 168v164l-106 -164h106z" />
    <glyph glyph-name="commaaccent" horiz-adv-x="333" 
d="M112 -60h122v-103q0 -61 -34.5 -101.5t-87.5 -42.5v46q69 13 67 89h-67v112z" />
    <glyph glyph-name="copyright" unicode="&#xa9;" horiz-adv-x="737" 
d="M552 431h-90q-16 78 -93 78q-53 0 -83.5 -40t-30.5 -110t29.5 -109t81.5 -39q88 0 96 86h92q-4 -79 -55 -124t-135 -45q-92 0 -146.5 63t-54.5 169q0 107 55 169.5t149 62.5q102 0 155 -70q26 -35 30 -91zM369 743q158 0 270 -112t112 -270q0 -160 -112.5 -271.5
t-274.5 -111.5q-155 0 -266.5 113t-111.5 270q0 158 112.5 270t270.5 112zM368 671q-125 0 -214.5 -91t-89.5 -219q0 -127 89 -219t212 -92q129 0 218.5 90.5t89.5 220.5q0 128 -89.5 219t-215.5 91z" />
    <glyph glyph-name="registered" unicode="&#xae;" horiz-adv-x="737" 
d="M288 313v-173h-96v443h238q57 0 89 -32t32 -89q0 -74 -70 -108q18 -8 26 -14.5t15.5 -14.5t9.5 -26.5t3.5 -39t2.5 -64.5q0 -24 19 -34v-21h-103q-14 27 -14 81q0 16 1 26v17q0 49 -61 49h-92zM288 394h103q36 0 50 11.5t14 42.5t-14 42.5t-50 11.5h-103v-108zM369 743
q158 0 270 -112t112 -270q0 -160 -112.5 -271.5t-274.5 -111.5q-155 0 -266.5 113t-111.5 270q0 158 112.5 270t270.5 112zM368 671q-125 0 -214.5 -91t-89.5 -219q0 -127 89 -219t212 -92q129 0 218.5 90.5t89.5 220.5q0 128 -89.5 219t-215.5 91z" />
    <glyph glyph-name="lozenge" unicode="&#x25ca;" horiz-adv-x="489" 
d="M270 744l192 -372l-192 -372h-62l-192 372l192 372h62zM240 60l160 312l-160 312l-161 -312z" />
    <glyph glyph-name="Delta" unicode="&#x394;" horiz-adv-x="729" 
d="M8 0l260 729h193l260 -729h-713zM205 125h319l-160 489z" />
    <glyph glyph-name="notequal" unicode="&#x2260;" horiz-adv-x="548" 
d="M123 52h-73v119h137l68 121h-205v119h272l65 117l98 -56l-35 -61h84v-119h-150l-68 -121h218v-119h-285l-68 -121l-97 56z" />
    <glyph glyph-name="radical" unicode="&#x221a;" horiz-adv-x="542" 
d="M476 913l36 -5l-152 -944l-241 497l-94 -46l-18 33l148 73l193 -396z" />
    <glyph glyph-name="lessequal" unicode="&#x2264;" horiz-adv-x="584" 
d="M534 81v-91h-489v91h489zM534 639v-109l-382 -133l382 -131v-111l-489 182v120z" />
    <glyph glyph-name="greaterequal" unicode="&#x2265;" horiz-adv-x="584" 
d="M534 81v-91h-489v91h489zM45 155v109l382 133l-382 131v111l489 -182v-121z" />
    <glyph glyph-name="logicalnot" unicode="&#xac;" horiz-adv-x="584" 
d="M40 375h504v-289h-77v212h-427v77z" />
    <glyph glyph-name="summation" unicode="&#x2211;" horiz-adv-x="711" 
d="M616 753l7 -160h-22q-19 70 -48 92t-100 22h-261l269 -355l-290 -334h342q46 0 67.5 4.5t36.5 17.5q15 12 23 25.5t24 51.5q1 1 6 13h24q-28 -106 -43 -226q-31 9 -80 9h-479q-41 0 -75 -4l345 400l-345 451q57 -7 113 -7h486z" />
    <glyph glyph-name="partialdiff" unicode="&#x2202;" horiz-adv-x="490" 
d="M102 670l-40 52q62 28 132 28q115 0 189.5 -97.5t74.5 -247.5q0 -77 -19 -164t-47 -138q-66 -118 -180 -118q-80 0 -135 56t-55 138q0 103 74 179q50 50 122 50q40 0 69 -12.5t81 -52.5q11 73 11 112q0 120 -55 196q-37 52 -110 52q-27 0 -43 -4.5t-61 -24.5zM361 304
q-38 63 -105 63q-60 0 -103 -62.5t-43 -149.5q0 -65 23.5 -102t65.5 -37q41 0 74 32t53 91q18 54 35 165z" />
    <glyph glyph-name="brokenbar" unicode="&#xa6;" horiz-adv-x="280" 
d="M180 729v-389h-80v389h80zM180 189v-389h-80v389h80z" />
    <glyph glyph-name="mu" unicode="&#x3bc;" horiz-adv-x="611" 
d="M192 -220h-134v760h140v-334q0 -51 18 -77q22 -33 66 -33t72.5 30t28.5 76v338h140v-390q0 -44 6 -58.5t24 -14.5q7 0 20 4v-87q-33 -17 -70 -17q-35 0 -56 12t-39 42q-29 -30 -55 -42t-61 -12q-61 0 -100 38v-235z" />
    <glyph glyph-name="afii10017" unicode="&#x410;" horiz-adv-x="722" 
d="M502 147h-274l-49 -147h-153l259 729h166l252 -729h-151zM460 272l-95 285l-95 -285h190z" />
    <glyph glyph-name="afii10018" unicode="&#x411;" horiz-adv-x="722" 
d="M395 463q79 0 135.5 -22t84.5 -59t39.5 -75t11.5 -81q0 -45 -20 -95.5t-52 -77.5q-63 -53 -184 -53h-328v729h512v-125h-362v-141h163zM232 338v-213h179q53 0 82 29.5t29 76.5q0 48 -29 77.5t-82 29.5h-179z" />
    <glyph glyph-name="afii10019" unicode="&#x412;" horiz-adv-x="722" 
d="M82 0v729h325q110 0 172 -53q66 -58 66 -139q0 -49 -26 -89.5t-74 -60.5q58 -17 89.5 -67.5t31.5 -109.5q0 -44 -19.5 -86.5t-52.5 -70.5q-63 -53 -184 -53h-328zM232 604v-165h163q106 0 106 82q0 83 -106 83h-163zM232 314v-189h179q111 0 111 94q0 95 -111 95h-179z
" />
    <glyph glyph-name="afii10020" unicode="&#x413;" horiz-adv-x="611" 
d="M232 0h-150v729h512v-125h-362v-604z" />
    <glyph glyph-name="afii10021" unicode="&#x414;" horiz-adv-x="900" 
d="M139 108q40 0 65.5 99.5t25.5 253.5v268h520v-621h115v-258h-130v150h-570v-150h-130v258h104zM333 125h267v479h-220v-190q0 -190 -47 -289z" />
    <glyph glyph-name="afii10022" unicode="&#x415;" horiz-adv-x="709" 
d="M232 314v-189h395v-125h-545v729h527v-125h-377v-165h349v-125h-349z" />
    <glyph glyph-name="afii10023" unicode="&#x401;" horiz-adv-x="709" 
d="M232 314v-189h395v-125h-545v729h527v-125h-377v-165h349v-125h-349zM310 922v-122h-110v122h110zM496 922v-122h-110v122h110z" />
    <glyph glyph-name="afii10024" unicode="&#x416;" horiz-adv-x="1093" 
d="M475 285l-269 -285h-184l357 378l-313 351h164l245 -279v279h150v-279l245 279h164l-313 -351l357 -378h-184l-269 285v-285h-150v285z" />
    <glyph glyph-name="afii10025" unicode="&#x417;" horiz-adv-x="672" 
d="M250 428h76q138 0 138 103q0 41 -34 65.5t-92 24.5q-145 0 -153 -114h-140q0 94 51 151q75 83 235 83q131 0 203.5 -58.5t72.5 -165.5q0 -93 -63 -140q89 -49 89 -164q0 -111 -79 -173.5t-220 -62.5q-140 0 -217.5 62t-84.5 179h146q4 -59 46 -90t118 -31q68 0 107.5 26
t39.5 72q0 49 -33 81t-104 32h-102v120z" />
    <glyph glyph-name="afii10026" unicode="&#x418;" horiz-adv-x="757" 
d="M232 0h-150v729h150v-496l289 496h154v-729h-150v504z" />
    <glyph glyph-name="afii10027" unicode="&#x419;" horiz-adv-x="757" 
d="M507 927v-11q0 -56 -38 -94t-94 -38t-94 38t-38 95v10h56q9 -66 77 -66q33 0 50.5 15.5t24.5 50.5h56zM232 0h-150v729h150v-496l289 496h154v-729h-150v504z" />
    <glyph glyph-name="afii10028" unicode="&#x41a;" horiz-adv-x="750" 
d="M232 0h-150v729h150v-279l285 279h177l-366 -351l397 -378h-200l-293 285v-285z" />
    <glyph glyph-name="afii10029" unicode="&#x41b;" horiz-adv-x="729" 
d="M497 604h-222v-204q0 -50 -3 -92.5t-11.5 -92.5t-25.5 -88t-42.5 -71t-65.5 -50.5t-91 -17.5v145q51 -1 70 71t19 243v282h522v-729h-150v604z" />
    <glyph glyph-name="afii10030" unicode="&#x41c;" horiz-adv-x="874" 
d="M232 568v-568h-150v729h224l132 -580l128 580h226v-729h-150v568l-129 -568h-150z" />
    <glyph glyph-name="afii10031" unicode="&#x41d;" horiz-adv-x="753" 
d="M521 331h-289v-331h-150v729h150v-273h288v273h151v-729h-150v331z" />
    <glyph glyph-name="afii10032" unicode="&#x41e;" horiz-adv-x="778" 
d="M390 741q156 0 250 -101q102 -110 102 -286q0 -77 -27.5 -151.5t-74.5 -124.5q-94 -101 -249 -101t-249 101q-49 52 -75.5 125.5t-26.5 155.5q0 171 102 281q93 101 248 101zM391 613q-91 0 -146 -69.5t-55 -184.5t55 -184.5t146 -69.5q90 0 145.5 69t55.5 181
q0 118 -54.5 188t-146.5 70z" />
    <glyph glyph-name="afii10033" unicode="&#x41f;" horiz-adv-x="753" 
d="M521 604h-289v-604h-150v729h589v-729h-150v604z" />
    <glyph glyph-name="afii10034" unicode="&#x420;" horiz-adv-x="671" 
d="M232 260v-260h-150v729h322q114 0 174.5 -58t60.5 -168q0 -111 -60 -177t-160 -66h-187zM232 385h140q117 0 117 109q0 56 -28.5 83t-88.5 27h-140v-219z" />
    <glyph glyph-name="afii10035" unicode="&#x421;" horiz-adv-x="722" 
d="M682 482h-143q-12 52 -33 78q-42 53 -123 53q-89 0 -139 -68t-50 -189q0 -119 48.5 -186t135.5 -67q70 0 112 38t49 108h146q-7 -125 -91 -198.5t-220 -73.5q-152 0 -241 102.5t-89 278.5q0 177 90 280t244 103q168 0 255 -115q42 -56 49 -144z" />
    <glyph glyph-name="afii10036" unicode="&#x422;" horiz-adv-x="611" 
d="M385 604v-604h-150v604h-221v125h584v-125h-213z" />
    <glyph glyph-name="afii10037" unicode="&#x423;" horiz-adv-x="718" 
d="M328 0h-174l114 226l-253 503h163l172 -345l172 345h174z" />
    <glyph glyph-name="afii10038" unicode="&#x424;" horiz-adv-x="892" 
d="M371 0v94q-91 0 -133 8q-208 41 -208 272q0 55 14 98.5t33.5 70.5t52 46.5t57.5 28.5t64.5 14t57.5 5.5t50 0.5h12v91h150v-91h12q31 0 50 -0.5t57.5 -5t64 -14t58 -29t52 -46.5t33.5 -70.5t14 -98.5q0 -59 -14 -105.5t-37 -75t-52.5 -50t-61 -30t-63 -15t-57 -4.5
t-43.5 0h-13v-94h-150zM371 188v352h-7q-23 0 -37 -1t-41.5 -5t-45.5 -15t-37 -28.5t-29 -48.5t-10 -72q0 -29 4.5 -53.5t10.5 -42t18 -31.5t21.5 -23.5t26.5 -15.5t26 -9.5t28 -5t26 -2t25.5 0t20.5 0.5zM521 188q2 0 20.5 -0.5t25.5 0t26 2t28 5t26 9.5t26.5 15.5
t21.5 23.5t18 31.5t10.5 42t4.5 53.5q0 41 -10 72t-29 48.5t-37 28.5t-45.5 15t-41.5 5t-37 1h-7v-352z" />
    <glyph glyph-name="afii10039" unicode="&#x425;" horiz-adv-x="667" 
d="M429 372l225 -372h-171l-145 241l-142 -241h-174l230 367l-222 362h178l132 -226l130 226h174z" />
    <glyph glyph-name="afii10040" unicode="&#x426;" horiz-adv-x="816" 
d="M521 125v604h150v-621h110v-258h-130v150h-569v729h150v-604h289z" />
    <glyph glyph-name="afii10041" unicode="&#x427;" horiz-adv-x="685" 
d="M474 225h-158q-110 0 -179 63t-69 159v282h150v-276q0 -48 32 -75.5t78 -27.5h145v379h151v-729h-150v225z" />
    <glyph glyph-name="afii10042" unicode="&#x428;" horiz-adv-x="1057" 
d="M967 0h-899v729h150v-604h219v604h150v-604h230v604h150v-729z" />
    <glyph glyph-name="afii10043" unicode="&#x429;" horiz-adv-x="1183" 
d="M962 0h-894v729h150v-604h229v604h150v-604h230v604h150v-621h120v-258h-135v150z" />
    <glyph glyph-name="afii10044" unicode="&#x42a;" horiz-adv-x="833" 
d="M394 469h187q100 0 160 -66t60 -177q0 -110 -60.5 -168t-174.5 -58h-322v604h-230v125h380v-260zM394 344v-219h140q60 0 88.5 27t28.5 83q0 109 -117 109h-140z" />
    <glyph glyph-name="afii10045" unicode="&#x42b;" horiz-adv-x="949" 
d="M884 729v-729h-150v729h150zM218 469h187q100 0 160 -66t60 -177q0 -110 -60.5 -168t-174.5 -58h-322v729h150v-260zM218 344v-219h140q60 0 88.5 27t28.5 83q0 109 -117 109h-140z" />
    <glyph glyph-name="afii10046" unicode="&#x42c;" horiz-adv-x="687" 
d="M226 469h187q100 0 160 -66t60 -177q0 -110 -60.5 -168t-174.5 -58h-322v729h150v-260zM226 344v-219h140q60 0 88.5 27t28.5 83q0 109 -117 109h-140z" />
    <glyph glyph-name="afii10047" unicode="&#x42d;" horiz-adv-x="722" 
d="M241 311v125h291q-15 84 -64 130.5t-122 46.5q-81 0 -123 -53q-21 -26 -33 -78h-143q7 88 49 144q87 115 255 115q154 0 244 -103t90 -280q0 -176 -89 -278.5t-241 -102.5q-136 0 -220 73.5t-91 198.5h146q7 -70 49 -108t112 -38q78 0 125.5 54.5t56.5 153.5h-292z" />
    <glyph glyph-name="afii10048" unicode="&#x42e;" horiz-adv-x="1099" 
d="M357 436q20 122 96 204q93 101 238 101q78 0 134.5 -24.5t105.5 -76.5q102 -110 102 -286q0 -77 -27.5 -151.5t-74.5 -124.5q-94 -101 -239 -101t-239 101q-85 91 -99 233h-136v-311h-150v729h150v-293h139zM692 613q-90 0 -140.5 -69t-50.5 -185t50.5 -185t140.5 -69
q89 0 140 68.5t51 181.5q0 120 -50 189t-141 69z" />
    <glyph glyph-name="afii10049" unicode="&#x42f;" horiz-adv-x="698" 
d="M422 260l-221 -260h-179l220 265q-71 14 -118.5 76.5t-47.5 161.5q0 110 60.5 168t174.5 58h322v-729h-150v260h-61zM483 385v219h-140q-60 0 -88.5 -27t-28.5 -83q0 -109 117 -109h140z" />
    <glyph glyph-name="afii10065" unicode="&#x430;" 
d="M524 17v-17h-152q-16 20 -16 54q-74 -77 -164 -77q-77 0 -126 51q-38 41 -38 111q0 141 159 170l56 10q73 13 88 21q24 13 24 42q0 54 -81 54q-52 0 -73 -16t-26 -58h-135q13 187 231 187q221 0 221 -166v-300q0 -37 32 -66zM355 217v38q-19 -9 -59 -17l-48 -9
q-42 -8 -61 -25.5t-19 -48.5q0 -30 20.5 -47.5t55.5 -17.5q53 0 82 33t29 94z" />
    <glyph glyph-name="afii10066" unicode="&#x431;" horiz-adv-x="606" 
d="M438 776l104 1q0 -28 -1 -43t-9 -36t-23 -32q-43 -31 -130.5 -40.5t-125.5 -33.5q-83 -51 -84 -130q43 87 169 87q49 0 95 -23.5t74 -63.5q58 -84 58 -199q0 -127 -68 -206.5t-192 -79.5q-128 0 -191.5 70.5t-63.5 244.5q0 48 2 84.5t10.5 83t23 82t41 70.5t63.5 58
q59 37 196 54q21 3 34 16t16 24zM307 432q-52 0 -85 -46.5t-33 -120.5q0 -77 32.5 -124t85.5 -47q52 0 85 47t33 121q0 75 -33 122.5t-85 47.5z" />
    <glyph glyph-name="afii10067" unicode="&#x432;" horiz-adv-x="572" 
d="M60 0v540h266q83 0 128 -39q49 -42 49 -103q0 -36 -20.5 -69t-53.5 -43q43 -13 66 -50.5t23 -80.5q0 -33 -14.5 -64.5t-38.5 -51.5q-46 -39 -136 -39h-269zM200 430v-97h94q40 0 57 9.5t17 37.5q0 29 -17 39.5t-57 10.5h-94zM200 223v-113h100q42 0 60.5 13.5t18.5 46.5
t-17.5 43t-61.5 10h-100z" />
    <glyph glyph-name="afii10068" unicode="&#x433;" horiz-adv-x="454" 
d="M408 540v-113h-208v-427h-140v540h348z" />
    <glyph glyph-name="afii10069" unicode="&#x434;" horiz-adv-x="685" 
d="M580 101h82v-226h-110v125h-419v-125h-110v226h62q35 0 56 88t21 199v152h418v-439zM263 113h177v314h-138v-51q0 -175 -39 -263z" />
    <glyph glyph-name="afii10070" unicode="&#x435;" 
d="M524 226h-362q3 -68 20 -95q31 -47 92 -47q80 0 107 68h138q-23 -80 -91 -127.5t-159 -47.5q-115 0 -181 74.5t-66 204.5q0 136 67 214.5t183 78.5q82 0 143.5 -41.5t88.5 -115.5q21 -61 21 -142q0 -12 -1 -24zM164 319h215q-4 50 -22 78q-32 45 -87 45q-92 0 -106 -123z
" />
    <glyph glyph-name="afii10071" unicode="&#x451;" 
d="M242 743v-122h-110v122h110zM428 743v-122h-110v122h110zM524 226h-362q3 -68 20 -95q31 -47 92 -47q80 0 107 68h138q-23 -80 -91 -127.5t-159 -47.5q-115 0 -181 74.5t-66 204.5q0 136 67 214.5t183 78.5q82 0 143.5 -41.5t88.5 -115.5q21 -61 21 -142q0 -12 -1 -24z
M164 319h215q-4 50 -22 78q-32 45 -87 45q-92 0 -106 -123z" />
    <glyph glyph-name="afii10072" unicode="&#x436;" horiz-adv-x="809" 
d="M332 198l-137 -198h-179l213 296l-177 244h148l132 -189v189h140v-189l132 189h148l-177 -244l213 -296h-179l-137 198v-198h-140v198z" />
    <glyph glyph-name="afii10073" unicode="&#x437;" horiz-adv-x="546" 
d="M206 208v110h94q12 0 21.5 1.5t16 5t11.5 6.5t8 9.5t5 10t2.5 10.5t0.5 9.5v10.5v8q0 23 -22 36.5t-59 13.5q-100 0 -101 -73h-135q2 86 64 134.5t171 48.5q103 0 162.5 -48.5t59.5 -131.5q0 -55 -30 -88q-2 -2 -7.5 -5.5t-6.5 -4.5q59 -37 59 -111q0 -84 -64 -135
q-60 -48 -172 -48q-249 0 -255 180h137q8 -37 27 -51q29 -19 83 -19q49 0 76.5 14t27.5 39q0 13 -1.5 20.5t-8 21t-25 20t-47.5 6.5h-92z" />
    <glyph glyph-name="afii10074" unicode="&#x438;" horiz-adv-x="615" 
d="M60 540h140v-338l195 338h160v-540h-140v338l-195 -338h-160v540z" />
    <glyph glyph-name="afii10075" unicode="&#x439;" horiz-adv-x="615" 
d="M60 540h140v-338l195 338h160v-540h-140v338l-195 -338h-160v540zM440 723v-11q0 -56 -38 -94t-94 -38t-94 38t-38 95v10h56q9 -66 77 -66q64 0 75 66h56z" />
    <glyph glyph-name="afii10076" unicode="&#x43a;" horiz-adv-x="573" 
d="M200 351l162 189h148l-214 -244l253 -296h-182l-167 198v-198h-140v540h140v-189z" />
    <glyph glyph-name="afii10077" unicode="&#x43b;" horiz-adv-x="577" 
d="M104 540h413v-540h-140v427h-133v-61q0 -199 -50.5 -287.5t-164.5 -88.5v135q13 0 24 5t18.5 16t13 23t9 32t6 37t3.5 44t1 46v50v162z" />
    <glyph glyph-name="afii10078" unicode="&#x43c;" horiz-adv-x="666" 
d="M369 0h-72l-97 297v-297h-140v540h175l98 -327l98 327h175v-540h-140v297z" />
    <glyph glyph-name="afii10079" unicode="&#x43d;" horiz-adv-x="603" 
d="M60 540h140v-220h203v220h140v-540h-140v207h-203v-207h-140v540z" />
    <glyph glyph-name="afii10080" unicode="&#x43e;" horiz-adv-x="611" 
d="M301 549q127 0 197.5 -76.5t70.5 -213.5q0 -130 -72 -206t-195 -76q-125 0 -196 76.5t-71 209.5t71 209.5t195 76.5zM302 436q-57 0 -92 -48t-35 -125t35 -125t92 -48q56 0 91.5 47.5t35.5 123.5q0 80 -34.5 127.5t-92.5 47.5z" />
    <glyph glyph-name="afii10081" unicode="&#x43f;" horiz-adv-x="603" 
d="M60 540h483v-540h-140v427h-203v-427h-140v540z" />
    <glyph glyph-name="afii10082" unicode="&#x440;" horiz-adv-x="611" 
d="M198 540v-80q50 89 150 89q49 0 95 -23.5t73 -61.5q58 -81 58 -202q0 -123 -64.5 -204.5t-161.5 -81.5q-100 0 -150 88v-282h-140v758h140zM316 432q-53 0 -85.5 -47t-32.5 -123t32.5 -122.5t85.5 -46.5q52 0 85 47t33 120q0 77 -32.5 124.5t-85.5 47.5z" />
    <glyph glyph-name="afii10083" unicode="&#x441;" 
d="M522 338h-134q-12 53 -34.5 75.5t-65.5 22.5q-62 0 -87 -46q-27 -51 -27 -131q0 -79 30.5 -124t83.5 -45q41 0 64 22.5t36 74.5h134q-10 -97 -73.5 -153.5t-161.5 -56.5q-120 0 -186.5 74t-66.5 208q0 138 67 214t188 76q101 0 163.5 -56t69.5 -155z" />
    <glyph glyph-name="afii10084" unicode="&#x442;" horiz-adv-x="454" 
d="M431 540v-113h-135v-427h-140v427h-135v113h410z" />
    <glyph glyph-name="afii10085" unicode="&#x443;" 
d="M394 540h144l-217 -639q-16 -48 -34.5 -69t-49.5 -34q-41 -17 -101 -17q-22 0 -50 4v105q22 -6 37 -6q37 0 61 25.5t24 63.5v4v1l-199 562h154l119 -393z" />
    <glyph glyph-name="afii10086" unicode="&#x444;" horiz-adv-x="957" 
d="M404 64q-50 -88 -150 -88q-97 0 -161.5 81.5t-64.5 204.5q0 121 58 202q27 38 73 61.5t95 23.5q100 0 150 -89v259h140v-259q50 89 150 89q49 0 95 -23.5t73 -61.5q58 -81 58 -202q0 -123 -64.5 -204.5t-161.5 -81.5q-100 0 -150 88v-282h-140v282zM286 432
q-53 0 -85.5 -47.5t-32.5 -124.5q0 -73 33 -120t85 -47q53 0 85.5 46.5t32.5 122.5t-32.5 123t-85.5 47zM662 432q-53 0 -85.5 -47t-32.5 -123t32.5 -122.5t85.5 -46.5q52 0 85 47t33 120q0 77 -32.5 124.5t-85.5 47.5z" />
    <glyph glyph-name="afii10087" unicode="&#x445;" 
d="M355 272l180 -272h-168l-91 168l-92 -168h-168l180 272l-176 268h168l88 -163l87 163h168z" />
    <glyph glyph-name="afii10088" unicode="&#x446;" horiz-adv-x="652" 
d="M60 0v540h140v-427h203v427h140v-439h86v-226h-110v125h-459z" />
    <glyph glyph-name="afii10089" unicode="&#x447;" horiz-adv-x="578" 
d="M60 540h140v-194q0 -35 21 -52.5t57 -17.5h100v264h140v-540h-140v163h-98q-92 0 -156 44.5t-64 137.5v195z" />
    <glyph glyph-name="afii10090" unicode="&#x448;" horiz-adv-x="886" 
d="M826 0h-766v540h140v-427h171v427h140v-427h175v427h140v-540z" />
    <glyph glyph-name="afii10091" unicode="&#x449;" horiz-adv-x="968" 
d="M835 0h-775v540h140v-427h171v427h140v-427h174v427h140v-439h120v-226h-110v125z" />
    <glyph glyph-name="afii10092" unicode="&#x44a;" horiz-adv-x="693" 
d="M191 0v427h-171v113h311v-181h148q85 0 134.5 -53.5t49.5 -137.5q0 -34 -14.5 -72t-38.5 -57q-46 -39 -136 -39h-283zM331 249v-139h109q84 0 84 70q0 34 -24 51.5t-65 17.5h-104z" />
    <glyph glyph-name="afii10093" unicode="&#x44b;" horiz-adv-x="811" 
d="M318 359q106 0 160 -52t54 -139q0 -34 -14.5 -72t-38.5 -57q-46 -39 -136 -39h-283v540h140v-181h118zM200 249v-139h109q84 0 84 70q0 34 -23.5 51.5t-65.5 17.5h-104zM718 540v-540h-140v540h140z" />
    <glyph glyph-name="afii10094" unicode="&#x44c;" horiz-adv-x="562" 
d="M335 359q197 0 197 -177q0 -82 -47.5 -132t-141.5 -50h-283v540h140v-181h135zM200 249v-139h109q84 0 84 70q0 34 -23.5 51.5t-65.5 17.5h-104z" />
    <glyph glyph-name="afii10095" unicode="&#x44d;" horiz-adv-x="564" 
d="M203 207v113h174q-8 44 -22 70q-25 46 -87 46q-43 0 -65.5 -22.5t-34.5 -75.5h-134q7 99 69.5 155t163.5 56q121 0 188 -76t67 -214q0 -134 -66.5 -208t-186.5 -74q-98 0 -161.5 56.5t-73.5 153.5h134q13 -52 36 -74.5t64 -22.5q43 0 72 30.5t38 86.5h-175z" />
    <glyph glyph-name="afii10096" unicode="&#x44e;" horiz-adv-x="888" 
d="M282 207h-82v-207h-140v540h140v-220h82q15 109 79.5 169t172.5 60q126 0 192 -75.5t66 -214.5q0 -131 -67.5 -206.5t-189.5 -75.5q-109 0 -174 60t-79 170zM535 436q-56 0 -86.5 -47t-30.5 -126t30.5 -126t86.5 -47q55 0 86 47t31 124q0 81 -30 128t-87 47z" />
    <glyph glyph-name="afii10097" unicode="&#x44f;" horiz-adv-x="596" 
d="M347 207l-143 -207h-179l155 218q-61 17 -95 63t-34 104q0 33 14.5 64.5t38.5 51.5q46 39 136 39h291v-540h-140v207h-44zM391 317v113h-122q-42 0 -60.5 -12.5t-18.5 -45.5t18 -44t61 -11h122z" />
    <glyph glyph-name="uni0400" unicode="&#x400;" horiz-adv-x="709" 
d="M184 951h126l70 -150h-70zM232 314v-189h395v-125h-545v729h527v-125h-377v-165h349v-125h-349z" />
    <glyph glyph-name="afii10051" unicode="&#x402;" horiz-adv-x="769" 
d="M435 -47h25q46 0 78 27.5t32 75.5v220q0 48 -32 75.5t-78 27.5h-115v-379h-150v604h-181v125h504v-125h-173v-100h127q110 0 179 -63t69 -159v-232q0 -96 -69 -159t-179 -63h-37v125z" />
    <glyph glyph-name="afii10052" unicode="&#x403;" horiz-adv-x="611" 
d="M499 951l-126 -150h-70l70 150h126zM232 0h-150v729h512v-125h-362v-604z" />
    <glyph glyph-name="afii10053" unicode="&#x404;" horiz-adv-x="722" 
d="M488 311h-292q9 -99 56.5 -153.5t125.5 -54.5q70 0 112 38t49 108h146q-7 -125 -91 -198.5t-220 -73.5q-152 0 -241 102.5t-89 278.5q0 177 90 280t244 103q168 0 255 -115q42 -56 49 -144h-143q-12 52 -33 78q-42 53 -123 53q-73 0 -122 -46.5t-64 -130.5h291v-125z" />
    <glyph glyph-name="afii10054" unicode="&#x405;" horiz-adv-x="667" 
d="M607 507h-140q-8 114 -153 114q-58 0 -92 -24.5t-34 -65.5q0 -40 29 -59.5t109 -35.5l114 -22q101 -20 147 -67.5t46 -133.5q0 -111 -79 -173.5t-220 -62.5q-140 0 -217.5 62t-84.5 179h146q4 -59 46 -90t118 -31q68 0 107.5 26t39.5 72q0 44 -31 68t-106 38l-102 20
q-111 21 -158 66t-47 130q0 107 72.5 165.5t203.5 58.5q160 0 235 -83q51 -57 51 -151z" />
    <glyph glyph-name="afii10055" unicode="&#x406;" horiz-adv-x="278" 
d="M213 729v-729h-150v729h150z" />
    <glyph glyph-name="afii10056" unicode="&#x407;" horiz-adv-x="278" 
d="M101 922v-122h-110v122h110zM287 922v-122h-110v122h110zM213 729v-729h-150v729h150z" />
    <glyph glyph-name="afii10057" unicode="&#x408;" 
d="M336 729h150v-539q0 -102 -61 -157.5t-173 -55.5q-103 0 -167 58q-61 57 -61 163v72h150v-70q0 -50 19 -72.5t62 -22.5q39 0 60 22t21 63v539z" />
    <glyph glyph-name="afii10058" unicode="&#x409;" horiz-adv-x="1106" 
d="M507 0v604h-222v-190q0 -61 -4 -112t-19 -109.5t-40 -98.5t-70 -67t-106 -27v145q51 -1 70 75.5t19 240.5v268h522v-260h187q100 0 160 -66t60 -177q0 -110 -60.5 -168t-174.5 -58h-322zM657 344v-219h140q60 0 88.5 27t28.5 83q0 109 -117 109h-140z" />
    <glyph glyph-name="afii10059" unicode="&#x40a;" horiz-adv-x="1113" 
d="M657 729v-260h187q100 0 160 -66t60 -177q0 -110 -60.5 -168t-174.5 -58h-322v342h-289v-342h-150v729h150v-262h288v262h151zM657 344v-219h140q60 0 88.5 27t28.5 83q0 109 -117 109h-140z" />
    <glyph glyph-name="afii10060" unicode="&#x40b;" horiz-adv-x="769" 
d="M345 0h-150v604h-181v125h504v-125h-173l-1 -100h128q110 0 179 -63t69 -159v-282h-150v276q0 48 -32 75.5t-78 27.5h-115v-379z" />
    <glyph glyph-name="afii10061" unicode="&#x40c;" horiz-adv-x="750" 
d="M549 951l-126 -150h-70l70 150h126zM232 0h-150v729h150v-279l285 279h177l-366 -351l397 -378h-200l-293 285v-285z" />
    <glyph glyph-name="uni040D" unicode="&#x40d;" horiz-adv-x="757" 
d="M218 951h126l70 -150h-70zM232 0h-150v729h150v-496l289 496h154v-729h-150v504z" />
    <glyph glyph-name="afii10062" unicode="&#x40e;" horiz-adv-x="718" 
d="M488 944v-11q0 -56 -38 -94t-94 -38q-57 0 -94.5 38t-37.5 95v10h56q9 -66 76 -66q65 0 76 66h56zM328 0h-174l114 226l-253 503h163l172 -345l172 345h174z" />
    <glyph glyph-name="afii10145" unicode="&#x40f;" horiz-adv-x="722" 
d="M428 0v-150h-130v150h-230v729h150v-604h290v604h150v-729h-230z" />
    <glyph glyph-name="uni0450" unicode="&#x450;" 
d="M111 759h126l70 -150h-70zM524 226h-362q3 -68 20 -95q31 -47 92 -47q80 0 107 68h138q-23 -80 -91 -127.5t-159 -47.5q-115 0 -181 74.5t-66 204.5q0 136 67 214.5t183 78.5q82 0 143.5 -41.5t88.5 -115.5q21 -61 21 -142q0 -12 -1 -24zM164 319h215q-4 50 -22 78
q-32 45 -87 45q-92 0 -106 -123z" />
    <glyph glyph-name="afii10099" unicode="&#x452;" horiz-adv-x="611" 
d="M315 -187v119q46 0 70 33q16 24 16 67v269q0 43 -16 67q-24 33 -70 33q-47 0 -77.5 -30t-30.5 -76v-295h-140v588h-55v79h55v62h140v-62h154v-79h-154v-155q58 87 158 87q72 0 121 -41q55 -46 55 -146v-333q0 -100 -55 -146q-49 -41 -121 -41h-50z" />
    <glyph glyph-name="afii10100" unicode="&#x453;" horiz-adv-x="454" 
d="M395 759l-126 -150h-70l70 150h126zM408 540v-113h-208v-427h-140v540h348z" />
    <glyph glyph-name="afii10101" unicode="&#x454;" 
d="M353 207h-175q9 -56 38 -86.5t72 -30.5q41 0 64 22.5t36 74.5h134q-10 -97 -73.5 -153.5t-161.5 -56.5q-120 0 -186.5 74t-66.5 208q0 138 67 214t188 76q101 0 163.5 -56t69.5 -155h-134q-12 53 -34.5 75.5t-65.5 22.5q-62 0 -87 -46q-14 -26 -22 -70h174v-113z" />
    <glyph glyph-name="afii10102" unicode="&#x455;" 
d="M505 366h-135q-1 73 -101 73q-37 0 -59 -13.5t-22 -36.5q0 -16 10 -24.5t39 -17.5l177 -51q106 -31 106 -136q0 -84 -64 -135q-60 -48 -172 -48q-249 0 -255 180h137q8 -37 27 -51q29 -19 83 -19q49 0 76.5 14t27.5 39q0 16 -10.5 26t-36.5 18l-167 52q-64 21 -88 45
q-30 33 -30 88q0 83 59.5 131.5t162.5 48.5q109 0 171 -48.5t64 -134.5z" />
    <glyph glyph-name="afii10103" unicode="&#x456;" horiz-adv-x="278" 
d="M207 540v-540h-140v540h140zM207 729v-125h-140v125h140z" />
    <glyph glyph-name="afii10104" unicode="&#x457;" horiz-adv-x="278" 
d="M101 743v-122h-110v122h110zM287 743v-122h-110v122h110zM207 540v-540h-140v540h140z" />
    <glyph glyph-name="afii10105" unicode="&#x458;" horiz-adv-x="278" 
d="M210 540v-634q0 -66 -29 -95t-94 -29q-36 0 -83 5v112q13 -4 25 -4q23 0 32 9.5t9 32.5v603h140zM210 729v-125h-140v125h140z" />
    <glyph glyph-name="afii10106" unicode="&#x459;" horiz-adv-x="923" 
d="M403 0v427h-159v-51q0 -199 -50.5 -287.5t-164.5 -88.5v135q13 0 24 5t18.5 16t13 23t9 32t6 37t3.5 44t1 46v50v152h439v-181h135q197 0 197 -177q0 -82 -47.5 -132t-141.5 -50h-283zM543 249v-139h109q84 0 84 70q0 34 -24 51.5t-65 17.5h-104z" />
    <glyph glyph-name="afii10107" unicode="&#x45a;" horiz-adv-x="903" 
d="M406 0v246h-203v-246h-140v540h140v-181h203v181h140v-181h135q197 0 197 -177q0 -82 -47.5 -132t-141.5 -50h-283zM546 249v-139h109q84 0 84 70q0 34 -23.5 51.5t-65.5 17.5h-104z" />
    <glyph glyph-name="afii10108" unicode="&#x45b;" horiz-adv-x="611" 
d="M67 667v62h140v-62h154v-79h-154v-155q58 87 158 87q72 0 121 -41q55 -46 55 -146v-333h-140v301q0 43 -16 67q-24 33 -70 33q-47 0 -77.5 -30t-30.5 -76v-295h-140v588h-55v79h55z" />
    <glyph glyph-name="afii10109" unicode="&#x45c;" horiz-adv-x="573" 
d="M446 759l-126 -150h-70l70 150h126zM200 351l162 189h148l-214 -244l253 -296h-182l-167 198v-198h-140v540h140v-189z" />
    <glyph glyph-name="uni045D" unicode="&#x45d;" horiz-adv-x="615" 
d="M146 759h126l70 -150h-70zM60 540h140v-338l195 338h160v-540h-140v338l-195 -338h-160v540z" />
    <glyph glyph-name="afii10110" unicode="&#x45e;" 
d="M406 752v-11q0 -56 -38 -94t-94 -38q-57 0 -94.5 38t-37.5 95v10h56q9 -66 76 -66q65 0 76 66h56zM394 540h144l-217 -639q-16 -48 -34.5 -69t-49.5 -34q-41 -17 -101 -17q-22 0 -50 4v105q22 -6 37 -6q37 0 61 25.5t24 63.5v4v1l-199 562h154l119 -393z" />
    <glyph glyph-name="afii10193" unicode="&#x45f;" horiz-adv-x="608" 
d="M357 0v-125h-110v125h-187v540h140v-427h204v427h140v-540h-187z" />
    <glyph glyph-name="uni048C" unicode="&#x48c;" horiz-adv-x="687" 
d="M226 344v-219h140q60 0 88.5 27t28.5 83q0 109 -117 109h-140zM226 634h79v-79h-79v-86h187q100 0 160 -66t60 -177q0 -110 -60.5 -168t-174.5 -58h-322v555h-70v79h70v95h150v-95z" />
    <glyph glyph-name="uni048D" unicode="&#x48d;" horiz-adv-x="562" 
d="M200 223v-113h122q42 0 60.5 13.5t18.5 46.5t-17.5 43t-61.5 10h-122zM200 471h79v-79h-79v-59h116q109 0 165.5 -46.5t58.5 -131.5q0 -33 -14.5 -64.5t-38.5 -51.5q-46 -39 -136 -39h-291v392h-80v79h80v69h140v-69z" />
    <glyph glyph-name="uni048E" unicode="&#x48e;" horiz-adv-x="667" 
d="M468 428q15 26 15 66q0 56 -28.5 83t-88.5 27h-140v-219h140q13 0 31 2l-45 45l56 56zM572 324l47 -47l-56 -56l-57 57q-40 -18 -93 -18h-187v-260h-150v729h322q114 0 174.5 -58t60.5 -168q0 -112 -61 -179z" />
    <glyph glyph-name="uni048F" unicode="&#x48f;" horiz-adv-x="611" 
d="M414 163q20 40 20 97q0 77 -32.5 124.5t-85.5 47.5t-85.5 -47t-32.5 -123t32.5 -122.5t85.5 -46.5q23 0 45 11l-55 55l56 56zM514 63l59 -59l-56 -56l-60 60q-51 -32 -109 -32q-100 0 -150 88v-282h-140v758h140v-80q50 89 150 89q49 0 95 -23.5t73 -61.5q58 -81 58 -202
q0 -118 -60 -199z" />
    <glyph glyph-name="afii10050" unicode="&#x490;" horiz-adv-x="611" 
d="M224 0h-150v729l362 -1v136h150v-260h-362v-604z" />
    <glyph glyph-name="afii10098" unicode="&#x491;" horiz-adv-x="454" 
d="M412 666v-239h-208v-427h-140v540h220v126h128z" />
    <glyph glyph-name="uni0492" unicode="&#x492;" horiz-adv-x="611" 
d="M232 439h191v-125h-191v-314h-150v314h-78v125h78v290h512v-125h-362v-165z" />
    <glyph glyph-name="uni0493" unicode="&#x493;" horiz-adv-x="454" 
d="M60 329v211h348v-113h-208v-98h104v-90h-104v-239h-140v239h-66v90h66z" />
    <glyph glyph-name="uni0494" unicode="&#x494;" horiz-adv-x="611" 
d="M224 0h-150v729h512v-125h-362v-100h127q110 0 179 -63t69 -159v-232q0 -96 -69 -159t-179 -63h-37v125h25q46 0 78 27.5t32 75.5v220q0 48 -32 75.5t-78 27.5h-115v-379z" />
    <glyph glyph-name="uni0495" unicode="&#x495;" horiz-adv-x="584" 
d="M200 125v-125h-140v540h348v-113h-208v-154q20 32 52 44.5t86 12.5q36 0 77.5 -11t63.5 -30q55 -46 55 -146v-143q0 -100 -55 -146q-49 -41 -121 -41h-50v119q46 0 70 33q16 24 16 67v79q0 56 -26.5 78t-79.5 22q-44 0 -66 -25t-22 -61z" />
    <glyph glyph-name="uni0496" unicode="&#x496;" horiz-adv-x="1093" 
d="M976 108h102v-258h-135v150h-44l-274 285v-285h-150v285l-274 -285h-179l357 378l-313 351h164l245 -279v279h150v-279l245 279h164l-313 -351z" />
    <glyph glyph-name="uni0497" unicode="&#x497;" horiz-adv-x="809" 
d="M715 101h73v-226h-110v125h-69l-137 198v-198h-140v198l-137 -198h-179l213 296l-177 244h148l132 -189v189h140v-189l132 189h148l-177 -244z" />
    <glyph glyph-name="uni0498" unicode="&#x498;" horiz-adv-x="672" 
d="M280 -20q-114 11 -178 72t-70 166h146q4 -59 46 -90t118 -31q68 0 107.5 26t39.5 72q0 49 -33 81t-104 32h-102v120h76q138 0 138 103q0 41 -34 65.5t-92 24.5q-145 0 -153 -114h-140q0 94 51 151q75 83 235 83q131 0 203.5 -58.5t72.5 -165.5q0 -93 -63 -140
q89 -49 89 -164q0 -103 -69 -165t-194 -70q78 -46 78 -117q0 -44 -38.5 -69.5t-105.5 -25.5q-40 0 -79 10v47q27 -6 57 -6q76 0 76 50q0 33 -16.5 58t-61.5 55z" />
    <glyph glyph-name="uni0499" unicode="&#x499;" horiz-adv-x="546" 
d="M327 -21q79 -47 79 -118q0 -44 -38.5 -69.5t-105.5 -25.5q-40 0 -79 10v47q27 -6 57 -6q76 0 76 50q0 33 -16.5 57t-59.5 55q-205 15 -211 178h137q8 -37 27 -51q29 -19 83 -19q49 0 76.5 14t27.5 39q0 13 -1.5 20.5t-8 21t-25 20t-47.5 6.5h-92v110h94q12 0 21.5 1.5
t16 5t11.5 6.5t8 9.5t5 10t2.5 10.5t0.5 9.5v10.5v8q0 23 -22 36.5t-59 13.5q-100 0 -101 -73h-135q2 86 64 134.5t171 48.5q103 0 162.5 -48.5t59.5 -131.5q0 -55 -30 -88q-2 -2 -7.5 -5.5t-6.5 -4.5q59 -37 59 -111q0 -84 -64 -135q-47 -38 -129 -46z" />
    <glyph glyph-name="uni049A" unicode="&#x49a;" horiz-adv-x="750" 
d="M612 108h113v-258h-130v150h-70l-293 285v-285h-150v729h150v-279l285 279h177l-366 -351z" />
    <glyph glyph-name="uni049B" unicode="&#x49b;" horiz-adv-x="573" 
d="M463 101h86v-226h-110v125h-72l-167 198v-198h-140v540h140v-189l162 189h148l-214 -244z" />
    <glyph glyph-name="uni049C" unicode="&#x49c;" horiz-adv-x="722" 
d="M276 242l-44 43v-285h-150v729h150v-279l44 43v146h79v-69l162 159h177l-339 -325v-52l370 -352h-200l-170 165v-65h-79v142z" />
    <glyph glyph-name="uni049D" unicode="&#x49d;" horiz-adv-x="573" 
d="M236 155l-36 43v-198h-140v540h140v-189l36 42v126h79v-34l47 55h148l-195 -222v-44l234 -274h-182l-52 62v-27h-79v120z" />
    <glyph glyph-name="uni049E" unicode="&#x49e;" horiz-adv-x="722" 
d="M224 666h77v-79h-77v-137l285 279h177l-366 -351l404 -378h-186l-314 285v-285h-150v587h-72v79h72v63h150v-63z" />
    <glyph glyph-name="uni049F" unicode="&#x49f;" horiz-adv-x="573" 
d="M199 501h54v-59h-54v-91l162 189h148l-214 -244l253 -296h-182l-167 198v-198h-140v442h-51v59h51v39h140v-39z" />
    <glyph glyph-name="uni04A0" unicode="&#x4a0;" horiz-adv-x="912" 
d="M394 729v-279l285 279h177l-366 -351l397 -378h-200l-293 285v-285h-150v604h-230v125h380z" />
    <glyph glyph-name="uni04A1" unicode="&#x4a1;" horiz-adv-x="704" 
d="M331 540v-189l162 189h148l-214 -244l253 -296h-182l-167 198v-198h-140v427h-171v113h311z" />
    <glyph glyph-name="uni04A2" unicode="&#x4a2;" horiz-adv-x="753" 
d="M671 108h120v-258h-135v150h-135v331h-289v-331h-150v729h150v-273h288v273h151v-621z" />
    <glyph glyph-name="uni04A3" unicode="&#x4a3;" horiz-adv-x="608" 
d="M543 101h86v-226h-110v125h-116v207h-203v-207h-140v540h140v-220h203v220h140v-439z" />
    <glyph glyph-name="uni04A4" unicode="&#x4a4;" horiz-adv-x="985" 
d="M656 0h-149v331h-289v-331h-150v729h150v-273h288v273h462v-125h-312v-604z" />
    <glyph glyph-name="uni04A5" unicode="&#x4a5;" horiz-adv-x="787" 
d="M543 0h-140v207h-203v-207h-140v540h140v-220h203v220h338v-113h-198v-427z" />
    <glyph glyph-name="uni04A6" unicode="&#x4a6;" horiz-adv-x="1092" 
d="M657 0h-150v604h-289v-604h-150v729h589v-225h127q110 0 179 -63t69 -159v-232q0 -96 -69 -159t-179 -63h-37v125h25q46 0 78 27.5t32 75.5v220q0 48 -32 75.5t-78 27.5h-115v-379z" />
    <glyph glyph-name="uni04A7" unicode="&#x4a7;" horiz-adv-x="925" 
d="M543 540v-267q20 32 52 44.5t86 12.5q36 0 77.5 -11t63.5 -30q55 -46 55 -146v-143q0 -100 -55 -146q-49 -41 -121 -41h-50v119q46 0 70 33q16 24 16 67v79q0 56 -26.5 78t-79.5 22q-44 0 -66 -25t-22 -61v-125h-140v427h-203v-427h-140v540h483z" />
    <glyph glyph-name="uni04A8" unicode="&#x4a8;" horiz-adv-x="722" 
d="M378 103q44 0 77 15q-60 78 -60 183q0 75 40 114t103 39q58 0 103.5 -43t45.5 -105q0 -110 -38 -184q30 -19 64 -36l-67 -108q-53 25 -83 47q-73 -48 -189 -48q-152 0 -241 102.5t-89 278.5q0 177 90 280t244 103q168 0 255 -115q42 -56 49 -144h-143q-12 52 -33 78
q-42 53 -123 53q-89 0 -139 -68t-50 -189q0 -120 48 -186.5t136 -66.5zM541 217q16 42 16 101q0 7 -6.5 14.5t-13.5 7.5q-10 0 -16 -8t-6 -18q0 -55 26 -97z" />
    <glyph glyph-name="uni04A9" unicode="&#x4a9;" 
d="M288 90q14 0 32 5q-39 49 -39 106q0 56 34 84.5t87 28.5q51 0 85.5 -31t34.5 -83q0 -60 -30 -112q8 -3 22 -9.5t22 -9.5l-36 -96q-41 15 -83 40q-58 -36 -130 -36q-120 0 -186.5 74t-66.5 208q0 138 67 214t188 76q101 0 163.5 -56t69.5 -155h-134q-12 53 -34.5 75.5
t-65.5 22.5q-62 0 -87 -46q-27 -51 -27 -131q0 -79 30.5 -124t83.5 -45zM400 155q16 26 16 53q0 6 -6 16t-12 10q-7 0 -11.5 -9.5t-4.5 -18.5q0 -26 18 -51z" />
    <glyph glyph-name="uni04AA" unicode="&#x4aa;" horiz-adv-x="722" 
d="M321 -19q-129 17 -203 117.5t-74 259.5q0 177 90 280t244 103q168 0 255 -115q42 -56 49 -144h-143q-12 52 -33 78q-42 53 -123 53q-89 0 -139 -68t-50 -189q0 -119 48.5 -186t135.5 -67q70 0 112 38t49 108h146q-6 -116 -79.5 -188t-193.5 -82q78 -48 78 -118
q0 -44 -38.5 -69.5t-105.5 -25.5q-40 0 -79 10v47q27 -6 57 -6q76 0 76 50q0 33 -17 58t-62 56z" />
    <glyph glyph-name="uni04AB" unicode="&#x4ab;" 
d="M237 -19q-97 15 -150 87.5t-53 190.5q0 138 67 214t188 76q101 0 163.5 -56t69.5 -155h-134q-12 53 -34.5 75.5t-65.5 22.5q-62 0 -87 -46q-27 -51 -27 -131q0 -79 30.5 -124t83.5 -45q41 0 64 22.5t36 74.5h134q-9 -87 -61 -141.5t-135 -65.5q80 -47 80 -119
q0 -44 -38.5 -69.5t-105.5 -25.5q-40 0 -79 10v47q27 -6 57 -6q76 0 76 50q0 33 -17 58t-62 56z" />
    <glyph glyph-name="uni04AC" unicode="&#x4ac;" horiz-adv-x="611" 
d="M385 108h120v-258h-135v150h-135v604h-221v125h584v-125h-213v-496z" />
    <glyph glyph-name="uni04AD" unicode="&#x4ad;" horiz-adv-x="454" 
d="M296 101h86v-226h-110v125h-116v427h-135v113h410v-113h-135v-326z" />
    <glyph glyph-name="uni04AE" unicode="&#x4ae;" horiz-adv-x="667" 
d="M419 270v-270h-150v270l-242 459h167l149 -322l139 322h168z" />
    <glyph glyph-name="uni04AF" unicode="&#x4af;" horiz-adv-x="667" 
d="M419 81v-270h-150v270l-212 459h167l119 -322l109 322h168z" />
    <glyph glyph-name="uni04B0" unicode="&#x4b0;" horiz-adv-x="667" 
d="M269 145h-200v104h200v21l-242 459h167l149 -322l139 322h168l-231 -459v-21h200v-104h-200v-145h-150v145z" />
    <glyph glyph-name="uni04B1" unicode="&#x4b1;" horiz-adv-x="667" 
d="M419 -23v-166h-150v166h-200v104h200l-212 459h167l119 -322l109 322h168l-201 -459h200v-104h-200z" />
    <glyph glyph-name="uni04B2" unicode="&#x4b2;" horiz-adv-x="667" 
d="M585 108h68v-258h-130v150h-48l-140 253l-139 -253h-174l230 367l-222 362h178l128 -240l134 240h174l-225 -357z" />
    <glyph glyph-name="uni04B3" unicode="&#x4b3;" 
d="M468 101h67v-226h-110v125h-58l-91 168l-92 -168h-168l180 272l-176 268h168l88 -163l87 163h168l-176 -268z" />
    <glyph glyph-name="uni04B4" unicode="&#x4b4;" horiz-adv-x="951" 
d="M205 604h-191v125h524v-125h-183v-479h289v604h150v-621h110v-258h-130v150h-569v604z" />
    <glyph glyph-name="uni04B5" unicode="&#x4b5;" horiz-adv-x="738" 
d="M136 427h-115v113h370v-113h-115v-314h203v427h140v-439h96v-226h-110v125h-469v427z" />
    <glyph glyph-name="uni04B6" unicode="&#x4b6;" horiz-adv-x="781" 
d="M604 0h-130v225h-158q-110 0 -179 63t-69 159v282h150v-276q0 -48 32 -75.5t78 -27.5h145v379h151v-621h110v-258h-130v150z" />
    <glyph glyph-name="uni04B7" unicode="&#x4b7;" horiz-adv-x="627" 
d="M494 0h-116v163h-98q-92 0 -156 44.5t-64 137.5v195h140v-194q0 -35 21 -52.5t57 -17.5h100v264h140v-439h86v-226h-110v125z" />
    <glyph glyph-name="uni04B8" unicode="&#x4b8;" horiz-adv-x="685" 
d="M308 352v87h79v-89h86v379h151v-729h-150v225h-87v-85h-79v85q-104 0 -172 64t-68 158v282h150v-276q0 -42 25.5 -68.5t64.5 -32.5z" />
    <glyph glyph-name="uni04B9" unicode="&#x4b9;" horiz-adv-x="578" 
d="M248 164q-81 7 -134.5 52t-53.5 129v195h140v-194q0 -53 48 -66v99h79v-103h51v264h140v-540h-140v163h-51v-83h-79v84z" />
    <glyph glyph-name="uni04BA" unicode="&#x4ba;" horiz-adv-x="685" 
d="M218 504h158q110 0 179 -63t69 -159v-282h-150v276q0 48 -32 75.5t-78 27.5h-145v-379h-151v729h150v-225z" />
    <glyph glyph-name="uni04BB" unicode="&#x4bb;" horiz-adv-x="578" 
d="M518 0h-140v194q0 35 -21 52.5t-57 17.5h-100v-264h-140v540h140v-163h98q92 0 156 -44.5t64 -137.5v-195z" />
    <glyph glyph-name="uni04BC" unicode="&#x4bc;" horiz-adv-x="957" 
d="M442 469h332q-7 70 -49 108t-112 38q-65 0 -109 -38t-62 -108zM279 363q-134 1 -194 59.5t-60 148.5q0 83 40 128.5t113 45.5q61 0 97.5 -34t41.5 -93h-80q-8 32 -21.5 45.5t-38.5 13.5q-38 0 -52 -28q-16 -30 -16 -78t18 -75t51 -27h111q26 128 110 200t210 72
q142 0 226.5 -96t84.5 -282h-491q0 -124 49.5 -191t139.5 -67q81 0 123 53q21 26 33 78h143q-7 -88 -49 -144q-87 -115 -255 -115q-154 0 -244 103t-90 280v3z" />
    <glyph glyph-name="uni04BD" unicode="&#x4bd;" horiz-adv-x="716" 
d="M347 356h196q-12 43 -34 61.5t-61 18.5q-62 0 -87 -46q-9 -18 -14 -34zM194 260q-86 1 -130 51t-44 112q0 55 27 85.5t75 30.5q41 0 66 -22t28 -62h-54q-8 39 -40 39q-24 0 -35 -18q-11 -20 -11 -53q0 -31 12.5 -49t33.5 -18h82q21 93 84.5 143t160.5 50q101 0 163.5 -56
t69.5 -155v-78h-348q0 -81 30 -125.5t84 -44.5q41 0 64 22.5t36 74.5h134q-10 -97 -73.5 -153.5t-161.5 -56.5q-120 0 -186.5 74t-66.5 208v1z" />
    <glyph glyph-name="uni04BE" unicode="&#x4be;" horiz-adv-x="957" 
d="M442 469h332q-7 70 -49 108t-112 38q-65 0 -109 -38t-62 -108zM657 -21q79 -46 79 -118q0 -44 -38.5 -69.5t-105.5 -25.5q-40 0 -79 10v47q27 -6 57 -6q76 0 76 50q0 33 -16.5 57.5t-60.5 54.5q-135 15 -212.5 116t-77.5 265v3q-134 1 -194 59.5t-60 148.5q0 83 40 128.5
t113 45.5q61 0 97.5 -34t41.5 -93h-80q-8 32 -21.5 45.5t-38.5 13.5q-38 0 -52 -28q-16 -30 -16 -78t18 -75t51 -27h111q26 128 110 200t210 72q142 0 226.5 -96t84.5 -282h-491q0 -124 49.5 -191t139.5 -67q81 0 123 53q21 26 33 78h143q-7 -88 -49 -144q-73 -98 -211 -113
z" />
    <glyph glyph-name="uni04BF" unicode="&#x4bf;" horiz-adv-x="716" 
d="M347 356h196q-12 43 -34 61.5t-61 18.5q-62 0 -87 -46q-9 -18 -14 -34zM398 -19q-98 14 -151 86.5t-53 191.5v1q-86 1 -130 51t-44 112q0 55 27 85.5t75 30.5q41 0 66 -22t28 -62h-54q-8 39 -40 39q-24 0 -35 -18q-11 -20 -11 -53q0 -31 12.5 -49t33.5 -18h82
q21 93 84.5 143t160.5 50q101 0 163.5 -56t69.5 -155v-78h-348q0 -81 30 -125.5t84 -44.5q41 0 64 22.5t36 74.5h134q-9 -86 -61 -141t-134 -66q80 -48 80 -119q0 -44 -38.5 -69.5t-105.5 -25.5q-40 0 -79 10v47q27 -6 57 -6q76 0 76 50q0 33 -17 58t-62 56z" />
    <glyph glyph-name="uni04C0" unicode="&#x4c0;" horiz-adv-x="278" 
d="M213 729v-729h-150v729h150z" />
    <glyph glyph-name="uni04C1" unicode="&#x4c1;" horiz-adv-x="1093" 
d="M682 944v-11q0 -56 -38 -94t-94 -38t-94 38t-38 95v10h56q9 -66 77 -66q64 0 75 66h56zM475 285l-269 -285h-184l357 378l-313 351h164l245 -279v279h150v-279l245 279h164l-313 -351l357 -378h-184l-269 285v-285h-150v285z" />
    <glyph glyph-name="uni04C2" unicode="&#x4c2;" horiz-adv-x="809" 
d="M534 752v-11q0 -56 -38 -94t-94 -38t-94 38t-38 95v10h56q9 -66 77 -66q64 0 75 66h56zM332 198l-137 -198h-179l213 296l-177 244h148l132 -189v189h140v-189l132 189h148l-177 -244l213 -296h-179l-137 198v-198h-140v198z" />
    <glyph glyph-name="uni04C3" unicode="&#x4c3;" horiz-adv-x="750" 
d="M384 378q110 0 179 -63t69 -159v-106q0 -96 -69 -159t-179 -63h-37v125h25q46 0 78 27.5t32 75.5v94q0 48 -32 75.5t-78 27.5h-140v-253h-150v729h150v-279l285 279h177l-366 -351h56z" />
    <glyph glyph-name="uni04C4" unicode="&#x4c4;" horiz-adv-x="573" 
d="M315 297q82 0 129 -48.5t47 -138.5v-111q0 -90 -47 -138.5t-129 -48.5h-50v119q86 0 86 100v47q0 100 -86 100h-65v-178h-140v540h140v-189l162 189h148l-214 -244z" />
    <glyph glyph-name="uni04C7" unicode="&#x4c7;" horiz-adv-x="722" 
d="M507 56v275h-289v-331h-150v729h150v-273h288v273h151v-679q0 -96 -69 -159t-179 -63h-37v125h25q46 0 78 27.5t32 75.5z" />
    <glyph glyph-name="uni04C8" unicode="&#x4c8;" horiz-adv-x="608" 
d="M403 32v175h-203v-207h-140v540h140v-220h203v220h140v-540q0 -90 -47 -138.5t-129 -48.5h-50v119q86 0 86 100z" />
    <glyph glyph-name="uni04CB" unicode="&#x4cb;" horiz-adv-x="685" 
d="M494 0v-150h-130v258h110v117h-158q-110 0 -179 63t-69 159v282h150v-276q0 -48 32 -75.5t78 -27.5h145v379h151v-729h-130z" />
    <glyph glyph-name="uni04CC" unicode="&#x4cc;" horiz-adv-x="578" 
d="M402 0v-125h-110v226h86v62h-98q-92 0 -156 44.5t-64 137.5v195h140v-194q0 -35 21 -52.5t57 -17.5h100v264h140v-540h-116z" />
    <glyph glyph-name="uni04D0" unicode="&#x4d0;" horiz-adv-x="722" 
d="M500 944v-11q0 -56 -38 -94t-94 -38t-94 38t-38 95v10h56q9 -66 77 -66q64 0 75 66h56zM502 147h-274l-49 -147h-153l259 729h166l252 -729h-151zM460 272l-95 285l-95 -285h190z" />
    <glyph glyph-name="uni04D1" unicode="&#x4d1;" 
d="M403 752v-11q0 -56 -38 -94t-94 -38t-94 38t-38 95v10h56q9 -66 77 -66q64 0 75 66h56zM524 17v-17h-152q-16 20 -16 54q-74 -77 -164 -77q-77 0 -126 51q-38 41 -38 111q0 141 159 170l56 10q73 13 88 21q24 13 24 42q0 54 -81 54q-52 0 -73 -16t-26 -58h-135
q13 187 231 187q221 0 221 -166v-300q0 -37 32 -66zM355 217v38q-19 -9 -59 -17l-48 -9q-42 -8 -61 -25.5t-19 -48.5q0 -30 20.5 -47.5t55.5 -17.5q53 0 82 33t29 94z" />
    <glyph glyph-name="uni04D2" unicode="&#x4d2;" horiz-adv-x="722" 
d="M330 923v-122h-110v122h110zM516 923v-122h-110v122h110zM502 147h-274l-49 -147h-153l259 729h166l252 -729h-151zM460 272l-95 285l-95 -285h190z" />
    <glyph glyph-name="uni04D3" unicode="&#x4d3;" 
d="M233 731v-122h-110v122h110zM419 731v-122h-110v122h110zM524 17v-17h-152q-16 20 -16 54q-74 -77 -164 -77q-77 0 -126 51q-38 41 -38 111q0 141 159 170l56 10q73 13 88 21q24 13 24 42q0 54 -81 54q-52 0 -73 -16t-26 -58h-135q13 187 231 187q221 0 221 -166v-300
q0 -37 32 -66zM355 217v38q-19 -9 -59 -17l-48 -9q-42 -8 -61 -25.5t-19 -48.5q0 -30 20.5 -47.5t55.5 -17.5q53 0 82 33t29 94z" />
    <glyph glyph-name="uni04D4" unicode="&#x4d4;" horiz-adv-x="1000" 
d="M430 152h-223l-53 -152h-153l263 729h682v-125h-366v-165h339v-125h-339v-189h386v-125h-536v152zM430 277v327h-67l-114 -327h181z" />
    <glyph glyph-name="uni04D5" unicode="&#x4d5;" horiz-adv-x="889" 
d="M712 152h138q-23 -80 -91 -127.5t-159 -47.5q-136 0 -200 104q-89 -105 -205 -105q-77 0 -122.5 44.5t-45.5 120.5q0 145 159 171l56 10q69 11 88 21q24 13 24 40q0 53 -85 53q-47 0 -68.5 -16.5t-26.5 -57.5h-131q3 187 228 187q117 0 175 -50q62 50 155 50
q84 0 145.5 -41.5t89.5 -115.5q21 -60 21 -142q0 -12 -1 -24h-362q0 -62 20 -93q32 -49 94 -49q36 0 65.5 19.5t38.5 48.5zM354 216v38q-22 -13 -59 -19l-48 -7q-80 -11 -80 -73q0 -31 20.5 -48.5t55.5 -17.5q54 0 82.5 32.5t28.5 94.5zM495 319h216q-11 123 -109 123
t-107 -123z" />
    <glyph glyph-name="uni04D6" unicode="&#x4d6;" horiz-adv-x="709" 
d="M478 944v-11q0 -56 -38 -94t-94 -38q-57 0 -94.5 38t-37.5 95v10h56q9 -66 76 -66q65 0 76 66h56zM232 314v-189h395v-125h-545v729h527v-125h-377v-165h349v-125h-349z" />
    <glyph glyph-name="uni04D7" unicode="&#x4d7;" 
d="M404 752v-11q0 -56 -38 -94t-94 -38t-94 38t-38 95v10h56q9 -66 77 -66q64 0 75 66h56zM524 226h-362q3 -68 20 -95q31 -47 92 -47q80 0 107 68h138q-23 -80 -91 -127.5t-159 -47.5q-115 0 -181 74.5t-66 204.5q0 136 67 214.5t183 78.5q82 0 143.5 -41.5t88.5 -115.5
q21 -61 21 -142q0 -12 -1 -24zM164 319h215q-4 50 -22 78q-32 45 -87 45q-92 0 -106 -123z" />
    <glyph glyph-name="uni04D8" unicode="&#x4d8;" horiz-adv-x="722" 
d="M522 249h-332q7 -70 49 -108t112 -38q65 0 109 38t62 108zM535 355q0 124 -49.5 191t-139.5 67q-81 0 -123 -53q-21 -26 -33 -78h-143q7 88 49 144q87 115 255 115q154 0 244 -103t90 -280q0 -176 -89 -278.5t-241 -102.5q-142 0 -226.5 96t-84.5 282h491z" />
    <glyph glyph-name="afii10846" unicode="&#x4d9;" 
d="M382 266v1q0 79 -30.5 124t-83.5 45q-41 0 -64 -22.5t-36 -74.5h-134q10 97 73.5 153.5t161.5 56.5q120 0 186.5 -74t66.5 -208q0 -138 -67 -214t-188 -76q-101 0 -163.5 56t-69.5 155v78h348zM369 170h-196q12 -43 34 -61.5t61 -18.5q62 0 87 46q9 18 14 34z" />
    <glyph glyph-name="uni04DA" unicode="&#x4da;" horiz-adv-x="722" 
d="M313 923v-122h-110v122h110zM499 923v-122h-110v122h110zM522 249h-332q7 -70 49 -108t112 -38q65 0 109 38t62 108zM535 355q0 124 -49.5 191t-139.5 67q-81 0 -123 -53q-21 -26 -33 -78h-143q7 88 49 144q87 115 255 115q154 0 244 -103t90 -280q0 -176 -89 -278.5
t-241 -102.5q-142 0 -226.5 96t-84.5 282h491z" />
    <glyph glyph-name="uni04DB" unicode="&#x4db;" 
d="M231 731v-122h-110v122h110zM417 731v-122h-110v122h110zM382 266v1q0 79 -30.5 124t-83.5 45q-41 0 -64 -22.5t-36 -74.5h-134q10 97 73.5 153.5t161.5 56.5q120 0 186.5 -74t66.5 -208q0 -138 -67 -214t-188 -76q-101 0 -163.5 56t-69.5 155v78h348zM369 170h-196
q12 -43 34 -61.5t61 -18.5q62 0 87 46q9 18 14 34z" />
    <glyph glyph-name="uni04DC" unicode="&#x4dc;" horiz-adv-x="1093" 
d="M512 923v-122h-110v122h110zM698 923v-122h-110v122h110zM475 285l-269 -285h-184l357 378l-313 351h164l245 -279v279h150v-279l245 279h164l-313 -351l357 -378h-184l-269 285v-285h-150v285z" />
    <glyph glyph-name="uni04DD" unicode="&#x4dd;" horiz-adv-x="809" 
d="M364 731v-122h-110v122h110zM550 731v-122h-110v122h110zM332 198l-137 -198h-179l213 296l-177 244h148l132 -189v189h140v-189l132 189h148l-177 -244l213 -296h-179l-137 198v-198h-140v198z" />
    <glyph glyph-name="uni04DE" unicode="&#x4de;" horiz-adv-x="672" 
d="M293 923v-122h-110v122h110zM479 923v-122h-110v122h110zM250 428h76q138 0 138 103q0 41 -34 65.5t-92 24.5q-145 0 -153 -114h-140q0 94 51 151q75 83 235 83q131 0 203.5 -58.5t72.5 -165.5q0 -93 -63 -140q89 -49 89 -164q0 -111 -79 -173.5t-220 -62.5
q-140 0 -217.5 62t-84.5 179h146q4 -59 46 -90t118 -31q68 0 107.5 26t39.5 72q0 49 -33 81t-104 32h-102v120z" />
    <glyph glyph-name="uni04DF" unicode="&#x4df;" horiz-adv-x="546" 
d="M245 731v-122h-110v122h110zM431 731v-122h-110v122h110zM206 208v110h94q12 0 21.5 1.5t16 5t11.5 6.5t8 9.5t5 10t2.5 10.5t0.5 9.5v10.5v8q0 23 -22 36.5t-59 13.5q-100 0 -101 -73h-135q2 86 64 134.5t171 48.5q103 0 162.5 -48.5t59.5 -131.5q0 -55 -30 -88
q-2 -2 -7.5 -5.5t-6.5 -4.5q59 -37 59 -111q0 -84 -64 -135q-60 -48 -172 -48q-249 0 -255 180h137q8 -37 27 -51q29 -19 83 -19q49 0 76.5 14t27.5 39q0 13 -1.5 20.5t-8 21t-25 20t-47.5 6.5h-92z" />
    <glyph glyph-name="uni04E0" unicode="&#x4e0;" horiz-adv-x="672" 
 />
    <glyph glyph-name="uni04E1" unicode="&#x4e1;" horiz-adv-x="546" 
d="M206 208v110h84q22 0 38 12t23 30.5t10 35t3 31.5h-266v113h416q0 -234 -53 -269q59 -37 59 -111q0 -84 -64 -135q-60 -48 -172 -48q-249 0 -255 180h137q8 -37 27 -51q29 -19 83 -19q49 0 76.5 14t27.5 39q0 13 -1.5 20.5t-8 21t-25 20t-47.5 6.5h-92z" />
    <glyph glyph-name="uni04E2" unicode="&#x4e2;" horiz-adv-x="757" 
d="M528 880v-79h-299v79h299zM232 0h-150v729h150v-496l289 496h154v-729h-150v504z" />
    <glyph glyph-name="uni04E3" unicode="&#x4e3;" horiz-adv-x="615" 
d="M457 688v-79h-299v79h299zM60 540h140v-338l195 338h160v-540h-140v338l-195 -338h-160v540z" />
    <glyph glyph-name="uni04E4" unicode="&#x4e4;" horiz-adv-x="757" 
d="M340 923v-122h-110v122h110zM526 923v-122h-110v122h110zM232 0h-150v729h150v-496l289 496h154v-729h-150v504z" />
    <glyph glyph-name="uni04E5" unicode="&#x4e5;" horiz-adv-x="615" 
d="M270 731v-122h-110v122h110zM456 731v-122h-110v122h110zM60 540h140v-338l195 338h160v-540h-140v338l-195 -338h-160v540z" />
    <glyph glyph-name="uni04E6" unicode="&#x4e6;" horiz-adv-x="778" 
d="M352 923v-122h-110v122h110zM538 923v-122h-110v122h110zM390 741q156 0 250 -101q102 -110 102 -286q0 -77 -27.5 -151.5t-74.5 -124.5q-94 -101 -249 -101t-249 101q-49 52 -75.5 125.5t-26.5 155.5q0 171 102 281q93 101 248 101zM391 613q-91 0 -146 -69.5
t-55 -184.5t55 -184.5t146 -69.5q90 0 145.5 69t55.5 181q0 118 -54.5 188t-146.5 70z" />
    <glyph glyph-name="uni04E7" unicode="&#x4e7;" horiz-adv-x="611" 
d="M263 731v-122h-110v122h110zM449 731v-122h-110v122h110zM301 549q127 0 197.5 -76.5t70.5 -213.5q0 -130 -72 -206t-195 -76q-125 0 -196 76.5t-71 209.5t71 209.5t195 76.5zM302 436q-57 0 -92 -48t-35 -125t35 -125t92 -48q56 0 91.5 47.5t35.5 123.5
q0 80 -34.5 127.5t-92.5 47.5z" />
    <glyph glyph-name="uni04E8" unicode="&#x4e8;" horiz-adv-x="778" 
d="M390 741q156 0 250 -101q102 -110 102 -286q0 -77 -27.5 -151.5t-74.5 -124.5q-94 -101 -249 -101t-249 101q-49 52 -75.5 125.5t-26.5 155.5q0 171 102 281q93 101 248 101zM590 400q-11 99 -63.5 156t-135.5 57q-82 0 -135.5 -57.5t-63.5 -155.5h398zM591 321h-399
q9 -99 62.5 -157.5t136.5 -58.5t137 59t63 157z" />
    <glyph glyph-name="uni04E9" unicode="&#x4e9;" horiz-adv-x="611" 
d="M301 549q127 0 197.5 -76.5t70.5 -213.5q0 -130 -72 -206t-195 -76q-125 0 -196 76.5t-71 209.5t71 209.5t195 76.5zM426 303q-8 62 -41.5 97.5t-82.5 35.5t-82.5 -36t-41.5 -97h248zM427 224h-249q8 -61 41.5 -97.5t82.5 -36.5q48 0 82 36.5t43 97.5z" />
    <glyph glyph-name="uni04EA" unicode="&#x4ea;" horiz-adv-x="778" 
d="M352 923v-122h-110v122h110zM538 923v-122h-110v122h110zM390 741q156 0 250 -101q102 -110 102 -286q0 -77 -27.5 -151.5t-74.5 -124.5q-94 -101 -249 -101t-249 101q-49 52 -75.5 125.5t-26.5 155.5q0 171 102 281q93 101 248 101zM590 400q-11 99 -63.5 156t-135.5 57
q-82 0 -135.5 -57.5t-63.5 -155.5h398zM591 321h-399q9 -99 62.5 -157.5t136.5 -58.5t137 59t63 157z" />
    <glyph glyph-name="uni04EB" unicode="&#x4eb;" horiz-adv-x="611" 
d="M263 731v-122h-110v122h110zM449 731v-122h-110v122h110zM301 549q127 0 197.5 -76.5t70.5 -213.5q0 -130 -72 -206t-195 -76q-125 0 -196 76.5t-71 209.5t71 209.5t195 76.5zM426 303q-8 62 -41.5 97.5t-82.5 35.5t-82.5 -36t-41.5 -97h248zM427 224h-249
q8 -61 41.5 -97.5t82.5 -36.5q48 0 82 36.5t43 97.5z" />
    <glyph glyph-name="uni04EC" unicode="&#x4ec;" horiz-adv-x="722" 
d="M313 923v-122h-110v122h110zM499 923v-122h-110v122h110zM241 311v125h291q-15 84 -64 130.5t-122 46.5q-81 0 -123 -53q-21 -26 -33 -78h-143q7 88 49 144q87 115 255 115q154 0 244 -103t90 -280q0 -176 -89 -278.5t-241 -102.5q-136 0 -220 73.5t-91 198.5h146
q7 -70 49 -108t112 -38q78 0 125.5 54.5t56.5 153.5h-292z" />
    <glyph glyph-name="uni04ED" unicode="&#x4ed;" horiz-adv-x="564" 
d="M229 731v-122h-110v122h110zM415 731v-122h-110v122h110zM203 207v113h174q-8 44 -22 70q-25 46 -87 46q-43 0 -65.5 -22.5t-34.5 -75.5h-134q7 99 69.5 155t163.5 56q121 0 188 -76t67 -214q0 -134 -66.5 -208t-186.5 -74q-98 0 -161.5 56.5t-73.5 153.5h134
q13 -52 36 -74.5t64 -22.5q43 0 72 30.5t38 86.5h-175z" />
    <glyph glyph-name="uni04EE" unicode="&#x4ee;" horiz-adv-x="718" 
d="M505 880v-79h-299v79h299zM328 0h-174l114 226l-253 503h163l172 -345l172 345h174z" />
    <glyph glyph-name="uni04EF" unicode="&#x4ef;" 
d="M423 688v-79h-299v79h299zM394 540h144l-217 -639q-16 -48 -34.5 -69t-49.5 -34q-41 -17 -101 -17q-22 0 -50 4v105q22 -6 37 -6q37 0 61 25.5t24 63.5v4v1l-199 562h154l119 -393z" />
    <glyph glyph-name="uni04F0" unicode="&#x4f0;" horiz-adv-x="718" 
d="M318 923v-122h-110v122h110zM504 923v-122h-110v122h110zM328 0h-174l114 226l-253 503h163l172 -345l172 345h174z" />
    <glyph glyph-name="uni04F1" unicode="&#x4f1;" 
d="M236 731v-122h-110v122h110zM422 731v-122h-110v122h110zM394 540h144l-217 -639q-16 -48 -34.5 -69t-49.5 -34q-41 -17 -101 -17q-22 0 -50 4v105q22 -6 37 -6q37 0 61 25.5t24 63.5v4v1l-199 562h154l119 -393z" />
    <glyph glyph-name="uni04F2" unicode="&#x4f2;" horiz-adv-x="718" 
d="M422 948l-126 -147h-70l70 147h126zM610 948l-126 -147h-70l70 147h126zM328 0h-174l114 226l-253 503h163l172 -345l172 345h174z" />
    <glyph glyph-name="uni04F3" unicode="&#x4f3;" 
d="M340 756l-126 -147h-70l70 147h126zM528 756l-126 -147h-70l70 147h126zM394 540h144l-217 -639q-16 -48 -34.5 -69t-49.5 -34q-41 -17 -101 -17q-22 0 -50 4v105q22 -6 37 -6q37 0 61 25.5t24 63.5v4v1l-199 562h154l119 -393z" />
    <glyph glyph-name="uni04F4" unicode="&#x4f4;" horiz-adv-x="685" 
d="M308 923v-122h-110v122h110zM494 923v-122h-110v122h110zM474 225h-158q-110 0 -179 63t-69 159v282h150v-276q0 -48 32 -75.5t78 -27.5h145v379h151v-729h-150v225z" />
    <glyph glyph-name="uni04F5" unicode="&#x4f5;" horiz-adv-x="578" 
d="M251 731v-122h-110v122h110zM437 731v-122h-110v122h110zM60 540h140v-194q0 -35 21 -52.5t57 -17.5h100v264h140v-540h-140v163h-98q-92 0 -156 44.5t-64 137.5v195z" />
    <glyph glyph-name="uni04F8" unicode="&#x4f8;" horiz-adv-x="949" 
d="M438 923v-122h-110v122h110zM624 923v-122h-110v122h110zM884 729v-729h-150v729h150zM218 469h187q100 0 160 -66t60 -177q0 -110 -60.5 -168t-174.5 -58h-322v729h150v-260zM218 344v-219h140q60 0 88.5 27t28.5 83q0 109 -117 109h-140z" />
    <glyph glyph-name="uni04F9" unicode="&#x4f9;" horiz-adv-x="811" 
d="M351 731v-122h-110v122h110zM537 731v-122h-110v122h110zM318 359q106 0 160 -52t54 -139q0 -34 -14.5 -72t-38.5 -57q-46 -39 -136 -39h-283v540h140v-181h118zM200 249v-139h109q84 0 84 70q0 34 -23.5 51.5t-65.5 17.5h-104zM718 540v-540h-140v540h140z" />
    <glyph glyph-name="uniF6C4" unicode="&#xf6c4;" horiz-adv-x="454" 
d="M408 540v-113h-208v-427h-140v540h348z" />
    <glyph glyph-name="uniF6C5" unicode="&#xf6c5;" horiz-adv-x="611" 
d="M498 776l104 1q0 -86 -33 -111q-41 -30 -123 -36t-123 -38q-17 -13 -17 -23q0 -7 7 -11.5t15 -5.5l7 -2q15 -1 62 -1q50 0 96 -23.5t74 -63.5q58 -84 58 -199q0 -126 -68 -206t-192 -80q-128 0 -191.5 71t-63.5 244q0 70 35.5 137t86.5 91q-58 22 -58 60q0 28 27 57.5
t55 46.5q13 8 29.5 14t39.5 10t38 6.5t44 5.5t39 4q21 3 34 16t16 24zM367 432q-52 0 -85 -47t-33 -120q0 -76 32.5 -123.5t85.5 -47.5q51 0 84 47.5t33 120.5q0 75 -32.5 122.5t-84.5 47.5z" />
    <glyph glyph-name="uniF6C6" unicode="&#xf6c6;" horiz-adv-x="685" 
d="M580 101h82v-226h-110v125h-419v-125h-110v226h62q37 1 57 87t20 200v152h418v-439zM263 113h177v314h-138v-51q0 -175 -39 -263z" />
    <glyph glyph-name="uniF6C7" unicode="&#xf6c7;" horiz-adv-x="603" 
d="M60 540h483v-540h-140v427h-203v-427h-140v540z" />
    <glyph glyph-name="uniF6C8" unicode="&#xf6c8;" horiz-adv-x="454" 
d="M431 540v-113h-135v-427h-140v427h-135v113h410z" />
    <glyph glyph-name="Ccircumflex" unicode="&#x108;" horiz-adv-x="722" 
d="M387 979h107l103 -150h-78l-82 100l-82 -100h-76zM682 482h-143q-12 52 -33 78q-42 53 -123 53q-89 0 -139 -68t-50 -189q0 -119 48.5 -186t135.5 -67q70 0 112 38t49 108h146q-7 -125 -91 -198.5t-220 -73.5q-152 0 -241 102.5t-89 278.5q0 177 90 280t244 103
q168 0 255 -115q42 -56 49 -144z" />
    <glyph glyph-name="ccircumflex" unicode="&#x109;" 
d="M244 790h107l103 -150h-78l-82 100l-82 -100h-76zM522 338h-134q-12 53 -34.5 75.5t-65.5 22.5q-62 0 -87 -46q-27 -51 -27 -131q0 -79 30.5 -124t83.5 -45q41 0 64 22.5t36 74.5h134q-10 -97 -73.5 -153.5t-161.5 -56.5q-120 0 -186.5 74t-66.5 208q0 138 67 214t188 76
q101 0 163.5 -56t69.5 -155z" />
    <glyph glyph-name="Cdotaccent" unicode="&#x10a;" horiz-adv-x="722" 
d="M493 951v-122h-110v122h110zM682 482h-143q-12 52 -33 78q-42 53 -123 53q-89 0 -139 -68t-50 -189q0 -119 48.5 -186t135.5 -67q70 0 112 38t49 108h146q-7 -125 -91 -198.5t-220 -73.5q-152 0 -241 102.5t-89 278.5q0 177 90 280t244 103q168 0 255 -115
q42 -56 49 -144z" />
    <glyph glyph-name="cdotaccent" unicode="&#x10b;" 
d="M350 762v-122h-110v122h110zM522 338h-134q-12 53 -34.5 75.5t-65.5 22.5q-62 0 -87 -46q-27 -51 -27 -131q0 -79 30.5 -124t83.5 -45q41 0 64 22.5t36 74.5h134q-10 -97 -73.5 -153.5t-161.5 -56.5q-120 0 -186.5 74t-66.5 208q0 138 67 214t188 76q101 0 163.5 -56
t69.5 -155z" />
    <glyph glyph-name="Ebreve" unicode="&#x114;" horiz-adv-x="667" 
d="M475 972v-11q0 -56 -38 -94t-94 -38t-94 38t-38 95v10h56q9 -66 77 -66q64 0 75 66h56zM229 314v-189h395v-125h-545v729h527v-125h-377v-165h349v-125h-349z" />
    <glyph glyph-name="ebreve" unicode="&#x115;" 
d="M392 783v-11q0 -56 -38 -94t-94 -38t-94 38t-38 95v10h56q9 -66 77 -66q64 0 75 66h56zM524 226h-362q3 -68 20 -95q31 -47 92 -47q80 0 107 68h138q-23 -80 -91 -127.5t-159 -47.5q-115 0 -181 74.5t-66 204.5q0 136 67 214.5t183 78.5q82 0 143.5 -41.5t88.5 -115.5
q21 -61 21 -142q0 -12 -1 -24zM164 319h215q-4 50 -22 78q-32 45 -87 45q-92 0 -106 -123z" />
    <glyph glyph-name="Gcircumflex" unicode="&#x11c;" horiz-adv-x="778" 
d="M330 979h107l103 -150h-78l-82 100l-82 -100h-76zM711 392v-394h-90l-18 96q-42 -61 -94 -89t-126 -28q-148 0 -244.5 108t-96.5 274q0 170 98 276t255 106q132 0 217 -66t99 -179h-141q-17 49 -45 73q-50 44 -129 44q-95 0 -149.5 -67t-54.5 -185q0 -112 58.5 -184
t149.5 -72q92 0 149 70q31 36 36 92h-166v125h292z" />
    <glyph glyph-name="gcircumflex" unicode="&#x11d;" horiz-adv-x="611" 
d="M306 790h107l103 -150h-78l-82 100l-82 -100h-76zM408 540h133v-558q0 -95 -67.5 -147.5t-189.5 -52.5t-186 52q-52 43 -53 101h145q17 -63 99 -63q53 0 86 30.5t33 79.5v73q-39 -44 -72.5 -61t-80.5 -17q-100 0 -160.5 77t-60.5 203q0 125 64 208.5t160 83.5
q90 0 150 -92v83zM288 432q-51 0 -82.5 -48t-31.5 -125q0 -73 31 -119t81 -46q55 0 89.5 46t34.5 119q0 75 -34.5 124t-87.5 49z" />
    <glyph glyph-name="Gdotaccent" unicode="&#x120;" horiz-adv-x="778" 
d="M436 951v-122h-110v122h110zM711 392v-394h-90l-18 96q-42 -61 -94 -89t-126 -28q-148 0 -244.5 108t-96.5 274q0 170 98 276t255 106q132 0 217 -66t99 -179h-141q-17 49 -45 73q-50 44 -129 44q-95 0 -149.5 -67t-54.5 -185q0 -112 58.5 -184t149.5 -72q92 0 149 70
q31 36 36 92h-166v125h292z" />
    <glyph glyph-name="gdotaccent" unicode="&#x121;" horiz-adv-x="611" 
d="M412 762v-122h-110v122h110zM408 540h133v-558q0 -95 -67.5 -147.5t-189.5 -52.5t-186 52q-52 43 -53 101h145q17 -63 99 -63q53 0 86 30.5t33 79.5v73q-39 -44 -72.5 -61t-80.5 -17q-100 0 -160.5 77t-60.5 203q0 125 64 208.5t160 83.5q90 0 150 -92v83zM288 432
q-51 0 -82.5 -48t-31.5 -125q0 -73 31 -119t81 -46q55 0 89.5 46t34.5 119q0 75 -34.5 124t-87.5 49z" />
    <glyph glyph-name="Hcircumflex" unicode="&#x124;" horiz-adv-x="722" 
d="M312 979h107l103 -150h-78l-82 100l-82 -100h-76zM507 331h-289v-331h-150v729h150v-273h288v273h151v-729h-150v331z" />
    <glyph glyph-name="hcircumflex" unicode="&#x125;" horiz-adv-x="611" 
d="M225 979h107l103 -150h-78l-82 100l-82 -100h-76zM67 729h140v-267q58 87 158 87q72 0 121 -41q55 -46 55 -146v-362h-140v330q0 43 -16 67q-24 33 -70 33q-47 0 -77.5 -30t-30.5 -76v-324h-140v729z" />
    <glyph glyph-name="Hbar" unicode="&#x126;" horiz-adv-x="752" 
d="M667 619h59v-79h-59v-540h-150v331h-289v-331h-150v540h-52v79h52v110h150v-110h288v110h151v-110zM516 540h-288v-84h288v84z" />
    <glyph glyph-name="hbar" unicode="&#x127;" horiz-adv-x="611" 
d="M67 669v60h140v-60h108v-79h-108v-128q58 87 158 87q72 0 121 -41q55 -46 55 -146v-362h-140v330q0 43 -16 67q-24 33 -70 33q-47 0 -77.5 -30t-30.5 -76v-324h-140v590h-51v79h51z" />
    <glyph glyph-name="Itilde" unicode="&#x128;" horiz-adv-x="278" 
d="M252 957h63q-6 -127 -95 -127q-24 0 -55 12l-71 26q-18 6 -30 6q-18 0 -27 -10.5t-13 -34.5h-63q3 58 28 91t66 33q20 0 56 -13l71 -25q14 -6 34 -6q32 0 36 48zM213 729v-729h-150v729h150z" />
    <glyph glyph-name="itilde" unicode="&#x129;" horiz-adv-x="278" 
d="M251 768h63q-6 -127 -95 -127q-23 0 -55 12l-71 26q-18 6 -30 6q-18 0 -27 -10.5t-13 -34.5h-63q3 58 28 91t66 33q20 0 56 -13l71 -25q14 -6 34 -6q31 0 36 48zM207 540v-540h-140v540h140z" />
    <glyph glyph-name="Ibreve" unicode="&#x12c;" horiz-adv-x="278" 
d="M270 972v-11q0 -56 -38 -94t-94 -38t-94 38t-38 95v10h56q9 -66 77 -66q64 0 75 66h56zM213 729v-729h-150v729h150z" />
    <glyph glyph-name="ibreve" unicode="&#x12d;" horiz-adv-x="278" 
d="M269 783v-11q0 -56 -38 -94t-94 -38t-94 38t-38 95v10h56q9 -66 77 -66q64 0 75 66h56zM207 540v-540h-140v540h140z" />
    <glyph glyph-name="IJ" unicode="&#x132;" horiz-adv-x="808" 
d="M213 729v-729h-150v729h150zM590 729h150v-539q0 -102 -61 -157.5t-173 -55.5q-103 0 -167 58q-61 57 -61 163v72h150v-70q0 -50 19 -72.5t62 -22.5q39 0 60 22t21 63v539z" />
    <glyph glyph-name="ij" unicode="&#x133;" horiz-adv-x="492" 
d="M207 540v-540h-140v540h140zM207 729v-125h-140v125h140zM418 540v-634q0 -66 -29 -95t-94 -29q-36 0 -83 5v112q13 -4 25 -4q23 0 32 9.5t9 32.5v603h140zM418 729v-125h-140v125h140z" />
    <glyph glyph-name="Jcircumflex" unicode="&#x134;" 
d="M360 979h107l103 -150h-78l-82 100l-82 -100h-76zM336 729h150v-539q0 -102 -61 -157.5t-173 -55.5q-103 0 -167 58q-61 57 -61 163v72h150v-70q0 -50 19 -72.5t62 -22.5q39 0 60 22t21 63v539z" />
    <glyph glyph-name="jcircumflex" unicode="&#x135;" horiz-adv-x="278" 
d="M210 540v-634q0 -66 -29 -95t-94 -29q-36 0 -83 5v112q13 -4 25 -4q23 0 32 9.5t9 32.5v603h140zM89 783h107l103 -150h-78l-82 100l-82 -100h-76z" />
    <glyph glyph-name="kgreenlandic" unicode="&#x138;" horiz-adv-x="573" 
d="M199 351l162 189h148l-214 -244l253 -296h-182l-167 198v-198h-140v540h140v-189z" />
    <glyph glyph-name="Ldot" unicode="&#x13f;" horiz-adv-x="611" 
d="M336 442h124v-123h-124v123zM230 729v-604h349v-125h-499v729h150z" />
    <glyph glyph-name="ldot" unicode="&#x140;" 
d="M207 729v-729h-140v729h140zM320 428h124v-123h-124v123z" />
    <glyph glyph-name="napostrophe" unicode="&#x149;" horiz-adv-x="611" 
d="M66 849h135v-109q0 -79 -45 -117q-37 -31 -90 -34v46q83 15 80 89h-80v125zM63 540h140v-78q58 87 162 87q86 0 133.5 -49t47.5 -138v-362h-140v333q0 97 -90 97q-51 0 -82 -29t-31 -77v-324h-140v540z" />
    <glyph glyph-name="Eng" unicode="&#x14a;" horiz-adv-x="722" 
d="M495 28l-277 476v-504h-150v729h154l289 -496v496h150v-679q0 -96 -69 -159t-179 -63h-37v125h25q37 0 67 20t30 42q0 5 -3 13z" />
    <glyph glyph-name="eng" unicode="&#x14b;" horiz-adv-x="611" 
d="M406 32v301q0 97 -90 97q-51 0 -82 -29t-31 -77v-324h-140v540h140v-78q58 87 162 87q86 0 133.5 -49t47.5 -138v-362q0 -90 -47 -138.5t-129 -48.5h-50v119q86 0 86 100z" />
    <glyph glyph-name="Obreve" unicode="&#x14e;" horiz-adv-x="778" 
d="M523 972v-11q0 -56 -38 -94t-94 -38t-94 38t-38 95v10h56q9 -66 77 -66q64 0 75 66h56zM390 741q156 0 250 -101q102 -110 102 -286q0 -77 -27.5 -151.5t-74.5 -124.5q-94 -101 -249 -101t-249 101q-49 52 -75.5 125.5t-26.5 155.5q0 171 102 281q93 101 248 101z
M391 613q-91 0 -146 -69.5t-55 -184.5t55 -184.5t146 -69.5q90 0 145.5 69t55.5 181q0 118 -54.5 188t-146.5 70z" />
    <glyph glyph-name="obreve" unicode="&#x14f;" horiz-adv-x="611" 
d="M434 783v-11q0 -56 -38 -94t-94 -38t-94 38t-38 95v10h56q9 -66 77 -66q64 0 75 66h56zM301 549q127 0 197.5 -76.5t70.5 -213.5q0 -130 -72 -206t-195 -76q-125 0 -196 76.5t-71 209.5t71 209.5t195 76.5zM302 436q-57 0 -92 -48t-35 -125t35 -125t92 -48
q56 0 91.5 47.5t35.5 123.5q0 80 -34.5 127.5t-92.5 47.5z" />
    <glyph glyph-name="Scircumflex" unicode="&#x15c;" horiz-adv-x="667" 
d="M346 979h107l103 -150h-78l-82 100l-82 -100h-76zM607 507h-140q-8 114 -153 114q-58 0 -92 -24.5t-34 -65.5q0 -40 29 -59.5t109 -35.5l114 -22q101 -20 147 -67.5t46 -133.5q0 -111 -79 -173.5t-220 -62.5q-140 0 -217.5 62t-84.5 179h146q4 -59 46 -90t118 -31
q68 0 107.5 26t39.5 72q0 44 -31 68t-106 38l-102 20q-111 21 -158 66t-47 130q0 107 72.5 165.5t203.5 58.5q160 0 235 -83q51 -57 51 -151z" />
    <glyph glyph-name="scircumflex" unicode="&#x15d;" 
d="M228 790h107l103 -150h-78l-82 100l-82 -100h-76zM505 366h-135q-1 73 -101 73q-37 0 -59 -13.5t-22 -36.5q0 -16 10 -24.5t39 -17.5l177 -51q106 -31 106 -136q0 -84 -64 -135q-60 -48 -172 -48q-249 0 -255 180h137q8 -37 27 -51q29 -19 83 -19q49 0 76.5 14t27.5 39
q0 16 -10.5 26t-36.5 18l-167 52q-64 21 -88 45q-30 33 -30 88q0 83 59.5 131.5t162.5 48.5q109 0 171 -48.5t64 -134.5z" />
    <glyph glyph-name="Tbar" unicode="&#x166;" horiz-adv-x="611" 
d="M235 406v198h-221v125h584v-125h-213v-198h72v-79h-72v-327h-150v327h-77v79h77z" />
    <glyph glyph-name="tbar" unicode="&#x167;" horiz-adv-x="333" 
d="M83 347v89h-69v93h69v145h140v-145h78v-93h-78v-89h79v-79h-79v-126q0 -36 9 -47.5t37 -11.5q11 0 32 3v-98q-34 -11 -81 -11q-137 0 -137 127v164h-69v79h69z" />
    <glyph glyph-name="Utilde" unicode="&#x168;" horiz-adv-x="722" 
d="M479 957h63q-6 -127 -95 -127q-23 0 -55 12l-71 26q-18 6 -30 6q-18 0 -27 -10.5t-13 -34.5h-63q3 58 28 91t66 33q20 0 56 -13l71 -25q14 -6 34 -6q31 0 36 48zM504 729h150v-494q0 -120 -71 -184q-82 -74 -218 -74t-218 74q-71 64 -71 184v494h150v-494
q0 -130 139 -130t139 130v494z" />
    <glyph glyph-name="utilde" unicode="&#x169;" horiz-adv-x="611" 
d="M413 768h63q-6 -127 -95 -127q-23 0 -55 12l-71 26q-18 6 -30 6q-18 0 -27 -10.5t-13 -34.5h-63q3 58 28 91t66 33q20 0 56 -13l71 -25q14 -6 34 -6q31 0 36 48zM541 0h-140v64q-58 -87 -162 -87q-86 0 -133.5 49t-47.5 138v376h140v-347q0 -97 90 -97q51 0 82 29t31 77
v338h140v-540z" />
    <glyph glyph-name="Ubreve" unicode="&#x16c;" horiz-adv-x="722" 
d="M497 972v-11q0 -56 -38 -94t-94 -38t-94 38t-38 95v10h56q9 -66 77 -66q64 0 75 66h56zM504 729h150v-494q0 -120 -71 -184q-82 -74 -218 -74t-218 74q-71 64 -71 184v494h150v-494q0 -130 139 -130t139 130v494z" />
    <glyph glyph-name="ubreve" unicode="&#x16d;" horiz-adv-x="611" 
d="M432 783v-11q0 -56 -38 -94t-94 -38t-94 38t-38 95v10h56q9 -66 77 -66q64 0 75 66h56zM541 0h-140v64q-58 -87 -162 -87q-86 0 -133.5 49t-47.5 138v376h140v-347q0 -97 90 -97q51 0 82 29t31 77v338h140v-540z" />
    <glyph glyph-name="Wcircumflex" unicode="&#x174;" horiz-adv-x="944" 
d="M421 979h107l103 -150h-78l-82 100l-82 -100h-76zM730 0h-135l-122 569l-119 -569h-135l-206 729h159l113 -546l113 546h148l118 -547l109 547h159z" />
    <glyph glyph-name="wcircumflex" unicode="&#x175;" horiz-adv-x="778" 
d="M335 790h107l103 -150h-78l-82 100l-82 -100h-76zM613 0h-145l-81 381l-86 -381h-144l-152 540h145l86 -378l82 378h140l81 -378l82 378h145z" />
    <glyph glyph-name="Ycircumflex" unicode="&#x176;" horiz-adv-x="667" 
d="M287 979h107l103 -150h-78l-82 100l-82 -100h-76zM419 270v-270h-150v270l-242 459h167l149 -322l139 322h168z" />
    <glyph glyph-name="ycircumflex" unicode="&#x177;" 
d="M223 790h107l103 -150h-78l-82 100l-82 -100h-76zM394 540h144l-222 -639q-17 -48 -33.5 -69.5t-45.5 -33.5q-41 -17 -101 -17q-22 0 -50 4v105q22 -6 37 -6q37 0 62 26t25 64v3v1l-201 562h154l119 -393z" />
    <glyph glyph-name="longs" unicode="&#x17f;" horiz-adv-x="333" 
d="M230 0h-140v436h-76v93h76v65q0 135 138 135q41 0 80 -3v-105q-18 3 -40 3q-38 0 -38 -42v-582z" />
    <glyph glyph-name="afii61352" unicode="&#x2116;" horiz-adv-x="1082" 
d="M1026 291v-64h-303v64h303zM875 686q62 0 106.5 -44.5t44.5 -106.5q0 -64 -44.5 -108t-108.5 -44q-61 0 -105.5 45t-44.5 107t44.5 106.5t107.5 44.5zM875 623q-37 0 -63 -26t-26 -63q0 -35 26 -61.5t61 -26.5q38 0 64 26t26 63q0 36 -26 62t-62 26zM511 0l-293 504v-504
h-150v729h154l289 -496v496h150v-729h-150z" />
    <glyph glyph-name="one_eight_f" unicode="&#xe18f;" horiz-adv-x="852" 
d="M388 338q21 0 36 -14.5t15 -36.5q0 -21 -15 -35.5t-36 -14.5t-36 14.5t-15 35.5q0 22 15 36.5t36 14.5zM790 741q12 0 12 -12v-728q0 -5 -3.5 -8.5t-8.5 -3.5h-728q-12 0 -12 12v728q0 12 12 12h728zM261 479q0 5 -4 5h-66q-4 0 -4 -5v-25q0 -4 4 -4h35v-239q0 -4 4 -4
h27q4 0 4 4v268zM388 202q35 0 60 25t25 60q0 22 -9.5 40t-26.5 29q26 24 26 57q0 31 -22 52.5t-53 21.5q-32 0 -53.5 -21.5t-21.5 -52.5q0 -16 7 -30.5t19 -26.5q-17 -11 -26.5 -29t-9.5 -40q0 -35 24.5 -60t60.5 -25zM627 479q0 5 -4 5h-104q-4 0 -4 -5v-268q0 -4 4 -4h26
q5 0 5 4v122h60q4 0 4 4v25q0 5 -4 5h-60v83h73q4 0 4 4v25zM388 373q-17 0 -29 11.5t-12 28.5t12 29t29 12t29 -12t12 -29t-12 -28.5t-29 -11.5z" />
    <glyph glyph-name="infinity" unicode="&#x221e;" horiz-adv-x="871" 
d="M438 486q32 59 74 82.5t108 23.5q101 0 164 -65.5t63 -175.5q0 -111 -62.5 -176.5t-164.5 -65.5q-66 0 -108 23.5t-74 82.5q-32 -59 -74 -82.5t-108 -23.5q-101 0 -164 65.5t-63 175.5q0 111 62.5 176.5t164.5 65.5q66 0 108 -23.5t74 -82.5zM392 351q0 49 -36.5 80
t-91.5 31q-53 0 -84 -30t-31 -81t31 -81.5t82 -30.5q57 0 93.5 30.5t36.5 81.5zM484 350q0 -49 36.5 -80t91.5 -31q53 0 84 30t31 81t-31 81.5t-82 30.5q-57 0 -93.5 -30.5t-36.5 -81.5z" />
    </font>
</defs>
</svg>
