<?xml version="1.0" standalone="no"?>
<!DOCTYPE svg PUBLIC "-//W3C//DTD SVG 1.1//EN" "http://www.w3.org/Graphics/SVG/1.1/DTD/svg11.dtd" >
<svg xmlns="http://www.w3.org/2000/svg">
<metadata></metadata>
<defs>
<font id="nimbus_sans_lregular" horiz-adv-x="1138" >
<font-face units-per-em="2048" ascent="1638" descent="-410" />
<missing-glyph horiz-adv-x="569" />
<glyph unicode="TM" horiz-adv-x="2048" d="M129 1380v113h768v-113h-313v-782h-140v782h-315zM1004 598v895h192l270 -741l269 741h186v-895h-137v698l-252 -698h-143l-248 698v-698h-137z" />
<glyph unicode="&#xfb01;" horiz-adv-x="1024" d="M25 934v139h143v182q0 115 66.5 179.5t185.5 64.5q47 0 96 -10v-141q-39 2 -59 2q-119 0 -119 -109v-168h178v-139h-178v-934h-170v934h-143zM723 0v1073h170v-1073h-170zM723 1278v215h170v-215h-170z" />
<glyph unicode="&#xfb02;" horiz-adv-x="1024" d="M35 934v139h143v182q0 115 66.5 179.5t185.5 64.5q47 0 96 -10v-141q-39 2 -59 2q-119 0 -119 -109v-168h178v-139h-178v-934h-170v934h-143zM711 0v1493h170v-1493h-170z" />
<glyph horiz-adv-x="0" />
<glyph unicode="&#xd;" horiz-adv-x="681" />
<glyph unicode=" "  horiz-adv-x="569" />
<glyph unicode="&#x09;" horiz-adv-x="569" />
<glyph unicode="&#xa0;" horiz-adv-x="569" />
<glyph unicode="!" horiz-adv-x="569" d="M254 0v213h172v-213h-172zM256 801v692h170v-692l-45 -457h-80z" />
<glyph unicode="&#x22;" horiz-adv-x="727" d="M106 1225v227h191v-227l-55 -275h-80zM434 1225v227h191v-227l-56 -275h-80z" />
<glyph unicode="#" d="M29 391v139h233l64 357h-222v139h248l74 401h156l-74 -401h256l72 401h157l-73 -401h190v-139h-217l-64 -357h215v-139h-239l-80 -432h-156l78 432h-254l-80 -432h-155l78 432h-207zM418 530h256l63 357h-254z" />
<glyph unicode="$" d="M68 426h161q14 -160 52 -215q72 -98 217 -117v557q-190 57 -258 107q-145 104 -146 299q0 174 103.5 279.5t300.5 129.5v111h120v-111q186 -14 292 -121.5t106 -281.5h-162q-2 113 -67.5 184.5t-168.5 75.5v-510q207 -63 269 -98q174 -98 174 -316q0 -121 -50 -220 t-139 -154q-100 -59 -254 -72v-211h-120v211q-217 14 -329 137t-101 336zM260 1077q0 -185 238 -248v492q-115 -16 -176.5 -79.5t-61.5 -164.5zM618 94q125 14 189 76q86 82 86 205q0 100 -58.5 155.5t-216.5 102.5v-539z" />
<glyph unicode="%" horiz-adv-x="1820" d="M59 1052.5q0 143.5 103 247t246 103.5q147 0 248.5 -102.5t101.5 -251.5q0 -141 -102.5 -244t-246 -103t-247 103.5t-103.5 247zM201 1053q0 -84 61.5 -145.5t147.5 -61.5q84 0 145 60.5t61 144.5q0 88 -60 148.5t-148 60.5q-84 0 -145.5 -60.5t-61.5 -146.5zM438 -41 l809 1493h135l-809 -1493h-135zM1061 311.5q0 143.5 102.5 245.5t245.5 102q147 0 248.5 -102t101.5 -250q0 -141 -103.5 -243.5t-244.5 -102.5q-145 0 -247.5 103.5t-102.5 247zM1202 311q0 -86 61.5 -146.5t147.5 -60.5q84 0 145.5 60.5t61.5 142.5q0 88 -60.5 148.5 t-148.5 60.5q-84 0 -145.5 -60.5t-61.5 -144.5z" />
<glyph unicode="&#x26;" horiz-adv-x="1366" d="M106 360q0 139 71 232.5t261 204.5q-96 121 -131 191.5t-35 141.5q0 135 102.5 228.5t248 93.5t239.5 -90t94 -232q0 -111 -61 -188.5t-221 -167.5l272 -334q68 117 64 244h164q0 -193 -119 -375l250 -309h-224l-127 160q-100 -98 -157 -133q-115 -74 -271 -74 q-188 0 -304 111.5t-116 295.5zM279 375q0 -109 78.5 -185.5t189.5 -76.5q149 0 309 168l-328 409q-139 -88 -194 -158.5t-55 -156.5zM440 1133q0 -55 26 -99.5t118 -150.5q121 76 166 129t45 123q0 76 -50.5 125t-128.5 49q-80 0 -128 -48.5t-48 -127.5z" />
<glyph unicode="'" horiz-adv-x="391" d="M98 1225v227h193v-227l-55 -275h-82z" />
<glyph unicode="(" horiz-adv-x="681" d="M150 530.5q0 241.5 89.5 501.5t243.5 461h113q-281 -453 -281 -963q0 -508 281 -964h-113q-154 201 -243.5 462t-89.5 502.5z" />
<glyph unicode=")" horiz-adv-x="681" d="M78 -434q281 453 280 962q0 508 -280 965h112q154 -201 244 -462t90 -502.5t-90 -501.5t-244 -461h-112z" />
<glyph unicode="*" horiz-adv-x="796" d="M82 1221l39 120l217 -77l-10 229h129l-11 -229l218 77l38 -120l-221 -62l144 -182l-105 -74l-127 191l-129 -191l-102 74l141 182z" />
<glyph unicode="+" horiz-adv-x="1196" d="M102 403v144h424v424h144v-424h424v-144h-424v-423h-144v423h-424z" />
<glyph unicode="," horiz-adv-x="569" d="M178 0v213h215v-246q0 -268 -215 -268v78q72 2 97.5 41t25.5 145v37h-123z" />
<glyph unicode="-" horiz-adv-x="681" d="M94 492v147h488v-147h-488z" />
<glyph unicode="." horiz-adv-x="569" d="M178 0v213h213v-213h-213z" />
<glyph unicode="/" horiz-adv-x="569" d="M-16 -41l485 1534h113l-486 -1534h-112z" />
<glyph unicode="0" d="M88 702q0 399 141 590q121 160 334 160q215 0 334 -160q141 -193 141 -602q0 -358 -121.5 -547.5t-353.5 -189.5q-233 0 -354 191.5t-121 557.5zM272 700q0 -598 287 -598q152 0 223.5 147.5t71.5 457.5q0 585 -291 585t-291 -592z" />
<glyph unicode="1" d="M209 1034v129q209 27 272.5 74t110.5 215h119v-1452h-181v1034h-321z" />
<glyph unicode="2" d="M70 0q12 240 96 370t311 259l189 106q197 113 196 287q0 117 -82 194.5t-205 77.5q-82 0 -148.5 -37.5t-101 -103.5t-42.5 -205h-181q6 205 78 316q123 188 402 188q203 0 329 -115q135 -123 136 -311q0 -270 -308 -438l-204 -111q-133 -78 -190.5 -143.5t-72.5 -155.5 h764v-178h-966z" />
<glyph unicode="3" d="M66 422h180q10 -158 83.5 -233.5t221.5 -75.5q141 0 221 76.5t80 213.5q0 264 -301 265l-76 -2h-22v153q172 2 239 31q117 47 117 197q0 115 -68.5 181t-187.5 66q-84 0 -148.5 -34.5t-95 -94t-33.5 -182.5h-180q10 469 455 469q207 0 324.5 -106.5t117.5 -292.5 q0 -221 -202 -301q131 -45 188 -126t57 -220q0 -207 -134 -330t-357 -123q-303 0 -416 211q-53 98 -63 258z" />
<glyph unicode="4" d="M57 348v191l660 913h133v-942h215v-162h-215v-348h-180v348h-613zM215 510h455v635z" />
<glyph unicode="5" d="M72 356h180q63 -244 297 -243q147 0 232 90t85 246q0 162 -86 255t-231 93q-84 0 -143.5 -30t-122.5 -105h-166l108 790h750v-178h-604l-58 -406q121 88 269 88q209 0 339 -134t130 -349q0 -229 -139.5 -374.5t-358.5 -145.5q-123 0 -227.5 46t-165.5 128q-55 68 -88 229 z" />
<glyph unicode="6" d="M88 662q0 379 131 583q66 96 168 151.5t221 55.5q166 0 275.5 -100.5t136.5 -278.5h-180q-23 104 -86.5 161.5t-157.5 57.5q-156 0 -239 -142t-85 -409q119 162 334 162q195 0 320 -129t125 -332q0 -213 -134.5 -351t-341.5 -138q-244 0 -364 180q-123 184 -123 529z M283 438q0 -139 84 -232t211 -93q125 0 206.5 89t81.5 226q0 145 -75.5 230t-206.5 85q-133 0 -217 -85t-84 -220z" />
<glyph unicode="7" d="M94 1274v178h971v-152q-246 -328 -388 -640t-202 -660h-192q82 358 208.5 630.5t387.5 643.5h-785z" />
<glyph unicode="8" d="M76 403q0 242 248 361q-111 70 -154 135.5t-43 165.5q0 170 122 278.5t314.5 108.5t314 -108.5t121.5 -278.5q0 -102 -42.5 -167.5t-155.5 -133.5q250 -119 250 -363q0 -199 -136.5 -323.5t-351.5 -124.5t-351 126t-136 324zM260 399q0 -127 83 -206.5t216 -79.5 q137 0 222 78.5t85 207.5q0 127 -84 206t-219 79t-219 -79t-84 -206zM311 1063q0 -102 69 -164.5t183 -62.5q113 0 182.5 61t69.5 164q0 106 -68.5 168.5t-183 62.5t-183.5 -62.5t-69 -166.5z" />
<glyph unicode="9" d="M78 963q0 213 134 351t341 138q244 0 367 -180q123 -184 122 -529q0 -379 -133 -583q-63 -96 -166.5 -151.5t-222.5 -55.5q-166 0 -275 100.5t-136 278.5h180q23 -104 86 -161.5t157 -57.5q156 0 239 142t85 409q-135 -162 -331.5 -162t-321.5 129t-125 332zM262 977 q0 -145 76 -230t207 -85t216 86t85 219q0 141 -84 234t-211 93q-125 0 -207 -90t-82 -227z" />
<glyph unicode=":" horiz-adv-x="569" d="M225 0v213h213v-213h-213zM225 860v213h213v-213h-213z" />
<glyph unicode=";" horiz-adv-x="569" d="M225 0v213h215v-246q0 -268 -215 -268v78q72 2 97.5 41t25.5 145v37h-123zM227 860v213h213v-213h-213z" />
<glyph unicode="&#x3c;" horiz-adv-x="1196" d="M92 406v141l1002 424v-162l-807 -330l807 -336v-161z" />
<glyph unicode="=" horiz-adv-x="1196" d="M102 227v144h992v-144h-992zM102 580v143h992v-143h-992z" />
<glyph unicode="&#x3e;" horiz-adv-x="1196" d="M102 -18v161l807 330l-807 336v162l1002 -424v-141z" />
<glyph unicode="?" d="M158 1038q0 236 113.5 358t334.5 122q199 0 317.5 -106.5t118.5 -287.5q0 -102 -45 -182t-159 -184q-104 -96 -133 -141.5t-29 -112.5v-96h-184v112q0 102 57 178q27 35 46 54.5t110 101.5q154 137 153 270q0 104 -71.5 169t-190.5 65q-168 0 -229 -119q-35 -70 -35 -201 h-174zM492 0v213h184v-213h-184z" />
<glyph unicode="@" horiz-adv-x="2078" d="M70 528q0 201 86 394.5t237 330.5q135 123 317.5 194t364.5 71q358 0 615.5 -225.5t257.5 -536.5q0 -252 -176 -457q-156 -182 -381 -182q-197 0 -226 157q-135 -147 -291 -147q-143 0 -238 107.5t-95 267.5q0 223 159.5 395t366.5 172q172 0 250 -178l45 135h170 l-184 -573q-25 -72 -25 -103q0 -37 30.5 -63.5t71.5 -26.5q131 0 237.5 145.5t106.5 325.5q0 256 -214 442.5t-506 186.5q-324 0 -564.5 -239.5t-240.5 -561.5q0 -293 221 -492.5t547 -199.5q162 0 395 65l57 -137q-229 -86 -463 -86q-254 0 -469 109.5t-338.5 298 t-123.5 411.5zM725 500q0 -100 59.5 -171t143.5 -71q119 0 209 133q39 57 73.5 166t36.5 184q4 84 -51 140.5t-141 56.5q-129 0 -229.5 -133t-100.5 -305z" />
<glyph unicode="A" horiz-adv-x="1366" d="M35 0l532 1493h246l524 -1493h-213l-153 449h-576l-157 -449h-203zM442 608h476l-230 680z" />
<glyph unicode="B" horiz-adv-x="1366" d="M162 0v1493h606q211 0 324 -104q119 -106 118 -275q0 -229 -206 -326q143 -55 207.5 -141t64.5 -221q0 -180 -115 -301q-117 -125 -325 -125h-674zM352 168h465q133 0 199 72q70 74 69 184q0 113 -69 186q-66 72 -199 72h-465v-514zM352 850h369q147 0 217 53 q82 63 82 184t-82 185q-70 53 -217 53h-369v-475z" />
<glyph unicode="C" horiz-adv-x="1478" d="M98 729q0 375 209 602q168 186 473 187q488 -1 576 -488h-195q-31 154 -108 225q-100 94 -295 95q-217 0 -343 -166t-126 -453q0 -281 131 -445.5t354 -164.5q121 0 212 50t136 142q45 86 68 232h196q-68 -592 -614 -592q-289 0 -457 174q-217 223 -217 602z" />
<glyph unicode="D" horiz-adv-x="1478" d="M182 0v1493h576q285 0 446.5 -198.5t161.5 -547t-163 -548t-445 -199.5h-576zM373 168h352q221 0 336 147.5t115 429.5q0 285 -115 432.5t-336 147.5h-352v-1157z" />
<glyph unicode="E" horiz-adv-x="1366" d="M184 0v1493h1035v-168h-844v-477h813v-168h-813v-512h880v-168h-1071z" />
<glyph unicode="F" horiz-adv-x="1251" d="M184 0v1493h1002v-168h-811v-477h712v-168h-712v-680h-191z" />
<glyph unicode="G" horiz-adv-x="1593" d="M90 731q0 201 70.5 368t199.5 275q174 143 447 144q256 0 421 -125t204 -353h-195q-31 143 -146.5 226.5t-285.5 83.5q-238 0 -381 -167t-143 -442q0 -139 42 -264t115 -205q138 -151 374 -151h3q205 0 337 129t132 330v41h-455v167h623v-796h-121l-47 198 q-212 -237 -508 -237h-2q-303 0 -493.5 217t-190.5 561z" />
<glyph unicode="H" horiz-adv-x="1478" d="M170 0v1493h190v-645h768v645h191v-1493h-191v680h-766v-680h-192z" />
<glyph unicode="I" horiz-adv-x="569" d="M205 0v1493h192v-1493h-192z" />
<glyph unicode="J" horiz-adv-x="1024" d="M35 348v131h194v-96q0 -131 57.5 -200.5t166.5 -69.5q123 0 182 92q47 70 47 237v1051h190v-1120q0 -195 -113.5 -307.5t-307.5 -112.5q-193 0 -304.5 106.5t-111.5 288.5z" />
<glyph unicode="K" horiz-adv-x="1366" d="M162 0v1493h190v-756l744 756h245l-608 -608l615 -885h-226l-526 766l-244 -244v-522h-190z" />
<glyph unicode="L" d="M164 0v1493h190v-1325h738v-168h-928z" />
<glyph unicode="M" horiz-adv-x="1705" d="M154 0v1493h264l442 -1300l434 1300h265v-1493h-181v1251l-420 -1251h-200l-424 1251v-1251h-180z" />
<glyph unicode="N" horiz-adv-x="1478" d="M156 0v1493h206l781 -1221v1221h180v-1493h-215l-772 1210v-1210h-180z" />
<glyph unicode="O" horiz-adv-x="1593" d="M78 735q0 350 198.5 566.5t520.5 216.5q328 0 525.5 -217.5t197.5 -577.5q0 -184 -69 -347t-189 -265q-186 -158 -463 -158q-324 0 -522.5 216t-198.5 566zM268 735.5q0 -276.5 146.5 -445.5t384 -169t384 168t146.5 438q0 283 -145 453t-387 170q-238 0 -383.5 -169 t-145.5 -445.5z" />
<glyph unicode="P" horiz-adv-x="1366" d="M186 0v1493h617q221 0 341 -113.5t120 -324.5q0 -199 -129 -316q-119 -106 -289 -106h-469v-633h-191zM377 801h397q137 0 214 69.5t77 192.5t-77 192.5t-214 69.5h-397v-524z" />
<glyph unicode="Q" horiz-adv-x="1593" d="M78 735q0 350 198.5 566.5t522.5 216.5q322 0 521.5 -215.5t199.5 -563.5q0 -352 -211 -583l192 -158l-96 -119l-215 178q-176 -104 -391 -104q-324 0 -522.5 216t-198.5 566zM268 735.5q0 -276.5 145.5 -445.5t383.5 -169q123 0 245 57l-151 127l94 115l182 -150 q162 182 162 467q0 274 -146.5 443.5t-384 169.5t-384 -169t-146.5 -445.5z" />
<glyph unicode="R" horiz-adv-x="1478" d="M190 0v1493h689q219 0 336.5 -103.5t117.5 -295.5q0 -127 -55 -211t-180 -146q121 -53 160.5 -129t41.5 -260q4 -150 20.5 -207t70.5 -94v-47h-232q-43 98 -43 244l2 133q0 137 -59.5 201.5t-186.5 64.5h-491v-643h-191zM381 811h461q152 0 222.5 61.5t70.5 194.5 q0 135 -78 201q-66 57 -215 57h-461v-514z" />
<glyph unicode="S" horiz-adv-x="1366" d="M98 475h181v-7q0 -129 77 -222q104 -125 344 -125q182 0 275 63q47 35 76.5 91.5t29.5 115.5q0 170 -274 242l-371 98q-293 76 -293 348q0 203 142.5 321t388.5 118q258 0 401.5 -122t145.5 -341h-181q-2 145 -98 224t-274 79q-152 0 -243 -69.5t-91 -182.5 q0 -86 55 -135t191 -86l374 -101q152 -41 235 -139t83 -235q0 -96 -44 -189.5t-120 -152.5q-150 -115 -420 -115q-346 0 -502 213q-86 117 -88 309z" />
<glyph unicode="T" horiz-adv-x="1251" d="M43 1325v168h1171v-168h-489v-1325h-190v1325h-492z" />
<glyph unicode="U" horiz-adv-x="1478" d="M174 444v1049h191v-1049q0 -162 108 -245q109 -78 272 -78q180 0 282.5 86t102.5 237v1049h191v-1049q0 -225 -156.5 -358t-419.5 -133q-266 0 -418.5 132t-152.5 359z" />
<glyph unicode="V" horiz-adv-x="1366" d="M61 1493h205l439 -1264l413 1264h203l-518 -1493h-205z" />
<glyph unicode="W" horiz-adv-x="1933" d="M45 1493h213l281 -1212l331 1212h205l340 -1212l275 1212h213l-379 -1493h-209l-344 1227l-334 -1227h-209z" />
<glyph unicode="X" horiz-adv-x="1366" d="M45 0l528 766l-495 727h231l383 -586l385 586h228l-504 -727l528 -766h-235l-408 623l-410 -623h-231z" />
<glyph unicode="Y" horiz-adv-x="1366" d="M27 1493h235l438 -727l426 727h228l-561 -907v-586h-191v586z" />
<glyph unicode="Z" horiz-adv-x="1251" d="M57 0v168l897 1157h-839v168h1075v-172l-893 -1153h897v-168h-1137z" />
<glyph unicode="[" horiz-adv-x="569" d="M131 -434v1927h381v-147h-211v-1633h211v-147h-381z" />
<glyph unicode="\" horiz-adv-x="569" d="M-16 1493h112l486 -1534h-113z" />
<glyph unicode="]" horiz-adv-x="569" d="M47 -287h211v1633h-211v147h381v-1927h-381v147z" />
<glyph unicode="^" horiz-adv-x="960" d="M90 674l313 778h150l317 -778h-141l-250 614l-248 -614h-141z" />
<glyph unicode="_" d="M-45 -258h1229v-102h-1229v102z" />
<glyph unicode="`" horiz-adv-x="681" d="M45 1516h231l197 -304h-123z" />
<glyph unicode="a" d="M86 270q0 209 188 287q51 20 108.5 31.5t235.5 34.5q100 12 139.5 38.5t39.5 79.5v45q0 78 -62.5 119t-177.5 41q-119 0 -180.5 -46t-71.5 -144h-172q6 147 74 223q113 125 356 125q199 0 301.5 -75t102.5 -218v-631q0 -84 92 -84q19 0 37 4v-129q-72 -18 -117 -18 q-82 0 -124 38t-52 120q-172 -158 -365 -158q-162 0 -257 86t-95 231zM264 274q0 -82 55.5 -127t155.5 -45q147 0 254 97q68 61 68 139v192q-68 -31 -275 -59q-137 -20 -197.5 -66.5t-60.5 -130.5z" />
<glyph unicode="b" d="M111 0v1493h170v-565q117 176 331 176q213 0 336 -151.5t123 -411.5q0 -266 -127 -427t-340 -161q-219 0 -340 184v-137h-153zM281 528.5q0 -188.5 81.5 -302t217.5 -113.5q139 0 226 113.5t87 295.5q0 193 -85 307.5t-228 114.5q-135 0 -217 -113.5t-82 -302z" />
<glyph unicode="c" horiz-adv-x="1024" d="M63 518q0 266 130.5 426t347.5 160q236 0 352 -160q60 -88 72 -231h-172q-16 113 -82 173t-172 60q-139 0 -218 -113.5t-79 -314.5q0 -190 79.5 -298.5t221.5 -108.5q219 0 262 258h172q-16 -197 -131 -306.5t-307 -109.5q-219 0 -347.5 152.5t-128.5 412.5z" />
<glyph unicode="d" d="M53 539q0 256 126 410.5t335 154.5q221 0 330 -166v555h170v-1493h-152v141q-70 -100 -150.5 -144t-191.5 -44q-217 0 -342 156.5t-125 429.5zM231 528q0 -188 86 -301.5t228 -113.5q135 0 217 112.5t82 298.5q0 193 -82 306.5t-219 113.5q-139 0 -225.5 -114.5 t-86.5 -301.5z" />
<glyph unicode="e" d="M82 522q0 264 134 423t357 159q152 0 267.5 -76t167.5 -207q43 -113 43 -342h-791q2 -147 57 -229q88 -139 258 -139q209 0 281 215h172q-33 -176 -153.5 -274.5t-305.5 -98.5q-225 0 -356 152.5t-131 416.5zM264 618h602q2 4 2 13q0 133 -86 224t-211 91 q-129 0 -213 -89t-94 -239z" />
<glyph unicode="f" horiz-adv-x="569" d="M37 934v139h143v182q0 115 66.5 179.5t185.5 64.5q47 0 96 -10v-141q-39 2 -59 2q-119 0 -119 -109v-168h178v-139h-178v-934h-170v934h-143z" />
<glyph unicode="g" d="M59 518q0 262 126 424t331 162q201 0 328 -186v155h157v-897q0 -190 -25.5 -301t-86.5 -184q-51 -63 -148.5 -100t-218.5 -37q-188 0 -300.5 86t-127.5 237h174q12 -82 66 -123q74 -57 194 -57q166 0 238 100q61 84 61 293v55q-72 -102 -148.5 -147t-176.5 -45 q-180 0 -307 143q-135 158 -136 422zM238 528q0 -195 79.5 -306t219.5 -111q135 0 212.5 109.5t77.5 301.5q0 201 -76.5 312.5t-215.5 111.5q-137 0 -217 -112.5t-80 -305.5z" />
<glyph unicode="h" d="M143 0v1493h170v-567q76 98 153 138t191 40q156 0 247 -79t91 -214v-811h-170v743q0 113 -69 162q-66 49 -152 49q-131 0 -211 -99t-80 -263v-592h-170z" />
<glyph unicode="i" horiz-adv-x="454" d="M135 1278v215h172v-215h-172zM137 0v1073h170v-1073h-170z" />
<glyph unicode="j" horiz-adv-x="454" d="M-37 -295q35 -2 41 -2q78 0 108.5 30.5t30.5 110.5v1229h170v-1296q0 -223 -293 -223q-27 0 -57 6v145zM143 1278v215h170v-215h-170z" />
<glyph unicode="k" horiz-adv-x="1024" d="M119 0v1493h170v-875l454 455h220l-373 -371l438 -702h-211l-362 582l-166 -164v-418h-170z" />
<glyph unicode="l" horiz-adv-x="454" d="M139 0v1493h172v-1493h-172z" />
<glyph unicode="m" horiz-adv-x="1705" d="M143 0v1073h158v-151q70 96 146.5 139t183.5 43q199 0 289 -164q76 90 149.5 127t179.5 37q150 0 231 -77t81 -222v-805h-172v739q0 102 -52.5 158.5t-146.5 56.5q-104 0 -178 -81.5t-74 -198.5v-674h-172v739q0 102 -52 158.5t-147 56.5q-104 0 -178 -81.5t-74 -198.5 v-674h-172z" />
<glyph unicode="n" d="M143 0v1073h158v-180q72 113 155 162t201 49q156 0 248 -80t92 -213v-811h-170v743q0 96 -59 153.5t-162 57.5q-131 0 -211 -99t-80 -263v-592h-172z" />
<glyph unicode="o" d="M74 528.5q0 270.5 129 423t354 152.5q231 0 359 -152.5t128 -431.5q0 -264 -130 -415.5t-355 -151.5q-229 0 -357 152.5t-128 423zM252 528.5q0 -194.5 82 -306t225 -111.5q141 0 224 111.5t83 299.5q0 199 -81 311.5t-226 112.5q-143 0 -225 -111.5t-82 -306z" />
<glyph unicode="p" d="M111 -446v1519h157v-162q121 193 342 193q213 0 337 -158t124 -428q0 -256 -126 -410.5t-333 -154.5q-199 0 -329 160v-559h-172zM283 528.5q0 -188.5 81.5 -302t217.5 -113.5q139 0 225 113.5t86 295.5q0 193 -85 307.5t-226 114.5q-135 0 -217 -113.5t-82 -302z" />
<glyph unicode="q" d="M53 516q0 266 127 427t340 161q219 0 342 -174v143h152v-1519h-170v569q-117 -170 -332 -170q-213 0 -336 151.5t-123 411.5zM231 528q0 -188 86 -301.5t228 -113.5q135 0 217 112.5t82 296.5q0 193 -81 307.5t-218 114.5q-141 0 -227.5 -114.5t-86.5 -301.5z" />
<glyph unicode="r" horiz-adv-x="681" d="M141 0v1073h158v-194q74 121 142.5 173t150.5 52q23 0 65 -6v-174q-154 -2 -223 -54q-121 -88 -121 -313v-557h-172z" />
<glyph unicode="s" horiz-adv-x="1024" d="M70 319h180q12 -96 49 -137q67 -71 209 -71h4q113 0 181.5 46t68.5 122q0 59 -39 94t-127 55l-160 39q-190 45 -265 113.5t-75 195.5q0 150 113 239t299 89t286.5 -86t102.5 -244h-180q-6 172 -215 172q-104 0 -166 -44t-62 -118q0 -57 47.5 -93t151.5 -60l164 -39 q160 -39 231.5 -109.5t71.5 -189.5q0 -156 -120 -248t-322 -92q-416 0 -428 366z" />
<glyph unicode="t" horiz-adv-x="569" d="M29 934v139h145v295h170v-295h176v-139h-176v-735q0 -57 19.5 -77t74.5 -20q51 0 82 9v-144q-80 -14 -139 -14q-100 0 -153.5 44t-53.5 126v811h-145z" />
<glyph unicode="u" d="M133 246v827h170v-760q0 -96 59.5 -153.5t161.5 -57.5q133 0 213 99.5t80 263.5v608h170v-1073h-153v150q-76 -106 -158 -151.5t-201 -45.5q-156 0 -249 80t-93 213z" />
<glyph unicode="v" horiz-adv-x="1024" d="M20 1073h193l287 -870l303 870h192l-411 -1073h-187z" />
<glyph unicode="w" horiz-adv-x="1478" d="M12 1073h189l219 -835l205 835h209l210 -835l213 835h193l-315 -1073h-195l-217 842l-207 -842h-192z" />
<glyph unicode="x" horiz-adv-x="1024" d="M35 0l379 547l-359 526h195l258 -389l258 389h192l-360 -518l371 -555h-199l-268 412l-273 -412h-194z" />
<glyph unicode="y" horiz-adv-x="1024" d="M41 1073h182l275 -835l297 835h184l-477 -1298q-45 -117 -117 -170q-70 -51 -160 -51q-63 0 -114 26v154q55 -12 90 -13q53 0 84.5 24t52.5 81l65 170z" />
<glyph unicode="z" horiz-adv-x="1024" d="M63 0v154l642 770h-599v149h801v-151l-637 -772h666v-150h-873z" />
<glyph unicode="{" horiz-adv-x="684" d="M88 459v141q90 18 125 78.5t35 204.5v342q0 127 58.5 197.5t164.5 70.5h94v-133h-30q-76 0 -102.5 -28.5t-26.5 -108.5v-371q0 -141 -37 -213t-131 -109q168 -78 168 -323v-371q0 -80 26.5 -108.5t102.5 -28.5h30v-133h-94q-106 0 -164.5 70.5t-58.5 197.5v342 q0 141 -35 202.5t-125 80.5z" />
<glyph unicode="|" horiz-adv-x="532" d="M205 -434v1927h123v-1927h-123z" />
<glyph unicode="}" horiz-adv-x="684" d="M59 -301h33q76 0 103.5 28.5t27.5 108.5v371q0 246 168 321q-168 78 -168 324v371q0 80 -27.5 108.5t-103.5 28.5h-33v133h97q106 0 165.5 -70.5t59.5 -197.5v-342q0 -141 34 -203t122 -80v-141q-88 -18 -122 -80t-34 -203v-342q0 -127 -59.5 -197.5t-165.5 -70.5h-97 v133z" />
<glyph unicode="~" horiz-adv-x="1196" d="M154 600q8 143 64 220t157 77q55 0 110 -33l240 -141q57 -35 102 -35q57 0 82 36t23 118h108v-33q0 -119 -58 -189.5t-157 -70.5q-80 0 -166 53l-200 129q-47 29 -88 29q-59 0 -92 -72q-10 -29 -17 -88h-108z" />
<glyph unicode="&#xa1;" horiz-adv-x="681" d="M248 860v213h172v-213h-172zM250 272l45 457h80l45 -457v-692h-170v692z" />
<glyph unicode="&#xa2;" d="M106 518q0 250 120 405.5t327 178.5v184h86v-182q180 -12 281.5 -113.5t111.5 -277.5h-172q-10 102 -68.5 163.5t-152.5 69.5v-837q197 23 233 260h172q-10 -184 -118.5 -296t-286.5 -120v-199h-86v201q-207 18 -327 168.5t-120 394.5zM285 518q0 -174 70.5 -279.5 t197.5 -125.5v831q-268 -49 -268 -426z" />
<glyph unicode="&#xa3;" d="M53 657v113h166q-70 117 -89 167t-19 118q0 186 140 312t347 126q131 0 234.5 -53.5t158.5 -149.5q55 -94 58 -272h-181q-8 315 -278 315q-131 0 -210 -71.5t-79 -190.5q0 -57 15.5 -100t72.5 -144q8 -8 33 -57h328v-113h-279q31 -88 31 -145q0 -80 -52.5 -164 t-189.5 -223q121 80 250 80q72 0 168 -31q113 -33 162 -33q82 0 170 62l86 -135q-117 -115 -269 -115q-94 0 -299 72q-68 23 -135 22q-109 0 -223 -76l-98 135q141 121 198.5 209t57.5 183q0 78 -49 159h-226z" />
<glyph unicode="&#xa4;" d="M137 1020l115 108l113 -112q90 53 198 53q119 0 201 -57l121 108l116 -119l-112 -112q53 -84 53 -191q0 -102 -59 -198l110 -111l-119 -110l-108 108q-82 -61 -205 -61q-109 0 -192 51l-105 -105l-114 117l98 100q-66 88 -66 209q0 117 66 209zM344 696 q0 -88 64.5 -150.5t154.5 -62.5q88 0 152.5 62.5t64.5 148.5q0 90 -63.5 153.5t-155.5 63.5q-90 0 -153.5 -63.5t-63.5 -151.5z" />
<glyph unicode="&#xa5;" d="M23 1452h174l378 -659l367 659h174l-411 -727h309v-104h-348v-158h348v-105h-348v-358h-181v358h-352v105h352v158h-352v104h309z" />
<glyph unicode="&#xa6;" horiz-adv-x="532" d="M205 387h123v-821h-123v821zM205 672v821h123v-821h-123z" />
<glyph unicode="&#xa7;" d="M88 639q0 102 51 175t164 132q-90 104 -90 209q0 141 109.5 239.5t269.5 98.5t259 -100.5t99 -262.5v-40v-17h-172v19v34q0 96 -54 152.5t-144 56.5q-78 0 -130.5 -49t-52.5 -125q0 -45 26 -79.5t91 -77.5l299 -193q125 -80 174 -155.5t49 -186.5q0 -236 -223 -319 q61 -70 85 -123.5t24 -118.5q0 -147 -110 -245.5t-273 -98.5q-129 0 -225.5 62.5t-133.5 168.5q-23 68 -22 176h174q0 -111 37 -159q59 -90 172 -91q88 0 142 49.5t54 127.5q0 102 -112 180l-349 239q-100 70 -144 146t-44 176zM250 671.5q0 -61.5 26.5 -102.5t108.5 -100 l340 -252q150 80 149 209q0 125 -149 229l-330 224q-80 -53 -112.5 -99.5t-32.5 -108z" />
<glyph unicode="&#xa8;" horiz-adv-x="681" d="M61 1253v211h213v-211h-213zM393 1253v211h213v-211h-213z" />
<glyph unicode="&#xa9;" horiz-adv-x="1509" d="M-27 737q0 324 229.5 553.5t553 229.5t553 -228.5t229.5 -552.5q0 -328 -230.5 -556t-562.5 -228q-315 0 -543.5 231.5t-228.5 550.5zM113 737q0 -268 187 -461.5t448 -193.5q272 0 461.5 191.5t189.5 465.5q0 268 -188.5 461t-455 193t-454.5 -192.5t-188 -463.5z M371 731q0 215 111.5 348t291.5 133q268 0 340 -317h-145q-27 102 -73 146t-128 44q-117 0 -186.5 -95t-69.5 -257t74 -254q33 -43 83 -68.5t99 -25.5q176 0 217 254h145q-33 -162 -83 -238q-100 -143 -279 -143q-176 0 -286.5 132t-110.5 341z" />
<glyph unicode="&#xaa;" horiz-adv-x="757" d="M76 1014q0 127 117 178q66 27 204 37q57 4 79 18.5t22 48.5v27q0 90 -138 90q-70 0 -99.5 -24.5t-39.5 -90.5h-121q6 221 265 222q250 0 249 -193v-366q0 -47 48 -48q8 1 20 7v-91q-33 -12 -66 -12q-96 0 -112 88q-100 -88 -215 -88q-98 0 -155.5 53.5t-57.5 143.5z M88 621v104h567v-104h-567zM195 1020q0 -96 116 -96q76 0 131.5 41t55.5 94v104q-29 -12 -156 -33q-80 -10 -113.5 -35.5t-33.5 -74.5z" />
<glyph unicode="&#xab;" d="M201 465v182l311 250v-170l-217 -170l217 -170v-170zM621 465v182l311 250v-170l-217 -170l217 -170v-170z" />
<glyph unicode="&#xac;" horiz-adv-x="1196" d="M82 625v143h1032v-592h-143v449h-889z" />
<glyph unicode="&#xad;" horiz-adv-x="681" d="M94 492v147h488v-147h-488z" />
<glyph unicode="&#xae;" horiz-adv-x="1509" d="M-27 737q0 324 229.5 553.5t553 229.5t553 -228.5t229.5 -552.5q0 -328 -230.5 -556t-562.5 -228q-315 0 -543.5 231.5t-228.5 550.5zM113 737q0 -268 187 -461.5t448 -193.5q272 0 461.5 191.5t189.5 465.5q0 268 -188.5 461t-455 193t-454.5 -192.5t-188 -463.5z M414 287v911h422q289 0 288 -258q0 -70 -23.5 -113t-86.5 -90q57 -37 73.5 -79t18.5 -150q2 -88 10 -119t37 -51v-51h-162q-31 72 -30 157l2 82q0 74 -31 107t-101 33h-274v-379h-143zM557 795h264q154 0 154 137q0 72 -36 104.5t-118 32.5h-264v-274z" />
<glyph unicode="&#xaf;" horiz-adv-x="681" d="M57 1292v144h561v-144h-561z" />
<glyph unicode="&#xb0;" horiz-adv-x="1241" d="M309 1096q0 127 91.5 218t220.5 91q127 0 218 -91t91 -218q0 -131 -91 -221.5t-223 -90.5q-125 0 -216 92.5t-91 219.5zM426 1096q0 -80 56.5 -137.5t133.5 -57.5q82 0 139.5 56.5t57.5 138.5q0 80 -56.5 136t-136 56t-137 -57t-57.5 -135z" />
<glyph unicode="&#xb1;" horiz-adv-x="1196" d="M102 -23v144h992v-144h-992zM102 709v143h424v424h144v-424h424v-143h-424v-424h-144v424h-424z" />
<glyph unicode="&#xb2;" horiz-adv-x="718" d="M39 582q8 150 60.5 227.5t199.5 155.5l119 63q121 66 121 162q0 66 -50.5 109.5t-123.5 43.5q-104 0 -152 -79q-20 -35 -27 -123h-127q8 311 310 311q131 0 215 -71.5t84 -186.5q0 -168 -197 -264l-129 -66q-68 -35 -99.5 -70.5t-49.5 -93.5h469v-118h-623z" />
<glyph unicode="&#xb3;" horiz-adv-x="718" d="M33 844h127q4 -94 49 -138t137 -44q86 0 135 44t49 121q0 55 -32.5 95.5t-85.5 48.5q-32 4 -136 4v104q131 0 178.5 27t47.5 98q0 66 -42 102.5t-114 36.5q-109 0 -147 -71q-18 -35 -19 -111h-129q6 291 295 291q131 0 208 -65.5t77 -180.5q0 -121 -117 -174 q145 -49 145 -205q0 -125 -87 -199.5t-230 -74.5q-147 0 -228 76t-81 215z" />
<glyph unicode="&#xb4;" horiz-adv-x="681" d="M188 1212l197 304h231l-305 -304h-123z" />
<glyph unicode="&#xb6;" horiz-adv-x="1099" d="M98 1001q0 207 133.5 349.5t325.5 142.5h512v-131h-117v-1724h-131v1724h-168v-1724h-131v892q-158 8 -256 91q-168 139 -168 380z" />
<glyph unicode="&#xb7;" horiz-adv-x="569" d="M178 618v256h254v-256h-254z" />
<glyph unicode="&#xb8;" horiz-adv-x="681" d="M80 -369l43 82l18 -8q119 -59 183 -59q47 0 78.5 26.5t31.5 65.5q0 76 -94 76q-31 0 -64 -17l-24 15l86 188h78l-47 -115q27 4 57 4q78 0 120 -35.5t42 -101.5q0 -88 -67.5 -139t-184.5 -51q-96 0 -256 69z" />
<glyph unicode="&#xb9;" horiz-adv-x="718" d="M125 1188v94l31 2q111 10 147.5 40t63.5 128h88v-870h-127v606h-203z" />
<glyph unicode="&#xba;" horiz-adv-x="747" d="M82 1169q0 166 77 258.5t214 92.5q139 0 215 -92.5t76 -264.5q0 -162 -77 -254t-214 -92t-214 92t-77 260zM104 621v104h539v-104h-539zM201 1169q0 -115 46 -180t126 -65t126 64.5t46 176.5q0 117 -45 182.5t-127 65.5q-80 0 -126 -65.5t-46 -178.5z" />
<glyph unicode="&#xbb;" d="M201 217v170l221 170l-221 170v170l315 -248v-182zM608 217v170l221 170l-221 170v170l316 -248v-182z" />
<glyph unicode="&#xbc;" horiz-adv-x="1779" d="M125 1188v94l31 2q111 10 147.5 40t63.5 128h88v-870h-127v606h-203zM391 -41l926 1493h119l-926 -1493h-119zM1090 205v121l417 544h95v-557h137v-108h-137v-205h-127v205h-385zM1210 313h265v349z" />
<glyph unicode="&#xbd;" horiz-adv-x="1779" d="M125 1188v94l31 2q111 10 147.5 40t63.5 128h88v-870h-127v606h-203zM342 -41l926 1493h118l-925 -1493h-119zM1100 0q8 150 60 227.5t200 155.5l119 63q121 66 120 162q0 66 -50 110t-124 44q-104 0 -151 -80q-20 -35 -27 -123h-127q8 311 310 311q131 0 215 -71.5 t84 -186.5q0 -168 -197 -264l-129 -65q-68 -35 -99.5 -71t-50.5 -93h469v-119h-622z" />
<glyph unicode="&#xbe;" horiz-adv-x="1779" d="M33 844h127q4 -94 49 -138t137 -44q86 0 135 44t49 121q0 55 -32.5 95.5t-85.5 48.5q-32 4 -136 4v104q131 0 178.5 27t47.5 98q0 66 -42 102.5t-114 36.5q-109 0 -147 -71q-18 -35 -19 -111h-129q6 291 295 291q131 0 208 -65.5t77 -180.5q0 -121 -117 -174 q145 -49 145 -205q0 -125 -87 -199.5t-230 -74.5q-147 0 -228 76t-81 215zM412 -41l925 1493h119l-926 -1493h-118zM1090 205v121l417 544h95v-557h137v-108h-137v-205h-127v205h-385zM1210 313h265v349z" />
<glyph unicode="&#xbf;" horiz-adv-x="1251" d="M195 -51q0 102 45 182t159 184q106 96 135 140.5t29 113.5v97h185v-113q0 -102 -58 -178q-37 -47 -158 -156q-154 -137 -153 -270q0 -104 72.5 -169t191.5 -65q168 0 229 119q35 70 35 201h174q0 -236 -113.5 -357.5t-334.5 -121.5q-201 0 -319.5 106.5t-118.5 286.5z M563 860v213h185v-213h-185z" />
<glyph unicode="&#xc0;" horiz-adv-x="1366" d="M35 0l532 1493h246l524 -1493h-213l-153 449h-576l-157 -449h-203zM391 1923h232l196 -303h-123zM442 608h476l-230 680z" />
<glyph unicode="&#xc1;" horiz-adv-x="1366" d="M35 0l532 1493h246l524 -1493h-213l-153 449h-576l-157 -449h-203zM442 608h476l-230 680zM561 1620l197 303h231l-305 -303h-123z" />
<glyph unicode="&#xc2;" horiz-adv-x="1366" d="M35 0l532 1493h246l524 -1493h-213l-153 449h-576l-157 -449h-203zM393 1618l197 307h194l197 -307h-129l-166 197l-162 -197h-131zM442 608h476l-230 680z" />
<glyph unicode="&#xc3;" horiz-adv-x="1366" d="M35 0l532 1493h246l524 -1493h-213l-153 449h-576l-157 -449h-203zM365 1665q16 100 62 155.5t114 55.5q47 0 143 -39q80 -37 129 -37q51 0 76 76h119q-31 -213 -183 -213q-43 0 -174 51q-72 27 -100 27q-47 0 -68 -76h-118zM442 608h476l-230 680z" />
<glyph unicode="&#xc4;" horiz-adv-x="1366" d="M35 0l532 1493h246l524 -1493h-213l-153 449h-576l-157 -449h-203zM414 1661v211h213v-211h-213zM442 608h476l-230 680zM745 1661v211h213v-211h-213z" />
<glyph unicode="&#xc5;" horiz-adv-x="1366" d="M35 0l532 1493h246l524 -1493h-213l-153 449h-576l-157 -449h-203zM442 608h476l-230 680zM506 1774q0 72 53 125t127 53q76 0 128 -52.5t52 -127.5q0 -74 -53 -126.5t-127 -52.5t-127 53.5t-53 127.5zM596 1774q0 -37 26.5 -64t63.5 -27t63.5 27t26.5 62 q0 39 -25.5 64.5t-64.5 25.5q-37 0 -63.5 -27t-26.5 -61z" />
<glyph unicode="&#xc6;" horiz-adv-x="2048" d="M23 0l612 1493h1274v-168h-760v-477h721v-168h-721v-512h797v-168h-988v438h-550l-175 -438h-210zM471 606h487v719h-204z" />
<glyph unicode="&#xc7;" horiz-adv-x="1478" d="M98 729q0 375 209 602q168 186 473 187q487 0 576 -488h-195q-31 154 -108 225q-100 94 -293 95q-219 0 -345 -166t-126 -453q0 -281 131 -446.5t354 -165.5q121 0 212 50t136 142q45 88 68 234h196q-67 -592 -610 -592l-26 -68q27 4 57 4q78 0 120 -35.5t42 -101.5 q0 -88 -67.5 -139t-184.5 -51q-98 0 -256 69l43 82l18 -8q117 -59 183 -59q47 0 78.5 26.5t31.5 65.5q0 76 -94 76q-31 0 -64 -17l-22 15l63 141q-115 16 -176 37.5t-129 68.5q-139 100 -217 276.5t-78 393.5z" />
<glyph unicode="&#xc8;" horiz-adv-x="1366" d="M184 0v1493h1035v-168h-844v-477h813v-168h-813v-512h880v-168h-1071zM424 1923h231l197 -303h-123z" />
<glyph unicode="&#xc9;" horiz-adv-x="1366" d="M184 0v1493h1035v-168h-844v-477h813v-168h-813v-512h880v-168h-1071zM553 1620l197 303h231l-305 -303h-123z" />
<glyph unicode="&#xca;" horiz-adv-x="1366" d="M184 0v1493h1035v-168h-844v-477h813v-168h-813v-512h880v-168h-1071zM412 1618l196 307h195l196 -307h-129l-165 197l-162 -197h-131z" />
<glyph unicode="&#xcb;" horiz-adv-x="1366" d="M184 0v1493h1035v-168h-844v-477h813v-168h-813v-512h880v-168h-1071zM432 1661v211h213v-211h-213zM764 1661v211h213v-211h-213z" />
<glyph unicode="&#xcc;" horiz-adv-x="569" d="M2 1923h231l197 -303h-123zM205 0v1493h190v-1493h-190z" />
<glyph unicode="&#xcd;" horiz-adv-x="569" d="M145 1620l197 303h231l-305 -303h-123zM205 0v1493h190v-1493h-190z" />
<glyph unicode="&#xce;" horiz-adv-x="569" d="M-2 1618l197 307h194l197 -307h-129l-166 197l-162 -197h-131zM205 0v1493h190v-1493h-190z" />
<glyph unicode="&#xcf;" horiz-adv-x="569" d="M18 1647v211h213v-211h-213zM205 0v1493h190v-1493h-190zM350 1647v211h213v-211h-213z" />
<glyph unicode="&#xd0;" horiz-adv-x="1478" d="M41 694v137h141v662h578q283 0 444.5 -198.5t161.5 -547t-162 -548t-444 -199.5h-578v694h-141zM373 168h354q219 0 334 147.5t115 432t-115 431t-334 146.5h-354v-494h350v-137h-350v-526z" />
<glyph unicode="&#xd1;" horiz-adv-x="1478" d="M156 0v1493h206l781 -1221v1221h180v-1493h-215l-772 1210v-1210h-180zM432 1665q16 100 62.5 155.5t113.5 55.5q47 0 144 -39q80 -37 129 -37q50 0 75 76h119q-31 -213 -182 -213q-43 0 -174 51q-72 27 -101 27q-47 0 -67 -76h-119z" />
<glyph unicode="&#xd2;" horiz-adv-x="1593" d="M78 735q0 350 198.5 566.5t520.5 216.5q328 0 525.5 -217.5t197.5 -577.5q0 -184 -69 -347t-189 -265q-186 -158 -463 -158q-324 0 -522.5 216t-198.5 566zM268 735.5q0 -276.5 146.5 -445.5t384 -169t384 168t146.5 438q0 283 -145 453t-387 170q-238 0 -383.5 -169 t-145.5 -445.5zM504 1923h231l197 -303h-123z" />
<glyph unicode="&#xd3;" horiz-adv-x="1593" d="M78 735q0 350 198.5 566.5t520.5 216.5q328 0 525.5 -217.5t197.5 -577.5q0 -184 -69 -347t-189 -265q-186 -158 -463 -158q-324 0 -522.5 216t-198.5 566zM268 735.5q0 -276.5 146.5 -445.5t384 -169t384 168t146.5 438q0 283 -145 453t-387 170q-238 0 -383.5 -169 t-145.5 -445.5zM659 1620l197 303h231l-305 -303h-123z" />
<glyph unicode="&#xd4;" horiz-adv-x="1593" d="M78 735q0 350 198.5 566.5t520.5 216.5q328 0 525.5 -217.5t197.5 -577.5q0 -184 -69 -347t-189 -265q-186 -158 -463 -158q-324 0 -522.5 216t-198.5 566zM268 735.5q0 -276.5 146.5 -445.5t384 -169t384 168t146.5 438q0 283 -145 453t-387 170q-238 0 -383.5 -169 t-145.5 -445.5zM506 1618l196 307h195l197 -307h-129l-166 197l-162 -197h-131z" />
<glyph unicode="&#xd5;" horiz-adv-x="1593" d="M78 735q0 350 198.5 566.5t520.5 216.5q328 0 525.5 -217.5t197.5 -577.5q0 -184 -69 -347t-189 -265q-186 -158 -463 -158q-324 0 -522.5 216t-198.5 566zM268 735.5q0 -276.5 146.5 -445.5t384 -169t384 168t146.5 438q0 283 -145 453t-387 170q-238 0 -383.5 -169 t-145.5 -445.5zM483 1665q16 100 62.5 155.5t113.5 55.5q47 0 144 -39q80 -37 129 -37q51 0 76 76h118q-31 -213 -182 -213q-43 0 -174 51q-72 27 -100 27q-47 0 -68 -76h-119z" />
<glyph unicode="&#xd6;" horiz-adv-x="1593" d="M78 735q0 350 198.5 566.5t520.5 216.5q328 0 525.5 -217.5t197.5 -577.5q0 -184 -69 -347t-189 -265q-186 -158 -463 -158q-324 0 -522.5 216t-198.5 566zM268 735.5q0 -276.5 146.5 -445.5t384 -169t384 168t146.5 438q0 283 -145 453t-387 170q-238 0 -383.5 -169 t-145.5 -445.5zM526 1661v211h213v-211h-213zM858 1661v211h213v-211h-213z" />
<glyph unicode="&#xd7;" horiz-adv-x="1196" d="M195 172l301 301l-299 299l100 100l299 -297l301 299l100 -102l-299 -299l301 -301l-102 -102l-301 301l-299 -299z" />
<glyph unicode="&#xd8;" horiz-adv-x="1593" d="M61 39l166 182q-156 217 -155 516q0 348 199.5 564.5t521.5 216.5q281 0 471 -166l178 194l82 -73l-183 -199q172 -217 172 -541q0 -348 -199.5 -564t-520.5 -216q-295 0 -494 184l-158 -172zM262 737q0 -213 94 -377l787 859q-150 131 -350 131q-238 0 -384.5 -169 t-146.5 -444zM422 272q152 -152 371 -151q238 0 384 169t146 443q0 234 -109 402z" />
<glyph unicode="&#xd9;" horiz-adv-x="1478" d="M174 444v1049h191v-1049q0 -162 108 -245q109 -78 272 -78q180 0 282.5 86t102.5 237v1049h191v-1049q0 -225 -156.5 -358t-419.5 -133q-266 0 -418.5 132t-152.5 359zM453 1923h231l197 -303h-123z" />
<glyph unicode="&#xda;" horiz-adv-x="1478" d="M174 444v1049h191v-1049q0 -162 108 -245q109 -78 272 -78q180 0 282.5 86t102.5 237v1049h191v-1049q0 -225 -156.5 -358t-419.5 -133q-266 0 -418.5 132t-152.5 359zM596 1620l197 303h231l-305 -303h-123z" />
<glyph unicode="&#xdb;" horiz-adv-x="1478" d="M174 444v1049h191v-1049q0 -162 108 -245q109 -78 272 -78q180 0 282.5 86t102.5 237v1049h191v-1049q0 -225 -156.5 -358t-419.5 -133q-266 0 -418.5 132t-152.5 359zM455 1618l196 307h195l196 -307h-129l-165 197l-162 -197h-131z" />
<glyph unicode="&#xdc;" horiz-adv-x="1478" d="M174 444v1049h191v-1049q0 -162 108 -245q109 -78 272 -78q180 0 282.5 86t102.5 237v1049h191v-1049q0 -225 -156.5 -358t-419.5 -133q-266 0 -418.5 132t-152.5 359zM475 1661v211h213v-211h-213zM807 1661v211h213v-211h-213z" />
<glyph unicode="&#xdd;" horiz-adv-x="1363" d="M27 1493h235l438 -727l426 727h228l-561 -907v-586h-191v586zM551 1620l197 303h231l-305 -303h-123z" />
<glyph unicode="&#xde;" horiz-adv-x="1363" d="M186 0v1493h191v-246h426q213 0 336 -115.5t123 -318.5q0 -186 -117 -306t-299 -120h-469v-387h-191zM377 555h397q133 0 208 69.5t75 192.5t-75 192.5t-208 69.5h-397v-524z" />
<glyph unicode="&#xdf;" horiz-adv-x="1251" d="M258 0v1102q0 184 107 278q131 113 325 113q182 0 294 -104.5t112 -272.5q0 -213 -224 -295q150 -51 218.5 -140t68.5 -232q0 -225 -124 -357.5t-335 -132.5q-43 0 -90 8v160h17h57q131 0 214 86t83 223q0 104 -49 175t-137 91q-64 13 -177 13v168h19q123 0 202 63.5 t79 163.5q0 98 -68 160.5t-174 62.5q-113 0 -180.5 -62.5t-67.5 -168.5v-1102h-170z" />
<glyph unicode="&#xe0;" d="M86 270q0 209 188 287q51 20 108.5 31.5t235.5 34.5q100 12 139.5 38.5t39.5 79.5v45q0 78 -62.5 119t-177.5 41q-119 0 -180.5 -46t-71.5 -144h-172q6 147 74 223q113 125 356 125q199 0 301.5 -75t102.5 -218v-631q0 -84 92 -84q19 0 37 4v-129q-72 -18 -117 -18 q-82 0 -124 38t-52 120q-172 -158 -365 -158q-162 0 -257 86t-95 231zM264 274q0 -82 55.5 -127t155.5 -45q147 0 254 97q68 61 68 139v192q-68 -31 -275 -59q-137 -20 -197.5 -66.5t-60.5 -130.5zM281 1516h231l197 -304h-123z" />
<glyph unicode="&#xe1;" d="M86 270q0 209 188 287q51 20 108.5 31.5t235.5 34.5q100 12 139.5 38.5t39.5 79.5v45q0 78 -62.5 119t-177.5 41q-119 0 -180.5 -46t-71.5 -144h-172q6 147 74 223q113 125 356 125q199 0 301.5 -75t102.5 -218v-631q0 -84 92 -84q19 0 37 4v-129q-72 -18 -117 -18 q-82 0 -124 38t-52 120q-172 -158 -365 -158q-162 0 -257 86t-95 231zM264 274q0 -82 55.5 -127t155.5 -45q147 0 254 97q68 61 68 139v192q-68 -31 -275 -59q-137 -20 -197.5 -66.5t-60.5 -130.5zM424 1212l197 304h231l-305 -304h-123z" />
<glyph unicode="&#xe2;" d="M86 270q0 209 188 287q51 20 108.5 31.5t235.5 34.5q100 12 139.5 38.5t39.5 79.5v45q0 78 -62.5 119t-177.5 41q-119 0 -180.5 -46t-71.5 -144h-172q6 147 74 223q113 125 356 125q199 0 301.5 -75t102.5 -218v-631q0 -84 92 -84q19 0 37 4v-129q-72 -18 -117 -18 q-82 0 -124 38t-52 120q-172 -158 -365 -158q-162 0 -257 86t-95 231zM264 274q0 -82 55.5 -127t155.5 -45q147 0 254 97q68 61 68 139v192q-68 -31 -275 -59q-137 -20 -197.5 -66.5t-60.5 -130.5zM270 1210l197 308h195l196 -308h-129l-166 197l-162 -197h-131z" />
<glyph unicode="&#xe3;" d="M86 270q0 209 188 287q51 20 108.5 31.5t235.5 34.5q100 12 139.5 38.5t39.5 79.5v45q0 78 -62.5 119t-177.5 41q-119 0 -180.5 -46t-71.5 -144h-172q6 147 74 223q113 125 356 125q199 0 301.5 -75t102.5 -218v-631q0 -84 92 -84q19 0 37 4v-129q-72 -18 -117 -18 q-82 0 -124 38t-52 120q-172 -158 -365 -158q-162 0 -257 86t-95 231zM242 1257q16 100 62 155.5t114 55.5q47 0 143 -38q80 -37 129 -37q51 -1 76 75h119q-31 -213 -183 -213q-43 0 -174 52q-72 27 -100 26q-47 0 -68 -76h-118zM264 274q0 -82 55.5 -127t155.5 -45 q147 0 254 97q68 61 68 139v192q-68 -31 -275 -59q-137 -20 -197.5 -66.5t-60.5 -130.5z" />
<glyph unicode="&#xe4;" d="M86 270q0 209 188 287q51 20 108.5 31.5t235.5 34.5q100 12 139.5 38.5t39.5 79.5v45q0 78 -62.5 119t-177.5 41q-119 0 -180.5 -46t-71.5 -144h-172q6 147 74 223q113 125 356 125q199 0 301.5 -75t102.5 -218v-631q0 -84 92 -84q19 0 37 4v-129q-72 -18 -117 -18 q-82 0 -124 38t-52 120q-172 -158 -365 -158q-162 0 -257 86t-95 231zM264 274q0 -82 55.5 -127t155.5 -45q147 0 254 97q68 61 68 139v192q-68 -31 -275 -59q-137 -20 -197.5 -66.5t-60.5 -130.5zM287 1253v211h213v-211h-213zM618 1253v211h213v-211h-213z" />
<glyph unicode="&#xe5;" d="M86 270q0 209 188 287q51 20 108.5 31.5t235.5 34.5q100 12 139.5 38.5t39.5 79.5v45q0 78 -62.5 119t-177.5 41q-119 0 -180.5 -46t-71.5 -144h-172q6 147 74 223q113 125 356 125q199 0 301.5 -75t102.5 -218v-631q0 -84 92 -84q19 0 37 4v-129q-72 -18 -117 -18 q-82 0 -124 38t-52 120q-172 -158 -365 -158q-162 0 -257 86t-95 231zM264 274q0 -82 55.5 -127t155.5 -45q147 0 254 97q68 61 68 139v192q-68 -31 -275 -59q-137 -20 -197.5 -66.5t-60.5 -130.5zM383 1366q0 72 53 125t127 53q76 0 128 -52t52 -128q0 -74 -53 -126 t-127 -52t-127 53t-53 127zM473 1366q0 -37 26.5 -63.5t63.5 -26.5t63.5 26.5t26.5 61.5q0 39 -25.5 64.5t-64.5 25.5q-37 0 -63.5 -26.5t-26.5 -61.5z" />
<glyph unicode="&#xe6;" horiz-adv-x="1820" d="M70 270q0 207 190 287q98 43 342 64q104 8 141 34.5t37 85.5v45q0 160 -241 160q-229 0 -250 -190h-172q6 147 73 223q113 125 353 125q262 0 358 -168q55 78 149.5 123t204.5 45q150 0 264.5 -76t168.5 -207q43 -113 43 -342h-791q2 -147 57 -229q88 -139 258 -139 q207 0 283 215h172q-33 -174 -153.5 -273.5t-303.5 -99.5q-119 0 -215 45t-149 125q-8 12 -33 55q-115 -119 -218 -172t-224 -53q-156 0 -250 86t-94 231zM248 274q0 -80 55 -126t150 -46q125 0 227 78q100 79 100 142v206q-68 -29 -274 -59q-139 -20 -198.5 -65.5 t-59.5 -129.5zM944 618h602q0 145 -82 236.5t-213 91.5q-129 0 -213 -89t-94 -239z" />
<glyph unicode="&#xe7;" horiz-adv-x="1024" d="M63 518q0 266 130.5 426t347.5 160q236 0 352 -160q59 -88 72 -231h-172q-16 113 -82 173t-172 60q-139 0 -218 -113.5t-79 -316.5q0 -190 79.5 -298.5t221.5 -108.5q219 0 262 260h172q-10 -193 -129 -304.5t-307 -111.5l-27 -68q29 4 57 4q76 0 119 -35.5t43 -101.5 q0 -88 -67.5 -139t-184.5 -51q-96 0 -256 67l43 84l19 -8q113 -59 182 -59q47 0 79 26.5t32 65.5q0 76 -95 76q-31 0 -63 -17l-25 15l64 145q-117 23 -191 76q-100 70 -153.5 196.5t-53.5 288.5z" />
<glyph unicode="&#xe8;" d="M82 522q0 264 134 423t357 159q152 0 267.5 -76t167.5 -207q43 -113 43 -342h-791q2 -147 57 -229q88 -139 258 -139q209 0 281 215h172q-33 -176 -153.5 -274.5t-305.5 -98.5q-225 0 -356 152.5t-131 416.5zM264 618h602q2 4 2 13q0 133 -86 224t-211 91 q-129 0 -213 -89t-94 -239zM285 1516h231l197 -304h-123z" />
<glyph unicode="&#xe9;" d="M82 522q0 264 134 423t357 159q152 0 267.5 -76t167.5 -207q43 -113 43 -342h-791q2 -147 57 -229q88 -139 258 -139q209 0 281 215h172q-33 -176 -153.5 -274.5t-305.5 -98.5q-225 0 -356 152.5t-131 416.5zM264 618h602q2 4 2 13q0 133 -86 224t-211 91 q-129 0 -213 -89t-94 -239zM434 1212l197 304h231l-305 -304h-123z" />
<glyph unicode="&#xea;" d="M82 522q0 264 134 423t357 159q152 0 267.5 -76t167.5 -207q43 -113 43 -342h-791q2 -147 57 -229q88 -139 258 -139q209 0 281 215h172q-33 -176 -153.5 -274.5t-305.5 -98.5q-225 0 -356 152.5t-131 416.5zM264 618h602q2 4 2 13q0 133 -86 224t-211 91 q-129 0 -213 -89t-94 -239zM293 1210l196 308h195l197 -308h-129l-166 197l-162 -197h-131z" />
<glyph unicode="&#xeb;" d="M82 522q0 264 134 423t357 159q152 0 267.5 -76t167.5 -207q43 -113 43 -342h-791q2 -147 57 -229q88 -139 258 -139q209 0 281 215h172q-33 -176 -153.5 -274.5t-305.5 -98.5q-225 0 -356 152.5t-131 416.5zM264 618h602q2 4 2 13q0 133 -86 224t-211 91 q-129 0 -213 -89t-94 -239zM313 1253v211h213v-211h-213zM645 1253v211h213v-211h-213z" />
<glyph unicode="&#xec;" horiz-adv-x="569" d="M-10 1516h231l197 -304h-123zM193 0v1073h169v-1073h-169z" />
<glyph unicode="&#xed;" horiz-adv-x="569" d="M133 1212l197 304h231l-305 -304h-123zM193 0v1073h169v-1073h-169z" />
<glyph unicode="&#xee;" horiz-adv-x="569" d="M-14 1210l196 308h195l196 -308h-129l-165 197l-162 -197h-131zM193 0v1073h169v-1073h-169z" />
<glyph unicode="&#xef;" horiz-adv-x="569" d="M6 1239v211h213v-211h-213zM193 0v1073h169v-1073h-169zM338 1239v211h213v-211h-213z" />
<glyph unicode="&#xf0;" d="M74 528q0 365 213 500q106 72 233 72q49 0 129 -27q-79 82 -200 182l-199 -92l-74 80l174 82q-61 47 -168 107l90 90q76 -33 228 -129l198 92l82 -76l-184 -84q197 -150 301 -307q147 -225 147 -488q0 -276 -126.5 -426.5t-358 -150.5t-358.5 150.5t-127 424.5z M252 528.5q0 -194.5 82 -306t225 -111.5q141 0 224 111.5t83 299.5q0 199 -81 311.5t-226 112.5q-143 0 -225 -111.5t-82 -306z" />
<glyph unicode="&#xf1;" d="M143 0v1073h158v-180q72 113 155 162t201 49q156 0 248 -80t92 -213v-811h-170v743q0 96 -59 153.5t-162 57.5q-131 0 -211 -99t-80 -263v-592h-172zM250 1257q16 100 62 155.5t114 55.5q47 0 143 -38q80 -37 129 -37q51 -1 76 75h119q-31 -213 -182 -213q-43 0 -174 52 q-72 27 -101 26q-47 0 -67 -76h-119z" />
<glyph unicode="&#xf2;" d="M74 528.5q0 270.5 129 423t354 152.5q231 0 359 -152.5t128 -431.5q0 -264 -130 -415.5t-355 -151.5q-229 0 -357 152.5t-128 423zM252 528.5q0 -194.5 82 -306t225 -111.5q141 0 224 111.5t83 299.5q0 199 -81 311.5t-226 112.5q-143 0 -225 -111.5t-82 -306zM270 1516 h232l196 -304h-123z" />
<glyph unicode="&#xf3;" d="M74 528.5q0 270.5 129 423t354 152.5q231 0 359 -152.5t128 -431.5q0 -264 -130 -415.5t-355 -151.5q-229 0 -357 152.5t-128 423zM252 528.5q0 -194.5 82 -306t225 -111.5q141 0 224 111.5t83 299.5q0 199 -81 311.5t-226 112.5q-143 0 -225 -111.5t-82 -306zM414 1212 l196 304h232l-305 -304h-123z" />
<glyph unicode="&#xf4;" d="M74 528.5q0 270.5 129 423t354 152.5q231 0 359 -152.5t128 -431.5q0 -264 -130 -415.5t-355 -151.5q-229 0 -357 152.5t-128 423zM252 528.5q0 -194.5 82 -306t225 -111.5q141 0 224 111.5t83 299.5q0 199 -81 311.5t-226 112.5q-143 0 -225 -111.5t-82 -306zM266 1210 l197 308h194l197 -308h-129l-166 197l-162 -197h-131z" />
<glyph unicode="&#xf5;" d="M74 528.5q0 270.5 129 423t354 152.5q231 0 359 -152.5t128 -431.5q0 -264 -130 -415.5t-355 -151.5q-229 0 -357 152.5t-128 423zM244 1257q16 100 62 155.5t114 55.5q47 0 143 -38q80 -37 129 -37q51 -1 76 75h119q-31 -213 -182 -213q-43 0 -175 52q-72 27 -100 26 q-47 0 -68 -76h-118zM252 528.5q0 -194.5 82 -306t225 -111.5q141 0 224 111.5t83 299.5q0 199 -81 311.5t-226 112.5q-143 0 -225 -111.5t-82 -306z" />
<glyph unicode="&#xf6;" d="M74 528.5q0 270.5 129 423t354 152.5q231 0 359 -152.5t128 -431.5q0 -264 -130 -415.5t-355 -151.5q-229 0 -357 152.5t-128 423zM252 528.5q0 -194.5 82 -306t225 -111.5q141 0 224 111.5t83 299.5q0 199 -81 311.5t-226 112.5q-143 0 -225 -111.5t-82 -306zM287 1253 v211h213v-211h-213zM618 1253v211h213v-211h-213z" />
<glyph unicode="&#xf7;" horiz-adv-x="1196" d="M102 412v143h992v-143h-992zM492 0v213h213v-213h-213zM492 754v213h213v-213h-213z" />
<glyph unicode="&#xf8;" horiz-adv-x="1251" d="M37 -4l135 151q-98 145 -98 381q0 270 129 423t356 153q207 0 340 -133l119 133l65 -57l-129 -146q90 -150 90 -373q0 -270 -128 -422.5t-355 -152.5q-211 0 -334 127l-125 -141zM252 528q0 -139 43 -239l489 551q-84 106 -225 106q-143 0 -225 -111.5t-82 -306.5z M342 209q88 -98 217 -98q143 0 225 111.5t82 305.5q0 136 -37 232z" />
<glyph unicode="&#xf9;" d="M133 246v827h170v-760q0 -96 59.5 -153.5t161.5 -57.5q133 0 213 99.5t80 263.5v608h170v-1073h-153v150q-76 -106 -158 -151.5t-201 -45.5q-156 0 -249 80t-93 213zM266 1516h232l196 -304h-123z" />
<glyph unicode="&#xfa;" d="M133 246v827h170v-760q0 -96 59.5 -153.5t161.5 -57.5q133 0 213 99.5t80 263.5v608h170v-1073h-153v150q-76 -106 -158 -151.5t-201 -45.5q-156 0 -249 80t-93 213zM410 1212l196 304h232l-306 -304h-122z" />
<glyph unicode="&#xfb;" d="M133 246v827h170v-760q0 -96 59.5 -153.5t161.5 -57.5q133 0 213 99.5t80 263.5v608h170v-1073h-153v150q-76 -106 -158 -151.5t-201 -45.5q-156 0 -249 80t-93 213zM268 1210l197 308h194l197 -308h-129l-166 197l-162 -197h-131z" />
<glyph unicode="&#xfc;" d="M133 246v827h170v-760q0 -96 59.5 -153.5t161.5 -57.5q133 0 213 99.5t80 263.5v608h170v-1073h-153v150q-76 -106 -158 -151.5t-201 -45.5q-156 0 -249 80t-93 213zM289 1253v211h213v-211h-213zM621 1253v211h213v-211h-213z" />
<glyph unicode="&#xfd;" horiz-adv-x="1024" d="M41 1073h182l275 -835l297 835h184l-477 -1298q-45 -117 -117 -170q-70 -51 -160 -51q-63 0 -114 26v154q55 -12 90 -13q53 0 84.5 24t52.5 81l65 170zM358 1212l197 304h231l-305 -304h-123z" />
<glyph unicode="&#xfe;" horiz-adv-x="1136" d="M111 -446v1908h170v-522q115 164 329 164q209 0 334 -160t125 -426q0 -256 -126 -410.5t-333 -154.5q-199 0 -329 160v-559h-170zM281 528.5q0 -188.5 81.5 -302t217.5 -113.5q139 0 225 113.5t86 295.5q0 193 -85 307.5t-226 114.5q-135 0 -217 -113.5t-82 -302z" />
<glyph unicode="&#xff;" horiz-adv-x="1024" d="M41 1073h182l275 -835l297 835h184l-477 -1298q-45 -117 -117 -170q-70 -51 -160 -51q-63 0 -114 26v154q55 -12 90 -13q53 0 84.5 24t52.5 81l65 170zM231 1253v211h213v-211h-213zM563 1253v211h213v-211h-213z" />
<glyph unicode="&#x152;" horiz-adv-x="2048" d="M88 729q0 422 211 629q76 76 182.5 118t218.5 42q248 0 375 -181v156h879v-168h-688v-487h671v-168h-671v-502h698v-168h-889v152q-137 -193 -377 -193q-268 0 -432 188q-178 205 -178 582zM279 737q0 -295 104 -450q111 -160 315 -160q256 0 377 246v731 q-121 246 -375 246q-207 0 -317 -160q-104 -158 -104 -453z" />
<glyph unicode="&#x153;" horiz-adv-x="1933" d="M82 530q0 274 127 424t358 150q276 0 402 -217q63 102 166.5 159.5t228.5 57.5q152 0 267.5 -76t166.5 -207q43 -113 43 -342h-790q2 -147 57 -229q88 -139 258 -139q209 0 281 215h172q-33 -176 -154 -274.5t-303 -98.5q-270 0 -397 211q-129 -211 -398 -211 q-231 0 -358 150.5t-127 426.5zM260 530q0 -197 82 -308t225 -111q141 0 224 110.5t83 302.5q0 199 -81.5 310.5t-225 111.5t-225.5 -111.5t-82 -304.5zM1055 618h602q0 145 -82 236.5t-213 91.5q-129 0 -213 -89t-94 -239z" />
<glyph unicode="&#x178;" horiz-adv-x="1366" d="M27 1493h235l438 -727l426 727h228l-561 -907v-586h-191v586zM426 1661v211h213v-211h-213zM758 1661v211h213v-211h-213z" />
<glyph unicode="&#x2c6;" horiz-adv-x="681" d="M41 1210l197 308h194l197 -308h-129l-166 197l-162 -197h-131z" />
<glyph unicode="&#x2dc;" horiz-adv-x="681" d="M10 1257q16 100 62.5 155.5t113.5 55.5q47 0 144 -38q80 -37 129 -37q51 -1 76 75h118q-31 -213 -182 -213q-43 0 -174 52q-72 27 -100 26q-47 0 -68 -76h-119z" />
<glyph unicode="&#x2000;" horiz-adv-x="976" />
<glyph unicode="&#x2001;" horiz-adv-x="1952" />
<glyph unicode="&#x2002;" horiz-adv-x="976" />
<glyph unicode="&#x2003;" horiz-adv-x="1952" />
<glyph unicode="&#x2004;" horiz-adv-x="650" />
<glyph unicode="&#x2005;" horiz-adv-x="488" />
<glyph unicode="&#x2006;" horiz-adv-x="325" />
<glyph unicode="&#x2007;" horiz-adv-x="325" />
<glyph unicode="&#x2008;" horiz-adv-x="244" />
<glyph unicode="&#x2009;" horiz-adv-x="390" />
<glyph unicode="&#x200a;" horiz-adv-x="108" />
<glyph unicode="&#x2010;" horiz-adv-x="681" d="M94 492v147h488v-147h-488z" />
<glyph unicode="&#x2011;" horiz-adv-x="681" d="M94 492v147h488v-147h-488z" />
<glyph unicode="&#x2012;" horiz-adv-x="681" d="M94 492v147h488v-147h-488z" />
<glyph unicode="&#x2013;" d="M-10 492v147h1159v-147h-1159z" />
<glyph unicode="&#x2014;" horiz-adv-x="2048" d="M-18 492v147h2068v-147h-2068z" />
<glyph unicode="&#x2018;" horiz-adv-x="454" d="M133 977v207q0 121 49 190.5t142 77.5v-78q-100 -14 -99 -184h99v-213h-191z" />
<glyph unicode="&#x2019;" horiz-adv-x="452" d="M131 1018v78q53 8 76.5 51t21.5 133h-98v213h191v-207q0 -252 -191 -268z" />
<glyph unicode="&#x201a;" horiz-adv-x="454" d="M131 -184q106 14 100 184h-98v213h191v-207q0 -252 -193 -268v78z" />
<glyph unicode="&#x201c;" horiz-adv-x="681" d="M98 977v207q0 121 49.5 190.5t141.5 77.5v-78q-100 -14 -99 -184h99v-213h-191zM422 977v207q0 121 49 190.5t141 77.5v-78q-100 -14 -98 -184h98v-213h-190z" />
<glyph unicode="&#x201d;" horiz-adv-x="681" d="M100 977v78q53 8 77 51t22 133h-99v213h191v-207q0 -252 -191 -268zM428 977v78q53 8 76.5 51t21.5 133h-98v213h190v-207q0 -252 -190 -268z" />
<glyph unicode="&#x201e;" horiz-adv-x="681" d="M96 0v213h191v-207q0 -252 -191 -268v78q53 8 77 51t22 133h-99zM424 0v213h190v-207q0 -252 -190 -268v78q53 8 76.5 51t21.5 133h-98z" />
<glyph unicode="&#x2022;" horiz-adv-x="716" d="M102 706.5q0 106.5 75 181.5t181.5 75t181 -76t74.5 -185q0 -102 -75.5 -176.5t-180.5 -74.5q-106 0 -181 74.5t-75 181z" />
<glyph unicode="&#x2026;" horiz-adv-x="2048" d="M236 0v213h213v-213h-213zM918 0v213h212v-213h-212zM1599 0v213h213v-213h-213z" />
<glyph unicode="&#x202f;" horiz-adv-x="390" />
<glyph unicode="&#x2039;" horiz-adv-x="681" d="M186 465v182l312 250v-170l-217 -170l217 -170v-170z" />
<glyph unicode="&#x203a;" horiz-adv-x="681" d="M174 217v170l221 170l-221 170v170l315 -248v-182z" />
<glyph unicode="&#x205f;" horiz-adv-x="488" />
<glyph unicode="&#x20ac;" d="M4 520l45 121h113v51q0 45 4 84h-162l45 121h129q31 195 135 348q143 207 406 207q201 0 393 -137l-65 -164q-111 82 -186 113.5t-156 31.5q-131 0 -214 -97t-126 -302h581l-47 -121h-553q-4 -33 -4 -74q0 -31 2 -61h504l-49 -121h-439q78 -408 347 -407q74 0 144.5 26.5 t195.5 100.5v-191q-158 -96 -340 -96q-129 0 -238 56.5t-168 154.5q-90 147 -127 356h-170z" />
<glyph unicode="&#x25fc;" horiz-adv-x="1075" d="M0 0v1075h1075v-1075h-1075z" />
</font>
</defs>
</svg>
