<?xml version="1.0" standalone="no"?>
<!DOCTYPE svg PUBLIC "-//W3C//DTD SVG 1.1//EN" "http://www.w3.org/Graphics/SVG/1.1/DTD/svg11.dtd" >
<svg>
<metadata>
Created by FontForge 20110222 at Wed Oct  8 15:22:03 2014
 By Christoph Haag,,,
Copyright (URW)++,Copyright 1999 by (URW)++ Design &#38; Development; Cyrillic glyphs added by Valek Filippov (C) 2001-2005
</metadata>
<defs>
<font id="NimbusSanL-Regu" horiz-adv-x="556" >
  <font-face 
    font-family="Nimbus Sans L"
    font-weight="400"
    font-stretch="normal"
    units-per-em="1000"
    panose-1="2 0 5 3 0 0 0 0 0 0"
    ascent="800"
    descent="-200"
    x-height="524"
    cap-height="729"
    bbox="-174 -284.016 1022 953"
    underline-thickness="50"
    underline-position="-151"
    stemh="78"
    stemv="85"
    unicode-range="U+0020-FB02"
  />
<missing-glyph horiz-adv-x="278" 
d="M0 0v0z" />
    <glyph glyph-name="fi" unicode="fi" horiz-adv-x="500" 
d="M252 524v-68h-87v-456h-83v456h-70v68h70v89c0 75 46 119 123 119c17 0 28 -1 47 -5v-69c-19 1 -22 1 -29 1c-38 0 -58 -18 -58 -53v-82h87zM436 524v-524h-83v524h83zM436 729v-105h-83v105h83z" />
    <glyph glyph-name="fl" unicode="fl" horiz-adv-x="500" 
d="M257 524v-68h-87v-456h-83v456h-70v68h70v89c0 75 46 119 123 119c17 0 28 -1 47 -5v-69c-19 1 -22 1 -29 1c-38 0 -58 -18 -58 -53v-82h87zM430 729v-729h-83v729h83z" />
    <glyph glyph-name="trademark" unicode="TM" horiz-adv-x="1000" 
d="M285 674v-382h-68v382h-154v55h375v-55h-153zM748 292h-70l-121 341v-341h-67v437h94l132 -362l131 362h91v-437h-67v341z" />
    <glyph glyph-name="IJ" unicode="IJ" horiz-adv-x="700" 
d="M194 729v-729h-94v729h94zM533 729h93v-547c0 -126 -79 -205 -206 -205c-125 0 -203 75 -203 193v64h95v-47c0 -85 39 -132 109 -132c37 0 71 17 89 45c17 25 23 58 23 116v513z" />
    <glyph glyph-name="ij" unicode="ij" horiz-adv-x="374" 
d="M150 524v-524h-83v524h83zM150 729v-105h-84v105h84zM222 524h83v-633c0 -71 -49 -109 -143 -109c-13 0 -18 1 -28 3v71c17 -1 17 -1 20 -1c51 0 68 17 68 69v600zM305 729v-105h-83v105h83z" />
    <glyph glyph-name="Ldot" unicode="L&#xb7;" 
d="M374 429v-125h-124v125h124zM173 729v-647h360v-82h-453v729h93z" />
    <glyph glyph-name="ldot" unicode="l&#xb7;" horiz-adv-x="404" 
d="M152 729v-729h-84v729h84zM357 429v-125h-124v125h124z" />
    <glyph glyph-name="afii61352" unicode="No" horiz-adv-x="1008" 
d="M948 285v-72h-238v72h238zM827 629c83 0 151 -68 151 -151c0 -85 -68 -152 -153 -152c-82 0 -150 69 -150 152s68 151 152 151zM827 572c-52 0 -95 -43 -95 -94c0 -52 43 -95 93 -95c54 0 96 42 96 95c0 52 -42 94 -94 94zM646 729v-729h-105l-377 591v-591h-88v729h101
l381 -596v596h88z" />
    <glyph glyph-name=".notdef" horiz-adv-x="278" 
d="M0 0v0z" />
    <glyph glyph-name=".notdef" unicode="&#xfffd;" horiz-adv-x="278" 
d="M0 0v0z" />
    <glyph glyph-name="space" unicode=" " horiz-adv-x="278" 
 />
    <glyph glyph-name="exclam" unicode="!" horiz-adv-x="278" 
d="M208 729v-338l-22 -223h-39l-22 223v338h83zM208 104v-104h-84v104h84z" />
    <glyph glyph-name="quotedbl" unicode="&#x22;" horiz-adv-x="355" 
d="M52 709h93v-111l-27 -134h-39l-27 134v111zM212 709h93v-111l-27 -134h-39l-27 134v111z" />
    <glyph glyph-name="numbersign" unicode="#" 
d="M485 697l-36 -196h93v-68h-106l-31 -174h105v-68h-117l-39 -211h-76l38 211h-124l-39 -211h-76l38 211h-101v68h114l31 174h-108v68h121l36 196h76l-36 -196h125l35 196h77zM360 433h-124l-32 -174h125z" />
    <glyph glyph-name="dollar" unicode="$" 
d="M243 770h59v-54c121 -9 194 -83 194 -197h-79c-1 73 -48 124 -115 127v-249c92 -28 105 -33 131 -48c58 -33 85 -83 85 -154c0 -78 -34 -147 -92 -183c-33 -20 -70 -31 -124 -35v-103h-59v103c-141 9 -217 92 -210 231h79c6 -65 10 -82 25 -105c23 -31 61 -51 106 -57
v272c-73 22 -100 33 -126 52c-47 34 -71 83 -71 146c0 114 69 184 197 200v54zM243 405v240c-74 -10 -116 -53 -116 -119c0 -61 37 -100 116 -121zM302 309v-263c43 5 68 14 92 37c27 26 42 61 42 100c0 66 -32 96 -134 126z" />
    <glyph glyph-name="percent" unicode="%" horiz-adv-x="889" 
d="M199 685c96 0 171 -76 171 -173c0 -92 -77 -169 -170 -169c-94 0 -171 77 -171 171s77 171 170 171zM199 615c-55 0 -101 -45 -101 -101c0 -55 46 -101 102 -101c55 0 101 45 101 100c0 57 -45 102 -102 102zM609 709h66l-395 -729h-66zM688 322c96 0 171 -76 171 -172
c0 -92 -78 -169 -170 -169c-94 0 -171 77 -171 171c0 93 77 170 170 170zM688 252c-55 0 -101 -45 -101 -100c0 -56 46 -101 102 -101c55 0 101 45 101 99c0 57 -45 102 -102 102z" />
    <glyph glyph-name="ampersand" unicode="&#x26;" horiz-adv-x="667" 
d="M493 334h80c0 -60 -21 -126 -58 -183l122 -151h-109l-62 78c-38 -37 -56 -52 -77 -65c-36 -23 -83 -36 -132 -36c-123 0 -205 79 -205 199c0 91 38 141 162 213c-62 78 -81 116 -81 163c0 88 76 157 171 157s163 -65 163 -157c0 -72 -34 -115 -138 -174l133 -163
c20 35 32 83 31 119zM285 431c78 49 103 78 103 123c0 49 -37 85 -87 85c-52 0 -86 -34 -86 -86c0 -35 9 -52 70 -122zM418 137l-160 200c-91 -58 -122 -98 -122 -154c0 -70 59 -128 131 -128c52 0 95 23 151 82z" />
    <glyph glyph-name="quoteright" unicode="&#x2019;" horiz-adv-x="221" 
d="M64 729h93v-101c0 -80 -33 -126 -93 -131v38c35 5 49 32 48 90h-48v104z" />
    <glyph glyph-name="parenleft" unicode="(" horiz-adv-x="333" 
d="M236 729h55c-88 -142 -137 -311 -137 -470c0 -160 49 -328 137 -471h-55c-100 131 -163 313 -163 471c0 157 63 339 163 470z" />
    <glyph glyph-name="parenright" unicode=")" horiz-adv-x="333" 
d="M93 -212h-55c88 142 137 311 137 470c0 160 -49 328 -137 471h55c100 -131 163 -313 163 -471c0 -157 -63 -339 -163 -470z" />
    <glyph glyph-name="asterisk" unicode="*" horiz-adv-x="389" 
d="M160 729h63l-5 -112l106 38l19 -59l-108 -30l70 -89l-51 -36l-62 93l-63 -93l-50 36l69 89l-108 30l19 59l106 -38z" />
    <glyph glyph-name="plus" unicode="+" horiz-adv-x="584" 
d="M534 267v-70h-207v-207h-70v207h-207v70h207v207h70v-207h207z" />
    <glyph glyph-name="comma" unicode="," horiz-adv-x="278" 
d="M87 104h105v-120c0 -86 -35 -131 -105 -131v38c47 2 60 22 60 91v18h-60v104z" />
    <glyph glyph-name="hyphen" unicode="-" horiz-adv-x="333" 
d="M284 312v-72h-238v72h238z" />
    <glyph glyph-name="period" unicode="." horiz-adv-x="278" 
d="M191 104v-104h-104v104h104z" />
    <glyph glyph-name="slash" unicode="/" horiz-adv-x="278" 
d="M229 729h55l-237 -749h-55z" />
    <glyph glyph-name="zero" unicode="0" 
d="M275 709c67 0 126 -28 163 -78c47 -64 69 -156 69 -294c0 -233 -82 -360 -232 -360c-152 0 -232 127 -232 366c0 131 23 226 69 288c37 49 97 78 163 78zM275 631c-95 0 -142 -95 -142 -289s47 -292 140 -292c98 0 144 94 144 295c0 190 -47 286 -142 286z" />
    <glyph glyph-name="one" unicode="1" 
d="M259 505h-157v63c136 17 156 32 187 141h58v-709h-88v505z" />
    <glyph glyph-name="two" unicode="2" 
d="M506 87v-87h-472c8 156 51 223 199 307l92 52c63 36 96 84 96 140c0 76 -60 133 -140 133c-53 0 -99 -26 -122 -69c-12 -23 -18 -52 -21 -100h-88c2 72 13 116 38 154c39 60 106 92 196 92c67 0 119 -18 161 -56s66 -93 66 -152c0 -87 -51 -160 -150 -214l-100 -54
c-87 -51 -119 -88 -128 -146h373z" />
    <glyph glyph-name="three" unicode="3" 
d="M221 325v75c62 1 93 5 117 15c39 16 57 46 57 96c0 75 -47 121 -125 121c-55 0 -99 -24 -119 -63c-11 -22 -15 -46 -16 -89h-88c3 151 79 229 222 229c135 0 216 -73 216 -195c0 -71 -33 -121 -99 -147c85 -29 120 -79 120 -169c0 -134 -94 -221 -240 -221
c-97 0 -167 35 -203 103c-17 32 -27 69 -31 126h88c6 -103 53 -151 149 -151c92 0 147 53 147 142c0 85 -50 129 -147 129l-37 -1h-11z" />
    <glyph glyph-name="four" unicode="4" 
d="M327 170h-299v93l322 446h65v-460h105v-79h-105v-170h-88v170zM327 249v310l-222 -310h222z" />
    <glyph glyph-name="five" unicode="5" 
d="M476 709v-87h-295l-28 -198c41 30 81 43 131 43c136 0 229 -96 229 -236c0 -150 -100 -254 -243 -254c-80 0 -152 31 -192 85c-21 26 -31 54 -43 112h88c21 -80 68 -119 145 -119c96 0 155 62 155 164c0 105 -60 170 -155 170c-55 0 -89 -17 -130 -66h-81l53 386h366z
" />
    <glyph glyph-name="six" unicode="6" 
d="M498 524h-88c-14 68 -57 107 -119 107c-101 0 -157 -96 -158 -269c38 52 93 79 163 79c127 0 217 -93 217 -225c0 -139 -97 -239 -232 -239c-78 0 -140 31 -178 88c-42 63 -60 139 -60 258c0 129 20 216 64 285c42 63 112 101 190 101c108 0 184 -69 201 -185zM285 363
c-87 0 -147 -61 -147 -149c0 -91 62 -159 144 -159c81 0 141 65 141 154c0 95 -53 154 -138 154z" />
    <glyph glyph-name="seven" unicode="7" 
d="M520 709v-74c-160 -213 -249 -408 -288 -635h-94c53 233 122 381 291 622h-383v87h474z" />
    <glyph glyph-name="eight" unicode="8" 
d="M391 373c82 -39 122 -98 122 -177c0 -129 -98 -219 -238 -219s-238 90 -238 220c0 78 40 137 121 176c-72 45 -96 81 -96 147c0 111 88 189 213 189c126 0 213 -78 213 -189c0 -67 -24 -103 -97 -147zM275 631c-74 0 -123 -44 -123 -112c0 -67 49 -111 123 -111
s123 44 123 110c0 69 -48 113 -123 113zM275 334c-88 0 -148 -56 -148 -139s60 -140 146 -140c90 0 150 56 150 140c0 83 -60 139 -148 139z" />
    <glyph glyph-name="nine" unicode="9" 
d="M53 162h88c14 -68 57 -107 119 -107c101 0 157 96 158 269c-46 -55 -95 -79 -162 -79c-128 0 -218 93 -218 225c0 139 97 239 232 239c78 0 140 -31 179 -88c42 -63 60 -139 60 -258c0 -129 -20 -216 -65 -285c-41 -63 -112 -101 -190 -101c-108 0 -184 69 -201 185z
M269 632c-81 0 -141 -65 -141 -155c0 -95 53 -154 138 -154c86 0 147 62 147 149c0 92 -62 160 -144 160z" />
    <glyph glyph-name="colon" unicode=":" horiz-adv-x="278" 
d="M214 104v-104h-104v104h104zM214 524v-104h-104v104h104z" />
    <glyph glyph-name="semicolon" unicode=";" horiz-adv-x="278" 
d="M215 524v-104h-104v104h104zM110 104h105v-120c0 -86 -35 -131 -105 -131v38c47 2 60 22 60 91v18h-60v104z" />
    <glyph glyph-name="less" unicode="&#x3c;" horiz-adv-x="584" 
d="M45 198v69l489 207v-79l-394 -161l394 -164v-79z" />
    <glyph glyph-name="equal" unicode="=" horiz-adv-x="584" 
d="M534 353v-70h-484v70h484zM534 181v-70h-484v70h484z" />
    <glyph glyph-name="greater" unicode="&#x3e;" horiz-adv-x="584" 
d="M539 267v-69l-489 -207v79l394 161l-394 164v79z" />
    <glyph glyph-name="question" unicode="?" 
d="M330 199h-90v55c0 36 7 59 28 87c17 23 17 23 76 76c53 47 75 86 75 132c0 68 -51 114 -128 114c-53 0 -93 -21 -112 -58c-12 -24 -17 -52 -17 -98h-85c0 154 75 234 219 234c130 0 213 -75 213 -192c0 -66 -25 -111 -100 -179c-68 -63 -79 -80 -79 -124v-47zM330 104
v-104h-90v104h90z" />
    <glyph glyph-name="at" unicode="@" horiz-adv-x="1015" 
d="M665 501h83l-90 -280c-8 -23 -12 -41 -12 -50c0 -24 23 -44 50 -44c85 0 168 113 168 230c0 167 -161 307 -352 307c-211 0 -393 -181 -393 -391c0 -191 163 -338 375 -338c54 0 111 9 193 32l28 -67c-72 -27 -152 -42 -226 -42c-253 0 -455 178 -455 400
c0 131 60 265 158 354c88 80 214 129 333 129c233 0 426 -169 426 -372c0 -78 -31 -159 -86 -223c-51 -60 -112 -89 -186 -89c-63 0 -101 26 -110 77c-46 -50 -89 -72 -142 -72c-93 0 -163 79 -163 183c0 145 123 277 257 277c55 0 97 -30 122 -87zM515 458
c-84 0 -161 -102 -161 -214c0 -66 44 -118 99 -118c37 0 74 24 102 65c25 37 52 121 54 171c3 54 -38 96 -94 96z" />
    <glyph glyph-name="A" unicode="A" horiz-adv-x="667" 
d="M474 219h-281l-77 -219h-99l260 729h120l256 -729h-104zM448 297l-112 332l-120 -332h232z" />
    <glyph glyph-name="B" unicode="B" horiz-adv-x="667" 
d="M79 0v729h296c70 0 120 -16 158 -51c38 -34 58 -81 58 -134c0 -74 -35 -128 -101 -159c93 -36 133 -89 133 -177c0 -57 -20 -109 -56 -147c-39 -42 -90 -61 -159 -61h-329zM172 415h180c52 0 81 7 106 26c26 20 40 51 40 90c0 40 -14 70 -40 90c-25 19 -54 26 -106 26
h-180v-232zM172 82h227c45 0 75 11 97 35c22 23 34 55 34 90c0 36 -12 68 -34 91c-22 24 -52 35 -97 35h-227v-251z" />
    <glyph glyph-name="C" unicode="C" horiz-adv-x="722" 
d="M662 503h-95c-11 54 -26 85 -53 110c-30 28 -85 46 -144 46c-141 0 -229 -115 -229 -302c0 -182 92 -298 237 -298c78 0 140 34 170 94c15 29 25 63 33 113h96c-22 -193 -122 -289 -300 -289c-95 0 -167 27 -223 85c-69 71 -106 174 -106 294c0 118 36 222 102 294
c54 60 133 91 231 91c160 0 252 -78 281 -238z" />
    <glyph glyph-name="D" unicode="D" horiz-adv-x="722" 
d="M89 0v729h281c185 0 297 -138 297 -364c0 -227 -113 -365 -297 -365h-281zM182 82h172c144 0 220 98 220 282c0 186 -76 283 -220 283h-172v-565z" />
    <glyph glyph-name="E" unicode="E" horiz-adv-x="667" 
d="M183 332v-250h430v-82h-523v729h505v-82h-412v-233h397v-82h-397z" />
    <glyph glyph-name="F" unicode="F" horiz-adv-x="611" 
d="M183 332v-332h-93v729h489v-82h-396v-233h348v-82h-348z" />
    <glyph glyph-name="G" unicode="G" horiz-adv-x="778" 
d="M709 385v-389h-59l-23 97c-71 -79 -150 -116 -249 -116c-197 0 -334 156 -334 380c0 131 48 244 132 314c57 47 129 70 218 70c167 0 279 -85 305 -233h-95c-20 94 -100 151 -211 151c-154 0 -256 -118 -256 -297c0 -90 29 -177 77 -229c43 -47 110 -74 184 -74
c133 0 229 94 229 224v20h-222v82h304z" />
    <glyph glyph-name="H" unicode="H" horiz-adv-x="722" 
d="M551 332h-374v-332h-94v729h93v-315h375v315h93v-729h-93v332z" />
    <glyph glyph-name="I" unicode="I" horiz-adv-x="278" 
d="M194 729v-729h-94v729h94z" />
    <glyph glyph-name="J" unicode="J" horiz-adv-x="500" 
d="M333 729h93v-547c0 -126 -79 -205 -206 -205c-125 0 -203 75 -203 193v64h95v-47c0 -85 39 -132 109 -132c37 0 71 17 89 45c17 25 23 58 23 116v513z" />
    <glyph glyph-name="K" unicode="K" horiz-adv-x="667" 
d="M172 255v-255h-93v729h93v-369l363 369h120l-297 -297l300 -432h-110l-257 374z" />
    <glyph glyph-name="L" unicode="L" 
d="M173 729v-647h360v-82h-453v729h93z" />
    <glyph glyph-name="M" unicode="M" horiz-adv-x="833" 
d="M468 0h-98l-207 611v-611h-88v729h129l216 -635l212 635h129v-729h-88v611z" />
    <glyph glyph-name="N" unicode="N" horiz-adv-x="722" 
d="M646 729v-729h-105l-377 591v-591h-88v729h101l381 -596v596h88z" />
    <glyph glyph-name="O" unicode="O" horiz-adv-x="778" 
d="M389 741c214 0 353 -153 353 -388c0 -119 -47 -232 -126 -299c-59 -50 -138 -77 -226 -77c-210 0 -352 154 -352 382s142 382 351 382zM389 659c-154 0 -258 -120 -258 -300s104 -300 259 -300c154 0 259 120 259 296c0 184 -102 304 -260 304z" />
    <glyph glyph-name="P" unicode="P" horiz-adv-x="667" 
d="M184 309v-309h-93v729h301c144 0 225 -77 225 -214c0 -67 -19 -114 -63 -154c-39 -35 -84 -52 -141 -52h-229zM184 391h194c89 0 142 48 142 128s-53 128 -142 128h-194v-256z" />
    <glyph glyph-name="Q" unicode="Q" horiz-adv-x="778" 
d="M733 -1l-47 -58l-105 87c-59 -35 -119 -51 -191 -51c-210 0 -352 154 -352 382s142 382 352 382s352 -154 352 -380c0 -115 -34 -209 -103 -285zM481 205l89 -73c54 61 79 134 79 228c0 179 -104 299 -259 299s-259 -120 -259 -300s103 -300 258 -300c44 0 77 8 120 28
l-74 62z" />
    <glyph glyph-name="R" unicode="R" horiz-adv-x="722" 
d="M186 314v-314h-93v729h336c143 0 222 -69 222 -195c0 -83 -33 -134 -115 -174c79 -34 98 -70 99 -190c2 -97 9 -123 44 -147v-23h-113c-13 30 -21 74 -21 119l1 65c0 90 -37 130 -120 130h-240zM186 396h225c99 0 143 39 143 125c0 44 -13 77 -38 98
c-23 20 -53 28 -105 28h-225v-251z" />
    <glyph glyph-name="S" unicode="S" horiz-adv-x="667" 
d="M596 515h-88c-1 95 -66 148 -182 148c-98 0 -163 -49 -163 -123c0 -56 32 -84 120 -108l183 -49c99 -27 155 -93 155 -183c0 -63 -31 -128 -80 -167c-47 -36 -118 -56 -205 -56c-111 0 -195 36 -245 104c-29 40 -42 84 -43 151h88c-1 -45 11 -80 38 -112
c35 -42 89 -61 168 -61c59 0 105 11 134 31c31 22 52 62 52 101c0 57 -42 94 -134 118l-181 48c-96 25 -143 81 -143 170c0 132 99 214 259 214c168 0 266 -83 267 -226z" />
    <glyph glyph-name="T" unicode="T" horiz-adv-x="611" 
d="M354 647v-647h-93v647h-240v82h572v-82h-239z" />
    <glyph glyph-name="U" unicode="U" horiz-adv-x="722" 
d="M552 729h93v-512c0 -146 -110 -240 -281 -240c-173 0 -279 92 -279 240v512h93v-512c0 -55 17 -92 53 -120c35 -25 79 -38 133 -38c117 0 188 60 188 158v512z" />
    <glyph glyph-name="V" unicode="V" horiz-adv-x="667" 
d="M392 0h-100l-262 729h100l214 -617l202 617h99z" />
    <glyph glyph-name="W" unicode="W" horiz-adv-x="944" 
d="M744 0h-102l-168 599l-163 -599h-102l-187 729h104l137 -592l162 592h100l166 -592l134 592h104z" />
    <glyph glyph-name="X" unicode="X" horiz-adv-x="667" 
d="M391 374l258 -374h-115l-199 304l-200 -304h-113l258 374l-242 355h113l187 -286l188 286h111z" />
    <glyph glyph-name="Y" unicode="Y" horiz-adv-x="667" 
d="M387 286v-286h-93v286l-281 443h115l214 -355l208 355h111z" />
    <glyph glyph-name="Z" unicode="Z" horiz-adv-x="611" 
d="M581 729v-84l-436 -563h438v-82h-555v82l438 565h-410v82h525z" />
    <glyph glyph-name="bracketleft" unicode="[" horiz-adv-x="278" 
d="M250 729v-72h-103v-797h103v-72h-186v941h186z" />
    <glyph glyph-name="backslash" unicode="\" horiz-adv-x="278" 
d="M47 729l237 -749h-55l-237 749h55z" />
    <glyph glyph-name="bracketright" unicode="]" horiz-adv-x="278" 
d="M23 -212v72h103v797h-103v72h186v-941h-186z" />
    <glyph glyph-name="asciicircum" unicode="^" horiz-adv-x="469" 
d="M197 709h73l155 -380h-69l-122 300l-121 -300h-69z" />
    <glyph glyph-name="underscore" unicode="_" 
d="M578 -126v-50h-600v50h600z" />
    <glyph glyph-name="quoteleft" unicode="&#x2018;" horiz-adv-x="222" 
d="M158 477h-93v101c0 79 33 126 93 131v-38c-34 -5 -49 -33 -48 -90h48v-104z" />
    <glyph glyph-name="a" unicode="a" 
d="M535 49v-63c-27 -7 -40 -9 -57 -9c-54 0 -80 24 -86 77c-59 -54 -112 -77 -178 -77c-106 0 -172 60 -172 155c0 68 31 115 92 140c32 13 50 17 168 32c66 8 87 23 87 58v22c0 50 -42 78 -117 78c-78 0 -116 -29 -123 -93h-84c2 52 12 82 36 109c35 39 98 61 174 61
c129 0 197 -50 197 -143v-308c0 -26 16 -41 45 -41c5 0 9 0 18 2zM389 165v94c-28 -13 -46 -17 -134 -29c-89 -13 -126 -41 -126 -96c0 -53 38 -84 103 -84c49 0 90 16 124 47c25 23 33 40 33 68z" />
    <glyph glyph-name="b" unicode="b" 
d="M54 729h83v-276c39 59 90 86 162 86c138 0 224 -105 224 -275c0 -174 -90 -287 -228 -287c-73 0 -126 29 -166 90v-67h-75v729zM283 461c-88 0 -146 -80 -146 -203s58 -203 146 -203c91 0 153 81 153 200c0 125 -60 206 -153 206z" />
    <glyph glyph-name="c" unicode="c" horiz-adv-x="500" 
d="M471 348h-84c-10 73 -54 114 -124 114c-91 0 -145 -78 -145 -209c0 -124 55 -199 147 -199c71 0 114 42 128 126h84c-10 -128 -89 -203 -214 -203c-142 0 -232 107 -232 276c0 174 92 286 233 286c73 0 136 -29 172 -78c20 -29 31 -62 35 -113z" />
    <glyph glyph-name="d" unicode="d" 
d="M495 729v-729h-74v69c-45 -65 -95 -92 -167 -92c-141 0 -228 109 -228 286c0 167 89 276 225 276c70 0 126 -28 161 -81v271h83zM265 461c-91 0 -152 -81 -152 -203s61 -203 153 -203c88 0 146 80 146 201c0 125 -57 205 -147 205z" />
    <glyph glyph-name="e" unicode="e" 
d="M513 234h-386c1 -52 8 -82 28 -112c28 -44 73 -68 126 -68c67 0 114 36 137 105h84c-21 -114 -104 -182 -224 -182c-147 0 -238 106 -238 278s94 284 240 284c98 0 178 -52 212 -138c15 -39 21 -87 21 -167zM129 302h294c1 2 1 4 1 6c0 86 -63 154 -145 154
c-84 0 -143 -63 -150 -160z" />
    <glyph glyph-name="f" unicode="f" horiz-adv-x="278" 
d="M258 524v-68h-87v-456h-83v456h-70v68h70v89c0 75 46 119 123 119c17 0 28 -1 47 -5v-69c-19 1 -22 1 -29 1c-38 0 -58 -18 -58 -53v-82h87z" />
    <glyph glyph-name="g" unicode="g" 
d="M412 524h77v-438c0 -123 -15 -189 -55 -237c-34 -42 -101 -67 -179 -67c-123 0 -200 59 -209 158h85c5 -31 13 -45 32 -60c23 -18 57 -28 95 -28c51 0 94 18 116 49c21 29 30 72 30 143v27c-47 -66 -93 -94 -159 -94c-55 0 -111 26 -150 70c-43 50 -66 120 -66 206
c0 170 90 286 223 286c67 0 118 -29 160 -91v76zM261 462c-89 0 -145 -78 -145 -204c0 -127 55 -204 146 -204c88 0 142 76 142 201c0 131 -53 207 -143 207z" />
    <glyph glyph-name="h" unicode="h" 
d="M70 729h83v-277c49 64 94 87 168 87c102 0 165 -55 165 -143v-396h-83v363c0 37 -10 62 -34 79c-20 15 -47 24 -74 24c-86 0 -142 -70 -142 -177v-289h-83v729z" />
    <glyph glyph-name="i" unicode="i" horiz-adv-x="222" 
d="M150 524v-524h-83v524h83zM150 729v-105h-84v105h84z" />
    <glyph glyph-name="j" unicode="j" horiz-adv-x="222" 
d="M70 524h83v-633c0 -71 -49 -109 -143 -109c-13 0 -18 1 -28 3v71c17 -1 17 -1 20 -1c51 0 68 17 68 69v600zM153 729v-105h-83v105h83z" />
    <glyph glyph-name="k" unicode="k" horiz-adv-x="500" 
d="M141 729v-427l222 222h107l-182 -181l214 -343h-103l-177 284l-81 -80v-204h-83v729h83z" />
    <glyph glyph-name="l" unicode="l" horiz-adv-x="222" 
d="M152 729v-729h-84v729h84z" />
    <glyph glyph-name="m" unicode="m" horiz-adv-x="833" 
d="M70 524h77v-74c45 63 91 89 161 89c68 0 110 -24 141 -80c49 59 91 80 161 80c98 0 152 -52 152 -146v-393h-84v361c0 66 -36 105 -97 105c-68 0 -123 -61 -123 -137v-329h-84v361c0 67 -35 105 -97 105c-68 0 -123 -61 -123 -137v-329h-84v524z" />
    <glyph glyph-name="n" unicode="n" 
d="M70 524h77v-88c46 73 96 103 174 103c101 0 166 -56 166 -143v-396h-83v363c0 63 -42 103 -108 103c-86 0 -142 -70 -142 -177v-289h-84v524z" />
    <glyph glyph-name="o" unicode="o" 
d="M272 539c151 0 238 -104 238 -285c0 -172 -90 -277 -237 -277c-149 0 -237 105 -237 281s89 281 236 281zM273 462c-93 0 -150 -78 -150 -204c0 -127 57 -204 150 -204c92 0 150 78 150 201c0 130 -56 207 -150 207z" />
    <glyph glyph-name="p" unicode="p" 
d="M54 -218v742h77v-79c39 62 96 94 167 94c139 0 225 -110 225 -286c0 -167 -89 -276 -224 -276c-68 0 -117 24 -161 78v-273h-84zM284 461c-88 0 -146 -80 -146 -203s58 -203 146 -203c91 0 152 81 152 200c0 125 -60 206 -152 206z" />
    <glyph glyph-name="q" unicode="q" 
d="M495 -218h-83v278c-39 -57 -89 -83 -162 -83c-138 0 -224 105 -224 275c0 174 90 287 228 287c69 0 128 -30 167 -85v70h74v-742zM266 461c-92 0 -153 -82 -153 -203c0 -122 61 -203 153 -203c88 0 146 80 146 200c0 126 -57 206 -146 206z" />
    <glyph glyph-name="r" unicode="r" horiz-adv-x="333" 
d="M69 524h77v-95c48 78 89 110 143 110c11 0 18 -1 32 -3v-85c-58 -1 -83 -7 -109 -26c-40 -29 -59 -78 -59 -153v-272h-84v524z" />
    <glyph glyph-name="s" unicode="s" horiz-adv-x="500" 
d="M438 378h-88c-2 55 -38 84 -105 84c-68 0 -111 -31 -111 -79c0 -37 29 -59 97 -75l80 -19c104 -25 148 -68 148 -146c0 -101 -84 -166 -216 -166c-137 0 -205 58 -209 179h88c5 -37 11 -52 24 -67c21 -22 59 -35 104 -35c73 0 122 33 122 82c0 38 -23 59 -81 73l-78 19
c-124 30 -166 69 -166 151c0 97 79 160 201 160c121 0 189 -58 190 -161z" />
    <glyph glyph-name="t" unicode="t" horiz-adv-x="278" 
d="M254 524v-68h-86v-359c0 -37 10 -47 46 -47c16 0 29 1 40 4v-70c-28 -5 -48 -7 -68 -7c-65 0 -101 30 -101 83v396h-71v68h71v144h83v-144h86z" />
    <glyph glyph-name="u" unicode="u" 
d="M482 0h-75v73c-49 -69 -98 -96 -175 -96c-102 0 -167 56 -167 143v404h83v-371c0 -63 42 -103 108 -103c87 0 143 70 143 177v297h83v-524z" />
    <glyph glyph-name="v" unicode="v" horiz-adv-x="500" 
d="M285 0h-91l-184 524h94l140 -425l148 425h94z" />
    <glyph glyph-name="w" unicode="w" horiz-adv-x="722" 
d="M554 0h-95l-106 411l-101 -411h-94l-152 524h92l107 -408l100 408h102l103 -408l104 408h94z" />
    <glyph glyph-name="x" unicode="x" horiz-adv-x="500" 
d="M292 271l181 -271h-97l-131 201l-133 -201h-95l185 267l-175 257h95l126 -190l126 190h94z" />
    <glyph glyph-name="y" unicode="y" horiz-adv-x="500" 
d="M388 524h90l-233 -634c-16 -42 -31 -64 -57 -83c-22 -16 -51 -25 -78 -25c-22 0 -39 4 -56 13v75c18 -4 32 -6 44 -6c35 0 54 14 67 51l32 83l-177 526h89l134 -408z" />
    <glyph glyph-name="z" unicode="z" horiz-adv-x="500" 
d="M443 524v-74l-311 -377h325v-73h-426v75l313 376h-292v73h391z" />
    <glyph glyph-name="braceleft" unicode="{" horiz-adv-x="334" 
d="M276 729v-65h-15c-49 0 -63 -15 -63 -67v-181c0 -92 -21 -133 -82 -157c56 -26 82 -75 82 -158v-181c0 -52 14 -67 63 -67h15v-65h-46c-69 0 -109 48 -109 131v167c0 92 -19 126 -78 138v69c59 12 78 45 78 138v167c0 83 40 131 109 131h46z" />
    <glyph glyph-name="bar" unicode="|" horiz-adv-x="260" 
d="M100 729h60v-941h-60v941z" />
    <glyph glyph-name="braceright" unicode="}" horiz-adv-x="334" 
d="M29 -212v65h16c50 0 64 15 64 67v181c0 83 26 132 82 157c-56 26 -82 76 -82 158v181c0 52 -14 67 -64 67h-16v65h47c70 0 110 -48 110 -131v-167c0 -92 19 -126 76 -138v-69c-57 -12 -76 -46 -76 -138v-167c0 -83 -40 -131 -110 -131h-47z" />
    <glyph glyph-name="asciitilde" unicode="~" horiz-adv-x="584" 
d="M455 411h53v-16c0 -77 -41 -127 -105 -127c-25 0 -55 10 -81 26l-98 63c-10 6 -33 14 -43 14c-18 0 -35 -13 -45 -35c-4 -10 -6 -20 -8 -43h-53c5 94 43 145 108 145c18 0 37 -6 54 -16l117 -69c20 -12 36 -17 50 -17c37 0 52 22 51 75z" />
    <glyph glyph-name="exclamdown" unicode="&#xa1;" horiz-adv-x="333" 
d="M122 -205v338l22 223h39l22 -223v-338h-83zM121 420v104h84v-104h-84z" />
    <glyph glyph-name="cent" unicode="&#xa2;" 
d="M312 462v-409c64 7 102 48 114 127h84c-7 -120 -82 -197 -198 -203v-97h-42v98c-135 12 -218 116 -218 275c0 163 83 271 218 285v90h42v-89c117 -8 186 -77 192 -191h-84c-7 67 -47 109 -108 114zM270 55v406c-86 -16 -131 -87 -131 -208c0 -113 48 -185 131 -198z" />
    <glyph glyph-name="sterling" unicode="&#xa3;" 
d="M366 376v-55h-136c10 -29 15 -52 15 -71c0 -52 -28 -98 -118 -189c39 26 79 39 122 39c26 0 44 -3 82 -15c41 -12 61 -16 79 -16c26 0 54 10 83 30l42 -66c-40 -39 -79 -56 -131 -56c-37 0 -63 6 -146 35c-21 7 -45 11 -66 11c-35 0 -71 -12 -109 -37l-48 66
c92 79 125 130 125 191c0 25 -9 53 -24 78h-110v55h81c-46 76 -53 95 -53 139c0 121 104 214 238 214c85 0 156 -37 192 -99c19 -33 27 -72 28 -133h-88c-3 103 -49 154 -136 154c-85 0 -141 -51 -141 -128c0 -37 6 -54 43 -119c3 -3 10 -16 16 -28h160z" />
    <glyph glyph-name="fraction" unicode="&#x2044;" horiz-adv-x="167" 
d="M278 709h58l-452 -729h-58z" />
    <glyph glyph-name="yen" unicode="&#xa5;" 
d="M495 354v-51h-170v-77h170v-51h-170v-175h-88v175h-172v51h172v77h-172v51h151l-205 355h85l185 -322l179 322h85l-201 -355h151z" />
    <glyph glyph-name="florin" unicode="&#x192;" 
d="M467 462v-70h-126l-75 -397c-13 -70 -33 -117 -65 -150c-34 -35 -85 -57 -135 -57c-24 0 -42 3 -55 10l17 84c17 -11 31 -16 51 -16c51 0 81 36 96 113l78 413h-113v70h125l22 104c11 56 31 95 61 124c32 30 75 48 115 48c26 0 49 -6 79 -19l-30 -79
c-25 14 -37 18 -52 18c-47 0 -79 -44 -94 -126l-12 -70h113z" />
    <glyph glyph-name="section" unicode="&#xa7;" 
d="M464 524h-84v9v17c0 62 -38 102 -97 102c-51 0 -89 -36 -89 -85c0 -29 15 -49 57 -77l146 -94c81 -52 109 -95 109 -167c0 -76 -37 -129 -109 -156c40 -45 53 -75 53 -118c0 -96 -80 -168 -187 -168c-84 0 -151 43 -175 113c-9 27 -11 39 -11 86h85c0 -39 4 -59 18 -78
c19 -29 48 -44 84 -44c57 0 96 35 96 86c0 35 -16 61 -55 88l-170 117c-65 45 -92 92 -92 157c0 66 31 111 105 150c-31 36 -44 64 -44 102c0 92 81 165 185 165s175 -71 175 -177v-20v-8zM188 229l166 -123c47 25 73 62 73 102c0 41 -24 78 -73 112l-161 109
c-52 -34 -71 -61 -71 -101s13 -60 66 -99z" />
    <glyph glyph-name="currency" unicode="&#xa4;" 
d="M485 190l-58 -54l-53 53c-27 -20 -61 -30 -100 -30c-33 0 -68 9 -94 25l-51 -51l-56 57l48 49c-20 27 -32 66 -32 102s12 74 32 102l-54 55l56 53l55 -55c29 17 61 26 97 26c37 0 72 -10 98 -28l59 53l57 -58l-55 -55c16 -25 26 -61 26 -93c0 -34 -10 -66 -29 -97z
M274 445c-58 0 -106 -47 -106 -105c0 -57 48 -104 107 -104c57 0 106 47 106 103c0 59 -47 106 -107 106z" />
    <glyph glyph-name="quotesingle" unicode="'" horiz-adv-x="191" 
d="M48 709h94v-111l-27 -134h-40l-27 134v111z" />
    <glyph glyph-name="quotedblleft" unicode="&#x201c;" horiz-adv-x="333" 
d="M141 477h-93v101c0 79 33 126 93 131v-38c-34 -5 -49 -33 -48 -90h48v-104zM299 477h-93v101c0 79 33 126 93 131v-38c-34 -5 -49 -33 -48 -90h48v-104z" />
    <glyph glyph-name="guillemotleft" unicode="&#xab;" 
d="M98 227v89l152 122v-83l-106 -83l106 -83v-83zM303 227v89l152 122v-83l-106 -83l106 -83v-83z" />
    <glyph glyph-name="guilsinglleft" unicode="&#x2039;" horiz-adv-x="333" 
d="M91 227v89l152 122v-83l-106 -83l106 -83v-83z" />
    <glyph glyph-name="guilsinglright" unicode="&#x203a;" horiz-adv-x="333" 
d="M239 317v-89l-154 -122v83l108 83l-108 83v83z" />
    <glyph glyph-name="endash" unicode="&#x2013;" 
d="M561 312v-72h-566v72h566z" />
    <glyph glyph-name="dagger" unicode="&#x2020;" 
d="M513 502v-82h-194v-597h-88v597h-193v82h193v207h88v-207h194z" />
    <glyph glyph-name="daggerdbl" unicode="&#x2021;" 
d="M513 502v-82h-194v-307h194v-82h-194v-208h-88v208h-193v82h193v307h-193v82h193v207h88v-207h194z" />
    <glyph glyph-name="periodcentered" unicode="&#xb7;" horiz-adv-x="278" 
d="M211 427v-125h-124v125h124z" />
    <glyph glyph-name="paragraph" unicode="&#xb6;" horiz-adv-x="537" 
d="M522 729v-64h-57v-842h-64v842h-82v-842h-64v436c-55 3 -90 15 -125 44c-52 43 -82 112 -82 186c0 135 98 240 224 240h250z" />
    <glyph glyph-name="bullet" unicode="&#x2022;" horiz-adv-x="350" 
d="M175 470c70 0 125 -56 125 -127c0 -67 -57 -123 -125 -123c-69 0 -125 56 -125 125s56 125 125 125z" />
    <glyph glyph-name="quotesinglbase" unicode="&#x201a;" horiz-adv-x="222" 
d="M65 104h93v-101c0 -80 -33 -126 -94 -131v38c36 5 51 32 49 90h-48v104z" />
    <glyph glyph-name="quotedblbase" unicode="&#x201e;" horiz-adv-x="333" 
d="M47 104h93v-101c0 -80 -33 -126 -93 -131v38c35 5 49 32 48 90h-48v104zM207 104h93v-101c0 -80 -33 -126 -93 -131v38c35 5 49 32 48 90h-48v104z" />
    <glyph glyph-name="quotedblright" unicode="&#x201d;" horiz-adv-x="333" 
d="M49 709h93v-101c0 -80 -33 -126 -93 -131v38c35 5 49 32 48 90h-48v104zM209 709h93v-101c0 -80 -33 -126 -93 -131v38c35 5 49 32 48 90h-48v104z" />
    <glyph glyph-name="guillemotright" unicode="&#xbb;" 
d="M252 317v-89l-154 -122v83l108 83l-108 83v83zM451 317v-89l-154 -122v83l108 83l-108 83v83z" />
    <glyph glyph-name="ellipsis" unicode="&#x2026;" horiz-adv-x="1000" 
d="M219 104v-104h-104v104h104zM552 104v-104h-104v104h104zM885 104v-104h-104v104h104z" />
    <glyph glyph-name="perthousand" unicode="&#x2030;" horiz-adv-x="1000" 
d="M158 728c84 0 150 -67 150 -152c0 -81 -68 -149 -149 -149c-83 0 -150 68 -150 151c0 82 67 150 149 150zM158 668c-49 0 -90 -41 -90 -90c0 -50 41 -91 91 -91c49 0 90 41 90 90c0 51 -40 91 -91 91zM492 738h66l-395 -758h-66zM483 279c84 0 150 -67 150 -152
c0 -81 -68 -149 -149 -149c-83 0 -150 68 -150 151c0 82 67 150 149 150zM483 219c-49 0 -90 -41 -90 -90c0 -50 41 -91 90 -91c50 0 91 41 91 90c0 51 -40 91 -91 91zM843 279c84 0 150 -67 150 -152c0 -81 -68 -149 -149 -149c-83 0 -150 68 -150 151c0 82 67 150 149 150
zM843 219c-49 0 -90 -41 -90 -90c0 -50 41 -91 90 -91c50 0 91 41 91 90c0 51 -40 91 -91 91z" />
    <glyph glyph-name="questiondown" unicode="&#xbf;" horiz-adv-x="611" 
d="M275 325h90v-55c0 -36 -7 -59 -28 -87c-18 -23 -18 -23 -77 -76c-53 -47 -75 -86 -75 -132c0 -68 52 -114 129 -114c53 0 93 21 112 58c12 24 17 52 17 98h85c0 -154 -75 -234 -219 -234c-131 0 -214 75 -214 192c0 67 25 111 100 179c70 63 80 79 80 124v47zM275 420
v104h90v-104h-90z" />
    <glyph glyph-name="grave" unicode="`" horiz-adv-x="333" 
d="M135 740l96 -148h-60l-149 148h113z" />
    <glyph glyph-name="acute" unicode="&#xb4;" horiz-adv-x="333" 
d="M188 740h113l-149 -148h-60z" />
    <glyph glyph-name="circumflex" unicode="&#x2c6;" horiz-adv-x="333" 
d="M116 741h95l96 -150h-63l-81 96l-79 -96h-64z" />
    <glyph glyph-name="tilde" unicode="&#x2dc;" horiz-adv-x="333" 
d="M261 717h58c-10 -69 -40 -104 -89 -104c-19 0 -31 4 -85 25c-24 9 -38 13 -49 13c-15 0 -27 -14 -33 -37h-58c11 66 42 103 86 103c21 0 28 -2 70 -19c24 -11 51 -18 63 -18c18 0 29 12 37 37z" />
    <glyph glyph-name="macron" unicode="&#xaf;" horiz-adv-x="333" 
d="M302 701v-70h-274v70h274z" />
    <glyph glyph-name="breve" unicode="&#x2d8;" horiz-adv-x="333" 
d="M15 732h59c5 -44 35 -66 92 -66c54 0 87 24 91 66h59c-7 -89 -59 -135 -152 -135c-56 0 -101 20 -128 57c-14 20 -20 39 -21 78z" />
    <glyph glyph-name="dotaccent" unicode="&#x2d9;" horiz-adv-x="333" 
d="M219 716v-104h-104v104h104z" />
    <glyph glyph-name="dieresis" unicode="&#xa8;" horiz-adv-x="333" 
d="M134 715v-103h-104v103h104zM296 715v-103h-104v103h104z" />
    <glyph glyph-name="ring" unicode="&#x2da;" horiz-adv-x="333" 
d="M167 754c49 0 88 -39 88 -88c0 -48 -40 -87 -88 -87s-88 40 -88 88c0 47 40 87 88 87zM167 710c-24 0 -44 -20 -44 -43c0 -24 20 -44 44 -44s44 20 44 43c0 25 -19 44 -44 44z" />
    <glyph glyph-name="cedilla" unicode="&#xb8;" horiz-adv-x="333" 
d="M165 0h38l-23 -56c13 2 20 2 28 2c50 0 79 -24 79 -67c0 -57 -47 -93 -123 -93c-39 0 -63 7 -125 34l21 40l9 -4c46 -23 63 -29 89 -29c31 0 54 19 54 45c0 23 -17 37 -46 37c-12 0 -19 -2 -31 -8l-12 7z" />
    <glyph glyph-name="hungarumlaut" unicode="&#x2dd;" horiz-adv-x="333" 
d="M61 740h113l-149 -150h-60zM235 740h113l-149 -150h-60z" />
    <glyph glyph-name="ogonek" unicode="&#x2db;" horiz-adv-x="333" 
d="M154 0h70c-73 -41 -94 -64 -94 -106c0 -35 25 -54 72 -54c24 0 45 3 63 10v-45c-24 -5 -57 -10 -76 -10c-22 0 -47 5 -69 13c-42 16 -63 42 -63 81c0 48 36 89 97 111z" />
    <glyph glyph-name="caron" unicode="&#x2c7;" horiz-adv-x="333" 
d="M210 591h-95l-96 150h63l81 -96l79 96h64z" />
    <glyph glyph-name="emdash" unicode="&#x2014;" horiz-adv-x="1000" 
d="M1001 312v-72h-1010v72h1010z" />
    <glyph glyph-name="AE" unicode="&#xc6;" horiz-adv-x="1000" 
d="M468 214h-269l-85 -214h-103l299 729h622v-82h-371v-233h352v-82h-352v-250h389v-82h-482v214zM468 296v351h-100l-138 -351h238z" />
    <glyph glyph-name="ordfeminine" unicode="&#xaa;" horiz-adv-x="370" 
d="M320 354v-51h-277v51h277zM333 449v-44c-13 -5 -20 -6 -32 -6c-33 0 -49 12 -55 43c-33 -29 -66 -43 -105 -43c-64 0 -104 37 -104 96c0 42 20 71 57 87c17 7 58 15 100 18c38 3 49 11 49 33v13c0 28 -24 44 -67 44c-45 0 -61 -13 -68 -56h-59c2 71 47 108 129 108
c81 0 122 -31 122 -94v-179c0 -15 8 -23 23 -23c3 0 6 1 10 3zM243 517v51c-14 -6 -27 -8 -76 -16c-52 -7 -72 -22 -72 -54c0 -30 21 -47 57 -47c49 0 91 31 91 66z" />
    <glyph glyph-name="Lslash" unicode="&#x141;" 
d="M173 406l171 121v-76l-171 -122v-247h379v-82h-472v280l-80 -57v77l80 56v373h93v-323z" />
    <glyph glyph-name="Oslash" unicode="&#xd8;" horiz-adv-x="778" 
d="M30 19l81 89c-50 70 -76 155 -76 252c0 227 142 381 352 381c91 0 168 -27 230 -81l87 95l40 -36l-89 -97c54 -68 84 -162 84 -264c0 -227 -142 -381 -352 -381c-97 0 -175 29 -241 90l-77 -84zM174 176l384 419c-48 42 -106 64 -171 64c-155 0 -259 -120 -259 -299
c0 -69 16 -132 46 -184zM593 554l-387 -421c49 -49 110 -74 181 -74c155 0 259 120 259 299c0 75 -18 142 -53 196z" />
    <glyph glyph-name="OE" unicode="&#x152;" horiz-adv-x="1000" 
d="M618 327v-245h341v-82h-434v74c-46 -65 -103 -94 -184 -94c-85 0 -159 32 -211 92c-59 68 -87 160 -87 284c0 136 35 240 103 307c49 49 123 78 196 78c82 0 141 -28 183 -88v76h429v-82h-336v-238h328v-82h-328zM525 182v357c-40 81 -99 120 -183 120
c-67 0 -120 -27 -155 -78c-36 -54 -51 -119 -51 -221c0 -101 15 -166 51 -220c35 -51 88 -78 154 -78c84 0 144 39 184 120z" />
    <glyph glyph-name="ordmasculine" unicode="&#xba;" horiz-adv-x="365" 
d="M314 354v-51h-263v51h263zM182 742c91 0 142 -62 142 -174c0 -106 -53 -169 -142 -169c-90 0 -142 63 -142 172c0 108 52 171 142 171zM182 690c-52 0 -84 -45 -84 -119c0 -75 32 -120 84 -120s84 45 84 118c0 76 -31 121 -84 121z" />
    <glyph glyph-name="ae" unicode="&#xe6;" horiz-adv-x="889" 
d="M751 159h84c-21 -114 -105 -182 -223 -182c-77 0 -143 31 -178 83c-5 8 -9 15 -16 27c-75 -78 -138 -110 -216 -110c-102 0 -168 61 -168 155c0 68 31 114 93 140c32 14 83 24 167 31c68 6 87 20 87 59v22c0 51 -41 78 -118 78s-115 -29 -122 -93h-84c2 52 12 82 36 109
c35 39 98 61 172 61c85 0 144 -28 175 -82c36 51 101 82 173 82c97 0 177 -53 211 -138c15 -39 21 -87 21 -167h-386c1 -52 8 -82 28 -112c28 -44 73 -68 126 -68c67 0 114 36 138 105zM381 157v101c-28 -12 -45 -16 -134 -29c-90 -13 -126 -40 -126 -95
c0 -52 38 -84 100 -84c40 0 78 13 111 38c30 23 49 50 49 69zM461 302h294c0 95 -59 160 -144 160c-84 0 -143 -63 -150 -160z" />
    <glyph glyph-name="dotlessi" unicode="&#x131;" horiz-adv-x="278" 
d="M178 524v-524h-84v524h84z" />
    <glyph glyph-name="lslash" unicode="&#x142;" horiz-adv-x="222" 
d="M146 421l66 51v-64l-66 -51v-357h-83v313l-63 -50v64l63 50v352h83v-308z" />
    <glyph glyph-name="oslash" unicode="&#xf8;" horiz-adv-x="611" 
d="M529 511l-63 -71c30 -50 44 -106 44 -182c0 -176 -88 -281 -236 -281c-67 0 -123 21 -163 62l-61 -69l-32 28l66 74c-33 49 -48 108 -48 186c0 176 89 281 237 281c69 0 121 -20 166 -65l58 65zM405 371l-238 -269c29 -32 64 -48 106 -48c93 0 150 78 150 204
c0 44 -6 82 -18 113zM144 141l239 269c-26 33 -66 52 -110 52c-93 0 -150 -78 -150 -204c0 -47 7 -84 21 -117z" />
    <glyph glyph-name="oe" unicode="&#x153;" horiz-adv-x="944" 
d="M804 159h84c-21 -114 -104 -182 -223 -182c-85 0 -154 37 -194 103c-42 -69 -106 -103 -194 -103c-151 0 -237 102 -237 282c0 179 86 280 237 280c89 0 156 -36 196 -106c41 67 112 106 193 106c98 0 178 -52 212 -138c15 -39 21 -87 21 -167h-386c1 -52 8 -82 28 -112
c28 -44 73 -68 126 -68c67 0 114 36 137 105zM277 462c-93 0 -150 -77 -150 -203c0 -128 57 -205 150 -205c92 0 150 77 150 202c0 129 -56 206 -150 206zM515 302h294c0 95 -59 160 -144 160c-84 0 -143 -63 -150 -160z" />
    <glyph glyph-name="germandbls" unicode="&#xdf;" horiz-adv-x="611" 
d="M302 349v82h9c80 0 137 46 137 111c0 64 -49 109 -118 109c-73 0 -121 -44 -121 -113v-538h-83v538c0 63 16 104 52 136c41 35 98 55 159 55c118 0 198 -74 198 -184c0 -71 -35 -117 -109 -144c97 -33 140 -89 140 -182c0 -147 -87 -239 -224 -239c-17 0 -27 1 -44 4v78
h8h28c86 0 145 62 145 151c0 68 -34 117 -91 130c-26 5 -28 6 -86 6z" />
    <glyph glyph-name="Adieresis" unicode="&#xc4;" horiz-adv-x="667" 
d="M474 219h-281l-77 -219h-99l260 729h120l256 -729h-104zM448 297l-112 332l-120 -332h232zM306 914v-103h-104v103h104zM468 914v-103h-104v103h104z" />
    <glyph glyph-name="Aacute" unicode="&#xc1;" horiz-adv-x="667" 
d="M474 219h-281l-77 -219h-99l260 729h120l256 -729h-104zM448 297l-112 332l-120 -332h232zM370 939h113l-149 -148h-60z" />
    <glyph glyph-name="Agrave" unicode="&#xc0;" horiz-adv-x="667" 
d="M474 219h-281l-77 -219h-99l260 729h120l256 -729h-104zM448 297l-112 332l-120 -332h232zM304 939l96 -148h-60l-149 148h113z" />
    <glyph glyph-name="Acircumflex" unicode="&#xc2;" horiz-adv-x="667" 
d="M474 219h-281l-77 -219h-99l260 729h120l256 -729h-104zM448 297l-112 332l-120 -332h232zM288 940h95l96 -150h-63l-81 96l-79 -96h-64z" />
    <glyph glyph-name="Abreve" unicode="&#x102;" horiz-adv-x="667" 
d="M474 219h-281l-77 -219h-99l260 729h120l256 -729h-104zM448 297l-112 332l-120 -332h232zM185 931h59c5 -44 35 -66 92 -66c54 0 87 24 91 66h59c-7 -89 -59 -135 -152 -135c-56 0 -101 20 -128 57c-15 20 -20 39 -21 78z" />
    <glyph glyph-name="Atilde" unicode="&#xc3;" horiz-adv-x="667" 
d="M474 219h-281l-77 -219h-99l260 729h120l256 -729h-104zM448 297l-112 332l-120 -332h232zM434 916h58c-10 -69 -40 -104 -89 -104c-19 0 -31 4 -85 25c-24 9 -38 13 -49 13c-15 0 -27 -14 -33 -37h-58c11 66 42 103 86 103c21 0 28 -2 70 -19c24 -11 51 -18 63 -18
c18 0 29 12 37 37z" />
    <glyph glyph-name="Aring" unicode="&#xc5;" horiz-adv-x="667" 
d="M474 219h-281l-77 -219h-99l260 729h120l256 -729h-104zM448 297l-112 332l-120 -332h232zM335 953c49 0 88 -39 88 -88c0 -48 -40 -87 -88 -87s-88 40 -88 88c0 47 40 87 88 87zM335 909c-24 0 -44 -20 -44 -43c0 -24 20 -44 44 -44s44 20 44 43c0 25 -19 44 -44 44z
" />
    <glyph glyph-name="Aogonek" unicode="&#x104;" horiz-adv-x="667" 
d="M474 219h-281l-77 -219h-99l260 729h120l256 -729c-65 -31 -96 -64 -96 -105c0 -36 25 -55 72 -55c24 0 45 3 63 10v-45c-24 -5 -57 -10 -76 -10c-22 0 -47 5 -69 13c-42 16 -63 42 -63 81c0 48 30 80 101 111h-36zM448 297l-112 332l-120 -332h232z" />
    <glyph glyph-name="Ccedilla" unicode="&#xc7;" horiz-adv-x="722" 
d="M379 -23l-13 -33c13 2 20 2 28 2c50 0 79 -24 79 -67c0 -57 -47 -93 -123 -93c-38 0 -64 7 -125 34l21 40l9 -4c45 -23 64 -29 89 -29c31 0 54 19 54 45c0 23 -17 37 -46 37c-12 0 -19 -2 -31 -8l-11 7l31 69c-76 11 -106 22 -149 52c-91 65 -144 185 -144 327
c0 117 36 222 102 294c54 60 133 91 231 91c160 0 252 -78 281 -238h-95c-11 54 -26 85 -53 110c-30 28 -85 46 -143 46c-142 0 -230 -115 -230 -302c0 -183 92 -299 237 -299c78 0 140 34 170 94c15 30 25 64 33 114h96c-22 -191 -122 -289 -298 -289z" />
    <glyph glyph-name="Cacute" unicode="&#x106;" horiz-adv-x="722" 
d="M662 503h-95c-11 54 -26 85 -53 110c-30 28 -85 46 -144 46c-141 0 -229 -115 -229 -302c0 -182 92 -298 237 -298c78 0 140 34 170 94c15 29 25 63 33 113h96c-22 -193 -122 -289 -300 -289c-95 0 -167 27 -223 85c-69 71 -106 174 -106 294c0 118 36 222 102 294
c54 60 133 91 231 91c160 0 252 -78 281 -238zM406 939h113l-149 -148h-60z" />
    <glyph glyph-name="Ccaron" unicode="&#x10c;" horiz-adv-x="722" 
d="M662 503h-95c-11 54 -26 85 -53 110c-30 28 -85 46 -144 46c-141 0 -229 -115 -229 -302c0 -182 92 -298 237 -298c78 0 140 34 170 94c15 29 25 63 33 113h96c-22 -193 -122 -289 -300 -289c-95 0 -167 27 -223 85c-69 71 -106 174 -106 294c0 118 36 222 102 294
c54 60 133 91 231 91c160 0 252 -78 281 -238zM428 790h-95l-96 150h63l81 -96l79 96h64z" />
    <glyph glyph-name="Dcaron" unicode="&#x10e;" horiz-adv-x="722" 
d="M89 0v729h281c185 0 297 -138 297 -364c0 -227 -113 -365 -297 -365h-281zM182 82h172c144 0 220 98 220 282c0 186 -76 283 -220 283h-172v-565zM386 790h-95l-96 150h63l81 -96l79 96h64z" />
    <glyph glyph-name="Edieresis" unicode="&#xcb;" horiz-adv-x="667" 
d="M183 332v-250h430v-82h-523v729h505v-82h-412v-233h397v-82h-397zM315 914v-103h-104v103h104zM477 914v-103h-104v103h104z" />
    <glyph glyph-name="Eacute" unicode="&#xc9;" horiz-adv-x="667" 
d="M183 332v-250h430v-82h-523v729h505v-82h-412v-233h397v-82h-397zM366 939h113l-149 -148h-60z" />
    <glyph glyph-name="Egrave" unicode="&#xc8;" horiz-adv-x="667" 
d="M183 332v-250h430v-82h-523v729h505v-82h-412v-233h397v-82h-397zM320 939l96 -148h-60l-149 148h113z" />
    <glyph glyph-name="Ecircumflex" unicode="&#xca;" horiz-adv-x="667" 
d="M183 332v-250h430v-82h-523v729h505v-82h-412v-233h397v-82h-397zM297 940h95l96 -150h-63l-81 96l-79 -96h-64z" />
    <glyph glyph-name="Ecaron" unicode="&#x11a;" horiz-adv-x="667" 
d="M183 332v-250h430v-82h-523v729h505v-82h-412v-233h397v-82h-397zM392 790h-95l-96 150h63l81 -96l79 96h64z" />
    <glyph glyph-name="Edotaccent" unicode="&#x116;" horiz-adv-x="667" 
d="M183 332v-250h430v-82h-523v729h505v-82h-412v-233h397v-82h-397zM397 915v-104h-104v104h104z" />
    <glyph glyph-name="Eogonek" unicode="&#x118;" horiz-adv-x="667" 
d="M183 332v-250h430v-82c-64 -30 -96 -65 -96 -106c0 -35 25 -54 72 -54c24 0 45 3 63 10v-45c-23 -5 -57 -10 -75 -10c-22 0 -47 5 -70 13c-42 16 -63 42 -63 81c0 48 30 81 101 111h-455v729h505v-82h-412v-233h397v-82h-397z" />
    <glyph glyph-name="Gbreve" unicode="&#x11e;" horiz-adv-x="778" 
d="M709 385v-389h-59l-23 97c-71 -79 -150 -116 -249 -116c-197 0 -334 156 -334 380c0 131 48 244 132 314c57 47 129 70 218 70c167 0 279 -85 305 -233h-95c-20 94 -100 151 -211 151c-154 0 -256 -118 -256 -297c0 -90 29 -177 77 -229c43 -47 110 -74 184 -74
c133 0 229 94 229 224v20h-222v82h304zM249 931h59c5 -44 35 -66 92 -66c54 0 87 24 91 66h59c-7 -89 -59 -135 -152 -135c-56 0 -101 20 -128 57c-15 20 -20 39 -21 78z" />
    <glyph glyph-name="Idieresis" unicode="&#xcf;" horiz-adv-x="278" 
d="M193 729v-729h-93v729h93zM113 907v-103h-104v103h104zM275 907v-103h-104v103h104z" />
    <glyph glyph-name="Iacute" unicode="&#xcd;" horiz-adv-x="278" 
d="M193 729v-729h-93v729h93zM167 939h113l-149 -148h-60z" />
    <glyph glyph-name="Igrave" unicode="&#xcc;" horiz-adv-x="278" 
d="M193 729v-729h-93v729h93zM114 939l96 -148h-60l-149 148h113z" />
    <glyph glyph-name="Icircumflex" unicode="&#xce;" horiz-adv-x="278" 
d="M193 729v-729h-93v729h93zM95 940h95l96 -150h-63l-81 96l-79 -96h-64z" />
    <glyph glyph-name="Idotaccent" unicode="&#x130;" horiz-adv-x="278" 
d="M195 729v-729h-94v729h94zM196 915v-104h-104v104h104z" />
    <glyph glyph-name="Lacute" unicode="&#x139;" 
d="M173 729v-647h360v-82h-453v729h93zM166 939h113l-149 -148h-60z" />
    <glyph glyph-name="Lcaron" unicode="&#x13d;" 
d="M173 729v-647h360v-82h-453v729h93zM273 729h100v-103c0 -70 -38 -121 -92 -121h-8v38c38 0 57 31 55 86h-55v100z" />
    <glyph glyph-name="Nacute" unicode="&#x143;" horiz-adv-x="722" 
d="M646 729v-729h-105l-377 591v-591h-88v729h101l381 -596v596h88zM389 939h113l-149 -148h-60z" />
    <glyph glyph-name="Ncaron" unicode="&#x147;" horiz-adv-x="722" 
d="M646 729v-729h-105l-377 591v-591h-88v729h101l381 -596v596h88zM409 790h-95l-96 150h63l81 -96l79 96h64z" />
    <glyph glyph-name="Ntilde" unicode="&#xd1;" horiz-adv-x="722" 
d="M646 729v-729h-105l-377 591v-591h-88v729h101l381 -596v596h88zM467 916h58c-10 -69 -40 -104 -89 -104c-19 0 -31 4 -85 25c-24 9 -38 13 -49 13c-15 0 -27 -14 -33 -37h-58c11 66 42 103 86 103c21 0 28 -2 70 -19c24 -11 51 -18 63 -18c18 0 29 12 37 37z" />
    <glyph glyph-name="Odieresis" unicode="&#xd6;" horiz-adv-x="778" 
d="M389 741c214 0 353 -153 353 -388c0 -119 -47 -232 -126 -299c-59 -50 -138 -77 -226 -77c-210 0 -352 154 -352 382s142 382 351 382zM389 659c-154 0 -258 -120 -258 -300s104 -300 259 -300c154 0 259 120 259 296c0 184 -102 304 -260 304zM361 914v-103h-104v103
h104zM523 914v-103h-104v103h104z" />
    <glyph glyph-name="Oacute" unicode="&#xd3;" horiz-adv-x="778" 
d="M389 741c214 0 353 -153 353 -388c0 -119 -47 -232 -126 -299c-59 -50 -138 -77 -226 -77c-210 0 -352 154 -352 382s142 382 351 382zM389 659c-154 0 -258 -120 -258 -300s104 -300 259 -300c154 0 259 120 259 296c0 184 -102 304 -260 304zM418 939h113l-149 -148
h-60z" />
    <glyph glyph-name="Ograve" unicode="&#xd2;" horiz-adv-x="778" 
d="M389 741c214 0 353 -153 353 -388c0 -119 -47 -232 -126 -299c-59 -50 -138 -77 -226 -77c-210 0 -352 154 -352 382s142 382 351 382zM389 659c-154 0 -258 -120 -258 -300s104 -300 259 -300c154 0 259 120 259 296c0 184 -102 304 -260 304zM359 939l96 -148h-60
l-149 148h113z" />
    <glyph glyph-name="Ocircumflex" unicode="&#xd4;" horiz-adv-x="778" 
d="M389 741c214 0 353 -153 353 -388c0 -119 -47 -232 -126 -299c-59 -50 -138 -77 -226 -77c-210 0 -352 154 -352 382s142 382 351 382zM389 659c-154 0 -258 -120 -258 -300s104 -300 259 -300c154 0 259 120 259 296c0 184 -102 304 -260 304zM343 940h95l96 -150h-63
l-81 96l-79 -96h-64z" />
    <glyph glyph-name="Otilde" unicode="&#xd5;" horiz-adv-x="778" 
d="M389 741c214 0 353 -153 353 -388c0 -119 -47 -232 -126 -299c-59 -50 -138 -77 -226 -77c-210 0 -352 154 -352 382s142 382 351 382zM389 659c-154 0 -258 -120 -258 -300s104 -300 259 -300c154 0 259 120 259 296c0 184 -102 304 -260 304zM492 916h58
c-10 -69 -40 -104 -89 -104c-19 0 -31 4 -85 25c-24 9 -38 13 -49 13c-15 0 -27 -14 -33 -37h-58c11 66 42 103 86 103c21 0 28 -2 70 -19c24 -11 51 -18 63 -18c18 0 29 12 37 37z" />
    <glyph glyph-name="Ohungarumlaut" unicode="&#x150;" horiz-adv-x="778" 
d="M389 741c214 0 353 -153 353 -388c0 -119 -47 -232 -126 -299c-59 -50 -138 -77 -226 -77c-210 0 -352 154 -352 382s142 382 351 382zM389 659c-154 0 -258 -120 -258 -300s104 -300 259 -300c154 0 259 120 259 296c0 184 -102 304 -260 304zM364 939h113l-149 -150
h-60zM538 939h113l-149 -150h-60z" />
    <glyph glyph-name="Racute" unicode="&#x154;" horiz-adv-x="722" 
d="M186 314v-314h-93v729h336c143 0 222 -69 222 -195c0 -83 -33 -134 -115 -174c79 -34 98 -70 99 -190c2 -97 9 -123 44 -147v-23h-113c-13 30 -21 74 -21 119l1 65c0 90 -37 130 -120 130h-240zM186 396h225c99 0 143 39 143 125c0 44 -13 77 -38 98
c-23 20 -53 28 -105 28h-225v-251zM383 939h113l-149 -148h-60z" />
    <glyph glyph-name="Rcaron" unicode="&#x158;" horiz-adv-x="722" 
d="M186 314v-314h-93v729h336c143 0 222 -69 222 -195c0 -83 -33 -134 -115 -174c79 -34 98 -70 99 -190c2 -97 9 -123 44 -147v-23h-113c-13 30 -21 74 -21 119l1 65c0 90 -37 130 -120 130h-240zM186 396h225c99 0 143 39 143 125c0 44 -13 77 -38 98
c-23 20 -53 28 -105 28h-225v-251zM404 790h-95l-96 150h63l81 -96l79 96h64z" />
    <glyph glyph-name="Sacute" unicode="&#x15a;" horiz-adv-x="667" 
d="M596 515h-88c-1 95 -66 148 -182 148c-98 0 -163 -49 -163 -123c0 -56 32 -84 120 -108l183 -49c99 -27 155 -93 155 -183c0 -63 -31 -128 -80 -167c-47 -36 -118 -56 -205 -56c-111 0 -195 36 -245 104c-29 40 -42 84 -43 151h88c-1 -45 11 -80 38 -112
c35 -42 89 -61 168 -61c59 0 105 11 134 31c31 22 52 62 52 101c0 57 -42 94 -134 118l-181 48c-96 25 -143 81 -143 170c0 132 99 214 259 214c168 0 266 -83 267 -226zM362 939h113l-149 -148h-60z" />
    <glyph glyph-name="Scaron" unicode="&#x160;" horiz-adv-x="667" 
d="M596 515h-88c-1 95 -66 148 -182 148c-98 0 -163 -49 -163 -123c0 -56 32 -84 120 -108l183 -49c99 -27 155 -93 155 -183c0 -63 -31 -128 -80 -167c-47 -36 -118 -56 -205 -56c-111 0 -195 36 -245 104c-29 40 -42 84 -43 151h88c-1 -45 11 -80 38 -112
c35 -42 89 -61 168 -61c59 0 105 11 134 31c31 22 52 62 52 101c0 57 -42 94 -134 118l-181 48c-96 25 -143 81 -143 170c0 132 99 214 259 214c168 0 266 -83 267 -226zM380 790h-95l-96 150h63l81 -96l79 96h64z" />
    <glyph glyph-name="Scedilla" unicode="&#x15e;" horiz-adv-x="667" 
d="M335 -24l-15 -32c14 2 20 2 28 2c50 0 79 -24 79 -67c0 -57 -47 -93 -123 -93c-38 0 -63 7 -125 34l21 40l9 -4c45 -23 64 -29 89 -29c31 0 54 19 54 45c0 23 -17 37 -46 37c-11 0 -19 -2 -31 -7l-11 6l31 69c-6 2 -10 3 -11 3l-44 7c-121 26 -195 121 -192 245h88
c-1 -45 11 -80 38 -112c35 -42 89 -61 168 -61c59 0 105 11 134 31c31 22 52 62 52 101c0 57 -42 94 -134 118l-181 48c-96 25 -143 81 -143 170c0 132 99 214 259 214c168 0 266 -83 267 -226h-88c-1 95 -66 148 -182 148c-98 0 -163 -49 -163 -123c0 -56 32 -84 120 -108
l183 -49c99 -27 155 -93 155 -183c0 -86 -53 -165 -134 -198c-41 -16 -81 -23 -152 -26z" />
    <glyph glyph-name="Tcaron" unicode="&#x164;" horiz-adv-x="611" 
d="M354 647v-647h-93v647h-240v82h572v-82h-239zM355 790h-95l-96 150h63l81 -96l79 96h64z" />
    <glyph glyph-name="Udieresis" unicode="&#xdc;" horiz-adv-x="722" 
d="M552 729h93v-512c0 -146 -110 -240 -281 -240c-173 0 -279 92 -279 240v512h93v-512c0 -55 17 -92 53 -120c35 -25 79 -38 133 -38c117 0 188 60 188 158v512zM336 914v-103h-104v103h104zM498 914v-103h-104v103h104z" />
    <glyph glyph-name="Uacute" unicode="&#xda;" horiz-adv-x="722" 
d="M552 729h93v-512c0 -146 -110 -240 -281 -240c-173 0 -279 92 -279 240v512h93v-512c0 -55 17 -92 53 -120c35 -25 79 -38 133 -38c117 0 188 60 188 158v512zM387 939h113l-149 -148h-60z" />
    <glyph glyph-name="Ugrave" unicode="&#xd9;" horiz-adv-x="722" 
d="M552 729h93v-512c0 -146 -110 -240 -281 -240c-173 0 -279 92 -279 240v512h93v-512c0 -55 17 -92 53 -120c35 -25 79 -38 133 -38c117 0 188 60 188 158v512zM334 939l96 -148h-60l-149 148h113z" />
    <glyph glyph-name="Ucircumflex" unicode="&#xdb;" horiz-adv-x="722" 
d="M552 729h93v-512c0 -146 -110 -240 -281 -240c-173 0 -279 92 -279 240v512h93v-512c0 -55 17 -92 53 -120c35 -25 79 -38 133 -38c117 0 188 60 188 158v512zM318 940h95l96 -150h-63l-81 96l-79 -96h-64z" />
    <glyph glyph-name="Uring" unicode="&#x16e;" horiz-adv-x="722" 
d="M552 729h93v-512c0 -146 -110 -240 -281 -240c-173 0 -279 92 -279 240v512h93v-512c0 -55 17 -92 53 -120c35 -25 79 -38 133 -38c117 0 188 60 188 158v512zM365 953c49 0 88 -39 88 -88c0 -48 -40 -87 -88 -87s-88 40 -88 88c0 47 40 87 88 87zM365 909
c-24 0 -44 -20 -44 -43c0 -24 20 -44 44 -44s44 20 44 43c0 25 -19 44 -44 44z" />
    <glyph glyph-name="Uhungarumlaut" unicode="&#x170;" horiz-adv-x="722" 
d="M552 729h93v-512c0 -146 -110 -240 -281 -240c-173 0 -279 92 -279 240v512h93v-512c0 -55 17 -92 53 -120c35 -25 79 -38 133 -38c117 0 188 60 188 158v512zM329 939h113l-149 -150h-60zM503 939h113l-149 -150h-60z" />
    <glyph glyph-name="Yacute" unicode="&#xdd;" horiz-adv-x="666" 
d="M387 286v-286h-93v286l-281 443h115l214 -355l208 355h111zM365 939h113l-149 -148h-60z" />
    <glyph glyph-name="Zacute" unicode="&#x179;" horiz-adv-x="611" 
d="M581 729v-84l-436 -563h438v-82h-555v82l438 565h-410v82h525zM347 939h113l-149 -148h-60z" />
    <glyph glyph-name="Zcaron" unicode="&#x17d;" horiz-adv-x="611" 
d="M581 729v-84l-436 -563h438v-82h-555v82l438 565h-410v82h525zM366 790h-95l-96 150h63l81 -96l79 96h64z" />
    <glyph glyph-name="Zdotaccent" unicode="&#x17b;" horiz-adv-x="611" 
d="M581 729v-84l-436 -563h438v-82h-555v82l438 565h-410v82h525zM371 915v-104h-104v104h104z" />
    <glyph glyph-name="Amacron" unicode="&#x100;" horiz-adv-x="667" 
d="M474 219h-281l-77 -219h-99l260 729h120l256 -729h-104zM448 297l-112 332l-120 -332h232zM472 900v-70h-274v70h274z" />
    <glyph glyph-name="Tcommaaccent" unicode="&#x162;" horiz-adv-x="611" 
d="M354 647v-647h-93v647h-240v82h572v-82h-239zM260 -60h100v-103c0 -75 -38 -122 -100 -121v38c38 0 57 31 55 86h-55v100z" />
    <glyph glyph-name="Ydieresis" unicode="&#x178;" horiz-adv-x="667" 
d="M387 286v-286h-93v286l-281 443h115l214 -355l208 355h111zM312 914v-103h-104v103h104zM474 914v-103h-104v103h104z" />
    <glyph glyph-name="Emacron" unicode="&#x112;" horiz-adv-x="667" 
d="M183 332v-250h430v-82h-523v729h505v-82h-412v-233h397v-82h-397zM482 900v-70h-274v70h274z" />
    <glyph glyph-name="Imacron" unicode="&#x12a;" horiz-adv-x="278" 
d="M194 729v-729h-94v729h94zM274 900v-70h-254v70h254z" />
    <glyph glyph-name="Iogonek" unicode="&#x12e;" horiz-adv-x="278" 
d="M194 729v-729c-36 -33 -56 -71 -56 -107c0 -31 20 -52 51 -52c14 0 27 3 45 9v-45c-18 -5 -41 -9 -59 -9c-65 0 -109 35 -109 88c0 44 20 75 77 116h-43v729h94z" />
    <glyph glyph-name="Kcommaaccent" unicode="&#x136;" horiz-adv-x="667" 
d="M172 255v-255h-93v729h93v-369l363 369h120l-297 -297l300 -432h-110l-257 374zM299 -60h100v-103c0 -75 -38 -122 -100 -121v38c38 0 57 31 55 86h-55v100z" />
    <glyph glyph-name="Lcommaaccent" unicode="&#x13b;" 
d="M173 729v-647h360v-82h-453v729h93zM257 -60h100v-103c0 -75 -38 -122 -100 -121v38c38 0 57 31 55 86h-55v100z" />
    <glyph glyph-name="Ncommaaccent" unicode="&#x145;" horiz-adv-x="722" 
d="M646 729v-729h-105l-377 591v-591h-88v729h101l381 -596v596h88zM298 -60h100v-103c0 -75 -38 -122 -100 -121v38c38 0 57 31 55 86h-55v100z" />
    <glyph glyph-name="Omacron" unicode="&#x14c;" horiz-adv-x="778" 
d="M389 741c214 0 353 -153 353 -388c0 -119 -47 -232 -126 -299c-59 -50 -138 -77 -226 -77c-210 0 -352 154 -352 382s142 382 351 382zM389 659c-154 0 -258 -120 -258 -300s104 -300 259 -300c154 0 259 120 259 296c0 184 -102 304 -260 304zM527 900v-70h-274v70h274z
" />
    <glyph glyph-name="Rcommaaccent" unicode="&#x156;" horiz-adv-x="722" 
d="M186 314v-314h-93v729h336c143 0 222 -69 222 -195c0 -83 -33 -134 -115 -174c79 -34 98 -70 99 -190c2 -97 9 -123 44 -147v-23h-113c-13 30 -21 74 -21 119l1 65c0 90 -37 130 -120 130h-240zM186 396h225c99 0 143 39 143 125c0 44 -13 77 -38 98
c-23 20 -53 28 -105 28h-225v-251zM319 -60h100v-103c0 -75 -38 -122 -100 -121v38c38 0 57 31 55 86h-55v100z" />
    <glyph glyph-name="Gcommaaccent" unicode="&#x122;" horiz-adv-x="778" 
d="M709 385v-389h-59l-23 97c-71 -79 -150 -116 -249 -116c-197 0 -334 156 -334 380c0 131 48 244 132 314c57 47 129 70 218 70c167 0 279 -85 305 -233h-95c-20 94 -100 151 -211 151c-154 0 -256 -118 -256 -297c0 -90 29 -177 77 -229c43 -47 110 -74 184 -74
c133 0 229 94 229 224v20h-222v82h304zM337 -60h100v-103c0 -75 -38 -122 -100 -121v38c38 0 57 31 55 86h-55v100z" />
    <glyph glyph-name="Umacron" unicode="&#x16a;" horiz-adv-x="722" 
d="M552 729h93v-512c0 -146 -110 -240 -281 -240c-173 0 -279 92 -279 240v512h93v-512c0 -55 17 -92 53 -120c35 -25 79 -38 133 -38c117 0 188 60 188 158v512zM502 900v-70h-274v70h274z" />
    <glyph glyph-name="Uogonek" unicode="&#x172;" horiz-adv-x="722" 
d="M602 -150v-45c-24 -5 -57 -10 -75 -10c-22 0 -47 5 -70 13c-42 16 -63 42 -63 80c0 41 21 70 73 102c-44 -10 -65 -13 -101 -13c-174 0 -281 91 -281 240v512h93v-512c0 -55 17 -92 53 -120c35 -25 79 -38 133 -38c117 0 188 60 188 158v512h93v-512
c0 -57 -17 -107 -50 -151c-15 -20 -18 -23 -63 -66c-43 -41 -65 -76 -65 -106c0 -35 25 -54 72 -54c24 0 45 3 63 10z" />
    <glyph glyph-name="adieresis" unicode="&#xe4;" 
d="M535 49v-63c-27 -7 -40 -9 -57 -9c-54 0 -80 24 -86 77c-59 -54 -112 -77 -178 -77c-106 0 -172 60 -172 155c0 68 31 115 92 140c32 13 50 17 168 32c66 8 87 23 87 58v22c0 50 -42 78 -117 78c-78 0 -116 -29 -123 -93h-84c2 52 12 82 36 109c35 39 98 61 174 61
c129 0 197 -50 197 -143v-308c0 -26 16 -41 45 -41c5 0 9 0 18 2zM389 165v94c-28 -13 -46 -17 -134 -29c-89 -13 -126 -41 -126 -96c0 -53 38 -84 103 -84c49 0 90 16 124 47c25 23 33 40 33 68zM244 715v-103h-104v103h104zM406 715v-103h-104v103h104z" />
    <glyph glyph-name="aacute" unicode="&#xe1;" 
d="M535 49v-63c-27 -7 -40 -9 -57 -9c-54 0 -80 24 -86 77c-59 -54 -112 -77 -178 -77c-106 0 -172 60 -172 155c0 68 31 115 92 140c32 13 50 17 168 32c66 8 87 23 87 58v22c0 50 -42 78 -117 78c-78 0 -116 -29 -123 -93h-84c2 52 12 82 36 109c35 39 98 61 174 61
c129 0 197 -50 197 -143v-308c0 -26 16 -41 45 -41c5 0 9 0 18 2zM389 165v94c-28 -13 -46 -17 -134 -29c-89 -13 -126 -41 -126 -96c0 -53 38 -84 103 -84c49 0 90 16 124 47c25 23 33 40 33 68zM303 740h113l-149 -148h-60z" />
    <glyph glyph-name="agrave" unicode="&#xe0;" 
d="M535 49v-63c-27 -7 -40 -9 -57 -9c-54 0 -80 24 -86 77c-59 -54 -112 -77 -178 -77c-106 0 -172 60 -172 155c0 68 31 115 92 140c32 13 50 17 168 32c66 8 87 23 87 58v22c0 50 -42 78 -117 78c-78 0 -116 -29 -123 -93h-84c2 52 12 82 36 109c35 39 98 61 174 61
c129 0 197 -50 197 -143v-308c0 -26 16 -41 45 -41c5 0 9 0 18 2zM389 165v94c-28 -13 -46 -17 -134 -29c-89 -13 -126 -41 -126 -96c0 -53 38 -84 103 -84c49 0 90 16 124 47c25 23 33 40 33 68zM250 740l96 -148h-60l-149 148h113z" />
    <glyph glyph-name="acircumflex" unicode="&#xe2;" 
d="M535 49v-63c-27 -7 -40 -9 -57 -9c-54 0 -80 24 -86 77c-59 -54 -112 -77 -178 -77c-106 0 -172 60 -172 155c0 68 31 115 92 140c32 13 50 17 168 32c66 8 87 23 87 58v22c0 50 -42 78 -117 78c-78 0 -116 -29 -123 -93h-84c2 52 12 82 36 109c35 39 98 61 174 61
c129 0 197 -50 197 -143v-308c0 -26 16 -41 45 -41c5 0 9 0 18 2zM389 165v94c-28 -13 -46 -17 -134 -29c-89 -13 -126 -41 -126 -96c0 -53 38 -84 103 -84c49 0 90 16 124 47c25 23 33 40 33 68zM228 741h95l96 -150h-63l-81 96l-79 -96h-64z" />
    <glyph glyph-name="abreve" unicode="&#x103;" 
d="M535 49v-63c-27 -7 -40 -9 -57 -9c-54 0 -80 24 -86 77c-59 -54 -112 -77 -178 -77c-106 0 -172 60 -172 155c0 68 31 115 92 140c32 13 50 17 168 32c66 8 87 23 87 58v22c0 50 -42 78 -117 78c-78 0 -116 -29 -123 -93h-84c2 52 12 82 36 109c35 39 98 61 174 61
c129 0 197 -50 197 -143v-308c0 -26 16 -41 45 -41c5 0 9 0 18 2zM389 165v94c-28 -13 -46 -17 -134 -29c-89 -13 -126 -41 -126 -96c0 -53 38 -84 103 -84c49 0 90 16 124 47c25 23 33 40 33 68zM125 732h59c5 -44 35 -66 92 -66c54 0 87 24 91 66h59
c-7 -89 -59 -135 -152 -135c-56 0 -101 20 -128 57c-14 20 -20 39 -21 78z" />
    <glyph glyph-name="atilde" unicode="&#xe3;" 
d="M535 49v-63c-27 -7 -40 -9 -57 -9c-54 0 -80 24 -86 77c-59 -54 -112 -77 -178 -77c-106 0 -172 60 -172 155c0 68 31 115 92 140c32 13 50 17 168 32c66 8 87 23 87 58v22c0 50 -42 78 -117 78c-78 0 -116 -29 -123 -93h-84c2 52 12 82 36 109c35 39 98 61 174 61
c129 0 197 -50 197 -143v-308c0 -26 16 -41 45 -41c5 0 9 0 18 2zM389 165v94c-28 -13 -46 -17 -134 -29c-89 -13 -126 -41 -126 -96c0 -53 38 -84 103 -84c49 0 90 16 124 47c25 23 33 40 33 68zM374 717h58c-10 -69 -40 -104 -89 -104c-19 0 -31 4 -85 25
c-24 9 -38 13 -49 13c-15 0 -27 -14 -33 -37h-58c11 66 42 103 86 103c21 0 28 -2 70 -19c24 -11 51 -18 63 -18c18 0 29 12 37 37z" />
    <glyph glyph-name="aring" unicode="&#xe5;" 
d="M535 49v-63c-27 -7 -40 -9 -57 -9c-54 0 -80 24 -86 77c-59 -54 -112 -77 -178 -77c-106 0 -172 60 -172 155c0 68 31 115 92 140c32 13 50 17 168 32c66 8 87 23 87 58v22c0 50 -42 78 -117 78c-78 0 -116 -29 -123 -93h-84c2 52 12 82 36 109c35 39 98 61 174 61
c129 0 197 -50 197 -143v-308c0 -26 16 -41 45 -41c5 0 9 0 18 2zM389 165v94c-28 -13 -46 -17 -134 -29c-89 -13 -126 -41 -126 -96c0 -53 38 -84 103 -84c49 0 90 16 124 47c25 23 33 40 33 68zM275 754c49 0 88 -39 88 -88c0 -48 -40 -87 -88 -87s-88 40 -88 88
c0 47 40 87 88 87zM275 710c-24 0 -44 -20 -44 -43c0 -24 20 -44 44 -44s44 20 44 43c0 25 -19 44 -44 44z" />
    <glyph glyph-name="aogonek" unicode="&#x105;" 
d="M536 49v-63c-48 -19 -76 -52 -76 -91c0 -36 25 -55 72 -55c25 0 46 3 64 10v-45c-25 -6 -55 -10 -71 -10c-20 0 -51 6 -74 13c-40 13 -63 42 -63 80s18 62 68 89c-38 7 -59 33 -63 77c-56 -53 -112 -77 -178 -77c-106 0 -172 60 -172 155c0 68 31 114 93 140
c31 13 49 17 168 32c65 8 86 22 86 58v22c0 51 -41 78 -117 78c-78 0 -116 -29 -122 -93h-84c2 52 12 82 35 109c36 39 98 61 174 61c129 0 197 -50 197 -143v-308c0 -26 16 -41 45 -41c5 0 9 0 18 2zM389 165v94c-28 -13 -46 -17 -134 -29c-89 -13 -126 -41 -126 -96
c0 -53 38 -84 103 -84c49 0 90 16 124 47c25 23 33 40 33 68z" />
    <glyph glyph-name="cacute" unicode="&#x107;" horiz-adv-x="500" 
d="M471 348h-84c-10 73 -54 114 -124 114c-91 0 -145 -78 -145 -209c0 -124 55 -199 147 -199c71 0 114 42 128 126h84c-10 -128 -89 -203 -214 -203c-142 0 -232 107 -232 276c0 174 92 286 233 286c73 0 136 -29 172 -78c20 -29 31 -62 35 -113zM298 740h113l-149 -148
h-60z" />
    <glyph glyph-name="ccaron" unicode="&#x10d;" horiz-adv-x="500" 
d="M471 348h-84c-10 73 -54 114 -124 114c-91 0 -145 -78 -145 -209c0 -124 55 -199 147 -199c71 0 114 42 128 126h84c-10 -128 -89 -203 -214 -203c-142 0 -232 107 -232 276c0 174 92 286 233 286c73 0 136 -29 172 -78c20 -29 31 -62 35 -113zM313 591h-95l-96 150h63
l81 -96l79 96h64z" />
    <glyph glyph-name="ccedilla" unicode="&#xe7;" horiz-adv-x="500" 
d="M264 -23l-13 -33c14 2 20 2 28 2c50 0 79 -25 79 -67c0 -57 -47 -93 -123 -93c-39 0 -61 6 -125 33l21 41l9 -4c44 -23 64 -29 89 -29c31 0 54 19 54 45c0 23 -17 37 -46 37c-12 0 -19 -2 -31 -8l-12 7l31 71c-43 8 -66 17 -93 37c-65 46 -101 132 -101 237
c0 174 92 286 233 286c73 0 136 -29 172 -78c20 -29 31 -62 35 -113h-84c-10 73 -54 114 -124 114c-91 0 -145 -78 -145 -210c0 -124 55 -199 147 -199c71 0 114 43 128 127h84c-7 -125 -90 -203 -213 -203z" />
    <glyph glyph-name="dcaron" unicode="&#x10f;" horiz-adv-x="635" 
d="M495 729v-729h-74v69c-45 -65 -95 -92 -167 -92c-141 0 -228 109 -228 286c0 167 89 276 225 276c70 0 126 -28 161 -81v271h83zM265 461c-91 0 -152 -81 -152 -203s61 -203 153 -203c88 0 146 80 146 201c0 125 -57 205 -147 205zM548 729h100v-103
c0 -70 -38 -121 -92 -121h-8v38c38 0 57 31 55 86h-55v100z" />
    <glyph glyph-name="edieresis" unicode="&#xeb;" 
d="M513 234h-386c1 -52 8 -82 28 -112c28 -44 73 -68 126 -68c67 0 114 36 137 105h84c-21 -114 -104 -182 -224 -182c-147 0 -238 106 -238 278s94 284 240 284c98 0 178 -52 212 -138c15 -39 21 -87 21 -167zM129 302h294c1 2 1 4 1 6c0 86 -63 154 -145 154
c-84 0 -143 -63 -150 -160zM257 715v-103h-104v103h104zM419 715v-103h-104v103h104z" />
    <glyph glyph-name="eacute" unicode="&#xe9;" 
d="M513 234h-386c1 -52 8 -82 28 -112c28 -44 73 -68 126 -68c67 0 114 36 137 105h84c-21 -114 -104 -182 -224 -182c-147 0 -238 106 -238 278s94 284 240 284c98 0 178 -52 212 -138c15 -39 21 -87 21 -167zM129 302h294c1 2 1 4 1 6c0 86 -63 154 -145 154
c-84 0 -143 -63 -150 -160zM308 740h113l-149 -148h-60z" />
    <glyph glyph-name="egrave" unicode="&#xe8;" 
d="M513 234h-386c1 -52 8 -82 28 -112c28 -44 73 -68 126 -68c67 0 114 36 137 105h84c-21 -114 -104 -182 -224 -182c-147 0 -238 106 -238 278s94 284 240 284c98 0 178 -52 212 -138c15 -39 21 -87 21 -167zM129 302h294c1 2 1 4 1 6c0 86 -63 154 -145 154
c-84 0 -143 -63 -150 -160zM252 740l96 -148h-60l-149 148h113z" />
    <glyph glyph-name="ecircumflex" unicode="&#xea;" 
d="M513 234h-386c1 -52 8 -82 28 -112c28 -44 73 -68 126 -68c67 0 114 36 137 105h84c-21 -114 -104 -182 -224 -182c-147 0 -238 106 -238 278s94 284 240 284c98 0 178 -52 212 -138c15 -39 21 -87 21 -167zM129 302h294c1 2 1 4 1 6c0 86 -63 154 -145 154
c-84 0 -143 -63 -150 -160zM239 741h95l96 -150h-63l-81 96l-79 -96h-64z" />
    <glyph glyph-name="ecaron" unicode="&#x11b;" 
d="M513 234h-386c1 -52 8 -82 28 -112c28 -44 73 -68 126 -68c67 0 114 36 137 105h84c-21 -114 -104 -182 -224 -182c-147 0 -238 106 -238 278s94 284 240 284c98 0 178 -52 212 -138c15 -39 21 -87 21 -167zM129 302h294c1 2 1 4 1 6c0 86 -63 154 -145 154
c-84 0 -143 -63 -150 -160zM334 591h-95l-96 150h63l81 -96l79 96h64z" />
    <glyph glyph-name="edotaccent" unicode="&#x117;" 
d="M513 234h-386c1 -52 8 -82 28 -112c28 -44 73 -68 126 -68c67 0 114 36 137 105h84c-21 -114 -104 -182 -224 -182c-147 0 -238 106 -238 278s94 284 240 284c98 0 178 -52 212 -138c15 -39 21 -87 21 -167zM129 302h294c1 2 1 4 1 6c0 86 -63 154 -145 154
c-84 0 -143 -63 -150 -160zM337 716v-104h-104v104h104z" />
    <glyph glyph-name="eogonek" unicode="&#x119;" 
d="M513 234h-386c1 -52 9 -82 28 -112c29 -44 74 -68 126 -68c67 0 114 36 138 105h84c-10 -55 -35 -98 -81 -144c-54 -56 -71 -86 -71 -124c0 -32 27 -51 72 -51c25 0 46 3 64 10v-45c-27 -6 -47 -9 -69 -9c-84 0 -139 35 -139 88c0 23 11 49 28 68c7 7 14 13 40 33
c-30 -6 -45 -8 -68 -8c-149 0 -239 104 -239 277s94 285 240 285c98 0 179 -52 212 -138c15 -38 22 -87 21 -167zM424 302v6c0 86 -63 154 -145 154c-84 0 -143 -63 -149 -160h294z" />
    <glyph glyph-name="gbreve" unicode="&#x11f;" 
d="M412 524h77v-438c0 -123 -15 -189 -55 -237c-34 -42 -101 -67 -179 -67c-123 0 -200 59 -209 158h85c5 -31 13 -45 32 -60c23 -18 57 -28 95 -28c51 0 94 18 116 49c21 29 30 72 30 143v27c-47 -66 -93 -94 -159 -94c-55 0 -111 26 -150 70c-43 50 -66 120 -66 206
c0 170 90 286 223 286c67 0 118 -29 160 -91v76zM261 462c-89 0 -145 -78 -145 -204c0 -127 55 -204 146 -204c88 0 142 76 142 201c0 131 -53 207 -143 207zM132 732h59c5 -44 35 -66 92 -66c54 0 87 24 91 66h59c-7 -89 -59 -135 -152 -135c-56 0 -101 20 -128 57
c-14 20 -20 39 -21 78z" />
    <glyph glyph-name="idieresis" unicode="&#xef;" horiz-adv-x="278" 
d="M177 524v-524h-83v524h83zM107 708v-103h-104v103h104zM269 708v-103h-104v103h104z" />
    <glyph glyph-name="iacute" unicode="&#xed;" horiz-adv-x="278" 
d="M177 524v-524h-83v524h83zM161 740h113l-149 -148h-60z" />
    <glyph glyph-name="igrave" unicode="&#xec;" horiz-adv-x="278" 
d="M177 524v-524h-83v524h83zM108 740l96 -148h-60l-149 148h113z" />
    <glyph glyph-name="icircumflex" unicode="&#xee;" horiz-adv-x="278" 
d="M177 524v-524h-83v524h83zM89 741h95l96 -150h-63l-81 96l-79 -96h-64z" />
    <glyph glyph-name="lacute" unicode="&#x13a;" horiz-adv-x="222" 
d="M152 729v-729h-84v729h84zM159 939h113l-149 -148h-60z" />
    <glyph glyph-name="lcaron" unicode="&#x13e;" horiz-adv-x="292" 
d="M152 729v-729h-84v729h84zM205 729h100v-103c0 -70 -38 -121 -92 -121h-8v38c38 0 57 31 55 86h-55v100z" />
    <glyph glyph-name="nacute" unicode="&#x144;" 
d="M70 524h77v-88c46 73 96 103 174 103c101 0 166 -56 166 -143v-396h-83v363c0 63 -42 103 -108 103c-86 0 -142 -70 -142 -177v-289h-84v524zM310 740h113l-149 -148h-60z" />
    <glyph glyph-name="ncaron" unicode="&#x148;" 
d="M70 524h77v-88c46 73 96 103 174 103c101 0 166 -56 166 -143v-396h-83v363c0 63 -42 103 -108 103c-86 0 -142 -70 -142 -177v-289h-84v524zM326 591h-95l-96 150h63l81 -96l79 96h64z" />
    <glyph glyph-name="ntilde" unicode="&#xf1;" 
d="M70 524h77v-88c46 73 96 103 174 103c101 0 166 -56 166 -143v-396h-83v363c0 63 -42 103 -108 103c-86 0 -142 -70 -142 -177v-289h-84v524zM378 717h58c-10 -69 -40 -104 -89 -104c-19 0 -31 4 -85 25c-24 9 -38 13 -49 13c-15 0 -27 -14 -33 -37h-58
c11 66 42 103 86 103c21 0 28 -2 70 -19c24 -11 51 -18 63 -18c18 0 29 12 37 37z" />
    <glyph glyph-name="odieresis" unicode="&#xf6;" 
d="M272 539c151 0 238 -104 238 -285c0 -172 -90 -277 -237 -277c-149 0 -237 105 -237 281s89 281 236 281zM273 462c-93 0 -150 -78 -150 -204c0 -127 57 -204 150 -204c92 0 150 78 150 201c0 130 -56 207 -150 207zM244 715v-103h-104v103h104zM406 715v-103h-104v103
h104z" />
    <glyph glyph-name="oacute" unicode="&#xf3;" 
d="M272 539c151 0 238 -104 238 -285c0 -172 -90 -277 -237 -277c-149 0 -237 105 -237 281s89 281 236 281zM273 462c-93 0 -150 -78 -150 -204c0 -127 57 -204 150 -204c92 0 150 78 150 201c0 130 -56 207 -150 207zM298 740h113l-149 -148h-60z" />
    <glyph glyph-name="ograve" unicode="&#xf2;" 
d="M272 539c151 0 238 -104 238 -285c0 -172 -90 -277 -237 -277c-149 0 -237 105 -237 281s89 281 236 281zM273 462c-93 0 -150 -78 -150 -204c0 -127 57 -204 150 -204c92 0 150 78 150 201c0 130 -56 207 -150 207zM245 740l96 -148h-60l-149 148h113z" />
    <glyph glyph-name="ocircumflex" unicode="&#xf4;" 
d="M272 539c151 0 238 -104 238 -285c0 -172 -90 -277 -237 -277c-149 0 -237 105 -237 281s89 281 236 281zM273 462c-93 0 -150 -78 -150 -204c0 -127 57 -204 150 -204c92 0 150 78 150 201c0 130 -56 207 -150 207zM226 741h95l96 -150h-63l-81 96l-79 -96h-64z" />
    <glyph glyph-name="otilde" unicode="&#xf5;" 
d="M272 539c151 0 238 -104 238 -285c0 -172 -90 -277 -237 -277c-149 0 -237 105 -237 281s89 281 236 281zM273 462c-93 0 -150 -78 -150 -204c0 -127 57 -204 150 -204c92 0 150 78 150 201c0 130 -56 207 -150 207zM375 717h58c-10 -69 -40 -104 -89 -104
c-19 0 -31 4 -85 25c-24 9 -38 13 -49 13c-15 0 -27 -14 -33 -37h-58c11 66 42 103 86 103c21 0 28 -2 70 -19c24 -11 51 -18 63 -18c18 0 29 12 37 37z" />
    <glyph glyph-name="ohungarumlaut" unicode="&#x151;" 
d="M272 539c151 0 238 -104 238 -285c0 -172 -90 -277 -237 -277c-149 0 -237 105 -237 281s89 281 236 281zM273 462c-93 0 -150 -78 -150 -204c0 -127 57 -204 150 -204c92 0 150 78 150 201c0 130 -56 207 -150 207zM239 740h113l-149 -150h-60zM413 740h113l-149 -150
h-60z" />
    <glyph glyph-name="racute" unicode="&#x155;" horiz-adv-x="333" 
d="M69 524h77v-95c48 78 89 110 143 110c11 0 18 -1 32 -3v-85c-58 -1 -83 -7 -109 -26c-40 -29 -59 -78 -59 -153v-272h-84v524zM218 740h113l-149 -148h-60z" />
    <glyph glyph-name="sacute" unicode="&#x15b;" horiz-adv-x="500" 
d="M438 378h-88c-2 55 -38 84 -105 84c-68 0 -111 -31 -111 -79c0 -37 29 -59 97 -75l80 -19c104 -25 148 -68 148 -146c0 -101 -84 -166 -216 -166c-137 0 -205 58 -209 179h88c5 -37 11 -52 24 -67c21 -22 59 -35 104 -35c73 0 122 33 122 82c0 38 -23 59 -81 73l-78 19
c-124 30 -166 69 -166 151c0 97 79 160 201 160c121 0 189 -58 190 -161zM275 740h113l-149 -148h-60z" />
    <glyph glyph-name="scaron" unicode="&#x161;" horiz-adv-x="500" 
d="M438 378h-88c-2 55 -38 84 -105 84c-68 0 -111 -31 -111 -79c0 -37 29 -59 97 -75l80 -19c104 -25 148 -68 148 -146c0 -101 -84 -166 -216 -166c-137 0 -205 58 -209 179h88c5 -37 11 -52 24 -67c21 -22 59 -35 104 -35c73 0 122 33 122 82c0 38 -23 59 -81 73l-78 19
c-124 30 -166 69 -166 151c0 97 79 160 201 160c121 0 189 -58 190 -161zM294 591h-95l-96 150h63l81 -96l79 96h64z" />
    <glyph glyph-name="scommaaccent" unicode="&#x219;" horiz-adv-x="500" 
d="M438 378h-88c-2 55 -38 84 -105 84c-68 0 -111 -31 -111 -79c0 -37 29 -59 97 -75l80 -19c104 -25 148 -68 148 -146c0 -101 -84 -166 -216 -166c-137 0 -205 58 -209 179h88c5 -37 11 -52 24 -67c21 -22 59 -35 104 -35c73 0 122 33 122 82c0 38 -23 59 -81 73l-78 19
c-124 30 -166 69 -166 151c0 97 79 160 201 160c121 0 189 -58 190 -161zM197 -60h100v-103c0 -75 -38 -122 -100 -121v38c38 0 57 31 55 86h-55v100z" />
    <glyph glyph-name="tcaron" unicode="&#x165;" horiz-adv-x="308" 
d="M254 524v-68h-86v-359c0 -37 10 -47 46 -47c16 0 29 1 40 4v-70c-28 -5 -48 -7 -68 -7c-65 0 -101 30 -101 83v396h-71v68h71v144h83v-144h86zM221 800h100v-103c0 -70 -38 -121 -92 -121h-8v38c38 0 57 31 55 86h-55v100z" />
    <glyph glyph-name="udieresis" unicode="&#xfc;" 
d="M482 0h-75v73c-49 -69 -98 -96 -175 -96c-102 0 -167 56 -167 143v404h83v-371c0 -63 42 -103 108 -103c87 0 143 70 143 177v297h83v-524zM245 715v-103h-104v103h104zM407 715v-103h-104v103h104z" />
    <glyph glyph-name="uacute" unicode="&#xfa;" 
d="M482 0h-75v73c-49 -69 -98 -96 -175 -96c-102 0 -167 56 -167 143v404h83v-371c0 -63 42 -103 108 -103c87 0 143 70 143 177v297h83v-524zM296 740h113l-149 -148h-60z" />
    <glyph glyph-name="ugrave" unicode="&#xf9;" 
d="M482 0h-75v73c-49 -69 -98 -96 -175 -96c-102 0 -167 56 -167 143v404h83v-371c0 -63 42 -103 108 -103c87 0 143 70 143 177v297h83v-524zM243 740l96 -148h-60l-149 148h113z" />
    <glyph glyph-name="ucircumflex" unicode="&#xfb;" 
d="M482 0h-75v73c-49 -69 -98 -96 -175 -96c-102 0 -167 56 -167 143v404h83v-371c0 -63 42 -103 108 -103c87 0 143 70 143 177v297h83v-524zM227 741h95l96 -150h-63l-81 96l-79 -96h-64z" />
    <glyph glyph-name="uring" unicode="&#x16f;" 
d="M482 0h-75v73c-49 -69 -98 -96 -175 -96c-102 0 -167 56 -167 143v404h83v-371c0 -63 42 -103 108 -103c87 0 143 70 143 177v297h83v-524zM273 754c49 0 88 -39 88 -88c0 -48 -40 -87 -88 -87s-88 40 -88 88c0 47 40 87 88 87zM273 710c-24 0 -44 -20 -44 -43
c0 -24 20 -44 44 -44s44 20 44 43c0 25 -19 44 -44 44z" />
    <glyph glyph-name="uhungarumlaut" unicode="&#x171;" 
d="M482 0h-75v73c-49 -69 -98 -96 -175 -96c-102 0 -167 56 -167 143v404h83v-371c0 -63 42 -103 108 -103c87 0 143 70 143 177v297h83v-524zM243 740h113l-149 -150h-60zM417 740h113l-149 -150h-60z" />
    <glyph glyph-name="yacute" unicode="&#xfd;" horiz-adv-x="500" 
d="M388 524h90l-233 -634c-16 -42 -31 -64 -57 -83c-22 -16 -51 -25 -78 -25c-22 0 -39 4 -56 13v75c18 -4 32 -6 44 -6c35 0 54 14 67 51l32 83l-177 526h89l134 -408zM271 740h113l-149 -148h-60z" />
    <glyph glyph-name="zacute" unicode="&#x17a;" horiz-adv-x="500" 
d="M443 524v-74l-311 -377h325v-73h-426v75l313 376h-292v73h391zM278 740h113l-149 -148h-60z" />
    <glyph glyph-name="zcaron" unicode="&#x17e;" horiz-adv-x="500" 
d="M443 524v-74l-311 -377h325v-73h-426v75l313 376h-292v73h391zM298 591h-95l-96 150h63l81 -96l79 96h64z" />
    <glyph glyph-name="zdotaccent" unicode="&#x17c;" horiz-adv-x="500" 
d="M443 524v-74l-311 -377h325v-73h-426v75l313 376h-292v73h391zM303 716v-104h-104v104h104z" />
    <glyph glyph-name="ydieresis" unicode="&#xff;" horiz-adv-x="500" 
d="M388 524h90l-233 -634c-16 -42 -31 -64 -57 -83c-22 -16 -51 -25 -78 -25c-22 0 -39 4 -56 13v75c18 -4 32 -6 44 -6c35 0 54 14 67 51l32 83l-177 526h89l134 -408zM217 715v-103h-104v103h104zM379 715v-103h-104v103h104z" />
    <glyph glyph-name="tcommaaccent" unicode="&#x163;" horiz-adv-x="278" 
d="M254 524v-68h-86v-359c0 -37 10 -47 46 -47c16 0 29 1 40 4v-70c-28 -5 -48 -7 -68 -7c-65 0 -101 30 -101 83v396h-71v68h71v144h83v-144h86zM111 -60h100v-103c0 -75 -38 -122 -100 -121v38c38 0 57 31 55 86h-55v100z" />
    <glyph glyph-name="amacron" unicode="&#x101;" 
d="M535 49v-63c-27 -7 -40 -9 -57 -9c-54 0 -80 24 -86 77c-59 -54 -112 -77 -178 -77c-106 0 -172 60 -172 155c0 68 31 115 92 140c32 13 50 17 168 32c66 8 87 23 87 58v22c0 50 -42 78 -117 78c-78 0 -116 -29 -123 -93h-84c2 52 12 82 36 109c35 39 98 61 174 61
c129 0 197 -50 197 -143v-308c0 -26 16 -41 45 -41c5 0 9 0 18 2zM389 165v94c-28 -13 -46 -17 -134 -29c-89 -13 -126 -41 -126 -96c0 -53 38 -84 103 -84c49 0 90 16 124 47c25 23 33 40 33 68zM411 701v-70h-274v70h274z" />
    <glyph glyph-name="emacron" unicode="&#x113;" 
d="M513 234h-386c1 -52 8 -82 28 -112c28 -44 73 -68 126 -68c67 0 114 36 137 105h84c-21 -114 -104 -182 -224 -182c-147 0 -238 106 -238 278s94 284 240 284c98 0 178 -52 212 -138c15 -39 21 -87 21 -167zM129 302h294c1 2 1 4 1 6c0 86 -63 154 -145 154
c-84 0 -143 -63 -150 -160zM422 701v-70h-274v70h274z" />
    <glyph glyph-name="imacron" unicode="&#x12b;" horiz-adv-x="222" 
d="M149 524v-524h-83v524h83zM231 701v-70h-247v70h247z" />
    <glyph glyph-name="kcommaaccent" unicode="&#x137;" horiz-adv-x="500" 
d="M141 729v-427l222 222h107l-182 -181l214 -343h-103l-177 284l-81 -80v-204h-83v729h83zM217 -60h100v-103c0 -75 -38 -122 -100 -121v38c38 0 57 31 55 86h-55v100z" />
    <glyph glyph-name="lcommaaccent" unicode="&#x13c;" horiz-adv-x="222" 
d="M152 729v-729h-84v729h84zM63 -60h100v-103c0 -75 -38 -122 -100 -121v38c38 0 57 31 55 86h-55v100z" />
    <glyph glyph-name="ncommaaccent" unicode="&#x146;" 
d="M70 524h77v-88c46 73 96 103 174 103c101 0 166 -56 166 -143v-396h-83v363c0 63 -42 103 -108 103c-86 0 -142 -70 -142 -177v-289h-84v524zM229 -60h100v-103c0 -75 -38 -122 -100 -121v38c38 0 57 31 55 86h-55v100z" />
    <glyph glyph-name="omacron" unicode="&#x14d;" 
d="M272 539c151 0 238 -104 238 -285c0 -172 -90 -277 -237 -277c-149 0 -237 105 -237 281s89 281 236 281zM273 462c-93 0 -150 -78 -150 -204c0 -127 57 -204 150 -204c92 0 150 78 150 201c0 130 -56 207 -150 207zM410 701v-70h-274v70h274z" />
    <glyph glyph-name="rcommaaccent" unicode="&#x157;" horiz-adv-x="333" 
d="M69 524h77v-95c48 78 89 110 143 110c11 0 18 -1 32 -3v-85c-58 -1 -83 -7 -109 -26c-40 -29 -59 -78 -59 -153v-272h-84v524zM65 -60h100v-103c0 -75 -38 -122 -100 -121v38c38 0 57 31 55 86h-55v100z" />
    <glyph glyph-name="umacron" unicode="&#x16b;" 
d="M482 0h-75v73c-49 -69 -98 -96 -175 -96c-102 0 -167 56 -167 143v404h83v-371c0 -63 42 -103 108 -103c87 0 143 70 143 177v297h83v-524zM411 701v-70h-274v70h274z" />
    <glyph glyph-name="uogonek" unicode="&#x173;" 
d="M482 524v-524c-46 -26 -77 -69 -77 -108c0 -32 26 -52 67 -52c16 0 28 2 49 10v-45c-6 -1 -11 -2 -13 -3c-20 -5 -27 -6 -39 -6c-83 0 -136 36 -136 93c0 43 30 77 96 111h-22v73c-49 -69 -98 -96 -175 -96c-102 0 -167 56 -167 143v404h83v-371c0 -63 42 -103 108 -103
c87 0 143 70 143 177v297h83z" />
    <glyph glyph-name="rcaron" unicode="&#x159;" horiz-adv-x="333" 
d="M69 524h77v-95c48 78 89 110 143 110c11 0 18 -1 32 -3v-85c-58 -1 -83 -7 -109 -26c-40 -29 -59 -78 -59 -153v-272h-84v524zM239 591h-95l-96 150h63l81 -96l79 96h64z" />
    <glyph glyph-name="scedilla" unicode="&#x15f;" horiz-adv-x="500" 
d="M244 -24l-14 -32c14 2 20 2 28 2c50 0 79 -24 79 -67c0 -57 -47 -93 -123 -93c-38 0 -63 7 -125 34l21 40l9 -4c45 -23 64 -29 89 -29c31 0 54 19 54 45c0 23 -17 37 -46 37c-12 0 -19 -2 -31 -7l-11 6l31 71c-112 11 -169 69 -171 177h88c5 -37 11 -52 24 -67
c21 -22 59 -35 104 -35c73 0 122 33 122 82c0 38 -23 59 -81 73l-78 19c-124 30 -166 69 -166 151c0 97 79 160 201 160c121 0 189 -58 190 -161h-88c-2 55 -38 84 -105 84c-68 0 -111 -31 -111 -79c0 -37 29 -59 97 -75l80 -19c104 -25 148 -68 148 -146
c0 -62 -37 -118 -98 -145c-27 -12 -57 -18 -117 -22z" />
    <glyph glyph-name="gcommaaccent" unicode="&#x123;" 
d="M412 524h77v-438c0 -123 -15 -189 -55 -237c-34 -42 -101 -67 -179 -67c-123 0 -200 59 -209 158h85c5 -31 13 -45 32 -60c23 -18 57 -28 95 -28c51 0 94 18 116 49c21 29 30 72 30 143v27c-47 -66 -93 -94 -159 -94c-55 0 -111 26 -150 70c-43 50 -66 120 -66 206
c0 170 90 286 223 286c67 0 118 -29 160 -91v76zM261 462c-89 0 -145 -78 -145 -204c0 -127 55 -204 146 -204c88 0 142 76 142 201c0 131 -53 207 -143 207zM332 592h-100v103c0 75 38 122 100 121v-38l-2 -1c-37 -1 -55 -30 -53 -85h55v-100z" />
    <glyph glyph-name="iogonek" unicode="&#x12f;" horiz-adv-x="222" 
d="M150 524v-524c-30 -27 -53 -71 -53 -103c0 -33 20 -56 50 -56c13 0 25 3 43 9v-45c-17 -5 -41 -9 -58 -9c-63 0 -107 36 -107 88c0 42 18 71 74 116h-32v524h83zM150 729v-105h-84v105h84z" />
    <glyph glyph-name="Scommaaccent" unicode="&#x218;" horiz-adv-x="667" 
d="M596 515h-88c-1 95 -66 148 -182 148c-98 0 -163 -49 -163 -123c0 -56 32 -84 120 -108l183 -49c99 -27 155 -93 155 -183c0 -63 -31 -128 -80 -167c-47 -36 -118 -56 -205 -56c-111 0 -195 36 -245 104c-29 40 -42 84 -43 151h88c-1 -45 11 -80 38 -112
c35 -42 89 -61 168 -61c59 0 105 11 134 31c31 22 52 62 52 101c0 57 -42 94 -134 118l-181 48c-96 25 -143 81 -143 170c0 132 99 214 259 214c168 0 266 -83 267 -226zM291 -60h100v-103c0 -75 -38 -122 -100 -121v38c38 0 57 31 55 86h-55v100z" />
    <glyph glyph-name="Eth" unicode="&#xd0;" horiz-adv-x="722" 
d="M89 339h-69v67h69v323h282c184 0 296 -138 296 -364c0 -227 -112 -365 -296 -365h-282v339zM182 339v-257h173c143 0 219 97 219 283c0 185 -76 282 -219 282h-173v-241h171v-67h-171z" />
    <glyph glyph-name="Dcroat" unicode="&#x110;" horiz-adv-x="722" 
d="M89 339h-69v67h69v323h282c184 0 296 -138 296 -364c0 -227 -112 -365 -296 -365h-282v339zM182 339v-257h173c143 0 219 97 219 283c0 185 -76 282 -219 282h-173v-241h171v-67h-171z" />
    <glyph glyph-name="Thorn" unicode="&#xde;" horiz-adv-x="666" 
d="M184 189v-189h-93v729h93v-120h208c139 0 224 -80 224 -212c0 -122 -84 -208 -203 -208h-229zM184 271h194c87 0 138 48 138 128s-51 128 -138 128h-194v-256z" />
    <glyph glyph-name="dcroat" unicode="&#x111;" 
d="M494 653h63v-53h-63v-600h-74v59c-48 -56 -101 -82 -168 -82c-136 0 -226 114 -226 287c0 166 89 275 224 275c68 0 117 -24 161 -78v139h-150v53h150v76h83v-76zM265 457c-91 0 -152 -80 -152 -199s61 -199 152 -199c88 0 146 78 146 197c0 123 -57 201 -146 201z" />
    <glyph glyph-name="eth" unicode="&#xf0;" 
d="M219 613l-97 -45l-36 39l85 40c-26 20 -39 28 -82 52l44 44c31 -13 44 -20 111 -63l97 45l40 -37l-90 -41c72 -55 109 -93 147 -150c51 -78 72 -146 72 -238c0 -180 -86 -282 -237 -282s-237 102 -237 281c0 117 35 200 104 244c34 23 74 35 114 35c19 0 33 -3 63 -13
c-35 35 -46 45 -98 89zM273 462c-93 0 -150 -78 -150 -204s57 -204 150 -204c92 0 150 78 150 201c0 130 -56 207 -150 207z" />
    <glyph glyph-name="thorn" unicode="&#xfe;" horiz-adv-x="555" 
d="M54 -218v932h83v-255c36 51 94 80 161 80c136 0 224 -112 224 -286c0 -167 -89 -276 -224 -276c-68 0 -117 24 -161 78v-273h-83zM283 461c-88 0 -146 -80 -146 -203s58 -203 146 -203c91 0 152 81 152 200c0 125 -60 206 -152 206z" />
    <glyph glyph-name="Euro" unicode="&#x20ac;" 
d="M79 313v25c0 12 0 22 2 41h-79l22 59h63c10 64 32 120 66 170c47 68 112 101 198 101c69 0 126 -20 192 -67l-32 -80c-73 54 -114 71 -167 71c-86 0 -138 -62 -166 -195h284l-23 -59h-270c-2 -16 -2 -25 -2 -36c0 -7 0 -15 1 -30h246l-24 -59h-214
c25 -132 82 -199 169 -199c49 0 85 14 166 62v-93c-51 -31 -106 -47 -166 -47c-84 0 -159 39 -198 103c-30 49 -50 106 -62 174h-83l22 59h55z" />
    <glyph glyph-name="onesuperior" unicode="&#xb9;" horiz-adv-x="351" 
d="M160 580h-99v46l15 1c72 7 86 18 103 82h43v-425h-62v296z" />
    <glyph glyph-name="twosuperior" unicode="&#xb2;" horiz-adv-x="351" 
d="M323 342v-58h-304c5 97 31 136 127 187l58 31c39 21 59 48 59 79c0 43 -37 75 -85 75c-32 0 -60 -15 -74 -39c-8 -13 -11 -29 -13 -60h-62c3 103 52 152 151 152c86 0 146 -52 146 -126c0 -53 -33 -98 -96 -129l-63 -32c-43 -23 -61 -42 -73 -80h229z" />
    <glyph glyph-name="threesuperior" unicode="&#xb3;" horiz-adv-x="351" 
d="M135 476v51c86 0 110 14 110 61c0 42 -29 68 -76 68c-33 0 -60 -13 -72 -35c-7 -13 -9 -26 -9 -54h-63c2 94 51 142 144 142c86 0 139 -46 139 -120c0 -39 -20 -68 -57 -85c48 -16 71 -49 71 -100c0 -81 -61 -134 -155 -134c-96 0 -151 52 -151 142h62
c3 -62 31 -89 91 -89c56 0 90 30 90 81c0 36 -23 64 -58 70c-15 2 -31 2 -66 2z" />
    <glyph glyph-name="degree" unicode="&#xb0;" horiz-adv-x="606" 
d="M303 686c83 0 151 -68 151 -151c0 -85 -68 -152 -153 -152c-82 0 -150 69 -150 152s68 151 152 151zM303 629c-52 0 -95 -43 -95 -94c0 -52 43 -95 93 -95c54 0 96 42 96 95c0 52 -42 94 -94 94z" />
    <glyph glyph-name="minus" unicode="&#x2212;" horiz-adv-x="584" 
d="M544 267v-70h-504v70h504z" />
    <glyph glyph-name="multiply" unicode="&#xd7;" horiz-adv-x="584" 
d="M438 427l49 -50l-146 -146l147 -147l-50 -50l-147 147l-146 -146l-50 49l147 147l-146 146l49 49l146 -145z" />
    <glyph glyph-name="divide" unicode="&#xf7;" horiz-adv-x="584" 
d="M534 271v-70h-484v70h484zM344 104v-104h-104v104h104zM344 472v-104h-104v104h104z" />
    <glyph glyph-name="plusminus" unicode="&#xb1;" horiz-adv-x="584" 
d="M534 416v-70h-207v-207h-70v207h-207v70h207v207h70v-207h207zM534 59v-70h-484v70h484z" />
    <glyph glyph-name="onehalf" unicode="&#xbd;" horiz-adv-x="869" 
d="M160 580h-99v46l15 1c72 7 86 18 103 82h43v-425h-62v296zM619 709h58l-452 -729h-58zM841 58v-58h-304c5 97 31 136 127 187l58 31c39 21 59 48 59 79c0 43 -37 75 -85 75c-32 0 -60 -15 -74 -39c-8 -13 -11 -29 -13 -60h-62c3 103 52 152 151 152
c86 0 146 -52 146 -126c0 -53 -33 -98 -96 -129l-63 -32c-43 -23 -61 -42 -73 -80h229z" />
    <glyph glyph-name="onequarter" unicode="&#xbc;" horiz-adv-x="869" 
d="M160 580h-99v46l15 1c72 7 86 18 103 82h43v-425h-62v296zM643 709h58l-452 -729h-58zM720 100h-188v59l204 266h46v-272h67v-53h-67v-100h-62v100zM720 153v170l-129 -170h129z" />
    <glyph glyph-name="threequarters" unicode="&#xbe;" horiz-adv-x="869" 
d="M135 476v51c86 0 110 14 110 61c0 42 -29 68 -76 68c-33 0 -60 -13 -72 -35c-7 -13 -9 -26 -9 -54h-63c2 94 51 142 144 142c86 0 139 -46 139 -120c0 -39 -20 -68 -57 -85c48 -16 71 -49 71 -100c0 -81 -61 -134 -155 -134c-96 0 -151 52 -151 142h62
c3 -62 31 -89 91 -89c56 0 90 30 90 81c0 36 -23 64 -58 70c-15 2 -31 2 -66 2zM653 709h58l-452 -729h-58zM720 100h-188v59l204 266h46v-272h67v-53h-67v-100h-62v100zM720 153v170l-129 -170h129z" />
    <glyph glyph-name="commaaccent" horiz-adv-x="333" 
d="M116 -60h100v-103c0 -75 -38 -122 -100 -121v38c38 0 57 31 55 86h-55v100z" />
    <glyph glyph-name="copyright" unicode="&#xa9;" horiz-adv-x="737" 
d="M544 437h-71c-17 66 -45 93 -98 93c-76 0 -125 -67 -125 -172c0 -51 13 -95 36 -124c21 -28 57 -46 89 -46c56 0 93 43 106 124h71c-12 -60 -22 -88 -41 -116c-33 -47 -79 -70 -136 -70c-115 0 -194 95 -194 231c0 140 79 235 197 235c89 0 142 -49 166 -155zM369 742
c211 0 382 -171 382 -381c0 -214 -171 -383 -387 -383c-205 0 -377 174 -377 382c0 211 171 382 382 382zM369 680c-173 0 -314 -144 -314 -320c0 -174 141 -320 310 -320c178 0 318 142 318 321c0 175 -141 319 -314 319z" />
    <glyph glyph-name="registered" unicode="&#xae;" horiz-adv-x="737" 
d="M272 325v-185h-70v445h206c95 0 141 -41 141 -126c0 -46 -13 -69 -54 -99c37 -24 44 -41 45 -112c1 -58 5 -70 23 -83v-25h-79c-9 21 -15 49 -15 77l1 40c0 48 -19 68 -64 68h-134zM272 388h129c52 0 75 21 75 67c0 47 -22 67 -75 67h-129v-134zM369 742
c211 0 382 -171 382 -381c0 -214 -171 -383 -387 -383c-205 0 -377 174 -377 382c0 211 171 382 382 382zM369 680c-173 0 -314 -144 -314 -320c0 -174 141 -320 310 -320c178 0 318 142 318 321c0 175 -141 319 -314 319z" />
    <glyph glyph-name="lozenge" unicode="&#x25ca;" horiz-adv-x="489" 
d="M270 744l192 -372l-192 -372h-62l-192 372l192 372h62zM240 60l160 312l-160 312l-161 -312z" />
    <glyph glyph-name="Delta" unicode="&#x394;" horiz-adv-x="711" 
d="M10 0l294 729h100l297 -729h-691zM355 616l-212 -534h423z" />
    <glyph glyph-name="notequal" unicode="&#x2260;" horiz-adv-x="548" 
d="M157 111h-125v70h164l57 102h-221v70h260l76 133l50 -28l-59 -105h157v-70h-196l-57 -102h253v-70h-292l-76 -136l-51 29z" />
    <glyph glyph-name="radical" unicode="&#x221a;" horiz-adv-x="542" 
d="M476 913l36 -5l-152 -944l-241 497l-94 -46l-18 33l148 73l193 -396z" />
    <glyph glyph-name="lessequal" unicode="&#x2264;" horiz-adv-x="584" 
d="M534 56v-67h-489v67h489zM45 363v69l489 207v-79l-394 -161l394 -164v-79z" />
    <glyph glyph-name="greaterequal" unicode="&#x2265;" horiz-adv-x="584" 
d="M534 56v-67h-489v67h489zM534 432v-69l-489 -207v79l394 161l-394 164v79z" />
    <glyph glyph-name="logicalnot" unicode="&#xac;" horiz-adv-x="584" 
d="M40 375h504v-289h-70v219h-434v70z" />
    <glyph glyph-name="summation" unicode="&#x2211;" horiz-adv-x="711" 
d="M616 753l7 -159h-22c-25 92 -53 113 -148 113h-261l269 -354l-290 -336h342c62 0 84 5 104 22c20 16 26 27 47 78c1 3 3 7 6 13h24c-22 -82 -31 -128 -43 -227c-21 6 -49 9 -80 9h-479c-41 0 -41 0 -75 -4l345 401l-345 451c41 -5 72 -7 113 -7h486z" />
    <glyph glyph-name="partialdiff" unicode="&#x2202;" horiz-adv-x="490" 
d="M102 670l-40 52c40 18 87 28 132 28c153 0 264 -145 264 -345c0 -103 -29 -234 -66 -302c-43 -77 -105 -118 -180 -118c-107 0 -190 85 -190 194c0 65 28 132 74 179c34 34 73 50 122 50c53 0 82 -12 150 -65c9 59 11 83 11 113c0 73 -21 148 -55 195
c-24 33 -63 52 -110 52c-36 0 -45 -3 -104 -29zM361 304c-25 41 -63 63 -105 63c-81 0 -147 -96 -147 -212c0 -87 33 -138 89 -138c55 0 101 44 127 122c15 44 23 77 36 165z" />
    <glyph glyph-name="brokenbar" unicode="&#xa6;" horiz-adv-x="260" 
d="M100 729h60v-401h-60v401zM100 189h60v-401h-60v401z" />
    <glyph glyph-name="mu" unicode="&#x3bc;" 
d="M544 49v-63c-26 -7 -39 -9 -57 -9c-57 0 -84 26 -86 83c-39 -55 -95 -83 -163 -83c-36 0 -65 8 -90 26v-223h-83v744h83v-371c0 -63 42 -103 107 -103c87 0 143 70 143 177v297h83v-436c0 -27 16 -41 45 -41c4 0 8 0 18 2z" />
    <glyph glyph-name="afii10017" unicode="&#x410;" horiz-adv-x="667" 
d="M474 219h-281l-77 -219h-99l260 729h120l256 -729h-104zM448 297l-112 332l-120 -332h232z" />
    <glyph glyph-name="afii10018" unicode="&#x411;" horiz-adv-x="667" 
d="M623 218c0 -57 -20 -119 -56 -157c-39 -42 -90 -61 -159 -61h-329v729h489v-82h-396v-212h236c90 0 215 -39 215 -217zM172 82h227c45 0 75 11 97 35c22 23 34 65 34 100c0 36 -12 78 -34 101c-22 24 -52 35 -97 35h-227v-271z" />
    <glyph glyph-name="afii10019" unicode="&#x412;" horiz-adv-x="667" 
d="M79 0v729h296c70 0 120 -16 158 -51c38 -34 58 -81 58 -134c0 -74 -35 -128 -101 -159c93 -36 133 -89 133 -177c0 -57 -20 -109 -56 -147c-39 -42 -90 -61 -159 -61h-329zM172 415h180c52 0 81 7 106 26c26 20 40 51 40 90c0 40 -14 70 -40 90c-25 19 -54 26 -106 26
h-180v-232zM172 82h227c45 0 75 11 97 35c22 23 34 55 34 90c0 36 -12 68 -34 91c-22 24 -52 35 -97 35h-227v-251z" />
    <glyph glyph-name="afii10020" unicode="&#x413;" horiz-adv-x="611" 
d="M172 0h-93v729h489v-82h-396v-647z" />
    <glyph glyph-name="afii10021" unicode="&#x414;" horiz-adv-x="812" 
d="M262 82h331v565h-262v-243c0 -122 -19 -244 -69 -322zM126 74c79 36 111 166 111 330v325h450v-655h91v-209h-80v135h-584v-135h-80v209h92z" />
    <glyph glyph-name="afii10022" unicode="&#x415;" horiz-adv-x="667" 
d="M172 332v-250h430v-82h-523v729h505v-82h-412v-233h397v-82h-397z" />
    <glyph glyph-name="afii10023" unicode="&#x401;" horiz-adv-x="667" 
d="M172 332v-250h430v-82h-523v729h505v-82h-412v-233h397v-82h-397zM303 914v-103h-104v103h104zM465 914v-103h-104v103h104z" />
    <glyph glyph-name="afii10024" unicode="&#x416;" horiz-adv-x="1023" 
d="M459 324l-286 -324h-110l325 375l-283 354h116l238 -308v308h93v-308l238 308h116l-283 -354l325 -375h-118l-278 324v-324h-93v324z" />
    <glyph glyph-name="afii10025" unicode="&#x417;" horiz-adv-x="667" 
d="M257 321v82h88c89 0 158 71 158 137c0 74 -65 123 -163 123c-116 0 -181 -53 -182 -148h-88c1 143 99 226 267 226c160 0 259 -82 259 -214c0 -75 -37 -124 -105 -153c83 -31 130 -92 130 -174c0 -63 -31 -128 -80 -167c-47 -36 -118 -56 -205 -56
c-111 0 -195 36 -245 104c-29 40 -42 84 -43 151h88c-1 -45 11 -80 38 -112c35 -42 89 -61 168 -61c59 0 105 11 134 31c31 22 52 62 52 101c0 79 -68 130 -163 130h-108z" />
    <glyph glyph-name="afii10026" unicode="&#x418;" horiz-adv-x="728" 
d="M79 729h88v-603l381 603h101v-729h-88v598l-377 -598h-105v729z" />
    <glyph glyph-name="afii10027" unicode="&#x419;" horiz-adv-x="728" 
d="M213 924h59c5 -44 35 -66 92 -66c54 0 87 24 91 66h59c-7 -89 -59 -135 -152 -135c-56 0 -101 20 -128 57c-14 20 -20 39 -21 78zM79 729h88v-603l381 603h101v-729h-88v598l-377 -598h-105v729z" />
    <glyph glyph-name="afii10028" unicode="&#x41a;" horiz-adv-x="667" 
d="M172 0h-93v729h93v-306l305 306h111l-345 -345l378 -384h-124l-325 333v-333z" />
    <glyph glyph-name="afii10029" unicode="&#x41b;" horiz-adv-x="673" 
d="M500 647h-262v-243c0 -206 -47 -414 -205 -414v94c80 0 111 148 111 320v325h450v-729h-94v647z" />
    <glyph glyph-name="afii10030" unicode="&#x41c;" horiz-adv-x="844" 
d="M472 0h-98l-207 611v-611h-88v729h129l216 -635l212 635h129v-729h-88v611z" />
    <glyph glyph-name="afii10031" unicode="&#x41d;" horiz-adv-x="719" 
d="M546 332h-373v-332h-94v729h93v-315h374v315h94v-729h-94v332z" />
    <glyph glyph-name="afii10032" unicode="&#x41e;" horiz-adv-x="778" 
d="M389 741c214 0 353 -153 353 -388c0 -119 -47 -232 -126 -299c-59 -50 -138 -77 -226 -77c-210 0 -352 154 -352 382s142 382 351 382zM389 659c-154 0 -258 -120 -258 -300s104 -300 259 -300c154 0 259 120 259 296c0 184 -102 304 -260 304z" />
    <glyph glyph-name="afii10033" unicode="&#x41f;" horiz-adv-x="719" 
d="M546 647h-373v-647h-94v729h561v-729h-94v647z" />
    <glyph glyph-name="afii10034" unicode="&#x420;" horiz-adv-x="667" 
d="M172 309v-309h-93v729h301c144 0 225 -77 225 -214c0 -67 -19 -114 -63 -154c-39 -35 -84 -52 -141 -52h-229zM172 391h194c89 0 142 48 142 128s-53 128 -142 128h-194v-256z" />
    <glyph glyph-name="afii10035" unicode="&#x421;" horiz-adv-x="722" 
d="M662 503h-95c-11 54 -26 85 -53 110c-30 28 -85 46 -144 46c-141 0 -229 -115 -229 -302c0 -182 92 -298 237 -298c78 0 140 34 170 94c15 29 25 63 33 113h96c-22 -193 -122 -289 -300 -289c-95 0 -167 27 -223 85c-69 71 -106 174 -106 294c0 118 36 222 102 294
c54 60 133 91 231 91c160 0 252 -78 281 -238z" />
    <glyph glyph-name="afii10036" unicode="&#x422;" horiz-adv-x="611" 
d="M354 647v-647h-93v647h-240v82h572v-82h-239z" />
    <glyph glyph-name="afii10037" unicode="&#x423;" horiz-adv-x="650" 
d="M252 0h-113l126 247l-239 482h113l179 -370l190 370h111z" />
    <glyph glyph-name="afii10038" unicode="&#x424;" horiz-adv-x="936" 
d="M494 636c89 0 335 -8 335 -271s-224 -271 -335 -271v-94h-95v94c-111 0 -335 8 -335 271s246 271 335 271v93h95v-93zM494 176c57 0 235 14 235 189s-178 189 -235 189v-378zM399 176v378c-57 0 -235 -14 -235 -189s178 -189 235 -189z" />
    <glyph glyph-name="afii10039" unicode="&#x425;" horiz-adv-x="667" 
d="M385 374l256 -374h-107l-203 298l-196 -298h-113l258 374l-242 355h113l182 -279l193 279h104z" />
    <glyph glyph-name="afii10040" unicode="&#x426;" horiz-adv-x="741" 
d="M546 82v647h94v-655h67v-209h-80v135h-548v729h94v-647h373z" />
    <glyph glyph-name="afii10041" unicode="&#x427;" horiz-adv-x="648" 
d="M476 260h-212c-126 0 -185 76 -185 192v277h93v-295c0 -62 41 -92 96 -92h208v387h93v-729h-93v260z" />
    <glyph glyph-name="afii10042" unicode="&#x428;" horiz-adv-x="828" 
d="M461 82h194v647h94v-729h-670v729h94v-647h194v647h94v-647z" />
    <glyph glyph-name="afii10043" unicode="&#x429;" horiz-adv-x="850" 
d="M736 0h-657v729h94v-647h194v647h94v-647h194v647h94v-655h67v-209h-80v135z" />
    <glyph glyph-name="afii10044" unicode="&#x42a;" horiz-adv-x="897" 
d="M312 0v647h-231v82h324v-278h221c132 0 230 -97 230 -225c0 -133 -98 -226 -230 -226h-314zM405 82h212c86 0 146 62 146 143c0 85 -59 144 -146 144h-212v-287z" />
    <glyph glyph-name="afii10045" unicode="&#x42b;" horiz-adv-x="872" 
d="M623 226c0 -133 -98 -226 -230 -226h-314v729h93v-278h221c132 0 230 -97 230 -225zM172 82h212c86 0 146 62 146 143c0 85 -59 144 -146 144h-212v-287zM793 729v-729h-94v729h94z" />
    <glyph glyph-name="afii10046" unicode="&#x42c;" horiz-adv-x="667" 
d="M623 226c0 -133 -98 -226 -230 -226h-314v729h93v-278h221c132 0 230 -97 230 -225zM172 82h212c86 0 146 62 146 143c0 85 -59 144 -146 144h-212v-287z" />
    <glyph glyph-name="afii10047" unicode="&#x42d;" horiz-adv-x="722" 
d="M584 332h-367v82h364c-16 153 -100 245 -226 245c-59 0 -114 -18 -144 -46c-27 -25 -42 -56 -53 -110h-95c29 160 121 238 281 238c98 0 177 -31 231 -91c66 -72 102 -176 102 -294c0 -120 -37 -223 -106 -294c-56 -58 -128 -85 -223 -85c-178 0 -278 96 -300 289h96
c8 -50 18 -84 33 -113c30 -60 92 -94 170 -94c138 0 228 105 237 273z" />
    <glyph glyph-name="afii10048" unicode="&#x42e;" horiz-adv-x="1032" 
d="M295 332h-118v-332h-94v729h93v-315h121c21 197 136 327 328 327c214 0 333 -153 333 -388c0 -119 -47 -232 -126 -299c-59 -50 -115 -77 -203 -77c-202 0 -324 142 -334 355zM625 659c-154 0 -238 -120 -238 -300s84 -300 239 -300c154 0 239 120 239 296
c0 184 -82 304 -240 304z" />
    <glyph glyph-name="afii10049" unicode="&#x42f;" horiz-adv-x="702" 
d="M419 314l-277 -314h-110l273 314c-141 0 -226 98 -226 207c0 57 20 109 56 147c39 42 90 61 159 61h329v-729h-93v314h-111zM530 647h-227c-45 0 -75 -11 -97 -35c-22 -23 -34 -56 -34 -91c0 -36 12 -67 34 -90c22 -24 52 -35 97 -35h227v251z" />
    <glyph glyph-name="afii10065" unicode="&#x430;" 
d="M535 49v-63c-27 -7 -40 -9 -57 -9c-54 0 -80 24 -86 77c-59 -54 -112 -77 -178 -77c-106 0 -172 60 -172 155c0 68 31 115 92 140c32 13 50 17 168 32c66 8 87 23 87 58v22c0 50 -42 78 -117 78c-78 0 -116 -29 -123 -93h-84c2 52 12 82 36 109c35 39 98 61 174 61
c129 0 197 -50 197 -143v-308c0 -26 16 -41 45 -41c5 0 9 0 18 2zM389 165v94c-28 -13 -46 -17 -134 -29c-89 -13 -126 -41 -126 -96c0 -53 38 -84 103 -84c49 0 90 16 124 47c25 23 33 40 33 68z" />
    <glyph glyph-name="afii10066" unicode="&#x431;" 
d="M117 469c38 61 113 70 155 70c151 0 238 -104 238 -285c0 -172 -90 -277 -237 -277c-149 0 -237 105 -237 281c0 184 32 400 171 432l133 26c29 7 56 32 56 59h74c0 -60 -1 -109 -111 -135l-135 -29c-53 -13 -95 -70 -107 -142zM273 462c-93 0 -150 -78 -150 -204
c0 -127 57 -204 150 -204c92 0 150 78 150 201c0 130 -56 207 -150 207z" />
    <glyph glyph-name="afii10067" unicode="&#x432;" horiz-adv-x="522" 
d="M70 0v524h219c51 0 85 -11 112 -36s40 -58 40 -96c0 -54 -22 -92 -69 -115c67 -26 96 -64 96 -127c0 -41 -15 -78 -41 -106c-28 -30 -64 -44 -114 -44h-243zM154 307h98c37 0 58 5 76 18c19 15 29 23 29 51c0 29 -10 39 -29 54c-18 14 -39 19 -76 19h-98v-142zM154 76
h132c32 0 53 8 69 26c16 16 22 28 22 53c0 26 1 41 -22 56c-20 13 -37 20 -69 20h-132v-155z" />
    <glyph glyph-name="afii10068" unicode="&#x433;" horiz-adv-x="430" 
d="M70 524h310v-76h-226v-448h-84v524z" />
    <glyph glyph-name="afii10069" unicode="&#x434;" horiz-adv-x="602" 
d="M87 64c49 5 82 135 82 257v203h339v-460h64v-184h-70v120h-402v-120h-70v184h57zM203 76h221v372h-172v-127c0 -84 -14 -181 -49 -245z" />
    <glyph glyph-name="afii10070" unicode="&#x435;" 
d="M513 234h-386c1 -52 8 -82 28 -112c28 -44 73 -68 126 -68c67 0 114 36 137 105h84c-21 -114 -104 -182 -224 -182c-147 0 -238 106 -238 278s94 284 240 284c98 0 178 -52 212 -138c15 -39 21 -87 21 -167zM129 302h294c1 2 1 4 1 6c0 86 -63 154 -145 154
c-84 0 -143 -63 -150 -160z" />
    <glyph glyph-name="afii10071" unicode="&#x451;" 
d="M257 716v-103h-104v103h104zM419 716v-103h-104v103h104zM513 234h-386c1 -52 8 -82 28 -112c28 -44 73 -68 126 -68c67 0 114 36 137 105h84c-21 -114 -104 -182 -224 -182c-147 0 -238 106 -238 278s94 284 240 284c98 0 178 -52 212 -138c15 -39 21 -87 21 -167z
M129 302h294c1 2 1 4 1 6c0 86 -63 154 -145 154c-84 0 -143 -63 -150 -160z" />
    <glyph glyph-name="afii10072" unicode="&#x436;" horiz-adv-x="837" 
d="M458 524v-201l192 201h107l-242 -250l274 -274h-106l-225 226v-226h-83v226l-225 -226h-106l274 274l-242 250h107l192 -201v201h83z" />
    <glyph glyph-name="afii10073" unicode="&#x437;" horiz-adv-x="500" 
d="M192 221v76h62c70 0 97 49 97 86c0 48 -43 79 -111 79c-62 0 -103 -29 -105 -84h-88c1 103 75 161 190 161c122 0 201 -63 201 -160c0 -53 -19 -86 -65 -112c59 -26 86 -64 86 -124c0 -101 -84 -166 -216 -166c-137 0 -205 58 -209 179h88c5 -37 11 -52 24 -67
c21 -22 59 -35 104 -35c73 0 118 33 118 82c0 38 -27 85 -87 85h-89z" />
    <glyph glyph-name="afii10074" unicode="&#x438;" horiz-adv-x="567" 
d="M70 524h84v-413l235 413h108v-524h-83v413l-235 -413h-109v524z" />
    <glyph glyph-name="afii10075" unicode="&#x439;" horiz-adv-x="567" 
d="M70 524h84v-413l235 413h108v-524h-83v413l-235 -413h-109v524zM133 699h59c5 -44 35 -66 92 -66c54 0 87 24 91 66h59c-7 -89 -59 -135 -152 -135c-56 0 -101 20 -128 57c-14 20 -20 39 -21 78z" />
    <glyph glyph-name="afii10076" unicode="&#x43a;" horiz-adv-x="510" 
d="M153 524v-212l212 212h96l-251 -250l274 -274h-106l-225 226v-226h-83v524h83z" />
    <glyph glyph-name="afii10077" unicode="&#x43b;" horiz-adv-x="557" 
d="M148 524h339v-524h-84v448h-172v-127c0 -154 -34 -331 -161 -331v80c50 0 78 108 78 251v203z" />
    <glyph glyph-name="afii10078" unicode="&#x43c;" horiz-adv-x="618" 
d="M70 524h104l135 -326l135 326h104v-524h-84v363l-130 -323h-50l-130 323v-363h-84v524z" />
    <glyph glyph-name="afii10079" unicode="&#x43d;" horiz-adv-x="558" 
d="M70 524h84v-215h250v215h84v-524h-84v233h-250v-233h-84v524z" />
    <glyph glyph-name="afii10080" unicode="&#x43e;" 
d="M272 539c151 0 238 -104 238 -285c0 -172 -90 -277 -237 -277c-149 0 -237 105 -237 281s89 281 236 281zM273 462c-93 0 -150 -78 -150 -204c0 -127 57 -204 150 -204c92 0 150 78 150 201c0 130 -56 207 -150 207z" />
    <glyph glyph-name="afii10081" unicode="&#x43f;" horiz-adv-x="557" 
d="M70 524h417v-524h-84v448h-249v-448h-84v524z" />
    <glyph glyph-name="afii10082" unicode="&#x440;" horiz-adv-x="576" 
d="M54 -218v742h77v-79c39 62 96 94 167 94c139 0 225 -110 225 -286c0 -167 -89 -276 -224 -276c-68 0 -117 24 -161 78v-273h-84zM284 461c-88 0 -146 -80 -146 -203s58 -203 146 -203c91 0 152 81 152 200c0 125 -60 206 -152 206z" />
    <glyph glyph-name="afii10083" unicode="&#x441;" horiz-adv-x="500" 
d="M471 348h-84c-10 73 -54 114 -124 114c-91 0 -145 -78 -145 -209c0 -124 55 -199 147 -199c71 0 114 42 128 126h84c-10 -128 -89 -203 -214 -203c-142 0 -232 107 -232 276c0 174 92 286 233 286c73 0 136 -29 172 -78c20 -29 31 -62 35 -113z" />
    <glyph glyph-name="afii10084" unicode="&#x442;" horiz-adv-x="496" 
d="M60 524h372v-76h-144v-448h-84v448h-144v76z" />
    <glyph glyph-name="afii10085" unicode="&#x443;" horiz-adv-x="500" 
d="M388 524h90l-233 -634c-14 -38 -31 -64 -57 -83c-22 -16 -51 -25 -78 -25c-22 0 -39 4 -56 13v75c18 -4 32 -6 44 -6c35 0 54 17 67 51l32 83l-177 526h89l134 -408z" />
    <glyph glyph-name="afii10086" unicode="&#x444;" horiz-adv-x="912" 
d="M495 445c29 61 74 94 145 94c139 0 210 -110 210 -286c0 -167 -74 -276 -209 -276c-68 0 -102 24 -146 78v-273h-83v278c-39 -57 -74 -83 -147 -83c-138 0 -204 105 -204 275c0 174 70 287 208 287c69 0 113 -37 143 -94v229h83v-229zM626 461c-88 0 -131 -80 -131 -203
s43 -203 131 -203c91 0 137 81 137 200c0 125 -45 206 -137 206zM281 461c-92 0 -133 -82 -133 -203c0 -122 41 -203 133 -203c88 0 131 80 131 200c0 126 -42 206 -131 206z" />
    <glyph glyph-name="afii10087" unicode="&#x445;" horiz-adv-x="500" 
d="M292 271l181 -271h-97l-131 201l-133 -201h-95l185 267l-175 257h95l126 -190l126 190h94z" />
    <glyph glyph-name="afii10088" unicode="&#x446;" horiz-adv-x="578" 
d="M70 0v524h84v-448h249v448h84v-460h61v-184h-70v120h-408z" />
    <glyph glyph-name="afii10089" unicode="&#x447;" horiz-adv-x="520" 
d="M70 524h84v-187c0 -49 28 -70 68 -70h144v257h84v-524h-84v191h-141c-81 0 -155 49 -155 143v190z" />
    <glyph glyph-name="afii10090" unicode="&#x448;" horiz-adv-x="692" 
d="M388 76h150v448h84v-524h-552v524h84v-448h150v448h84v-448z" />
    <glyph glyph-name="afii10091" unicode="&#x449;" horiz-adv-x="712" 
d="M612 0h-542v524h84v-448h150v448h84v-448h150v448h84v-460h60v-184h-70v120z" />
    <glyph glyph-name="afii10092" unicode="&#x44a;" horiz-adv-x="734" 
d="M240 0v448h-183v76h267v-183h162c97 0 167 -66 167 -174c0 -98 -70 -167 -167 -167h-246zM324 76h124c96 0 114 42 114 88c0 72 -38 101 -114 101h-124v-189z" />
    <glyph glyph-name="afii10093" unicode="&#x44b;" horiz-adv-x="690" 
d="M154 524v-183h162c98 0 167 -66 167 -174c0 -98 -70 -167 -167 -167h-246v524h84zM154 76h124c96 0 114 42 114 88c0 72 -38 101 -114 101h-124v-189zM620 524v-524h-83v524h83z" />
    <glyph glyph-name="afii10094" unicode="&#x44c;" horiz-adv-x="552" 
d="M154 524v-183h162c98 0 167 -66 167 -174c0 -98 -70 -167 -167 -167h-246v524h84zM154 76h124c96 0 114 42 114 88c0 72 -38 101 -114 101h-124v-189z" />
    <glyph glyph-name="afii10095" unicode="&#x44d;" horiz-adv-x="500" 
d="M163 232v77h224c-14 97 -65 153 -142 153c-70 0 -114 -41 -124 -114h-84c4 51 15 84 35 113c36 49 99 78 172 78c141 0 233 -112 233 -286c0 -169 -90 -276 -232 -276c-125 0 -204 75 -214 203h84c14 -84 57 -126 128 -126c87 0 141 66 147 178h-227z" />
    <glyph glyph-name="afii10096" unicode="&#x44e;" horiz-adv-x="758" 
d="M250 309c0 48 38 230 233 230c151 0 238 -104 238 -285c0 -172 -90 -277 -237 -277c-194 0 -236 172 -236 256h-94v-233h-84v524h84v-215h96zM484 462c-93 0 -150 -78 -150 -204c0 -127 57 -204 150 -204c92 0 150 78 150 201c0 130 -56 207 -150 207z" />
    <glyph glyph-name="afii10097" unicode="&#x44f;" horiz-adv-x="543" 
d="M219 221c-83 7 -149 53 -149 154c0 45 15 78 41 106c28 30 64 43 114 43h248v-524h-84v218h-69l-203 -218h-103zM389 449h-137c-32 0 -53 -8 -69 -26c-16 -16 -22 -28 -22 -53c0 -26 -1 -41 22 -56c20 -13 37 -20 69 -20h137v155z" />
    <glyph glyph-name="uni0400" unicode="&#x400;" horiz-adv-x="667" 
d="M351 917l96 -148h-60l-149 148h113zM183 332v-250h430v-82h-523v729h505v-82h-412v-233h397v-82h-397z" />
    <glyph glyph-name="afii10051" unicode="&#x402;" horiz-adv-x="738" 
d="M464 -174v82h48c55 0 96 30 96 92v295c0 62 -41 92 -96 92h-198v-387h-93v647h-200v82h492v-82h-199v-178h202c126 0 185 -76 185 -192v-259c0 -116 -59 -192 -185 -192h-52z" />
    <glyph glyph-name="afii10052" unicode="&#x403;" horiz-adv-x="611" 
d="M183 0h-93v729h489v-82h-396v-647zM326 917h113l-149 -148h-60z" />
    <glyph glyph-name="afii10053" unicode="&#x404;" horiz-adv-x="722" 
d="M142 332c8 -168 98 -273 236 -273c78 0 140 34 170 94c15 29 25 63 33 113h96c-22 -193 -122 -289 -300 -289c-95 0 -167 27 -223 85c-69 71 -106 174 -106 294c0 118 36 222 102 294c54 60 133 91 231 91c160 0 252 -78 281 -238h-95c-11 54 -26 85 -53 110
c-30 28 -85 46 -144 46c-126 0 -210 -92 -226 -245h364v-82h-366z" />
    <glyph glyph-name="afii10054" unicode="&#x405;" horiz-adv-x="667" 
d="M596 515h-88c-1 95 -66 148 -182 148c-98 0 -163 -49 -163 -123c0 -56 32 -84 120 -108l183 -49c99 -27 155 -93 155 -183c0 -63 -31 -128 -80 -167c-47 -36 -118 -56 -205 -56c-111 0 -195 36 -245 104c-29 40 -42 84 -43 151h88c-1 -45 11 -80 38 -112
c35 -42 89 -61 168 -61c59 0 105 11 134 31c31 22 52 62 52 101c0 57 -42 94 -134 118l-181 48c-96 25 -143 81 -143 170c0 132 99 214 259 214c168 0 266 -83 267 -226z" />
    <glyph glyph-name="afii10055" unicode="&#x406;" horiz-adv-x="278" 
d="M194 729v-729h-94v729h94z" />
    <glyph glyph-name="afii10056" unicode="&#x407;" horiz-adv-x="278" 
d="M112 908v-103h-104v103h104zM274 908v-103h-104v103h104zM194 729v-729h-94v729h94z" />
    <glyph glyph-name="afii10057" unicode="&#x408;" horiz-adv-x="500" 
d="M333 729h93v-547c0 -126 -79 -205 -206 -205c-125 0 -203 75 -203 193v64h95v-47c0 -85 39 -132 109 -132c37 0 71 17 89 45c17 25 23 58 23 116v513z" />
    <glyph glyph-name="afii10058" unicode="&#x409;" horiz-adv-x="1080" 
d="M513 0v647h-225c0 -225 22 -647 -205 -647v94c125 0 111 330 111 635h413v-314h144c178 0 255 -77 271 -207c0 -57 -20 -109 -56 -147c-39 -42 -90 -61 -159 -61h-294zM607 82h191c45 0 75 11 97 35c22 23 34 55 34 90c0 36 -12 68 -34 91c-22 24 -52 35 -97 35h-191
v-251z" />
    <glyph glyph-name="afii10059" unicode="&#x40a;" horiz-adv-x="1014" 
d="M481 0v332h-304v-332h-94v729h93v-315h305v315h93v-314h127c178 0 255 -77 271 -207c0 -57 -20 -109 -56 -147c-39 -42 -90 -61 -159 -61h-276zM574 82h174c45 0 75 11 97 35c22 23 34 55 34 90c0 36 -12 68 -34 91c-22 24 -52 35 -97 35h-174v-251z" />
    <glyph glyph-name="afii10060" unicode="&#x40b;" horiz-adv-x="748" 
d="M314 469h212c126 0 185 -76 185 -192v-277h-93v295c0 62 -41 92 -96 92h-208v-387h-93v647h-200v82h492v-82h-199v-178z" />
    <glyph glyph-name="afii10061" unicode="&#x40c;" horiz-adv-x="667" 
d="M172 0h-93v729h93v-315l363 315h120l-412 -354l415 -375h-110l-376 324v-324zM358 917h113l-149 -148h-60z" />
    <glyph glyph-name="uni040D" unicode="&#x40d;" horiz-adv-x="722" 
d="M76 729h88v-596l381 596h101v-729h-88v591l-377 -591h-105v729zM370 917l96 -148h-60l-149 148h113z" />
    <glyph glyph-name="afii10062" unicode="&#x40e;" horiz-adv-x="650" 
d="M252 0h-113l129 244l-242 485h113l185 -379l184 379h111zM172 904h59c5 -44 35 -66 92 -66c54 0 87 24 91 66h59c-7 -89 -59 -135 -152 -135c-56 0 -101 20 -128 57c-14 20 -20 39 -21 78z" />
    <glyph glyph-name="afii10145" unicode="&#x40f;" horiz-adv-x="722" 
d="M404 0v-135h-80v135h-241v729h94v-647h374v647h94v-729h-241z" />
    <glyph glyph-name="uni0450" unicode="&#x450;" 
d="M251 740l96 -148h-60l-149 148h113zM513 234h-386c1 -52 8 -82 28 -112c28 -44 73 -68 126 -68c67 0 114 36 137 105h84c-21 -114 -104 -182 -224 -182c-147 0 -238 106 -238 278s94 284 240 284c98 0 178 -52 212 -138c15 -39 21 -87 21 -167zM129 302h294c1 2 1 4 1 6
c0 86 -63 154 -145 154c-84 0 -143 -63 -150 -160z" />
    <glyph glyph-name="afii10099" unicode="&#x452;" horiz-adv-x="582" 
d="M321 -143v73c27 0 54 9 74 24c24 17 34 42 34 79v291c0 37 -10 62 -34 79c-20 15 -47 24 -74 24c-86 0 -142 -70 -142 -177v-250h-83v588h-81v70h81v71h83v-71h190v-70h-190v-175c49 64 94 87 168 87c102 0 165 -55 165 -143v-357c0 -88 -63 -143 -165 -143h-26z" />
    <glyph glyph-name="afii10100" unicode="&#x453;" horiz-adv-x="430" 
d="M70 524h295v-76h-211v-448h-84v524zM209 712h113l-149 -148h-60z" />
    <glyph glyph-name="afii10101" unicode="&#x454;" horiz-adv-x="500" 
d="M344 232h-226c6 -112 60 -178 147 -178c71 0 114 42 128 126h84c-10 -128 -89 -203 -214 -203c-142 0 -232 107 -232 276c0 174 92 286 233 286c73 0 136 -29 172 -78c20 -29 31 -62 35 -113h-84c-10 73 -54 114 -124 114c-77 0 -128 -56 -142 -153h223v-77z" />
    <glyph glyph-name="afii10102" unicode="&#x455;" horiz-adv-x="500" 
d="M438 378h-88c-2 55 -38 84 -105 84c-68 0 -111 -31 -111 -79c0 -37 29 -59 97 -75l80 -19c104 -25 148 -68 148 -146c0 -101 -84 -166 -216 -166c-137 0 -205 58 -209 179h88c5 -37 11 -52 24 -67c21 -22 59 -35 104 -35c73 0 122 33 122 82c0 38 -23 59 -81 73l-78 19
c-124 30 -166 69 -166 151c0 97 79 160 201 160c121 0 189 -58 190 -161z" />
    <glyph glyph-name="afii10103" unicode="&#x456;" horiz-adv-x="222" 
d="M150 524v-524h-83v524h83zM150 729v-105h-84v105h84z" />
    <glyph glyph-name="afii10104" unicode="&#x457;" horiz-adv-x="278" 
d="M107 708v-103h-104v103h104zM269 708v-103h-104v103h104zM178 524v-524h-84v524h84z" />
    <glyph glyph-name="afii10105" unicode="&#x458;" horiz-adv-x="222" 
d="M70 524h83v-633c0 -71 -49 -109 -143 -109c-13 0 -18 1 -28 3v71c17 -1 17 -1 20 -1c51 0 68 17 68 69v600zM153 729v-105h-83v105h83z" />
    <glyph glyph-name="afii10106" unicode="&#x459;" horiz-adv-x="884" 
d="M403 0v448h-172c1 -156 5 -448 -161 -448v80c80 0 78 212 78 444h338v-183h113c150 0 216 -66 216 -174c0 -98 -70 -167 -167 -167h-245zM486 76h124c96 0 114 42 114 88c0 72 -38 101 -114 101h-124v-189z" />
    <glyph glyph-name="afii10107" unicode="&#x45a;" horiz-adv-x="885" 
d="M404 0v233h-250v-233h-84v524h84v-215h250v215h83v-183h113c150 0 216 -66 216 -174c0 -98 -70 -167 -167 -167h-245zM487 76h124c96 0 114 42 114 88c0 72 -38 101 -114 101h-124v-189z" />
    <glyph glyph-name="afii10108" unicode="&#x45b;" horiz-adv-x="582" 
d="M96 658v71h83v-71h190v-70h-190v-175c49 64 94 87 168 87c102 0 165 -55 165 -143v-357h-83v324c0 37 -10 62 -34 79c-20 15 -47 24 -74 24c-86 0 -142 -70 -142 -177v-250h-83v588h-81v70h81z" />
    <glyph glyph-name="afii10109" unicode="&#x45c;" horiz-adv-x="500" 
d="M141 524v-222l222 222h107l-272 -260l304 -264h-103l-258 216v-216h-83v524h83zM255 712h113l-149 -148h-60z" />
    <glyph glyph-name="uni045D" unicode="&#x45d;" 
d="M70 524h84v-413l235 413h98v-524h-83v413l-235 -413h-99v524zM287 712l96 -148h-60l-149 148h113z" />
    <glyph glyph-name="afii10110" unicode="&#x45e;" horiz-adv-x="500" 
d="M98 699h59c5 -44 35 -66 92 -66c54 0 87 24 91 66h59c-7 -89 -59 -135 -152 -135c-56 0 -101 20 -128 57c-14 20 -20 39 -21 78zM388 524h90l-233 -634c-16 -42 -31 -64 -57 -83c-22 -16 -51 -25 -78 -25c-22 0 -39 4 -56 13v75c18 -4 32 -6 44 -6c35 0 54 14 67 51
l32 83l-177 526h89l134 -408z" />
    <glyph glyph-name="afii10193" unicode="&#x45f;" 
d="M314 0v-120h-70v120h-174v524h84v-448h250v448h84v-524h-174z" />
    <glyph glyph-name="uni048C" unicode="&#x48c;" horiz-adv-x="667" 
d="M172 82h227c45 0 75 11 97 35c22 23 34 55 34 90c0 36 -12 68 -34 91c-22 24 -52 35 -97 35h-227v-251zM172 609h92v-70h-92v-124h180c178 0 255 -77 271 -207c0 -57 -20 -109 -56 -147c-39 -42 -90 -61 -159 -61h-329v539h-89v70h89v120h93v-120z" />
    <glyph glyph-name="uni048D" unicode="&#x48d;" horiz-adv-x="552" 
d="M154 76h152c32 0 53 8 69 26c16 16 22 28 22 45c0 26 1 49 -22 64c-20 13 -37 20 -69 20h-152v-155zM70 452v72h84v-72h72v-70h-72v-75h118c150 0 216 -49 216 -157c0 -45 -15 -78 -41 -106c-28 -30 -64 -44 -114 -44h-263v382h-62v70h62z" />
    <glyph glyph-name="uni048E" unicode="&#x48e;" horiz-adv-x="667" 
d="M489 432c20 21 31 51 31 87c0 80 -53 128 -142 128h-194v-256h194c17 0 33 2 47 5l-54 54l50 50zM497 325c-25 -11 -53 -16 -84 -16h-229v-309h-93v729h301c144 0 225 -77 225 -214c0 -66 -18 -112 -60 -151l58 -58l-50 -50z" />
    <glyph glyph-name="uni048F" unicode="&#x48f;" 
d="M398 115c24 35 38 83 38 140c0 125 -60 206 -152 206c-88 0 -146 -80 -146 -203s58 -203 146 -203c22 0 43 5 61 14l-64 64l49 50zM461 52l63 -63l-49 -50l-67 67c-31 -19 -68 -29 -109 -29c-68 0 -117 24 -161 78v-273h-84v742h77v-79c39 62 96 94 167 94
c139 0 225 -110 225 -286c0 -84 -22 -153 -62 -201z" />
    <glyph glyph-name="afii10050" unicode="&#x490;" horiz-adv-x="611" 
d="M183 0h-93v729h396v96h93v-178h-396v-647z" />
    <glyph glyph-name="afii10098" unicode="&#x491;" horiz-adv-x="430" 
d="M70 524h211v105h84v-181h-211v-448h-84v524z" />
    <glyph glyph-name="uni0492" unicode="&#x492;" horiz-adv-x="611" 
d="M172 493h106v-70h-106v-423h-93v423h-75v70h75v236h489v-82h-396v-154z" />
    <glyph glyph-name="uni0493" unicode="&#x493;" horiz-adv-x="430" 
d="M70 328v196h310v-76h-226v-120h68v-70h-68v-258h-84v258h-62v70h62z" />
    <glyph glyph-name="uni0494" unicode="&#x494;" horiz-adv-x="611" 
d="M183 0h-93v729h489v-82h-396v-178h172c126 0 185 -76 185 -192v-259c0 -116 -59 -192 -185 -192h-52v82h48c55 0 96 30 96 92v295c0 62 -41 92 -96 92h-168v-387z" />
    <glyph glyph-name="uni0495" unicode="&#x495;" horiz-adv-x="490" 
d="M154 448v-185c22 65 64 87 138 87c102 0 135 -55 135 -143v-207c0 -88 -63 -143 -165 -143h-26v73c27 0 54 9 74 24c24 17 34 42 34 79v141c0 76 -22 103 -78 103c-86 0 -112 -70 -112 -177v-100h-84v524h295v-76h-211z" />
    <glyph glyph-name="uni0496" unicode="&#x496;" horiz-adv-x="1023" 
d="M884 74h64v-209h-80v135h-30l-286 324v-324h-93v324l-286 -324h-110l325 375l-287 354h120l238 -308v308h93v-308l238 308h120l-287 -354z" />
    <glyph glyph-name="uni0497" unicode="&#x497;" horiz-adv-x="837" 
d="M745 64h74v-184h-70v120h-33l-258 216v-216h-83v216l-258 -216h-103l304 264l-272 260h107l222 -222v222h83v-222l222 222h107l-272 -260z" />
    <glyph glyph-name="uni0498" unicode="&#x498;" horiz-adv-x="667" 
d="M375 -22c35 -22 54 -54 54 -89c0 -39 -21 -65 -63 -81c-22 -8 -47 -13 -69 -13c-19 0 -52 5 -76 10v45c18 -7 39 -10 63 -10c47 0 72 19 72 54c0 34 -14 56 -58 84c-92 8 -163 43 -207 103c-29 40 -42 84 -43 151h88c-1 -45 11 -80 38 -112c35 -42 89 -61 168 -61
c59 0 105 11 134 31c31 22 52 62 52 101c0 57 -68 130 -163 130h-108v82h88c89 0 158 81 158 137c0 74 -65 123 -163 123c-116 0 -181 -53 -182 -148h-88c1 143 99 226 267 226c160 0 259 -82 259 -214c0 -75 -37 -124 -105 -153c83 -31 130 -92 130 -174
c0 -63 -31 -128 -80 -167c-40 -30 -96 -49 -166 -55z" />
    <glyph glyph-name="uni0499" unicode="&#x499;" horiz-adv-x="500" 
d="M281 -21c34 -23 54 -55 54 -90c0 -39 -21 -65 -63 -81c-22 -8 -47 -13 -69 -13c-19 0 -52 5 -76 10v45c18 -7 39 -10 63 -10c47 0 72 19 72 54c0 34 -14 56 -59 85c-110 10 -165 68 -169 177h88c5 -37 11 -52 24 -67c21 -22 59 -35 104 -35c73 0 118 33 118 82
c0 38 -42 85 -102 85h-74v76h62c70 0 97 49 97 86c0 48 -43 79 -111 79c-67 0 -103 -29 -105 -84h-88c1 103 69 161 190 161c122 0 201 -63 201 -160c0 -53 -19 -86 -65 -112c59 -26 86 -64 86 -124c0 -91 -68 -153 -178 -164z" />
    <glyph glyph-name="uni049A" unicode="&#x49a;" horiz-adv-x="667" 
d="M548 74h73v-209h-80v135h-44l-325 333v-333h-93v729h93v-306l305 306h111l-345 -345z" />
    <glyph glyph-name="uni049B" unicode="&#x49b;" horiz-adv-x="510" 
d="M420 64h64v-184h-70v120h-36l-225 226v-226h-83v524h83v-212l212 212h96l-251 -250z" />
    <glyph glyph-name="uni049C" unicode="&#x49c;" horiz-adv-x="667" 
d="M220 283l-48 41v-324h-93v729h93v-315l48 42v137h70v-77l245 213h120l-365 -314v-82l374 -333h-116l-258 222v-63h-70v124z" />
    <glyph glyph-name="uni049D" unicode="&#x49d;" horiz-adv-x="500" 
d="M190 175l-49 41v-216h-83v524h83v-222l49 49v107h70v-37l103 103h107l-210 -201v-113l242 -210h-103l-139 116v-42h-70v101z" />
    <glyph glyph-name="uni049E" unicode="&#x49e;" horiz-adv-x="667" 
d="M172 623h96v-70h-96v-139l363 315h120l-412 -354l415 -375h-110l-376 324v-324h-93v553h-85v70h85v106h93v-106z" />
    <glyph glyph-name="uni049F" unicode="&#x49f;" horiz-adv-x="500" 
d="M58 478v46h83v-46h71v-70h-71v-106l222 222h107l-272 -260l304 -264h-103l-258 216v-216h-83v408h-60v70h60z" />
    <glyph glyph-name="uni04A0" unicode="&#x4a0;" horiz-adv-x="900" 
d="M312 647h-231v82h324v-315l363 315h120l-412 -354l415 -375h-110l-376 324v-324h-93v647z" />
    <glyph glyph-name="uni04A1" unicode="&#x4a1;" horiz-adv-x="683" 
d="M241 448h-184v76h267v-222l222 222h107l-272 -260l304 -264h-103l-258 216v-216h-83v448z" />
    <glyph glyph-name="uni04A2" unicode="&#x4a2;" horiz-adv-x="722" 
d="M644 74h67v-209h-80v135h-81v332h-373v-332h-94v729h93v-315h374v315h94v-655z" />
    <glyph glyph-name="uni04A3" unicode="&#x4a3;" 
d="M488 64h60v-184h-70v120h-74v233h-250v-233h-84v524h84v-215h250v215h84v-460z" />
    <glyph glyph-name="uni04A4" unicode="&#x4a4;" horiz-adv-x="1000" 
d="M644 0h-94v332h-373v-332h-94v729h93v-315h374v315h418v-82h-324v-647z" />
    <glyph glyph-name="uni04A5" unicode="&#x4a5;" horiz-adv-x="764" 
d="M488 0h-84v233h-250v-233h-84v524h84v-215h250v215h295v-76h-211v-448z" />
    <glyph glyph-name="uni04A6" unicode="&#x4a6;" horiz-adv-x="1061" 
d="M644 729v-260h172c126 0 185 -76 185 -192v-259c0 -116 -59 -192 -185 -192h-52v82h48c55 0 96 30 96 92v295c0 62 -41 92 -96 92h-168v-387h-94v647h-373v-647h-94v729h561z" />
    <glyph glyph-name="uni04A7" unicode="&#x4a7;" horiz-adv-x="826" 
d="M487 524v-261c22 65 64 87 138 87c102 0 135 -55 135 -143v-207c0 -88 -63 -143 -165 -143h-26v73c27 0 54 9 74 24c24 17 34 42 34 79v141c0 76 -22 103 -78 103c-86 0 -112 -70 -112 -177v-100h-84v448h-249v-448h-84v524h417z" />
    <glyph glyph-name="uni04A8" unicode="&#x4a8;" horiz-adv-x="722" 
d="M378 59c55 0 97 17 128 43c-45 51 -72 111 -72 201c0 72 50 149 122 149c68 0 121 -52 121 -148c0 -75 -15 -140 -46 -193c22 -17 47 -35 75 -53l-54 -76c-28 20 -55 39 -79 58c-49 -40 -115 -63 -196 -63c-95 0 -167 27 -223 85c-69 71 -106 174 -106 294
c0 118 36 222 102 294c54 60 133 91 231 91c160 0 252 -78 281 -238h-95c-11 54 -26 85 -53 110c-30 28 -85 46 -144 46c-141 0 -229 -115 -229 -302c0 -182 92 -298 237 -298zM562 184c15 38 21 81 21 120c0 21 -5 55 -26 55c-24 0 -29 -32 -29 -56c0 -48 12 -86 34 -119z
" />
    <glyph glyph-name="uni04A9" unicode="&#x4a9;" horiz-adv-x="500" 
d="M435 57c16 -6 32 -10 50 -14l-23 -64c-30 7 -57 17 -80 30c-33 -21 -74 -32 -119 -32c-142 0 -232 107 -232 276c0 174 92 286 233 286c73 0 136 -29 172 -78c20 -29 31 -62 35 -113h-84c-10 73 -54 114 -124 114c-91 0 -145 -78 -145 -209c0 -124 54 -199 147 -199
c19 0 35 3 50 9c-28 36 -43 79 -43 127c0 70 53 116 99 116c58 0 106 -56 106 -116c0 -52 -15 -98 -42 -133zM369 108c16 23 24 52 24 82c0 27 -3 60 -23 60c-14 0 -20 -25 -20 -62c0 -34 7 -60 19 -80z" />
    <glyph glyph-name="uni04AA" unicode="&#x4aa;" horiz-adv-x="722" 
d="M333 -21c-74 7 -132 34 -179 83c-69 71 -106 174 -106 294c0 118 36 222 102 294c54 60 133 91 231 91c160 0 252 -78 281 -238h-95c-11 54 -26 85 -53 110c-30 28 -85 46 -144 46c-141 0 -229 -115 -229 -302c0 -182 92 -298 237 -298c78 0 140 34 170 94
c15 29 25 63 33 113h96c-21 -180 -109 -276 -265 -288c34 -23 53 -54 53 -89c0 -39 -21 -65 -63 -81c-22 -8 -47 -13 -69 -13c-19 0 -52 5 -76 10v45c18 -7 39 -10 63 -10c47 0 72 19 72 54c0 34 -14 56 -59 85z" />
    <glyph glyph-name="uni04AB" unicode="&#x4ab;" horiz-adv-x="500" 
d="M221 -20c-117 20 -190 121 -190 273c0 174 92 286 233 286c73 0 136 -29 172 -78c20 -29 31 -62 35 -113h-84c-10 73 -54 114 -124 114c-91 0 -145 -78 -145 -209c0 -124 55 -199 147 -199c71 0 114 42 128 126h84c-9 -115 -73 -187 -177 -201c35 -23 55 -54 55 -90
c0 -39 -21 -65 -63 -81c-22 -8 -47 -13 -69 -13c-19 0 -52 5 -76 10v45c18 -7 39 -10 63 -10c47 0 72 19 72 54s-14 57 -61 86z" />
    <glyph glyph-name="uni04AC" unicode="&#x4ac;" horiz-adv-x="611" 
d="M354 74h67v-209h-80v135h-80v647h-240v82h572v-82h-239v-573z" />
    <glyph glyph-name="uni04AD" unicode="&#x4ad;" horiz-adv-x="496" 
d="M288 64h60v-184h-70v120h-74v448h-144v76h372v-76h-144v-384z" />
    <glyph glyph-name="uni04AE" unicode="&#x4ae;" horiz-adv-x="667" 
d="M387 286v-286h-93v286l-281 443h115l214 -355l208 355h111z" />
    <glyph glyph-name="uni04AF" unicode="&#x4af;" horiz-adv-x="667" 
d="M387 86v-286h-93v286l-241 438h115l174 -350l168 350h111z" />
    <glyph glyph-name="uni04B0" unicode="&#x4b0;" horiz-adv-x="667" 
d="M294 190h-220v70h220v26l-281 443h115l214 -355l208 355h111l-274 -443v-26h220v-70h-220v-190h-93v190z" />
    <glyph glyph-name="uni04B1" unicode="&#x4b1;" horiz-adv-x="667" 
d="M387 86h220v-70h-220v-216h-93v216h-220v70h220l-241 438h115l174 -350l168 350h111z" />
    <glyph glyph-name="uni04B2" unicode="&#x4b2;" horiz-adv-x="667" 
d="M598 74h51v-209h-80v135h-35l-199 304l-200 -304h-113l258 374l-242 355h113l187 -286l188 286h111l-246 -355z" />
    <glyph glyph-name="uni04B3" unicode="&#x4b3;" horiz-adv-x="500" 
d="M430 64h43v-184h-70v120h-27l-131 201l-133 -201h-95l185 267l-175 257h95l126 -190l126 190h94l-176 -253z" />
    <glyph glyph-name="uni04B4" unicode="&#x4b4;" horiz-adv-x="942" 
d="M345 647v-565h373v647h94v-655h92v-209h-80v135h-573v647h-230v82h551v-82h-227z" />
    <glyph glyph-name="uni04B5" unicode="&#x4b5;" horiz-adv-x="732" 
d="M194 448h-134v76h352v-76h-134v-372h249v448h84v-460h81v-184h-70v120h-428v448z" />
    <glyph glyph-name="uni04B6" unicode="&#x4b6;" horiz-adv-x="648" 
d="M569 74h67v-209h-80v135h-80v260h-212c-126 0 -185 76 -185 192v277h93v-295c0 -62 41 -92 96 -92h208v387h93v-655z" />
    <glyph glyph-name="uni04B7" unicode="&#x4b7;" horiz-adv-x="520" 
d="M441 0h-75v191h-141c-81 0 -155 49 -155 143v190h84v-187c0 -49 28 -70 68 -70h144v257h84v-460h61v-184h-70v120z" />
    <glyph glyph-name="uni04B8" unicode="&#x4b8;" horiz-adv-x="648" 
d="M295 342v137h70v-137h111v387h93v-729h-93v260h-111v-125h-70v125h-31c-126 0 -185 76 -185 192v277h93v-295c0 -62 41 -92 96 -92h27z" />
    <glyph glyph-name="uni04B9" unicode="&#x4b9;" horiz-adv-x="520" 
d="M230 191h-5c-81 0 -155 49 -155 143v190h84v-187c0 -49 28 -70 68 -70h8v103h70v-103h66v257h84v-524h-84v191h-66v-93h-70v93z" />
    <glyph glyph-name="uni04BA" unicode="&#x4ba;" horiz-adv-x="648" 
d="M172 469h212c126 0 185 -76 185 -192v-277h-93v295c0 62 -41 92 -96 92h-208v-387h-93v729h93v-260z" />
    <glyph glyph-name="uni04BB" unicode="&#x4bb;" horiz-adv-x="520" 
d="M450 0h-84v187c0 49 -28 70 -68 70h-144v-257h-84v524h84v-191h141c81 0 155 -49 155 -143v-190z" />
    <glyph glyph-name="uni04BC" unicode="&#x4bc;" horiz-adv-x="927" 
d="M774 466c-6 41 -13 82 -22 99c-30 60 -92 94 -170 94c-115 0 -196 -73 -225 -193h417zM252 384c-145 3 -205 102 -205 202c0 104 56 171 140 171c44 0 82 -17 103 -46c12 -18 19 -38 21 -68h-50c-6 44 -32 68 -74 68c-55 0 -87 -47 -87 -125c0 -75 33 -120 88 -120h74
c15 75 48 141 96 190c56 58 128 85 223 85c177 0 299 -94 300 -353l1 -4h-1h-96h-439c-1 -8 -1 -15 -1 -23c0 -187 88 -302 229 -302c59 0 114 18 144 46c27 25 42 56 53 110h95c-29 -160 -121 -238 -281 -238c-98 0 -177 31 -231 91c-66 72 -102 176 -102 294v22z" />
    <glyph glyph-name="uni04BD" unicode="&#x4bd;" horiz-adv-x="716" 
d="M289 302h294c1 2 1 4 1 6c0 86 -63 154 -145 154c-84 0 -143 -63 -150 -160zM200 234c-114 2 -158 81 -158 148c0 70 37 114 93 114c29 0 54 -11 69 -31c8 -11 12 -25 14 -45h-34c-4 29 -21 46 -49 46c-37 0 -58 -32 -58 -84c0 -50 22 -80 58 -80h67
c16 145 106 237 238 237c98 0 178 -52 212 -138c15 -39 21 -87 21 -167h-386c1 -52 8 -82 28 -112c28 -44 73 -68 126 -68c67 0 114 36 137 105h84c-21 -114 -104 -182 -224 -182c-141 0 -230 97 -238 257z" />
    <glyph glyph-name="uni04BE" unicode="&#x4be;" horiz-adv-x="927" 
d="M774 466c-6 41 -13 82 -22 99c-30 60 -92 94 -170 94c-115 0 -196 -73 -225 -193h417zM542 -21c-78 8 -142 38 -188 89c-66 72 -102 176 -102 294v22c-145 3 -205 102 -205 202c0 104 56 171 140 171c44 0 82 -17 103 -46c12 -18 19 -38 21 -68h-50c-6 44 -32 68 -74 68
c-55 0 -87 -47 -87 -125c0 -75 33 -120 88 -120h74c15 75 48 141 96 190c56 58 128 85 223 85c177 0 299 -94 300 -353l1 -4h-1h-96h-439c-1 -8 -1 -15 -1 -23c0 -187 88 -302 229 -302c59 0 114 18 144 46c27 25 42 56 53 110h95c-27 -148 -107 -226 -245 -237
c34 -23 53 -54 53 -89c0 -39 -21 -65 -63 -81c-22 -8 -47 -13 -69 -13c-19 0 -52 5 -76 10v45c18 -7 39 -10 63 -10c47 0 72 19 72 54c0 34 -14 56 -59 85z" />
    <glyph glyph-name="uni04BF" unicode="&#x4bf;" horiz-adv-x="716" 
d="M289 302h294c1 2 1 4 1 6c0 86 -63 154 -145 154c-84 0 -143 -63 -150 -160zM390 -19c-113 20 -183 112 -190 253c-114 2 -158 81 -158 148c0 70 37 114 93 114c29 0 54 -11 69 -31c8 -11 12 -25 14 -45h-34c-4 29 -21 46 -49 46c-37 0 -58 -32 -58 -84
c0 -50 22 -80 58 -80h67c16 145 106 237 238 237c98 0 178 -52 212 -138c15 -39 21 -87 21 -167h-386c1 -52 8 -82 28 -112c28 -44 73 -68 126 -68c67 0 114 36 137 105h84c-19 -103 -89 -169 -191 -180c35 -23 54 -55 54 -90c0 -39 -21 -65 -63 -81c-22 -8 -47 -13 -69 -13
c-19 0 -52 5 -76 10v45c18 -7 39 -10 63 -10c47 0 72 19 72 54s-15 57 -62 87z" />
    <glyph glyph-name="uni04C0" unicode="&#x4c0;" horiz-adv-x="278" 
d="M194 729v-729h-94v729h94z" />
    <glyph glyph-name="uni04C1" unicode="&#x4c1;" horiz-adv-x="1023" 
d="M459 324l-286 -324h-110l325 375l-287 354h120l238 -308v308h93v-308l238 308h120l-287 -354l325 -375h-110l-286 324v-324h-93v324zM355 904h59c5 -44 35 -66 92 -66c54 0 87 24 91 66h59c-7 -89 -59 -135 -152 -135c-56 0 -101 20 -128 57c-14 20 -20 39 -21 78z" />
    <glyph glyph-name="uni04C2" unicode="&#x4c2;" horiz-adv-x="837" 
d="M375 216l-258 -216h-103l304 264l-272 260h107l222 -222v222h83v-222l222 222h107l-272 -260l304 -264h-103l-258 216v-216h-83v216zM266 699h59c5 -44 35 -66 92 -66c54 0 87 24 91 66h59c-7 -89 -59 -135 -152 -135c-56 0 -101 20 -128 57c-14 20 -20 39 -21 78z" />
    <glyph glyph-name="uni04C3" unicode="&#x4c3;" horiz-adv-x="667" 
d="M426 375c126 0 185 -76 185 -192v-165c0 -116 -59 -192 -185 -192h-52v82h48c55 0 96 30 96 92v201c0 62 -41 92 -96 92h-250v-293h-93v729h93v-315l363 315h120l-412 -354h183z" />
    <glyph glyph-name="uni04C4" unicode="&#x4c4;" horiz-adv-x="500" 
d="M249 192h-108v-192h-83v524h83v-222l222 222h107l-272 -260l77 1c102 0 165 -55 165 -143v-122c0 -88 -63 -143 -165 -143h-26v73c27 0 54 9 74 24c24 17 34 42 34 79v56c0 37 -10 62 -34 79c-20 15 -47 24 -74 24z" />
    <glyph glyph-name="uni04C7" unicode="&#x4c7;" horiz-adv-x="722" 
d="M550 0v332h-373v-332h-94v729h93v-315h374v315h94v-711c0 -116 -60 -192 -186 -192h-52v82h48c55 0 96 30 96 92z" />
    <glyph glyph-name="uni04C8" unicode="&#x4c8;" 
d="M488 0c0 -88 -63 -143 -165 -143h-26v73c27 0 54 9 74 24c24 17 33 42 33 79v200h-250v-233h-84v524h84v-215h250v215h84v-524z" />
    <glyph glyph-name="uni04CB" unicode="&#x4cb;" horiz-adv-x="648" 
d="M489 0v-135h-80v209h67v186h-212c-126 0 -185 76 -185 192v277h93v-295c0 -62 41 -92 96 -92h208v387h93v-729h-80z" />
    <glyph glyph-name="uni04CC" unicode="&#x4cc;" horiz-adv-x="520" 
d="M375 0v-120h-70v184h61v127h-141c-81 0 -155 49 -155 143v190h84v-187c0 -49 28 -70 68 -70h144v257h84v-524h-75z" />
    <glyph glyph-name="uni04D0" unicode="&#x4d0;" horiz-adv-x="667" 
d="M185 904h59c5 -44 35 -66 92 -66c54 0 87 24 91 66h59c-7 -89 -59 -135 -152 -135c-56 0 -101 20 -128 57c-14 20 -20 39 -21 78zM474 219h-281l-77 -219h-99l260 729h120l256 -729h-104zM448 297l-112 332l-120 -332h232z" />
    <glyph glyph-name="uni04D1" unicode="&#x4d1;" 
d="M118 699h59c5 -44 35 -66 92 -66c54 0 87 24 91 66h59c-7 -89 -59 -135 -152 -135c-56 0 -101 20 -128 57c-14 20 -20 39 -21 78zM535 49v-63c-27 -7 -40 -9 -57 -9c-54 0 -80 24 -86 77c-59 -54 -112 -77 -178 -77c-106 0 -172 60 -172 155c0 68 31 115 92 140
c32 13 50 17 168 32c66 8 87 23 87 58v22c0 50 -42 78 -117 78c-78 0 -116 -29 -123 -93h-84c2 52 12 82 36 109c35 39 98 61 174 61c129 0 197 -50 197 -143v-308c0 -26 16 -41 45 -41c5 0 9 0 18 2zM389 165v94c-28 -13 -46 -17 -134 -29c-89 -13 -126 -41 -126 -96
c0 -53 38 -84 103 -84c49 0 90 16 124 47c25 23 33 40 33 68z" />
    <glyph glyph-name="uni04D2" unicode="&#x4d2;" horiz-adv-x="667" 
d="M306 872v-103h-104v103h104zM468 872v-103h-104v103h104zM474 219h-281l-77 -219h-99l260 729h120l256 -729h-104zM448 297l-112 332l-120 -332h232z" />
    <glyph glyph-name="uni04D3" unicode="&#x4d3;" 
d="M240 667v-103h-104v103h104zM402 667v-103h-104v103h104zM535 49v-63c-27 -7 -40 -9 -57 -9c-54 0 -80 24 -86 77c-59 -54 -112 -77 -178 -77c-106 0 -172 60 -172 155c0 68 31 115 92 140c32 13 50 17 168 32c66 8 87 23 87 58v22c0 50 -42 78 -117 78
c-78 0 -116 -29 -123 -93h-84c2 52 12 82 36 109c35 39 98 61 174 61c129 0 197 -50 197 -143v-308c0 -26 16 -41 45 -41c5 0 9 0 18 2zM389 165v94c-28 -13 -46 -17 -134 -29c-89 -13 -126 -41 -126 -96c0 -53 38 -84 103 -84c49 0 90 16 124 47c25 23 33 40 33 68z" />
    <glyph glyph-name="uni04D4" unicode="&#x4d4;" horiz-adv-x="1000" 
d="M468 214h-269l-85 -214h-103l299 729h622v-82h-371v-233h352v-82h-352v-250h389v-82h-482v214zM468 296v351h-100l-138 -351h238z" />
    <glyph glyph-name="uni04D5" unicode="&#x4d5;" horiz-adv-x="889" 
d="M751 159h84c-21 -114 -105 -182 -223 -182c-77 0 -143 31 -178 83c-5 8 -9 15 -16 27c-75 -78 -138 -110 -216 -110c-102 0 -168 61 -168 155c0 68 31 114 93 140c32 14 83 24 167 31c68 6 87 20 87 59v22c0 51 -41 78 -118 78s-115 -29 -122 -93h-84c2 52 12 82 36 109
c35 39 98 61 172 61c85 0 144 -28 175 -82c36 51 101 82 173 82c97 0 177 -53 211 -138c15 -39 21 -87 21 -167h-386c1 -52 8 -82 28 -112c28 -44 73 -68 126 -68c67 0 114 36 138 105zM381 157v101c-28 -12 -45 -16 -134 -29c-90 -13 -126 -40 -126 -95
c0 -52 38 -84 100 -84c40 0 78 13 111 38c30 23 49 50 49 69zM461 302h294c0 95 -59 160 -144 160c-84 0 -143 -63 -150 -160z" />
    <glyph glyph-name="uni04D6" unicode="&#x4d6;" horiz-adv-x="667" 
d="M192 904h59c5 -44 35 -66 92 -66c54 0 87 24 91 66h59c-7 -89 -59 -135 -152 -135c-56 0 -101 20 -128 57c-14 20 -20 39 -21 78zM183 332v-250h430v-82h-523v729h505v-82h-412v-233h397v-82h-397z" />
    <glyph glyph-name="uni04D7" unicode="&#x4d7;" 
d="M170 699h59c5 -44 35 -66 92 -66c54 0 87 24 91 66h59c-7 -89 -59 -135 -152 -135c-56 0 -101 20 -128 57c-14 20 -20 39 -21 78zM513 234h-386c1 -52 8 -82 28 -112c28 -44 73 -68 126 -68c67 0 114 36 137 105h84c-21 -114 -104 -182 -224 -182
c-147 0 -238 106 -238 278s94 284 240 284c98 0 178 -52 212 -138c15 -39 21 -87 21 -167zM129 302h294c1 2 1 4 1 6c0 86 -63 154 -145 154c-84 0 -143 -63 -150 -160z" />
    <glyph glyph-name="uni04D8" unicode="&#x4d8;" horiz-adv-x="722" 
d="M155 252c6 -41 13 -82 22 -99c30 -60 92 -94 170 -94c115 0 196 73 225 193h-417zM48 330l-1 4h1h96h439c1 8 1 15 1 23c0 187 -88 302 -229 302c-59 0 -114 -18 -144 -46c-27 -25 -42 -56 -53 -110h-95c29 160 121 238 281 238c98 0 177 -31 231 -91
c66 -72 102 -176 102 -294c0 -120 -37 -223 -106 -294c-56 -58 -128 -85 -223 -85c-177 0 -299 94 -300 353z" />
    <glyph glyph-name="afii10846" unicode="&#x4d9;" 
d="M40 282h386c-1 52 -8 82 -28 112c-28 44 -73 68 -126 68c-67 0 -114 -36 -137 -105h-84c21 114 104 182 224 182c147 0 238 -106 238 -278s-94 -284 -240 -284c-98 0 -178 52 -212 138c-15 39 -21 87 -21 167zM424 214h-294c-1 -2 -1 -4 -1 -6c0 -86 63 -154 145 -154
c84 0 143 63 150 160z" />
    <glyph glyph-name="uni04DA" unicode="&#x4da;" horiz-adv-x="722" 
d="M315 904v-103h-104v103h104zM477 904v-103h-104v103h104zM155 252c6 -41 13 -82 22 -99c30 -60 92 -94 170 -94c115 0 196 73 225 193h-417zM48 330l-1 4h1h96h439c1 8 1 15 1 23c0 187 -88 302 -229 302c-59 0 -114 -18 -144 -46c-27 -25 -42 -56 -53 -110h-95
c29 160 121 238 281 238c98 0 177 -31 231 -91c66 -72 102 -176 102 -294c0 -120 -37 -223 -106 -294c-56 -58 -128 -85 -223 -85c-177 0 -299 94 -300 353z" />
    <glyph glyph-name="uni04DB" unicode="&#x4db;" 
d="M246 702v-103h-104v103h104zM408 702v-103h-104v103h104zM40 282h386c-1 52 -8 82 -28 112c-28 44 -73 68 -126 68c-67 0 -114 -36 -137 -105h-84c21 114 104 182 224 182c147 0 238 -106 238 -278s-94 -284 -240 -284c-98 0 -178 52 -212 138c-15 39 -21 87 -21 167z
M424 214h-294c-1 -2 -1 -4 -1 -6c0 -86 63 -154 145 -154c84 0 143 63 150 160z" />
    <glyph glyph-name="uni04DC" unicode="&#x4dc;" horiz-adv-x="1023" 
d="M459 324l-286 -324h-110l325 375l-287 354h120l238 -308v308h93v-308l238 308h120l-287 -354l325 -375h-110l-286 324v-324h-93v324zM477 872v-103h-104v103h104zM639 872v-103h-104v103h104z" />
    <glyph glyph-name="uni04DD" unicode="&#x4dd;" horiz-adv-x="837" 
d="M375 216l-258 -216h-103l304 264l-272 260h107l222 -222v222h83v-222l222 222h107l-272 -260l304 -264h-103l-258 216v-216h-83v216zM387 667v-103h-104v103h104zM549 667v-103h-104v103h104z" />
    <glyph glyph-name="uni04DE" unicode="&#x4de;" horiz-adv-x="667" 
d="M257 321v82h88c89 0 158 81 158 137c0 74 -65 123 -163 123c-116 0 -181 -53 -182 -148h-88c1 143 99 226 267 226c160 0 259 -82 259 -214c0 -75 -37 -124 -105 -153c83 -31 130 -92 130 -174c0 -63 -31 -128 -80 -167c-47 -36 -118 -56 -205 -56
c-111 0 -195 36 -245 104c-29 40 -42 84 -43 151h88c-1 -45 11 -80 38 -112c35 -42 89 -61 168 -61c59 0 105 11 134 31c31 22 52 62 52 101c0 57 -68 130 -163 130h-108zM301 872v-103h-104v103h104zM463 872v-103h-104v103h104z" />
    <glyph glyph-name="uni04DF" unicode="&#x4df;" horiz-adv-x="500" 
d="M192 221v76h62c70 0 97 49 97 86c0 48 -43 79 -111 79c-67 0 -103 -29 -105 -84h-88c1 103 69 161 190 161c122 0 201 -63 201 -160c0 -53 -19 -86 -65 -112c59 -26 86 -64 86 -124c0 -101 -84 -166 -216 -166c-137 0 -205 58 -209 179h88c5 -37 11 -52 24 -67
c21 -22 59 -35 104 -35c73 0 118 33 118 82c0 38 -42 85 -102 85h-74zM214 667v-103h-104v103h104zM376 667v-103h-104v103h104z" />
    <glyph glyph-name="uni04E0" unicode="&#x4e0;" horiz-adv-x="667" 
d="M257 321v82h75c149 0 198 157 198 244h-410v82h504c0 -111 -30 -319 -133 -355c83 -31 130 -92 130 -174c0 -63 -31 -128 -80 -167c-47 -36 -118 -56 -205 -56c-111 0 -195 36 -245 104c-29 40 -42 84 -43 151h88c-1 -45 11 -80 38 -112c35 -42 89 -61 168 -61
c59 0 105 11 134 31c31 22 52 62 52 101c0 57 -68 130 -163 130h-108z" />
    <glyph glyph-name="uni04E1" unicode="&#x4e1;" horiz-adv-x="500" 
d="M192 221v76h62c73 0 97 103 97 151h-274v76h361c0 -100 -19 -231 -65 -257c59 -26 86 -64 86 -124c0 -101 -84 -166 -216 -166c-137 0 -205 58 -209 179h88c5 -37 11 -52 24 -67c21 -22 59 -35 104 -35c73 0 118 33 118 82c0 38 -42 85 -102 85h-74z" />
    <glyph glyph-name="uni04E2" unicode="&#x4e2;" horiz-adv-x="722" 
d="M76 729h88v-596l381 596h101v-729h-88v591l-377 -591h-105v729zM498 839v-70h-274v70h274z" />
    <glyph glyph-name="uni04E3" unicode="&#x4e3;" 
d="M70 524h84v-413l235 413h98v-524h-83v413l-235 -413h-99v524zM416 634v-70h-274v70h274z" />
    <glyph glyph-name="uni04E4" unicode="&#x4e4;" horiz-adv-x="722" 
d="M76 729h88v-596l381 596h101v-729h-88v591l-377 -591h-105v729zM332 872v-103h-104v103h104zM494 872v-103h-104v103h104z" />
    <glyph glyph-name="uni04E5" unicode="&#x4e5;" 
d="M70 524h84v-413l235 413h98v-524h-83v413l-235 -413h-99v524zM250 667v-103h-104v103h104zM412 667v-103h-104v103h104z" />
    <glyph glyph-name="uni04E6" unicode="&#x4e6;" horiz-adv-x="778" 
d="M361 872v-103h-104v103h104zM523 872v-103h-104v103h104zM389 741c214 0 353 -153 353 -388c0 -119 -47 -232 -126 -299c-59 -50 -138 -77 -226 -77c-210 0 -352 154 -352 382s142 382 351 382zM389 659c-154 0 -258 -120 -258 -300s104 -300 259 -300
c154 0 259 120 259 296c0 184 -102 304 -260 304z" />
    <glyph glyph-name="uni04E7" unicode="&#x4e7;" 
d="M244 667v-103h-104v103h104zM406 667v-103h-104v103h104zM272 539c151 0 238 -104 238 -285c0 -172 -90 -277 -237 -277c-149 0 -237 105 -237 281s89 281 236 281zM273 462c-93 0 -150 -78 -150 -204c0 -127 57 -204 150 -204c92 0 150 78 150 201
c0 130 -56 207 -150 207z" />
    <glyph glyph-name="uni04E8" unicode="&#x4e8;" horiz-adv-x="778" 
d="M389 741c214 0 353 -153 353 -388c0 -119 -47 -232 -126 -299c-59 -50 -138 -77 -226 -77c-210 0 -352 154 -352 382s142 382 351 382zM648 385c-10 167 -110 274 -259 274c-146 0 -248 -109 -257 -274h516zM647 315h-514c16 -155 115 -256 257 -256s242 102 257 256z
" />
    <glyph glyph-name="uni04E9" unicode="&#x4e9;" 
d="M272 539c151 0 238 -104 238 -285c0 -172 -90 -277 -237 -277c-149 0 -237 105 -237 281s89 281 236 281zM422 290c-10 109 -64 172 -149 172s-140 -65 -149 -172h298zM421 220h-296c10 -104 65 -166 148 -166s138 63 148 166z" />
    <glyph glyph-name="uni04EA" unicode="&#x4ea;" horiz-adv-x="778" 
d="M389 741c214 0 353 -153 353 -388c0 -119 -47 -232 -126 -299c-59 -50 -138 -77 -226 -77c-210 0 -352 154 -352 382s142 382 351 382zM648 385c-10 167 -110 274 -259 274c-146 0 -248 -109 -257 -274h516zM647 315h-514c16 -155 115 -256 257 -256s242 102 257 256z
M361 872v-103h-104v103h104zM523 872v-103h-104v103h104z" />
    <glyph glyph-name="uni04EB" unicode="&#x4eb;" 
d="M272 539c151 0 238 -104 238 -285c0 -172 -90 -277 -237 -277c-149 0 -237 105 -237 281s89 281 236 281zM422 290c-10 109 -64 172 -149 172s-140 -65 -149 -172h298zM421 220h-296c10 -104 65 -166 148 -166s138 63 148 166zM244 667v-103h-104v103h104zM406 667v-103
h-104v103h104z" />
    <glyph glyph-name="uni04EC" unicode="&#x4ec;" horiz-adv-x="722" 
d="M584 332h-367v82h364c-16 153 -100 245 -226 245c-59 0 -114 -18 -144 -46c-27 -25 -42 -56 -53 -110h-95c29 160 121 238 281 238c98 0 177 -31 231 -91c66 -72 102 -176 102 -294c0 -120 -37 -223 -106 -294c-56 -58 -128 -85 -223 -85c-178 0 -278 96 -300 289h96
c8 -50 18 -84 33 -113c30 -60 92 -94 170 -94c138 0 228 105 237 273zM388 872v-103h-104v103h104zM550 872v-103h-104v103h104z" />
    <glyph glyph-name="uni04ED" unicode="&#x4ed;" horiz-adv-x="500" 
d="M163 232v77h224c-14 97 -65 153 -142 153c-70 0 -114 -41 -124 -114h-84c4 51 15 84 35 113c36 49 99 78 172 78c141 0 233 -112 233 -286c0 -169 -90 -276 -232 -276c-125 0 -204 75 -214 203h84c14 -84 57 -126 128 -126c87 0 141 66 147 178h-227zM183 667v-103h-104
v103h104zM345 667v-103h-104v103h104z" />
    <glyph glyph-name="uni04EE" unicode="&#x4ee;" horiz-adv-x="650" 
d="M252 0h-113l129 244l-242 485h113l185 -379l184 379h111zM460 839v-70h-274v70h274z" />
    <glyph glyph-name="uni04EF" unicode="&#x4ef;" horiz-adv-x="500" 
d="M386 634v-70h-274v70h274zM388 524h90l-233 -634c-16 -42 -31 -64 -57 -83c-22 -16 -51 -25 -78 -25c-22 0 -39 4 -56 13v75c18 -4 32 -6 44 -6c35 0 54 14 67 51l32 83l-177 526h89l134 -408z" />
    <glyph glyph-name="uni04F0" unicode="&#x4f0;" horiz-adv-x="650" 
d="M252 0h-113l129 244l-242 485h113l185 -379l184 379h111zM294 872v-103h-104v103h104zM456 872v-103h-104v103h104z" />
    <glyph glyph-name="uni04F1" unicode="&#x4f1;" horiz-adv-x="500" 
d="M220 667v-103h-104v103h104zM382 667v-103h-104v103h104zM388 524h90l-233 -634c-16 -42 -31 -64 -57 -83c-22 -16 -51 -25 -78 -25c-22 0 -39 4 -56 13v75c18 -4 32 -6 44 -6c35 0 54 14 67 51l32 83l-177 526h89l134 -408z" />
    <glyph glyph-name="uni04F2" unicode="&#x4f2;" horiz-adv-x="650" 
d="M252 0h-113l129 244l-242 485h113l185 -379l184 379h111zM227 919h113l-149 -150h-60zM401 919h113l-149 -150h-60z" />
    <glyph glyph-name="uni04F3" unicode="&#x4f3;" horiz-adv-x="500" 
d="M154 714h113l-149 -150h-60zM328 714h113l-149 -150h-60zM388 524h90l-233 -634c-16 -42 -31 -64 -57 -83c-22 -16 -51 -25 -78 -25c-22 0 -39 4 -56 13v75c18 -4 32 -6 44 -6c35 0 54 14 67 51l32 83l-177 526h89l134 -408z" />
    <glyph glyph-name="uni04F4" unicode="&#x4f4;" horiz-adv-x="648" 
d="M295 904v-103h-104v103h104zM457 904v-103h-104v103h104zM476 260h-212c-126 0 -185 76 -185 192v277h93v-295c0 -62 41 -92 96 -92h208v387h93v-729h-93v260z" />
    <glyph glyph-name="uni04F5" unicode="&#x4f5;" horiz-adv-x="520" 
d="M231 702v-103h-104v103h104zM393 702v-103h-104v103h104zM70 524h84v-187c0 -49 28 -70 68 -70h144v257h84v-524h-84v191h-141c-81 0 -155 49 -155 143v190z" />
    <glyph glyph-name="uni04F8" unicode="&#x4f8;" horiz-adv-x="886" 
d="M804 729v-729h-94v729h94zM623 208c0 -57 -20 -109 -56 -147c-39 -42 -90 -61 -159 -61h-329v729h93v-314h180c178 0 255 -77 271 -207zM172 82h227c45 0 75 11 97 35c22 23 34 55 34 90c0 36 -12 68 -34 91c-22 24 -52 35 -97 35h-227v-251zM412 872v-103h-104v103h104z
M574 872v-103h-104v103h104z" />
    <glyph glyph-name="uni04F9" unicode="&#x4f9;" horiz-adv-x="748" 
d="M661 524v-524h-83v524h83zM154 524v-217h118c150 0 216 -52 216 -157c0 -45 -15 -78 -41 -106c-28 -30 -64 -44 -114 -44h-263v524h84zM154 76h152c32 0 53 8 69 26c16 16 22 27 22 45c0 26 1 49 -22 64c-20 13 -37 20 -69 20h-152v-155zM336 667v-103h-104v103h104z
M498 667v-103h-104v103h104z" />
    <glyph glyph-name="uniF6C4" unicode="&#xf6c4;" horiz-adv-x="430" 
d="M70 524h310v-76h-226v-448h-84v524z" />
    <glyph glyph-name="uniF6C5" unicode="&#xf6c5;" 
d="M272 539c151 0 238 -104 238 -285c0 -172 -90 -277 -237 -277c-149 0 -237 105 -237 281c0 117 30 187 101 239c-117 50 -21 175 70 193l133 26c29 7 56 32 56 59h74c0 -60 -1 -109 -111 -135l-135 -29c-25 -6 -54 -26 -52 -45c4 -32 66 -31 100 -27zM273 462
c-93 0 -150 -78 -150 -204c0 -127 57 -204 150 -204c92 0 150 78 150 201c0 130 -56 207 -150 207z" />
    <glyph glyph-name="uniF6C6" unicode="&#xf6c6;" horiz-adv-x="602" 
d="M87 64c49 5 82 135 82 257v203h339v-460h64v-184h-70v120h-402v-120h-70v184h57zM203 76h221v372h-172v-127c0 -84 -14 -181 -49 -245z" />
    <glyph glyph-name="uniF6C7" unicode="&#xf6c7;" horiz-adv-x="557" 
d="M70 524h417v-524h-84v448h-249v-448h-84v524z" />
    <glyph glyph-name="uniF6C8" unicode="&#xf6c8;" horiz-adv-x="496" 
d="M60 524h372v-76h-144v-448h-84v448h-144v76z" />
    <glyph glyph-name="Ccircumflex" unicode="&#x108;" horiz-adv-x="722" 
d="M330 929h95l96 -150h-63l-81 96l-79 -96h-64zM662 503h-95c-11 54 -26 85 -53 110c-30 28 -85 46 -144 46c-141 0 -229 -115 -229 -302c0 -182 92 -298 237 -298c78 0 140 34 170 94c15 29 25 63 33 113h96c-22 -193 -122 -289 -300 -289c-95 0 -167 27 -223 85
c-69 71 -106 174 -106 294c0 118 36 222 102 294c54 60 133 91 231 91c160 0 252 -78 281 -238z" />
    <glyph glyph-name="ccircumflex" unicode="&#x109;" horiz-adv-x="500" 
d="M217 714h95l96 -150h-63l-81 96l-79 -96h-64zM471 348h-84c-10 73 -54 114 -124 114c-91 0 -145 -78 -145 -209c0 -124 55 -199 147 -199c71 0 114 42 128 126h84c-10 -128 -89 -203 -214 -203c-142 0 -232 107 -232 276c0 174 92 286 233 286c73 0 136 -29 172 -78
c20 -29 31 -62 35 -113z" />
    <glyph glyph-name="Cdotaccent" unicode="&#x10a;" horiz-adv-x="722" 
d="M430 893v-104h-104v104h104zM662 503h-95c-11 54 -26 85 -53 110c-30 28 -85 46 -144 46c-141 0 -229 -115 -229 -302c0 -182 92 -298 237 -298c78 0 140 34 170 94c15 29 25 63 33 113h96c-22 -193 -122 -289 -300 -289c-95 0 -167 27 -223 85c-69 71 -106 174 -106 294
c0 118 36 222 102 294c54 60 133 91 231 91c160 0 252 -78 281 -238z" />
    <glyph glyph-name="cdotaccent" unicode="&#x10b;" horiz-adv-x="500" 
d="M317 668v-104h-104v104h104zM471 348h-84c-10 73 -54 114 -124 114c-91 0 -145 -78 -145 -209c0 -124 55 -199 147 -199c71 0 114 42 128 126h84c-10 -128 -89 -203 -214 -203c-142 0 -232 107 -232 276c0 174 92 286 233 286c73 0 136 -29 172 -78
c20 -29 31 -62 35 -113z" />
    <glyph glyph-name="Ebreve" unicode="&#x114;" horiz-adv-x="667" 
d="M192 904h59c5 -44 35 -66 92 -66c54 0 87 24 91 66h59c-7 -89 -59 -135 -152 -135c-56 0 -101 20 -128 57c-14 20 -20 39 -21 78zM183 332v-250h430v-82h-523v729h505v-82h-412v-233h397v-82h-397z" />
    <glyph glyph-name="ebreve" unicode="&#x115;" 
d="M170 699h59c5 -44 35 -66 92 -66c54 0 87 24 91 66h59c-7 -89 -59 -135 -152 -135c-56 0 -101 20 -128 57c-14 20 -20 39 -21 78zM513 234h-386c1 -52 8 -82 28 -112c28 -44 73 -68 126 -68c67 0 114 36 137 105h84c-21 -114 -104 -182 -224 -182
c-147 0 -238 106 -238 278s94 284 240 284c98 0 178 -52 212 -138c15 -39 21 -87 21 -167zM129 302h294c1 2 1 4 1 6c0 86 -63 154 -145 154c-84 0 -143 -63 -150 -160z" />
    <glyph glyph-name="Gcircumflex" unicode="&#x11c;" horiz-adv-x="778" 
d="M346 939h95l96 -150h-63l-81 96l-79 -96h-64zM709 385v-389h-59l-23 97c-71 -79 -150 -116 -249 -116c-197 0 -334 156 -334 380c0 131 48 244 132 314c57 47 129 70 218 70c167 0 279 -85 305 -233h-95c-20 94 -100 151 -211 151c-154 0 -256 -118 -256 -297
c0 -90 29 -177 77 -229c43 -47 110 -74 184 -74c133 0 229 94 229 224v20h-222v82h304z" />
    <glyph glyph-name="gcircumflex" unicode="&#x11d;" 
d="M225 734h95l96 -150h-63l-81 96l-79 -96h-64zM412 524h77v-438c0 -123 -15 -189 -55 -237c-34 -42 -101 -67 -179 -67c-123 0 -200 59 -209 158h85c5 -31 13 -45 32 -60c23 -18 57 -28 95 -28c51 0 94 18 116 49c21 29 30 72 30 143v27c-47 -66 -93 -94 -159 -94
c-55 0 -111 26 -150 70c-43 50 -66 120 -66 206c0 170 90 286 223 286c67 0 118 -29 160 -91v76zM261 462c-89 0 -145 -78 -145 -204c0 -127 55 -204 146 -204c88 0 142 76 142 201c0 131 -53 207 -143 207z" />
    <glyph glyph-name="Gdotaccent" unicode="&#x120;" horiz-adv-x="778" 
d="M445 893v-104h-113v104h113zM709 385v-389h-59l-23 97c-71 -79 -150 -116 -249 -116c-197 0 -334 156 -334 380c0 131 48 244 132 314c57 47 129 70 218 70c167 0 279 -85 305 -233h-95c-20 94 -100 151 -211 151c-154 0 -256 -118 -256 -297c0 -90 29 -177 77 -229
c43 -47 110 -74 184 -74c133 0 229 94 229 224v20h-222v82h304z" />
    <glyph glyph-name="gdotaccent" unicode="&#x121;" 
d="M335 698v-104h-104v104h104zM412 524h77v-438c0 -123 -15 -189 -55 -237c-34 -42 -101 -67 -179 -67c-123 0 -200 59 -209 158h85c5 -31 13 -45 32 -60c23 -18 57 -28 95 -28c51 0 94 18 116 49c21 29 30 72 30 143v27c-47 -66 -93 -94 -159 -94c-55 0 -111 26 -150 70
c-43 50 -66 120 -66 206c0 170 90 286 223 286c67 0 118 -29 160 -91v76zM261 462c-89 0 -145 -78 -145 -204c0 -127 55 -204 146 -204c88 0 142 76 142 201c0 131 -53 207 -143 207z" />
    <glyph glyph-name="Hcircumflex" unicode="&#x124;" horiz-adv-x="722" 
d="M316 919h95l96 -150h-63l-81 96l-79 -96h-64zM551 332h-374v-332h-94v729h93v-315h375v315h93v-729h-93v332z" />
    <glyph glyph-name="hcircumflex" unicode="&#x125;" 
d="M64 919h95l96 -150h-63l-81 96l-79 -96h-64zM70 729h83v-277c49 64 94 87 168 87c102 0 165 -55 165 -143v-396h-83v363c0 37 -10 62 -34 79c-20 15 -47 24 -74 24c-86 0 -142 -70 -142 -177v-289h-83v729z" />
    <glyph glyph-name="Hbar" unicode="&#x126;" horiz-adv-x="785" 
d="M674 601h78v-70h-78v-531h-93v332h-374v-332h-94v531h-75v70h75v128h93v-128h375v128h93v-128zM581 531h-375v-117h375v117z" />
    <glyph glyph-name="hbar" unicode="&#x127;" 
d="M70 671v58h83v-58h143v-70h-143v-149c49 64 94 87 168 87c102 0 165 -55 165 -143v-396h-83v363c0 37 -10 62 -34 79c-20 15 -47 24 -74 24c-86 0 -142 -70 -142 -177v-289h-83v601h-48v70h48z" />
    <glyph glyph-name="Itilde" unicode="&#x128;" horiz-adv-x="278" 
d="M246 873h58c-10 -69 -40 -104 -89 -104c-19 0 -31 4 -85 25c-24 9 -38 13 -49 13c-15 0 -27 -14 -33 -37h-58c11 66 42 103 86 103c21 0 28 -2 70 -19c24 -11 51 -18 63 -18c18 0 29 12 37 37zM194 729v-729h-94v729h94z" />
    <glyph glyph-name="itilde" unicode="&#x129;" horiz-adv-x="278" 
d="M235 668h58c-10 -69 -40 -104 -89 -104c-19 0 -31 4 -85 25c-24 9 -38 13 -49 13c-15 0 -27 -14 -33 -37h-58c11 66 42 103 86 103c21 0 28 -2 70 -19c24 -11 51 -18 63 -18c18 0 29 12 37 37zM178 524v-524h-84v524h84z" />
    <glyph glyph-name="Ibreve" unicode="&#x12c;" horiz-adv-x="278" 
d="M-4 904h59c5 -44 35 -66 92 -66c54 0 87 24 91 66h59c-7 -89 -59 -135 -152 -135c-56 0 -101 20 -128 57c-14 20 -20 39 -21 78zM194 729v-729h-94v729h94z" />
    <glyph glyph-name="ibreve" unicode="&#x12d;" horiz-adv-x="278" 
d="M-14 699h59c5 -44 35 -66 92 -66c54 0 87 24 91 66h59c-7 -89 -59 -135 -152 -135c-56 0 -101 20 -128 57c-14 20 -20 39 -21 78zM178 524v-524h-84v524h84z" />
    <glyph glyph-name="Jcircumflex" unicode="&#x134;" horiz-adv-x="500" 
d="M332 919h95l96 -150h-63l-81 96l-79 -96h-64zM333 729h93v-547c0 -126 -79 -205 -206 -205c-125 0 -203 75 -203 193v64h95v-47c0 -85 39 -132 109 -132c37 0 71 17 89 45c17 25 23 58 23 116v513z" />
    <glyph glyph-name="jcircumflex" unicode="&#x135;" horiz-adv-x="222" 
d="M70 524h83v-633c0 -71 -49 -109 -143 -109c-13 0 -18 1 -28 3v71c17 -1 17 -1 20 -1c51 0 68 17 68 69v600zM64 785h95l96 -150h-63l-81 96l-79 -96h-64z" />
    <glyph glyph-name="kgreenlandic" unicode="&#x138;" horiz-adv-x="500" 
d="M141 524v-222l222 222h107l-272 -260l304 -264h-103l-258 216v-216h-83v524h83z" />
    <glyph glyph-name="napostrophe" unicode="&#x149;" 
d="M64 789h93v-101c0 -80 -33 -126 -93 -131v38c35 5 49 32 48 90h-48v104zM70 524h77v-88c46 73 96 103 174 103c101 0 166 -56 166 -143v-396h-83v363c0 63 -42 103 -108 103c-86 0 -142 -70 -142 -177v-289h-84v524z" />
    <glyph glyph-name="Eng" unicode="&#x14a;" horiz-adv-x="722" 
d="M541 0l-377 591v-591h-88v729h101l381 -596v596h88v-711c0 -116 -59 -192 -185 -192h-52v82h48c49 0 93 27 93 63c0 9 -3 19 -9 29z" />
    <glyph glyph-name="eng" unicode="&#x14b;" 
d="M487 0c0 -88 -63 -143 -165 -143h-26v73c27 0 54 9 74 24c24 17 34 42 34 79v330c0 63 -42 103 -108 103c-86 0 -142 -70 -142 -177v-289h-84v524h77v-88c46 73 96 103 174 103c101 0 166 -56 166 -143v-396z" />
    <glyph glyph-name="Obreve" unicode="&#x14e;" horiz-adv-x="778" 
d="M240 904h59c5 -44 35 -66 92 -66c54 0 87 24 91 66h59c-7 -89 -59 -135 -152 -135c-56 0 -101 20 -128 57c-14 20 -20 39 -21 78zM389 741c214 0 353 -153 353 -388c0 -119 -47 -232 -126 -299c-59 -50 -138 -77 -226 -77c-210 0 -352 154 -352 382s142 382 351 382z
M389 659c-154 0 -258 -120 -258 -300s104 -300 259 -300c154 0 259 120 259 296c0 184 -102 304 -260 304z" />
    <glyph glyph-name="obreve" unicode="&#x14f;" 
d="M122 699h59c5 -44 35 -66 92 -66c54 0 87 24 91 66h59c-7 -89 -59 -135 -152 -135c-56 0 -101 20 -128 57c-14 20 -20 39 -21 78zM272 539c151 0 238 -104 238 -285c0 -172 -90 -277 -237 -277c-149 0 -237 105 -237 281s89 281 236 281zM273 462
c-93 0 -150 -78 -150 -204c0 -127 57 -204 150 -204c92 0 150 78 150 201c0 130 -56 207 -150 207z" />
    <glyph glyph-name="Scircumflex" unicode="&#x15c;" horiz-adv-x="667" 
d="M288 919h95l96 -150h-63l-81 96l-79 -96h-64zM596 515h-88c-1 95 -66 148 -182 148c-98 0 -163 -49 -163 -123c0 -56 32 -84 120 -108l183 -49c99 -27 155 -93 155 -183c0 -63 -31 -128 -80 -167c-47 -36 -118 -56 -205 -56c-111 0 -195 36 -245 104
c-29 40 -42 84 -43 151h88c-1 -45 11 -80 38 -112c35 -42 89 -61 168 -61c59 0 105 11 134 31c31 22 52 62 52 101c0 57 -42 94 -134 118l-181 48c-96 25 -143 81 -143 170c0 132 99 214 259 214c168 0 266 -83 267 -226z" />
    <glyph glyph-name="scircumflex" unicode="&#x15d;" horiz-adv-x="500" 
d="M194 714h95l96 -150h-63l-81 96l-79 -96h-64zM438 378h-88c-2 55 -38 84 -105 84c-68 0 -111 -31 -111 -79c0 -37 29 -59 97 -75l80 -19c104 -25 148 -68 148 -146c0 -101 -84 -166 -216 -166c-137 0 -205 58 -209 179h88c5 -37 11 -52 24 -67c21 -22 59 -35 104 -35
c73 0 122 33 122 82c0 38 -23 59 -81 73l-78 19c-124 30 -166 69 -166 151c0 97 79 160 201 160c121 0 189 -58 190 -161z" />
    <glyph glyph-name="Tbar" unicode="&#x166;" horiz-adv-x="611" 
d="M261 417v230h-240v82h572v-82h-239v-230h92v-70h-92v-347h-93v347h-89v70h89z" />
    <glyph glyph-name="tbar" unicode="&#x167;" horiz-adv-x="278" 
d="M85 322h-1v134h-71v68h71v144h83v-144h86v-68h-86v-134h86v-70h-86v-155c0 -37 10 -47 46 -47c16 0 29 1 40 4v-70c-28 -5 -48 -7 -68 -7c-65 0 -101 30 -101 83v192h-71v70h72z" />
    <glyph glyph-name="Utilde" unicode="&#x168;" horiz-adv-x="722" 
d="M464 873h58c-10 -69 -40 -104 -89 -104c-19 0 -31 4 -85 25c-24 9 -38 13 -49 13c-15 0 -27 -14 -33 -37h-58c11 66 42 103 86 103c21 0 28 -2 70 -19c24 -11 51 -18 63 -18c18 0 29 12 37 37zM552 729h93v-512c0 -146 -110 -240 -281 -240c-173 0 -279 92 -279 240v512
h93v-512c0 -55 17 -92 53 -120c35 -25 79 -38 133 -38c117 0 188 60 188 158v512z" />
    <glyph glyph-name="utilde" unicode="&#x169;" 
d="M373 668h58c-10 -69 -40 -104 -89 -104c-19 0 -31 4 -85 25c-24 9 -38 13 -49 13c-15 0 -27 -14 -33 -37h-58c11 66 42 103 86 103c21 0 28 -2 70 -19c24 -11 51 -18 63 -18c18 0 29 12 37 37zM482 0h-75v73c-49 -69 -98 -96 -175 -96c-102 0 -167 56 -167 143v404h83
v-371c0 -63 42 -103 108 -103c87 0 143 70 143 177v297h83v-524z" />
    <glyph glyph-name="Ubreve" unicode="&#x16c;" horiz-adv-x="722" 
d="M215 904h59c5 -44 35 -66 92 -66c54 0 87 24 91 66h59c-7 -89 -59 -135 -152 -135c-56 0 -101 20 -128 57c-14 20 -20 39 -21 78zM552 729h93v-512c0 -146 -110 -240 -281 -240c-173 0 -279 92 -279 240v512h93v-512c0 -55 17 -92 53 -120c35 -25 79 -38 133 -38
c117 0 188 60 188 158v512z" />
    <glyph glyph-name="ubreve" unicode="&#x16d;" 
d="M123 699h59c5 -44 35 -66 92 -66c54 0 87 24 91 66h59c-7 -89 -59 -135 -152 -135c-56 0 -101 20 -128 57c-14 20 -20 39 -21 78zM482 0h-75v73c-49 -69 -98 -96 -175 -96c-102 0 -167 56 -167 143v404h83v-371c0 -63 42 -103 108 -103c87 0 143 70 143 177v297h83v-524z
" />
    <glyph glyph-name="Wcircumflex" unicode="&#x174;" horiz-adv-x="944" 
d="M428 919h95l96 -150h-63l-81 96l-79 -96h-64zM744 0h-102l-168 599l-163 -599h-102l-187 729h104l137 -592l162 592h100l166 -592l134 592h104z" />
    <glyph glyph-name="wcircumflex" unicode="&#x175;" horiz-adv-x="722" 
d="M310 714h95l96 -150h-63l-81 96l-79 -96h-64zM554 0h-95l-106 411l-101 -411h-94l-152 524h92l107 -408l100 408h102l103 -408l104 408h94z" />
    <glyph glyph-name="Ycircumflex" unicode="&#x176;" horiz-adv-x="667" 
d="M289 919h95l96 -150h-63l-81 96l-79 -96h-64zM387 286v-286h-93v286l-281 443h115l214 -355l208 355h111z" />
    <glyph glyph-name="ycircumflex" unicode="&#x177;" horiz-adv-x="500" 
d="M202 714h95l96 -150h-63l-81 96l-79 -96h-64zM388 524h90l-233 -634c-16 -42 -31 -64 -57 -83c-22 -16 -51 -25 -78 -25c-22 0 -39 4 -56 13v75c18 -4 32 -6 44 -6c35 0 54 14 67 51l32 83l-177 526h89l134 -408z" />
    <glyph glyph-name="longs" unicode="&#x17f;" horiz-adv-x="278" 
d="M171 0h-83v456h-70v68h70v89c0 75 46 119 123 119c17 0 28 -1 47 -5v-69c-19 1 -22 1 -29 1c-38 0 -58 -18 -58 -53v-606z" />
    <glyph glyph-name="infinity" unicode="&#x221e;" horiz-adv-x="756" 
d="M117 307c0 -67 60 -103 112 -103c54 0 111 40 111 103c0 59 -57 103 -110 103c-59 0 -113 -34 -113 -103zM374 403c44 73 80 97 147 97c111 0 189 -67 189 -193c0 -125 -78 -193 -189 -193c-66 0 -102 24 -147 96c-45 -72 -81 -96 -147 -96c-111 0 -189 68 -189 193
c0 126 78 193 189 193c67 0 103 -24 147 -97zM632 307c0 69 -54 103 -113 103c-53 0 -110 -44 -110 -103c0 -63 57 -103 111 -103c52 0 112 36 112 103z" />
    </font>
</defs>
</svg>
