<?xml version="1.0" standalone="no"?>
<!DOCTYPE svg PUBLIC "-//W3C//DTD SVG 1.1//EN" "http://www.w3.org/Graphics/SVG/1.1/DTD/svg11.dtd" >
<svg xmlns="http://www.w3.org/2000/svg">
<metadata></metadata>
<defs>
<font id="nimbus_sans_lreguital" horiz-adv-x="1138" >
<font-face units-per-em="2048" ascent="1638" descent="-410" />
<missing-glyph horiz-adv-x="569" />
<glyph unicode="TM" horiz-adv-x="2048" d="M426 1380l25 113h766l-23 -113h-313l-166 -782h-140l166 782h-315zM1137 598l190 895h193l112 -741l428 741h185l-191 -895h-137l149 698l-399 -698h-145l-99 698l-149 -698h-137z" />
<glyph unicode="&#xfb01;" horiz-adv-x="1024" d="M170 0l199 936h-144l29 137h143l39 182q25 115 106 179.5t199 64.5q45 0 93 -10l-31 -141q-31 4 -55 4q-66 0 -99 -30t-49 -108l-31 -141h176l-28 -137h-176l-199 -936h-172zM721 0l227 1073h172l-227 -1073h-172zM993 1282l45 211h172l-45 -211h-172z" />
<glyph unicode="&#xfb02;" horiz-adv-x="1024" d="M180 0l199 936h-143l28 137h144l38 182q25 115 106 179.5t200 64.5q47 0 92 -10l-31 -141q-29 4 -55 4q-66 0 -98.5 -30t-49.5 -108l-30 -141h176l-29 -137h-176l-199 -936h-172zM709 0l317 1493h172l-317 -1493h-172z" />
<glyph horiz-adv-x="0" />
<glyph unicode="&#xd;" horiz-adv-x="681" />
<glyph unicode=" "  horiz-adv-x="569" />
<glyph unicode="&#x09;" horiz-adv-x="569" />
<glyph unicode="&#xa0;" horiz-adv-x="569" />
<glyph unicode="!" horiz-adv-x="569" d="M254 0l45 211h172l-45 -211h-172zM373 344l47 432l151 717h172l-151 -717l-137 -432h-82z" />
<glyph unicode="&#x22;" horiz-adv-x="727" d="M362 950l3 275l49 227h192l-49 -227l-113 -275h-82zM688 950l2 275l49 227h193l-49 -227l-113 -275h-82z" />
<glyph unicode="#" d="M111 391l28 131h230l149 377h-223l27 131h247l158 397h156l-156 -397h254l158 397h155l-157 -397h192l-29 -131h-215l-149 -377h219l-29 -131h-241l-170 -432h-156l170 432h-256l-170 -432h-156l170 432h-206zM524 522h256l150 377h-254z" />
<glyph unicode="$" d="M141 274q0 59 17 152h161l-2 -23q-6 -59 -6 -96q0 -84 47.5 -132t159.5 -81l119 557q-184 63 -234 107q-92 80 -92 203q0 102 42 204.5t112 165.5q129 119 346 135l23 111h120l-22 -111q154 -8 238.5 -89t84.5 -220q0 -45 -12 -94h-162l2 31q2 18 2 43q0 80 -50 131 t-134 55l-108 -510q184 -57 247 -98q117 -78 117 -217q0 -117 -47 -228.5t-125 -181.5q-141 -129 -375 -135l-45 -211h-121l45 211q-180 29 -264 105.5t-84 215.5zM481 1026q0 -76 44.5 -120t150.5 -77l104 492q-127 -8 -209 -88q-90 -86 -90 -207zM639 94q162 12 250 100.5 t88 237.5q0 74 -50 119t-173 82z" />
<glyph unicode="%" horiz-adv-x="1820" d="M274 979q0 162 133.5 290t299.5 128q119 0 200.5 -77t81.5 -190q0 -166 -132 -293.5t-304 -127.5q-121 0 -200 76.5t-79 193.5zM418 1012q0 -72 48 -120t120 -48q100 0 180 76.5t80 173.5q0 76 -47 122t-125 46q-98 0 -177 -77t-79 -173zM428 -41l1126 1493h136 l-1127 -1493h-135zM1118 238q0 162 133 289.5t299 127.5q119 0 201 -76.5t82 -189.5q0 -166 -132 -294t-304 -128q-121 0 -200 77t-79 194zM1262 270q0 -72 48 -120t120 -48q100 0 180 77t80 173q0 76 -47 122t-125 46q-98 0 -177 -76.5t-79 -173.5z" />
<glyph unicode="&#x26;" horiz-adv-x="1366" d="M170 262q0 250 229 418q88 61 191 119q-14 37 -19 47l-36 86q-29 70 -29 139q0 150 129 265.5t297 115.5q125 0 198.5 -67.5t73.5 -182.5q0 -133 -90 -237.5t-280 -190.5l200 -334q88 103 123 244h162q-41 -203 -205 -375l184 -309h-217l-94 160q-139 -115 -242.5 -161 t-226.5 -46q-162 0 -255 83t-93 226zM350 325.5q0 -100.5 60.5 -157.5t162.5 -57q142 0 345 170l-244 407q-172 -92 -248 -177t-76 -185.5zM676 1092q0 -43 16.5 -79t79.5 -124q141 72 201.5 137.5t60.5 149.5q0 61 -38 97t-103 36q-90 0 -153.5 -63.5t-63.5 -153.5z" />
<glyph unicode="'" horiz-adv-x="391" d="M354 950l2 275l50 227h192l-49 -227l-113 -275h-82z" />
<glyph unicode="(" horiz-adv-x="681" d="M231 238q0 311 151 642.5t419 612.5h112q-522 -641 -522 -1331q0 -305 113 -598h-113q-160 281 -160 674z" />
<glyph unicode=")" horiz-adv-x="681" d="M-14 -436q254 311 388 649t134 670q0 324 -113 610h113q72 -127 115 -306t43 -353q0 -401 -224 -803q-141 -254 -344 -467h-112z" />
<glyph unicode="*" horiz-adv-x="796" d="M346 1225l62 121l204 -82l41 229h127l-59 -229l225 77l19 -127l-232 -55l109 -186l-119 -76l-90 197l-166 -195l-96 82l188 180z" />
<glyph unicode="+" horiz-adv-x="1196" d="M188 403l31 148h424l90 418h144l-91 -418h424l-30 -148h-424l-90 -426h-144l90 426h-424z" />
<glyph unicode="," horiz-adv-x="569" d="M113 -301l16 78q74 0 112 49t58 174h-121l45 211h215l-53 -244q-27 -131 -98.5 -201.5t-173.5 -66.5z" />
<glyph unicode="-" horiz-adv-x="681" d="M199 492l30 147h490l-31 -147h-489z" />
<glyph unicode="." horiz-adv-x="569" d="M178 0l45 211h213l-45 -211h-213z" />
<glyph unicode="/" horiz-adv-x="569" d="M-25 -41l801 1534h113l-801 -1534h-113z" />
<glyph unicode="0" d="M201 348q0 221 66.5 467t162.5 387q170 250 426 250q174 0 271.5 -105.5t97.5 -293.5q0 -221 -65.5 -465t-164.5 -385q-172 -250 -430 -250q-160 0 -262 98.5t-102 296.5zM381 371q0 -121 55.5 -190.5t151.5 -69.5q100 0 175 61t136 193q57 123 101 322.5t44 344.5 q0 125 -56.5 193.5t-156.5 68.5q-188 0 -307 -252q-57 -127 -100 -326.5t-43 -344.5z" />
<glyph unicode="1" d="M426 1034l27 129q221 31 293.5 77t154.5 212h119l-309 -1452h-181l222 1034h-326z" />
<glyph unicode="2" d="M70 0q68 248 170 367.5t368 261.5l213 106q127 66 198 154t71 186.5t-66 158.5t-172 60q-184 0 -285 -141q-49 -70 -86 -205h-180q59 260 198.5 382t377.5 122q205 0 307 -115q86 -96 86 -237q0 -307 -406 -512l-229 -117q-281 -139 -334 -293h772l-39 -178h-964z" />
<glyph unicode="3" d="M145 295q0 49 11 127h180l-4 -27q-6 -49 -6 -80q0 -94 66.5 -149t174.5 -55q172 0 280.5 103t108.5 269q0 88 -71.5 137.5t-198.5 49.5q-49 0 -92 -4l33 153h24h13q229 0 313 96q70 76 70 201q0 82 -58.5 130t-159.5 48q-178 0 -274 -131q-41 -55 -70 -180h-180 q51 197 135 295q156 174 414 174q168 0 270.5 -82t102.5 -217q0 -137 -59.5 -232.5t-190.5 -168.5q86 -43 123 -98.5t37 -143.5q0 -100 -41 -202.5t-111 -178.5q-160 -176 -444 -176q-193 0 -294.5 88t-101.5 254z" />
<glyph unicode="4" d="M129 348l41 189l852 915h135l-201 -944h218l-35 -160h-217l-74 -348h-180l73 348h-612zM324 508h452l133 631z" />
<glyph unicode="5" d="M143 311v21v24h181q8 -246 256 -245q174 0 287.5 124.5t113.5 315.5q0 119 -67.5 183.5t-190.5 64.5q-90 0 -150.5 -28t-154.5 -109h-164l276 790h758l-37 -178h-614l-143 -406q143 88 286 88q174 0 277.5 -96t103.5 -256q0 -233 -141 -414q-180 -238 -465 -237 q-193 0 -311 100q-100 84 -101 258z" />
<glyph unicode="6" d="M190 342q0 193 63.5 429.5t152.5 375.5q195 305 485 305q164 0 262 -88t98 -236q0 -32 -2 -55h-180q2 4 2 10q0 2 -10 62q-8 45 -24.5 69.5t-51.5 47.5q-51 33 -123 32q-156 0 -272.5 -150.5t-161.5 -410.5q172 172 367 172q164 0 264 -96t100 -254q0 -201 -137 -379 q-170 -223 -436 -223q-180 0 -288 105.5t-108 283.5zM371 356q0 -109 67.5 -177t173.5 -68q152 0 259.5 120.5t107.5 292.5q0 100 -65 162t-169 62q-156 0 -265 -114t-109 -278z" />
<glyph unicode="7" d="M281 0q137 324 328.5 604.5t537.5 669.5h-785l39 178h973l-35 -166q-262 -258 -508.5 -626.5t-349.5 -659.5h-200z" />
<glyph unicode="8" d="M152 297q-1 317 325 467l-24 20q-63 51 -85 91t-22 108q0 178 133 311q152 158 383 158q197 0 297 -106q78 -84 78 -197q0 -143 -90 -256q-39 -49 -137 -109l-33 -20q170 -96 170 -275q0 -186 -139 -342q-172 -195 -433 -194q-193 0 -308 93t-115 251zM332 328 q0 -96 70.5 -156.5t185.5 -60.5q162 0 270.5 101t108.5 251q0 100 -70.5 160.5t-191.5 60.5q-156 0 -264.5 -103.5t-108.5 -252.5zM526 1006q0 -80 58.5 -125t160.5 -45q160 0 244 102q68 82 68 178q0 84 -59.5 131t-163.5 47q-133 0 -220.5 -82t-87.5 -206z" />
<glyph unicode="9" d="M170 276q0 33 2 56h178q0 -106 52.5 -163.5t150.5 -57.5q309 0 432 553q-90 -76 -115 -93q-104 -72 -249 -71q-166 0 -264.5 96t-98.5 258q0 188 131 375q158 223 438 223q195 0 301 -113q98 -109 99 -264q0 -211 -86 -530q-43 -162 -104.5 -268.5t-159.5 -188.5 q-160 -135 -349 -135q-164 0 -261 88t-97 235zM438 893q0 -111 61.5 -173.5t170.5 -62.5q156 0 266.5 117t110.5 279q0 102 -70 171.5t-174 69.5q-150 0 -257.5 -118.5t-107.5 -282.5z" />
<glyph unicode=":" horiz-adv-x="569" d="M225 0l45 211h213l-45 -211h-213zM410 862l45 211h213l-45 -211h-213z" />
<glyph unicode=";" horiz-adv-x="569" d="M160 -301l16 78q74 0 112 49t58 174h-121l45 211h215l-53 -244q-27 -131 -98.5 -201.5t-173.5 -66.5zM408 862l45 211h213l-45 -211h-213z" />
<glyph unicode="&#x3c;" horiz-adv-x="1196" d="M178 406l31 141l1091 424l-34 -162l-865 -336l723 -334l-34 -157z" />
<glyph unicode="=" horiz-adv-x="1196" d="M152 227l30 148h989l-28 -148h-991zM227 580l29 147h991l-30 -147h-990z" />
<glyph unicode="&#x3e;" horiz-adv-x="1196" d="M98 -18l35 161l864 336l-723 334l35 158l912 -424l-31 -141z" />
<glyph unicode="?" d="M377 1038q96 479 543 480q164 0 251 -70q119 -92 119 -240q0 -119 -69.5 -225t-227.5 -225q-115 -84 -153.5 -131t-59.5 -123l-20 -96h-185l25 112q23 94 69 149.5t210 184.5q119 96 167 169t48 161q0 78 -61.5 127t-158.5 49q-135 0 -211.5 -77t-111.5 -245h-174zM489 0 l46 211h184l-45 -211h-185z" />
<glyph unicode="@" horiz-adv-x="2078" d="M164 373q0 201 93 406.5t259 373.5q170 170 403.5 267.5t475.5 97.5q315 0 521 -178.5t206 -450.5q0 -133 -43 -267.5t-115 -226.5q-94 -121 -245.5 -199.5t-293.5 -78.5q-100 0 -149 33q-20 14 -36.5 42.5t-16.5 53.5v10v18q-23 -16 -31 -24q-147 -123 -281 -123 q-125 0 -200.5 78t-75.5 207q0 152 97 307t249 254.5t301 99.5q186 0 223 -182l74 135h168l-305 -573q-49 -92 -49 -119q0 -29 25.5 -51.5t58.5 -22.5q109 0 220 89t183 227.5t72 271.5q0 221 -170 366.5t-430 145.5q-248 0 -482.5 -138.5t-380 -361.5t-145.5 -459 q0 -240 174 -387t455 -147q168 0 418 65l26 -137q-236 -86 -502 -86q-176 0 -334.5 67.5t-267.5 188.5q-150 168 -149 408zM823 430q0 -76 44 -126t112 -50q141 0 266 178q66 92 109 195.5t43 171.5q-1 133 -140 133q-152 0 -288 -162q-66 -76 -106 -169t-40 -171z" />
<glyph unicode="A" horiz-adv-x="1366" d="M35 0l850 1493h245l207 -1493h-209l-55 449h-584l-251 -449h-203zM580 608h473l-82 682z" />
<glyph unicode="B" horiz-adv-x="1366" d="M162 0l317 1493h606q199 0 297 -104q74 -80 74 -193q0 -137 -72.5 -243.5t-205.5 -166.5q109 -47 153.5 -105t44.5 -153q0 -205 -133 -350q-160 -178 -405 -178h-676zM389 168h465q166 0 256 117q70 94 70 211q0 186 -217 186h-463zM535 850h368q190 0 279 94 q78 84 78 205q0 176 -254 176h-369z" />
<glyph unicode="C" horiz-adv-x="1478" d="M229 496q0 193 71 390t192 343q240 289 598 289q293 0 421 -220q58 -102 66 -268h-197q-12 166 -91 244t-234 78q-279 0 -463 -273q-166 -248 -166 -547q0 -186 97.5 -299.5t256.5 -113.5q121 0 230.5 53t173.5 145q51 68 121 228h200q-100 -242 -215 -367 q-207 -225 -538 -225q-268 0 -406 174q-117 147 -117 369z" />
<glyph unicode="D" horiz-adv-x="1478" d="M182 0l318 1493h577q201 0 320 -107q72 -63 114.5 -168.5t42.5 -218.5q0 -193 -66.5 -395.5t-170.5 -329.5q-225 -274 -557 -274h-578zM410 168h352q285 0 448 252q61 98 104.5 260t43.5 303q0 160 -93.5 251t-256.5 91h-351z" />
<glyph unicode="E" horiz-adv-x="1366" d="M184 0l318 1493h1036l-35 -168h-844l-102 -477h811l-37 -168h-809l-110 -512h878l-35 -168h-1071z" />
<glyph unicode="F" horiz-adv-x="1251" d="M184 0l318 1493h1001l-35 -168h-809l-102 -477h711l-35 -168h-711l-145 -680h-193z" />
<glyph unicode="G" horiz-adv-x="1593" d="M223 535q0 199 84 396t232 345q242 242 598 242q242 0 381 -119t139 -324v-12v-8v-15h-187q-2 129 -75 203q-102 109 -295 109q-307 0 -500 -250q-82 -109 -131 -254.5t-49 -280.5q0 -182 76 -297q47 -70 139 -110.5t207 -40.5q207 0 370 133q152 125 195 315l12 54h-454 l36 167h623l-170 -796h-121l-8 184q-100 -84 -166 -123q-174 -100 -385 -100q-221 0 -366 121q-86 70 -135.5 192.5t-49.5 268.5z" />
<glyph unicode="H" horiz-adv-x="1478" d="M170 0l317 1493h193l-137 -645h764l137 645h192l-317 -1493h-193l146 680h-764l-146 -680h-192z" />
<glyph unicode="I" horiz-adv-x="569" d="M205 0l317 1493h193l-318 -1493h-192z" />
<glyph unicode="J" horiz-adv-x="1024" d="M96 250q0 45 13 98l28 131h193l-29 -135q-8 -33 -8 -70q0 -70 51 -112.5t133 -42.5q121 0 201 90q61 70 96 233l223 1051h193l-238 -1120q-43 -201 -178 -310.5t-338 -109.5q-143 0 -227 65q-113 92 -113 232z" />
<glyph unicode="K" horiz-adv-x="1366" d="M162 0l317 1493h193l-162 -764l909 764h246l-739 -610l422 -883h-226l-344 770l-315 -260l-109 -510h-192z" />
<glyph unicode="L" d="M164 0l317 1493h193l-283 -1325h737l-34 -168h-930z" />
<glyph unicode="M" horiz-adv-x="1705" d="M154 0l317 1493h264l164 -1284l709 1284h268l-317 -1493h-183l264 1239l-684 -1239h-198l-158 1239l-264 -1239h-182z" />
<glyph unicode="N" horiz-adv-x="1478" d="M156 0l317 1493h213l512 -1225l260 1225h182l-317 -1493h-217l-510 1210l-258 -1210h-182z" />
<glyph unicode="O" horiz-adv-x="1593" d="M290 925q77 191 214 332q248 261 596 261q291 0 448 -158q68 -70 108 -179.5t40 -230.5q0 -244 -107.5 -473t-288.5 -366q-205 -158 -499 -158q-131 0 -248 42t-191 116q-149 149 -149 424q0 199 77 390zM410 555q0 -182 84 -289q53 -68 143 -107.5t190 -39.5 q150 0 279 67.5t219 192.5q82 111 128 253t46 281q0 182 -84 291q-53 68 -144.5 108t-195.5 40q-143 0 -273 -69t-220 -191q-172 -238 -172 -537z" />
<glyph unicode="P" horiz-adv-x="1366" d="M186 0l318 1493h618q379 0 379 -330q0 -262 -203 -424q-133 -106 -317 -106h-467l-135 -633h-193zM549 801h397q188 0 287 125q72 94 72 200q0 199 -246 199h-397z" />
<glyph unicode="Q" horiz-adv-x="1593" d="M213 541q0 236 110.5 459t292.5 360q213 158 484 158q289 0 446 -158q150 -154 150 -426q0 -221 -92.5 -424t-262.5 -354l160 -158l-123 -119l-178 178q-113 -59 -197.5 -81.5t-203.5 -22.5q-276 0 -431 155.5t-155 432.5zM410 557q0 -207 113.5 -322.5t314.5 -115.5 q111 0 243 59l-127 127l119 115l152 -150q274 264 274 643q0 182 -84 291q-53 70 -144 109t-196 39q-145 0 -274 -69t-217 -191q-82 -111 -128 -253.5t-46 -281.5z" />
<glyph unicode="R" horiz-adv-x="1478" d="M190 0l318 1493h688q197 0 289 -77t92 -238q0 -96 -38 -189.5t-99 -150.5q-49 -43 -150 -101q72 -47 97.5 -88t25.5 -108q0 -57 -43 -283q-12 -66 -12 -102q0 -70 43 -109l-10 -47h-232q-8 57 -8 96q0 49 6 83t43 188q16 72 17 122q0 154 -207 154h-490l-137 -643h-193z M555 811h473q188 0 277 109q75 95 75 220q0 81 -43 128q-51 57 -200 57h-471z" />
<glyph unicode="S" horiz-adv-x="1366" d="M182 346q0 61 19 129h178q-8 -51 -8 -84q0 -139 82 -205.5t256 -66.5q242 0 368 114q96 90 97 195q0 74 -54.5 122t-177.5 83l-350 98q-102 29 -164.5 104.5t-62.5 172.5q0 78 42 175t105 160q168 174 487 175q231 0 353 -107q110 -95 110 -239q0 -41 -16 -117h-180 q8 55 8 73q0 100 -66 160q-70 63 -245 64q-199 0 -312 -101q-90 -84 -90 -190q0 -68 44 -104.5t163 -71.5l352 -101q137 -39 201 -139q49 -78 49 -160q0 -86 -50 -187t-128 -173q-184 -172 -516 -172q-231 0 -362.5 104.5t-131.5 288.5z" />
<glyph unicode="T" horiz-adv-x="1251" d="M324 1325l34 168h1174l-35 -168h-487l-283 -1325h-192l282 1325h-493z" />
<glyph unicode="U" horiz-adv-x="1478" d="M254 317q0 61 29 197l209 979h192l-223 -1049q-10 -55 -10 -90q0 -106 91 -170.5t238 -64.5q174 0 292 87t151 238l223 1049h192l-223 -1049q-47 -223 -230.5 -357t-441.5 -134q-246 0 -376 119q-49 45 -81 113.5t-32 131.5z" />
<glyph unicode="V" horiz-adv-x="1366" d="M379 1493h199l170 -1264l688 1264h202l-835 -1493h-205z" />
<glyph unicode="W" horiz-adv-x="1933" d="M362 1493h205l31 -1212l590 1212h196l84 -1212l539 1212h213l-696 -1493h-209l-84 1212l-594 -1212h-209z" />
<glyph unicode="X" horiz-adv-x="1366" d="M45 0l694 766l-342 727h232l256 -584l508 584h233l-661 -727l366 -766h-235l-275 623l-540 -623h-236z" />
<glyph unicode="Y" horiz-adv-x="1366" d="M344 1493h229l279 -731l592 731h227l-753 -907l-125 -586h-193l125 586z" />
<glyph unicode="Z" horiz-adv-x="1251" d="M57 0l37 172l1137 1153h-832l35 168h1075l-36 -172l-1139 -1153h897l-35 -168h-1139z" />
<glyph unicode="[" horiz-adv-x="569" d="M39 -436l410 1929h380l-30 -147h-209l-348 -1635h209l-31 -147h-381z" />
<glyph unicode="\" horiz-adv-x="569" d="M301 1493h113l159 -1534h-112z" />
<glyph unicode="]" horiz-adv-x="569" d="M-47 -436l31 147h211l348 1635h-211l30 147h383l-409 -1929h-383z" />
<glyph unicode="^" horiz-adv-x="960" d="M236 674l479 778h149l152 -778h-142l-118 612l-373 -612h-147z" />
<glyph unicode="_" d="M-121 -360l23 102h1226l-22 -102h-1227z" />
<glyph unicode="`" horiz-adv-x="681" d="M367 1516h217l147 -304h-108z" />
<glyph unicode="a" d="M133 215q0 188 168 295q76 47 166 68.5t295 39.5q113 10 152.5 34t54.5 87l6 37q4 33 4 39q0 57 -62.5 94t-154.5 37q-143 0 -219 -76q-37 -37 -62 -114h-172q29 170 157 259t341 89q162 0 259 -63.5t97 -168.5q0 -20 -12 -75l-131 -617q-2 -6 -2 -20q0 -59 78 -60 q16 0 34 4l-26 -133q-25 -4 -29 -6q-51 -12 -80 -12q-74 0 -114.5 36t-40.5 99v8v15q-102 -90 -181 -117q-113 -41 -231 -41q-137 0 -216 69.5t-79 192.5zM313 236q0 -66 47.5 -101t135.5 -35q135 0 251 71t136 165l41 192q-88 -31 -299 -59q-145 -20 -211 -61 q-45 -27 -73 -74t-28 -98z" />
<glyph unicode="b" d="M111 0l317 1493h172l-119 -563q76 82 125 112q102 61 236 62q156 0 259 -115t103 -287q0 -158 -62.5 -319.5t-164.5 -269.5q-70 -72 -171 -116t-204 -44q-143 0 -227 84q-41 41 -76 123l-35 -160h-153zM379 375q0 -121 61.5 -192.5t165.5 -71.5q199 0 324 206 q94 156 94 347q0 133 -63.5 207.5t-176.5 74.5q-188 0 -311 -207q-94 -162 -94 -364z" />
<glyph unicode="c" horiz-adv-x="1024" d="M156 348q0 141 47 292t119 245q168 219 458 219q170 0 264 -96q90 -94 91 -205q0 -2 -1 -10.5t-2.5 -22.5t-1.5 -27l-2 -30h-172q2 18 2 45q0 88 -56 138t-152 50q-188 0 -304 -182q-110 -172 -110 -389q0 -123 62.5 -193.5t168.5 -70.5q227 0 322 258h172 q-47 -162 -119 -246q-145 -170 -403 -170q-193 0 -293 127q-90 113 -90 268z" />
<glyph unicode="d" d="M150 348q0 324 169.5 540t423.5 216q109 0 176.5 -43t116.5 -143l123 575h172l-317 -1493h-166l33 156q-39 -78 -117 -125q-129 -78 -264 -78q-160 0 -255 107.5t-95 287.5zM330 389q0 -133 63.5 -205.5t175.5 -72.5q184 0 305 206q94 164 95 353q0 131 -63.5 203.5 t-178.5 72.5q-193 0 -307 -207q-90 -170 -90 -350z" />
<glyph unicode="e" d="M172 354q0 125 50 278.5t122 250.5q76 102 198 161.5t255 59.5q166 0 278.5 -101.5t112.5 -248.5q0 -86 -29 -240l-6 -35h-791q-10 -39 -10 -94q0 -131 66.5 -202.5t187.5 -71.5q207 0 320 215h172q-47 -166 -191.5 -269.5t-328.5 -103.5q-174 0 -279 102 q-127 121 -127 299zM399 627h602q6 49 7 67q0 115 -64.5 183.5t-173.5 68.5q-125 0 -227.5 -89t-143.5 -230z" />
<glyph unicode="f" horiz-adv-x="569" d="M182 0l199 936h-143l28 137h144l39 182q25 115 105.5 179.5t199.5 64.5q45 0 92 -10l-31 -141q-29 4 -55 4q-66 0 -98.5 -30t-49.5 -108l-30 -141h176l-29 -137h-176l-199 -936h-172z" />
<glyph unicode="g" d="M66 -186q0 20 2 36l2 27h172v-16v-13q0 -70 58 -108.5t163 -38.5q164 0 253 90t134 299l8 39q-154 -164 -352 -164q-156 0 -255 105.5t-99 273.5q0 141 52 297t134 258q76 94 187.5 149.5t230.5 55.5q104 0 188 -62q55 -41 96 -129l35 160h156l-191 -899 q-41 -195 -88 -302.5t-125 -180.5q-143 -137 -399 -137q-164 0 -263 70.5t-99 189.5zM332 377q0 -121 60.5 -192.5t162.5 -71.5q92 0 176 54t135 148q94 164 95 379q0 115 -60 183.5t-158 68.5q-96 0 -179 -54t-138 -155q-94 -168 -94 -360z" />
<glyph unicode="h" d="M143 0l318 1493h172l-117 -553q96 90 182 127t201 37q129 0 203 -68.5t74 -189.5q0 -41 -9 -76l-163 -770h-173l150 702q12 55 12 80q0 78 -48 126t-126 48q-139 0 -240.5 -97t-138.5 -267l-125 -592h-172z" />
<glyph unicode="i" horiz-adv-x="454" d="M135 0l227 1073h173l-228 -1073h-172zM408 1282l45 211h172l-45 -211h-172z" />
<glyph unicode="j" horiz-adv-x="454" d="M-133 -440l31 145q37 -4 51 -4q78 0 109.5 28.5t50.5 114.5l260 1229h172l-275 -1296q-29 -127 -106.5 -175t-253.5 -48q-16 0 -39 6zM414 1282l45 211h172l-45 -211h-172z" />
<glyph unicode="k" horiz-adv-x="1024" d="M119 0l317 1493h172l-184 -866l551 446h221l-455 -371l287 -702h-197l-233 596l-219 -180l-88 -416h-172z" />
<glyph unicode="l" horiz-adv-x="454" d="M139 0l318 1493h172l-318 -1493h-172z" />
<glyph unicode="m" horiz-adv-x="1705" d="M145 0l228 1073h155l-26 -133q98 92 179 128t185 36q199 0 248 -170q176 170 371 170q131 0 194 -70q66 -76 66 -157q0 -68 -12 -113l-162 -764h-172l147 698q18 70 19 101q0 74 -42 115.5t-114 41.5q-111 0 -204 -81.5t-118 -200.5l-143 -674h-172l158 739q8 35 8 76 q0 63 -46 102t-122 39q-102 0 -193.5 -82.5t-115.5 -199.5l-144 -674h-172z" />
<glyph unicode="n" d="M143 0l228 1073h155l-26 -133q160 164 397 164q127 0 203 -69.5t76 -186.5q0 -43 -9 -78l-163 -770h-173l152 715q12 49 12 76q0 72 -51 118.5t-127 46.5q-137 0 -238.5 -97t-138.5 -267l-125 -592h-172z" />
<glyph unicode="o" d="M164 336q0 131 45 281.5t115 248.5q78 113 198.5 175.5t263.5 62.5q178 0 281 -100q113 -109 113 -283q0 -133 -46.5 -283.5t-115.5 -247.5q-171 -237 -465 -237h-2q-172 0 -279.5 106.5t-107.5 276.5zM344 377q0 -123 63.5 -194.5t172.5 -71.5q211 0 329 215 q90 166 90 356q0 125 -63 194.5t-176 69.5q-209 0 -326 -215q-90 -166 -90 -354z" />
<glyph unicode="p" d="M14 -436l322 1509h166l-37 -172q35 72 117 123q123 80 262 80q164 0 260 -107.5t96 -291.5q0 -152 -49 -300.5t-131 -248.5q-78 -96 -187.5 -149.5t-230.5 -53.5q-109 0 -177.5 43t-115.5 143l-123 -575h-172zM375 377q0 -123 65.5 -194.5t177.5 -71.5q199 0 312 206 q90 166 90 347q0 133 -64.5 207.5t-179.5 74.5q-190 0 -305 -207q-96 -166 -96 -362z" />
<glyph unicode="q" d="M145 354q0 158 62.5 320t165.5 270q70 74 171 117t206 43q227 0 301 -207l39 176h153l-321 -1509h-172l120 563q-88 -88 -127 -113q-98 -61 -235 -61q-156 0 -259.5 114.5t-103.5 286.5zM326 381q0 -123 65.5 -196.5t173.5 -73.5q186 0 312 206q94 162 94 365 q0 121 -62 192.5t-164 71.5q-203 0 -325 -207q-94 -158 -94 -358z" />
<glyph unicode="r" horiz-adv-x="681" d="M141 0l228 1073h155l-35 -168q94 109 171 154t167 45q25 0 66 -6l-37 -174h-21q-326 0 -403 -367l-119 -557h-172z" />
<glyph unicode="s" horiz-adv-x="1024" d="M125 215q0 47 12 104h182q-4 -41 -4 -51q0 -76 57.5 -116.5t164.5 -40.5q145 0 227 69q25 20 45 59.5t20 67.5q0 33 -26 68q-23 27 -117 53l-151 39q-158 41 -220.5 93t-62.5 147q0 72 33.5 146.5t89.5 127.5q129 123 354 123q150 0 243 -67.5t93 -174.5q0 -37 -12 -88 h-172q2 16 2 45q0 59 -49.5 93t-139.5 34q-131 0 -200 -67q-61 -57 -62 -127q0 -80 174 -123l156 -39q135 -33 191.5 -87t56.5 -149q0 -182 -137.5 -291.5t-366.5 -109.5q-178 0 -279.5 69.5t-101.5 192.5z" />
<glyph unicode="t" horiz-adv-x="569" d="M199 115q0 33 6 63l162 758h-146l29 137h145l64 295h172l-64 -295h183l-29 -137h-182l-160 -752q-4 -25 -4 -28q0 -25 20.5 -40.5t53.5 -15.5q27 0 98 17l-33 -150q-51 -14 -133 -14q-84 0 -133 43t-49 119z" />
<glyph unicode="u" d="M180 176q0 39 6 70l176 827h173l-162 -760q-6 -31 -6 -55q0 -72 49 -115t133 -43q131 0 231.5 99.5t134.5 265.5l129 608h173l-228 -1073h-155l24 117q-170 -164 -395 -164q-133 0 -208 59.5t-75 163.5z" />
<glyph unicode="v" horiz-adv-x="1024" d="M250 1073h188l101 -864l499 864h187l-637 -1073h-187z" />
<glyph unicode="w" horiz-adv-x="1478" d="M242 1073h186l39 -835l387 835h215l23 -835l401 835h186l-540 -1073h-195l-24 856l-400 -856h-196z" />
<glyph unicode="x" horiz-adv-x="1024" d="M35 0l489 547l-241 526h190l180 -393l342 393h199l-477 -526l252 -547h-193l-184 410l-356 -410h-201z" />
<glyph unicode="y" horiz-adv-x="1024" d="M16 -426l33 154q74 -8 90 -9q57 0 90 21.5t74 85.5l107 166l-140 1081h185l94 -833l477 833h182l-753 -1298q-129 -221 -338 -221q-55 0 -101 20z" />
<glyph unicode="z" horiz-adv-x="1024" d="M63 0l37 152l809 774h-602l31 147h803l-37 -153l-803 -773h668l-31 -147h-875z" />
<glyph unicode="{" horiz-adv-x="684" d="M186 459l31 141q90 16 140.5 80.5t76.5 202.5l74 340q27 121 86 184q80 86 192 86h97l-29 -133h-33q-76 0 -109.5 -28.5t-49.5 -108.5l-80 -371q-45 -223 -222 -322q57 -37 78 -78.5t21 -119.5q0 -66 -13 -125l-79 -371q-8 -33 -9 -67q0 -70 111 -70h33l-29 -135h-96 q-84 0 -130 43t-46 119q0 55 12 110l72 340q18 82 18 137q0 127 -117 146z" />
<glyph unicode="|" horiz-adv-x="532" d="M111 -434l411 1927h123l-412 -1927h-122z" />
<glyph unicode="}" horiz-adv-x="684" d="M-33 -436l29 133h33q76 0 109.5 28.5t49.5 108.5l80 371q27 137 73 205.5t148 115.5q-98 86 -98 215q0 53 12 111l80 371q8 33 9 67q0 70 -111 70h-33l29 133h96q78 0 127 -46t49 -122q0 -43 -12 -102l-72 -340q-18 -92 -18 -148q0 -117 117 -135l-31 -143 q-174 -27 -217 -283l-74 -340q-27 -119 -82 -184q-41 -49 -84 -67.5t-113 -18.5h-96z" />
<glyph unicode="~" horiz-adv-x="1196" d="M281 600q39 143 111.5 220t170.5 77q55 0 105 -33l209 -141q53 -35 96 -35q104 0 137 154h107q-18 -113 -70 -180q-82 -113 -209 -113q-78 0 -152 53l-174 129q-43 31 -80 31q-96 0 -145 -162h-106z" />
<glyph unicode="&#xa1;" horiz-adv-x="681" d="M156 -420l151 717l137 432h82l-47 -432l-151 -717h-172zM432 862l45 211h172l-45 -211h-172z" />
<glyph unicode="&#xa2;" d="M197 350q0 176 65.5 341t175.5 265q139 125 346 146l39 184h82l-39 -184q68 0 127 -21q88 -33 146.5 -112.5t58.5 -165.5q0 -2 -1 -10.5t-2 -22.5t-1 -27l-2 -30h-172q2 18 2 47q0 156 -164 184l-24 4l-179 -839q109 12 179.5 73.5t117.5 186.5h172q-53 -203 -175 -303.5 t-326 -112.5l-43 -199h-82l43 201q-158 16 -251 123.5t-93 271.5zM377 375q0 -109 53 -178.5t145 -81.5l175 827q-109 -20 -185 -92q-84 -82 -136 -213t-52 -262z" />
<glyph unicode="&#xa3;" d="M90 106q356 236 356 449q0 37 -20 102h-231l24 113h170q-8 25 -18 45q-43 100 -43 168q0 199 176 354.5t401 155.5q170 0 275.5 -85t105.5 -222q0 -57 -18 -168h-181q18 68 19 117q0 92 -64.5 146t-173.5 54q-145 0 -244.5 -94t-99.5 -233q0 -41 6.5 -63.5t38.5 -117.5 q2 -2 19 -57h327l-24 -113h-281l2 -22q4 -53 4 -55q0 -70 -36 -150q-35 -76 -78 -124t-156 -130q-6 -4 -14 -11t-23.5 -18.5t-29.5 -21.5q160 80 272 80q55 0 108 -19q129 -43 209 -43q82 0 193 64l51 -144q-135 -111 -291 -110q-100 0 -284 72q-63 23 -129 22 q-109 0 -242 -76z" />
<glyph unicode="&#xa4;" d="M225 391l123 101q-29 53 -29 133q0 76 31 149q18 45 82 129l6 8l-86 113l135 115l93 -119q94 55 208 55q125 0 191 -59l139 114l96 -118l-141 -115q27 -47 27 -117q0 -72 -32 -152.5t-79 -125.5l88 -111l-143 -110l-86 108q-90 -61 -215 -61q-123 0 -184 51l-134 -107z M481 662q0 -76 53.5 -126.5t131.5 -50.5q106 0 189 80t83 180q0 72 -53 122.5t-129 50.5q-106 0 -190.5 -78t-84.5 -178z" />
<glyph unicode="&#xa5;" d="M205 358l22 105h357l34 158h-358l23 104h315l-266 727h174l237 -659l508 659h174l-567 -727h316l-23 -104h-352l-35 -158h352l-20 -105h-355l-75 -358h-181l76 358h-356z" />
<glyph unicode="&#xa6;" horiz-adv-x="532" d="M111 -434l176 821h123l-177 -821h-122zM346 672l176 821h123l-176 -821h-123z" />
<glyph unicode="&#xa7;" d="M129 -154q0 49 23 125h174q-16 -57 -17 -92q0 -70 50.5 -114t127.5 -44q94 0 162 62.5t68 146.5q0 80 -78 148l-297 254q-129 109 -129 229q0 139 98 252q35 39 69 62.5t126 72.5q-53 68 -53 158q0 152 134 269.5t306 117.5q137 0 225 -78t88 -198q0 -45 -24 -125l-2 -2 q0 -4 -1 -8.5t-1 -8.5h-172q20 59 20 105q0 72 -46 114.5t-124 42.5q-86 0 -150.5 -61.5t-64.5 -140.5q0 -35 17.5 -60.5t68.5 -66.5l260 -207q78 -63 109 -99q49 -68 49 -153q0 -68 -30 -146.5t-77 -132.5q-70 -82 -194 -123q61 -84 61 -178q0 -135 -112 -258 q-127 -145 -332 -145q-150 0 -241 77.5t-91 204.5zM393 633q0 -49 19.5 -84t70.5 -80l283 -248q199 102 199 252q0 98 -109 186l-268 218q-109 -61 -152 -115.5t-43 -128.5z" />
<glyph unicode="&#xa8;" horiz-adv-x="681" d="M326 1253l45 211h213l-45 -211h-213zM655 1253l45 211h213l-45 -211h-213z" />
<glyph unicode="&#xa9;" horiz-adv-x="1509" d="M113 575q0 240 137 459t362 352.5t473 133.5q272 0 449.5 -175.5t177.5 -443.5q0 -242 -137 -461t-362.5 -352t-473.5 -133q-272 0 -449 176t-177 444zM256 600q0 -223 145.5 -370.5t366.5 -147.5q203 0 389 111.5t299 297t113 386.5q0 223 -145.5 369.5t-366.5 146.5 q-203 0 -389.5 -112t-299 -296t-112.5 -385zM510 598q0 248 158 438q152 176 362 176q137 0 204 -76.5t71 -240.5h-146q-4 100 -42 145t-118 45q-150 0 -249 -151q-92 -141 -93 -318q0 -102 53.5 -166.5t141.5 -64.5q174 0 268 254h146q-63 -160 -136 -238 q-131 -143 -311 -143q-143 0 -226 91t-83 249z" />
<glyph unicode="&#xaa;" horiz-adv-x="757" d="M219 621l23 104h589l-22 -104h-590zM279 981q0 119 102 182q72 45 274 66q68 8 88.5 19.5t30.5 47.5l4 17q4 20 4 30q0 20 -22 48q-25 25 -105 24q-86 0 -125 -45q-25 -29 -38 -72h-115q31 109 69 146q80 76 244 76q98 0 155.5 -36t57.5 -100q0 -31 -2 -36l-84 -390 q-2 -6 -2 -14q0 -10 10.5 -19.5t24.5 -9.5q10 0 18 3l17 2l-19 -91q-4 0 -10 -2q-8 -2 -10 -2q-35 -8 -53 -8q-86 0 -97 88q-94 -88 -223 -88q-94 0 -144 43t-50 121zM401 995q0 -76 109 -75q70 0 136.5 43t76.5 92l20 104q-41 -14 -104 -22q-139 -18 -180 -45 q-57 -35 -58 -97z" />
<glyph unicode="&#xab;" d="M301 465l39 182l362 250l-36 -170l-248 -172l176 -170l-37 -168zM721 465l39 182l362 250l-37 -170l-247 -172l176 -170l-37 -168z" />
<glyph unicode="&#xac;" horiz-adv-x="1196" d="M203 625l30 147h1035l-125 -596h-144l95 449h-891z" />
<glyph unicode="&#xad;" horiz-adv-x="681" d="M199 492l30 147h490l-31 -147h-489z" />
<glyph unicode="&#xae;" horiz-adv-x="1509" d="M113 575q0 240 137 459t362 352.5t473 133.5q272 0 449.5 -175.5t177.5 -443.5q0 -242 -137 -461t-362.5 -352t-473.5 -133q-272 0 -449 176t-177 444zM256 600q0 -223 145.5 -370.5t366.5 -147.5q203 0 389 111.5t299 297t113 386.5q0 223 -145.5 369.5t-366.5 146.5 q-203 0 -389.5 -112t-299 -296t-112.5 -385zM475 287l193 911h422q244 0 243 -182q0 -86 -37 -160q-33 -61 -127 -119q35 -29 47.5 -51t12.5 -63q0 -35 -17 -115q-14 -92 -14 -111q0 -37 25 -59l-11 -51h-159q-8 33 -9 57q0 51 31 174q8 45 8 66q0 82 -110 82h-275l-80 -379 h-143zM727 795h264q102 0 148 57q39 53 39 123q0 51 -31 72.5t-98 21.5h-265z" />
<glyph unicode="&#xaf;" horiz-adv-x="681" d="M328 1284l30 141h564l-31 -141h-563z" />
<glyph unicode="&#xb0;" horiz-adv-x="1241" d="M596 1096q0 127 91 218t218 91q129 0 220.5 -91t91.5 -218q0 -131 -91.5 -221.5t-222.5 -90.5q-125 0 -216 92.5t-91 219.5zM688 1096q0 -90 63.5 -157t151.5 -67q92 0 156.5 64.5t64.5 159.5q0 90 -64.5 155.5t-152.5 65.5q-90 0 -154.5 -65.5t-64.5 -155.5z" />
<glyph unicode="&#xb1;" horiz-adv-x="1196" d="M102 0l31 147h991l-30 -147h-992zM258 731l31 148h424l88 417h145l-90 -417h424l-31 -148h-424l-90 -426h-145l92 426h-424z" />
<glyph unicode="&#xb2;" horiz-adv-x="798" d="M205 582q43 156 106.5 227.5t231.5 157.5l129 63q154 72 153 187q0 55 -37.5 88.5t-101.5 33.5q-86 0 -137 -48t-78 -154h-129q37 164 125 239.5t240 75.5q115 0 183 -58.5t68 -158.5q0 -184 -253 -309l-140 -68q-145 -72 -194 -153h473l-25 -123h-614z" />
<glyph unicode="&#xb3;" horiz-adv-x="798" d="M252 764q0 16 6 84h131l-2 -25q-2 -18 -2 -43q0 -51 38 -82.5t101 -31.5q100 0 162 56t62 148q0 102 -160 103q-31 0 -64 -2l23 108h24h9q219 0 219 162q0 45 -34 71.5t-93 26.5q-102 0 -156 -71q-25 -31 -43 -111h-129q37 133 88 189q96 106 260 106q109 0 174.5 -51 t65.5 -135q0 -78 -33 -132.5t-108 -101.5q90 -43 90 -143q0 -143 -107.5 -239.5t-267.5 -96.5q-123 0 -188.5 54.5t-65.5 156.5z" />
<glyph unicode="&#xb4;" horiz-adv-x="681" d="M446 1212l263 304h229l-369 -304h-123z" />
<glyph unicode="&#xb6;" horiz-adv-x="1099" d="M297 893q0 233 176 416.5t401 183.5h512l-28 -131h-115l-366 -1727h-132l367 1727h-170l-367 -1727h-131l191 895q-158 4 -248 101.5t-90 261.5z" />
<glyph unicode="&#xb7;" horiz-adv-x="569" d="M340 393l45 211h215l-45 -211h-215z" />
<glyph unicode="&#xb8;" horiz-adv-x="681" d="M2 -369l57 78q117 -59 193 -59q57 0 93 31.5t36 80.5q0 18 -18.5 31.5t-45.5 13.5q-8 0 -41 -6l-14 -2l-26 13l102 188h84l-62 -115q27 4 43 4q57 0 97.5 -30.5t40.5 -73.5q0 -96 -84 -159.5t-213 -63.5q-104 0 -242 69z" />
<glyph unicode="&#xb9;" horiz-adv-x="798" d="M420 1188l20 94q139 18 181.5 44t93.5 126h90l-184 -870h-132l129 606h-198z" />
<glyph unicode="&#xba;" horiz-adv-x="747" d="M233 621l23 104h539l-23 -104h-539zM305 1042q0 86 27.5 181.5t70.5 152.5q105 144 285 144q106 0 166 -54q72 -68 72 -182q0 -78 -29 -170t-70 -151q-106 -145 -290 -146q-102 0 -167 62.5t-65 162.5zM428 1075q0 -72 36 -111.5t101 -39.5q100 0 169 98t69 242 q0 70 -36 109.5t-97 39.5q-102 0 -172 -97t-70 -241z" />
<glyph unicode="&#xbb;" d="M248 217l37 170l252 172l-181 170l37 168l260 -248l-39 -182zM655 217l37 170l252 172l-180 170l37 168l260 -248l-39 -182z" />
<glyph unicode="&#xbc;" horiz-adv-x="1939" d="M420 1188l20 94q139 18 181.5 44t93.5 126h90l-184 -870h-132l129 606h-198zM434 -41l1241 1493h119l-1241 -1493h-119zM1257 205l27 123l524 542h97l-117 -553h133l-25 -112h-133l-43 -205h-129l43 205h-377zM1409 317h250l70 330z" />
<glyph unicode="&#xbd;" horiz-adv-x="1939" d="M414 -41l1241 1493h119l-1242 -1493h-118zM420 1188l20 94q139 18 181.5 44t93.5 126h90l-184 -870h-132l129 606h-198zM1223 0q43 156 106.5 227.5t231.5 157.5l129 64q154 72 153 186q0 55 -38 89t-101 34q-86 0 -137 -48t-78 -155h-129q37 164 125 239.5t239 75.5 q115 0 183.5 -58t68.5 -159q0 -184 -254 -309l-139 -68q-145 -72 -194 -153h473l-25 -123h-614z" />
<glyph unicode="&#xbe;" horiz-adv-x="1939" d="M252 764q0 16 6 84h131l-2 -25q-2 -18 -2 -43q0 -51 38 -82.5t101 -31.5q100 0 162 56t62 148q0 102 -160 103q-31 0 -64 -2l23 108h24h9q219 0 219 162q0 45 -34 71.5t-93 26.5q-102 0 -156 -71q-25 -31 -43 -111h-129q37 133 88 189q96 106 260 106q109 0 174.5 -51 t65.5 -135q0 -78 -33 -132.5t-108 -101.5q90 -43 90 -143q0 -143 -107.5 -239.5t-267.5 -96.5q-123 0 -188.5 54.5t-65.5 156.5zM475 -41l1241 1493h119l-1241 -1493h-119zM1257 205l27 123l524 542h97l-117 -553h133l-25 -112h-133l-43 -205h-129l43 205h-377zM1409 317 h250l70 330z" />
<glyph unicode="&#xbf;" horiz-adv-x="1251" d="M176 -147q0 150 105 286q55 72 190 176q115 84 154 131.5t59 122.5l21 97h184l-25 -113q-23 -94 -72 -152.5t-208 -181.5q-213 -168 -213 -328q0 -82 59 -130t160 -48q135 0 212 77t111 245h174q-96 -479 -542 -479q-199 0 -297 112q-72 82 -72 185zM745 862l46 211h184 l-45 -211h-185z" />
<glyph unicode="&#xc0;" horiz-adv-x="1366" d="M35 0l850 1493h245l207 -1493h-209l-55 449h-584l-251 -449h-203zM580 608h473l-82 682zM772 1923h217l148 -303h-109z" />
<glyph unicode="&#xc1;" horiz-adv-x="1366" d="M35 0l850 1493h245l207 -1493h-209l-55 449h-584l-251 -449h-203zM580 608h473l-82 682zM874 1620l263 303h229l-369 -303h-123z" />
<glyph unicode="&#xc2;" horiz-adv-x="1366" d="M35 0l850 1493h245l207 -1493h-209l-55 449h-584l-251 -449h-203zM580 608h473l-82 682zM733 1618l262 307h195l131 -307h-129l-115 203l-213 -203h-131z" />
<glyph unicode="&#xc3;" horiz-adv-x="1366" d="M35 0l850 1493h245l207 -1493h-209l-55 449h-584l-251 -449h-203zM580 608h473l-82 682zM694 1659q33 96 66 137q25 33 66.5 53.5t80.5 20.5q45 0 150 -35q88 -31 129 -31q31 0 50 15.5t48 60.5h109q-33 -100 -92.5 -159.5t-129.5 -59.5q-55 0 -210 53q-35 12 -56 12 q-55 0 -88 -49q-2 -2 -14 -18h-109z" />
<glyph unicode="&#xc4;" horiz-adv-x="1366" d="M35 0l850 1493h245l207 -1493h-209l-55 449h-584l-251 -449h-203zM580 608h473l-82 682zM768 1661l45 211h213l-45 -211h-213zM1098 1661l45 211h213l-45 -211h-213z" />
<glyph unicode="&#xc5;" horiz-adv-x="1366" d="M35 0l850 1493h245l207 -1493h-209l-55 449h-584l-251 -449h-203zM580 608h473l-82 682zM870 1737q0 82 69 148.5t153 66.5q63 0 105 -39t42 -98q0 -86 -67.5 -154t-155.5 -68q-61 0 -103.5 42t-42.5 102zM965 1755q0 -33 20.5 -52.5t50.5 -19.5q41 0 76 33t35 74 q0 31 -20.5 51.5t-49.5 20.5q-43 0 -77.5 -33t-34.5 -74z" />
<glyph unicode="&#xc6;" horiz-adv-x="2048" d="M23 0l929 1493h1274l-35 -168h-759l-101 -477h719l-37 -168h-719l-108 -512h794l-34 -168h-988l93 438h-551l-267 -438h-210zM600 604h487l152 721h-205z" />
<glyph unicode="&#xc7;" horiz-adv-x="1478" d="M229 496q0 193 71 390t192 343q240 289 598 289q293 0 421 -220q57 -102 66 -268h-197q-12 166 -91 244t-234 78q-279 0 -463 -273q-166 -248 -166 -547q0 -186 97.5 -299.5t256.5 -113.5q121 0 230.5 53t173.5 145q51 68 121 228h200q-121 -303 -302 -445.5t-449 -146.5 l-35 -68q27 4 43 4q57 0 97 -30.5t40 -73.5q0 -96 -84 -159.5t-213 -63.5q-104 0 -242 69l58 78q113 -59 192 -59q57 0 93 31.5t36 80.5q0 18 -18.5 31.5t-44.5 13.5q-10 0 -41 -6l-14 -2l-27 13l78 145q-102 14 -158.5 37.5t-110.5 71.5q-174 156 -174 430z" />
<glyph unicode="&#xc8;" horiz-adv-x="1366" d="M184 0l318 1493h1036l-35 -168h-844l-102 -477h811l-37 -168h-809l-110 -512h878l-35 -168h-1071zM797 1923h217l147 -303h-108z" />
<glyph unicode="&#xc9;" horiz-adv-x="1366" d="M184 0l318 1493h1036l-35 -168h-844l-102 -477h811l-37 -168h-809l-110 -512h878l-35 -168h-1071zM930 1620l262 303h229l-368 -303h-123z" />
<glyph unicode="&#xca;" horiz-adv-x="1366" d="M184 0l318 1493h1036l-35 -168h-844l-102 -477h811l-37 -168h-809l-110 -512h878l-35 -168h-1071zM752 1618l262 307h194l131 -307h-129l-114 203l-213 -203h-131z" />
<glyph unicode="&#xcb;" horiz-adv-x="1366" d="M184 0l318 1493h1036l-35 -168h-844l-102 -477h811l-37 -168h-809l-110 -512h878l-35 -168h-1071zM776 1661l45 211h213l-45 -211h-213zM1106 1661l45 211h213l-45 -211h-213z" />
<glyph unicode="&#xcc;" horiz-adv-x="569" d="M205 0l317 1493h193l-318 -1493h-192zM410 1923h217l147 -303h-108z" />
<glyph unicode="&#xcd;" horiz-adv-x="569" d="M205 0l317 1493h193l-318 -1493h-192zM489 1620l263 303h229l-369 -303h-123z" />
<glyph unicode="&#xce;" horiz-adv-x="569" d="M205 0l317 1493h193l-318 -1493h-192zM342 1618l262 307h195l131 -307h-129l-115 203l-213 -203h-131z" />
<glyph unicode="&#xcf;" horiz-adv-x="569" d="M205 0l317 1493h193l-318 -1493h-192zM369 1647l45 211h213l-45 -211h-213zM698 1647l45 211h213l-45 -211h-213z" />
<glyph unicode="&#xd0;" horiz-adv-x="1478" d="M182 0l148 698h-140l27 138h143l140 657h577q201 0 320 -107q72 -63 114.5 -168.5t42.5 -218.5q0 -193 -66.5 -395.5t-170.5 -329.5q-225 -274 -557 -274h-578zM410 168h352q285 0 448 252q61 96 104.5 260t43.5 303q0 162 -93.5 252t-256.5 90h-351l-104 -489h340 l-29 -138h-342z" />
<glyph unicode="&#xd1;" horiz-adv-x="1478" d="M156 0l317 1493h213l512 -1225l260 1225h182l-317 -1493h-217l-510 1210l-258 -1210h-182zM780 1659q33 96 66 137q25 33 66.5 53.5t80.5 20.5q45 0 150 -35q88 -31 129 -31q31 0 50 15.5t48 60.5h109q-33 -100 -92.5 -159.5t-129.5 -59.5q-55 0 -210 53q-35 12 -56 12 q-55 0 -88 -49q-2 -2 -14 -18h-109z" />
<glyph unicode="&#xd2;" horiz-adv-x="1593" d="M213 539q0 195 77 386t214 332q248 261 596 261q291 0 448 -158q68 -70 108 -179.5t40 -230.5q0 -244 -107.5 -473t-288.5 -366q-205 -158 -499 -158q-131 0 -248 42t-191 116q-150 150 -149 428zM410 555q0 -182 84 -289q53 -68 143 -107.5t190 -39.5q150 0 279 67.5 t219 192.5q82 111 128 253t46 281q0 182 -84 291q-53 68 -144.5 108t-195.5 40q-143 0 -273 -69t-220 -191q-172 -238 -172 -537zM885 1923h217l147 -303h-108z" />
<glyph unicode="&#xd3;" horiz-adv-x="1593" d="M213 539q0 195 77 386t214 332q248 261 596 261q291 0 448 -158q68 -70 108 -179.5t40 -230.5q0 -244 -107.5 -473t-288.5 -366q-205 -158 -499 -158q-131 0 -248 42t-191 116q-150 150 -149 428zM410 555q0 -182 84 -289q53 -68 143 -107.5t190 -39.5q150 0 279 67.5 t219 192.5q82 111 128 253t46 281q0 182 -84 291q-53 68 -144.5 108t-195.5 40q-143 0 -273 -69t-220 -191q-172 -238 -172 -537zM1010 1620l262 303h229l-368 -303h-123z" />
<glyph unicode="&#xd4;" horiz-adv-x="1593" d="M213 539q0 195 77 386t214 332q248 261 596 261q291 0 448 -158q68 -70 108 -179.5t40 -230.5q0 -244 -107.5 -473t-288.5 -366q-205 -158 -499 -158q-131 0 -248 42t-191 116q-150 150 -149 428zM410 555q0 -182 84 -289q53 -68 143 -107.5t190 -39.5q150 0 279 67.5 t219 192.5q82 111 128 253t46 281q0 182 -84 291q-53 68 -144.5 108t-195.5 40q-143 0 -273 -69t-220 -191q-172 -238 -172 -537zM840 1618l262 307h194l131 -307h-129l-114 203l-213 -203h-131z" />
<glyph unicode="&#xd5;" horiz-adv-x="1593" d="M213 539q0 195 77 386t214 332q248 261 596 261q291 0 448 -158q68 -70 108 -179.5t40 -230.5q0 -244 -107.5 -473t-288.5 -366q-205 -158 -499 -158q-131 0 -248 42t-191 116q-150 150 -149 428zM410 555q0 -182 84 -289q53 -68 143 -107.5t190 -39.5q150 0 279 67.5 t219 192.5q82 111 128 253t46 281q0 182 -84 291q-53 68 -144.5 108t-195.5 40q-143 0 -273 -69t-220 -191q-172 -238 -172 -537zM831 1659q33 96 66 137q25 33 67 53.5t80 20.5q45 0 150 -35q88 -31 129 -31q31 0 50 15.5t48 60.5h109q-33 -100 -92.5 -159.5t-128.5 -59.5 q-55 0 -211 53q-33 12 -56 12q-55 0 -88 -49q-2 -2 -14 -18h-109z" />
<glyph unicode="&#xd6;" horiz-adv-x="1593" d="M213 539q0 195 77 386t214 332q248 261 596 261q291 0 448 -158q68 -70 108 -179.5t40 -230.5q0 -244 -107.5 -473t-288.5 -366q-205 -158 -499 -158q-131 0 -248 42t-191 116q-150 150 -149 428zM410 555q0 -182 84 -289q53 -68 143 -107.5t190 -39.5q150 0 279 67.5 t219 192.5q82 111 128 253t46 281q0 182 -84 291q-53 68 -144.5 108t-195.5 40q-143 0 -273 -69t-220 -191q-172 -238 -172 -537zM868 1661l45 211h213l-45 -211h-213zM1198 1661l45 211h213l-45 -211h-213z" />
<glyph unicode="&#xd7;" horiz-adv-x="1196" d="M231 172l365 301l-236 299l123 100l236 -297l364 299l80 -102l-364 -299l239 -301l-125 -102l-237 301l-365 -299z" />
<glyph unicode="&#xd8;" horiz-adv-x="1593" d="M66 31l192 174q-78 133 -78 344q0 186 78 376.5t211 331.5q248 260 594 261q150 0 272.5 -46.5t190.5 -125.5l178 159l72 -80l-189 -170q76 -131 76 -307q0 -244 -109.5 -475t-287.5 -362q-215 -158 -492 -158q-291 0 -450 164l-187 -166zM377 543q0 -113 37 -199 l962 868q-117 139 -336 140q-279 0 -471 -234.5t-192 -574.5zM471 252q53 -61 141 -97t189 -36q143 0 273 69.5t220 190.5q80 109 126 251t46 277q1 129 -32 211z" />
<glyph unicode="&#xd9;" horiz-adv-x="1478" d="M254 317q0 57 29 197l209 979h192l-223 -1049q-10 -51 -10 -88q0 -106 91 -171.5t238 -65.5q174 0 292 87t151 238l223 1049h192l-223 -1049q-47 -223 -230.5 -357t-441.5 -134q-246 0 -376 119q-49 45 -81 113.5t-32 131.5zM836 1923h217l147 -303h-110z" />
<glyph unicode="&#xda;" horiz-adv-x="1478" d="M254 317q0 57 29 197l209 979h192l-223 -1049q-10 -51 -10 -88q0 -106 91 -171.5t238 -65.5q174 0 292 87t151 238l223 1049h192l-223 -1049q-47 -223 -230.5 -357t-441.5 -134q-246 0 -376 119q-49 45 -81 113.5t-32 131.5zM948 1620l262 303h230l-369 -303h-123z" />
<glyph unicode="&#xdb;" horiz-adv-x="1478" d="M254 317q0 57 29 197l209 979h192l-223 -1049q-10 -51 -10 -88q0 -106 91 -171.5t238 -65.5q174 0 292 87t151 238l223 1049h192l-223 -1049q-47 -223 -230.5 -357t-441.5 -134q-246 0 -376 119q-49 45 -81 113.5t-32 131.5zM797 1618l262 307h192l133 -307h-131 l-114 203l-211 -203h-131z" />
<glyph unicode="&#xdc;" horiz-adv-x="1478" d="M254 317q0 57 29 197l209 979h192l-223 -1049q-10 -51 -10 -88q0 -106 91 -171.5t238 -65.5q174 0 292 87t151 238l223 1049h192l-223 -1049q-47 -223 -230.5 -357t-441.5 -134q-246 0 -376 119q-49 45 -81 113.5t-32 131.5zM831 1661l46 211h213l-48 -211h-211z M1161 1661l45 211h213l-47 -211h-211z" />
<glyph unicode="&#xdd;" horiz-adv-x="1366" d="M344 1493h229l279 -731l592 731h227l-753 -907l-125 -586h-193l125 586zM893 1620l262 303h229l-368 -303h-123z" />
<glyph unicode="&#xde;" horiz-adv-x="1366" d="M186 0l318 1493h192l-51 -242h426q379 0 379 -329q0 -262 -203 -424q-133 -106 -317 -107h-467l-84 -391h-193zM498 559h397q188 0 287 125q72 94 71 201q0 199 -245 198h-400z" />
<glyph unicode="&#xdf;" horiz-adv-x="1251" d="M258 0l234 1102q20 100 57 162.5t108 119.5q135 109 312 109q174 0 273 -81t99 -220q0 -123 -63.5 -219t-181.5 -148q172 -76 172 -256q0 -102 -38 -211.5t-100 -189.5q-166 -215 -466 -215q-31 0 -54 8l35 160h21q18 -2 39 -2q160 0 271 115.5t111 279.5q0 201 -253 201 h-21h-43l37 168q152 -2 253 76.5t101 197.5q0 84 -54 131t-149 47q-244 0 -294 -233l-234 -1102h-172z" />
<glyph unicode="&#xe0;" d="M133 215q0 188 168 295q76 47 166 68.5t295 39.5q113 10 152.5 34t54.5 87l6 37q4 33 4 39q0 57 -62.5 94t-154.5 37q-143 0 -219 -76q-37 -37 -62 -114h-172q29 170 157 259t341 89q162 0 259 -63.5t97 -168.5q0 -20 -12 -75l-131 -617q-2 -6 -2 -20q0 -59 78 -60 q16 0 34 4l-26 -133q-25 -4 -29 -6q-51 -12 -80 -12q-74 0 -114.5 36t-40.5 99v8v15q-102 -90 -181 -117q-113 -41 -231 -41q-137 0 -216 69.5t-79 192.5zM313 236q0 -66 47.5 -101t135.5 -35q135 0 251 71t136 165l41 192q-88 -31 -299 -59q-145 -20 -211 -61 q-45 -27 -73 -74t-28 -98zM584 1516h217l147 -304h-108z" />
<glyph unicode="&#xe1;" d="M133 215q0 188 168 295q76 47 166 68.5t295 39.5q113 10 152.5 34t54.5 87l6 37q4 33 4 39q0 57 -62.5 94t-154.5 37q-143 0 -219 -76q-37 -37 -62 -114h-172q29 170 157 259t341 89q162 0 259 -63.5t97 -168.5q0 -20 -12 -75l-131 -617q-2 -6 -2 -20q0 -59 78 -60 q16 0 34 4l-26 -133q-25 -4 -29 -6q-51 -12 -80 -12q-74 0 -114.5 36t-40.5 99v8v15q-102 -90 -181 -117q-113 -41 -231 -41q-137 0 -216 69.5t-79 192.5zM313 236q0 -66 47.5 -101t135.5 -35q135 0 251 71t136 165l41 192q-88 -31 -299 -59q-145 -20 -211 -61 q-45 -27 -73 -74t-28 -98zM676 1212l262 304h229l-368 -304h-123z" />
<glyph unicode="&#xe2;" d="M133 215q0 188 168 295q76 47 166 68.5t295 39.5q113 10 152.5 34t54.5 87l6 37q4 33 4 39q0 57 -62.5 94t-154.5 37q-143 0 -219 -76q-37 -37 -62 -114h-172q29 170 157 259t341 89q162 0 259 -63.5t97 -168.5q0 -20 -12 -75l-131 -617q-2 -6 -2 -20q0 -59 78 -60 q16 0 34 4l-26 -133q-25 -4 -29 -6q-51 -12 -80 -12q-74 0 -114.5 36t-40.5 99v8v15q-102 -90 -181 -117q-113 -41 -231 -41q-137 0 -216 69.5t-79 192.5zM313 236q0 -66 47.5 -101t135.5 -35q135 0 251 71t136 165l41 192q-88 -31 -299 -59q-145 -20 -211 -61 q-45 -27 -73 -74t-28 -98zM543 1210l262 308h194l131 -308h-129l-114 203l-213 -203h-131z" />
<glyph unicode="&#xe3;" d="M133 215q0 188 168 295q76 47 166 68.5t295 39.5q113 10 152.5 34t54.5 87l6 37q4 33 4 39q0 57 -62.5 94t-154.5 37q-143 0 -219 -76q-37 -37 -62 -114h-172q29 170 157 259t341 89q162 0 259 -63.5t97 -168.5q0 -20 -12 -75l-131 -617q-2 -6 -2 -20q0 -59 78 -60 q16 0 34 4l-26 -133q-25 -4 -29 -6q-51 -12 -80 -12q-74 0 -114.5 36t-40.5 99v8v15q-102 -90 -181 -117q-113 -41 -231 -41q-137 0 -216 69.5t-79 192.5zM313 236q0 -66 47.5 -101t135.5 -35q135 0 251 71t136 165l41 192q-88 -31 -299 -59q-145 -20 -211 -61 q-45 -27 -73 -74t-28 -98zM496 1251q33 96 65 138q25 33 67 53t81 20q45 0 149 -35q88 -31 129 -30q31 0 50 15.5t48 60.5h109q-33 -100 -92.5 -160t-128.5 -60q-55 0 -211 54q-33 12 -55 12q-55 0 -89 -49q-2 -2 -14 -19h-108z" />
<glyph unicode="&#xe4;" d="M133 215q0 188 168 295q76 47 166 68.5t295 39.5q113 10 152.5 34t54.5 87l6 37q4 33 4 39q0 57 -62.5 94t-154.5 37q-143 0 -219 -76q-37 -37 -62 -114h-172q29 170 157 259t341 89q162 0 259 -63.5t97 -168.5q0 -20 -12 -75l-131 -617q-2 -6 -2 -20q0 -59 78 -60 q16 0 34 4l-26 -133q-25 -4 -29 -6q-51 -12 -80 -12q-74 0 -114.5 36t-40.5 99v8v15q-102 -90 -181 -117q-113 -41 -231 -41q-137 0 -216 69.5t-79 192.5zM313 236q0 -66 47.5 -101t135.5 -35q135 0 251 71t136 165l41 192q-88 -31 -299 -59q-145 -20 -211 -61 q-45 -27 -73 -74t-28 -98zM567 1253l45 211h213l-45 -211h-213zM897 1253l45 211h213l-45 -211h-213z" />
<glyph unicode="&#xe5;" d="M133 215q0 188 168 295q76 47 166 68.5t295 39.5q113 10 152.5 34t54.5 87l6 37q4 33 4 39q0 57 -62.5 94t-154.5 37q-143 0 -219 -76q-37 -37 -62 -114h-172q29 170 157 259t341 89q162 0 259 -63.5t97 -168.5q0 -20 -12 -75l-131 -617q-2 -6 -2 -20q0 -59 78 -60 q16 0 34 4l-26 -133q-25 -4 -29 -6q-51 -12 -80 -12q-74 0 -114.5 36t-40.5 99v8v15q-102 -90 -181 -117q-113 -41 -231 -41q-137 0 -216 69.5t-79 192.5zM313 236q0 -66 47.5 -101t135.5 -35q135 0 251 71t136 165l41 192q-88 -31 -299 -59q-145 -20 -211 -61 q-45 -27 -73 -74t-28 -98zM682 1329q0 82 68.5 148.5t152.5 66.5q63 0 105.5 -39t42.5 -98q0 -86 -68 -153.5t-156 -67.5q-61 0 -103 42t-42 101zM776 1348q0 -33 20.5 -52.5t51.5 -19.5q41 0 75.5 33.5t34.5 72.5q0 31 -20 51.5t-49 20.5q-43 0 -78 -32.5t-35 -73.5z" />
<glyph unicode="&#xe6;" horiz-adv-x="1820" d="M121 215q0 88 45 167t123 128q78 47 167 67.5t287 36.5q111 10 150 35t55 90l10 52q4 29 5 38q0 53 -57.5 85t-155.5 32q-121 0 -188.5 -45t-100.5 -145h-172q43 158 108 223q131 125 396 125q174 0 276 -82q43 -37 49 -51q150 133 373 133q156 0 269.5 -102.5 t113.5 -243.5q0 -90 -29 -244l-6 -35h-790q-10 -45 -11 -108v-25v-12q0 -98 88 -172q59 -51 168 -51q205 0 318 215h172q-49 -168 -192.5 -270.5t-329.5 -102.5q-240 0 -357 209q-215 -209 -493 -209q-133 0 -212 70.5t-79 191.5zM301 236q0 -135 184 -136q129 0 243 72 t134 164l41 190q-55 -20 -96 -27t-195 -30q-143 -18 -211 -61q-100 -63 -100 -172zM1085 627h603q6 45 6 67q0 115 -63.5 183.5t-172.5 68.5q-127 0 -226.5 -84.5t-146.5 -234.5z" />
<glyph unicode="&#xe7;" horiz-adv-x="1024" d="M156 348q0 141 47 292t119 245q168 219 458 219q170 0 264 -96q90 -94 91 -203q0 -2 -1 -10.5t-2.5 -23.5t-1.5 -28l-2 -30h-172q2 18 2 45q0 88 -56 138t-152 50q-188 0 -304 -182q-111 -174 -110 -393q0 -119 62.5 -189.5t168.5 -70.5q227 0 322 258h172 q-49 -199 -178 -304.5t-328 -111.5l-37 -68q27 4 43 4q57 0 97 -30.5t40 -73.5q0 -96 -84 -159.5t-213 -63.5q-104 0 -241 69l57 78q117 -59 193 -59q57 0 93 31.5t36 80.5q0 18 -19.5 31.5t-44.5 13.5q-10 0 -41 -6l-14 -2l-27 13l78 143q-72 14 -110.5 31.5t-75.5 52.5 q-129 119 -129 309z" />
<glyph unicode="&#xe8;" d="M172 354q0 125 50 278.5t122 250.5q76 102 198 161.5t255 59.5q166 0 278.5 -101.5t112.5 -248.5q0 -86 -29 -240l-6 -35h-791q-10 -39 -10 -94q0 -131 66.5 -202.5t187.5 -71.5q207 0 320 215h172q-47 -166 -191.5 -269.5t-328.5 -103.5q-174 0 -279 102 q-127 121 -127 299zM399 627h602q6 49 7 67q0 115 -64.5 183.5t-173.5 68.5q-125 0 -227.5 -89t-143.5 -230zM569 1516h217l148 -304h-109z" />
<glyph unicode="&#xe9;" d="M172 354q0 125 50 278.5t122 250.5q76 102 198 161.5t255 59.5q166 0 278.5 -101.5t112.5 -248.5q0 -86 -29 -240l-6 -35h-791q-10 -39 -10 -94q0 -131 66.5 -202.5t187.5 -71.5q207 0 320 215h172q-47 -166 -191.5 -269.5t-328.5 -103.5q-174 0 -279 102 q-127 121 -127 299zM399 627h602q6 49 7 67q0 115 -64.5 183.5t-173.5 68.5q-125 0 -227.5 -89t-143.5 -230zM696 1212l262 304h230l-369 -304h-123z" />
<glyph unicode="&#xea;" d="M172 354q0 125 50 278.5t122 250.5q76 102 198 161.5t255 59.5q166 0 278.5 -101.5t112.5 -248.5q0 -86 -29 -240l-6 -35h-791q-10 -39 -10 -94q0 -131 66.5 -202.5t187.5 -71.5q207 0 320 215h172q-47 -166 -191.5 -269.5t-328.5 -103.5q-174 0 -279 102 q-127 121 -127 299zM399 627h602q6 49 7 67q0 115 -64.5 183.5t-173.5 68.5q-125 0 -227.5 -89t-143.5 -230zM535 1210l262 308h194l131 -308h-129l-114 203l-213 -203h-131z" />
<glyph unicode="&#xeb;" d="M172 354q0 125 50 278.5t122 250.5q76 102 198 161.5t255 59.5q166 0 278.5 -101.5t112.5 -248.5q0 -86 -29 -240l-6 -35h-791q-10 -39 -10 -94q0 -131 66.5 -202.5t187.5 -71.5q207 0 320 215h172q-47 -166 -191.5 -269.5t-328.5 -103.5q-174 0 -279 102 q-127 121 -127 299zM399 627h602q6 49 7 67q0 115 -64.5 183.5t-173.5 68.5q-125 0 -227.5 -89t-143.5 -230zM561 1253l45 211h213l-45 -211h-213zM891 1253l45 211h213l-45 -211h-213z" />
<glyph unicode="&#xec;" horiz-adv-x="569" d="M193 0l229 1079h172l-229 -1079h-172zM311 1516h217l148 -304h-109z" />
<glyph unicode="&#xed;" horiz-adv-x="569" d="M193 0l229 1079h172l-229 -1079h-172zM391 1212l262 304h230l-369 -304h-123z" />
<glyph unicode="&#xee;" horiz-adv-x="569" d="M193 0l229 1079h172l-229 -1079h-172zM244 1210l262 308h194l131 -308h-129l-114 203l-213 -203h-131z" />
<glyph unicode="&#xef;" horiz-adv-x="569" d="M193 0l229 1079h172l-229 -1079h-172zM270 1239l45 211h213l-45 -211h-213zM600 1239l45 211h213l-45 -211h-213z" />
<glyph unicode="&#xf0;" d="M164 336q0 129 45 279.5t115 250.5q74 106 187.5 167t244.5 61q66 0 135 -35q-78 102 -172 188l-205 -92l-65 80l182 84q-33 31 -41 35l-55 37q-16 8 -58 39l86 92l45 -29q51 -29 72 -45q61 -43 76 -53q2 0 16 -11l203 89l80 -78l-195 -84q319 -274 320 -600 q0 -127 -46.5 -276.5t-115.5 -244.5q-168 -238 -459 -237q-178 0 -283 100q-113 113 -112 283zM344 377q0 -123 63.5 -194.5t172.5 -71.5q211 0 329 215q90 166 90 356q0 125 -63 194.5t-176 69.5q-209 0 -326 -215q-90 -166 -90 -354z" />
<glyph unicode="&#xf1;" d="M143 0l228 1073h155l-26 -133q160 164 397 164q127 0 203 -69.5t76 -186.5q0 -43 -9 -78l-163 -770h-173l152 715q12 49 12 76q0 72 -51 118.5t-127 46.5q-137 0 -238.5 -97t-138.5 -267l-125 -592h-172zM508 1251q33 96 65 138q25 33 67 53t81 20q45 0 149 -35 q88 -31 129 -30q31 0 50.5 15.5t48.5 60.5h108q-33 -100 -92 -160t-129 -60q-55 0 -211 54q-33 12 -55 12q-55 0 -88 -49q-2 -2 -15 -19h-108z" />
<glyph unicode="&#xf2;" d="M164 336q0 131 45 281.5t115 248.5q78 113 198.5 175.5t263.5 62.5q178 0 281 -100q113 -109 113 -283q0 -133 -46.5 -283.5t-115.5 -247.5q-172 -238 -467 -237q-172 0 -279.5 106.5t-107.5 276.5zM344 377q0 -123 63.5 -194.5t172.5 -71.5q211 0 329 215q90 166 90 356 q0 125 -63 194.5t-176 69.5q-209 0 -326 -215q-90 -166 -90 -354zM561 1516h217l148 -304h-109z" />
<glyph unicode="&#xf3;" d="M164 336q0 131 45 281.5t115 248.5q78 113 198.5 175.5t263.5 62.5q178 0 281 -100q113 -109 113 -283q0 -133 -46.5 -283.5t-115.5 -247.5q-172 -238 -467 -237q-172 0 -279.5 106.5t-107.5 276.5zM344 377q0 -123 63.5 -194.5t172.5 -71.5q211 0 329 215q90 166 90 356 q0 125 -63 194.5t-176 69.5q-209 0 -326 -215q-90 -166 -90 -354zM688 1212l262 304h230l-369 -304h-123z" />
<glyph unicode="&#xf4;" d="M164 336q0 131 45 281.5t115 248.5q78 113 198.5 175.5t263.5 62.5q178 0 281 -100q113 -109 113 -283q0 -133 -46.5 -283.5t-115.5 -247.5q-172 -238 -467 -237q-172 0 -279.5 106.5t-107.5 276.5zM344 377q0 -123 63.5 -194.5t172.5 -71.5q211 0 329 215q90 166 90 356 q0 125 -63 194.5t-176 69.5q-209 0 -326 -215q-90 -166 -90 -354zM522 1210l262 308h195l131 -308h-129l-115 203l-213 -203h-131z" />
<glyph unicode="&#xf5;" d="M164 336q0 131 45 281.5t115 248.5q78 113 198.5 175.5t263.5 62.5q178 0 281 -100q113 -109 113 -283q0 -133 -46.5 -283.5t-115.5 -247.5q-172 -238 -467 -237q-172 0 -279.5 106.5t-107.5 276.5zM344 377q0 -123 63.5 -194.5t172.5 -71.5q211 0 329 215q90 166 90 356 q0 125 -63 194.5t-176 69.5q-209 0 -326 -215q-90 -166 -90 -354zM496 1251q33 96 65 138q25 33 67 53t81 20q45 0 149 -35q88 -31 129 -30q31 0 50 15.5t48 60.5h109q-33 -100 -92.5 -160t-128.5 -60q-55 0 -211 54q-33 12 -55 12q-55 0 -89 -49q-2 -2 -14 -19h-108z" />
<glyph unicode="&#xf6;" d="M164 336q0 131 45 281.5t115 248.5q78 113 198.5 175.5t263.5 62.5q178 0 281 -100q113 -109 113 -283q0 -133 -46.5 -283.5t-115.5 -247.5q-172 -238 -467 -237q-172 0 -279.5 106.5t-107.5 276.5zM344 377q0 -123 63.5 -194.5t172.5 -71.5q211 0 329 215q90 166 90 356 q0 125 -63 194.5t-176 69.5q-209 0 -326 -215q-90 -166 -90 -354zM551 1253l45 211h213l-45 -211h-213zM881 1253l45 211h213l-45 -211h-213z" />
<glyph unicode="&#xf7;" horiz-adv-x="1196" d="M188 403l31 148h991l-30 -148h-992zM518 106.5q0 43.5 32 75t75 31.5q45 0 75.5 -31.5t30.5 -77.5q0 -41 -31.5 -72.5t-74.5 -31.5t-75 31.5t-32 75zM670 840q0 45 30.5 75.5t75.5 30.5t76 -31.5t31 -76.5q0 -41 -32 -73t-75 -32t-74.5 32t-31.5 75z" />
<glyph unicode="&#xf8;" horiz-adv-x="1251" d="M39 -4l170 156q-43 92 -43 184q0 129 45 280.5t115 249.5q164 238 458 238q215 0 316 -137l155 141l54 -61l-166 -152q39 -86 39 -170q0 -137 -45 -286.5t-117 -248.5q-172 -238 -459 -237q-215 0 -309 131l-160 -145zM346 369q0 -43 12 -80l605 551q-59 106 -207 106 q-205 0 -320 -215q-90 -164 -90 -362zM389 209q59 -98 203 -98q98 0 182 56t139 159q37 70 62.5 171t25.5 175q0 35 -10 86z" />
<glyph unicode="&#xf9;" d="M180 176q0 39 6 70l176 827h173l-162 -760q-6 -31 -6 -55q0 -72 49 -115t133 -43q131 0 231.5 99.5t134.5 265.5l129 608h173l-228 -1073h-155l24 117q-170 -164 -395 -164q-133 0 -208 59.5t-75 163.5zM553 1516h217l148 -304h-109z" />
<glyph unicode="&#xfa;" d="M180 176q0 39 6 70l176 827h173l-162 -760q-6 -31 -6 -55q0 -72 49 -115t133 -43q131 0 231.5 99.5t134.5 265.5l129 608h173l-228 -1073h-155l24 117q-170 -164 -395 -164q-133 0 -208 59.5t-75 163.5zM686 1212l262 304h230l-369 -304h-123z" />
<glyph unicode="&#xfb;" d="M180 176q0 39 6 70l176 827h173l-162 -760q-6 -31 -6 -55q0 -72 49 -115t133 -43q131 0 231.5 99.5t134.5 265.5l129 608h173l-228 -1073h-155l24 117q-170 -164 -395 -164q-133 0 -208 59.5t-75 163.5zM516 1210l262 308h195l131 -308h-129l-115 203l-213 -203h-131z " />
<glyph unicode="&#xfc;" d="M180 176q0 39 6 70l176 827h173l-162 -760q-6 -31 -6 -55q0 -72 49 -115t133 -43q131 0 231.5 99.5t134.5 265.5l129 608h173l-228 -1073h-155l24 117q-170 -164 -395 -164q-133 0 -208 59.5t-75 163.5zM549 1253l45 211h213l-45 -211h-213zM879 1253l45 211h213 l-45 -211h-213z" />
<glyph unicode="&#xfd;" horiz-adv-x="1024" d="M16 -426l33 154q74 -8 90 -9q57 0 90 21.5t74 85.5l107 166l-140 1081h185l94 -833l477 833h182l-753 -1298q-129 -221 -338 -221q-55 0 -101 20zM627 1212l262 304h229l-368 -304h-123z" />
<glyph unicode="&#xfe;" d="M14 -436l410 1929h172l-125 -592q45 88 150.5 145.5t222.5 57.5q164 0 260 -107.5t96 -291.5q0 -152 -49 -300.5t-131 -248.5q-78 -96 -187.5 -149.5t-230.5 -53.5q-109 0 -177.5 43t-115.5 143l-123 -575h-172zM375 377q0 -123 65.5 -194.5t177.5 -71.5q199 0 312 206 q90 166 90 347q0 133 -64.5 207.5t-179.5 74.5q-190 0 -305 -207q-96 -166 -96 -362z" />
<glyph unicode="&#xff;" horiz-adv-x="1024" d="M16 -426l33 154q74 -8 90 -9q57 0 90 21.5t74 85.5l107 166l-140 1081h185l94 -833l477 833h182l-753 -1298q-129 -221 -338 -221q-55 0 -101 20zM504 1253l45 211h213l-45 -211h-213zM834 1253l45 211h213l-45 -211h-213z" />
<glyph unicode="&#x152;" horiz-adv-x="2048" d="M207 449q0 215 77.5 447t196.5 366q106 119 249.5 187.5t285.5 68.5q248 0 340 -181l33 156h880l-35 -168h-688l-104 -487h669l-36 -168h-668l-109 -502h697l-35 -168h-889l33 158q-166 -205 -424 -205q-213 0 -343 136t-130 360zM403 455q0 -156 85 -246t233 -90 q256 0 430 254l156 731q-57 248 -324 248q-272 0 -432 -281q-61 -104 -104.5 -286.5t-43.5 -329.5z" />
<glyph unicode="&#x153;" horiz-adv-x="1933" d="M174 338q0 125 44 273.5t114 252.5q160 240 459 240q260 0 352 -211q66 90 192.5 150.5t251.5 60.5q166 0 278.5 -101.5t112.5 -248.5q0 -86 -28 -240l-6 -35h-791q-14 -74 -14 -119q0 -115 70.5 -182t189.5 -67q204 0 317 215h172q-49 -168 -192.5 -270.5t-329.5 -102.5 q-201 0 -326 160q-20 25 -34 59q-78 -104 -194 -161.5t-249 -57.5q-180 0 -278 100q-111 115 -111 285zM354 371q0 -121 61.5 -190.5t168.5 -69.5q209 0 327 215q86 160 86 358q0 123 -63 192.5t-174 69.5q-170 0 -288 -167t-118 -408zM1190 627h602q6 43 6 65 q0 117 -63.5 185.5t-169.5 68.5q-125 0 -229.5 -89t-145.5 -230z" />
<glyph unicode="&#x178;" horiz-adv-x="1366" d="M344 1493h229l279 -731l592 731h227l-753 -907l-125 -586h-193l125 586zM774 1661l45 211h213l-45 -211h-213zM1104 1661l45 211h213l-45 -211h-213z" />
<glyph unicode="&#x2c6;" horiz-adv-x="681" d="M299 1210l262 308h195l131 -308h-129l-115 203l-213 -203h-131z" />
<glyph unicode="&#x2dc;" horiz-adv-x="681" d="M266 1251q33 96 66 138q25 33 66.5 53t80.5 20q45 0 150 -35q88 -31 129 -30q31 0 50 15.5t48 60.5h109q-33 -100 -92.5 -160t-129.5 -60q-55 0 -211 54q-33 12 -55 12q-55 0 -88 -49q-2 -2 -14 -19h-109z" />
<glyph unicode="&#x2000;" horiz-adv-x="976" />
<glyph unicode="&#x2001;" horiz-adv-x="1952" />
<glyph unicode="&#x2002;" horiz-adv-x="976" />
<glyph unicode="&#x2003;" horiz-adv-x="1952" />
<glyph unicode="&#x2004;" horiz-adv-x="650" />
<glyph unicode="&#x2005;" horiz-adv-x="488" />
<glyph unicode="&#x2006;" horiz-adv-x="325" />
<glyph unicode="&#x2007;" horiz-adv-x="325" />
<glyph unicode="&#x2008;" horiz-adv-x="244" />
<glyph unicode="&#x2009;" horiz-adv-x="390" />
<glyph unicode="&#x200a;" horiz-adv-x="108" />
<glyph unicode="&#x2010;" horiz-adv-x="681" d="M199 492l30 147h490l-31 -147h-489z" />
<glyph unicode="&#x2011;" horiz-adv-x="681" d="M199 492l30 147h490l-31 -147h-489z" />
<glyph unicode="&#x2012;" horiz-adv-x="681" d="M199 492l30 147h490l-31 -147h-489z" />
<glyph unicode="&#x2013;" d="M94 492l31 147h1161l-31 -147h-1161z" />
<glyph unicode="&#x2014;" horiz-adv-x="2048" d="M86 492l31 147h2070l-30 -147h-2071z" />
<glyph unicode="&#x2018;" horiz-adv-x="454" d="M334 977l43 205q29 125 94.5 194.5t159.5 75.5l-17 -80q-59 -6 -92 -49t-49 -135h96l-45 -211h-190z" />
<glyph unicode="&#x2019;" horiz-adv-x="454" d="M340 977l16 78q106 14 138 184h-99l45 211h193l-43 -205q-27 -121 -91.5 -191.5t-158.5 -76.5z" />
<glyph unicode="&#x201a;" horiz-adv-x="454" d="M76 -262l16 78q106 14 137 184h-98l45 211h193l-43 -205q-27 -121 -91.5 -191.5t-158.5 -76.5z" />
<glyph unicode="&#x201c;" horiz-adv-x="681" d="M299 977l43 205q27 121 91.5 191.5t156.5 78.5l-17 -80q-106 -14 -135 -184h97l-46 -211h-190zM629 977l43 205q27 121 91 191.5t157 78.5l-17 -80q-104 -14 -137 -184h98l-45 -211h-190z" />
<glyph unicode="&#x201d;" horiz-adv-x="681" d="M307 977l17 78q106 14 137 184h-99l46 211h192l-43 -205q-27 -121 -91.5 -191.5t-158.5 -76.5zM633 977l16 78q106 14 137 184h-98l45 211h193l-43 -205q-27 -121 -91.5 -191.5t-158.5 -76.5z" />
<glyph unicode="&#x201e;" horiz-adv-x="681" d="M41 -262l16 78q106 14 138 184h-99l45 211h193l-43 -205q-27 -121 -91.5 -191.5t-158.5 -76.5zM367 -262l16 78q106 14 137 184h-98l45 211h192l-43 -205q-27 -121 -91 -191.5t-158 -76.5z" />
<glyph unicode="&#x2022;" horiz-adv-x="716" d="M246 651q0 121 96 216.5t219 95.5q92 0 150.5 -56.5t58.5 -144.5q0 -121 -97.5 -216t-221.5 -95q-86 0 -145.5 58t-59.5 142z" />
<glyph unicode="&#x2026;" horiz-adv-x="2048" d="M236 0l45 211h213l-45 -211h-213zM918 0l45 211h213l-46 -211h-212zM1599 0l46 211h213l-46 -211h-213z" />
<glyph unicode="&#x202f;" horiz-adv-x="390" />
<glyph unicode="&#x2039;" horiz-adv-x="681" d="M287 465l39 182l362 250l-37 -170l-248 -172l177 -170l-37 -168z" />
<glyph unicode="&#x203a;" horiz-adv-x="681" d="M223 217l37 170l252 172l-180 170l37 168l260 -248l-39 -182z" />
<glyph unicode="&#x205f;" horiz-adv-x="488" />
<glyph unicode="&#x20ac;" d="M25 520l71 121h113q10 61 33 135h-162l72 121h129q78 203 208 348q184 207 449 207q201 0 365 -137l-101 -164q-94 82 -161.5 113.5t-147.5 31.5q-133 0 -234.5 -94t-193.5 -305h584l-74 -121h-553q-20 -59 -31 -135h504l-74 -121h-440v-28q0 -377 260 -377 q76 0 151.5 25.5t215.5 99.5l-41 -191q-174 -94 -365 -94q-408 0 -407 506q0 37 2 59h-172z" />
<glyph unicode="&#x25fc;" horiz-adv-x="1075" d="M0 0v1075h1075v-1075h-1075z" />
</font>
</defs>
</svg>
