<?xml version="1.0" encoding="utf-8"?>
<!-- Generator: Adobe Illustrator 24.1.0, SVG Export Plug-In . SVG Version: 6.00 Build 0)  -->
<svg version="1.1" id="Layer_1" xmlns="http://www.w3.org/2000/svg" xmlns:xlink="http://www.w3.org/1999/xlink" x="0px" y="0px"
	 viewBox="0 0 66 66" style="enable-background:new 0 0 66 66;" xml:space="preserve">
<style type="text/css">
	.st0{fill:none;stroke:#046B99;stroke-width:2.5;stroke-linecap:round;stroke-linejoin:round;}
</style>
<desc>Created with Sketch.</desc>
<g id="_x2A__x2A_-Sticker-Sheets">
	<g id="sticker-sheet--all--page-6" transform="translate(-713.000000, -2907.000000)">
		<g id="icon-preview-row-copy-27" transform="translate(0.000000, 2889.000000)">
			<g id="Icon-Row--Large-icon">
				<g id="user-interviews-love--c" transform="translate(709.000000, 11.000000)">
					<path class="st0" d="M5.5,24.5c0,2.2,0.5,4.4,1.6,6.4c2.4,4.8,7.4,7.9,12.8,7.9c2.2,0,4.4-0.5,6.4-1.6l9.6,3.2l-3.2-9.6
						c1.1-2,1.6-4.2,1.6-6.4c0-5.4-3-10.4-7.9-12.8c-2-1.1-4.2-1.6-6.4-1.6h-0.9c-7.4,0.6-13.2,6.4-13.6,13.7V24.5L5.5,24.5z
						 M68.5,69.8v-4.7c0-5.1-4-9.3-9.1-9.3h-18c-4.9,0-9.1,4.2-9.1,9.3v4.7 M50.4,48.7c4.8,0,8.8-4.2,8.8-9.3S55.2,30,50.4,30
						s-8.8,4.2-8.8,9.3S45.5,48.7,50.4,48.7z M24.4,20.5c-0.6-0.6-1.4-1-2.2-1s-1.6,0.3-2.2,1l-0.6,0.6l-0.6-0.6
						c-1.3-1.3-3.1-1.3-4.3,0c-1.3,1.3-1.3,3.2,0,4.5l0.6,0.6l4.3,4.5l4.3-4.5l0.6-0.6c0.6-0.6,0.9-1.5,0.9-2.2
						C25.4,22,25,21.1,24.4,20.5z"/>
				</g>
			</g>
		</g>
	</g>
</g>
</svg>
