<?xml version="1.0" encoding="utf-8"?>
<!-- Generator: Adobe Illustrator 19.1.0, SVG Export Plug-In . SVG Version: 6.00 Build 0)  -->
<svg version="1.1" id="Layer_1" xmlns="http://www.w3.org/2000/svg" xmlns:xlink="http://www.w3.org/1999/xlink" x="0px" y="0px"
	 viewBox="-173 174.2 444.8 444.8" style="enable-background:new -173 174.2 444.8 444.8;" xml:space="preserve">
<style type="text/css">
	.st0{fill:#4C2C92;}
</style>
<path class="st0" d="M183,370.9L-3.1,185c-6.9-7.2-15.4-10.8-25.7-10.8s-18.8,3.6-25.7,10.8l-21.7,21.4c-7,7-10.6,15.6-10.6,25.7
	c0,9.9,3.5,18.6,10.6,26L62.5,396.6L-76.2,535.3c-7,7-10.6,15.6-10.6,25.7c0,9.9,3.5,18.6,10.6,26l21.7,21.4
	c7,7,15.6,10.6,25.7,10.6s18.7-3.5,25.7-10.6L183,422.6c7-7.4,10.6-16.1,10.6-26C193.6,386.5,190.1,377.9,183,370.9z"/>
</svg>
