<?xml version="1.0" encoding="UTF-8" standalone="no"?>
<svg width="233px" height="47px" viewBox="0 0 233 47" version="1.1" xmlns="http://www.w3.org/2000/svg" xmlns:xlink="http://www.w3.org/1999/xlink">
    <!-- Generator: Sketch 41 (35326) - http://www.bohemiancoding.com/sketch -->
    <title>logo</title>
    <desc>Created with Sketch.</desc>
    <defs></defs>
    <g id="-nonpage-elements" stroke="none" stroke-width="1" fill="none" fill-rule="evenodd">
        <g id="logo">
            <path d="M57.547,18.534 C57.1176645,17.9513304 56.5580035,17.5258347 55.868,17.2575 C55.1779966,16.9891653 54.5033366,16.855 53.844,16.855 C53.0006625,16.855 52.2340035,17.0083318 51.544,17.315 C50.8539965,17.6216682 50.2598358,18.0433306 49.7615,18.58 C49.2631642,19.1166693 48.8798347,19.7453297 48.6115,20.466 C48.3431653,21.1866703 48.209,21.9686625 48.209,22.812 C48.209,23.7013378 48.339332,24.5139963 48.6,25.25 C48.860668,25.9860037 49.2324976,26.6184974 49.7155,27.1475 C50.1985024,27.6765026 50.77733,28.0866652 51.452,28.378 C52.12667,28.6693348 52.8856624,28.815 53.729,28.815 C54.6030044,28.815 55.37733,28.6425017 56.052,28.2975 C56.72667,27.9524983 57.2709979,27.4963362 57.685,26.929 L60.008,28.562 C59.2873297,29.4666712 58.4056719,30.1681642 57.363,30.6665 C56.3203281,31.1648358 55.1013403,31.414 53.706,31.414 C52.433327,31.414 51.264172,31.2031688 50.1985,30.7815 C49.132828,30.3598312 48.2166705,29.7695038 47.45,29.0105 C46.6833295,28.2514962 46.0853355,27.3468386 45.656,26.2965 C45.2266645,25.2461614 45.012,24.084673 45.012,22.812 C45.012,21.5086601 45.2381644,20.3318386 45.6905,19.2815 C46.1428356,18.2311614 46.7638294,17.3380037 47.5535,16.602 C48.3431706,15.8659963 49.2746613,15.2986687 50.348,14.9 C51.4213387,14.5013313 52.5866604,14.302 53.844,14.302 C54.3653359,14.302 54.9096638,14.3518328 55.477,14.4515 C56.0443362,14.5511672 56.5886641,14.704499 57.11,14.9115 C57.6313359,15.118501 58.1219977,15.3753318 58.582,15.682 C59.0420023,15.9886682 59.4329984,16.3566645 59.755,16.786 L57.547,18.534 Z M63.9974544,14.716 L66.8954544,14.716 L66.8954544,28.424 L73.8184544,28.424 L73.8184544,31 L63.9974544,31 L63.9974544,14.716 Z M76.4739087,22.812 C76.4739087,21.5086601 76.6924065,20.3318386 77.1294087,19.2815 C77.5664109,18.2311614 78.1720715,17.3380037 78.9464087,16.602 C79.7207459,15.8659963 80.6407367,15.2986687 81.7064087,14.9 C82.7720807,14.5013313 83.9335691,14.302 85.1909087,14.302 C86.4635817,14.302 87.63657,14.5013313 88.7099087,14.9 C89.7832474,15.2986687 90.7109048,15.8659963 91.4929087,16.602 C92.2749126,17.3380037 92.8844065,18.2311614 93.3214087,19.2815 C93.7584109,20.3318386 93.9769087,21.5086601 93.9769087,22.812 C93.9769087,24.084673 93.7584109,25.2461614 93.3214087,26.2965 C92.8844065,27.3468386 92.2749126,28.2514962 91.4929087,29.0105 C90.7109048,29.7695038 89.7832474,30.3598312 88.7099087,30.7815 C87.63657,31.2031688 86.4635817,31.414 85.1909087,31.414 C83.9335691,31.414 82.7720807,31.2031688 81.7064087,30.7815 C80.6407367,30.3598312 79.7207459,29.7695038 78.9464087,29.0105 C78.1720715,28.2514962 77.5664109,27.3468386 77.1294087,26.2965 C76.6924065,25.2461614 76.4739087,24.084673 76.4739087,22.812 Z M79.6249087,22.812 C79.6249087,23.6860044 79.759074,24.487163 80.0274087,25.2155 C80.2957434,25.943837 80.6790729,26.5763306 81.1774087,27.113 C81.6757445,27.6496693 82.266072,28.0674985 82.9484087,28.3665 C83.6307455,28.6655015 84.3859046,28.815 85.2139087,28.815 C86.0419129,28.815 86.8009053,28.6655015 87.4909087,28.3665 C88.1809122,28.0674985 88.7750729,27.6496693 89.2734087,27.113 C89.7717445,26.5763306 90.155074,25.943837 90.4234087,25.2155 C90.6917434,24.487163 90.8259087,23.6860044 90.8259087,22.812 C90.8259087,21.9686624 90.6917434,21.1866703 90.4234087,20.466 C90.155074,19.7453297 89.7755778,19.1166693 89.2849087,18.58 C88.7942396,18.0433306 88.2039122,17.6216682 87.5139087,17.315 C86.8239053,17.0083318 86.0572463,16.855 85.2139087,16.855 C84.3705712,16.855 83.6077455,17.0083318 82.9254087,17.315 C82.243072,17.6216682 81.6565778,18.0433306 81.1659087,18.58 C80.6752396,19.1166693 80.2957434,19.7453297 80.0274087,20.466 C79.759074,21.1866703 79.6249087,21.9686624 79.6249087,22.812 Z M112.050157,25.02 C112.050157,26.0013382 111.881492,26.8868294 111.544157,27.6765 C111.206821,28.4661706 110.746826,29.1369972 110.164157,29.689 C109.581487,30.2410028 108.891494,30.6664985 108.094157,30.9655 C107.296819,31.2645015 106.430495,31.414 105.495157,31.414 C104.559819,31.414 103.693494,31.2645015 102.896157,30.9655 C102.098819,30.6664985 101.404993,30.2410028 100.814657,29.689 C100.22432,29.1369972 99.7643248,28.4661706 99.4346565,27.6765 C99.1049882,26.8868294 98.9401565,26.0013382 98.9401565,25.02 L98.9401565,14.716 L101.838157,14.716 L101.838157,24.905 C101.838157,25.3803357 101.899489,25.851831 102.022157,26.3195 C102.144824,26.787169 102.347988,27.2049982 102.631657,27.573 C102.915325,27.9410018 103.290988,28.2399988 103.758657,28.47 C104.226326,28.7000011 104.805153,28.815 105.495157,28.815 C106.18516,28.815 106.763988,28.7000011 107.231657,28.47 C107.699326,28.2399988 108.074988,27.9410018 108.358657,27.573 C108.642325,27.2049982 108.845489,26.787169 108.968157,26.3195 C109.090824,25.851831 109.152157,25.3803357 109.152157,24.905 L109.152157,14.716 L112.050157,14.716 L112.050157,25.02 Z M117.795404,14.716 L123.568404,14.716 C124.62641,14.716 125.692066,14.8539986 126.765404,15.13 C127.838743,15.4060014 128.804733,15.8621635 129.663404,16.4985 C130.522075,17.1348365 131.219735,17.9704948 131.756404,19.0055 C132.293074,20.0405052 132.561404,21.324659 132.561404,22.858 C132.561404,24.2840071 132.293074,25.5106615 131.756404,26.538 C131.219735,27.5653385 130.522075,28.4086634 129.663404,29.068 C128.804733,29.7273366 127.838743,30.2141651 126.765404,30.5285 C125.692066,30.8428349 124.62641,31 123.568404,31 L117.795404,31 L117.795404,14.716 Z M123.108404,28.47 C123.859741,28.47 124.611067,28.3818342 125.362404,28.2055 C126.113741,28.0291658 126.792235,27.7301688 127.397904,27.3085 C128.003574,26.8868312 128.498069,26.3156703 128.881404,25.595 C129.26474,24.8743297 129.456404,23.9620055 129.456404,22.858 C129.456404,21.6926608 129.26474,20.7420037 128.881404,20.006 C128.498069,19.2699963 128.003574,18.6950021 127.397904,18.281 C126.792235,17.8669979 126.113741,17.5833341 125.362404,17.43 C124.611067,17.2766659 123.859741,17.2 123.108404,17.2 L120.693404,17.2 L120.693404,28.47 L123.108404,28.47 Z M135.914652,29.39 C135.914652,28.8993309 136.094817,28.4776684 136.455152,28.125 C136.815487,27.7723316 137.24865,27.596 137.754652,27.596 C138.245321,27.596 138.67465,27.764665 139.042652,28.102 C139.410654,28.439335 139.594652,28.8533309 139.594652,29.344 C139.594652,29.8346691 139.414487,30.2563316 139.054152,30.609 C138.693817,30.9616684 138.260655,31.138 137.754652,31.138 C137.509318,31.138 137.275487,31.0920005 137.053152,31 C136.830818,30.9079995 136.63532,30.7853341 136.466652,30.632 C136.297985,30.4786659 136.163819,30.2946677 136.064152,30.08 C135.964485,29.8653323 135.914652,29.6353346 135.914652,29.39 Z M157.898652,30.149 C157.070648,30.5476687 156.162157,30.8581656 155.173152,31.0805 C154.184147,31.3028344 153.045659,31.414 151.757652,31.414 C150.438979,31.414 149.235324,31.2031688 148.146652,30.7815 C147.05798,30.3598312 146.122656,29.7695038 145.340652,29.0105 C144.558648,28.2514962 143.949154,27.3468386 143.512152,26.2965 C143.07515,25.2461614 142.856652,24.084673 142.856652,22.812 C142.856652,21.5086601 143.082817,20.3318386 143.535152,19.2815 C143.987488,18.2311614 144.608481,17.3380037 145.398152,16.602 C146.187823,15.8659963 147.119313,15.2986687 148.192652,14.9 C149.265991,14.5013313 150.431312,14.302 151.688652,14.302 C152.991992,14.302 154.184147,14.4898315 155.265152,14.8655 C156.346158,15.2411685 157.216315,15.7356636 157.875652,16.349 L155.874652,18.511 C155.46065,18.0509977 154.881822,17.6600016 154.138152,17.338 C153.394482,17.0159984 152.585656,16.855 151.711652,16.855 C150.852981,16.855 150.074822,17.0083318 149.377152,17.315 C148.679482,17.6216682 148.085321,18.0433306 147.594652,18.58 C147.103983,19.1166693 146.724487,19.7453297 146.456152,20.466 C146.187817,21.1866703 146.053652,21.9686625 146.053652,22.812 C146.053652,23.6860044 146.187817,24.487163 146.456152,25.2155 C146.724487,25.943837 147.107816,26.5763306 147.606152,27.113 C148.104488,27.6496693 148.710149,28.0674985 149.423152,28.3665 C150.136156,28.6655015 150.944981,28.815 151.849652,28.815 C153.091658,28.815 154.172647,28.6233353 155.092652,28.24 L155.092652,24.1 L151.665652,24.1 L151.665652,21.708 L157.898652,21.708 L157.898652,30.149 Z M162.535652,22.812 C162.535652,21.5086601 162.75415,20.3318386 163.191152,19.2815 C163.628154,18.2311614 164.233815,17.3380037 165.008152,16.602 C165.782489,15.8659963 166.70248,15.2986687 167.768152,14.9 C168.833824,14.5013313 169.995312,14.302 171.252652,14.302 C172.525325,14.302 173.698313,14.5013313 174.771652,14.9 C175.844991,15.2986687 176.772648,15.8659963 177.554652,16.602 C178.336656,17.3380037 178.94615,18.2311614 179.383152,19.2815 C179.820154,20.3318386 180.038652,21.5086601 180.038652,22.812 C180.038652,24.084673 179.820154,25.2461614 179.383152,26.2965 C178.94615,27.3468386 178.336656,28.2514962 177.554652,29.0105 C176.772648,29.7695038 175.844991,30.3598312 174.771652,30.7815 C173.698313,31.2031688 172.525325,31.414 171.252652,31.414 C169.995312,31.414 168.833824,31.2031688 167.768152,30.7815 C166.70248,30.3598312 165.782489,29.7695038 165.008152,29.0105 C164.233815,28.2514962 163.628154,27.3468386 163.191152,26.2965 C162.75415,25.2461614 162.535652,24.084673 162.535652,22.812 Z M165.686652,22.812 C165.686652,23.6860044 165.820817,24.487163 166.089152,25.2155 C166.357487,25.943837 166.740816,26.5763306 167.239152,27.113 C167.737488,27.6496693 168.327815,28.0674985 169.010152,28.3665 C169.692489,28.6655015 170.447648,28.815 171.275652,28.815 C172.103656,28.815 172.862649,28.6655015 173.552652,28.3665 C174.242656,28.0674985 174.836816,27.6496693 175.335152,27.113 C175.833488,26.5763306 176.216817,25.943837 176.485152,25.2155 C176.753487,24.487163 176.887652,23.6860044 176.887652,22.812 C176.887652,21.9686624 176.753487,21.1866703 176.485152,20.466 C176.216817,19.7453297 175.837321,19.1166693 175.346652,18.58 C174.855983,18.0433306 174.265656,17.6216682 173.575652,17.315 C172.885649,17.0083318 172.11899,16.855 171.275652,16.855 C170.432315,16.855 169.669489,17.0083318 168.987152,17.315 C168.304815,17.6216682 167.718321,18.0433306 167.227652,18.58 C166.736983,19.1166693 166.357487,19.7453297 166.089152,20.466 C165.820817,21.1866703 165.686652,21.9686624 165.686652,22.812 Z M182.8399,14.716 L186.0829,14.716 L190.5679,27.251 L190.6599,27.251 L195.1909,14.716 L198.3189,14.716 L191.7869,31 L189.2799,31 L182.8399,14.716 Z" id="CLOUD.GOV" fill="#333333"></path>
            <g id="block/ui/icon/cloud-gov" transform="translate(0.000000, 1.000000)">
                <g id="Group-2">
                    <polygon id="Fill-1" fill="#046CD5" points="17 -0.0001 0 12.3769 6.92925554 17.7069 14.4868089 17.7069 16.9940067 9.9799 19.5022034 17.7069 27.0827311 17.7069 34 12.3769"></polygon>
                    <polygon id="Fill-2" fill="#333333" points="27.0822311 17.7041691 27.0862266 17.7041691 21.0519708 22.4780806 23.5601675 30.202701 16.9935067 25.4277901 10.4278448 30.202701 12.9360415 22.4780806 6.92875554 17.7041691 6.92975442 17.7041691 -0.0005 12.3765 -0.0005 32.0209056 16.9995 44.3765 33.9995 32.0209056 33.9995 12.3765"></polygon>
                </g>
            </g>
        </g>
    </g>
</svg>
