<?xml version="1.0" encoding="UTF-8" standalone="no"?>
<svg xmlns:rdf="http://www.w3.org/1999/02/22-rdf-syntax-ns#" xmlns="http://www.w3.org/2000/svg" version="1.0" xmlns:cc="http://creativecommons.org/ns#" xmlns:dc="http://purl.org/dc/elements/1.1/" viewBox="0 0 510 510">
 <g style="">
  <g style="" transform="matrix(.99536 0 0 .99536 -11.636 328.83)">
   <path d="m270.06 176.2c138.27-1.2 249.39-114.27 248.19-252.54-1.2-138.29-114.28-249.4-252.56-248.2-138.28 1.21-249.4 114.28-248.18 252.56 1.194 138.28 114.28 249.4 252.55 248.18z" stroke-width=".5" fill="#fccc0f"/>
   <path d="m270.06 176.2c138.27-1.2 249.39-114.27 248.19-252.54-1.2-138.29-114.28-249.4-252.56-248.2-138.28 1.21-249.4 114.28-248.18 252.56 1.194 138.28 114.28 249.4 252.55 248.18z" stroke="#000" stroke-width="1.5625" fill="none"/>
   <path d="m269.98 167.48c133.46-1.17 240.73-110.3 239.55-243.76-1.16-133.47-110.29-240.71-243.76-239.54-133.45 1.16-240.71 110.3-239.54 243.76 1.168 133.45 110.31 240.7 243.75 239.54z" stroke-width=".5" fill="#162c77"/>
  </g>
  <path d="m254.49 31.893l-0.15 36.095 4.88 0.018 0.14-36.094-4.87-0.019zm26.11 0.496c-10.34-0.101-16.08 8.498-17.05 16.689-0.45 3.792-1.03 9.95 3.84 15.795 1.63 2.016 4.36 4.623 10.5 5.348 4.89 0.581 9.65-1.08 12.5-4.188l0.59 4.785 3.15 0.37 2.28-19.167-15.72-1.869-0.5 4.143 11.19 1.328c-0.46 3.848-1.64 6.945-5.08 9.066-2.9 1.783-5.81 1.638-7.61 1.426-9.53-1.132-11.04-8.905-10.18-16.193 1.12-9.385 7.02-13.894 13.46-13.129 3.94 0.467 9.03 2.385 9.84 8.809l4.69 0.558c-0.09-8.162-7.09-12.839-13.77-13.633-0.73-0.086-1.44-0.132-2.13-0.138zm-48.62 0.72l-4.86 0.405 2.88 34.97-0.71-3.433-17.92 3.717-6.45-31.108-4.78 0.988 7.34 35.342 22.59-4.689 0.01 0.174 23.1-1.905-0.36-4.304-18.23 1.502-2.61-31.659zm75.54 4.411l-10.21 34.613 25.55 7.535 1.22-4.147-20.87-6.16 3.41-11.564 18.94 5.588 1.23-4.145-18.95-5.59 3.13-10.605 20.53 6.059 1.23-4.149-25.21-7.435zm-113.76 2.664l-24.77 8.808 12.09 33.998 25.1-8.926-1.45-4.074-20.5 7.295-4.04-11.365 18.61-6.619-1.45-4.072-18.61 6.619-3.71-10.42 20.18-7.174-1.45-4.07zm146.42 7.603l-15.66 32.512 4.25 2.049 12.65-26.264 0.1 0.047 3.88 34.224 4.93 2.377 15.66-32.515-4.26-2.049-12.65 26.264-0.09-0.043-3.61-34.094-5.2-2.508zm-175.82 3.068l-25.91 13.674 2.01 3.823 10.8-5.7 14.83 28.092 4.31-2.279-14.83-28.086 10.81-5.697-2.02-3.827zm-29.8 16.141l-3.8 2.805 17.29 23.463-0.08 0.062-31.82-12.765-4.65 3.427 21.4 29.052 3.81-2.81-17.29-23.46 0.08-0.063 32.06 12.588 4.41-3.248-21.41-29.051zm242.31 2.535c-5.47 0.079-10.74 3.222-14.75 8.885-8.02 11.319-4.54 20.319 2.15 25.054 2.22 1.57 11.58 7.47 21.09-2.48l-3.85-2.728c-6.2 5.888-11.55 3.948-14.13 2.118-7.3-5.172-5.98-12.246-1.07-19.179 5.49-7.748 12.59-8.635 17.92-4.859 2.83 2.009 6.47 6.004 3.91 11.955l3.85 2.73c2.92-5.328 2.33-12.834-5.26-18.209-3.22-2.278-6.58-3.334-9.86-3.287zm26.55 17.262l-25.17 25.857 19.08 18.59 3.02-3.1-15.6-15.18 8.42-8.65 14.15 13.78 3.02-3.09-14.15-13.78 7.71-7.929 15.34 14.939 3.01-3.1-18.83-18.337zm-297.33 2.477l-3.59 3.296 24.41 26.584 3.59-3.29-24.41-26.59zm149.67 3.566c-1.78 0.015-4.39 0.14-9.69 0.092 0 0-31.74 4.581-7.02 23.402 9.54 7.26 6.26 15.77 6.26 15.77 0.03 4.45-12.21 11.81-16.63 16.23-5.37 5.37-8.38 15.05-23.03 15.97l-0.26 0.39s12.25 8.24 19.23 3.4c1.63-1.13-11.18 8.01 2.89 2 0 0.06-0.01 0.1-0.01 0.16-0.69 13.24 4.47 7.18 2.49 10.41-1.87 3.04 14.91 4.14 10.85-4.21 1.78 1.99 3.98 3.94 5.99 4.46 6.03 1.55 9.24 1.52 7.59-3.68-0.06-0.21-0.11-0.44-0.18-0.66 0.97 0.61 2.08 1.17 3.39 1.64 0 0-3.88-8.39 0.5-11.23 7.3-4.74 3.22 10.92 16.62-1.75 0 0 1.67 3.84 3.63 5.03-0.4 12.05 4.44 6.4 2.52 9.55-1.87 3.05 14.91 4.14 10.84-4.21 1.79 2 3.98 3.95 6 4.47 6.02 1.54 9.23 1.51 7.58-3.68-1.19-3.74-1.56-8.92-3.17-10.93-1.46-4.12-4.56-5.35-7.65-7.1-4.3-2.44-6.78-23.5-8.22-26.9-2.45-5.79 0.75-6.82-1.99-21.03-2.71-14.208-19.77-16.063-23.78-17.034-2.02-0.482-2.97-0.575-4.75-0.56zm-178.68 27.864l-3.041 3.81 26.949 21.47-36.363-6.98-2.828 4.75 22.418 28.07c-0.524-0.03-1.114-0.2-1.897-0.5l-6.181-2.14c-4.743-1.68-6.349-0.1-7.909 1.5-0.402-2.66-1.214-5.91-6.164-7.88-7.096-2.84-11.212 1.91-13.414 7.41l-6.197 15.5 33.522 13.4 1.81-4.53-14.379-5.74 4.385-10.97c2.163-5.42 5.61-4.69 8.365-3.59 1.26 0.5 6.405 2.39 8.721 2.56l1.598-4 1.957-3.29-7.098-8.61 7.406-12.43 10.852 2.3 2.396-4.03 0.28 0.22 14.44-18.13-3.38-2.69-11.4 14.31-24.848-19.79zm365 10.36l-37.62 8.48 2.77 4.2 10.85-2.62 7.95 12.1-6.82 8.75 2.93 4.45 22.97-30.74-3.03-4.62zm-3.12 5.05l0.06 0.08-10.35 13.18-6.15-9.37 16.44-3.89zm-371.2 8.15l16.371 3.55-5.736 9.62-10.688-13.09 0.053-0.08zm378.23 10.65c-2.84 0.08-5.67 0.77-8.18 1.88-3.49 1.56-9.08 4.2-11.61 11.38-0.89 2.43-1.74 6.11 0.77 11.76 2 4.5 5.85 7.73 9.97 8.6l-3.79 2.95 1.28 2.9 17.64-7.84-6.42-14.47-3.82 1.69 4.57 10.29c-3.54 1.58-6.8 2.15-10.39 0.27-3.01-1.58-4.37-4.16-5.11-5.81-3.89-8.78 2.02-14.04 8.72-17.02 8.64-3.84 15.54-1.07 18.17 4.86 1.61 3.63 2.56 8.98-2.55 12.96l1.91 4.31c6.97-4.25 7.43-12.64 4.69-18.8-3.28-7.39-9.61-10.1-15.85-9.91zm-199.13 10.98c0.14-0.02 0.26 0.02 0.37 0.11-0.25 0.04-0.52 0.06-0.8 0.07 0.16-0.1 0.3-0.17 0.43-0.18zm-46.43 0.78c-0.31 0-0.65 0.06-1.02 0.22-4 1.64-13.64-2.29-8.79 4.08 6.73 8.81-11.73-12.73-12.43 0.51-0.68 13.24 4.49 7.18 2.51 10.41-1.87 3.04 14.89 4.13 10.85-4.19 1.79 1.99 3.97 3.93 5.98 4.44 6.03 1.55 9.23 1.53 7.59-3.68-1.49-4.7-1.69-11.73-4.69-11.79zm-142.35 0.37c0.758 0.04 1.616 0.23 2.588 0.61 4.948 1.98 4.387 5.82 3.064 9.13l-4.201 10.51-11.392-4.56 4.517-11.3c0.728-1.82 2.141-4.54 5.424-4.39zm233.36 2.69c1.33 1.79 0.79 1.44-0.56 0.38 0.26-0.01 0.45-0.14 0.56-0.38zm178.49 18.07l-34.95 9.03 6.67 25.8 4.18-1.09-5.44-21.07 11.68-3.02 4.95 19.13 4.18-1.08-4.95-19.13 10.71-2.77 5.36 20.73 4.19-1.08-6.58-25.45zm-318.49 1.38c3.87 1.41 8.1 9.2 8.1 12.89l1.47 169.24c0 15.07 16.1 25.39 29.88 25.39h38.67c12.53 0 21.39 1.08 25.39 16.01 4-14.93 12.86-16.01 25.39-16.01h38.77c13.78 0 29.88-10.32 29.88-25.39l1.47-169.24c0-3.69 4.23-11.48 8.1-12.89h-103.61-103.51zm-110.58 1.45l-6.677 28.53 4.207 0.98 2.783-11.89 30.931 7.24 1.11-4.75-30.932-7.23 2.785-11.89-4.207-0.99zm436.91 29.52l-35.94 3.47 0.46 4.7 29.03-2.8v0.1l-27.26 21.06 0.52 5.46 35.93-3.47-0.45-4.7-29.02 2.8-0.01-0.1 27.29-20.76-0.55-5.76zm-444.26 3.48l-0.377 4.71 29.056 2.34-0.007 0.1-30.504 15.65-0.465 5.76 35.971 2.89 0.378-4.7-29.058-2.34 0.01-0.1 30.529-15.95 0.439-5.47-35.972-2.89zm427.5 32.58c-12.05-0.29-17.46 6.75-18.23 14.39-0.28 2.71-0.79 13.77 12.56 17.13l0.48-4.7c-8.19-2.49-9.14-8.1-8.82-11.24 0.9-8.91 7.7-11.25 16.15-10.4 9.46 0.96 13.73 6.69 13.07 13.19-0.35 3.45-2.03 8.59-8.46 9.3l-0.48 4.7c6.07-0.1 12.31-4.32 13.24-13.57 1.06-10.45-5.96-17.52-17.01-18.64-0.86-0.08-1.7-0.14-2.5-0.16zm-393.82 0.28l-4.309 0.32 1.644 21.7-12.025 0.91-1.496-19.69-4.309 0.32 1.495 19.7-11.024 0.84-1.621-21.35-4.309 0.32 1.987 26.21 35.98-2.73-2.013-26.55zm-8.583 30.57c-0.776-0.02-1.591 0.01-2.449 0.09l1.09 4.59c8.549-0.32 11.276 4.67 12.006 7.74 2.061 8.71-3.604 13.15-11.869 15.11-9.244 2.19-15.154-1.84-16.658-8.2-0.799-3.37-0.891-8.77 4.959-11.55l-1.086-4.6c-5.707 2.07-10.223 8.1-8.08 17.15 2.418 10.22 11.362 14.61 22.171 12.05 13.499-3.19 16.83-12.24 14.942-20.22-0.586-2.47-3.376-11.96-15.026-12.16zm419.4 4.4l-24.08 8.4-14.16-3.29-1.1 4.75 14.15 3.29 17.93 18.14 1.29-5.58-14.55-14.01 19.23-6.17 1.29-5.53z" stroke-width=".5" fill="#fff"/>
  <g stroke="#4c4c4c" stroke-width="1.5552" fill="none">
   <path d="m190.62 170.97c6.7221 8.8058-11.738-12.731-12.432 0.50701-0.68058 13.241 4.4856 7.179 2.5089 10.411-1.9783 3.2131 16.873 4.2583 9.9642-5.7016-6.9031-9.9692 0.83828 4.4045 6.8642 5.9535 6.0288 1.5459 9.231 1.5304 7.5887-3.6828-1.642-5.1914-1.7201-13.204-5.7084-11.574-3.9982 1.6392-13.645-2.2831-8.7856 4.0872z"/>
   <path d="m239.92 169.74c6.732 8.8027-11.737-12.731-12.42 0.5039-0.68866 13.245 4.4751 7.179 2.4924 10.411-1.9776 3.2163 16.877 4.2614 9.9738-5.7078-6.8982-9.9598 0.84449 4.4014 6.8711 5.9597 6.0287 1.549 9.2335 1.5148 7.5896-3.6797-1.6495-5.1914-1.7238-13.207-5.7252-11.574-3.9892 1.6392-13.648-2.2831-8.7818 4.0872z"/>
   <path d="m290.82 168.9c6.7311 8.8089-11.742-12.728-12.42 0.5039-0.67808 13.241 4.4698 7.1822 2.4946 10.411-1.972 3.2194 16.874 4.2583 9.966-5.7078-6.896-9.9629 0.84607 4.4014 6.8742 5.9628 6.025 1.5428 9.2351 1.5148 7.5834-3.6797-1.6548-5.1945-1.7139-13.21-5.7171-11.574-3.9908 1.6361-13.649-2.2862-8.7809 4.0841z"/>
  </g>
  <path d="m215.47 170.36c3.0588 4.0032 1.2097 0.93938-2.1058-1.4837-3.9883-2.899-9.9511-5.2225-10.322 1.9876-0.68276 13.244 4.4757 7.179 2.5005 10.408-1.9752 3.2194 16.871 4.2614 9.9726-5.7078-6.9097-9.9598 0.84885 4.4045 6.8648 5.9628 6.0266 1.5459 9.2313 1.5179 7.5887-3.6797-1.6507-5.1945-1.7307-13.207-5.7137-11.574-3.9936 1.6392-13.648-2.2831-8.7846 4.0872z" stroke-width=".5" fill="#e50f07"/>
  <path d="m215.47 170.36c3.0588 4.0032 1.2097 0.93938-2.1058-1.4837-3.9883-2.899-9.9511-5.2225-10.322 1.9876-0.68276 13.244 4.4757 7.179 2.5005 10.408-1.9752 3.2194 16.871 4.2614 9.9726-5.7078-6.9097-9.9598 0.84885 4.4045 6.8648 5.9628 6.0266 1.5459 9.2313 1.5179 7.5887-3.6797-1.6507-5.1945-1.7307-13.207-5.7137-11.574-3.9936 1.6392-13.648-2.2831-8.7846 4.0872z" stroke="#000" stroke-width="1.5552" fill="none"/>
  <path d="m266.78 169.51c6.7342 8.8058-11.741-12.731-12.421 0.5039-0.69238 13.232 4.4713 7.1822 2.4962 10.402-1.9783 3.2256 16.877 4.2552 9.9685-5.7015-6.8982-9.9567 0.83983 4.4045 6.8742 5.9535 6.0219 1.5552 9.232 1.5241 7.5834-3.6704-1.6486-5.2039-1.7201-13.223-5.7202-11.571-3.9814 1.6361-13.644-2.2987-8.7809 4.0841z" stroke-width=".5" fill="#e50f07"/>
  <path d="m266.78 169.51c6.7342 8.8058-11.741-12.731-12.421 0.5039-0.69238 13.232 4.4713 7.1822 2.4962 10.402-1.9783 3.2256 16.877 4.2552 9.9685-5.7015-6.8982-9.9567 0.83983 4.4045 6.8742 5.9535 6.0219 1.5552 9.232 1.5241 7.5834-3.6704-1.6486-5.2039-1.7201-13.223-5.7202-11.571-3.9814 1.6361-13.644-2.2987-8.7809 4.0841z" stroke="#000" stroke-width="1.5552" fill="none"/>
  <path d="m314.87 169.08c6.7373 8.8214-11.733-12.725-12.411 0.51946-0.68743 13.229 4.4636 7.1728 2.4884 10.402-1.9752 3.2225 16.881 4.2614 9.9722-5.7015-6.896-9.9629 0.84604 4.3982 6.8742 5.9504 6.0188 1.549 9.2195 1.5242 7.5772-3.6797-1.6517-5.1914-1.7077-13.21-5.7109-11.571-4.0001 1.633-13.649-2.2831-8.7902 4.081z" stroke-width=".5" fill="#e50f07"/>
  <g stroke-width="1.5552" fill="none">
   <path d="m314.87 169.08c6.7373 8.8214-11.733-12.725-12.411 0.51946-0.68743 13.229 4.4636 7.1728 2.4884 10.402-1.9752 3.2225 16.881 4.2614 9.9722-5.7015-6.896-9.9629 0.84604 4.3982 6.8742 5.9504 6.0188 1.549 9.2195 1.5242 7.5772-3.6797-1.6517-5.1914-1.7077-13.21-5.7109-11.571-4.0001 1.633-13.649-2.2831-8.7902 4.081z" stroke="#000"/>
   <path d="m205.39 164.69s12.25 8.2366 19.235 3.3998c1.6974-1.1789-12.438 8.8992 4.8748 1.1384 12.669-5.6798 2.5478 16.212 14.825-0.72786 5.9255-8.1837 0.18289 4.983 13.309 9.7048 0 0-3.8844-8.3859 0.50483-11.232 7.2947-4.7342 3.2175 10.927 16.615-1.745 0 0 3.2754 7.5803 6.0499 4.756 2.787-2.8306 1.7792-3.8197 5.0048-2.6501 3.21 1.1758 3.0887-1.154 9.7607 0.6252 3.9223 1.0451 2.619 1.3095 7.4652 3.9254 0.12132-9.6923-4.224-11.092-8.5321-13.528-4.3018-2.4386-6.7746-23.497-8.221-26.906-2.448-5.7824 0.74963-6.8182-1.9876-21.027-2.7092-14.206-19.768-16.06-23.783-17.03-4.0287-0.96426-3.8268-0.37326-14.441-0.46969 0 0-31.739 4.5818-7.016 23.407 9.538 7.2568 6.258 15.77 6.258 15.77 0.0274 4.4418-12.207 11.804-16.629 16.227-5.365 5.3718-8.3769 15.052-23.032 15.966l-0.26036 0.39504z" stroke="#7f7f7f"/>
   <g stroke="#8c8c8c" stroke-linecap="round">
    <path d="m244.65 109.58s1.5811 2.3826 3.9976 3.5584m-6.7426-8.6628c1.8246 2.4946 3.8971 4.4791 5.513 5.0732"/>
    <path d="m241.51 104.87c2.4809 3.7979 4.7074 6.0779 7.7252 6.8618"/>
    <path d="m264.17 146.48c0.24354 5.2163 0.22769 3.8072 1.843 5.1914 1.6144 1.3935 5.7638-5.6549 5.7389-8.0562"/>
    <path d="m264.62 106.42c2.0312 0.67809 3.2349 2.3826 2.8306 3.5771m-0.43-5.21c2.2396 0.4728 2.815 0.78385 3.2256 2.7808m-0.006-3.8104c2.3982-0.0218 2.8088 0.56922 3.0141 1.5708"/>
    <path d="m257.33 119.49c0.37203-3.4122-1.3866 2.4169 1.433 3.5895"/>
    <path d="m239.68 115.6c3.8265 2.3764 8.2114 8.0313 8.245 12.044m-4.7152-11.257c1.8355 1.7014 4.9519 4.6782 5.3606 6.2832"/>
    <path d="m269.15 121.21c0.6221 4.2178 0.23328 3.8072 2.8523 5.3936 2.6315 1.5801 3.5709-5.0359 2.5413-8.641m1.7916-0.42303c3.2598 5.1821 6.0779 6.7653 3.941-8.0406m-1.4557 16.84c1.2473 4.3982 5.2505 4.7653 2.7621-4.8337m-11.528 10.523c1.6423 5.5958 4.8057-0.84606 4.3671-4.8462m-1.5335 8.0313c-1.6548-5.6051 2.8834 9.1884 4.3734-2.8492m-15.771 10.324c-0.0432-4.8213 2.1142 7.3377 3.9335 4.7062 0.46502-0.64077 0.89116-2.2054 1.2644-5.1572m-25.81 0.47279c-0.46192-7.2132 1.7213 13.21 6.3992-2.4635m-15.94 10.958c0.75617-4.4138-1.9198 9.6457 4.7954-0.84295m14.054 1.8943c-1.2666-6.812-1.0644 16.436 7.2129-0.0653m-17.172 8.1651c-0.42583-3.6144 2.4728 6.389 6.3974-1.661m27.588-9.8665c2.8523 6.7933 5.658 7.1697 7.2132 0.74342m-2.0747-8.3984c-1.266-7.6114 3.3407 14.392 5.5958-1.2535m-21.884 19.027c-0.85819-7.6052 2.5833 20.019 6.8415 1.9472m12.37-6.1184c-2.4604-7.2039 4.1121 12.389 6.389-3.266m-13.574 6.9364c-2.4604-6.7964 4.532 13.593 6.8275 1.5366m-31.246 2.6812c-1.6358-4.3982 0.88401 10.006 5.6194 0.34837"/>
   </g>
  </g>
  <g stroke-width=".5">
   <path d="m241.38 102.91c-0.12908 0.75896-0.39565 1.7046-0.39565 1.7046s3.6679-0.0343 8.7787 2.6221c3.2685 1.7046 5.0804-2.4791 5.0387-1.7574 0.15242-2.5413-0.0905-4.5102 0.57794-5.9722 0 0-2.3385 0.04668-2.8729 0.13375-2.4862 0.39504-1.67-0.009-3.2722 0-0.005 0-7.0745-1.1789-7.8546 3.2691z" fill="#727272"/>
   <path d="m249.71 104.61c1.4905-0.009 2.1892-0.91761 2.6806-1.7263 0.37201-0.6252 0.73967-1.4899 0.25597-1.801-0.49891-0.30795-2.2212 0.1213-2.9671 0.1213-0.8784 0.0124-1.7876-0.15241-2.2775 0.26751-0.34464 0.28616-0.39938 1.0762-0.39938 1.4682 0.0121 0.93315 1.2159 1.6766 2.7074 1.6704z" fill="#fccc0f"/>
   <path d="m241.51 115.86c1.6965 1.7014 12.507 2.0218 10.856 0.52568-1.6454-1.4899-5.709-1.6175-6.5308-4.0281 0 0-6.6919-11.556-14.542-12.859-7.8478-1.3033-0.85664-0.23018-1.307-0.26128-3.532-0.25196-4.3239 0-5.2353 0.65631-6.937 1.0451-16.097-0.65631-7.3495 18.032 0.82553 1.7419-0.81774-2.4915 1.5826-2.7124 0 0 22.104 0.2364 22.525 0.64698z" fill="#fccc0f"/>
  </g>
  <path d="m241.51 115.86c1.6965 1.7014 12.507 2.0218 10.856 0.52568-1.6454-1.4899-5.709-1.6175-6.5308-4.0281 0 0-6.6919-11.556-14.542-12.859-7.8475-1.3033-0.85633-0.23018-1.3067-0.26128-3.532-0.25196-4.3239 0-5.2353 0.65631-6.937 1.0451-16.097-0.65631-7.3495 18.032 0.82553 1.7419-0.81774-2.4915 1.5826-2.7124 0 0 22.104 0.2364 22.525 0.64698z" stroke="#595959" stroke-width="1.5552" fill="none"/>
  <path d="m249.89 116.78c-15.319-3.5398-22.785-9.8136-25.133-16.887m-6.937 18.327s-0.27031-4.109 1.5347-4.4169c1.8019-0.32039 5.0088 0.0498 19.929-0.69053" stroke="#4c4c4c" stroke-width="1.5552" fill="none"/>
  <g stroke-width=".5">
   <path d="m250.26 103.59c0.43827-0.0125 0.78074-0.36082 0.78074-0.79318 0-0.42302-0.35398-0.77762-0.79131-0.7683-0.42894 0-0.76768 0.35772-0.76768 0.78075 0 0.44169 0.35304 0.78073 0.77825 0.78073z"/>
   <path d="m231.86 104.04c0.0666 0.0747 0 0.25195 0.0401 0.37326 0.10016 0.30483 0.44356 0.43547 0.5742 0.7123 0.24293 0.46658 0.5602 0.71231 0.87778 1.1291 0.66005 0.86472 1.6996 2.056 2.1332 2.3982 0.15956-0.72786-1.3745-2.6004-1.9857-3.0452-0.35615-0.44792-0.75181-1.0731-1.1664-1.8414-0.26906 0.031-0.74123-0.49458-0.95772-0.64698-0.0912 0.42613 0.22645 0.64698 0.48461 0.9207z" fill="#4c4c4c"/>
   <path d="m61.863 366.74s64.694 119.61 203.98 109.54c134.57-9.7141 180.82-108.18 185.26-121.93 1.4215-4.3939 2.8679-7.7893-0.27683-10.634-6.7031-6.0618-26.837-8.7999-30.29-8.4204-7.2754 0.80966-6.6409 6.5865-4.7995 8.3473 1.9472 1.8318 5.0546 0.42303 4.4604 1.6921-37.223 79.58-126.35 98.14-153.58 99.655 0 0-111.87 15.758-174.85-92.461 0 0 8.7856-14.668-5.9886-14.274-5.6141 0.13687-10.479 13.397-20.391 17.362 0 0-7.7028 4.8244-3.5261 11.125z" fill="#f9db11"/>
  </g>
  <path d="m63.483 357.36s10.875 0 6.5482 11.657c-1.5235 4.1342 10.212-13.091 21.729-16.096m360.49-7.0761s-1.0607-1.2629-2.7528-1.5636c-2.224-0.39939-5.7544 1.5636-5.1043 6.0235 0.13686 0.86037 0.73719 1.5357 1.0482 1.7739 4.1307 3.2275-10.053-5.5793-25.235-6.7479" stroke="#3f3f3f" stroke-linecap="round" stroke-width="1.5552" fill="none"/>
  <path d="m412.83 369.86l-1.7 2.47 11.94 17.13 1.55-2.24-3.54-4.91 4.45-6.46 5.79 1.63 1.63-2.38-20.12-5.24zm1.5 2.95l8.73 2.5-3.44 5-5.31-7.45 0.02-0.05zm-315.36 3.14l-9.856 8.54c-2.756 2.39-3.83 6.31-0.388 10.29 3.513 4.05 7.705 3.73 10.73 1.11l9.583-8.31-1.72-2-9.347 8.1c-3.21 2.78-5.834 1.45-7.422-0.38-1.552-1.79-2.363-4.51 0.847-7.29l9.302-8.06-1.729-2zm307.84 5.6c-1.97 0.07-4.07 0.99-5.91 3.14-3.7 4.32-2.77 9.64 1.79 13.55 5.71 4.89 10.74 3.46 13.63 0.1 0.95-1.12 4.6-5.87-0.29-11.51l-1.66 1.95c2.86 3.64 1.54 6.42 0.43 7.73-3.15 3.67-6.9 2.61-10.4-0.39-3.9-3.34-4.02-7.22-1.72-9.9 1.22-1.43 3.56-3.2 6.64-1.52l1.67-1.94c-1.2-0.8-2.65-1.26-4.18-1.21zm-295.23 8.72l-13.627 14.02 1.84 1.79 10.997-11.33 0.04 0.04-3.87 18.25 2.13 2.07 13.62-14.03-1.83-1.78-11.01 11.33-0.04-0.03 3.99-18.15-2.24-2.18zm281.54 3.69l-1.87 1.87 13.85 13.81 1.86-1.87-13.84-13.81zm-4.65 6.64c-1.61 0.01-3.21 0.93-4.58 2.11l-6.84 5.91 12.78 14.79 2-1.72-5.48-6.35 4.84-4.18c2.39-2.07 3.86-0.86 4.91 0.35 0.49 0.56 2.49 2.75 3.56 3.41l2.45-2.12-0.29-0.33c-0.91 0.19-1.29-0.03-2.02-0.84l-2.44-2.57c-1.86-1.99-3.03-1.63-4.17-1.25 0.47-1.38 0.88-3.14-1-5.33-1.19-1.37-2.46-1.9-3.72-1.88zm-0.29 2.58c0.67 0.07 1.39 0.43 2.12 1.29 1.89 2.18 0.67 3.89-0.79 5.16l-4.64 4-4.35-5.03 4.99-4.31c0.62-0.53 1.57-1.22 2.67-1.11zm-262.72 0.16l-12.79 14.79 2 1.73 12.79-14.79-2-1.73zm3.25 2.99l-1.43 1.85 5.22 4.06-10.55 13.6 2.09 1.62 10.55-13.6 5.23 4.06 1.44-1.85-12.55-9.74zm245.88 4.21l-11.67 8.16 11.21 16.01 11.82-8.27-1.34-1.92-9.66 6.76-3.74-5.35 8.76-6.14-1.35-1.91-8.76 6.13-3.43-4.91 9.5-6.64-1.34-1.92zm-232.33 6.21l-10.72 16.33 12.05 7.92 1.29-1.96-9.85-6.47 3.58-5.45 8.94 5.87 1.29-1.96-8.95-5.87 3.29-5.01 9.7 6.37 1.28-1.96-11.9-7.81zm217.87 3.86l-3.29 1.8 3.09 17.16-0.05 0.03-12.85-11.8-3.32 1.82 9.41 17.14 2.25-1.23-5.57-10.12c-0.26-0.5-1.51-2.65-2.38-4.22l0.05-0.03 12.72 11.72 2.28-1.26-3.08-17.04 0.05-0.03c0.88 1.61 2.02 3.8 2.3 4.3l5.55 10.12 2.25-1.23-9.41-17.13zm-203.3 5.53l-9.13 17.29 6.91 3.65c5.68 3 10.01-1.12 12.06-4.99 2.63-4.99 1.67-9.87-2.83-12.25l-7.01-3.7zm1.28 3.24l4.36 2.3c3.18 1.68 4.02 4.92 1.72 9.28s-5.54 5.7-8.57 4.1l-4.53-2.39 7.02-13.29zm177.72 3.6l-2.76 1.16 0.81 20.87 2.51-1.05-0.33-6.04 7.23-3.04 4 4.49 2.65-1.12-14.11-15.27zm-0.33 3.3l6.01 6.8-5.6 2.36-0.46-9.14 0.05-0.02zm-153.65 1.86c-2.74 0.03-4.58 1.76-5.37 3.9-1.19 3.19 1.2 5.04 2.3 5.77l3.43 2.26c2.74 1.83 3.41 2.78 2.69 4.69-0.97 2.63-4.15 1.97-5.94 1.3-2.35-0.87-4.69-2.84-3.46-6.16l-2.32-0.86c-0.63 1.7-0.9 3.35 0.14 5.34 0.54 1.04 1.49 2.55 4.88 3.81 3.14 1.17 7.62 1.47 9.23-2.87 1.08-2.91-0.17-5-2.34-6.44l-4.79-3.14c-0.97-0.66-1.88-1.58-1.3-3.13 1.03-2.79 3.82-2.24 5.38-1.66 2.07 0.76 4.08 2.53 3.16 5.41l2.32 0.86c0.65-2.05 1.43-6.12-4.97-8.5-1.11-0.41-2.13-0.59-3.04-0.58zm137.09 1.37l-13.01 3.73 5.4 18.79 2.54-0.73-2.46-8.53 9.22-2.65-0.65-2.25-9.21 2.65-1.65-5.76 10.46-3-0.64-2.25zm-125.66 2.84l-0.6 2.26 6.38 1.71-4.44 16.62 2.55 0.69 4.45-16.63 6.39 1.72 0.6-2.27-15.33-4.1zm103.1 2.8c-0.78-0.02-1.62 0.05-2.51 0.23-7.15 1.42-8.15 7.81-7.33 11.95 0.83 4.14 4.2 9.65 11.36 8.23 7.15-1.43 8.15-7.82 7.33-11.96-0.72-3.62-3.4-8.29-8.85-8.45zm-0.54 2.38c3.41 0.03 5.93 2.66 6.71 6.61 0.91 4.51-0.95 8.29-5.11 9.12-4.17 0.83-7.33-1.95-8.23-6.46-0.9-4.52 0.96-8.29 5.12-9.13 0.52-0.1 1.03-0.15 1.51-0.14zm-79.91 0.2l-10.51 18.05 2.69 0.45 2.96-5.27 7.73 1.31 0.96 5.94 2.84 0.48-3.72-20.46-2.95-0.5zm52.72 1.34c-0.38 0.01-0.78 0.03-1.21 0.07-4.71 0.42-6.42 3.58-6.15 6.62 0.31 3.39 3.26 4.03 4.57 4.21l4.07 0.56c3.26 0.48 4.27 1.04 4.45 3.07 0.26 2.8-2.9 3.57-4.8 3.75-2.5 0.22-5.46-0.55-5.78-4.08l-2.47 0.23c0.17 1.81 0.64 3.42 2.43 4.75 0.94 0.71 2.44 1.67 6.05 1.35 3.33-0.31 7.51-1.97 7.09-6.58-0.28-3.09-2.31-4.44-4.89-4.81l-5.67-0.77c-1.17-0.16-2.38-0.61-2.53-2.26-0.27-2.95 2.48-3.67 4.14-3.82 2.19-0.2 4.77 0.53 5.18 3.53l2.47-0.23c-0.28-2-1.22-5.65-6.95-5.59zm-42.71 0.32l-0.18 2.33 6.6 0.5-1.31 17.16 2.63 0.2 1.31-17.16 6.6 0.51 0.18-2.34-15.83-1.2zm32.15 1.06l-14.24 0.16 0.22 19.54 14.42-0.16-0.03-2.34-11.78 0.13-0.07-6.53 10.7-0.12-0.03-2.34-10.7 0.12-0.06-5.99 11.6-0.13-0.03-2.34zm-41.3 0.38l0.05 0.01 1.41 8.96-5.99-1.01 4.53-7.96z" stroke-width=".5" fill="#e50f07"/>
  <g stroke-width="1.5552" stroke-linecap="round" fill="none">
   <path d="m285.88 166.53c5.8913 5.6145 8.1091 5.7793 2.2613-7.994l-2.2613 7.994z" stroke="#8c8c8c"/>
   <path d="m253.94 100.47c-0.23982 0 2.9108 1.0731 5.4449-2.1027m-5.6658 1.4402c-3.3385 0.76518 2.7323 0.50702 2.922-2.5319" stroke="#727272"/>
   <path d="m241.12 115.6c3.0231 2.1836 6.9152 7.3004 7.3299 8.8992" stroke="#8c8c8c"/>
   <path d="m265.42 136.37c-0.0357-4.1401 1.5571 4.2147 3.1559 5.0204 0.72475 0.37326 1.4588-0.82429 2.0498-5.4745" stroke="#8c8c8c"/>
  </g>
  <path d="m313.4 270.18-58.004 24.916 10.048 3.4894 47.956-28.405z" stroke-width=".5" fill="#6b0000"/>
  <path d="m313.4 270.18-58.004 24.916 10.048 3.4894 47.956-28.405z" stroke="#000" stroke-width="1.5552" fill="none"/>
  <path d="m230.2 237.2 25.201 57.895 3.4498-10.076-28.65-47.82z" stroke-width=".5" fill="#6b0000"/>
  <path d="m230.2 237.2 25.201 57.895 3.4498-10.076-28.65-47.82z" stroke="#000" stroke-width="1.5552" fill="none"/>
  <path d="m280.58 352.99-25.188-57.894 9.7103 4.3301 15.478 53.563z" stroke-width=".5" fill="#6b0000"/>
  <path d="m280.58 352.99-25.188-57.894 9.7103 4.3301 15.478 53.563z" stroke="#000" stroke-width="1.5552" fill="none"/>
  <path d="m197 319.09 58.396-23.996-4.5404 9.6155-53.856 14.381z" stroke-width=".5" fill="#6b0000"/>
  <path d="m197 319.09 58.396-23.996-4.5404 9.6155-53.856 14.381z" stroke="#000" stroke-width="1.5552" fill="none"/>
  <path d="m280.47 237.15-25.076 57.945 9.7103-4.3559 15.366-53.589z" stroke-width=".5" fill="#6b0000"/>
  <path d="m280.47 237.15-25.076 57.945 9.7103-4.3559 15.366-53.589z" stroke="#000" stroke-width="1.5552" fill="none"/>
  <path d="m313.46 319.89-58.066-24.79 10.033-3.5136 48.033 28.303z" stroke-width=".5" fill="#6b0000"/>
  <path d="m313.46 319.89-58.066-24.79 10.033-3.5136 48.033 28.303z" stroke="#000" stroke-width="1.5552" fill="none"/>
  <path d="m229.42 352.64 25.98-57.546 3.3065 10.097-29.286 47.449z" stroke-width=".5" fill="#6b0000"/>
  <path d="m229.42 352.64 25.98-57.546 3.3065 10.097-29.286 47.449z" stroke="#000" stroke-width="1.5552" fill="none"/>
  <path d="m197.33 270.29 58.064 24.806-10.051 3.5139-48.014-28.32z" stroke-width=".5" fill="#6b0000"/>
  <path d="m197.33 270.29 58.064 24.806-10.051 3.5139-48.014-28.32z" stroke="#000" stroke-width="1.5552" fill="none"/>
  <path d="m197.11 319.37 58.285-24.274-10.016-3.6169-48.269 27.891z" stroke-width=".5" fill="#e50f07"/>
  <path d="m197.11 319.37 58.285-24.274-10.016-3.6169-48.269 27.891z" stroke="#000" stroke-width="1.5552" fill="none"/>
  <path d="m280.57 352.98-25.175-57.884-3.4629 10.048 28.638 47.836z" stroke-width=".5" fill="#e50f07"/>
  <path d="m280.57 352.98-25.175-57.884-3.4629 10.048 28.638 47.836z" stroke="#000" stroke-width="1.5552" fill="none"/>
  <path d="m230.21 237.2 25.19 57.899-9.7219-4.3466-15.468-53.552z" stroke-width=".5" fill="#e50f07"/>
  <path d="m230.21 237.2 25.19 57.899-9.7219-4.3466-15.468-53.552z" stroke="#000" stroke-width="1.5552" fill="none"/>
  <path d="m313.42 270.18-58.019 24.916 4.3743-9.6945 53.645-15.221z" stroke-width=".5" fill="#e50f07"/>
  <path d="m313.42 270.18-58.019 24.916 4.3743-9.6945 53.645-15.221z" stroke="#000" stroke-width="1.5552" fill="none"/>
  <path d="m197.32 270.31 58.079 24.784-4.4091-9.6945-53.67-15.09z" stroke-width=".5" fill="#e50f07"/>
  <path d="m197.32 270.31 58.079 24.784-4.4091-9.6945-53.67-15.09z" stroke="#000" stroke-width="1.5552" fill="none"/>
  <path d="m229.69 352.76 25.71-57.667-9.7551 4.248-15.955 53.419z" stroke-width=".5" fill="#e50f07"/>
  <path d="m229.69 352.76 25.71-57.667-9.7551 4.248-15.955 53.419z" stroke="#000" stroke-width="1.5552" fill="none"/>
  <path d="m313.46 319.89-58.066-24.79 4.4014 9.6802 53.664 15.11z" stroke-width=".5" fill="#e50f07"/>
  <path d="m313.46 319.89-58.066-24.79 4.4014 9.6802 53.664 15.11z" stroke="#000" stroke-width="1.5552" fill="none"/>
  <path d="m280.47 237.15-25.076 57.945-3.4757-10.066 28.552-47.879z" stroke-width=".5" fill="#e50f07"/>
  <path d="m280.47 237.15-25.076 57.945-3.4757-10.066 28.552-47.879z" stroke="#000" stroke-width="1.5552" fill="none"/>
  <path d="m306.73 245.23-51.332 49.868 12.04-0.37139 39.292-49.496z" stroke-width=".5" fill="#6b0000"/>
  <path d="m306.73 245.23-51.332 49.868 12.04-0.37139 39.292-49.496z" stroke="#000" stroke-width="1.5552" fill="none"/>
  <path d="m305.48 346.18-50.087-51.087 12.027 0.65694 38.06 50.43z" stroke-width=".5" fill="#6b0000"/>
  <path d="m305.48 346.18-50.087-51.087 12.027 0.65694 38.06 50.43z" stroke="#000" stroke-width="1.5552" fill="none"/>
  <path d="m203.29 344.14 52.101-49.043-0.89987 12.013-51.202 37.03z" stroke-width=".5" fill="#6b0000"/>
  <path d="m203.29 344.14 52.101-49.043-0.89987 12.013-51.202 37.03z" stroke="#000" stroke-width="1.5552" fill="none"/>
  <path d="m205.29 244 50.103 51.099-12.055-0.65974-38.048-50.44z" stroke-width=".5" fill="#6b0000"/>
  <path d="m205.29 244 50.103 51.099-12.055-0.65974-38.048-50.44z" stroke="#000" stroke-width="1.5552" fill="none"/>
  <path d="m205.28 244.01 50.115 51.087-0.43361-12.056-49.681-39.031z" stroke-width=".5" fill="#e50f07"/>
  <path d="m205.28 244.01 50.115 51.087-0.43361-12.056-49.681-39.031z" stroke="#000" stroke-width="1.5552" fill="none"/>
  <path d="m203.52 344.38 51.872-49.285-12.058 0.2308-39.814 49.054z" stroke-width=".5" fill="#e50f07"/>
  <path d="m203.52 344.38 51.872-49.285-12.058 0.2308-39.814 49.054z" stroke="#000" stroke-width="1.5552" fill="none"/>
  <path d="m305.48 346.18-50.087-51.087 0.41245 12.038 49.675 39.049z" stroke-width=".5" fill="#e50f07"/>
  <path d="m305.48 346.18-50.087-51.087 0.41245 12.038 49.675 39.049z" stroke="#000" stroke-width="1.5552" fill="none"/>
  <path d="m306.73 245.23-51.332 49.868 0.70857-12.041 50.623-37.826z" stroke-width=".5" fill="#e50f07"/>
  <path d="m306.73 245.23-51.332 49.868 0.70857-12.041 50.623-37.826z" stroke="#000" stroke-width="1.5552" fill="none"/>
  <path d="m171.21 295.85 84.187-0.75492-9.6217-9.4733-74.565 10.228z" stroke-width=".5" fill="#e50f07"/>
  <path d="m256.01 379.26-0.61432-84.164-9.7424 9.0117 10.357 75.153z" stroke-width=".5" fill="#e50f07"/>
  <path d="m256.01 379.26-0.61432-84.164-9.7424 9.0117 10.357 75.153z" stroke="#000" stroke-width="1.5552" fill="none"/>
  <path d="m255.05 210.91 0.34557 84.185-9.6217-9.5887 9.2761-74.597z" stroke-width=".5" fill="#e50f07"/>
  <path d="m255.05 210.91 0.34557 84.185-9.6214-9.5887 9.2758-74.597z" stroke="#000" stroke-width="1.5552" fill="none"/>
  <path d="m339.57 294.36-84.172 0.73874 9.5334-9.6718 74.639 8.933z" stroke-width=".5" fill="#e50f07"/>
  <path d="m339.57 294.36-84.172 0.73874 9.5334-9.6718 74.639 8.933z" stroke="#000" stroke-width="1.5552" fill="none"/>
  <path d="m255.05 210.91 0.34557 84.185 9.5334-9.5887-9.8789-74.597z" stroke-width=".5" fill="#6b0000"/>
  <path d="m255.05 210.91 0.34557 84.185 9.5334-9.5887-9.8789-74.597z" stroke="#000" stroke-width="1.5552" fill="none"/>
  <path d="m256.02 379.26-0.6249-84.164 9.6397 9.4705-9.0148 74.694z" stroke-width=".5" fill="#6b0000"/>
  <path d="m256.02 379.26-0.6249-84.164 9.6397 9.4705-9.0148 74.694z" stroke="#000" stroke-width="1.5552" fill="none"/>
  <path d="m171.21 295.83 84.187-0.73377-9.7424 9.0117-74.444-8.278z" stroke-width=".5" fill="#6b0000"/>
  <path d="m171.21 295.83 84.187-0.73346-9.7424 9.0117-74.444-8.2783z" stroke="#000" stroke-width="1.5552" fill="none"/>
  <path d="m171.21 295.85 84.187-0.75492-9.6214-9.4733-74.565 10.228z" stroke="#000" stroke-width="1.5552" fill="none"/>
  <path d="m339.57 294.34-84.172 0.75616 9.5063 9.4705 74.666-10.227z" stroke-width=".5" fill="#6b0000"/>
  <path d="m339.57 294.34-84.172 0.75616 9.5063 9.4705 74.666-10.227z" stroke="#000" stroke-width="1.5552" fill="none"/>
 </g>
</svg>
