<?xml version="1.0" encoding="UTF-8" standalone="no"?>
<svg xmlns:rdf="http://www.w3.org/1999/02/22-rdf-syntax-ns#" xmlns="http://www.w3.org/2000/svg" height="364" width="363.99" version="1.1" preserveAspectRatio="none" xmlns:cc="http://creativecommons.org/ns#" xmlns:dc="http://purl.org/dc/elements/1.1/" viewBox="0 0 0.50554713 0.50555711">
 <path d="m0.24411 0.002798v0.00061171l0.00095215 0.00006917c0.000884 0 0.001564 0.00027115 0.00204 0.00074735 0.00034016 0.00034011 0.00047627 0.001292 0.00040826 0.002721l-0.00027127 0.015034c0 0.001292-0.00013618 0.002177-0.00040826 0.002517-0.0004765 0.00061222-0.001224 0.00088433-0.002245 0.00088433l-0.00088434-0.00006781v0.00067952l0.010475 0.00020345v-0.00067952h-0.00095215c-0.000884 0-0.001565-0.00027252-0.002041-0.0007487-0.00034011-0.0004081-0.00047493-0.001292-0.0004069-0.002721l0.00013563-0.006802c0.00013584 0 0.00033978-2e-7 0.00054389 0.00006782h0.00047608 0.001428l0.008164 0.01102 0.006597 0.00006782v-0.00061171c-0.001292-0.00020405-0.00238-0.00047712-0.003265-0.001021-0.0008165-0.00054415-0.001768-0.001565-0.002924-0.003129l-0.004966-0.006734c0.002108-0.00040815 0.003673-0.001089 0.004625-0.002109 0.00102-0.001088 0.001565-0.002244 0.001565-0.003741 0-0.001292-0.00034027-0.002449-0.001225-0.003402-0.000816-0.00102-0.001905-0.0017-0.003129-0.00204-0.001224-0.00040812-0.003129-0.00061286-0.005714-0.00068088l-0.008979-0.00013564zm-0.006395 0.00040826-0.018911 0.001564v0.00068088l0.00088433-0.00006782c0.00102-0.00013604 0.00177 0.00006793 0.002246 0.00047608 0.00033988 0.00027208 0.00054328 0.001156 0.00074734 0.002653l0.001428 0.015034c0.00006802 0.001088 0.00006802 0.001837 0 0.002245-0.000136 0.00034015-0.00033939 0.00068028-0.00067953 0.00088433-0.000544 0.00027214-0.001089 0.00047608-0.001633 0.00047608l-0.00088434 0.00013563 0.00006782 0.00061171 0.018911-0.001564 0.001564-0.005987-0.00074734 0.00006917c-0.00068 0.001497-0.001361 0.002584-0.002041 0.003333-0.000544 0.00061225-0.001088 0.001021-0.0017 0.001225-0.000612 0.00027207-0.001565 0.00040785-0.002926 0.00054389l-0.004149 0.00034044c-0.0007485 0.00006801-0.001156 2.1e-7 -0.001428-0.00006782-0.00027192-0.00013603-0.00040785-0.00027201-0.00054389-0.00047607-0.00013605-0.00020405-0.00020437-0.00081744-0.00034044-0.001838l-0.0007487-0.007619 0.005442-0.00047607c0.001021-0.00006804 0.001769 9.5e-7 0.002313 0.00013699 0.0005445 0.00020405 0.00088488 0.00047615 0.001157 0.00088433 0.0002043 0.00027205 0.00047674 0.00095135 0.00068088 0.002108l0.00067952-0.00006782-0.00074869-0.007959-0.00067953 0.00006782c0.000068 0.001224-0.00020451 0.002178-0.00081651 0.002722-0.000408 0.00040814-0.001292 0.00074714-0.002721 0.00081516l-0.005442 0.00047607-0.00081652-0.009115 0.006733-0.00054389c0.001225-0.00006802 0.002041-0.00006802 0.002585 0 0.000612 0.00020406 0.001088 0.000544 0.001428 0.00095215 0.00040851 0.00040812 0.00074905 0.001292 0.001089 0.002448l0.00074871-0.00006782-0.00074871-0.005033zm0.030611 0-0.00006781 0.00061171c0.000748 0.00013604 0.001293 0.00034098 0.001701 0.00061306 0.0004085 0.0002721 0.00074789 0.00054398 0.00102 0.00095215 0.000136 0.00027208 0.00040859 0.00088373 0.00074869 0.001972l0.006529 0.020884 0.00068088 0.00013564 0.011088-0.018637c0.000612-0.001088 0.001291-0.001906 0.00204-0.002382 0.000476-0.0002721 0.001157-0.00047587 0.002041-0.00054389l0.00006782-0.00061171-0.007483-0.00088433-0.00006782 0.0006117c0.00013608 0.00006802 0.00020441 0.00013564 0.00034044 0.00013564 0.000748 0.00020405 0.001361 0.00047641 0.001633 0.00081651 0.00034014 0.00034012 0.00047493 0.00067983 0.00040691 0.00102-0.000068 0.00047615-0.00047492 0.001361-0.001223 0.002653l-0.007483 0.012585-0.004422-0.014149c-0.00040817-0.001292-0.0005441-0.002176-0.00047608-0.002789 0.000068-0.00040816 0.00027157-0.00068027 0.00061171-0.00088433 0.0004085-0.00027214 0.001156-0.00034045 0.002245-0.00034045l0.00006782-0.0006117-0.009999-0.001157zm-0.014422 0.00102c0.001565 0.00006801 0.00279 0.0005439 0.003742 0.001428 0.00088432 0.00095236 0.00136 0.002109 0.00136 0.003605-0.000068 0.001429-0.00067998 0.002654-0.001836 0.003607-0.001224 0.00095234-0.002993 0.00136-0.005306 0.00136-0.00006801 0-0.0002044-0.00000115-0.00034044-0.00006918h-0.00006782-0.00006781-0.00006782-0.00006782-0.00006917-0.00006782-0.00006781-0.00006782-0.00006782l0.00020345-0.009591c0.001157-0.00020407 0.002109-0.00034044 0.002789-0.00034044zm-0.042174 0.001157-0.00067953 0.00006782c0 0.00061221-0.00013679 0.00095285-0.00020481 0.001157-0.0002045 0.00020406-0.00047662 0.00034023-0.0007487 0.00040825-0.000272 0.00006802-0.00081603-9.5e-7 -0.001496-0.00013699-0.001565-0.0003401-0.002994-0.00040755-0.004286-0.00020345-0.002041 0.00040812-0.003672 0.001292-0.004761 0.002721-0.001088 0.001428-0.001429 0.002925-0.001157 0.004557 0.000204 0.00095235 0.00061277 0.001769 0.001225 0.002517 0.0006125 0.0006802 0.001429 0.001293 0.00245 0.001769 0.000952 0.0004761 0.002653 0.001088 0.004966 0.001836 0.002313 0.00068025 0.003673 0.001156 0.004217 0.001428 0.000816 0.0003401 0.001428 0.00081645 0.001836 0.001293 0.00047638 0.0005442 0.00074829 0.001089 0.00088434 0.001633 0.000204 0.00102-0.00006821 0.001972-0.00074871 0.002856-0.000748 0.00095235-0.001836 0.001497-0.003333 0.001769-0.001292 0.00020405-0.002516 0.00020469-0.003673-0.00020345-0.001224-0.0002721-0.002109-0.00081697-0.00279-0.001565-0.000748-0.00074825-0.00136-0.001837-0.00204-0.00347l-0.00068088 0.00013699 0.001633 0.007822 0.00068088-0.00013563c-0.00006802-0.0005442-4.1e-7 -0.00088508 0.00013564-0.001089 0.0001358-0.00020406 0.00033957-0.00034024 0.00061171-0.00040826 0.0003405-0.00006802 0.001089 9.5e-7 0.002314 0.00013699 0.001293 0.00020409 0.00204 0.00027147 0.002448 0.00020345 0.00068 0 0.001293-0.00006738 0.002041-0.00020345 0.002177-0.00040815 0.003877-0.001361 0.005101-0.002858 0.001156-0.001497 0.001565-0.003129 0.001225-0.00483-0.000204-0.0008843-0.00061278-0.001768-0.001225-0.002448-0.0006125-0.0008163-0.001428-0.00136-0.00238-0.001836-0.0009523-0.00047615-0.002653-0.001088-0.00517-0.001836-0.003061-0.00088435-0.005033-0.001701-0.005918-0.002382-0.00068035-0.00047615-0.001021-0.001088-0.001157-0.001769-0.0002045-0.0008843-4.8e-7 -0.001769 0.00067952-0.002653 0.00068-0.0008163 0.001633-0.001428 0.002926-0.001632 0.001088-0.0002041 0.002176-0.00013666 0.003265 0.00020345 0.001157 0.00034015 0.002109 0.00095255 0.002858 0.001701 0.000748 0.0008163 0.00136 0.001905 0.001836 0.003402l0.00067952-0.00013699-0.001564-0.007822zm0.086255 0.001769-0.00020481 0.00061171 0.00088569 0.00013563c0.000544 0.00013605 0.001088 0.00034055 0.001564 0.0007487 0.00027191 0.0002721 0.00047587 0.00054437 0.00054389 0.00081651 0.00006802 0.00040815-0.00006837 0.001156-0.00034044 0.002313l-0.003333 0.014693c-0.000272 0.00136-0.00061199 0.002177-0.00095214 0.002517-0.0006125 0.00040812-0.001361 0.00054314-0.002382 0.00033909l-0.00081652-0.00013564-0.00013564 0.00061307 0.010204 0.002108 0.00020346-0.00067952-0.00088434-0.00013699c-0.000544-0.0001361-0.001088-0.00040725-0.001496-0.00074734-0.00033987-0.0002721-0.0005437-0.00054419-0.00061171-0.00088433 0-0.0003401 0.00006694-0.001156 0.00033908-0.002245l0.003334-0.014761c0.000272-0.001292 0.00061185-0.002177 0.00102-0.00245 0.0005445-0.00047615 0.001292-0.00054449 0.002313-0.00034044l0.00081652 0.00013699 0.0002048-0.00061306-0.010272-0.00204zm-0.1168 0.005169-0.008162 0.002722 0.00027127 0.00061171 0.0007487-0.00027262c0.0009525-0.00034012 0.001701-0.00034012 0.002245 0 0.000476 0.00020405 0.00095339 0.00095205 0.001497 0.002313l0.004693 0.012518-0.02027-0.011564-0.006326 0.002108 0.00020345 0.00061306c0.00068-0.00027208 0.001225-0.00034024 0.001565-0.00040826 0.000748 0 0.001361 0.00006741 0.001769 0.00020345 0.000476 0.00006805 0.001155 0.000408 0.002108 0.00095215l0.005714 0.015169c0.00047597 0.001224 0.0006119 0.002041 0.00054388 0.002517-0.000204 0.00068025-0.00081598 0.001224-0.001836 0.001496l-0.00081651 0.00027262 0.00027262 0.00061171 0.008095-0.002721-0.00020344-0.00061171-0.00088434 0.00027262c-0.0008845 0.00034014-0.001634 0.00034014-0.002246 0-0.000408-0.00020405-0.00088423-0.001021-0.00136-0.002382l-0.005101-0.013401 0.021904 0.012448 0.00061171-0.00013563-0.006938-0.018435c-0.00047598-0.001224-0.00067996-0.002108-0.0005439-0.002516 0.000272-0.0006803 0.00081598-0.001157 0.001836-0.001497l0.00081-0.000337-0.00021-0.000546zm0.14045 0.000111c-0.001088-0.00002551-0.002176 0.00009276-0.003265 0.00036486-0.002177 0.00047615-0.004082 0.001497-0.005714 0.003061-0.001633 0.001565-0.002857 0.003402-0.003537 0.005646-0.00088449 0.002721-0.00088469 0.005374 0.00006782 0.007891 0.001292 0.003333 0.003809 0.005578 0.007754 0.006666 0.002109 0.00061224 0.00415 0.00067964 0.005987 0.00020345 0.001904-0.0004761 0.003741-0.001497 0.005577-0.003129l-0.00047608-0.00047608c-0.001972 0.001428-0.003605 0.002245-0.004966 0.002517-0.00136 0.0003401-0.002788 0.00027137-0.004352-0.00020481-0.001769-0.00047615-0.003198-0.00136-0.004286-0.002516s-0.001768-0.002585-0.001972-0.004286c-0.0002045-0.001633-2.9e-7 -0.003469 0.00061171-0.005509 0.000816-0.002381 0.001837-0.004354 0.003061-0.005782 0.001293-0.001428 0.002653-0.002314 0.004149-0.002722 0.001497-0.00040814 0.002993-0.00033898 0.004557 0.00006918 0.001837 0.0005442 0.003334 0.001496 0.004286 0.002856 0.00102 0.00136 0.001496 0.003265 0.001496 0.005714l0.00054389 0.00020346 0.001904-0.007686-0.00067817-0.00020345c-0.000272 0.00047615-0.00061316 0.00081584-0.001021 0.00102-0.0003405 0.00013604-0.00061225 0.00020367-0.00088434 0.00013564-0.0002725-0.000068-0.00054398-0.00027141-0.00095214-0.00067953-0.001361-0.001292-0.002926-0.002109-0.004626-0.002653-0.001088-0.00030611-0.002176-0.00047634-0.003265-0.00050185zm0.01687 0.005263-0.00027263 0.00061307 0.00081651 0.00027126c0.00095201 0.00040815 0.001497 0.00088543 0.001701 0.00143 0.0001365 0.0004762-0.00006888 0.001361-0.00068088 0.002653l-0.006189 0.013944c-0.0005445 0.00102-0.00088481 0.0017-0.001157 0.001972-0.000272 0.00027208-0.00061184 0.00047607-0.00102 0.00047607-0.00061201 0-0.001157-0.00006742-0.001701-0.00020345l-0.00081652-0.00040826-0.00027262 0.00061171 0.017482 0.006939 0.004354-0.004557-0.00067953-0.00027262c-0.00136 0.00102-0.002517 0.001701-0.00347 0.002109-0.000748 0.00027208-0.001429 0.00033929-0.002109 0.00027127-0.000612-0.000068-0.001632-0.00033902-0.002856-0.00081516l-0.003878-0.001497c-0.0006125-0.00027213-0.001021-0.00047546-0.001157-0.00067952-0.00020408-0.00027214-0.00027127-0.00047682-0.00027127-0.00068088 0.000068-0.0002721 0.00020338-0.00088437 0.00067953-0.001769l0.003129-0.007075 0.005033 0.001973c0.000884 0.00040816 0.001566 0.0008155 0.001906 0.001156 0.00040794 0.00040815 0.00054368 0.00081641 0.00061171 0.001293 0 0.00034015-0.00013618 0.001089-0.00040826 0.002177l0.00061171 0.0002048 0.003333-0.007347-0.00061171-0.00027127c-0.000612 0.001156-0.001359 0.001904-0.002108 0.002108-0.000612 0.00020412-0.001565 0.00006813-0.002858-0.00047607l-0.004966-0.001972 0.003742-0.008435 0.006258 0.002448c0.001089 0.0004762 0.001837 0.00088464 0.002245 0.001225 0.00047635 0.00040815 0.00074849 0.00088407 0.00081651 0.001428 0.00006801 0.00054425 8.1e-7 0.001429-0.00027126 0.002653l0.00067952 0.00027263 0.001836-0.00483-0.017482-0.006939zm-0.19707 0.009116-0.00047607 0.00020481 0.001157 0.020746c0.00013604 0.001837 0.00006863 0.00313-0.00020344 0.003878-0.000136 0.0003401-0.0006809 0.00081597-0.001497 0.001428l0.00027262 0.00061171 0.007007-0.003333-0.00034044-0.00054525c-0.001088 0.00040817-0.001838 0.00061348-0.002314 0.00047743-0.00040833-0.00006805-0.0007483-0.00027296-0.00088434-0.00061306-0.00020406-0.00040815-0.00034022-0.001088-0.00040826-0.00204l-0.00027126-0.003946 0.008639-0.004013 0.002858 0.002313c0.000952 0.00074825 0.001565 0.00136 0.001769 0.001836 0.00020409 0.00034015 0.00020409 0.00068098 0 0.001089-0.000204 0.0003401-0.00068071 0.00074723-0.001565 0.001223l0.00034044 0.00061306 0.008639-0.00415-0.00027127-0.00054389c-0.0009525 0.00040811-0.00177 0.00047669-0.00245 0.00027262-0.000748-0.00013605-0.001769-0.0008159-0.003129-0.001904l-0.01687-0.013605zm0.22479 0.002833c-0.00067881-0.00002472-0.001351 0.00004929-0.002014 0.00022786-0.001837 0.0004762-0.003129 0.001428-0.004013 0.002856-0.00047644 0.0008843-0.00068088 0.001701-0.00068088 0.002653 0 0.0008843 0.00020469 0.001837 0.00068088 0.002858 0.000408 0.00095235 0.001361 0.00238 0.002653 0.004352 0.001293 0.001905 0.00204 0.003129 0.002313 0.003605 0.00033989 0.0007482 0.0005439 0.001497 0.0005439 0.002109 0 0.00068025-0.00013618 0.001292-0.00040826 0.001769-0.0005445 0.0008843-0.001429 0.001497-0.002585 0.001769-0.001088 0.0002721-0.00238 0.00006854-0.003673-0.00061171-0.001157-0.0005442-0.002109-0.001362-0.002789-0.002314-0.00068036-0.00095235-0.001021-0.001972-0.001089-0.002924-0.000068-0.00095236 0.00020471-0.002245 0.00074871-0.003878l-0.00054389-0.00027127-0.004083 0.007005 0.00061306 0.00027263c0.00040833-0.00040811 0.00061222-0.00068089 0.00088433-0.00068089 0.00027232-0.00013603 0.00047657-0.00006686 0.0007487 0.00006918 0.000272 0.00013605 0.00088299 0.00061197 0.001699 0.001428 0.000884 0.00088435 0.001429 0.001428 0.001769 0.001632 0.00047601 0.00034015 0.001089 0.00074924 0.001701 0.001021 0.001973 0.00102 0.003945 0.001293 0.00585 0.00081651 0.001973-0.00047615 0.003334-0.001497 0.004218-0.003061 0.00047592-0.0007483 0.00067933-0.001701 0.00074734-0.002653 0-0.00088435-0.00020356-0.001838-0.00061171-0.00279-0.000476-0.0008843-0.001361-0.00238-0.002858-0.00442-0.001769-0.002517-0.00272-0.004355-0.002992-0.005443-0.00013604-0.00074825-0.00006883-0.001428 0.00027127-0.00204 0.0004765-0.0008163 0.001225-0.001361 0.002314-0.001633 0.001088-0.00027207 0.002244-0.00013589 0.003333 0.00040826 0.00102 0.0005442 0.001838 0.001225 0.00245 0.002177 0.00068033 0.0009523 0.00102 0.001973 0.001088 0.002993 0 0.00102-0.00027251 0.002312-0.00081651 0.003741l0.00061171 0.00034044 0.004013-0.007075-0.00061035-0.00027262c-0.0003405 0.00040817-0.00068007 0.00061287-0.00095216 0.00068088-0.0002725 0.00006805-0.00054443 0.0000671-0.00081651-0.00013699-0.000272-0.000068-0.00061317-0.00040795-0.001021-0.00095215-0.00102-0.001224-0.002108-0.002109-0.003265-0.002721-0.001148-0.0005527-0.002296-0.0008662-0.003427-0.00090739zm-0.22337 0.002473 0.008162 0.006666-0.007619 0.003537-0.00054389-0.010204zm-0.017006 0.002721-0.005714 0.003673 0.003539 0.019591-0.018095-0.010272-0.00585 0.003741 0.00040826 0.00054524c0.000816-0.0005442 0.001496-0.00088433 0.001972-0.00088433 0.000544-0.00006802 0.00095243-4.1e-7 0.001293 0.00013564 0.000476 0.00027215 0.001021 0.00081654 0.001633 0.001701l0.009047 0.012516c0.00074838 0.001088 0.001157 0.001769 0.001157 0.002245 0 0.000748-0.00040809 0.00136-0.001293 0.001904l-0.0007487 0.00047607 0.00040826 0.00054389 0.007142-0.004625-0.00040825-0.00047607-0.0007487 0.00047607c-0.0007485 0.00047598-0.001497 0.00067994-0.002177 0.00054389-0.00047601-0.000136-0.001156-0.00081561-0.001972-0.001972l-0.009252-0.012789 0.019455 0.011088 0.00047607-0.00027127-0.003809-0.021156 0.00925 0.012789c0.00074837 0.001088 0.001157 0.001837 0.001157 0.002245 0 0.000748-0.00040809 0.00136-0.001293 0.001904l-0.0007487 0.00047608 0.00040826 0.00054389 0.00864-0.005577-0.00034044-0.00047608-0.0007487 0.00040826c-0.0007485 0.000544-0.001496 0.00074795-0.002177 0.00054389-0.00047599-0.00006805-0.001157-0.0007479-0.002041-0.001904l-0.009047-0.012518c-0.00074839-0.001088-0.001157-0.001836-0.001157-0.002313 0-0.0006802 0.00047726-0.00136 0.001362-0.001904l0.00067953-0.00047607-0.00040826-0.00047607zm0.25461 0.01306c-0.002041 0-0.003604 0.001497-0.003604 0.003402 0 0.001837 0.001563 0.0034 0.003604 0.0034h0.00000136 0.00013564 0.00020345l0.0002048-0.00006782h0.00013564l0.0002048-0.00006782h0.00020345l0.00013564-0.00006781 0.00013699-0.00006782 0.00020345-0.00006782 0.00013563-0.00006781 0.000137-0.00006918 0.00020345-0.00013563 0.00013563-0.00006782 0.00013699-0.00013563 0.00013563-0.00006917 0.00006782-0.00013564 0.00013699-0.00013563 0.00013563-0.00006782 0.00006782-0.00013699 0.00013563-0.00013563 0.00006782-0.00013564 0.00006918-0.00013563 0.00013563-0.00013699 0.00006781-0.00020345 0.00006782-0.00013699v-0.00013563l0.00006782-0.00020346 0.00006917-0.00013699v-0.00020345l0.00006782-0.00013563v-0.00020481-0.00013563c0-0.001905-0.001634-0.003402-0.003607-0.003402zm0.019796 0.001089-0.00040826 0.00047608 0.00067953 0.00054389c0.0007484 0.0005442 0.001089 0.001089 0.001089 0.001701 0.000068 0.0005442-0.00040791 0.001429-0.00136 0.002517l-0.006055 0.007007c-0.001904 0.002176-0.002992 0.003808-0.0034 0.004829-0.00054416 0.001497-0.00054395 0.002993-0.00006782 0.004489 0.0004765 0.001497 0.001768 0.003062 0.003876 0.004626 0.001905 0.001497 0.003742 0.002312 0.005443 0.00238 0.001769 0.000136 0.003197-0.00013651 0.004489-0.00081651 0.001224-0.0007485 0.002585-0.001973 0.004149-0.00381l0.006258-0.007278c0.000884-0.00102 0.001564-0.001565 0.001972-0.001701 0.0009525-0.00027185 0.001769-0.00013593 0.002517 0.00047607l0.00068089 0.00054525 0.00040825-0.00054525-0.006666-0.005101-0.00040825 0.00054389v0.00000135l0.00067952 0.00047608c0.00074841 0.000612 0.001089 0.001156 0.001089 0.001836 0.000068 0.0004765-0.00040926 0.001292-0.001362 0.00238l-0.006326 0.007279c-0.001633 0.001973-0.002993 0.003197-0.004013 0.003673-0.001088 0.00054422-0.002312 0.00068012-0.003741 0.00047608-0.001429-0.000272-0.002789-0.00081598-0.004013-0.001836-0.000952-0.00068051-0.001701-0.001496-0.002041-0.002313-0.00040814-0.0008845-0.00054409-0.001702-0.00047607-0.00245 0.000068-0.0008165 0.00047714-0.0017 0.001089-0.002721 0.000612-0.00102 0.001292-0.001837 0.001836-0.002517l0.006802-0.00789c0.000884-0.000952 0.001564-0.001565 0.00204-0.001701 0.0007485-0.0002045 0.001498-1.1e-7 0.002246 0.00054389l0.00074734 0.00054389 0.00040826-0.00047607-0.008162-0.00619zm-0.30386 0.005306-0.006394 0.005442 0.00040826 0.00047608 0.00067953-0.00061171c0.00068-0.00054444 0.001361-0.00081673 0.002109-0.0007487 0.0004765 0.000068 0.001224 0.00061235 0.002313 0.001701l0.006666 0.007005c0.0017 0.001837 0.00279 0.003266 0.003198 0.004286 0.0003401 0.001088 0.00033914 0.002245-0.00013699 0.003537-0.0004765 0.001292-0.001292 0.002448-0.002516 0.003468-0.0008845 0.000816-0.001837 0.001293-0.00279 0.001565-0.0009525 0.00020405-0.001837 0.00020385-0.002585 0.00006782-0.0008845-0.000204-0.0017-0.00074823-0.002721-0.001428-0.0009525-0.0007485-0.0017-0.001497-0.00238-0.002177l-0.007142-0.007483c-0.0009525-0.00102-0.001429-0.001701-0.001497-0.002177-0.000136-0.000748 0.000205-0.001429 0.0009535-0.002041l0.00067953-0.00061171-0.00047608-0.00040826-0.007754 0.006599 0.00040826 0.00047608 0.00067952-0.00054389c0.00068-0.00061245 0.00136-0.00088454 0.001972-0.00081652 0.0006125 0.000068 0.001429 0.00068035 0.00245 0.001701l0.006394 0.006734c0.001973 0.002109 0.003469 0.003402 0.004557 0.003878 0.001428 0.00074848 0.002994 0.001021 0.004694 0.00081651 0.001632-0.000272 0.003469-0.001225 0.005442-0.002858 0.001837-0.001565 0.002924-0.003196 0.003333-0.004761 0.00047597-0.001564 0.00040837-0.002994-0.00013563-0.004218-0.000612-0.001292-0.0017-0.002789-0.003333-0.004489l-0.006666-0.007007c-0.0009525-0.000952-0.001429-0.001632-0.001497-0.002108-0.000136-0.0008845 0.00013651-0.001633 0.00081651-0.002177l0.0007487-0.00061171-0.00047607-0.00047607zm0.32856 0.015984c-0.001904 0-0.0034 0.00054435-0.004693 0.001701-0.00068 0.0007485-0.001224 0.001497-0.001496 0.002382-0.00027213 0.0008165-0.00034084 0.001836-0.00020481 0.002856 0.000136 0.001088 0.00054477 0.002721 0.001225 0.004898 0.00068036 0.002177 0.001089 0.003537 0.001157 0.004081 0.00006803 0.0008845 0.00006708 0.001566-0.00013699 0.002246-0.000204 0.000612-0.00054396 0.001156-0.00095215 0.001496-0.000748 0.00074834-0.001769 0.001156-0.002926 0.001088-0.001224-0.000068-0.002312-0.00054336-0.0034-0.001564-0.00095201-0.000884-0.001564-0.001905-0.001972-0.002993-0.0003401-0.001089-0.00040911-0.002177-0.00013699-0.003061 0.000204-0.0009525 0.00088398-0.002109 0.001836-0.003537l-0.00047608-0.00047607-0.005918 0.005646 0.00047607 0.00047607c0.0004765-0.00034016 0.00081707-0.00047607 0.001089-0.00047607 0.00027189 0 0.00047548 0.00006856 0.00067953 0.00027262 0.000204 0.000204 0.00061277 0.00081598 0.001225 0.001836 0.0005445 0.001088 0.00095154 0.001768 0.001156 0.00204 0.00034 0.000476 0.00081643 0.00095204 0.001293 0.001428 0.001632 0.001565 0.003401 0.002314 0.005374 0.002382s0.003605-0.00054416 0.004966-0.001769c0.00068-0.0006805 0.001225-0.001429 0.001497-0.002382 0.00034014-0.0008845 0.00040731-0.001836 0.00027127-0.002856-0.000136-0.0009523-0.00054391-0.002652-0.00136-0.005033-0.00088439-0.002857-0.001361-0.004898-0.001225-0.005987 0.000068-0.000748 0.00034169-0.00136 0.00088569-0.001904 0.0006805-0.00061242 0.001632-0.00095237 0.002721-0.00088434 0.001157 0 0.002177 0.00040809 0.003061 0.001293 0.000816 0.0007485 0.001359 0.001632 0.001699 0.002721 0.00034016 0.001088 0.00033996 0.002109 0.00006781 0.003129-0.000272 0.00102-0.00088379 0.002176-0.001904 0.0034l0.00047607 0.00040825 0.006055-0.005645-0.00054389-0.00047608c-0.0004765 0.00034015-0.00088371 0.00047608-0.001088 0.00047608-0.00027232 0-0.0005446-0.00013634-0.0007487-0.00034045-0.0002045-0.000204-0.00047655-0.00061208-0.00074869-0.001293-0.0005445-0.00136-0.00136-0.002517-0.002245-0.003402-0.001497-0.001361-0.003198-0.002109-0.005035-0.002177zm-0.3508 0.003266-0.006938 0.007414 0.00054389 0.00040826 0.00054389-0.00061171c0.000408-0.0004083 0.00081622-0.00068021 0.001428-0.00088433 0.000408-0.00013604 0.00074905-0.00013584 0.001089-0.00006781 0.000408 0.000136 0.00102 0.0006124 0.001972 0.00136l0.005374 0.004422-0.007483 0.008027v0.00000135l-0.005374-0.004354c-0.0008845-0.000748-0.001428-0.001293-0.001632-0.001633-0.00020411-0.00034-0.00027303-0.0006796-0.00013699-0.001088 0.0001365-0.000544 0.00040857-0.001021 0.0007487-0.00143l0.00061171-0.00061171-0.0005439-0.00040826-0.00687 0.007415 0.00047608 0.00040826 0.00061171-0.00061171c0.00034-0.0003405 0.0008164-0.00068028 0.00136-0.00088433 0.000408-0.00013604 0.00074898-0.00013719 0.001089-0.00006918 0.000408 0.000136 0.001088 0.00061241 0.001972 0.00136l0.01204 0.009932c0.001157 0.00088401 0.0017 0.001564 0.001836 0.001972 0.000136 0.00068-0.00013652 0.001429-0.00081652 0.002177l-0.00054389 0.00061171 0.00047607 0.00034044 0.006939-0.007415-0.00054525-0.00040825-0.00054389 0.0006117c-0.000408 0.00040831-0.00088422 0.00074825-0.001428 0.00088433-0.0004085 0.00013604-0.00074769 0.0001372-0.001088 0.00006918-0.00034-0.000136-0.001089-0.00054391-0.001973-0.00136l-0.005645-0.004626 0.007482-0.008095 0.005646 0.004694c0.001089 0.000884 0.0017 0.001564 0.001836 0.001972 0.000068 0.00068-0.00013651 0.001428-0.00081651 0.002108l-0.00054389 0.00061307 0.00047607 0.0004069 0.006939-0.007414-0.00054389-0.00040826-0.00054389 0.00061171c-0.000408 0.00040832-0.00088558 0.00068028-0.00143 0.00088433-0.000408 0.00013605-0.00074769 0.00013584-0.001088 0.00006782-0.000408-0.000136-0.00102-0.00061241-0.001972-0.00136l-0.012042-0.009931c-0.000884-0.00068-0.001496-0.001224-0.001632-0.001564-0.00020406-0.00034-0.00027167-0.00074905-0.00013564-0.001089 0.0000685-0.000544 0.00033919-0.00102 0.00074735-0.001428l0.000556-0.000615-0.000477-0.000408zm0.374 0.017687-0.021224 0.005714c-0.001837 0.00054398-0.003197 0.0007478-0.004081 0.0006117-0.000408-0.000068-0.00102-0.00033996-0.001769-0.00102l-0.00054389 0.0004069 0.004898 0.005646 0.00054389-0.00034045c-0.00068039-0.000952-0.00102-0.001632-0.00102-0.00204 0-0.0004085 0.00013482-0.00074788 0.00040689-0.00102 0.00034-0.0002725 0.001021-0.00054443 0.002041-0.00081651l0.004013-0.001089 0.006123 0.007007v0.00000135l-0.001769 0.003197c-0.000612 0.00102-0.001088 0.0017-0.001496 0.00204-0.00034 0.00020406-0.00068101 0.00027283-0.001089 0.00020481-0.000476-0.000068-0.001019-0.00047696-0.001699-0.001157l-0.00047607 0.00040826 0.006121 0.007075 0.00054389-0.00040826c-0.00061242-0.0007485-0.00088453-0.001496-0.00081651-0.002245 0-0.00068 0.00040827-0.00177 0.001225-0.003266l0.0104-0.018511-0.00034-0.000409zm-0.004899 0.002856-0.005033 0.008979-0.005374-0.006121 0.010407-0.002858zm0.02551 0.003741-0.00000136 0.00000135c4.6e-7 4.6e-7 8.9e-7 9e-7 0.00000136 0.00000135v-0.0000027zm0 0.0000027v0.00006511l-0.00006782 0.00013699-0.00013699 0.00020345-0.00013564 0.00027263-0.00020345 0.00040826-0.00027262 0.00040825-0.00034044 0.00054389-0.00033908 0.00054389-0.00040826 0.00067953-0.00047608 0.00068088-0.00054524 0.00074734-0.0005439 0.00088434-0.00061171 0.00081651-0.00067952 0.00095351-0.00068088 0.00095215-0.0007487 0.00102-0.00081652 0.001089-0.00088432 0.001088-0.00088434 0.001089-0.00095215 0.001157-0.001021 0.001156-0.00102 0.001225-0.001089 0.001225-0.001156 0.001293-0.001225 0.001225-0.001225 0.001291-0.001293 0.001293-0.00136 0.001293-0.00136 0.001293-0.001428 0.001293-0.001496 0.001225-0.001565 0.001293c-0.011904 0.009727-0.14809 0.093328-0.15475 0.098634-0.006734 0.005238-0.018979 0.01932-0.028978 0.060814-0.008095 0.033468-0.013333 0.02095-0.040066 0.01993-0.015646-0.000612-0.059045-0.012039-0.055712 0.021497 0 0 0.005374-0.007483 0.064623 0.00047608 0.023332 0.003197 0.042378-0.004422 0.047888-0.021973 0.00551-0.017822 0.013538-0.048092 0.025578-0.06401 0.005578-0.007347 0.11469-0.074418 0.14476-0.092308 0.010952-0.006462 0.046186-0.027754 0.021632-0.051902zm-0.41386 0.01095-0.003946 0.006053 0.00054253 0.00034044c0.00027205-0.00033988 0.00068102-0.00054369 0.001089-0.00061171 0.00054405-0.00006802 0.001088 3e-7 0.001564 0.00034044 0.001497 0.0008165 0.002722 0.002789 0.003742 0.005782-0.002857 0.0002041-0.005782 0.00027167-0.008911 0.00013563 0.00013604-0.002381 0.00006748-0.004149-0.00027262-0.005306-0.00034015-0.001225-0.001089-0.002109-0.002177-0.002721-0.001088-0.00061225-0.002176-0.00081619-0.0034-0.00047608-0.001224 0.0002725-0.002177 0.00102-0.002926 0.002177-0.00081627 0.001225-0.001156 0.002517-0.001088 0.003878 0.00013605 0.001769 0.001088 0.003197 0.002856 0.004149 0.0006122 0.0004085 0.001361 0.00068007 0.002177 0.00095215 0.00074831 0.00020389 0.001836 0.000409 0.003197 0.00061307-0.00020415 0.003061 0.00006827 0.005373 0.00081652 0.006938 0.00068025 0.001564 0.001632 0.002721 0.002856 0.00347 0.001292 0.00074824 0.002654 0.0008842 0.004218 0.00047608 0.001497-0.000408 0.002789-0.001429 0.00381-0.002993 0.0007485-0.001156 0.001156-0.002313 0.00136-0.00347 0.00020406-0.001225 0.00013553-0.002789-0.00027263-0.004625 0.001769-0.00034001 0.003129-0.00081641 0.004149-0.00136 0.0009525-0.000544 0.001702-0.001223 0.002246-0.00204 0.00068046-0.00102 0.00095255-0.002177 0.00081651-0.003402-0.000204-0.001157-0.0008846-0.002381-0.002109-0.003605l-0.00081652 0.00034044c0.00068039 0.000612 0.001021 0.001292 0.001089 0.001972 0.000068 0.00068001-0.00013712 0.00136-0.00054525 0.00204-0.000408 0.00068-0.001088 0.001225-0.001972 0.001701-0.0008845 0.0004085-0.002108 0.00074924-0.003809 0.001021-0.0006805-0.001972-0.001565-0.00381-0.002653-0.005646-0.00102-0.001837-0.001565-0.002993-0.001633-0.003605-0.0000685-0.0005445 0.00013552-0.001362 0.00061171-0.002246l-0.00061171-0.00027127zm-0.011266 0.005119c0.00057715 2e-8 0.001164 0.0001523 0.001674 0.00045843 0.00102 0.0006125 0.001633 0.001361 0.002041 0.00245l0.00006782 0.00020345 0.00006781 0.00020481v0.00020345l0.00006782 0.00020481 0.00006917 0.00027126v0.00020481l0.00006782 0.00020345v0.00027262 0.00027263l0.00006782 0.00020345v0.00027263l-0.00006782 0.00027126v0.00027263 0.00027126 0.00034044l-0.00006782 0.00027263c-0.001497-0.00027186-0.002653-0.00047679-0.003402-0.00068088-0.00074825-0.00020431-0.00136-0.00040739-0.001836-0.00067953-0.00061225-0.000408-0.001088-0.00095235-0.001428-0.001701-0.00034011-0.0008165-0.00020511-0.001701 0.00033909-0.002517 0.00040815-0.0006805 0.00102-0.001021 0.001769-0.001225 0.00018706-0.00003396 0.00037864-0.0000502 0.00057102-0.00005018zm0.014871 0.010186h0.00027262l-0.00000135 0.00000136c0.00020408 0.001497 0.00027302 0.002585 0.00013699 0.003265-0.000068 0.000748-0.00034058 0.00136-0.0007487 0.001972-0.000748 0.001156-0.001769 0.001836-0.002993 0.001972-0.001292 0.0002045-0.002449 3e-7 -0.003605-0.0006117-0.00102-0.00061251-0.001769-0.001429-0.002245-0.002517-0.00040809-0.001088-0.0006117-0.002449-0.0006117-0.004013 0.001701 0.00013605 0.003062 0.0002048 0.004286 0.0002048h0.00020345 0.00027263 0.00027127 0.00027262 0.00027262 0.00020345 0.00013564 0.00013699 0.00020345l0.00013563-0.00006781h0.00020481 0.00020345 0.00013699 0.00020345 0.00020481l0.00020345-0.00006917h0.00020345 0.00020481 0.00020345 0.00027262l0.00020345-0.00006782h0.00020481 0.00027127 0.0002048 0.00027263l0.00020345-0.00006782zm0.43523 0.009178c-0.00002591-0.00000729 0.00003377 0.00006273 0.00009495 0.00013292l0.00002984-0.00005833c-0.00006589-0.00004463-0.00010668-0.0000695-0.00012479-0.00007459zm0.00009495 0.00013292-0.00051405 0.001028-0.00061171 0.001089-0.00061171 0.001157-0.00061307 0.001223-0.00067952 0.001293-0.00034045 0.00061306-0.00040825 0.00067953-0.00040826 0.00068087-0.0004069 0.00067953-0.00047607 0.00068088-0.00047744 0.00067953-0.00047607 0.0007487-0.00054389 0.00067953-0.00061171 0.00074869-0.00054389 0.0007487-0.00067953 0.00067952-0.00068088 0.00081652-0.0007487 0.0007487-0.0007487 0.0007487-0.00081651 0.00074734-0.00081652 0.00081651-0.00095214 0.0007487-0.00095216 0.00081652-0.001021 0.00081651-0.00102 0.00081652-0.001157 0.0007487-0.001156 0.00081651c-0.024353 0.016326-0.11843 0.074691-0.14013 0.087683-0.012244 0.007279-0.02204 0.021019-0.025033 0.02721-0.003333 0.00687-0.008299 0.023944-0.010544 0.053262-0.00040816 0.005646-0.015237 0.014965-0.013401 0.019115 0.001768 0.004014 0.013062 0.002041 0.012653 0.00517-0.00040812 0.002721-0.003742 0.00687-0.003742 0.009523 0 0.003129 0.006666 0.00027159 0.005033 0.003673-0.002789 0.005578 0.001634 0.006803 0.003266 0.01102 0.0017 0.004149-0.00054435 0.008911 0.00095215 0.012448 0.002721 0.006122 0.01238 0.007278 0.027821 0.006938 0.01551-0.00027208 0.022516 0.010408 0.019115 0.019931-0.004421 0.012584-0.014761 0.01238-0.030815 0.023196-0.016122 0.010748-0.016802 0.024421-0.007415 0.036053 0.007143 0.008843 0.034013 0.013129 0.050883-0.004013 0.003469-0.003878-0.00762 0.00136-0.023741-0.007075 0 0-0.010476-0.00755-0.004898-0.017685 0.00551-0.010204 0.014489-0.014626 0.024421-0.020408 0.009863-0.00585 0.022856-0.009048 0.022244-0.021564-0.000612-0.012448-0.013604-0.014216-0.018842-0.014556-0.005306-0.00027208-0.013469 0.00020312-0.020748-0.00013699-0.01102-0.000544-0.014352-0.005782-0.015032-0.026801-0.00020405-0.006734-0.00966-0.003129-0.004422-0.01204 0.002789-0.004626-0.005238-0.002788-0.01068-0.005101-0.004626-0.002109 0.005373-0.011837 0.012312-0.021088 0.002177-0.002925-0.001224-0.006665 0-0.020474 0.001157-0.01204 0.006735-0.027754 0.022857-0.038774 0.007891-0.005374 0.04231-0.026802 0.05231-0.032516 0.014013-0.008095 0.081833-0.051971 0.093465-0.060746 0.020302-0.015337 0.001846-0.032843 0.00058187-0.034294zm-0.46695 0.004906-0.003946 0.009116 0.00068088 0.00027127 0.00027126-0.00074734c0.00020405-0.000476 0.00054516-0.00095248 0.001021-0.001293 0.0003401-0.00027209 0.00067987-0.00034045 0.00102-0.00034045 0.0004081 0 0.001224 0.00020338 0.00238 0.00067953l0.006531 0.002517-0.004286 0.009931v0.00000135l-0.006597-0.002585c-0.001088-0.0004085-0.001837-0.00074789-0.002109-0.00102-0.00027208-0.0002725-0.00047607-0.00061339-0.00047607-0.00095351-0.00006802-0.000544-6.6e-7 -0.001088 0.00020345-0.001564l0.00034044-0.0007487-0.00061171-0.00027263-0.004013 0.009116 0.00061171 0.00027263 0.00034044-0.0007487c0.00027205-0.000544 0.00061184-0.00095244 0.00102-0.001293 0.00034015-0.00027207 0.00067982-0.00040825 0.00102-0.00040825 0.0004081 0 0.001225 0.00027136 0.002382 0.00067953l0.014761 0.005714c0.00136 0.000544 0.002176 0.00095225 0.00238 0.00136 0.00040812 0.0006125 0.00040812 0.00136 0 0.002245l-0.00034044 0.0007487 0.00068088 0.00020481 0.003946-0.009116-0.00061306-0.00027127-0.00033909 0.00081652c-0.00020405 0.000476-0.0006132 0.00088326-0.001021 0.001223-0.00034015 0.00027207-0.00067983 0.00040825-0.00102 0.00040825-0.0004081 0-0.001224-0.00027134-0.002313-0.00067953l-0.007007-0.002653 0.004354-0.009932 0.006938 0.002653c0.00136 0.000544 0.002178 0.00102 0.002382 0.00136 0.00040812 0.0006125 0.00040812 0.00136 0 0.002245l-0.00034044 0.0007487 0.00061171 0.00027262 0.004013-0.009184-0.00061171-0.00020345-0.00040825 0.00074734c-0.0002041 0.000476-0.00054401 0.00088444-0.00095215 0.001293-0.0003401 0.00020406-0.00067986 0.00034044-0.00102 0.00034044-0.00040815 0-0.001225-0.00020336-0.002382-0.00067952l-0.014761-0.005646c-0.001088-0.0004765-0.001837-0.0008159-0.002109-0.00102-0.0003401-0.000272-0.00047607-0.00061314-0.00047607-0.001021-0.00013604-0.000544 7.4e-7 -0.001088 0.0002048-0.001564l0.000345-0.00075-0.000681-0.00027zm-0.010952 0.026257-0.005577 0.018229 0.005442 0.001769 0.00020481-0.00061306c-0.00102-0.000408-0.001838-0.00081622-0.002314-0.001428-0.00054422-0.000612-0.00074713-0.001156-0.00081515-0.001836-0.00006802-0.0004765 0.00013617-0.001224 0.00040825-0.002245l0.00088434-0.002721 0.018026 0.004966c0.001292 0.0003405 0.002108 0.00074904 0.002448 0.001089 0.0004762 0.0005445 0.00054476 0.001292 0.00027262 0.002245l-0.00027262 0.0007487 0.00068088 0.00020345 0.002926-0.009455-0.00068088-0.00020345-0.00020345 0.00074734c-0.00027205 0.000884-0.00074952 0.001497-0.001362 0.001769-0.0004762 0.00020412-0.001428 0.00006889-0.002856-0.00027127l-0.018026-0.004966 0.00095215-0.003129c0.00027205-0.000884 0.00067946-0.001633 0.001156-0.002109 0.0004762-0.00047636 0.001157-0.00074809 0.001906-0.00095215 0.00047615-0.00006805 0.001224-0.00006826 0.002245 0.00006781l0.00020345-0.0006117-0.005646-0.001293zm0.011701 0.022652-0.00027262 0.00047471c0.001428 0.00088451 0.002381 0.001702 0.002926 0.002382 0.00061218 0.0007485 0.00095194 0.001428 0.00102 0.002177 0.00013604 0.0008165-3.4e-7 0.002041-0.00034044 0.00381l-0.00040825 0.001632c-0.0002721 0.001497-0.00054349 0.002313-0.00067953 0.002585-0.00020406 0.00027191-0.00047683 0.00047587-0.00068088 0.00054389-0.0004761 0.00006802-0.001157 0.00006843-0.002109-0.00013564l-0.015237-0.002858c-0.00136-0.0002725-0.002245-0.00054444-0.002585-0.00081652-0.00034014-0.000272-0.00061126-0.0006116-0.00074734-0.001156-0.00013604-0.0005445-0.00006846-0.001361 0.00013563-0.002585l-0.0006117-0.00013563-0.002177 0.010272 0.00061171 0.00013563 0.00020481-0.00088433c0.00020405-0.000816 0.00061118-0.001429 0.001223-0.001769 0.00040815-0.00027208 0.001361-0.00020426 0.002858 0.00006782l0.015645 0.002993c0.001361 0.0002045 0.002245 0.00054444 0.002517 0.00081651 0.0006122 0.0005445 0.00074781 0.001292 0.00061171 0.002245l-0.00020345 0.00081652 0.00067952 0.00013563 0.003741-0.01755-0.006121-0.003197zm0.44848 0.014966-0.00006646 0.00006781-0.00006782 0.00006782-0.00006782 0.00006782-0.00013699 0.00006781-0.00013563 0.00013564-0.00013564 0.00013699-0.0002048 0.00013563-0.00040826 0.00034045-0.00047608 0.00047607-0.00061171 0.00047607-0.00061171 0.0005439-0.00074869 0.00061171-0.0007487 0.0006117-0.00088433 0.0007487-0.00088433 0.0007487-0.00095215 0.0007487-0.001021 0.00081651-0.00102 0.00088434-0.001089 0.00088433-0.001156 0.00088433-0.001157 0.00095351-0.001225 0.00095214-0.001156 0.00095216-0.002517 0.001904-0.002585 0.001904-0.002517 0.001904-0.002585 0.001769-0.001223 0.00088433-0.001293 0.00081651-0.001225 0.00081652-0.001157 0.00081652c-0.013401 0.008367-0.073534 0.040339-0.086867 0.051359-0.013401 0.01102-0.012857 0.020406-0.012857 0.020406l-0.002176 0.027279s-0.008367 0.008435-0.009455 0.011564 0.005577 0.003673 0.010543 0.006258c0.005034 0.002653-0.00095187 0.005033 0.001089 0.007414 0.003946 0.004421 0.007005 0.00081679 0.004352 0.008367-0.00040817 0.001156 0.003334 0.004694 0.002926 0.006666-0.0006805 0.003129-0.002381 0.005238 0.0005439 0.008027 0.003333 0.003129 0.014081 0.008436 0.038706 0.003402 0.026733-0.00551 0.044283 0.015305 0.057616 0.018842 0.004557 0.001157 0.01966 0.005918 0.043468-0.012584 0.010272-0.007959-0.006327-0.00074967-0.030135-0.010749-0.025373-0.010612-0.032991-0.011292-0.050065-0.008095-0.014625 0.002721-0.025441 0.005103-0.031155 0.003402-0.004898-0.001497-0.00081648-0.008776-0.004489-0.01-0.007347-0.002449-0.002313-0.005985-0.006666-0.008366-0.004422-0.002449-0.001836-0.003402-0.001972-0.008299-0.00006802-0.003401-0.00381-0.002449-0.009184-0.005442-0.00415-0.002381 0.005714-0.006734 0.007142-0.010204 0.001632-0.004286-0.00040859-0.010272 0.00067953-0.019047 0.001972-0.015442 0.025033-0.026257 0.037278-0.033059 0.013401-0.007278 0.05163-0.03061 0.060677-0.036664 0.021155-0.014149 0.010068-0.033605 0.010068-0.033605zm-0.44712 0.006938c-0.00013605 0.000952-0.00047712 0.001633-0.001021 0.002109-0.00054421 0.000476-0.0017 0.00102-0.0034 0.001496l-0.021224 0.006326v0.0005439l0.01932 0.009932c0.001701 0.0008845 0.002856 0.001633 0.003333 0.002245 0.00027212 0.00034 0.00047587 0.0009518 0.00054389 0.001904l0.00068088 0.00006782 0.00074735-0.007278-0.00067953-0.00006782c-0.00020405 0.001089-0.00047662 0.001837-0.0007487 0.002109-0.0003401 0.0003401-0.00067962 0.00047493-0.001088 0.0004069-0.0004081 0-0.001089-0.00027114-0.002041-0.00074734l-0.003673-0.001906 0.00088433-0.008978 0.003605-0.001089c0.001224-0.00034016 0.002041-0.00047607 0.002585-0.00047607 0.00040815 0.000068 0.00074809 0.00027291 0.00095214 0.00061307 0.00027208 0.00034 0.00034045 0.0009518 0.00034045 0.001904l0.00067952 0.00006781 0.00088433-0.009116-0.00067952-0.00006782zm-0.009795 0.008571-0.0007487 0.007959-0.009523-0.004966 0.010272-0.002993zm0.001972 0.017345v0.00074871c0.001497 0.0007485 0.002653 0.001429 0.003402 0.002109 0.0006122 0.000544 0.00095154 0.001157 0.001156 0.001701 0.00020406 0.000612 0.00027242 0.001564 0.00034044 0.002856l0.00006781 0.003878c0 0.0006805-0.00006741 0.001089-0.00020345 0.001293-0.00013606 0.00027188-0.00033957 0.00040785-0.00061171 0.00054388-0.0002041 0.00006802-0.00088507 0.00013564-0.001973 0.00013564l-0.008095 0.00006917v-0.005103c-0.00006803-0.0009525 0.00006856-0.001701 0.00027262-0.002177 0.0002721-0.00047632 0.00054383-0.0007481 0.00102-0.00095215 0.00034015-0.00020387 0.001088-0.00040785 0.002245-0.00054389v-0.00061171l-0.008503 0.00006781v0.00067953c0.001428 0 0.00238 0.00034169 0.002924 0.00088569 0.00040817 0.000476 0.00061287 0.00136 0.00068088 0.002653v0.005101l-0.00966 0.00013564-0.00006781-0.006326c-0.00006802-0.001224 7.4e-7 -0.001972 0.0002048-0.002448 0.0002721-0.0006125 0.0006116-0.001021 0.001088-0.001293 0.00047617-0.0002725 0.00136-0.0006124 0.002721-0.00081652l-0.00006782-0.00068088-0.005374 0.00027262 0.00020345 0.017889h0.00068088v-0.00081652c0-0.000952 0.00020339-0.001632 0.00067953-0.00204 0.00034013-0.0002721 0.001293-0.00047608 0.002858-0.00047608l0.016054-0.0002048c0.001156 0 0.001972 0.00006876 0.002313 0.0002048 0.0004081 0.000136 0.00074809 0.00033923 0.00095214 0.00074734 0.00027208 0.000476 0.00040826 0.0009534 0.00040826 0.001497v0.00081652h0.00068088l-0.0002048-0.01789-0.00619-0.001906zm0.006395 0.021497-0.00068088 0.00006782 0.00013564 0.0007487c0.00006802 0.000544 8.5e-7 0.001089-0.00027127 0.001633-0.000136 0.00034032-0.00034076 0.00061266-0.00068088 0.0007487-0.0003401 0.00020389-0.001156 0.00040783-0.00238 0.00054389l-0.01585 0.001699c-0.001224 0.00013604-0.001972 0.00013719-0.00238 0.00006918-0.00040817-0.000068-0.00074809-0.00027294-0.00095215-0.00061307-0.00034013-0.000476-0.00054369-0.00095204-0.00061171-0.001496l-0.00013699-0.00081651-0.00067953 0.00006781 0.001225 0.009863 0.00074734-0.00013563-0.00013564-0.00074735c-0.00006802-0.000612-6e-7 -0.001089 0.00020346-0.001633 0.00020411-0.00034035 0.00040876-0.00068047 0.00068088-0.00081651 0.00040812-0.00013604 0.001224-0.00034027 0.002448-0.00047608l0.007007-0.00074869 0.00136 0.010611-0.007075 0.00081652c-0.001156 0.00013604-0.001972 0.0001372-0.00238 0.00006917-0.00040813-0.00013586-0.00068006-0.00034099-0.00095215-0.00061307-0.0003401-0.000476-0.00054504-0.00095204-0.00061306-0.001496l-0.00006782-0.00081651-0.00067952 0.00006781 0.001223 0.009795 0.00068089-0.00006782-0.00013564-0.00081651c-0.00006801-0.000544-8.1e-7 -0.001089 0.00027127-0.001633 0.00013604-0.00034033 0.0004088-0.0006113 0.00068088-0.00074734 0.00034016-0.00020406 0.001156-0.00034001 0.00238-0.00047608l0.01585-0.001769c0.001428-0.00013604 0.002448-0.00013645 0.002789 0.00013563 0.0006802 0.00034 0.001021 0.00102 0.001157 0.001904l0.00013563 0.00088433 0.00067953-0.00013563-0.001223-0.009795-0.00068088 0.00006782 0.00006781 0.00081651c0.00006802 0.000544 6.2e-7 0.001089-0.00020345 0.001633-0.00020405 0.00034039-0.0004088 0.00061267-0.00068088 0.0007487-0.00040815 0.00020409-0.001224 0.00034004-0.00238 0.00047607l-0.007483 0.00081652-0.00136-0.010612 0.007483-0.00081653c0.001429-0.00020406 0.00238-0.00013623 0.002789 0.00006782 0.00061215 0.000408 0.001021 0.00102 0.001157 0.001972l0.00006782 0.00081652 0.00067952-0.00006782-0.001223-0.009795zm-0.012994 0.039931-0.005169 0.001565 0.004693 0.016665 0.00061307-0.00020481-0.00020481-0.00074734c-0.00013604-0.000544-0.00013604-0.001089 0-0.001633 0.00013604-0.00040832 0.00027317-0.00068023 0.00054525-0.00088433 0.00034015-0.0002045 0.001156-0.00047659 0.002313-0.0007487l0.01544-0.003878c0.001429-0.00034011 0.002314-0.00040731 0.00279-0.00027127 0.00068025 0.00027201 0.001156 0.00088398 0.001428 0.001836l0.00020345 0.00074734 0.00068088-0.00013564-0.002721-0.009591-0.00061306 0.00013563 0.00020481 0.00081651c0.00013604 0.000544 0.00013604 0.001089 0 0.001633-0.00013603 0.00040832-0.00027181 0.00068027-0.0005439 0.00088433-0.0003401 0.0002045-0.001158 0.00047662-0.002314 0.0007487l-0.007549 0.001904-0.001157-0.004081c-0.00020407-0.000748-0.00020386-0.001361-0.00006782-0.001769 0.000068-0.0004765 0.00033942-0.00081685 0.00067953-0.001157 0.00040815-0.0003403 0.001021-0.00061239 0.001973-0.00081651l-0.00020481-0.00061171-0.008027 0.001972 0.00013699 0.00068087c0.001361-0.00020405 0.002312-0.00013644 0.002856 0.00013564 0.0005442 0.00034 0.0009527 0.0009518 0.001225 0.001904l0.001156 0.004081-0.009319 0.002314-0.001428-0.004898c-0.00027214-0.001157-0.00040846-0.002109-0.00034044-0.002721 0.000068-0.000612 0.00034079-0.001157 0.00068088-0.001633 0.00047616-0.000544 0.001157-0.001089 0.002177-0.001633l-0.00013699-0.00061171zm0.017432 0.017796c-0.00165-0.0000085-0.00335 0.00029785-0.005119 0.0009101-0.003401 0.001225-0.00585 0.003264-0.007278 0.006053l-0.00013563 0.00027263-0.00013699 0.00027262-0.00013563 0.00027127-0.00013564 0.00027262-0.00006917 0.00027263-0.00006782 0.00027126-0.00013563 0.00027263-0.00006782 0.00027126-0.00006782 0.00027263-0.00006781 0.00027262-0.00006918 0.00027127-0.00006781 0.00027262v0.00027127l-0.00006782 0.00027263v0.00027262 0.00020345 0.00027262l-0.00006782 0.00027127 0.00006782 0.00027262v0.00027263 0.00027127 0.00027262l0.00006782 0.00027127v0.00027262l0.00006781 0.00027263 0.00006918 0.00027126 0.00006781 0.00020481 0.00006782 0.00027127 0.00006782 0.00027262 0.00006781 0.00027262 0.00013564 0.00027127 0.00006917 0.00027263c0.001156 0.002857 0.003061 0.004898 0.005918 0.006258 0.003265 0.001497 0.006666 0.001633 0.010339 0.00034044 0.003605-0.001225 0.006122-0.003334 0.007619-0.006123 0.001429-0.002789 0.001565-0.005715 0.00040826-0.008708-0.001156-0.002925-0.003334-0.005033-0.006531-0.006326-0.001565-0.00064626-0.003163-0.00096941-0.004812-0.00097792zm0.002797 0.00322c0.001027-0.00000639 0.001948 0.00013047 0.002764 0.00041097 0.002245 0.0007485 0.003741 0.002109 0.004557 0.004149 0.00074825 0.001905 0.00054451 0.003673-0.00054389 0.005374-0.001429 0.002245-0.004013 0.004013-0.007754 0.005306-0.003673 0.001293-0.006803 0.001565-0.009252 0.00081652l-0.00020345-0.00006782-0.00020481-0.00006782-0.00013564-0.00006781-0.0002048-0.00006782-0.00013564-0.00006918-0.00020345-0.00013563-0.00013699-0.00006782-0.00020345-0.00006781-0.00013563-0.00013699-0.00013699-0.00006782-0.00013564-0.00006782-0.0002048-0.00013563-0.00013564-0.00013564-0.00013563-0.00006917-0.00013563-0.00013563-0.00013699-0.00013563-0.00006782-0.00006782-0.00013563-0.00013699-0.00013699-0.00013563-0.00013564-0.00013564-0.00006782-0.00013699-0.00013563-0.00013564-0.00013699-0.00013563-0.00006782-0.00013698-0.00013563-0.00020346-0.00006782-0.00013563-0.00006781-0.00013699-0.00013699-0.00020345-0.00006782-0.00013563-0.00006782-0.00020481-0.00006781-0.00013564-0.00006782-0.00020481c-0.00081626-0.002041-0.00068014-0.003945 0.00040826-0.005645 0.001292-0.002177 0.004012-0.003946 0.007958-0.005306 0.002296-0.00080789 0.0043-0.001217 0.006011-0.001227zm0.11378 0.013676c-0.014102 0.00016076-0.024189 0.006453-0.022106 0.01891l0.00013563-0.00006782 0.00013563-0.00006782 0.00013699-0.00013563 0.00027127-0.00013699 0.00027262-0.00020345 0.00040826-0.00020481 0.00040826-0.00013563 0.00047608-0.00020345 0.00054388-0.00027263 0.00061171-0.00020345 0.00067953-0.00020481 0.00068088-0.00013563 0.00081652-0.0002048 0.00088433-0.00013564 0.00088433-0.00013563 0.00102-0.000137 0.001089-0.00006781 0.001157-0.00006782h0.001156l0.001293 0.00006782 0.00136 0.00006781 0.00143 0.000137 0.00074734 0.00013563 0.00081652 0.00013564 0.00074869 0.00006781 0.00081652 0.00020481 0.00081652 0.00013563 0.00081651 0.00013699 0.00088434 0.00020345 0.00088432 0.00027263 0.00088569 0.00020345 0.00095216 0.00027262 0.00088432 0.00027127 0.00102 0.00027262 0.0009535 0.00034044 0.00102 0.00033908 0.00102 0.00034045 0.001021 0.00040826 0.001088 0.00034043 0.001089 0.00047608c0.023332 0.009455 0.084962 0.037276 0.10129 0.049249 0.01 0.007347 0.03789 0.019932 0.030067 0.033605-0.007823 0.013605-0.045644 0.01993-0.037889 0.049249 0.007823 0.029386 0.049044 0.016803 0.054622 0.009456 0.00551-0.007347-0.018366 0.004285-0.026733-0.016734-0.006666-0.016802 0.004966-0.027958 0.021156-0.038841 0.007755-0.005238 0.018298-0.009456 0.016665-0.02306-0.001092-0.009455-0.017758-0.016802-0.034492-0.02619-0.016734-0.009455-0.081289-0.039862-0.10693-0.051426-0.009591-0.004311-0.019498-0.006422-0.02796-0.006326zm-0.094211 0.015374-0.00061306 0.00033908 0.00047743 0.00074871c0.00040812 0.000748 0.00054318 0.001496 0.00033908 0.002108-0.00020405 0.000408-0.0009521 0.00095253-0.002313 0.001633l-0.016462 0.008503-0.001701-0.002856c-0.00047618-0.0008845-0.00067952-0.001634-0.00067952-0.002314-0.000068-0.000612 0.00013551-0.001292 0.00061171-0.001904 0.0002721-0.000408 0.00081673-0.00088422 0.001633-0.001428l-0.00027263-0.00061171-0.004966 0.002856v0.00000136l0.009592 0.016665 0.005237-0.00238-0.00033908-0.00061307c-0.00102 0.00047599-0.001905 0.00061193-0.002721 0.0005439-0.00081626-0.0000685-0.001429-0.0002712-0.001973-0.00074734-0.0003401-0.00027201-0.0008162-0.00095316-0.00136-0.001906l-0.001428-0.002448 0.01653-0.008435c0.001225-0.00061237 0.002041-0.00088434 0.002517-0.00088434 0.000748 0.000068 0.00136 0.00054373 0.001904 0.001428l0.00040826 0.0007487 0.00061171-0.00034045-0.005033-0.008706zm0.010612 0.016937-0.017143 0.011088c-0.001156 0.0007484-0.001904 0.001088-0.00238 0.001088-0.00081625 0-0.001429-0.00040692-0.002041-0.001223l-0.00047607-0.00068088-0.00061171 0.00034045 0.004898 0.006734 0.00054389-0.00040826-0.00047608-0.00061171c-0.00054413-0.000748-0.00074779-0.001429-0.00061171-0.002041 0.000136-0.000476 0.00088354-0.001156 0.00204-0.001972l0.0117-0.007483-0.006666 0.021427 0.00381 0.00517 0.00054389-0.00034044c-0.00040834-0.000544-0.00068048-0.00102-0.00081651-0.001293-0.00013605-0.00068-0.00027127-0.001225-0.00027127-0.001701 0-0.0004085 0.00013617-0.001157 0.00040825-0.002109l0.014148-0.009182c0.001088-0.00068033 0.001974-0.001089 0.002382-0.001089 0.000816 0 0.001496 0.00040827 0.00204 0.001225l0.0005439 0.00068088 0.00054389-0.00034043-0.004896-0.006734-0.00054525 0.00040825 0.00047743 0.00067953c0.000544 0.000748 0.00074796 0.001429 0.0005439 0.002041-0.000068 0.000476-0.00074879 0.001088-0.002041 0.001904l-0.012448 0.008095 0.007142-0.023128-0.00033908-0.00054389zm0.014693 0.020136-0.006055 0.002245 0.00047608 0.00054388c0.001632-0.00040818 0.002994-0.00054429 0.004083-0.00040825 0.000816 0 0.001496 0.00027181 0.00204 0.00054389 0.000544 0.00034 0.001292 0.001021 0.002177 0.002041l0.002721 0.002924c0.00040791 0.0004765 0.00067952 0.00088487 0.00067952 0.001157 0.00006801 0.00020381 0.00006822 0.00047546-0.00006781 0.00067953-0.000136 0.000204-0.00061173 0.00068059-0.001428 0.001293l-0.006123 0.004966-0.003537-0.003876c-0.0006805-0.000748-0.001087-0.00136-0.001223-0.001836-0.00013603-0.00047599-0.00013624-0.00095359 0.00006782-0.001362 0.000136-0.00034 0.00061173-0.0009508 0.001428-0.001767l-0.00047608-0.00047608-0.006463 0.005169 0.00047607 0.00047607c0.001089-0.00074837 0.002041-0.001088 0.002858-0.00102 0.0006125 0.000068 0.00136 0.00068034 0.002313 0.001701l0.003537 0.003876-0.007414 0.005919-0.004354-0.00483c-0.0008165-0.000884-0.001292-0.001565-0.001496-0.002041-0.00020407-0.000544-0.00020386-0.001155-0.00006782-0.001632 0.000204-0.0005445 0.00067954-0.001292 0.001496-0.002245l-0.00040826-0.00054389-0.004013 0.003536 0.012381 0.013605 0.00047607-0.00040825-0.00054389-0.00067953c-0.00068042-0.00068-0.00095235-0.001361-0.00088433-0.001973 0.000136-0.000408 0.0007478-0.001155 0.001904-0.00204l0.012176-0.009863c0.000952-0.0006805 0.001565-0.001157 0.001973-0.001293 0.00034-0.00013605 0.00074743-0.00013605 0.001156 0 0.000544 0.000204 0.00102 0.00054398 0.00136 0.00095215l0.00061171 0.00061171 0.00047743-0.00040826-0.012313-0.013536zm0.013264 0.014897-0.00047608 0.00040826 0.00061171 0.0005439c0.00074842 0.00061199 0.001089 0.001224 0.001021 0.001904 0 0.0004765-0.0004769 0.001225-0.001497 0.002314l-0.010951 0.011156c-0.000884 0.0009525-0.001633 0.001428-0.002041 0.001564-0.0007485 0.000136-0.001565-0.00013651-0.002313-0.00081651l-0.00061171-0.00054389-0.00047607 0.00047607 0.005101 0.004489 0.019523-0.007686-0.006531 0.018911 0.00517 0.004489 0.00040826-0.00047607c-0.00068-0.000612-0.001156-0.001157-0.00136-0.001633-0.00013604-0.000476-0.00020388-0.00088466-0.00006781-0.001225 0.000136-0.000476 0.00061123-0.001088 0.001291-0.001836l0.010952-0.011156c0.00095251-0.0009525 0.001633-0.001496 0.002109-0.001564 0.0006805-0.0002045 0.001496 0.00006735 0.002245 0.00074735l0.0006117 0.00054389 0.00047607-0.00040826-0.006326-0.005509-0.00040826 0.00047608 0.00061306 0.00054389c0.0006804 0.000612 0.00102 0.001224 0.00102 0.001904 0 0.0004085-0.00054472 0.001156-0.001565 0.002245l-0.011156 0.011361 0.007142-0.020338-0.00040825-0.00040826-0.021087 0.008299 0.011229-0.01139c0.000884-0.0009525 0.001565-0.001496 0.002041-0.001564 0.0007485-0.0002045 0.001496 0.00006734 0.002313 0.00074734l0.00061171 0.00054389 0.00047607-0.00047607-0.007686-0.006666zm0.028842 0.02374-0.00040826 0.00054389 0.0007487 0.00047608c0.0007485 0.000544 0.001157 0.001089 0.001293 0.001769 0 0.0004765-0.00040809 0.001292-0.001293 0.00238l-0.01102 0.014353-0.002858-0.001904c-0.000816-0.000544-0.001359-0.001157-0.001699-0.001769-0.00027211-0.000544-0.00034066-0.001224-0.00027262-0.001972 0.000068-0.000476 0.00034037-0.001088 0.00081651-0.001972l-0.00054389-0.00040826-0.003129 0.004625 0.016257 0.011088 0.003605-0.004286-0.00054389-0.00034044c-0.0007485 0.000816-0.001428 0.001293-0.002177 0.001565-0.000748 0.00027211-0.001496 0.00027171-0.002108 0.00013563-0.00047651-0.000136-0.001157-0.00054496-0.002109-0.001157l-0.002382-0.001699 0.01102-0.014285c0.000816-0.001088 0.001428-0.001632 0.001836-0.001836 0.0007485-0.0002045 0.001496-0.0000681 0.00238 0.0005439l0.00068088 0.00047607 0.00040826-0.00054389-0.008503-0.005782zm0.011496 0.008095-0.00034044 0.00054389c0.001088 0.0007485 0.001904 0.001496 0.002313 0.00238 0.00047632 0.0008165 0.00074945 0.002178 0.00095351 0.004015l0.00081652 0.00823c-0.002041-0.0006122-0.003742-0.00068075-0.00517-0.00027263-0.001428 0.0004085-0.002516 0.001225-0.003265 0.00245-0.0007485 0.001156-0.001021 0.002313-0.0007487 0.003605 0.000204 0.001224 0.00074853 0.002312 0.001633 0.003197 0.000884 0.000884 0.002448 0.001972 0.004693 0.003197l0.007686 0.004354 0.00034044-0.00061171-0.0007487-0.00040825c-0.0008845-0.000408-0.001292-0.001021-0.001428-0.001633-0.00006801-0.000476 0.00020347-0.001361 0.00102-0.002585l0.008096-0.012924c0.000748-0.001156 0.001291-0.001768 0.001699-0.001972 0.0007485-0.00033994 0.001565-0.00027274 0.002382 0.00020345l0.00081652 0.00047743 0.00034044-0.00054525-0.009048-0.005033-0.00034044 0.00054389 0.00081652 0.00047608c0.0008165 0.000408 0.001224 0.00095321 0.00136 0.001565 0.000136 0.000476-0.00027146 0.001361-0.00102 0.002585l-0.003673 0.00585c-0.00013603-0.00006805-0.00027222-0.00020461-0.00040825-0.00027263-0.00020407-0.00006802-0.00034004-0.00013522-0.00047608-0.00027127-0.000272-0.000136-0.00074861-0.0004088-0.001225-0.00068087l-0.00136-0.013333-0.005714-0.003129zm0.022108 0.012245-0.00027263 0.00061306c0.00088401 0.000408 0.001497 0.00095118 0.001769 0.001632 0.00034009 0.000612 0.00047607 0.001769 0.00047607 0.00347l-0.00061171 0.020951 0.00054389 0.00020345 0.016258-0.014012c0.001428-0.001293 0.002584-0.002042 0.003333-0.002314 0.000408-0.00013603 0.001089-0.00006727 0.002109 0.00020481l0.00027127-0.00061171-0.007075-0.002993-0.00027127 0.00054389c0.001088 0.000544 0.0017 0.00102 0.001904 0.00136 0.00020405 0.0004085 0.00020385 0.00074904 0.00006781 0.001089-0.000204 0.000408-0.00068022 0.00095168-0.001428 0.001632l-0.003061 0.002585-0.008774-0.003673 0.00006781-0.003537c0.00006802-0.001224 0.00013635-0.00204 0.00034044-0.002448 0.00020401-0.0003399 0.00047596-0.00061286 0.00095215-0.00068088 0.000408-0.00013608 0.001088 3.4e-7 0.001972 0.00034043l0.00027263-0.00054389-0.008843-0.00381zm-0.018419 0.004549c0.001221 0.00005102 0.002586 0.00048435 0.004065 0.001301 0.00013609 0.00006801 0.00020419 0.00013653 0.00040826 0.00027262h0.00006917l0.00006782 0.00006781 0.00006782 0.00006782h0.00006781l0.00006782 0.00006782h0.00006782v0.00006782h0.00006781l-0.005238 0.008232c-0.001088-0.00034-0.001972-0.00068123-0.002584-0.001021-0.001361-0.0007485-0.002177-0.0017-0.002517-0.002924-0.00034-0.001293-0.00006762-0.002518 0.00068088-0.003742 0.00081651-0.001293 0.001973-0.00204 0.003537-0.002313 0.00037408-0.000068 0.0007648-0.00009297 0.001172-0.00007596zm0.048758 0.007423-0.00020482 0.00061171 0.00088434 0.00027263c0.000816 0.000272 0.001429 0.00074841 0.001701 0.00136 0.00013585 0.000408 7e-8 0.001292-0.00047608 0.002721l-0.00238 0.006394h-0.00000136c-0.00068-0.0004085-0.001292-0.000749-0.001904-0.001089-0.00068-0.00020384-0.001224-0.00047545-0.001836-0.00067953-0.002245-0.00074802-0.004217-0.00074781-0.00585-0.00006781-0.001633 0.0007485-0.002858 0.00204-0.00347 0.003809-0.00047618 0.00136-0.00047597 0.002585-0.00006782 0.00381 0.0004765 0.001225 0.001292 0.002245 0.002313 0.003061 0.001021 0.0007485 0.002586 0.001496 0.004694 0.002177l0.008503 0.002789 0.00020345-0.00061171-0.00088433-0.00027262c-0.000884-0.000272-0.001429-0.00074841-0.001701-0.00136-0.00020382-0.0004085-0.00006793-0.00136 0.00047607-0.002653l0.00517-0.014285c0.000476-0.001224 0.00088466-0.001973 0.001225-0.002245 0.0006125-0.00040816 0.001428-0.00047688 0.00238-0.0002048l0.00088434 0.00027262 0.00027262-0.00054389-0.009931-0.003265zm-0.02517 0.00006782 0.007756 0.003265-0.008027 0.006939 0.00027127-0.010204zm0.038774 0.004083-0.003537 0.005169 0.00081652 0.0002048c0.001088-0.001224 0.002109-0.002041 0.002993-0.002585 0.00068-0.00040836 0.00136-0.00061286 0.00204-0.00068088 0.000612 0 0.001633 0.00013618 0.002993 0.00040825l0.004013 0.00095351c0.0006805 0.00013611 0.001088 0.00027202 0.001293 0.00047608 0.00020406 0.00020385 0.00034044 0.00040765 0.00034044 0.00061171 0.00006802 0.000272-0.00006856 0.00081579-0.00027262 0.001904l-0.001904 0.007346-0.005306-0.001156c-0.000952-0.0002045-0.0017-0.00047641-0.002108-0.00081651-0.00040839-0.00034-0.00068048-0.00074882-0.00081652-0.001157-0.00006802-0.0003405-0.00006822-0.001088 0.00006782-0.002245l-0.00068089-0.00013563-0.001972 0.007822 0.00061171 0.00013563c0.000408-0.001224 0.001021-0.00204 0.001701-0.002448 0.000612-0.00027208 0.001565-0.00020428 0.002926 0.00006782l0.005237 0.001225-0.002245 0.008911-0.006599-0.001496c-0.001157-0.00034036-0.001972-0.00061245-0.00238-0.00081652-0.0005445-0.000408-0.00095304-0.00088426-0.001089-0.00136-0.00020407-0.000476-0.00027148-0.00136-0.00020346-0.002653l-0.0007487-0.00013564-0.00095214 0.005033 0.018434 0.004149 0.000137-0.0006117-0.00081653-0.00020346c-0.000952-0.000204-0.001632-0.00061299-0.001904-0.001089-0.00020412-0.000408-0.00020473-0.00136 0.00020345-0.002789l0.003742-0.014693c0.00027184-0.00102 0.00054327-0.001769 0.00074734-0.002041 0.000204-0.00040794 0.00054403-0.00054368 0.00095214-0.00061171 0.000612-0.00020406 0.001157-0.00020386 0.001701-0.00006782l0.00088434 0.00020481 0.00013563-0.00061307-0.018434-0.004217zm0.030984 0.006102c-0.003166 0.00009897-0.005731 0.00095361-0.00772 0.002535-0.002313 0.001905-0.003741 0.004422-0.004149 0.007619-0.00034 0.002449-1.7e-7 0.004558 0.00088434 0.006531 0.0009525 0.001972 0.002313 0.003469 0.004081 0.004489 0.001769 0.0009525 0.00449 0.001701 0.008164 0.002177l0.009931 0.001157 0.00006782-0.00068088-0.00088434-0.00006781c-0.000884-0.000136-0.001564-0.00040797-0.001972-0.00102-0.00027208-0.00034-0.00034108-0.001292-0.00013699-0.002721l0.001973-0.014898c0.000204-0.001292 0.00047526-0.002108 0.00074734-0.002448 0.0004765-0.00054395 0.001292-0.00081692 0.002313-0.00068089l0.00088569 0.000137 0.00006782-0.00068088-0.010885-0.001293c-0.00119-0.000136-0.002312-0.00018761-0.003368-0.00015461zm-0.049363 0.00056423c0.00043724 0.00000558 0.0008711 0.00007456 0.001305 0.00020209 0.00034 0.00013609 0.00074878 0.00027338 0.001157 0.00047743l0.00006781 0.00006782h0.00013564l0.00006781 0.00006782 0.00006782 0.00006782h0.00006782l0.00013699 0.00006781 0.00006782 0.00006782h0.00006781l0.00013564 0.00006917 0.00006917 0.00006782h0.00013563l0.00006782 0.00006782 0.00013564 0.00006781 0.00006781 0.00006782h0.00013699l0.00006782 0.00006781-0.003333 0.009184c-0.00102-0.00013606-0.001769-0.000272-0.002313-0.00047607-0.0009525-0.000272-0.00177-0.00074822-0.002314-0.001428-0.00061236-0.0006125-0.00095175-0.001429-0.001088-0.002382-0.00013604-0.0009525-0.00000102-0.001904 0.00033909-0.002856 0.0005445-0.00136 0.001361-0.002314 0.002517-0.002926 0.000765-0.00038264 0.001504-0.00055184 0.002233-0.00054254zm0.051655 0.00080024c0.00033148 0.00001262 0.00066763 0.00004022 0.001008 0.00008274h0.00020481l0.00020345 0.00006781h0.00020481l0.00027127 0.00006782h0.0002048l0.00020346 0.00006782 0.0002048 0.00006917h0.00027127l0.00020481 0.00006782 0.00027126 0.00006781 0.00027263 0.00006782 0.00020345 0.00006781 0.00027262 0.00006782 0.00027263 0.00006918 0.00027126 0.00013563 0.00027263 0.00006782-0.002585 0.019591c-0.001428 0.00013605-0.002722 0.00020388-0.003742 0.00006781-0.002925-0.0003405-0.00517-0.001565-0.006734-0.003605-0.001632-0.002041-0.002177-0.004626-0.001769-0.007823 0.0004085-0.003197 0.001702-0.005578 0.003742-0.00721 0.001845-0.001428 0.00395-0.002075 0.00627-0.001987z"/>
</svg>
