<?xml version="1.0" encoding="UTF-8"?>
<!-- Generated by Pixelmator Pro 3.3 -->
<svg width="193" height="63" viewBox="0 0 193 63" xmlns="http://www.w3.org/2000/svg" xmlns:xlink="http://www.w3.org/1999/xlink">
    <g id="Layer2">
        <g id="Layer1-2">
            <path id="Path" fill="#093453" stroke="none" d="M 128.220001 0.57 L 146.139999 0.57 L 160.75 24.259998 L 175.350006 0.57 L 193.279999 0.57 L 193.279999 61.779999 L 176.399994 61.779999 L 176.399994 26.619999 L 160.75 50.580002 L 160.399994 50.580002 L 144.830002 26.709999 L 144.830002 61.779999 L 128.220001 61.779999 L 128.220001 0.57 Z"/>
            <path id="path1" fill="#093453" stroke="none" d="M 33 -0.66 C 20.6 -0.66 10.24 5.48 4.58 14.66 L 32.459999 14.66 L 32.82 14.66 C 42.169998 14.66 48.470001 22.27 48.470001 31.190001 L 48.470001 31.34 C 48.470001 40.170002 42.259998 47.689999 32.990002 47.689999 L 4.47 47.689999 C 10.06 56.880001 20.370001 62.990002 32.82 62.990002 C 51.709999 62.990002 65.870003 48.740002 65.870003 31.16 L 65.870003 30.989998 C 65.870003 13.419998 51.880001 -0.66 33 -0.66"/>
            <path id="path2" fill="#d13038" stroke="none" d="M 17.379999 33.110001 L 0 33.110001 C 0.196575 36.801472 1.039354 40.429821 2.49 43.830002 L 22.75 43.830002 C 19.692427 41.046337 17.778526 37.225666 17.379999 33.110001"/>
            <path id="path3" fill="#009dd2" stroke="none" d="M 17.35 29.239998 C 17.691654 25.13982 19.549217 21.314171 22.559999 18.509998 L 2.56 18.509998 C 1.082168 21.908241 0.215549 25.540596 0 29.239998 Z"/>
            <path id="path4" fill="#093453" stroke="none" d="M 97.440002 0.57 L 71.120003 0.57 L 71.120003 61.779999 L 88.120003 61.779999 L 88.120003 14.779999 L 96.120003 14.779999 C 102.120003 14.779999 105.910004 17.489998 105.910004 22.779999 L 105.910004 22.950001 C 105.910004 27.759998 102.150002 31 96.199997 31 L 92 31 L 92 44.34 L 96.610001 44.34 C 111.739998 44.34 122.849998 36.73 122.849998 22.219997 L 122.849998 22.040001 C 122.849998 8.57 112.849998 0.619999 97.489998 0.619999"/>
        </g>
    </g>
</svg>
