<?xml version="1.0" encoding="utf-8"?>
<!-- Generator: Adobe Illustrator 22.1.0, SVG Export Plug-In . SVG Version: 6.00 Build 0)  -->
<svg version="1.1" id="Layer_1" xmlns="http://www.w3.org/2000/svg" xmlns:xlink="http://www.w3.org/1999/xlink" x="0px" y="0px"
	 viewBox="0 0 576 576" style="enable-background:new 0 0 576 576;" xml:space="preserve">
<style type="text/css">
	.st0{fill:#CC0000;}
	.st1{fill:#002E6D;}
</style>
<polygon class="st0" points="412.6,354 166,354 163.7,354 163.7,351.7 163.7,318.6 142.5,318.6 142.5,375.2 412.6,375.2 "/>
<polygon class="st1" points="142.9,140.9 164,140.9 164,107.7 164,105.4 166.4,105.4 410.5,105.4 412.8,105.4 412.8,107.7 
	412.8,140.9 433.9,140.9 433.9,84.3 142.9,84.3 "/>
<path class="st1" d="M125.9,255.8c0.2,7.4,3.7,21.4,26.9,21.4c12.6,0,26.6-3.1,26.6-17.1c0-10.3-9.6-13.1-23-16.4l-13.7-3.3
	c-20.6-5-40.4-9.8-40.4-38.9c0-14.7,7.6-40.7,48.9-40.7c39,0,49.5,26.5,49.6,42.7h-25.5c-0.7-5.9-2.8-19.9-26.1-19.9
	c-10.1,0-22.2,3.9-22.2,15.8c0,10.3,8.2,12.5,13.5,13.8l31,7.9c17.4,4.4,33.3,11.8,33.3,35.5c0,39.8-39,43.3-50.2,43.3
	c-46.4,0-54.4-27.8-54.4-44.2h25.7V255.8z"/>
<path class="st1" d="M238.6,164.3h64.3c32.4,0,40.7,20.3,40.7,33.9c0,19-10.7,24.3-16.2,27.1c16.2,6.1,20.4,19,20.4,32
	c0,10.5-4.4,20.4-11.4,27.2c-7.6,7.4-14.7,12-41.8,12h-56L238.6,164.3L238.6,164.3z M265.1,216h32.4c10.9,0,19.5-4.2,19.5-14.7
	c0-10.9-7.7-14.2-20.3-14.2H265V216H265.1z M265.1,273.7H299c13.4,0,21.2-5.9,21.2-19.3c0-11.6-9.9-16-19.9-16h-35.2V273.7z"/>
<polygon class="st1" points="433.7,164.3 412.8,164.3 370.8,296.5 397.3,296.5 423,209.7 449.2,296.5 475.7,296.5 "/>
<polygon class="st1" points="433.6,353.9 412.6,375.2 412.6,296.9 433.6,296.9 "/>
<g>
	<g>
		<path class="st1" d="M142.5,428.9h2.9v13.7c0,1.4,0.1,2.6,0.4,3.5c0.3,0.9,0.7,1.7,1.2,2.3c0.5,0.6,1.1,1,1.7,1.2
			c0.7,0.2,1.4,0.4,2.1,0.4c0.8,0,1.5-0.1,2.2-0.4s1.2-0.7,1.7-1.2c0.5-0.6,0.9-1.3,1.2-2.3c0.3-0.9,0.4-2.1,0.4-3.5v-13.7h2.8v13.6
			c0,1.9-0.2,3.4-0.6,4.7c-0.4,1.3-1,2.3-1.8,3.1c-0.7,0.8-1.6,1.4-2.6,1.7c-1,0.3-2.1,0.5-3.3,0.5s-2.3-0.2-3.3-0.5
			s-1.9-0.9-2.7-1.7c-0.7-0.8-1.3-1.8-1.8-3.1c-0.4-1.3-0.6-2.8-0.6-4.7v-13.6H142.5z"/>
		<path class="st1" d="M161.4,450.3c0-0.7,0.2-1.2,0.6-1.6c0.4-0.4,0.9-0.6,1.5-0.6s1.1,0.2,1.5,0.6s0.6,1,0.6,1.6s-0.2,1.2-0.6,1.6
			c-0.4,0.4-0.9,0.6-1.5,0.6s-1.1-0.2-1.5-0.6S161.4,450.9,161.4,450.3z"/>
		<path class="st1" d="M170.6,447c0.8,0.9,1.8,1.6,2.9,2.1c1.1,0.5,2.3,0.8,3.5,0.8c1.5,0,2.7-0.3,3.6-1c0.9-0.7,1.3-1.6,1.3-2.7
			c0-0.6-0.1-1.1-0.3-1.5s-0.5-0.8-0.8-1.1c-0.3-0.3-0.7-0.6-1.2-0.8c-0.5-0.2-1-0.5-1.5-0.7l-3.3-1.5c-0.5-0.2-1.1-0.5-1.7-0.9
			c-0.6-0.3-1.1-0.7-1.5-1.2s-0.8-1-1.1-1.7c-0.3-0.6-0.4-1.4-0.4-2.2c0-0.9,0.2-1.7,0.5-2.4c0.4-0.8,0.9-1.4,1.5-2s1.4-1,2.3-1.3
			c0.9-0.3,1.9-0.5,2.9-0.5c1.4,0,2.7,0.3,3.9,0.8s2.2,1.2,3,2.1l-1.6,1.9c-0.7-0.7-1.5-1.2-2.4-1.6s-1.8-0.6-2.9-0.6
			c-1.3,0-2.3,0.3-3.1,0.9s-1.2,1.4-1.2,2.5c0,0.6,0.1,1,0.3,1.4s0.5,0.7,0.9,1s0.8,0.6,1.2,0.8c0.4,0.2,0.9,0.4,1.4,0.6l3.3,1.4
			c0.7,0.3,1.3,0.6,1.9,1c0.6,0.4,1.1,0.8,1.5,1.3s0.8,1.1,1,1.7s0.4,1.4,0.4,2.2c0,0.9-0.2,1.8-0.5,2.6c-0.4,0.8-0.9,1.5-1.6,2.1
			c-0.7,0.6-1.5,1.1-2.5,1.4s-2.1,0.5-3.3,0.5c-1.6,0-3.1-0.3-4.5-0.9s-2.6-1.5-3.6-2.5L170.6,447z"/>
		<path class="st1" d="M188,450.3c0-0.7,0.2-1.2,0.6-1.6c0.4-0.4,0.9-0.6,1.5-0.6s1.1,0.2,1.5,0.6s0.6,1,0.6,1.6s-0.2,1.2-0.6,1.6
			c-0.4,0.4-0.9,0.6-1.5,0.6s-1.1-0.2-1.5-0.6C188.2,451.5,188,450.9,188,450.3z"/>
		<path class="st1" d="M206,447c0.8,0.9,1.8,1.6,2.9,2.1c1.1,0.5,2.3,0.8,3.5,0.8c1.5,0,2.7-0.3,3.6-1c0.9-0.7,1.3-1.6,1.3-2.7
			c0-0.6-0.1-1.1-0.3-1.5s-0.5-0.8-0.8-1.1c-0.3-0.3-0.7-0.6-1.2-0.8c-0.5-0.2-1-0.5-1.5-0.7l-3.3-1.5c-0.5-0.2-1.1-0.5-1.7-0.9
			c-0.6-0.3-1.1-0.7-1.5-1.2s-0.8-1-1.1-1.7c-0.3-0.6-0.4-1.4-0.4-2.2c0-0.9,0.2-1.7,0.5-2.4c0.4-0.8,0.9-1.4,1.5-2s1.4-1,2.3-1.3
			c0.9-0.3,1.9-0.5,2.9-0.5c1.4,0,2.7,0.3,3.9,0.8s2.2,1.2,3,2.1l-1.6,1.9c-0.7-0.7-1.5-1.2-2.4-1.6s-1.8-0.6-2.9-0.6
			c-1.3,0-2.3,0.3-3.1,0.9s-1.2,1.4-1.2,2.5c0,0.6,0.1,1,0.3,1.4s0.5,0.7,0.9,1s0.8,0.6,1.2,0.8c0.4,0.2,0.9,0.4,1.4,0.6l3.3,1.4
			c0.7,0.3,1.3,0.6,1.9,1c0.6,0.4,1.1,0.8,1.5,1.3s0.8,1.1,1,1.7s0.4,1.4,0.4,2.2c0,0.9-0.2,1.8-0.5,2.6c-0.4,0.8-0.9,1.5-1.6,2.1
			c-0.7,0.6-1.5,1.1-2.5,1.4s-2.1,0.5-3.3,0.5c-1.6,0-3.1-0.3-4.5-0.9s-2.6-1.5-3.6-2.5L206,447z"/>
		<path class="st1" d="M225.4,434.9h2.4l0.2,2.5h0.1c0.8-0.8,1.6-1.5,2.5-2.1s1.8-0.8,2.9-0.8c1.3,0,2.4,0.3,3.1,0.9
			c0.7,0.6,1.3,1.4,1.6,2.4c0.9-1,1.8-1.8,2.7-2.4s1.9-0.9,3-0.9c1.8,0,3.1,0.6,3.9,1.7c0.9,1.1,1.3,2.8,1.3,5v10.9h-2.9v-10.5
			c0-1.6-0.3-2.8-0.8-3.5s-1.3-1.1-2.4-1.1c-1.3,0-2.7,0.9-4.3,2.7v12.5h-2.9v-10.5c0-1.6-0.3-2.8-0.8-3.5s-1.3-1.1-2.4-1.1
			c-1.3,0-2.7,0.9-4.3,2.7v12.5h-2.9L225.4,434.9L225.4,434.9z"/>
		<path class="st1" d="M254.1,447.6c0-1.9,0.8-3.3,2.5-4.3c1.7-1,4.4-1.7,8.1-2.1c0-0.5-0.1-1.1-0.2-1.6s-0.3-1-0.6-1.4
			c-0.3-0.4-0.6-0.7-1.1-1c-0.4-0.2-1-0.4-1.7-0.4c-1,0-2,0.2-2.8,0.6c-0.9,0.4-1.6,0.8-2.3,1.3l-1.2-2c0.8-0.5,1.8-1,2.9-1.5
			c1.2-0.5,2.4-0.7,3.8-0.7c2.1,0,3.6,0.6,4.6,1.9c0.9,1.3,1.4,3,1.4,5.1V452h-2.4l-0.2-2.1h-0.1c-0.8,0.7-1.7,1.3-2.7,1.8
			s-2,0.7-3,0.7c-1.5,0-2.7-0.4-3.6-1.3C254.5,450.4,254.1,449.2,254.1,447.6z M256.9,447.4c0,1,0.3,1.7,0.9,2.1s1.3,0.6,2.1,0.6
			c0.8,0,1.6-0.2,2.4-0.6c0.7-0.4,1.5-1,2.4-1.7V443c-1.4,0.2-2.7,0.4-3.6,0.7c-1,0.3-1.8,0.6-2.4,0.9c-0.6,0.4-1,0.8-1.3,1.2
			C257.1,446.4,256.9,446.9,256.9,447.4z"/>
		<path class="st1" d="M273.9,426.9h2.9v21.9c0,0.5,0.1,0.8,0.2,1c0.2,0.2,0.4,0.3,0.6,0.3c0.1,0,0.2,0,0.3,0c0.1,0,0.2,0,0.4-0.1
			l0.4,2.2c-0.2,0.1-0.4,0.2-0.7,0.2c-0.3,0-0.6,0.1-1,0.1c-1.1,0-1.9-0.3-2.4-1s-0.7-1.6-0.7-2.9L273.9,426.9L273.9,426.9z"/>
		<path class="st1" d="M283.8,426.9h2.9v21.9c0,0.5,0.1,0.8,0.2,1c0.2,0.2,0.4,0.3,0.6,0.3c0.1,0,0.2,0,0.3,0c0.1,0,0.2,0,0.4-0.1
			l0.4,2.2c-0.2,0.1-0.4,0.2-0.7,0.2c-0.3,0-0.6,0.1-1,0.1c-1.1,0-1.9-0.3-2.4-1s-0.7-1.6-0.7-2.9L283.8,426.9L283.8,426.9z"/>
		<path class="st1" d="M302,428.9h6.9c1.2,0,2.3,0.1,3.2,0.3c1,0.2,1.8,0.5,2.5,1s1.2,1,1.6,1.8c0.4,0.7,0.6,1.6,0.6,2.6
			c0,1.2-0.3,2.2-1,3.1s-1.7,1.6-3,1.9v0.1c1.7,0.3,3,0.9,4,1.8c0.9,0.9,1.4,2.2,1.4,3.8c0,1.1-0.2,2.1-0.6,3s-1,1.6-1.8,2.1
			c-0.8,0.6-1.7,1-2.8,1.3c-1.1,0.3-2.3,0.4-3.6,0.4H302V428.9z M308.4,438.8c2,0,3.4-0.3,4.3-1s1.3-1.7,1.3-3s-0.5-2.2-1.4-2.7
			c-0.9-0.6-2.3-0.8-4.1-0.8H305v7.6h3.4V438.8z M309,449.7c2,0,3.6-0.4,4.7-1.1s1.7-1.9,1.7-3.5c0-1.4-0.5-2.5-1.6-3.2
			s-2.7-1-4.7-1h-4v8.8L309,449.7L309,449.7z"/>
		<path class="st1" d="M322.5,434.9h2.9v10.5c0,1.6,0.3,2.8,0.8,3.5s1.3,1.1,2.5,1.1c0.9,0,1.7-0.2,2.4-0.7c0.7-0.5,1.4-1.2,2.3-2.2
			v-12.2h2.9v17.2h-2.4l-0.2-2.7h-0.1c-0.8,0.9-1.6,1.7-2.5,2.3c-0.9,0.6-1.9,0.9-3.1,0.9c-1.8,0-3.2-0.6-4-1.7s-1.3-2.8-1.3-5v-11
			H322.5z"/>
		<path class="st1" d="M342.4,448.2c0.8,0.6,1.5,1.1,2.3,1.5s1.7,0.6,2.7,0.6c1.1,0,2-0.3,2.5-0.8c0.6-0.5,0.9-1.2,0.9-1.9
			c0-0.4-0.1-0.8-0.4-1.2c-0.2-0.3-0.5-0.6-0.9-0.9c-0.4-0.2-0.8-0.5-1.3-0.7s-0.9-0.4-1.4-0.6c-0.6-0.2-1.2-0.5-1.8-0.7
			c-0.6-0.3-1.2-0.6-1.6-1c-0.5-0.4-0.9-0.8-1.2-1.4c-0.3-0.5-0.5-1.1-0.5-1.9c0-0.7,0.1-1.3,0.4-1.9s0.7-1.1,1.2-1.6
			c0.5-0.4,1.1-0.8,1.9-1s1.6-0.4,2.5-0.4c1.1,0,2.1,0.2,3,0.6s1.7,0.8,2.4,1.4l-1.4,1.8c-0.6-0.4-1.2-0.8-1.8-1.1
			c-0.6-0.3-1.3-0.4-2.1-0.4c-1.1,0-1.9,0.2-2.4,0.7s-0.8,1.1-0.8,1.7c0,0.4,0.1,0.7,0.3,1c0.2,0.3,0.5,0.6,0.9,0.8
			c0.4,0.2,0.8,0.4,1.2,0.6c0.5,0.2,0.9,0.4,1.4,0.5c0.6,0.2,1.2,0.5,1.9,0.7c0.6,0.3,1.2,0.6,1.7,1s0.9,0.9,1.2,1.4
			c0.3,0.6,0.5,1.3,0.5,2.1c0,0.7-0.1,1.4-0.4,2s-0.7,1.2-1.2,1.6c-0.5,0.5-1.2,0.8-2,1.1c-0.8,0.3-1.7,0.4-2.7,0.4
			c-1.2,0-2.4-0.2-3.5-0.7c-1.1-0.4-2.1-1-2.9-1.7L342.4,448.2z"/>
		<path class="st1" d="M360.1,431.3c-0.6,0-1-0.2-1.4-0.5c-0.4-0.4-0.6-0.8-0.6-1.3c0-0.6,0.2-1,0.6-1.4c0.4-0.3,0.9-0.5,1.4-0.5
			c0.6,0,1,0.2,1.4,0.5s0.6,0.8,0.6,1.4c0,0.5-0.2,1-0.6,1.3C361.1,431.2,360.6,431.3,360.1,431.3z M358.6,434.9h2.9v17.2h-2.9
			V434.9z"/>
		<path class="st1" d="M368.2,434.9h2.4l0.2,2.5h0.1c0.8-0.8,1.7-1.5,2.6-2.1s2-0.8,3.2-0.8c1.8,0,3.1,0.6,4,1.7
			c0.8,1.1,1.3,2.8,1.3,5v10.9h-3v-10.5c0-1.6-0.3-2.8-0.8-3.5s-1.3-1.1-2.5-1.1c-0.9,0-1.7,0.2-2.4,0.7c-0.7,0.4-1.5,1.1-2.3,2
			v12.5h-2.9L368.2,434.9L368.2,434.9z"/>
		<path class="st1" d="M387.1,443.5c0-1.4,0.2-2.7,0.7-3.8s1-2.1,1.7-2.8c0.7-0.8,1.5-1.4,2.5-1.8c0.9-0.4,1.9-0.6,2.9-0.6
			c1.1,0,2.1,0.2,2.9,0.6s1.6,0.9,2.2,1.6s1,1.6,1.3,2.5c0.3,1,0.5,2.1,0.5,3.3c0,0.6,0,1.2-0.1,1.6H390c0.1,1.9,0.7,3.3,1.7,4.4
			s2.4,1.6,4,1.6c0.8,0,1.6-0.1,2.3-0.4s1.4-0.6,2-1l1,1.9c-0.8,0.5-1.6,0.9-2.5,1.2c-0.9,0.4-2,0.5-3.1,0.5c-1.2,0-2.2-0.2-3.2-0.6
			s-1.9-1-2.6-1.8s-1.3-1.7-1.8-2.8C387.4,446.2,387.1,444.9,387.1,443.5z M399.2,442.2c0-1.8-0.4-3.1-1.1-4.1
			c-0.7-0.9-1.8-1.4-3.1-1.4c-0.6,0-1.2,0.1-1.8,0.4c-0.6,0.2-1.1,0.6-1.5,1.1s-0.8,1-1.1,1.7c-0.3,0.7-0.5,1.4-0.6,2.3H399.2z"/>
		<path class="st1" d="M406.4,448.2c0.8,0.6,1.5,1.1,2.3,1.5s1.7,0.6,2.7,0.6c1.1,0,2-0.3,2.5-0.8c0.6-0.5,0.9-1.2,0.9-1.9
			c0-0.4-0.1-0.8-0.4-1.2c-0.2-0.3-0.5-0.6-0.9-0.9c-0.4-0.2-0.8-0.5-1.3-0.7s-0.9-0.4-1.4-0.6c-0.6-0.2-1.2-0.5-1.8-0.7
			c-0.6-0.3-1.2-0.6-1.6-1c-0.5-0.4-0.9-0.8-1.2-1.4c-0.3-0.5-0.5-1.1-0.5-1.9c0-0.7,0.1-1.3,0.4-1.9s0.7-1.1,1.2-1.6
			c0.5-0.4,1.1-0.8,1.9-1s1.6-0.4,2.5-0.4c1.1,0,2.1,0.2,3,0.6s1.7,0.8,2.4,1.4l-1.4,1.8c-0.6-0.4-1.2-0.8-1.8-1.1
			c-0.6-0.3-1.3-0.4-2.1-0.4c-1.1,0-1.9,0.2-2.4,0.7s-0.8,1.1-0.8,1.7c0,0.4,0.1,0.7,0.3,1c0.2,0.3,0.5,0.6,0.9,0.8
			c0.4,0.2,0.8,0.4,1.2,0.6c0.5,0.2,0.9,0.4,1.4,0.5c0.6,0.2,1.2,0.5,1.9,0.7c0.6,0.3,1.2,0.6,1.7,1s0.9,0.9,1.2,1.4
			c0.3,0.6,0.5,1.3,0.5,2.1c0,0.7-0.1,1.4-0.4,2s-0.7,1.2-1.2,1.6c-0.5,0.5-1.2,0.8-2,1.1c-0.8,0.3-1.7,0.4-2.7,0.4
			c-1.2,0-2.4-0.2-3.5-0.7c-1.1-0.4-2.1-1-2.9-1.7L406.4,448.2z"/>
		<path class="st1" d="M422.1,448.2c0.8,0.6,1.5,1.1,2.3,1.5s1.7,0.6,2.7,0.6c1.1,0,2-0.3,2.5-0.8c0.6-0.5,0.9-1.2,0.9-1.9
			c0-0.4-0.1-0.8-0.4-1.2c-0.2-0.3-0.5-0.6-0.9-0.9c-0.4-0.2-0.8-0.5-1.3-0.7s-0.9-0.4-1.4-0.6c-0.6-0.2-1.2-0.5-1.8-0.7
			c-0.6-0.3-1.2-0.6-1.6-1c-0.5-0.4-0.9-0.8-1.2-1.4c-0.3-0.5-0.5-1.1-0.5-1.9c0-0.7,0.1-1.3,0.4-1.9s0.7-1.1,1.2-1.6
			c0.5-0.4,1.1-0.8,1.9-1c0.7-0.2,1.6-0.4,2.5-0.4c1.1,0,2.1,0.2,3,0.6s1.7,0.8,2.4,1.4l-1.4,1.8c-0.6-0.4-1.2-0.8-1.8-1.1
			c-0.6-0.3-1.3-0.4-2.1-0.4c-1.1,0-1.9,0.2-2.4,0.7s-0.8,1.1-0.8,1.7c0,0.4,0.1,0.7,0.3,1c0.2,0.3,0.5,0.6,0.9,0.8
			c0.4,0.2,0.8,0.4,1.2,0.6c0.5,0.2,0.9,0.4,1.4,0.5c0.6,0.2,1.2,0.5,1.9,0.7c0.6,0.3,1.2,0.6,1.7,1s0.9,0.9,1.2,1.4
			c0.3,0.6,0.5,1.3,0.5,2.1c0,0.7-0.1,1.4-0.4,2s-0.7,1.2-1.2,1.6c-0.5,0.5-1.2,0.8-2,1.1c-0.8,0.3-1.7,0.4-2.7,0.4
			c-1.2,0-2.4-0.2-3.5-0.7c-1.1-0.4-2.1-1-2.9-1.7L422.1,448.2z"/>
	</g>
	<g>
		<path class="st1" d="M187.8,484.8h-8.5l-2.2,7.1h-3l7.9-23.2h3.3l7.9,23.2h-3.1L187.8,484.8z M187,482.4l-1.1-3.5
			c-0.4-1.3-0.8-2.6-1.2-3.9s-0.8-2.6-1.1-3.9h-0.1c-0.4,1.3-0.7,2.7-1.1,3.9c-0.4,1.3-0.8,2.6-1.2,3.9l-1.1,3.5H187z"/>
		<path class="st1" d="M195.7,483.3c0-1.4,0.2-2.6,0.6-3.8s1-2.1,1.6-2.8c0.7-0.8,1.5-1.4,2.4-1.8s1.8-0.6,2.8-0.6s1.9,0.2,2.6,0.5
			c0.7,0.4,1.5,0.8,2.2,1.5l-0.1-2.9v-6.6h2.9V492h-2.4l-0.2-2H208c-0.7,0.7-1.5,1.2-2.4,1.7s-1.8,0.7-2.8,0.7
			c-2.2,0-3.9-0.8-5.2-2.3C196.4,488.4,195.7,486.2,195.7,483.3z M198.8,483.3c0,2.1,0.4,3.7,1.2,4.8c0.8,1.2,2,1.7,3.5,1.7
			c0.8,0,1.6-0.2,2.3-0.6s1.4-1,2.1-1.8v-9c-0.7-0.7-1.4-1.1-2.1-1.4c-0.7-0.3-1.4-0.4-2.1-0.4c-0.7,0-1.3,0.2-1.9,0.5
			s-1.1,0.8-1.6,1.3c-0.4,0.6-0.8,1.3-1.1,2.1C198.9,481.4,198.8,482.3,198.8,483.3z"/>
		<path class="st1" d="M216.8,474.7h2.4l0.2,2.5h0.1c0.8-0.8,1.6-1.5,2.5-2.1s1.8-0.8,2.9-0.8c1.3,0,2.4,0.3,3.1,0.9
			c0.7,0.6,1.3,1.4,1.6,2.4c0.9-1,1.8-1.8,2.7-2.4s1.9-0.9,3-0.9c1.8,0,3.1,0.6,3.9,1.7c0.9,1.1,1.3,2.8,1.3,5v10.9h-2.9v-10.5
			c0-1.6-0.3-2.8-0.8-3.5s-1.3-1.1-2.4-1.1c-1.3,0-2.7,0.9-4.3,2.7V492h-2.9v-10.5c0-1.6-0.3-2.8-0.8-3.5s-1.3-1.1-2.4-1.1
			c-1.3,0-2.7,0.9-4.3,2.7v12.5h-2.9L216.8,474.7L216.8,474.7z"/>
		<path class="st1" d="M248.5,471.1c-0.6,0-1-0.2-1.4-0.5c-0.4-0.4-0.6-0.8-0.6-1.3c0-0.6,0.2-1,0.6-1.4c0.4-0.3,0.9-0.5,1.4-0.5
			c0.6,0,1,0.2,1.4,0.5s0.6,0.8,0.6,1.4c0,0.5-0.2,1-0.6,1.3C249.6,471,249.1,471.1,248.5,471.1z M247,474.7h2.9v17.2H247V474.7z"/>
		<path class="st1" d="M256.6,474.7h2.4l0.2,2.5h0.1c0.8-0.8,1.7-1.5,2.6-2.1s2-0.8,3.2-0.8c1.8,0,3.1,0.6,4,1.7
			c0.8,1.1,1.3,2.8,1.3,5v10.9h-2.9v-10.5c0-1.6-0.3-2.8-0.8-3.5s-1.3-1.1-2.5-1.1c-0.9,0-1.7,0.2-2.4,0.7c-0.7,0.4-1.5,1.1-2.3,2
			V492h-2.9L256.6,474.7L256.6,474.7z"/>
		<path class="st1" d="M278.3,471.1c-0.6,0-1-0.2-1.4-0.5c-0.4-0.4-0.6-0.8-0.6-1.3c0-0.6,0.2-1,0.6-1.4c0.4-0.3,0.9-0.5,1.4-0.5
			c0.6,0,1,0.2,1.4,0.5s0.6,0.8,0.6,1.4c0,0.5-0.2,1-0.6,1.3C279.4,471,278.9,471.1,278.3,471.1z M276.9,474.7h2.9v17.2h-2.9V474.7z
			"/>
		<path class="st1" d="M286,488c0.8,0.6,1.5,1.1,2.3,1.5s1.7,0.6,2.7,0.6c1.1,0,2-0.3,2.5-0.8c0.6-0.5,0.9-1.2,0.9-1.9
			c0-0.4-0.1-0.8-0.4-1.2c-0.2-0.3-0.5-0.6-0.9-0.9c-0.4-0.2-0.8-0.5-1.3-0.7s-0.9-0.4-1.4-0.6c-0.6-0.2-1.2-0.5-1.8-0.7
			c-0.6-0.3-1.2-0.6-1.6-1c-0.5-0.4-0.9-0.8-1.2-1.4c-0.3-0.5-0.5-1.1-0.5-1.9c0-0.7,0.1-1.3,0.4-1.9s0.7-1.1,1.2-1.6
			c0.5-0.4,1.1-0.8,1.9-1c0.7-0.2,1.6-0.4,2.5-0.4c1.1,0,2.1,0.2,3,0.6s1.7,0.8,2.4,1.4l-1.4,1.8c-0.6-0.4-1.2-0.8-1.8-1.1
			c-0.6-0.3-1.3-0.4-2.1-0.4c-1.1,0-1.9,0.2-2.4,0.7s-0.8,1.1-0.8,1.7c0,0.4,0.1,0.7,0.3,1c0.2,0.3,0.5,0.6,0.9,0.8
			c0.4,0.2,0.8,0.4,1.2,0.6c0.5,0.2,0.9,0.4,1.4,0.5c0.6,0.2,1.2,0.5,1.9,0.7c0.6,0.3,1.2,0.6,1.7,1s0.9,0.9,1.2,1.4
			c0.3,0.6,0.5,1.3,0.5,2.1c0,0.7-0.1,1.4-0.4,2s-0.7,1.2-1.2,1.6c-0.5,0.5-1.2,0.8-2,1.1c-0.8,0.3-1.7,0.4-2.7,0.4
			c-1.2,0-2.4-0.2-3.5-0.7c-1.1-0.4-2.1-1-2.9-1.7L286,488z"/>
		<path class="st1" d="M302.6,477.1h-2.5v-2.2l2.7-0.2l0.4-4.8h2.4v4.8h4.6v2.4h-4.6v9.6c0,1.1,0.2,1.9,0.6,2.5s1.1,0.9,2.1,0.9
			c0.3,0,0.6,0,1-0.1s0.7-0.2,1-0.3l0.6,2.2c-0.5,0.2-1,0.3-1.5,0.4c-0.6,0.1-1.1,0.2-1.6,0.2c-0.9,0-1.7-0.1-2.3-0.4
			c-0.6-0.3-1.1-0.7-1.5-1.2s-0.7-1.1-0.8-1.8c-0.2-0.7-0.2-1.5-0.2-2.3v-9.7H302.6z"/>
		<path class="st1" d="M315,474.7h2.4l0.2,3.1h0.1c0.6-1.1,1.3-1.9,2.1-2.6c0.8-0.6,1.8-1,2.7-1c0.7,0,1.3,0.1,1.8,0.4l-0.6,2.5
			c-0.3-0.1-0.5-0.2-0.8-0.2c-0.2,0-0.5-0.1-0.9-0.1c-0.7,0-1.5,0.3-2.3,0.9s-1.5,1.6-2.1,3.1v11H315V474.7z"/>
		<path class="st1" d="M326.4,487.4c0-1.9,0.8-3.3,2.5-4.3s4.4-1.7,8.1-2.1c0-0.5-0.1-1.1-0.2-1.6s-0.3-1-0.6-1.4
			c-0.3-0.4-0.6-0.7-1.1-1c-0.4-0.2-1-0.4-1.7-0.4c-1,0-2,0.2-2.8,0.6c-0.9,0.4-1.6,0.8-2.3,1.3l-1.2-2c0.8-0.5,1.8-1,2.9-1.5
			c1.2-0.5,2.4-0.7,3.8-0.7c2.1,0,3.6,0.6,4.6,1.9c0.9,1.3,1.4,3,1.4,5.1v10.5h-2.4l-0.2-2.1h-0.1c-0.8,0.7-1.7,1.3-2.7,1.8
			s-2,0.7-3,0.7c-1.5,0-2.7-0.4-3.6-1.3C326.9,490.2,326.4,489,326.4,487.4z M329.3,487.2c0,1,0.3,1.7,0.9,2.1s1.3,0.6,2.1,0.6
			c0.8,0,1.6-0.2,2.4-0.6c0.7-0.4,1.5-1,2.4-1.7v-4.8c-1.4,0.2-2.7,0.4-3.6,0.7c-1,0.3-1.8,0.6-2.4,0.9c-0.6,0.4-1,0.8-1.3,1.2
			C329.4,486.2,329.3,486.7,329.3,487.2z"/>
		<path class="st1" d="M346.8,477.1h-2.5v-2.2l2.7-0.2l0.4-4.8h2.4v4.8h4.6v2.4h-4.6v9.6c0,1.1,0.2,1.9,0.6,2.5s1.1,0.9,2.1,0.9
			c0.3,0,0.6,0,1-0.1s0.7-0.2,1-0.3l0.6,2.2c-0.5,0.2-1,0.3-1.5,0.4c-0.6,0.1-1.1,0.2-1.6,0.2c-0.9,0-1.7-0.1-2.3-0.4
			c-0.6-0.3-1.1-0.7-1.5-1.2s-0.7-1.1-0.8-1.8c-0.2-0.7-0.2-1.5-0.2-2.3v-9.7H346.8z"/>
		<path class="st1" d="M360.6,471.1c-0.6,0-1-0.2-1.4-0.5c-0.4-0.4-0.6-0.8-0.6-1.3c0-0.6,0.2-1,0.6-1.4c0.4-0.3,0.9-0.5,1.4-0.5
			c0.6,0,1,0.2,1.4,0.5s0.6,0.8,0.6,1.4c0,0.5-0.2,1-0.6,1.3C361.7,471,361.2,471.1,360.6,471.1z M359.1,474.7h2.9v17.2h-2.9V474.7z
			"/>
		<path class="st1" d="M367.4,483.3c0-1.4,0.2-2.7,0.7-3.8c0.4-1.1,1-2.1,1.8-2.8c0.7-0.8,1.6-1.4,2.5-1.8c1-0.4,2-0.6,3-0.6
			c1.1,0,2.1,0.2,3,0.6c1,0.4,1.8,1,2.5,1.8s1.3,1.7,1.8,2.8c0.4,1.1,0.7,2.4,0.7,3.8s-0.2,2.7-0.7,3.8c-0.4,1.1-1,2.1-1.8,2.8
			c-0.7,0.8-1.6,1.4-2.5,1.8c-1,0.4-2,0.6-3,0.6c-1.1,0-2.1-0.2-3-0.6c-1-0.4-1.8-1-2.5-1.8s-1.3-1.7-1.8-2.8
			C367.7,486,367.4,484.7,367.4,483.3z M370.4,483.3c0,1,0.1,1.9,0.4,2.7c0.2,0.8,0.6,1.5,1,2.1s1,1,1.6,1.3s1.3,0.5,2,0.5
			s1.4-0.2,2-0.5s1.1-0.8,1.6-1.3c0.4-0.6,0.8-1.3,1-2.1c0.2-0.8,0.4-1.7,0.4-2.7s-0.1-1.9-0.4-2.7c-0.2-0.8-0.6-1.5-1-2.1
			s-1-1-1.6-1.4c-0.6-0.3-1.3-0.5-2-0.5s-1.4,0.2-2,0.5s-1.1,0.8-1.6,1.4c-0.4,0.6-0.8,1.3-1,2.1
			C370.6,481.4,370.4,482.3,370.4,483.3z"/>
		<path class="st1" d="M388.1,474.7h2.4l0.2,2.5h0.1c0.8-0.8,1.7-1.5,2.6-2.1s2-0.8,3.2-0.8c1.8,0,3.1,0.6,4,1.7
			c0.8,1.1,1.3,2.8,1.3,5v10.9H399v-10.5c0-1.6-0.3-2.8-0.8-3.5s-1.3-1.1-2.5-1.1c-0.9,0-1.7,0.2-2.4,0.7c-0.7,0.4-1.5,1.1-2.3,2
			V492h-2.9L388.1,474.7L388.1,474.7z"/>
	</g>
</g>
</svg>
