<svg xmlns:dc="http://purl.org/dc/elements/1.1/" xmlns:cc="http://web.resource.org/cc/" xmlns:rdf="http://www.w3.org/1999/02/22-rdf-syntax-ns#" xmlns:svg="http://www.w3.org/2000/svg" xmlns="http://www.w3.org/2000/svg" xmlns:sodipodi="http://sodipodi.sourceforge.net/DTD/sodipodi-0.dtd" xmlns:inkscape="http://www.inkscape.org/namespaces/inkscape" width="8in" height="8in" viewBox="0 0 1 1" preserveAspectRatio="none" id="svg2" sodipodi:version="0.32" inkscape:version="0.45.1" sodipodi:docname="SSA.svg" inkscape:output_extension="org.inkscape.output.svg.inkscape" inkscape:export-xdpi="90" inkscape:export-ydpi="90">
  <metadata id="metadata409">
    <rdf:RDF>
      <cc:Work rdf:about="">
        <dc:format>image/svg+xml</dc:format>
        <dc:type rdf:resource="http://purl.org/dc/dcmitype/StillImage"/>
      </cc:Work>
    </rdf:RDF>
  </metadata>
  <defs id="defs407"/>
  <sodipodi:namedview inkscape:window-height="581" inkscape:window-width="697" inkscape:pageshadow="2" inkscape:pageopacity="0.0" guidetolerance="10.0" gridtolerance="10.0" objecttolerance="10.0" borderopacity="1.0" bordercolor="#666666" pagecolor="#ffffff" id="base" inkscape:showpageshadow="false" inkscape:zoom="0.525" inkscape:cx="360" inkscape:cy="360" inkscape:window-x="396" inkscape:window-y="22" inkscape:current-layer="svg2"/>
  <title id="title4">SVG drawing</title>
  <desc id="desc6">This was produced by version 4.1 of GNU libplot, a free library for exporting 2-D vector graphics.</desc>
  <line id="line274" style="font-style:normal;font-variant:normal;font-weight:normal;font-stretch:normal;letter-spacing:normal;word-spacing:normal;text-anchor:start;fill:#333366;fill-opacity:1;fill-rule:nonzero;stroke:#231f1f;stroke-width:0;stroke-linecap:butt;stroke-linejoin:miter;stroke-miterlimit:10.43299961;stroke-dasharray:none;stroke-dashoffset:0;stroke-opacity:1" y2="0.51385319" x2="0.61513984" y1="0.51385319" x1="0.61513984"/>
  <path id="path276" style="font-style:normal;font-variant:normal;font-weight:normal;font-stretch:normal;letter-spacing:normal;word-spacing:normal;text-anchor:start;fill:#333366;fill-opacity:1;stroke:#231f1f;stroke-width:0;stroke-linecap:butt;stroke-linejoin:miter;stroke-miterlimit:10.43299961;stroke-dasharray:none;stroke-dashoffset:0;stroke-opacity:1" d="M 0.051089334,0.49821239 L 0.051089334,0.49821239 L 0.051228974,0.49828221 L 0.051438484,0.49835203 L 0.051717764,0.49849167 L 0.051997054,0.49870118 L 0.052416024,0.49884082 L 0.052904814,0.49905029 L 0.053393564,0.49925979 L 0.054021994,0.49953908 L 0.054720254,0.49974854 L 0.055418505,0.49995805 L 0.056186585,0.50016751 L 0.057024525,0.5004468 L 0.057932245,0.50058644 L 0.058909785,0.50079594 L 0.059887365,0.50093559 L 0.061004545,0.50107523 L 0.062121775,0.50121487 L 0.063238995,0.50128469 L 0.064426006,0.50128469 L 0.065682866,0.50121487 L 0.067009556,0.50114505 L 0.068336246,0.50100541 L 0.069732756,0.50086576 L 0.071199086,0.50058644 L 0.072665417,0.50023733 L 0.074131757,0.49981836 L 0.075667907,0.49932961 L 0.076435987,0.49905029 L 0.077204097,0.498771 L 0.078041997,0.49842185 L 0.078810077,0.49807274 L 0.079647977,0.4977236 L 0.080485867,0.49737449 L 0.081253948,0.49695552 L 0.082091848,0.49646677 C 0.10241111,0.48536451 0.11190735,0.4788009 0.13501959,0.42964374 C 0.15896978,0.37846164 0.18403714,0.31526955 0.22383768,0.27930941 C 0.2630098,0.24397771 0.30804723,0.21765349 0.37235653,0.23336423 C 0.37235653,0.23336423 0.37151864,0.23874079 0.34526423,0.24069591 C 0.33269564,0.24181312 0.29268562,0.2505413 0.25414195,0.28370842 C 0.20987254,0.32204263 0.18326903,0.3906811 0.16832638,0.42147415 C 0.15701466,0.44465622 0.1262216,0.5152498 0.083628038,0.51678599 C 0.068126746,0.51741442 0.051089334,0.49821239 0.051089334,0.49821239 z "/>
  <path id="path278" style="font-style:normal;font-variant:normal;font-weight:normal;font-stretch:normal;letter-spacing:normal;word-spacing:normal;text-anchor:start;fill:#333366;fill-opacity:1;stroke:#231f1f;stroke-width:0;stroke-linecap:butt;stroke-linejoin:miter;stroke-miterlimit:10.43299961;stroke-dasharray:none;stroke-dashoffset:0;stroke-opacity:1" d="M 0.21510947,0.38425716 L 0.2170646,0.37978832 L 0.21908954,0.37545914 L 0.22104466,0.37126961 L 0.22306957,0.36714991 L 0.22509451,0.36316985 L 0.22711945,0.35925962 L 0.22907458,0.35555887 L 0.23109952,0.35192794 L 0.23312446,0.34836684 L 0.23514941,0.34494539 L 0.23717435,0.34166359 L 0.23912943,0.33845162 L 0.24317933,0.33230698 L 0.24708958,0.32665111 L 0.25099978,0.32134437 L 0.25491002,0.31645659 L 0.25868059,0.3118481 L 0.26238137,0.30765857 L 0.26601228,0.30381817 L 0.26957338,0.30025707 L 0.27299484,0.29704509 L 0.27634647,0.29411242 L 0.27955842,0.29145905 L 0.28263076,0.28901516 L 0.28556343,0.28692039 L 0.28828663,0.28503511 L 0.29094,0.28335929 L 0.29338388,0.28196278 L 0.29561828,0.28070592 L 0.29764323,0.27965854 L 0.29952853,0.27875081 L 0.3011345,0.27805256 L 0.30260084,0.27749395 L 0.30371806,0.277075 L 0.3046956,0.27672587 L 0.30539386,0.27651639 L 0.305743,0.27644657 L 0.30588265,0.27637674 C 0.30588265,0.27637674 0.305743,0.29669597 0.3076283,0.30298026 C 0.3076283,0.30298026 0.27055092,0.31142915 0.22970301,0.41826218 C 0.21552844,0.45478092 0.18724909,0.51643684 0.13809194,0.51643684 C 0.13809194,0.51643684 0.16665059,0.49507026 0.21510947,0.38425716 z "/>
  <path id="path280" style="font-style:normal;font-variant:normal;font-weight:normal;font-stretch:normal;letter-spacing:normal;word-spacing:normal;text-anchor:start;fill:#333366;fill-opacity:1;stroke:#231f1f;stroke-width:0;stroke-linecap:butt;stroke-linejoin:miter;stroke-miterlimit:10.43299961;stroke-dasharray:none;stroke-dashoffset:0;stroke-opacity:1" d="M 0.241713,0.4561076 L 0.241713,0.45603778 L 0.24178282,0.45589813 L 0.24185264,0.45561883 L 0.24199233,0.45533952 L 0.24220179,0.45485075 L 0.24248108,0.45436197 L 0.2427604,0.45373354 L 0.24303969,0.45296546 L 0.24345866,0.45212755 L 0.24387759,0.45114999 L 0.24436638,0.45010261 L 0.24485517,0.4489854 L 0.24541374,0.44765872 L 0.24604217,0.44633203 L 0.24674043,0.44479587 L 0.24743868,0.44318989 L 0.24820676,0.44151407 L 0.2490447,0.43962878 L 0.2498826,0.43767367 L 0.25079032,0.43564873 L 0.25176786,0.43348414 L 0.25281526,0.43111007 L 0.25386266,0.42873601 L 0.25504967,0.42615246 L 0.25623671,0.42349909 L 0.25749358,0.42070607 L 0.25875045,0.4177734 L 0.26014692,0.41470108 L 0.26154343,0.41155893 L 0.2630098,0.40820731 L 0.26454595,0.40478586 L 0.26615193,0.40115493 C 0.30225173,0.31876083 0.34323932,0.30835683 0.35406226,0.30744909 C 0.36572313,0.30647154 0.37263586,0.31310496 0.37263586,0.31310496 C 0.37263586,0.31310496 0.31914949,0.32846657 0.28346866,0.43711507 C 0.28346866,0.43711507 0.2556781,0.44633203 0.241713,0.4561076 z "/>
  <path id="path282" style="font-style:normal;font-variant:normal;font-weight:normal;font-stretch:normal;letter-spacing:normal;word-spacing:normal;text-anchor:start;fill:#333366;fill-opacity:1;stroke:#231f1f;stroke-width:0;stroke-linecap:butt;stroke-linejoin:miter;stroke-miterlimit:10.43299961;stroke-dasharray:none;stroke-dashoffset:0;stroke-opacity:1" d="M 0.31495996,0.42747915 L 0.31495996,0.42740932 L 0.31502978,0.42726967 L 0.31509961,0.42699037 L 0.31523925,0.42664124 L 0.31537893,0.42622229 L 0.3155884,0.42566368 L 0.31579786,0.42503525 L 0.31607719,0.424337 L 0.31670562,0.42266119 L 0.3174737,0.42063625 L 0.31838142,0.41840183 L 0.31942878,0.41581829 L 0.32061583,0.41302527 L 0.32201234,0.41002277 L 0.32347867,0.40674097 L 0.32508469,0.40331952 L 0.32690013,0.39975842 L 0.32878543,0.39605767 L 0.3308802,0.39214744 L 0.33304478,0.38823721 L 0.33541884,0.38418733 L 0.33793257,0.38006762 L 0.34058595,0.37594792 L 0.34337897,0.37182821 L 0.34631163,0.36763868 L 0.34938394,0.36351898 L 0.35266575,0.3594691 L 0.35601738,0.35541922 L 0.35957848,0.35150899 L 0.36327922,0.34773841 L 0.36711964,0.34403766 L 0.37109967,0.34047656 L 0.37521938,0.33712494 L 0.37954859,0.33398279 L 0.38401741,0.33105012 L 0.38862591,0.32832692 L 0.40259101,0.34354888 C 0.40259101,0.34354888 0.36188271,0.37552897 0.34554355,0.42210258 C 0.34554355,0.42210258 0.32452607,0.42454647 0.31495996,0.42747915 z "/>
  <path id="path284" style="font-style:normal;font-variant:normal;font-weight:normal;font-stretch:normal;letter-spacing:normal;word-spacing:normal;text-anchor:start;fill:#333366;fill-opacity:1;stroke:#231f1f;stroke-width:0;stroke-linecap:butt;stroke-linejoin:miter;stroke-miterlimit:10.43299961;stroke-dasharray:none;stroke-dashoffset:0;stroke-opacity:1" d="M 0.4067805,0.4251749 L 0.40712965,0.42342927 L 0.40761844,0.42168363 L 0.40817701,0.41986817 L 0.4088753,0.41812253 L 0.40964338,0.41630706 L 0.41041146,0.4144916 L 0.41131919,0.41274596 L 0.41222691,0.4109305 L 0.41320449,0.40918486 L 0.41425185,0.40743922 L 0.41529925,0.40569359 L 0.41641644,0.40401777 L 0.41753366,0.40234196 L 0.41865084,0.40073598 L 0.41976807,0.39919981 L 0.42088529,0.39766365 L 0.42200248,0.39619732 L 0.4231197,0.39473098 L 0.42416706,0.3934043 L 0.42521447,0.39214744 L 0.42619201,0.3909604 L 0.42716959,0.38977337 L 0.42807731,0.38872599 L 0.42891521,0.38781826 L 0.42968328,0.38691052 L 0.43038154,0.38621227 L 0.43094015,0.38551401 L 0.43121944,0.38523471 L 0.43142894,0.38495541 L 0.43170823,0.38474593 L 0.43184787,0.38453646 L 0.43205737,0.38432698 L 0.43219702,0.38418733 L 0.43226684,0.3841175 L 0.43233666,0.38404768 L 0.43240648,0.38397785 L 0.43240648,0.38397785 L 0.41906981,0.36596287 C 0.41906981,0.36596287 0.392187,0.38474593 0.37773311,0.42314996 C 0.37773311,0.42314996 0.38876555,0.42301031 0.3938628,0.42391804 C 0.39889023,0.42503525 0.4067805,0.4251749 0.4067805,0.4251749 z "/>
  <path id="path286" style="font-style:normal;font-variant:normal;font-weight:normal;font-stretch:normal;letter-spacing:normal;word-spacing:normal;text-anchor:start;fill:#333366;fill-opacity:1;stroke:#231f1f;stroke-width:0;stroke-linecap:butt;stroke-linejoin:miter;stroke-miterlimit:10.43299961;stroke-dasharray:none;stroke-dashoffset:0;stroke-opacity:1" d="M 0.3938628,0.2603867 L 0.3938628,0.2603867 L 0.3938628,0.2603867 L 0.3938628,0.26045653 L 0.39393262,0.26045653 L 0.39393262,0.26052635 L 0.39400244,0.26059618 L 0.39400244,0.26059618 L 0.39407226,0.260666 L 0.39414208,0.26080565 L 0.39421191,0.26087548 L 0.39435159,0.26108496 L 0.39449123,0.26129443 L 0.3947007,0.26157373 L 0.39491016,0.26185304 L 0.39511967,0.26213234 L 0.39532913,0.26248147 L 0.39553859,0.26283059 L 0.3957481,0.26324955 L 0.39602739,0.2636685 L 0.39623685,0.26408745 L 0.39651618,0.26450641 L 0.39679546,0.26499518 L 0.39700497,0.26541414 L 0.39728425,0.26597274 L 0.39749372,0.26646152 L 0.39770318,0.2669503 L 0.39791269,0.2675089 L 0.39812215,0.26799768 L 0.39833162,0.26855629 L 0.3984713,0.26911489 L 0.39861094,0.26967349 L 0.39875058,0.2702321 L 0.39889023,0.2707907 L 0.39896005,0.27134931 L 0.39902987,0.27190791 L 0.39902987,0.27246651 L 0.39902987,0.27302512 C 0.39902987,0.27302512 0.40629175,0.26688047 0.42179301,0.26715978 C 0.42179301,0.26715978 0.40077553,0.26129443 0.3938628,0.2603867 z "/>
  <path id="path288" style="font-style:normal;font-variant:normal;font-weight:normal;font-stretch:normal;letter-spacing:normal;word-spacing:normal;text-anchor:start;fill:#333366;fill-opacity:1;stroke:#231f1f;stroke-width:0;stroke-linecap:butt;stroke-linejoin:miter;stroke-miterlimit:10.43299961;stroke-dasharray:none;stroke-dashoffset:0;stroke-opacity:1" d="M 0.51633675,0.35737433 L 0.51633675,0.35737433 L 0.51640657,0.35737433 L 0.51647643,0.35737433 L 0.51661607,0.35737433 L 0.51675572,0.35730451 L 0.51689536,0.35730451 L 0.51717469,0.35723468 L 0.51738415,0.35723468 L 0.51766344,0.35716486 L 0.51794276,0.35716486 L 0.51829187,0.35709503 L 0.51864102,0.35702521 L 0.51933927,0.35688556 L 0.52024699,0.3567459 L 0.52115471,0.35653643 L 0.52213229,0.35632695 L 0.52324948,0.35611747 L 0.5243667,0.35583817 L 0.52555375,0.35555887 L 0.52674075,0.35527957 L 0.52799762,0.35500027 L 0.52932431,0.35465114 L 0.530651,0.35423219 L 0.53197769,0.35388306 L 0.53323455,0.35339428 L 0.53456124,0.35297533 L 0.53588789,0.35248655 L 0.53721458,0.35199777 L 0.53847145,0.35143917 L 0.53965849,0.35088056 L 0.5408455,0.35032196 L 0.54203254,0.34969353 L 0.54307995,0.3490651 L 0.54412731,0.34836684 L 0.54503507,0.34766859 L 0.54594279,0.34697033 L 0.54671086,0.34620225 L 0.54705997,0.3457833 L 0.54740912,0.34536435 C 0.54740912,0.34536435 0.60257128,0.37106013 0.62009748,0.41518986 C 0.62009748,0.41518986 0.59719471,0.41532951 0.5859528,0.41826218 C 0.5859528,0.41826218 0.56940413,0.3862821 0.51633675,0.35737433 z "/>
  <path id="path290" style="font-style:normal;font-variant:normal;font-weight:normal;font-stretch:normal;letter-spacing:normal;word-spacing:normal;text-anchor:start;fill:#333366;fill-opacity:1;stroke:#231f1f;stroke-width:0;stroke-linecap:butt;stroke-linejoin:miter;stroke-miterlimit:10.43299961;stroke-dasharray:none;stroke-dashoffset:0;stroke-opacity:1" d="M 0.68433697,0.42224223 L 0.68433697,0.42224223 L 0.68426717,0.42224223 L 0.68419727,0.42217241 L 0.68405767,0.42217241 L 0.68391797,0.42210258 L 0.68370857,0.42210258 L 0.68349907,0.42203276 L 0.68328957,0.42196293 L 0.68301027,0.42189311 L 0.68273097,0.42182328 L 0.68238187,0.42175345 L 0.68203277,0.4216138 L 0.68126467,0.42140433 L 0.68042667,0.42119485 L 0.67944917,0.42098537 L 0.67847167,0.42070607 L 0.67735437,0.42042677 L 0.67616737,0.42014747 L 0.67491057,0.41986817 L 0.67365367,0.41958886 L 0.67232697,0.41930956 L 0.67093047,0.41903026 L 0.66953397,0.41875096 L 0.66806766,0.41847166 L 0.66513496,0.41791305 L 0.66213246,0.41742427 L 0.66066606,0.4172148 L 0.65919976,0.41707514 L 0.65773346,0.41686567 L 0.65626706,0.41679584 L 0.65487056,0.41665619 L 0.65347406,0.41658637 L 0.65214736,0.41658637 L 0.65089056,0.41658637 L 0.64970346,0.41658637 L 0.64851646,0.41672602 C 0.64851646,0.41672602 0.64823716,0.36708008 0.56703008,0.33028204 C 0.56703008,0.33028204 0.58043657,0.31359374 0.58392786,0.30591293 C 0.58392786,0.30591293 0.67218737,0.33572843 0.68433697,0.42224223 z "/>
  <path id="path292" style="font-style:normal;font-variant:normal;font-weight:normal;font-stretch:normal;letter-spacing:normal;word-spacing:normal;text-anchor:start;fill:#333366;fill-opacity:1;stroke:#231f1f;stroke-width:0;stroke-linecap:butt;stroke-linejoin:miter;stroke-miterlimit:10.43299961;stroke-dasharray:none;stroke-dashoffset:0;stroke-opacity:1" d="M 0.76582338,0.45945923 L 0.76575348,0.4593894 L 0.76561388,0.45924975 L 0.76533458,0.45904028 L 0.76498548,0.45876097 L 0.76456648,0.45841185 L 0.76400788,0.45799289 L 0.76337948,0.45750412 L 0.76261138,0.45694551 L 0.76184328,0.45631708 L 0.76093558,0.45561883 L 0.75995798,0.45485075 L 0.75884078,0.45408267 L 0.75772358,0.45324476 L 0.75646668,0.45240685 L 0.75513998,0.4514293 L 0.75374347,0.45052156 L 0.75227717,0.44947418 L 0.75074097,0.44849662 L 0.74913507,0.44744924 L 0.74738937,0.44633203 L 0.74564377,0.44528465 L 0.74382827,0.44416744 L 0.74194297,0.44298041 L 0.73998787,0.4418632 L 0.73796297,0.44074599 L 0.73593797,0.43955896 L 0.73377347,0.43837193 L 0.73160887,0.43725472 L 0.72937437,0.43606768 L 0.72707017,0.43495048 L 0.72469607,0.43383327 L 0.72232207,0.43271606 C 0.72232207,0.43271606 0.70032697,0.29941916 0.59105005,0.2940426 C 0.59105005,0.2940426 0.59824211,0.27958872 0.603479,0.27065105 C 0.60487551,0.26841663 0.60836679,0.26653135 0.6097633,0.26576327 C 0.6097633,0.26576327 0.67525967,0.24837671 0.72951407,0.28650144 C 0.75430208,0.30388799 0.78334958,0.35276585 0.80729968,0.41351404 C 0.82726978,0.46357893 0.85233719,0.50414758 0.85834219,0.51231713 C 0.85834219,0.51231713 0.83306528,0.50938447 0.81763388,0.49367375 C 0.79640698,0.47237695 0.76289068,0.36694043 0.74075597,0.33663616 C 0.71938937,0.30696032 0.69955897,0.28084558 0.63776336,0.28440668 C 0.63776336,0.28440668 0.68112497,0.29711492 0.70877587,0.33398279 C 0.74026717,0.3761574 0.76582338,0.45945923 0.76582338,0.45945923 z "/>
  <path id="path294" style="font-style:normal;font-variant:normal;font-weight:normal;font-stretch:normal;letter-spacing:normal;word-spacing:normal;text-anchor:start;fill:#333366;fill-opacity:1;stroke:#231f1f;stroke-width:0;stroke-linecap:butt;stroke-linejoin:miter;stroke-miterlimit:10.43299961;stroke-dasharray:none;stroke-dashoffset:0;stroke-opacity:1" d="M 0.57261612,0.23839167 L 0.57121961,0.24174329 L 0.56989292,0.24502509 L 0.56856624,0.24816724 L 0.56723955,0.25130938 L 0.56591286,0.25431188 L 0.56465603,0.25731438 L 0.56332934,0.2601074 L 0.56200265,0.26290042 L 0.56067597,0.26562361 L 0.55934928,0.26820716 L 0.55802259,0.27065105 L 0.5566959,0.27309494 L 0.55529939,0.27539919 L 0.55390288,0.27756378 L 0.55243655,0.27965854 L 0.55097022,0.28161366 L 0.54943406,0.28349894 L 0.54789791,0.28531441 L 0.54629189,0.28692039 L 0.5446161,0.28845656 L 0.5429403,0.28985307 L 0.54119464,0.29117975 L 0.53937916,0.29236678 L 0.5374939,0.29341417 L 0.53546896,0.2943219 L 0.53344402,0.29508998 L 0.53134925,0.29578823 L 0.52918466,0.29627701 L 0.52688039,0.29669597 L 0.52457616,0.29690544 L 0.52213229,0.29704509 L 0.51954874,0.29697527 C 0.46710977,0.29453138 0.45901,0.26345902 0.45852125,0.25919967 C 0.45775317,0.25319467 0.46885539,0.2467009 0.46885539,0.2467009 C 0.46592273,0.2467009 0.44343892,0.24809741 0.41501993,0.23964852 C 0.37570817,0.22826697 0.37556852,0.25521961 0.37556852,0.25521961 C 0.37556852,0.25521961 0.32724928,0.2425812 0.32082529,0.26715978 C 0.31775298,0.27868098 0.32047618,0.2951598 0.32047618,0.2951598 C 0.32047618,0.2951598 0.35552859,0.27651639 0.38248125,0.29865108 C 0.40552367,0.3178531 0.41027177,0.33370349 0.44343892,0.37168856 C 0.46040651,0.39089058 0.5032794,0.45408267 0.5575338,0.42559386 C 0.5575338,0.42559386 0.55013232,0.41134945 0.51389287,0.38718983 C 0.49804247,0.376716 0.47374318,0.36596287 0.45824192,0.35353393 C 0.44378803,0.34180325 0.4379227,0.33712494 0.40908477,0.30388799 C 0.39693511,0.28992289 0.35999741,0.27113983 0.33863082,0.27826203 C 0.3366757,0.27896029 0.33632659,0.28070592 0.33465076,0.28189296 C 0.33465076,0.28189296 0.33402232,0.27253634 0.33541884,0.26883559 C 0.33744378,0.26359867 0.35908969,0.26206251 0.38506477,0.26946402 C 0.38506477,0.26946402 0.38003734,0.24886549 0.40042638,0.25242659 C 0.42102494,0.25605752 0.44120451,0.26304007 0.44748881,0.26129443 C 0.44748881,0.26129443 0.44790774,0.30877578 0.52262104,0.31359374 C 0.55934928,0.31589798 0.5744316,0.27588796 0.58364857,0.26059618 C 0.58644159,0.25605752 0.59286553,0.24718968 0.59949893,0.24544404 C 0.64774836,0.23259615 0.73642677,0.23350388 0.79040188,0.32490547 C 0.81281588,0.36337933 0.84772869,0.44312006 0.86246189,0.46818742 C 0.89905039,0.53089073 0.926422,0.51950919 0.9498136,0.49800292 C 0.9498136,0.49800292 0.91518009,0.51727474 0.88431719,0.44619238 C 0.87035209,0.413933 0.82238198,0.30877578 0.78621238,0.27623709 C 0.76812758,0.25975827 0.74180337,0.23476074 0.69404267,0.22477569 C 0.59928947,0.2050849 0.57261612,0.23839167 0.57261612,0.23839167 z "/>
  <path id="path296" style="font-style:normal;font-variant:normal;font-weight:normal;font-stretch:normal;letter-spacing:normal;word-spacing:normal;text-anchor:start;fill:#333366;fill-opacity:1;stroke:#231f1f;stroke-width:0;stroke-linecap:butt;stroke-linejoin:miter;stroke-miterlimit:10.43299961;stroke-dasharray:none;stroke-dashoffset:0;stroke-opacity:1" d="M 0.035867362,0.37476089 L 0.035588072,0.37888059 C 0.026161611,0.37888059 0.01771273,0.38104518 0.0154085,0.39137936 C 0.01345337,0.4002472 0.01757308,0.407928 0.026790041,0.41009259 C 0.049832464,0.41518986 0.053253914,0.37357385 0.077483387,0.37902024 C 0.092705359,0.38244169 0.1013637,0.39487063 0.097313819,0.41253649 C 0.095498379,0.42084572 0.091169199,0.43083077 0.085513298,0.43592803 L 0.065194076,0.43285571 L 0.065054436,0.42852653 C 0.071687876,0.42901531 0.077204097,0.42887566 0.081044488,0.42775845 C 0.086700348,0.42643176 0.091518309,0.4174941 0.092565669,0.41225718 C 0.094869939,0.40227214 0.091518309,0.39347412 0.080904838,0.39123971 C 0.060306295,0.38663122 0.057862415,0.42838688 0.027278831,0.42147415 C 0.01436113,0.41868113 0.0063311787,0.40625219 0.010171599,0.38935442 C 0.011428429,0.38334942 0.01478006,0.37797286 0.01680501,0.37231699 L 0.035867362,0.37476089 z "/>
  <path id="path298" style="font-style:normal;font-variant:normal;font-weight:normal;font-stretch:normal;letter-spacing:normal;word-spacing:normal;text-anchor:start;fill:#333366;fill-opacity:1;stroke:#231f1f;stroke-width:0;stroke-linecap:butt;stroke-linejoin:miter;stroke-miterlimit:10.43299961;stroke-dashoffset:0;stroke-opacity:1" d="M 0.10687992,0.27127948 L 0.10890487,0.27232686 L 0.11092981,0.27337425 L 0.11281511,0.27456128 L 0.11463055,0.27574831 L 0.11637621,0.27700517 L 0.11805201,0.27840168 L 0.11958816,0.27979819 L 0.12105449,0.28126453 L 0.122451,0.28280069 L 0.12370787,0.28433685 L 0.12489491,0.28601266 L 0.1260121,0.28768848 L 0.12698968,0.28943411 L 0.1278974,0.29117975 L 0.12866547,0.29299521 L 0.12943355,0.2948805 L 0.12999216,0.29676579 L 0.13048095,0.29872091 L 0.13089988,0.30074585 L 0.13124903,0.30277079 L 0.13138867,0.30479573 L 0.13152832,0.30689049 L 0.13152832,0.30898526 L 0.13138867,0.31114985 L 0.13117921,0.31331444 L 0.13083006,0.31547903 L 0.13041113,0.31771344 L 0.12985252,0.31994786 L 0.12922409,0.32218228 L 0.12845601,0.32441669 L 0.12754829,0.32672094 L 0.12657071,0.32895535 C 0.11351333,0.35772346 0.089772689,0.36351898 0.067219026,0.3531848 C 0.041523223,0.34138429 0.032026982,0.31876083 0.043408523,0.29418225 C 0.056605555,0.26548396 0.081044488,0.25947897 0.10687992,0.27127948 z M 0.12259064,0.32651146 L 0.12342858,0.32455634 L 0.12412684,0.32260123 L 0.12468545,0.32078577 L 0.12510438,0.31890048 L 0.12545353,0.31715484 L 0.12566299,0.3154092 L 0.12573281,0.31366357 L 0.12573281,0.31198775 L 0.12559317,0.31031194 L 0.12531384,0.30870595 L 0.12496473,0.30716979 L 0.12454577,0.30563363 L 0.12398715,0.30409747 L 0.12335876,0.30263113 L 0.12266051,0.30123462 L 0.12182257,0.29983811 L 0.12091485,0.29851143 L 0.12000713,0.29718474 L 0.11895972,0.29592789 L 0.11784254,0.29467103 L 0.1166555,0.29348399 L 0.11539863,0.29229696 L 0.11414176,0.29117975 L 0.11274525,0.29006254 L 0.11134874,0.28901516 L 0.10988241,0.2880376 L 0.10834626,0.28706005 L 0.1068101,0.28608249 L 0.10520413,0.28517476 L 0.10359811,0.28433685 L 0.10192232,0.28349894 L 0.10024652,0.28266104 C 0.076575667,0.27190791 0.054929754,0.28021715 0.047528234,0.29669597 C 0.039707783,0.31338426 0.046899804,0.32951396 0.067358666,0.3389404 C 0.092286389,0.35032196 0.11365301,0.34599278 0.12259064,0.32651146 z "/>
  <path id="path302" style="font-style:normal;font-variant:normal;font-weight:normal;font-stretch:normal;letter-spacing:normal;word-spacing:normal;text-anchor:start;fill:#333366;fill-opacity:1;stroke:#231f1f;stroke-width:0;stroke-linecap:butt;stroke-linejoin:miter;stroke-miterlimit:10.43299961;stroke-dasharray:none;stroke-dashoffset:0;stroke-opacity:1" d="M 0.15373285,0.1741522 L 0.15100964,0.17757365 C 0.14144357,0.171429 0.12964306,0.17031179 0.11490988,0.18888538 C 0.10115424,0.20627193 0.10087491,0.22303005 0.1188899,0.23734428 C 0.13886002,0.25319467 0.16497475,0.25305502 0.179289,0.23504004 C 0.18724909,0.22477569 0.18927404,0.21304501 0.18445607,0.20089537 L 0.18829649,0.19998764 L 0.19569797,0.21751384 C 0.19199723,0.22596272 0.18759824,0.23336423 0.18264063,0.23964852 C 0.16511439,0.26178321 0.14144357,0.27065105 0.11560813,0.250262 C 0.093822539,0.2330151 0.091308849,0.2094839 0.11106945,0.18490533 C 0.11658567,0.1779926 0.12712932,0.16737912 0.13529892,0.16123448 L 0.15373285,0.1741522 z "/>
  <polygon id="polygon304" style="font-style:normal;font-variant:normal;font-weight:normal;font-stretch:normal;letter-spacing:normal;word-spacing:normal;text-anchor:start;fill:#333366;fill-opacity:1;stroke:#231f1f;stroke-width:0;stroke-linecap:butt;stroke-linejoin:miter;stroke-miterlimit:10.43299961;stroke-dasharray:none;stroke-dashoffset:0;stroke-opacity:1" points="258.98,677.16 266.05,669.3 267.55,670.23 267.95,669.78 264.07,666.31 263.65,666.75 264.75,668.14 257.69,675.99 256.19,675.07 255.79,675.51 259.67,678.98 260.09,678.55 258.98,677.16 " transform="matrix(6.9825518e-3,0,0,-6.982551e-3,-1.6338702,4.8588155)"/>
  <path id="polygon306" style="font-style:normal;font-variant:normal;font-weight:normal;font-stretch:normal;letter-spacing:normal;word-spacing:normal;text-anchor:start;fill:#333366;fill-opacity:1;stroke:#231f1f;stroke-width:0;stroke-linecap:butt;stroke-linejoin:miter;stroke-miterlimit:10.43299961;stroke-dashoffset:0;stroke-opacity:1" d="M 0.24715943,0.13546888 L 0.25316442,0.16200257 L 0.26461581,0.15739409 L 0.26685023,0.16095519 L 0.24059583,0.17757366 L 0.23843124,0.17387291 L 0.24611205,0.1664714 L 0.2298427,0.079957596 L 0.23521927,0.076536146 L 0.30762833,0.12778807 L 0.31775303,0.12394767 L 0.31991762,0.12743894 L 0.28961334,0.14650131 L 0.28744875,0.14294021 L 0.29652607,0.13484045 L 0.27383278,0.11871075 L 0.24715943,0.13546888 z M 0.2459724,0.12883545 L 0.26824674,0.11480053 L 0.23892002,0.093922698 L 0.2459724,0.12883545 z "/>
  <polygon id="polygon310" style="font-style:normal;font-variant:normal;font-weight:normal;font-stretch:normal;letter-spacing:normal;word-spacing:normal;text-anchor:start;fill:#333366;fill-opacity:1;stroke:#231f1f;stroke-width:0;stroke-linecap:butt;stroke-linejoin:miter;stroke-miterlimit:10.43299961;stroke-dasharray:none;stroke-dashoffset:0;stroke-opacity:1" points="280.84,678.52 282.38,679.41 278.77,689.33 277.06,689.02 276.84,689.6 281.75,691.38 281.94,690.81 280.43,689.93 283.95,680.15 288.2,681.7 288.35,684.29 288.9,684.49 289.34,680.95 281.06,677.95 280.84,678.52 " transform="matrix(6.9825518e-3,0,0,-6.982551e-3,-1.6338702,4.8588155)"/>
  <path id="path312" style="font-style:normal;font-variant:normal;font-weight:normal;font-stretch:normal;letter-spacing:normal;word-spacing:normal;text-anchor:start;fill:#333366;fill-opacity:1;stroke:#231f1f;stroke-width:0;stroke-linecap:butt;stroke-linejoin:miter;stroke-miterlimit:10.43299961;stroke-dasharray:none;stroke-dashoffset:0;stroke-opacity:1" d="M 0.5085163,0.021373977 L 0.50432677,0.022002407 C 0.50216218,0.012925087 0.49790283,0.0052442871 0.48756863,0.0055934171 C 0.47835168,0.0058727171 0.47192774,0.011668237 0.47220702,0.021094677 C 0.47283546,0.044765527 0.51389287,0.037852797 0.51466095,0.062710677 C 0.51494024,0.078421417 0.5049552,0.089593497 0.4869402,0.090221927 C 0.47849132,0.090361577 0.46773821,0.088685767 0.46145391,0.084356587 L 0.45949879,0.063967537 L 0.4636185,0.062850327 C 0.46466586,0.069344107 0.46641152,0.074581017 0.468227,0.078072297 C 0.47102002,0.083169557 0.48086541,0.085613447 0.4861023,0.085473797 C 0.4961572,0.085124667 0.50390784,0.079957577 0.50355869,0.068994977 C 0.50300008,0.047837847 0.46208234,0.055797957 0.46117458,0.024306647 C 0.46082548,0.011249277 0.47088033,0.0004961471 0.48819707,7.3770958e-06 C 0.49420208,-0.0001322829 0.50020706,0.0017530071 0.50621207,0.0021719671 L 0.5085163,0.021373977 z "/>
  <path id="path314" style="font-style:normal;font-variant:normal;font-weight:normal;font-stretch:normal;letter-spacing:normal;word-spacing:normal;text-anchor:start;fill:#333366;fill-opacity:1;stroke:#231f1f;stroke-width:0;stroke-linecap:butt;stroke-linejoin:miter;stroke-miterlimit:10.43299961;stroke-dasharray:none;stroke-dashoffset:0;stroke-opacity:1" d="M 0.5585812,0.045533607 L 0.58120465,0.048885227 L 0.58490544,0.040157037 L 0.58846654,0.040575997 C 0.58672088,0.047069767 0.58504508,0.058590977 0.58469593,0.065364047 L 0.58106501,0.064735617 L 0.58029693,0.055029877 L 0.55767348,0.051678247 L 0.55257619,0.084985017 L 0.58658124,0.090082277 L 0.59349397,0.077513687 L 0.59796278,0.078211947 L 0.58979323,0.098251867 L 0.52757865,0.089034897 L 0.52820708,0.084845367 L 0.54049639,0.084566067 L 0.55138918,0.011528577 L 0.53972831,0.0076881771 L 0.54028692,0.0035684771 L 0.59670595,0.012017357 L 0.59565855,0.031079727 L 0.59195781,0.030451297 L 0.59042166,0.018022357 L 0.56339916,0.014042297 L 0.5585812,0.045533607 z "/>
  <path id="path316" style="font-style:normal;font-variant:normal;font-weight:normal;font-stretch:normal;letter-spacing:normal;word-spacing:normal;text-anchor:start;fill:#333366;fill-opacity:1;stroke:#231f1f;stroke-width:0;stroke-linecap:butt;stroke-linejoin:miter;stroke-miterlimit:10.43299961;stroke-dasharray:none;stroke-dashoffset:0;stroke-opacity:1" d="M 0.70493547,0.071787997 L 0.70095547,0.070251837 C 0.70367867,0.059219407 0.70123477,0.047698197 0.67896037,0.039388957 C 0.65822226,0.031498677 0.64223216,0.036456287 0.63406256,0.057962547 C 0.62512491,0.081773047 0.63329446,0.10670075 0.65480076,0.11466086 C 0.66695036,0.11926935 0.67882077,0.11759353 0.68894547,0.1092843 L 0.69097037,0.11263592 L 0.67665617,0.12513469 C 0.66743916,0.12422696 0.65899026,0.12220202 0.65144916,0.11926935 C 0.62498527,0.10942395 0.60913486,0.089593497 0.62072591,0.058870277 C 0.63057126,0.032895187 0.65207756,0.023398917 0.68154397,0.034431347 C 0.68985317,0.037503667 0.70325967,0.044416397 0.71149907,0.050421387 L 0.70493547,0.071787997 z "/>
  <path id="path318" style="font-style:normal;font-variant:normal;font-weight:normal;font-stretch:normal;letter-spacing:normal;word-spacing:normal;text-anchor:start;fill:#333366;fill-opacity:1;stroke:#231f1f;stroke-width:0;stroke-linecap:butt;stroke-linejoin:miter;stroke-miterlimit:10.43299961;stroke-dasharray:none;stroke-dashoffset:0;stroke-opacity:1" d="M 0.80576358,0.11452121 L 0.78258148,0.14880554 C 0.76903528,0.16877563 0.75150907,0.17708487 0.72846667,0.16151378 C 0.70675097,0.14699007 0.70507517,0.12918457 0.71610757,0.11361348 L 0.74382827,0.072556077 L 0.73510007,0.064107187 L 0.73733457,0.060546087 L 0.76749918,0.081004967 L 0.76519488,0.084356587 L 0.75395298,0.079329147 L 0.72874597,0.1166858 C 0.71813247,0.13176811 0.71736437,0.14587287 0.73307517,0.15648634 C 0.73810257,0.15990779 0.74766867,0.16353872 0.75674608,0.16081552 C 0.76393808,0.15865093 0.77008268,0.14971327 0.77378348,0.1440574 L 0.79759398,0.109005 L 0.78872608,0.10034663 L 0.79116998,0.096855357 L 0.81944928,0.11605737 L 0.81700548,0.11961847 L 0.80576358,0.11452121 z "/>
  <path id="path320" style="font-style:normal;font-variant:normal;font-weight:normal;font-stretch:normal;letter-spacing:normal;word-spacing:normal;text-anchor:start;fill:#333366;fill-opacity:1;stroke:#231f1f;stroke-width:0;stroke-linecap:butt;stroke-linejoin:miter;stroke-miterlimit:10.43299961;stroke-dashoffset:0;stroke-opacity:1" d="M 0.78872608,0.1979627 L 0.84291069,0.1478978 L 0.83585828,0.13707485 L 0.83893068,0.13435166 L 0.86651169,0.16416715 C 0.87475119,0.17324447 0.87817259,0.18616218 0.86727979,0.19614723 C 0.85952919,0.20333926 0.84800799,0.20431682 0.83802288,0.20194275 L 0.83306528,0.22812732 C 0.83173858,0.23566847 0.82957398,0.24516474 0.83250668,0.25319467 L 0.82894558,0.25466101 L 0.82433708,0.24621212 C 0.82301048,0.24362858 0.82063638,0.23936922 0.82063638,0.23825201 C 0.82252168,0.22379813 0.82524488,0.2092046 0.82845678,0.19565845 C 0.82545428,0.19293526 0.82238198,0.18986294 0.81910018,0.18630184 L 0.79682588,0.20690036 L 0.80359898,0.21716471 L 0.80038698,0.22016721 L 0.77531958,0.19293526 L 0.77839198,0.19000259 L 0.78872608,0.1979627 z M 0.82328978,0.18260108 L 0.82342938,0.18281056 L 0.82356898,0.18302004 L 0.82377848,0.18322951 L 0.82398798,0.18343899 L 0.82419748,0.18371829 L 0.82440698,0.18392777 L 0.82461638,0.18420707 L 0.82482588,0.18441655 L 0.82503538,0.18469585 L 0.82524488,0.18490533 L 0.82552418,0.18518463 L 0.82573358,0.1853941 L 0.82622238,0.18595271 L 0.82664138,0.18644149 C 0.83697558,0.19768339 0.84249179,0.20257118 0.85526979,0.19077067 C 0.86539449,0.18141405 0.86651169,0.17094022 0.85694559,0.16067587 C 0.85526979,0.15879058 0.85352419,0.15725442 0.85184839,0.15620704 L 0.82328978,0.18260108 z "/>
  <polygon id="polygon324" style="font-style:normal;font-variant:normal;font-weight:normal;font-stretch:normal;letter-spacing:normal;word-spacing:normal;text-anchor:start;fill:#333366;fill-opacity:1;stroke:#231f1f;stroke-width:0;stroke-linecap:butt;stroke-linejoin:miter;stroke-miterlimit:10.43299961;stroke-dasharray:none;stroke-dashoffset:0;stroke-opacity:1" points="364.97,662.12 356.17,656.31 356.88,654.68 356.37,654.35 353.48,658.72 353.99,659.04 355.2,657.77 364.03,663.58 363.32,665.21 363.83,665.53 366.69,661.18 366.18,660.85 364.97,662.12 " transform="matrix(6.9825518e-3,0,0,-6.982551e-3,-1.6338702,4.8588155)"/>
  <path id="path326" style="font-style:normal;font-variant:normal;font-weight:normal;font-stretch:normal;letter-spacing:normal;word-spacing:normal;text-anchor:start;fill:#333366;fill-opacity:1;stroke:#231f1f;stroke-width:0;stroke-linecap:butt;stroke-linejoin:miter;stroke-miterlimit:10.43299961;stroke-dasharray:none;stroke-dashoffset:0;stroke-opacity:1" d="M 0.87894069,0.32490547 L 0.945624,0.29495033 L 0.9393397,0.28098523 C 0.9374545,0.27700517 0.935639,0.27330442 0.9337537,0.26988297 L 0.91950929,0.27162861 L 0.91762399,0.26764855 L 0.9380829,0.26129443 L 0.9713198,0.33523965 L 0.9523971,0.34494539 L 0.9505118,0.34075586 L 0.9618934,0.33251645 C 0.9604969,0.32874588 0.9588211,0.32462617 0.9570056,0.32029699 L 0.9505118,0.30605258 L 0.88382849,0.33600773 L 0.88752919,0.3493444 L 0.88368879,0.35109004 L 0.86734959,0.31492042 L 0.87125989,0.31324461 L 0.87894069,0.32490547 z "/>
  <polygon id="polygon328" style="font-style:normal;font-variant:normal;font-weight:normal;font-stretch:normal;letter-spacing:normal;word-spacing:normal;text-anchor:start;fill:#333366;fill-opacity:1;stroke:#231f1f;stroke-width:0;stroke-linecap:butt;stroke-linejoin:miter;stroke-miterlimit:10.43299961;stroke-dasharray:none;stroke-dashoffset:0;stroke-opacity:1" points="363.87,637.67 368.08,638.61 373.36,643.7 373.27,645.47 373.87,645.59 375.04,640.31 374.46,640.18 373.78,641.83 369.46,637.58 375.1,635.95 375.01,637.72 375.59,637.84 376.55,633.55 375.96,633.42 375.36,634.74 368.43,636.92 364.25,635.97 364.4,633.88 363.83,633.75 362.53,639.52 363.12,639.63 363.87,637.67 " transform="matrix(6.9825518e-3,0,0,-6.982551e-3,-1.6338702,4.8588155)"/>
  <path id="polygon330" style="font-style:normal;font-variant:normal;font-weight:normal;font-stretch:normal;letter-spacing:normal;word-spacing:normal;text-anchor:start;fill:#333366;fill-opacity:1;stroke:#231f1f;stroke-width:0;stroke-linecap:butt;stroke-linejoin:miter;stroke-miterlimit:10.43299961;stroke-dashoffset:0;stroke-opacity:1" d="M 0.04229136,0.60022747 L 0.014989582,0.59778358 L 0.016036965,0.61007287 L 0.011917259,0.61119008 L 0.0041666268,0.58130476 L 0.0083561578,0.58025737 L 0.012964642,0.58996312 L 0.10045602,0.60050677 L 0.10192235,0.60665142 L 0.031119277,0.66020758 L 0.031747706,0.67082106 L 0.027558175,0.67186844 L 0.018620509,0.63723499 L 0.02281004,0.63618761 L 0.027837477,0.64742952 L 0.050181643,0.63067139 L 0.04229136,0.60022747 z M 0.048924784,0.6011352 L 0.055418557,0.62669134 L 0.084256496,0.60497561 L 0.048924784,0.6011352 z "/>
  <path id="path334" style="font-style:normal;font-variant:normal;font-weight:normal;font-stretch:normal;letter-spacing:normal;word-spacing:normal;text-anchor:start;fill:#333366;fill-opacity:1;stroke:#231f1f;stroke-width:0;stroke-linecap:butt;stroke-linejoin:miter;stroke-miterlimit:10.43299961;stroke-dashoffset:0;stroke-opacity:1" d="M 0.037403552,0.68080611 L 0.044805033,0.69072133 L 0.1103712,0.65727491 L 0.10687992,0.64540457 L 0.11058066,0.64358909 L 0.1314585,0.6846465 C 0.14332883,0.70782856 0.14528395,0.73254681 0.11749339,0.74658173 C 0.088306318,0.76145456 0.066450946,0.74748945 0.053672884,0.72242209 L 0.033563132,0.68276119 L 0.037403552,0.68080611 z M 0.050949684,0.70105551 L 0.051368654,0.70245198 L 0.051857404,0.70384853 L 0.052276374,0.70517518 L 0.052695304,0.70650187 L 0.053184094,0.70775874 L 0.053603064,0.70908542 L 0.054510784,0.71159916 L 0.054999575,0.71285599 L 0.055488325,0.71411285 L 0.055977115,0.71536972 L 0.056535735,0.71662659 L 0.057094345,0.71795328 L 0.057652955,0.71921014 L 0.058281345,0.72046697 L 0.058909785,0.72179366 C 0.068615536,0.74071637 0.086281418,0.74776874 0.10729889,0.73701563 C 0.13285501,0.72409793 0.13606699,0.70398817 0.12440612,0.6810854 C 0.12210189,0.6764769 0.11958816,0.67200808 0.11686496,0.66753927 L 0.050949684,0.70105551 z "/>
  <polygon id="polygon338" style="font-style:normal;font-variant:normal;font-weight:normal;font-stretch:normal;letter-spacing:normal;word-spacing:normal;text-anchor:start;fill:#333366;fill-opacity:1;stroke:#231f1f;stroke-width:0;stroke-linecap:butt;stroke-linejoin:miter;stroke-miterlimit:10.43299961;stroke-dasharray:none;stroke-dashoffset:0;stroke-opacity:1" points="264.82,579.91 257.64,572.07 258.52,570.64 258.08,570.25 254.67,574.05 255.11,574.45 256.5,573.37 263.28,580.68 263.25,580.7 263.21,580.68 252.25,576.87 252.12,577.05 256.94,587.4 256.92,587.41 256.89,587.4 249.1,581.65 249.96,580.22 249.52,579.82 246.72,582.92 247.18,583.34 248.42,582.42 257,588.65 255.97,590.25 256.43,590.67 259.01,587.79 254.82,578.78 264.16,582 266.69,579.18 266.25,578.77 264.82,579.91 " transform="matrix(6.9825518e-3,0,0,-6.982551e-3,-1.6338702,4.8588155)"/>
  <polygon id="polygon340" style="font-style:normal;font-variant:normal;font-weight:normal;font-stretch:normal;letter-spacing:normal;word-spacing:normal;text-anchor:start;fill:#333366;fill-opacity:1;stroke:#231f1f;stroke-width:0;stroke-linecap:butt;stroke-linejoin:miter;stroke-miterlimit:10.43299961;stroke-dasharray:none;stroke-dashoffset:0;stroke-opacity:1" points="270.21,575.53 263.87,567.07 265.08,565.78 264.71,565.29 260.55,568.44 260.9,568.9 262.48,568.11 268.82,576.56 267.61,577.86 267.96,578.32 272.15,575.2 271.77,574.72 270.21,575.53 " transform="matrix(6.9825518e-3,0,0,-6.982551e-3,-1.6338702,4.8588155)"/>
  <path id="path342" style="font-style:normal;font-variant:normal;font-weight:normal;font-stretch:normal;letter-spacing:normal;word-spacing:normal;text-anchor:start;fill:#333366;fill-opacity:1;stroke:#231f1f;stroke-width:0;stroke-linecap:butt;stroke-linejoin:miter;stroke-miterlimit:10.43299961;stroke-dasharray:none;stroke-dashoffset:0;stroke-opacity:1" d="M 0.24995242,0.92624276 L 0.28228162,0.8598387 L 0.27222676,0.85278633 L 0.27411202,0.84894591 L 0.29457092,0.8587913 L 0.31977793,0.94607319 L 0.3465211,0.89105072 L 0.33646624,0.88399831 L 0.3383515,0.88015793 L 0.36649121,0.89384374 L 0.36474555,0.89768412 L 0.35294503,0.89426267 L 0.31740384,0.96695102 L 0.31188766,0.964158 C 0.30853602,0.95221784 0.29052103,0.89042229 0.28486517,0.87108061 L 0.25644618,0.92945475 L 0.26685018,0.93685623 L 0.2650347,0.94048715 L 0.23633641,0.92666173 L 0.23815189,0.92282131 L 0.24995242,0.92624276 z "/>
  <polygon id="polygon344" style="font-style:normal;font-variant:normal;font-weight:normal;font-stretch:normal;letter-spacing:normal;word-spacing:normal;text-anchor:start;fill:#333366;fill-opacity:1;stroke:#231f1f;stroke-width:0;stroke-linecap:butt;stroke-linejoin:miter;stroke-miterlimit:10.43299961;stroke-dasharray:none;stroke-dashoffset:0;stroke-opacity:1" points="291.17,565.75 288.48,555.52 290.09,554.79 289.93,554.22 284.87,555.54 285.02,556.11 286.79,555.96 289.47,566.2 287.86,566.92 288.02,567.52 293.06,566.2 292.91,565.6 291.17,565.75 " transform="matrix(6.9825518e-3,0,0,-6.982551e-3,-1.6338702,4.8588155)"/>
  <path id="path346" style="font-style:normal;font-variant:normal;font-weight:normal;font-stretch:normal;letter-spacing:normal;word-spacing:normal;text-anchor:start;fill:#333366;fill-opacity:1;stroke:#231f1f;stroke-width:0;stroke-linecap:butt;stroke-linejoin:miter;stroke-miterlimit:10.43299961;stroke-dasharray:none;stroke-dashoffset:0;stroke-opacity:1" d="M 0.4702519,0.93469164 L 0.46606237,0.93483129 C 0.46529429,0.92561433 0.46208234,0.91730509 0.45160852,0.91611808 C 0.4425312,0.91500086 0.43533915,0.91995847 0.43422196,0.92917543 C 0.43149876,0.95270663 0.47311474,0.95172909 0.4702519,0.97665677 C 0.46836664,0.99215803 0.45684541,1.0018638 0.43883042,0.99969919 C 0.43038154,0.99879147 0.41997753,0.99537002 0.41446135,0.99034259 L 0.41550872,0.96974404 L 0.41962843,0.96932511 C 0.41983789,0.9758887 0.42074565,0.98140491 0.42193266,0.98496601 C 0.42409724,0.99048223 0.4333142,0.99432265 0.43869078,0.99495105 C 0.4488155,0.99620791 0.45712474,0.99201838 0.45852125,0.98126527 C 0.46103494,0.96017798 0.41920946,0.96206324 0.42291024,0.93085126 C 0.42444639,0.91779388 0.43596758,0.90857692 0.45314467,0.91074151 C 0.45914968,0.91130012 0.46501501,0.91423278 0.47088033,0.91548965 L 0.4702519,0.93469164 z "/>
  <path id="path348" style="font-style:normal;font-variant:normal;font-weight:normal;font-stretch:normal;letter-spacing:normal;word-spacing:normal;text-anchor:start;fill:#333366;fill-opacity:1;stroke:#231f1f;stroke-width:0;stroke-linecap:butt;stroke-linejoin:miter;stroke-miterlimit:10.43299961;stroke-dasharray:none;stroke-dashoffset:0;stroke-opacity:1" d="M 0.52897516,0.9917391 L 0.52373827,0.9187016 L 0.50837665,0.919749 C 0.50404748,0.92009811 0.49992777,0.92072654 0.4961572,0.92114551 L 0.49266593,0.93511061 L 0.48854622,0.93545972 L 0.48959358,0.91423278 L 0.57024207,0.90843728 L 0.57303509,0.92945475 L 0.56842659,0.92973404 L 0.56444653,0.91625773 C 0.5604665,0.91625773 0.55599764,0.91639737 0.55152883,0.91667665 L 0.53567842,0.91779388 L 0.541055,0.99076152 L 0.55488046,0.99187874 L 0.55522957,0.99620791 L 0.51570831,0.99893111 L 0.51542903,0.9948114 L 0.52897516,0.9917391 z "/>
  <path id="path350" style="font-style:normal;font-variant:normal;font-weight:normal;font-stretch:normal;letter-spacing:normal;word-spacing:normal;text-anchor:start;fill:#333366;fill-opacity:1;stroke:#231f1f;stroke-width:0;stroke-linecap:butt;stroke-linejoin:miter;stroke-miterlimit:10.43299961;stroke-dashoffset:0;stroke-opacity:1" d="M 0.61290546,0.9800084 L 0.59195781,0.909345 L 0.57904006,0.91088115 L 0.5779927,0.90690108 L 0.61688549,0.89537989 C 0.62868596,0.8918188 0.64174336,0.89461182 0.64607256,0.90871656 C 0.64900526,0.91884124 0.64481566,0.92959439 0.63818226,0.93762431 L 0.65961876,0.95347471 C 0.66576336,0.95801339 0.67344417,0.96408818 0.68168357,0.96492608 L 0.68154397,0.96897597 L 0.67190797,0.96932511 C 0.66897537,0.96939493 0.66422716,0.96974404 0.66324966,0.96911561 C 0.65096036,0.96094605 0.63915986,0.95221784 0.62840676,0.94328017 C 0.62470598,0.94481636 0.62037677,0.94621287 0.61590795,0.94760938 L 0.6245663,0.97665677 L 0.63671596,0.97526026 L 0.63790296,0.97931015 L 0.60243164,0.98971415 L 0.60117477,0.98573409 L 0.61290546,0.9800084 z M 0.6143718,0.94223281 L 0.61451144,0.94223281 L 0.61465108,0.94216299 L 0.61479073,0.94216299 L 0.61486055,0.94209316 L 0.61500023,0.94209316 L 0.61513987,0.94202334 L 0.61541916,0.94195352 L 0.61576831,0.94188366 L 0.61604759,0.94174402 L 0.61632692,0.9416742 L 0.61667603,0.94160437 L 0.61702517,0.94146473 L 0.61730446,0.94139491 L 0.61800271,0.9411854 L 0.61835186,0.94111558 L 0.61870097,0.94104576 L 0.61898026,0.94090612 L 0.6193294,0.9408363 C 0.63392296,0.93650712 0.64069606,0.93378392 0.63580826,0.91716545 C 0.63196786,0.90382878 0.6228905,0.8984522 0.60948401,0.90229262 C 0.60717974,0.9030607 0.60501515,0.9038986 0.60333936,0.90487614 L 0.6143718,0.94223281 z "/>
  <path id="polygon354" style="font-style:normal;font-variant:normal;font-weight:normal;font-stretch:normal;letter-spacing:normal;word-spacing:normal;text-anchor:start;fill:#333366;fill-opacity:1;stroke:#231f1f;stroke-width:0;stroke-linecap:butt;stroke-linejoin:miter;stroke-miterlimit:10.43299961;stroke-dashoffset:0;stroke-opacity:1" d="M 0.70305024,0.9230308 L 0.70723977,0.95005328 L 0.71890063,0.94607322 L 0.72092557,0.94991362 L 0.69355397,0.96436751 L 0.69159885,0.96066675 L 0.69983826,0.95389368 L 0.68971356,0.86640231 L 0.69543925,0.86339982 L 0.76393809,0.91960935 L 0.77427226,0.91653703 L 0.77622738,0.92023778 L 0.74459642,0.93713556 L 0.74271113,0.9334348 L 0.75241688,0.925754 L 0.73091062,0.90808814 L 0.70305024,0.9230308 z M 0.70228216,0.91639738 L 0.7256737,0.90389861 L 0.69781332,0.88106567 L 0.70228216,0.91639738 z "/>
  <path id="path358" style="font-style:normal;font-variant:normal;font-weight:normal;font-stretch:normal;letter-spacing:normal;word-spacing:normal;text-anchor:start;fill:#333366;fill-opacity:1;stroke:#231f1f;stroke-width:0;stroke-linecap:butt;stroke-linejoin:miter;stroke-miterlimit:10.43299961;stroke-dasharray:none;stroke-dashoffset:0;stroke-opacity:1" d="M 0.80331958,0.8872103 L 0.75737448,0.83030253 L 0.74536447,0.84000827 C 0.74194297,0.84273143 0.73894047,0.84552445 0.73614747,0.84796837 L 0.74138437,0.8615145 L 0.73796297,0.86430752 L 0.72672107,0.84615289 L 0.78977348,0.79511044 L 0.80387828,0.81096085 L 0.80038698,0.81389351 L 0.78949418,0.80495584 C 0.78621238,0.80726011 0.78258148,0.80984362 0.77902038,0.81277633 L 0.76673108,0.82262172 L 0.81281588,0.87945967 L 0.82482588,0.87261676 L 0.82740948,0.87582875 L 0.79668618,0.90075647 L 0.79389318,0.89747466 L 0.80331958,0.8872103 z "/>
  <polygon id="polygon360" style="font-style:normal;font-variant:normal;font-weight:normal;font-stretch:normal;letter-spacing:normal;word-spacing:normal;text-anchor:start;fill:#333366;fill-opacity:1;stroke:#231f1f;stroke-width:0;stroke-linecap:butt;stroke-linejoin:miter;stroke-miterlimit:10.43299961;stroke-dasharray:none;stroke-dashoffset:0;stroke-opacity:1" points="351.24,585.19 359.18,578.23 360.55,579.34 361.01,578.94 357.55,575.02 357.12,575.42 358.04,576.91 350.09,583.89 348.71,582.79 348.27,583.19 351.7,587.1 352.14,586.71 351.24,585.19 " transform="matrix(6.9825518e-3,0,0,-6.982551e-3,-1.6338702,4.8588155)"/>
  <path id="path362" style="font-style:normal;font-variant:normal;font-weight:normal;font-stretch:normal;letter-spacing:normal;word-spacing:normal;text-anchor:start;fill:#333366;fill-opacity:1;stroke:#231f1f;stroke-width:0;stroke-linecap:butt;stroke-linejoin:miter;stroke-miterlimit:10.43299961;stroke-dashoffset:0;stroke-opacity:1" d="M 0.91413269,0.70531486 L 0.91608789,0.70657169 L 0.91790329,0.70789838 L 0.91964899,0.70929489 L 0.92125489,0.7106914 L 0.92286089,0.71222759 L 0.92425749,0.71376375 L 0.925654,0.71536972 L 0.9269108,0.71697569 L 0.9280978,0.71865153 L 0.9291452,0.72039715 L 0.9301228,0.72214281 L 0.9310305,0.72395825 L 0.9317986,0.72577372 L 0.932427,0.72765903 L 0.9329856,0.72961411 L 0.9334744,0.73156923 L 0.9338235,0.73352435 L 0.9341028,0.73547947 L 0.9342425,0.73750442 L 0.9343123,0.73959918 L 0.9343123,0.74162413 L 0.9341028,0.74371889 L 0.9338235,0.74581366 L 0.9334744,0.74790842 L 0.9329856,0.75000319 L 0.932427,0.75216778 L 0.9317288,0.75426254 L 0.9308909,0.75642713 L 0.9299831,0.75859171 L 0.9289357,0.76068648 L 0.9278186,0.76285107 L 0.9265617,0.76501565 C 0.90980359,0.79189849 0.88571369,0.79469152 0.86448679,0.78163413 C 0.84046679,0.76669149 0.83404288,0.74316028 0.84828729,0.72011786 C 0.86490579,0.69323502 0.88997309,0.69030236 0.91413269,0.70531486 z M 0.92286089,0.76194335 L 0.92390829,0.76012787 L 0.92488589,0.75831243 L 0.925654,0.75649695 L 0.9263522,0.75475129 L 0.9269108,0.75300567 L 0.9273298,0.75132988 L 0.927609,0.74965404 L 0.9277487,0.74797825 L 0.9278186,0.74630241 L 0.9278186,0.74469643 L 0.9276789,0.74309046 L 0.9273996,0.74148444 L 0.9270505,0.73994829 L 0.9266315,0.73841214 L 0.9260729,0.73694581 L 0.9254445,0.73547947 L 0.92474619,0.73401314 L 0.92397809,0.73261663 L 0.92307039,0.73122012 L 0.92209289,0.72982361 L 0.92111529,0.72849692 L 0.91999809,0.72724006 L 0.91888089,0.72591337 L 0.91762399,0.7246565 L 0.91636709,0.7234695 L 0.91504049,0.72228245 L 0.91364389,0.7210954 L 0.91224739,0.71997822 L 0.91078109,0.71893082 L 0.90924499,0.71781363 L 0.90770879,0.71683605 L 0.90610279,0.71578869 C 0.88417759,0.70210287 0.86155409,0.70782856 0.85205789,0.72305053 C 0.84221249,0.73876129 0.84744939,0.75558923 0.86665139,0.76745957 C 0.88983349,0.78191342 0.91147939,0.78037727 0.92286089,0.76194335 z "/>
  <path id="path366" style="font-style:normal;font-variant:normal;font-weight:normal;font-stretch:normal;letter-spacing:normal;word-spacing:normal;text-anchor:start;fill:#333366;fill-opacity:1;stroke:#231f1f;stroke-width:0;stroke-linecap:butt;stroke-linejoin:miter;stroke-miterlimit:10.43299961;stroke-dasharray:none;stroke-dashoffset:0;stroke-opacity:1" d="M 0.95526,0.68841706 L 0.88508529,0.66600308 L 0.87921999,0.67689587 L 0.87523989,0.67556918 L 0.88215259,0.65406292 L 0.9648261,0.61670629 L 0.90673119,0.59806287 L 0.90107539,0.60895566 L 0.89702549,0.60755915 L 0.90673119,0.57795311 L 0.91071129,0.57914016 L 0.90903549,0.5913596 L 0.9859134,0.61586835 L 0.9840979,0.62173372 C 0.9727163,0.62683097 0.91399309,0.65343448 0.89569879,0.66188337 L 0.9574246,0.68171383 L 0.9632899,0.67033229 L 0.9672699,0.67151929 L 0.957634,0.70196323 L 0.953654,0.70070636 L 0.95526,0.68841706 z "/>
  <polygon id="polygon368" style="font-style:normal;font-variant:normal;font-weight:normal;font-stretch:normal;letter-spacing:normal;word-spacing:normal;text-anchor:start;fill:#333366;fill-opacity:1;stroke:#231f1f;stroke-width:0;stroke-linecap:butt;stroke-linejoin:miter;stroke-miterlimit:10.43299961;stroke-dasharray:none;stroke-dashoffset:0;stroke-opacity:1" points="307.74,572.2 309.64,574.15 309.66,611.43 305.83,611.43 305.83,574.19 307.74,572.2 " transform="matrix(6.9825518e-3,0,0,-6.982551e-3,-1.6338702,4.8588155)"/>
  <path id="path370" style="font-style:normal;font-variant:normal;font-weight:normal;font-stretch:normal;letter-spacing:normal;word-spacing:normal;text-anchor:start;fill:#333366;fill-opacity:1;stroke:#231f1f;stroke-width:0;stroke-linecap:butt;stroke-linejoin:miter;stroke-miterlimit:10.43299961;stroke-dasharray:none;stroke-dashoffset:0;stroke-opacity:1" d="M 0.36802736,0.81326508 L 0.36802736,0.58947434 L 0.34142384,0.58947434 C 0.34142384,0.58947434 0.34142384,0.74902561 0.34142384,0.7738835 C 0.34142384,0.8135444 0.36802736,0.81326508 0.36802736,0.81326508 z "/>
  <polygon id="polygon372" style="font-style:normal;font-variant:normal;font-weight:normal;font-stretch:normal;letter-spacing:normal;word-spacing:normal;text-anchor:start;fill:#333366;fill-opacity:1;stroke:#231f1f;stroke-width:0;stroke-linecap:butt;stroke-linejoin:miter;stroke-miterlimit:10.43299961;stroke-dasharray:none;stroke-dashoffset:0;stroke-opacity:1" points="294.64,576.94 294.64,611.43 290.82,611.43 290.82,577.84 294.64,576.94 " transform="matrix(6.9825518e-3,0,0,-6.982551e-3,-1.6338702,4.8588155)"/>
  <polygon id="polygon374" style="font-style:normal;font-variant:normal;font-weight:normal;font-stretch:normal;letter-spacing:normal;word-spacing:normal;text-anchor:start;fill:#333366;fill-opacity:1;stroke:#231f1f;stroke-width:0;stroke-linecap:butt;stroke-linejoin:miter;stroke-miterlimit:10.43299961;stroke-dasharray:none;stroke-dashoffset:0;stroke-opacity:1" points="302.17,575 302.17,611.43 298.34,611.43 298.36,575.95 302.17,575 " transform="matrix(6.9825518e-3,0,0,-6.982551e-3,-1.6338702,4.8588155)"/>
  <path id="path376" style="font-style:normal;font-variant:normal;font-weight:normal;font-stretch:normal;letter-spacing:normal;word-spacing:normal;text-anchor:start;fill:#333366;fill-opacity:1;stroke:#231f1f;stroke-width:0;stroke-linecap:butt;stroke-linejoin:miter;stroke-miterlimit:10.43299961;stroke-dasharray:none;stroke-dashoffset:0;stroke-opacity:1" d="M 0.66450656,0.81277633 L 0.66450656,0.58898555 L 0.69124967,0.58898555 C 0.69124967,0.58898555 0.69124967,0.74853686 0.69124967,0.77346454 C 0.69124967,0.8135444 0.66450656,0.81277633 0.66450656,0.81277633 z "/>
  <polygon id="polygon378" style="font-style:normal;font-variant:normal;font-weight:normal;font-stretch:normal;letter-spacing:normal;word-spacing:normal;text-anchor:start;fill:#333366;fill-opacity:1;stroke:#231f1f;stroke-width:0;stroke-linecap:butt;stroke-linejoin:miter;stroke-miterlimit:10.43299961;stroke-dasharray:none;stroke-dashoffset:0;stroke-opacity:1" points="321.3,576.96 321.23,611.5 325.07,611.5 325.09,578.06 321.3,576.96 " transform="matrix(6.9825518e-3,0,0,-6.982551e-3,-1.6338702,4.8588155)"/>
  <polygon id="polygon380" style="font-style:normal;font-variant:normal;font-weight:normal;font-stretch:normal;letter-spacing:normal;word-spacing:normal;text-anchor:start;fill:#333366;fill-opacity:1;stroke:#231f1f;stroke-width:0;stroke-linecap:butt;stroke-linejoin:miter;stroke-miterlimit:10.43299961;stroke-dasharray:none;stroke-dashoffset:0;stroke-opacity:1" points="313.68,575.13 313.71,611.5 317.54,611.5 317.52,576.02 313.68,575.13 " transform="matrix(6.9825518e-3,0,0,-6.982551e-3,-1.6338702,4.8588155)"/>
  <line id="line382" style="font-style:normal;font-variant:normal;font-weight:normal;font-stretch:normal;letter-spacing:normal;word-spacing:normal;text-anchor:start;fill:#333366;fill-opacity:1;fill-rule:nonzero;stroke:#231f1f;stroke-width:0;stroke-linecap:butt;stroke-linejoin:miter;stroke-miterlimit:10.43299961;stroke-dasharray:none;stroke-dashoffset:0;stroke-opacity:1" y2="0.51524985" x2="0.61486053" y1="0.51524985" x1="0.61486053"/>
  <line id="line384" style="font-style:normal;font-variant:normal;font-weight:normal;font-stretch:normal;letter-spacing:normal;word-spacing:normal;text-anchor:start;fill:#333366;fill-opacity:1;fill-rule:nonzero;stroke:#231f1f;stroke-width:0;stroke-linecap:butt;stroke-linejoin:miter;stroke-miterlimit:10.43299961;stroke-dasharray:none;stroke-dashoffset:0;stroke-opacity:1" y2="0.51427215" x2="0.6175139" y1="0.51427215" x1="0.6175139"/>
  <line id="line386" style="font-style:normal;font-variant:normal;font-weight:normal;font-stretch:normal;letter-spacing:normal;word-spacing:normal;text-anchor:start;fill:#333366;fill-opacity:1;fill-rule:nonzero;stroke:#231f1f;stroke-width:0;stroke-linecap:butt;stroke-linejoin:miter;stroke-miterlimit:10.43299961;stroke-dasharray:none;stroke-dashoffset:0;stroke-opacity:1" y2="0.51552898" x2="0.61898029" y1="0.51552898" x1="0.61898029"/>
  <path id="path388" style="font-style:normal;font-variant:normal;font-weight:normal;font-stretch:normal;letter-spacing:normal;word-spacing:normal;text-anchor:start;fill:#cc3333;fill-opacity:1;stroke:#231f1f;stroke-width:0;stroke-linecap:butt;stroke-linejoin:miter;stroke-miterlimit:10.43299961;stroke-dasharray:none;stroke-dashoffset:0;stroke-opacity:1" d="M 0.52785798,0.45191807 L 0.52757865,0.45184825 L 0.52729936,0.45177842 L 0.52695026,0.45163877 L 0.52660111,0.45156895 L 0.526252,0.45149912 L 0.52583303,0.4514293 L 0.52541406,0.45135947 L 0.52499513,0.45128964 L 0.52450634,0.45121982 L 0.52401755,0.45114999 L 0.5235288,0.45108017 L 0.52304001,0.45101034 L 0.52255122,0.45094052 L 0.52199261,0.45094052 L 0.52094525,0.45080087 L 0.51989784,0.45073104 L 0.51878066,0.45066122 L 0.51773326,0.45059139 L 0.51661607,0.45052156 L 0.51612728,0.45052156 L 0.51563849,0.45052156 L 0.51507992,0.45052156 L 0.51459113,0.45052156 L 0.51410234,0.45052156 L 0.51368341,0.45052156 L 0.51326444,0.45052156 L 0.51277565,0.45052156 C 0.51277565,0.45052156 0.49818211,0.44961383 0.48756863,0.45834202 C 0.48756863,0.45834202 0.47269581,0.46881585 0.47234667,0.48585326 C 0.47234667,0.48585326 0.47451125,0.50721988 0.48973322,0.51504033 C 0.48973322,0.51504033 0.49036166,0.51706527 0.5131248,0.52739946 C 0.5131248,0.52739946 0.52820708,0.53165881 0.52799762,0.54241192 C 0.52799762,0.54241192 0.53030185,0.55623738 0.51186793,0.55672617 C 0.51186793,0.55672617 0.4967856,0.55875112 0.48868586,0.54548427 C 0.48191277,0.53459147 0.48344893,0.52537451 0.48296018,0.52355904 L 0.47067087,0.53263635 L 0.47053123,0.55993812 C 0.47053123,0.55993812 0.48819707,0.57131971 0.50788786,0.57104038 C 0.50788786,0.57104038 0.53030185,0.57118007 0.541055,0.56042691 C 0.541055,0.56042691 0.55306498,0.55337454 0.55292534,0.53368375 C 0.55278569,0.51448172 0.54566346,0.50526476 0.52862605,0.49758395 C 0.52862605,0.49758395 0.51542903,0.49325478 0.50991281,0.49199791 C 0.50991281,0.49199791 0.49713475,0.48773856 0.49755368,0.47789316 C 0.49790283,0.47370363 0.49992777,0.46329963 0.51542903,0.46343928 C 0.53707494,0.46371859 0.53539914,0.48724977 0.53539914,0.48899543 L 0.5481772,0.48082584 L 0.54601261,0.45450162 C 0.54601261,0.45450162 0.53896024,0.45561883 0.52785798,0.45191807 z "/>
  <path style="font-style:normal;font-variant:normal;font-weight:normal;font-stretch:normal;letter-spacing:normal;word-spacing:normal;text-anchor:start;fill:#cc3333;fill-opacity:1;stroke:#231f1f;stroke-width:0;stroke-linecap:butt;stroke-linejoin:miter;stroke-miterlimit:10.43299961;stroke-dasharray:none;stroke-dashoffset:0;stroke-opacity:1" d="M 275.125 327.25 L 236.78125 327.40625 L 236.78125 336.65625 L 236.90625 336.65625 C 236.90625 336.65625 240.84409 337.82988 246.125 338.71875 C 246.08258 344.41178 245.81409 384.5199 247.125 388.03125 C 248.58294 391.44992 248.94942 396.60841 254.78125 401.9375 C 254.78126 401.93749 266.17435 412.64272 283.46875 411.6875 C 283.46874 411.6875 301.82562 412.34161 310.875 401.28125 C 310.87501 401.28125 318.87769 395.01968 319.53125 382.25 L 319.53125 338.5 C 325.18207 337.83058 328.93751 336.65624 328.9375 336.65625 L 328.84375 336.65625 L 328.84375 327.25 L 295.5 327.25 L 295.5 336.65625 C 295.5 336.65625 298.58284 337.62837 303.375 338.3125 L 303.375 382.40625 C 303.375 382.40624 304.79182 400.27845 284.53125 401.9375 C 284.53124 401.93749 267.1875 402.96304 267.1875 382.25 L 267.1875 338.59375 C 271.8232 337.72102 275.0625 336.65626 275.0625 336.65625 L 275.125 336.65625 L 275.125 327.25 z " transform="scale(1.3888889e-3,1.3888889e-3)" id="path390"/>
  <path style="font-style:normal;font-variant:normal;font-weight:normal;font-stretch:normal;letter-spacing:normal;word-spacing:normal;text-anchor:start;fill:#cc3333;fill-opacity:1;stroke:#231f1f;stroke-width:0;stroke-linecap:butt;stroke-linejoin:miter;stroke-miterlimit:10.43299961;stroke-dashoffset:0;stroke-opacity:1" d="M 445.5625 326.25 L 416.625 399.28125 C 411.4049 399.97913 407.96875 401.09375 407.96875 401.09375 L 408.0625 401.09375 L 408.0625 410.25 L 441.28125 410.25 L 441.28125 401.09375 C 441.28125 401.09375 438.04919 400.01221 433 399.3125 L 437.0625 389.4375 L 463.40625 389.4375 L 467.375 399.28125 C 463.22172 400.0378 460.37946 400.87975 460.1875 400.9375 L 460.09375 400.9375 L 460.09375 400.96875 L 460.09375 410.25 L 497.15625 410.25 L 497.15625 401.09375 L 497.125 401.09375 C 497.01297 401.05598 492.76671 399.63611 487 398.78125 L 459.84375 326.25 L 445.5625 326.25 z M 450 355.4375 L 458.75 378.15625 L 441.40625 378.15625 L 450 355.4375 z " transform="scale(1.3888889e-3,1.3888889e-3)" id="polygon396"/>
</svg>
