<?xml version="1.0" encoding="UTF-8" standalone="no"?>
<svg xmlns:rdf="http://www.w3.org/1999/02/22-rdf-syntax-ns#" xmlns="http://www.w3.org/2000/svg" xml:space="preserve" height="198.39" viewBox="0 0 182 198.39479" width="182" version="1.1" xmlns:cc="http://creativecommons.org/ns#" xmlns:dc="http://purl.org/dc/elements/1.1/"><div xmlns="" id="saka-gui-root"><div><div><style/></div></div></div><g transform="matrix(1.25 0 0 -1.25 153.57 205.66)"><g><path d="m20.282 130.28 1.7297 2.0327-1.5867 2.1485-20.198 27.321-1.4879 2.0123-2.3528-0.8444c-15.039-5.3763-29.343-7.8141-46.384-7.8992-17.021 0.0851-31.328 2.523-46.367 7.8992l-2.3528 0.8444-1.4879-2.0123-20.194-27.321-1.5901-2.1485 1.7297-2.0327c14.28-16.806 8.4645-37.171 3.3334-55.138-2.4617-8.6245-4.7872-16.765-4.7872-23.967 0-20.681 12.884-27.29 32.23-30.848 2.4958-0.45966 5.2537-0.77971 8.1716-1.1202 10.102-1.1713 21.556-2.5026 28.914-10.055l2.4106-2.4753 2.4106 2.4753c7.3545 7.552 18.808 8.8833 28.914 10.055 2.918 0.34048 5.6725 0.66054 8.1682 1.1202 19.346 3.5581 32.234 10.167 32.234 30.848 0 7.2013-2.3255 15.342-4.7906 23.967-5.1311 17.967-10.947 38.332 3.3333 55.138" fill="#ffd200"/><path d="m-49.987 148.31c16.96 0.0851 31.342 2.4038 46.272 7.4736l17.188-23.24c-14.457-19.1-8.1243-41.291-2.997-59.249 2.329-8.158 4.529-15.863 4.529-22.118 0-14.437-6.7416-20.552-26.714-24.226-2.2778-0.4188-4.9268-0.72523-7.7324-1.0521-9.7515-1.1338-21.675-2.54-30.545-9.857-8.873 7.317-20.797 8.7232-30.548 9.857-2.8056 0.32687-5.4512 0.6333-7.729 1.0521-19.976 3.6738-26.714 9.7889-26.714 24.226 0 6.2547 2.1961 13.96 4.525 22.118 5.1311 17.957 11.461 40.15-2.9963 59.244l17.188 23.252c14.934-5.0698 29.312-7.3885 46.258-7.4736h0.01702z" fill="#00502f"/><path d="m84.729 22.748c-0.349-0.068-0.28 0.328-0.442 0.494-2.903 0.302-6.031 0.536-8.814 0.676-0.234-0.047-0.167-0.748-0.563-0.326v3.178c0.468 0.255 0.256-0.395 0.631-0.489l3.131-0.353v12.976c-0.094 0.141-0.233 0.376-0.442 0.397 0.026 0.119-0.046 0.279 0.047 0.373 1.12 0 2.244-0.186 3.274-0.279 0.255-0.49-0.469-0.257-0.469-0.725l-0.047-12.742 0.119-0.162 2.805-0.166c0.349 0.025 0.422 0.328 0.609 0.562 0.115 0.047 0.161-0.047 0.229-0.115l-0.068-3.299zm13.382 0.428c-1.026 0.015-2.038 0.25-2.931 0.742-1.567 1.077-1.894 2.946-1.686 4.771 0.234 1.099 0.843 2.269 1.967 2.758 1.728 0.937 3.903 0.77 5.439 2.174 0.38 0.468 0.43 1.12 0.38 1.682-0.12 0.77-0.65 1.613-1.448 1.847-2.013 0.375-3.929-0.375-5.168-1.962-0.187-0.26 0.187-0.91-0.328-0.889-0.515 1.051-0.957 2.127-1.404 3.199 0.212 0.192 0.379 0 0.609 0 1.03 0.843 2.129 1.498 3.367 1.805 1.967 0.468 4.192 0.277 5.612-1.242 1.1-1.354 1.33-3.387 0.79-5.047-1.02-2.784-4.202-2.926-6.564-3.764l-0.797-0.607c-0.421-0.447-0.349-1.171-0.281-1.754 0.115-0.49 0.423-1.009 0.912-1.239 1.685-0.702 3.67-0.047 4.98 1.192 0.37 0.281 0.05 1.123 0.63 1.051l1.24-3.18c-0.19-0.281-0.37 0.047-0.56 0.047-1.3-1.024-3.049-1.609-4.759-1.584zm6.039 0.627c-0.09 0.421 0.48 0.422 0.5 0.793v14.355c-0.1 0.209-0.21 0.348-0.45 0.395-0.12 0.119 0.02 0.26 0 0.4l8.93 1.051c0.4 0.047 0.35 0.631 0.73 0.631 0.16-1.073 0-2.223 0.04-3.321-0.42-0.302-0.21 0.307-0.49 0.401l-6.24-0.795-0.16-0.094 0.07-4.605 3.69 0.441c0.49-0.021 0.38 0.657 0.8 0.678 0.06-1.12 0.06-2.316 0-3.436-0.36-0.072-0.26 0.397-0.52 0.469-1.4-0.072-2.74-0.307-4.04-0.562l0.07-4.278 5.82 0.725c0.44 0.047 0.28 0.841 0.8 0.629l-0.08-3.319c-0.37-0.136-0.25 0.327-0.44 0.446-2.88-0.307-6.08-0.681-9.03-1.004zm-33.355 0.677c-1.727-0.098-3.466 0.48-4.746 1.635-1.52 1.264-1.754 3.3-1.52 5.215 0.26 1.077 1.123 1.94 2.2 2.174 1.774 0.609 3.693-0.12 5.209 1.076 0.468 0.792 0.354 1.847-0.042 2.639-0.4 0.702-1.149 1.098-1.847 1.285-1.617 0.421-3.414 0.094-4.397-1.238-0.208-0.234 0.255-0.978-0.375-0.77l-1.238 3.133 0.17 0.307c0.098-0.047 0.227-0.073 0.393-0.073 0.749 0.396 1.446 0.838 2.289 1.004 2.315 0.353 4.584-0.166 6.244-1.754 1.4-1.54 1.893-4.043 1.004-5.984-0.583-1.192-1.801-1.541-2.924-1.754-1.447-0.302-3.086 0.047-4.324-0.957-0.375-0.562-0.235-1.265-0.116-1.895 0.281-0.817 1.146-1.355 1.916-1.564 1.426-0.14 3.013-0.375 3.975 0.838 0.255 0.213-0.072 1.007 0.516 0.773 0.374-1.17 0.817-2.314 1.238-3.484l-0.35-0.043c-0.493 0.698-1.029-0.145-1.57-0.234-0.555-0.188-1.129-0.296-1.705-0.329zm43.505 0.559c-0.17 0.375 0.38 0.469 0.4 0.797l0.04 14.355c-0.04 0.188-0.23 0.489-0.49 0.395l-0.07 0.328c1.05 0.349 2.25 0.469 3.33 0.563 0.16-0.469-0.5-0.444-0.52-0.844v-5.776l0.12-0.162c0.74 0.115 1.54 0.163 2.24 0.397 0.73 2.107 1.68 4.116 2.41 6.219 0.14 0.259 0.04 0.654-0.28 0.679 0.02 0.141-0.05 0.329 0.12 0.397 1.16 0.14 2.29 0.609 3.43 0.656 0.19-0.468-0.4-0.256-0.51-0.563-1.1-2.242-1.9-4.651-2.76-7.013l1.31-0.281c1.68-1.213 1.68-3.622 1.28-5.541-1.4-4.465-6.5-3.529-10.05-4.606zm-50.804 0.162c-0.274 0.059-0.135 0.553-0.459 0.635l-8.533 1.961c-0.213 0.494 0.348 0.213 0.394 0.609l0.047 14.424c-0.047 0.213-0.281 0.447-0.515 0.494l0.166 0.416c2.911-0.736 5.874-1.335 8.81-1.982 0.281 0.093 0.12 0.675 0.516 0.394v-3.365c-0.468-0.094-0.235 0.535-0.61 0.608-2.03 0.421-4.041 1.004-6.076 1.238l0.073-4.535 3.293-0.793c0.446-0.281 0.68 0.256 0.957 0.349 0.212-1.03 0.074-2.175 0.121-3.273l-0.121-0.166c-0.303 0.025-0.301 0.375-0.442 0.562-1.285 0.307-2.57 0.774-3.881 0.914l0.073-4.281 5.255-1.166c0.307-0.093 0.868-0.14 0.842 0.328 0.094-0.025 0.235 0.047 0.282-0.047l-0.047-3.32c-0.059-0.012-0.106-0.012-0.145-0.004zm60.504 1.852c-0.07 0.349 0.38 0.467 0.47 0.744 1.26 5.286 2.85 10.427 4.02 15.76-0.19 0.161-0.14 0.396 0 0.515l2.81 0.723c0.26-0.468-0.42-0.421-0.28-0.842 1.05-4.23 2.4-8.346 3.43-12.576 0.16-0.328 0.19-0.844 0.68-0.891l0.09-0.34c-0.95-0.323-1.9-0.63-2.85-0.851-0.16 0.349 0.28 0.444 0.33 0.678-0.98 3.507-1.8 7.085-2.9 10.541l-0.07-0.043-2.97-12.018c0.12-0.162 0.16-0.328 0.4-0.328-0.02-0.115 0.05-0.303-0.07-0.328-1.03-0.255-2.06-0.651-3.09-0.744zm-6.94 0.676c1.75 0.493 4.35 0.167 5.17 2.244 0.12 0.817 0.25 1.825-0.12 2.642-0.23 0.375-0.68 0.442-1.07 0.561-1.27-0.234-2.7-0.421-3.98-0.795v-4.652zm-65.154 1.24c-2.898 0.025-5.238 1.378-7.855 2.08-0.162 0.421 0.375 0.375 0.353 0.724v14.262c0 0.349-0.702 0.608-0.281 0.932l2.971-1.004c0.208-0.328-0.145-0.375-0.332-0.49l-0.069-6.125c0.703-0.281 1.498-0.561 2.196-0.68l2.248 4.562c0.63 0.49-0.26 0.98-0.073 1.495 1.099-0.337 2.21-0.645 3.325-0.934l-0.198-0.404c-0.157-0.013-0.305-0.118-0.416-0.229l-2.591-5.33c0.608-0.374 1.239-0.77 1.681-1.404 1.098-1.869 1.753-4.208 0.723-6.285-0.349-0.634-1.005-1.03-1.682-1.17zm83.424 1.217l-0.07 0.353c0.18 0.102 0.29 0.335 0.36 0.51l0.07 14.142c0.02 0.281-0.25 0.61-0.51 0.563 0.02 0.119-0.05 0.281 0.04 0.375 1.06 0.302 2.11 0.77 3.16 0.91 0.03-0.421-0.42-0.488-0.51-0.842l-0.05-14.144c0.05-0.209 0.16-0.608 0.49-0.514v-0.328c-0.99-0.315-1.98-0.681-2.98-1.025zm-84.748 1.134c0.197 0.001 0.397 0.019 0.602 0.057 0.864 0.655 0.722 1.941 0.556 2.92-0.817 2.128-3.365 1.94-5.047 2.689v-4.537c1.311-0.305 2.512-1.132 3.889-1.129zm-11.232 1.473c-0.31 0.022-0.617 0.074-0.909 0.15-1.753 0.537-3.272 2.266-4.209 3.832-1.728 3.18-2.548 7.972-0.722 11.385 0.583 0.983 1.587 1.66 2.685 1.686 2.716-0.188 4.959-2.154 6.176-4.491 1.749-3.413 2.404-8.789-0.447-11.853-0.683-0.578-1.645-0.776-2.574-0.709zm103.1 0.254c-0.66 0.037-1.29 0.231-1.83 0.642-1.89 1.869-2.08 4.512-1.91 7.176 0.56 3.72 2.57 8.138 6.61 9.143 1.43 0.562 2.55-0.537 3.84-0.328-0.54-1.171-0.98-2.361-1.59-3.481-0.31 0.047-0.1 0.51-0.17 0.77-0.21 0.515-0.72 0.75-1.23 0.797-1.48 0.115-2.55-0.729-3.54-1.801-1.91-2.503-2.5-6.198-1.24-9.19 0.45-0.77 1.22-1.472 2.16-1.404 1.42 0.353 2.87 1.336 3.57 2.736 0.16 0.354-0.12 1.032 0.45 1.079l1.4-2.129c-0.07-0.188-0.26-0.35-0.49-0.282-0.98-1.051-1.73-2.106-2.92-2.877-0.86-0.54-2.02-0.914-3.11-0.851zm-109.83 2.209c-0.374 0.047-0.167 0.561-0.516 0.723l-8.017 4.376v0.348c0.162 0 0.375-0.046 0.396 0.162v14.356c-0.021 0.349-0.723 0.701-0.234 0.957l2.758-1.633c-0.022-0.119 0.046-0.281-0.069-0.375-0.119 0.115-0.281 0-0.375-0.072l-0.072-6.219 3.649-1.914 0.353 0.347 0.16-0.181-0.068-3.299c-0.494 0.047-0.093 0.676-0.607 0.842l-3.415 1.801-0.115-0.12 0.043-4.089 5.287-2.805c0.234-0.166 0.608-0.234 0.676 0.162 0.094 0.026 0.141-0.047 0.213-0.115-0.026-1.077 0.047-2.201-0.047-3.252zm6.449 0.006c0.313 0 0.623 0.053 0.891 0.16 2.196 1.753 1.962 5.072 1.285 7.57-0.515 1.873-1.846 3.954-3.928 4.328-0.889 0.188-1.567-0.446-2.009-1.123-1.452-3.294-0.677-7.456 1.728-10.052l1.123-0.723c0.281-0.107 0.597-0.16 0.91-0.16zm110.58 0.722c-0.16 0.396 0.44 0.489 0.39 0.838l0.12 14.028c0.14 0.583-0.7 0.42-0.51 1.004l7.69 4.044c0.59 0.12 0.47 0.915 0.96 0.961v-3.32c-0.35-0.353-0.19 0.234-0.51 0.234l-5.62-3.085 0.07-4.61c1.12 0.728 2.37 1.197 3.47 1.967 0.3 0.162 0.06 0.771 0.5 0.678v-3.321l-0.16-0.115-0.23 0.35c-1.21-0.468-2.43-1.286-3.65-1.916l0.07-4.256c1.78 0.983 3.63 1.822 5.33 2.967 0.31 0.166 0.05 0.656 0.45 0.681 0.09-1.03 0.02-2.2 0.04-3.205l-0.16-0.234c-0.3-0.068-0.04 0.306-0.28 0.353-2.69-1.264-5.31-2.876-7.97-4.043zm-58.312 4.37c-0.273 0.035-0.461 0.246-0.633 0.492 0.141 0.987-0.804 1.787-0.48 2.804-0.996 1.111-1.132 2.763-2.358 3.729 0 0.468-0.004 0.936-0.004 1.4-1 0.877-1.512 2.034-1.89 3.264-1.286 1.077-1.927 2.716-3.289 3.725 0.272 0.612-0.745 0.787-0.473 1.4 0.451-0.123 0.706 0.145 0.932 0.473-0.039 0.506 0.187 1.106-0.477 1.4 0.226 0.328 0.481 0.594 0.932 0.471 0.472-0.468 0.94-0.931 1.408-1.395 0.455-0.123 0.712 0.145 0.937 0.473-2.132 3.286-3.291 7.102-5.666 10.256-0.451-0.128-0.705 0.137-0.935 0.465 0 0.31-0.004 0.624-0.004 0.935 0.719 0.124 1.318 0.477 1.863 0.945-0.468 0.464-0.936 0.929-1.408 1.397 0 0.311-0.004 0.621-0.004 0.932-0.315 0.31-0.626 0.62-0.941 0.931l0.468 0.469c-0.804 0.634-1.365 1.464-1.884 2.328 0.31 0.315 0.621 0.629 0.931 0.94 0.468 0 0.932 0.006 1.405 0.009 0.31-0.31 0.624-0.621 0.935-0.931 0.328 0.229 0.597 0.484 0.465 0.939-1.451 1.83-3.294 3.366-4.234 5.588-0.992 0.711-1.478 2.035-2.819 2.324-0.396 0.677-1.45 0.857-1.412 1.865 0.456-0.127 0.71 0.14 0.932 0.467 0.34-0.885 1.536-0.043 1.877-0.924 0.157 0.158 0.305 0.312 0.463 0.469 0.127 0.456-0.141 0.712-0.473 0.938 0.157 0.153 0.311 0.309 0.469 0.466-0.605 0.796-1.034 1.733-1.881 2.329 0.153 0.157 0.307 0.311 0.465 0.468 0.123 0.456-0.145 0.71-0.473 0.936-0.119 0.43 0.003 0.613 0.463 0.469 0.557-0.558 1.468-0.64 1.877-1.393 0.455-0.128 0.706 0.141 0.932 0.473-0.784 0.459-0.371 1.231-0.477 1.865-2.877 2.354-4.37 5.865-7.051 8.385 0.677-0.06 1.123 0.78 1.867 0.48 0.469-0.47 0.936-0.94 1.409-1.4 0.153 0.16 0.307 0.31 0.464 0.47 0.601 0.25 1.03-0.02 1.405-0.46 0.327 0.23 0.592 0.48 0.465 0.94-1.499 2.07-3.351 3.81-5.172 5.58 0.455-0.12 0.706 0.14 0.931 0.47-0.893 1.17-2.395 1.62-3.285 2.79 0.094 0.64-0.324 1.4 0.459 1.87-0.315 0.31-0.629 0.63-0.939 0.93-0.039 0.51 0.187 1.11-0.477 1.4 0.775 0.19 1.476 0.72 2.336 0.48 0.775-0.79 2.085-0.49 2.813-1.39 0.153 0.16 0.307 0.32 0.464 0.47 0.779-0.15 1.698 0.41 2.34-0.45 0.158 0.16 0.312 0.31 0.465 0.47 1.2-0.56 2.474-0.5 3.746-0.45 1.03-0.66 2.017-1.38 2.813-2.33 0.902 0.36 1.813 0.65 2.804 0.49 0.596-1.09 1.545-1.88 2.354-2.8 1.136 6.54 0.046 13.1 0.365 19.64-0.468 0.47-0.936 0.93-1.408 1.4-3.341 1.25-6.644 2.57-9.84 4.16-0.621-0.01-1.248-0.01-1.869-0.01-0.856 0.63-1.77 1.14-2.813 1.39-0.327 0.22-0.596 0.48-0.472 0.93 3.422-0.34 6.899 0.74 10.291-0.42 2.524 0.08 5.104-0.28 7.474 0.98 3.141-0.08 6.332 0.41 9.354-0.89 1.545 0.29 3.21-0.59 4.67 0.49 0.78-0.16 1.71 0.41 2.35-0.46 1.27-0.04 2.54-0.08 3.73 0.49 0.01-0.47 0.01-0.94 0.01-1.4-0.72-0.13-1.32-0.48-1.87-0.95-0.62 0-1.24 0-1.87-0.01-3.21-1.36-6.114-3.35-9.323-4.72-0.468-0.47-0.93-0.94-1.394-1.41 0.029-6.39 0.064-12.78 0.093-19.17 0.737-0.18 0.207-1.21 0.944-1.4 1.213 0.98 1.333 2.64 2.316 3.75 1.222 0.42 2.604 0.21 3.734 0.96 0.46 0.13 0.71-0.14 0.94-0.46 1.23 0.25 2.6-0.54 3.74 0.48 0.86 1.2 2.21 1.84 3.26 2.83 0.15-0.16 0.31-0.32 0.47-0.47 0.13-0.45-0.14-0.71-0.47-0.94 0.86-1.17 2.43 0.23 3.28-0.92 0.86 0.6 1.01 1.76 1.86 2.35 0.45 0.13 0.71-0.14 0.94-0.46 0.13-0.46-0.14-0.71-0.46-0.94 0.05-1.03 1.22-1.67 0.94-2.8-1.6-1.89-2.78-4.07-4.17-6.1-0.13-0.46 0.14-0.71 0.47-0.93l0.93 0.93c0.87-0.29 1.46 0.78 2.33 0.49 0-0.31 0.01-0.63 0.01-0.94-1.63-1.53-2.55-3.63-4.18-5.16 0.3-0.66 0.89-0.43 1.4-0.46-1.43-1.245-2.53-2.773-3.72-4.229 0.32-0.74-0.52-1.196-0.46-1.873-0.79-0.642-1.35-1.477-1.86-2.349 0.31-0.66 0.9-0.43 1.41-0.459 0.3 0.664 0.89 0.438 1.4 0.476 0.81-0.945 1.88-0.259 2.81-0.455-0.69-1.336-2.53-1.077-3.26-2.353 0.42-1.073-1-1.41-0.93-2.342-1.63-1.532-2.85-3.391-4.18-5.166-0.12-0.456 0.15-0.708 0.47-0.934 0.47 0.473 0.94 0.942 1.4 1.41 0.51-0.029 1.1 0.199 1.4-0.461 0.46-0.123 0.71 0.145 0.94 0.473 0.15-0.157 0.31-0.31 0.47-0.463-0.33-0.23-0.59-0.486-0.46-0.941-0.23-0.328-0.49-0.597-0.94-0.469-1.18-1.004-1.9-2.279-2.32-3.752-0.62-0.63-1.24-1.253-1.86-1.883 0.33-0.225 0.6-0.476 0.47-0.931-0.4-0.758-1.31-0.846-1.86-1.412 0.51-1.001 1.83 0.08 2.34-0.924-1.66-1.767-3.42-3.436-5.114-5.168-0.128-0.456 0.141-0.706 0.473-0.932 0.468 0.004 0.931 0.004 1.401 0.004 0.18 0.736 1.22 0.209 1.4 0.945 0.16-0.157 0.31-0.311 0.47-0.464-0.67-1.03-1.38-2.021-2.33-2.817-1.017-3.141-2.515-6.057-4.158-8.904 0.034-0.511-0.189-1.107 0.471-1.401 0.596-0.272 1.468 0.588 1.873-0.459-1.456-1.119-2.21-2.783-3.252-4.226-0.817-2.707-2.054-5.202-3.701-7.5-0.113-0.032-0.214-0.039-0.305-0.027zm43.872 21.253c-7.78-0.168-15.74 3.727-15.74 13.372 0 14.028 28.06 20.575 28.06 34.371 0 13.79-22.68 11.22-22.68 0v-1.41h-4.91v15.9h4.68v-3.71c12.85 10.02 31.56 0.9 31.56-14.52 0-16.837-27.36-21.513-27.36-32.264 0-9.819 16.37-7.248 16.37 0v2.336h4.67v-13.092h-4.91v1.609c-2.7-1.598-6.2-2.515-9.74-2.592zm-104.69 0.981s0.234 4.678 0 4.678h1.623v42.084c0 20.1 32.494 20.8 32.494 0 0 0-0.234-42.084 0-42.084h3.74c-0.234 0-0.234-4.678 0-4.678h-12.623v4.678h3.508v42.084c0 11.68-17.535 11.22-17.535 0-0.235 0-0.235-42.084 0-42.084h1.867s-0.23-4.678 0-4.678h-13.074zm125.13 62.242l-2.44 0.4-0.2 0.39c0.01 0.2 0 1.73 0 2.09l0.05 4.69h0.25c-0.01-0.21 0.16-0.4 0.77-0.4l12.47-0.06c0.62-0.01 0.79 0.18 0.79 0.39l0.25-0.01-0.07-6.61c0-0.35-0.38-0.42-0.1-0.42l-0.47-0.17-1.97 0.05v0.16c0.29 0 0.49 0.07 0.5 0.42l0.03 3.79h-5.1v-0.02l-0.05-2.44c-0.01-0.35 0.2-0.42 0.48-0.42v-0.17l-3.03 0.4v0.17c0.29-0.01 0.5 0.06 0.51 0.41l0.05 2.09v0.01l-3.22 0.04v-0.01l0.02-4.17c-0.01-0.35 0.2-0.42 0.48-0.43v-0.17zm-141.03 0.65l-0.088 3.57c-0.076 3.2 3.332 4.63 7.354 4.57 4.792-0.08 7.248-1.71 7.193-4.25l0.09-3.55-0.227-0.01c-0.004 0.22-0.157 0.39-0.718 0.38l-12.676-0.3c-0.562-0.01-0.705-0.2-0.701-0.41h-0.227zm2.266 2.56h0.025l10.418 0.25c-0.068 1.98-1.847 3.41-5.248 3.32-3.401-0.08-5.221-1.34-5.195-3.57zm140.7 5.09c-1.98 0.12-4.12 0.53-4.3 4.39l-0.02 4.14 0.24 0.01c0-0.19 0.46-0.74 1.04-0.71l12.02 0.91c0.58-0.03 0.75 0.18 0.77 0.44l0.23-0.01 0.19-3.45-0.24 0.01c0.02 0.26-0.12 0.49-0.7 0.53l-5.12-0.26 0.01-1.09 4.92-1.42c0.26-0.1 0.36-0.1 0.43-0.09 0.2 0.01 0.35 0.16 0.37 0.37l0.23 0.02 0.02-3.14-0.24-0.01c0 0.41-0.26 0.66-0.67 0.8l-5.16 1.27c-0.58-1.02-2.07-2.83-4.02-2.71zm-128.47 0.76c0.004 0.22-0.157 0.4-0.769 0.41h-0.002l-12.844 0.16c-0.617 0.01-0.783-0.17-0.783-0.38h-0.246l0.101 6.72c0.004 0.35 0.383 0.42 0.098 0.43l0.472 0.17 1.975-0.04-0.004-0.17c-0.285 0-0.489-0.07-0.498-0.41l-0.068-4.67 4.89-0.06v0.01l0.047 2.43c0.004 0.35-0.201 0.43-0.486 0.43v0.17l3.031-0.39-0.004-0.17c-0.285 0.01-0.489-0.06-0.498-0.41l-0.043-2.08v-0.02l3.865-0.05v0.01l0.069 3.45c0.004 0.35-0.201 0.42-0.487 0.43v0.17l2.444-0.4 0.119-0.4c-0.289 0.01-0.025-0.18-0.033-0.53l-0.098-4.81h-0.248zm128.37 1.64c1.44 0.01 2.01 1.56 2.1 2.59l-0.08 0.77-3.91-0.13 0.01-1.25c0-0.74 0.55-1.99 1.88-1.98zm-128.12 5.23l-0.242 0.03c0.025 0.21-0.114 0.4-0.723 0.47l-12.791 1.36c-0.608 0.06-0.795-0.1-0.82-0.31l-0.248 0.02 0.426 3.13 0.248-0.03c-0.026-0.2 0.109-0.4 0.722-0.47l5.108-0.58 0.664 2.01c0.285 2.23 2.149 2.92 4.511 2.67 2.626-0.28 3.869-2.17 3.588-4.39l-0.443-3.91zm123.92 1.25l-0.47 2.57 0.22 0.06c0.05-0.21 0.24-0.34 0.78-0.2l8.16 1.92c1.47 0.32 2.38 0.81 1.97 2.11-0.34 1.1-1.29 1.11-2.66 0.62l-7.94-3c-0.53-0.19-0.61-0.41-0.54-0.61l-0.21-0.08-1.12 2.55 0.21 0.07c0.07-0.2 0.27-0.32 0.8-0.13l8.14 3.06c2.34 0.84 4.69 0.53 5.59-2.01 0.82-2.27-0.64-4.13-3.66-4.53l-8.46-1.78c-0.54-0.14-0.64-0.36-0.59-0.56l-0.22-0.06zm-125.8 1.69l0.127 1.49c0.175 0.91-0.417 1.57-1.826 1.76-1.098 0.15-1.799-0.26-2.246-1.39l-0.396-1.44 4.341-0.42zm3.42 4.26l-0.187 0.12c0.072 0.18-0.016 0.3-0.199 0.43-0.124 0.09-0.315 0.17-0.409 0.2l-11.07 4.19c-0.664 0.26-0.805 0.22-0.971 0.05l-0.183 0.13 1.785 2.72 0.182-0.13c-0.026-0.14 0.005-0.29 0.175-0.41 0.077-0.05-0.086-0.95 0.157-0.24l1.179-0.33 1.672 2.21-0.055 0.74c-0.144 0.15-0.328 0.35-0.494 0.47-0.2 0.14-0.339 0.16-0.484 0.02l-0.184 0.13 1.528 2.33 0.183-0.12c-0.127-0.19 0.149-0.48 0.354-0.71l7.754-8.97c0.115-0.13 0.221-0.24 0.328-0.32 0.2-0.14 0.366-0.13 0.498-0.03l0.187-0.13-1.746-2.35zm120.37 0.13c-0.05 0.01-0.09 0.06-0.16 0.14l-3.25 3.7c-0.16 0.21-0.1 0.26-0.1 0.26l-0.01 0.19 1.51 1.66 0.11-0.13c-0.2-0.17-0.3-0.35-0.07-0.62l1.22-1.31 9.06 7.4c0.43 0.37 0.43 0.6 0.29 0.76l0.17 0.15 2.01-2.25-0.17-0.15c-0.14 0.16-0.6 0.47-1.02 0.1l-9.24-7.34 1.08-1.24c0.22-0.27 0.41-0.21 0.61-0.03l0.11-0.13-1.73-0.94-0.25-0.16c-0.08-0.04-0.13-0.07-0.17-0.06zm-118.01 3.03l-0.137 0.19c0.136 0.09 0.26 0.73-0.076 1.21l-6.801 9.43c-0.341 0.47-0.593 0.49-0.776 0.37l-0.13 0.18 2.007 1.83 0.137-0.18c-0.183-0.13-0.251-0.36 0.09-0.83l2.978-4.16 1.145 0.71 0.035 5.8c-0.017 0.27-0.056 0.36-0.09 0.43-0.085 0.17-0.259 0.27-0.429 0.21l-0.098 0.22 2.549 1.14 0.101-0.22c-0.323-0.14-0.415-0.46-0.373-0.89l0.157-6.23c1.038 0.01 2.384-0.11 3.388-1.78 1.022-1.7 1.145-3.89-0.801-5.21l-2.876-2.22zm-5.202 0.52l0.018 0.03-3.334 4.17-1.736-1.88 5.052-2.32zm119.1 0.75l-2.29 1.58 0.13 0.2c0.17-0.12 0.41-0.09 0.71 0.38l6.25 10.4c0.3 0.47 0.23 0.69 0.06 0.81l0.12 0.19 5.11-3.26c0.29-0.19 0.21-0.13 0.42-0.47l0.08-0.35-0.65-2.18-0.14 0.09c0.14 0.22-0.02 0.36-0.32 0.55l-3.53 2.35-5.77-9.29c-0.3-0.47-0.24-0.7-0.06-0.81l-0.12-0.19zm-2.7 1.76l-2.51 0.73 0.05 0.22c0.2-0.05 0.41 0.06 0.53 0.61l2.74 7.89c0.51 1.41 0.58 2.45-0.75 2.79-1.11 0.29-1.63-0.51-1.93-1.93l-1.66-8.33c-0.12-0.55 0.03-0.73 0.23-0.77l-0.05-0.23-2.68 0.56 0.05 0.22c0.2-0.04 0.42 0.06 0.54 0.61l1.64 8.36c0.53 2.43 2.03 4.26 4.66 3.69 2.36-0.51 3.17-2.74 1.91-5.51l-2.96-7.92c-0.12-0.54 0.03-0.73 0.24-0.78l-0.05-0.21zm-110.54 0.27l0.873 0.6c0.519 0.35 1.251 1.14 0.336 2.5-0.801 1.19-2.214 0.92-2.989 0.51l-0.498-0.44 2.278-3.17zm5.552 0.07c-0.255-0.03-0.271 0.05-0.271 0.05l-0.166 0.08-0.766 2.46 0.166 0.03c0.047-0.26 0.147-0.43 0.496-0.37l2.19 0.45-1.955 10.54c-0.102 0.56-0.305 0.67-0.514 0.63l-0.043 0.22 2.957 0.62 0.043-0.22c-0.208-0.04-0.362-0.22-0.26-0.77l1.78-10.6 1.984 0.36c0.345 0.06 0.377 0.25 0.33 0.51l0.166 0.03 0.035-2.28 0.008-0.29c0.004-0.19-0.024-0.22-0.228-0.25l-5.952-1.2zm95.164 1.37c-0.22 0-0.46 0.02-0.71 0.07-3.01 0.56-3.08 4.17-2.41 7.74 0.66 3.57 2.79 6.55 5.74 5.99 2.32-0.43 2.12-1.11 2.61-1.65 0.04-0.05 0.1-1.04 0.13-1.05l-0.28-0.47-1.59-1.37-0.12 0.13c0.03 0.09 0.06 0.18 0.08 0.28 0.17 0.9-0.28 2.18-1.44 2.33-1.04 0.13-2.47-2.16-2.96-4.74-0.47-2.53-0.97-4.6 1.06-5.18 0.51-0.14 1.59 0.3 1.72 1.01 0.04 0.17 0.09 0.27 0.07 0.35l0.18 0.06 0.93-1.8-0.01-0.56s-0.16-0.25-0.26-0.23c-0.12 0.02-0.49-0.27-1.07-0.54-0.44-0.21-0.99-0.38-1.67-0.37zm-88.187 0.24l-0.035 0.22c0.208 0.03 0.366 0.21 0.281 0.77l-1.766 11.61c-0.085 0.55-0.285 0.67-0.494 0.64l-0.033 0.22 2.834 0.46 0.033-0.23c-0.208-0.03-0.366-0.21-0.285-0.76l0.822-5.31h0.03l0.902 6.7 3.15-6.17 0.03 0.01-0.703 5.48c-0.086 0.56-0.29 0.68-0.499 0.65l-0.033 0.22 3.065 0.38 0.033-0.23c-0.209-0.03-0.365-0.2-0.279-0.76l1.386-11.9c0.081-0.56 0.286-0.68 0.494-0.64l0.034-0.23-2.545-0.14-0.268 0.13c-0.076 0.14-0.119 0.12-0.144 0.3-0.017 0.1-0.026 0.17-0.073 0.28l-2.338 5.08-0.025-0.01-1.098-5.35c-0.029-0.25-0.056-0.44-0.039-0.55 0.013-0.11-0.015-0.08-0.015-0.26l-0.321-0.31-2.101-0.3zm83.377 1l-2.55 0.25 0.01 0.23c0.22-0.02 0.41 0.11 0.46 0.67l2.12 11.99c0.08 0.56-0.08 0.73-0.29 0.76l0.03 0.22 2.54-0.39-0.04-0.22c-0.2 0.03-0.4-0.1-0.48-0.65l-2.12-11.9c-0.05-0.56 0.12-0.73 0.33-0.74l-0.01-0.22zm-72.789 0.31l-0.018 0.25c0.209 0.02 0.375 0.19 0.328 0.8l-1.082 11.96c-0.047 0.61-0.242 0.76-0.451 0.75l-0.021 0.24 6.584 0.58c0.349 0.03 0.456-0.35 0.435-0.06l0.207-0.45 0.145-1.97-0.166-0.02c-0.026 0.29-0.11 0.49-0.459 0.46l-3.78-0.33 0.393-3.97h0.012l2.429 0.18c0.349 0.03 0.405 0.24 0.379 0.52l0.17 0.02-0.109-3.06-0.166-0.01c-0.021 0.29-0.108 0.49-0.461 0.46l-2.076-0.15h-0.018l0.303-3.85h0.017l4.141 0.42c0.349 0.03 0.405 0.24 0.379 0.53l0.17 0.01-0.162-2.47-0.362-0.24c-0.2-0.01-1.731-0.16-2.08-0.19l-4.681-0.41zm57.049 0.51c-2.34 0.14-3.25 2.8-3.18 6.94 0.09 4.8 1.9 8.22 4.4 8.09 1.45-0.08 2.53-0.59 3.86-2.49v-0.24c-0.17-0.01-0.26-0.17-0.27-0.68l0.06-4.05c-0.01-0.36 0.09-0.53 0.24-0.57l-0.01-0.25-3.43 0.08c-0.35 0.01-0.26 0.06-0.55-0.03l-0.19 0.18-0.14 2.42h0.17c-0.01-0.29 0.06-0.49 0.41-0.51l1.57-0.05-0.09 3.03c-0.32 0.76-0.78 1.02-1.7 0.98-0.9-0.03-1.8-2.15-1.87-4.79-0.07-3.24-0.12-6.11 1.65-5.93 0.87 0.09 1.75 0.94 1.67 1.93l-0.03 0.34 0.11 0.14 1.09-2.24-0.05-0.48s-0.08-0.22-0.14-0.28c-0.21-0.2-0.2-0.29-0.73-0.72-0.52-0.43-1.42-0.74-2.36-0.81-0.17-0.02-0.33-0.02-0.49-0.01zm9.79 0.01c-0.32-0.03-0.69-0.02-1.1 0l-3.82 0.08 0.02 0.23c0.16-0.02 0.68 0.38 0.73 0.96l1.04 11.97c0.1 0.57-0.06 0.76-0.28 0.8l0.04 0.23 2.92-0.17-0.03-0.23c-0.22 0.04-0.44-0.07-0.53-0.65l-0.41-5.09 0.92-0.11 2.49 4.83c0.13 0.24 0.13 0.33 0.14 0.41 0.01 0.2-0.1 0.36-0.27 0.4l0.02 0.23 3.07-0.39-0.02-0.23c-0.34 0.03-0.58-0.2-0.76-0.59l-2.56-5.58c0.78-0.68 1.75-1.91 1.41-3.83-0.3-1.71-0.72-3.1-3.02-3.27zm-58.763 0.16l-0.012 0.23c0.209 0 0.382 0.17 0.348 0.72l-0.877 12.37c-0.03 0.56-0.221 0.7-0.43 0.69l-0.011 0.22 2.562 0.36 0.012-0.22c-0.209-0.01-0.384-0.17-0.354-0.73l0.53-5.44h0.025l2.426 5.62c0.11 0.27 0.17 0.42 0.162 0.57-0.004 0.13 0.152 0.4 0.178 0.54l-0.012 0.22 2.285 0.1 0.012-0.23c0.059-0.18 0.085-0.26 0.115-0.82l0.762-12.42c0.029-0.56 0.221-0.7 0.429-0.69l0.014-0.23-2.912-0.38-0.012 0.22c0.209 0.01 0.382 0.17 0.348 0.73l-0.326 8.75h-0.026l-2.486-7.91c-0.098-0.24-0.099-0.37-0.154-0.55-0.107-0.38-0.4-0.85-0.485-1.15l-0.34-0.28-1.771-0.29zm42.363 0.9l-2.83 0.09v0.24c0.2 0.03 0.26 0.19 0.27 0.43 0.01 0.16-0.03 0.38-0.06 0.48l-2.64 12.31c-0.16 0.74-0.27 0.85-0.53 0.89l0.01 0.24 2.72-0.05-0.01-0.23c-0.14-0.06-0.18-0.38-0.18-0.6-0.01-0.1 0.03-0.31 0.06-0.45l0.41-0.95 3.62-0.12 0.19 0.77c0.05 0.22 0.09 0.32 0.1 0.54 0.01 0.26-0.02 0.57-0.23 0.62l0.01 0.24 2.78-0.08-0.01-0.24c-0.24 0.01-0.34-0.41-0.43-0.73l-3.41-12.22c-0.05-0.18-0.09-0.34-0.09-0.48-0.01-0.25 0.09-0.4 0.25-0.46v-0.24zm-19.566 0.01c-2.613-0.01-4.079 3.56-4.092 7.41-0.017 3.86 1.418 7.44 4.035 7.46 2.613 0.01 4.077-3.56 4.09-7.41 0.017-3.86-1.416-7.44-4.033-7.46zm-13.213 0.06c-0.26 0.01-0.264 0.08-0.264 0.08l-0.148 0.12-0.338 2.55h0.166c0.004-0.26 0.077-0.45 0.426-0.44l2.234 0.07-0.65 11.22c-0.005 0.56-0.192 0.71-0.401 0.71l-0.004 0.22 3.018 0.11 0.004-0.23c-0.209 0-0.391-0.15-0.383-0.71l0.463-11.25 2.018 0.02c0.353 0.01 0.418 0.19 0.418 0.45l0.166 0.01-0.35-2.26-0.043-0.29c-0.026-0.18-0.059-0.21-0.268-0.2l-6.064-0.18zm24.172 0.46c-0.092-0.01-0.186-0.01-0.283 0.01l-5.516 0.01v0.22c0.213 0 0.396 0.14 0.4 0.71l0.116 12.33c0.004 0.56-0.176 0.71-0.389 0.71l0.004 0.23h2.908v-0.22c-0.213 0-0.396-0.15-0.4-0.71l-0.08-5.67h0.011 2.026c0.349 0 0.358-0.05 0.685-0.02l0.055-0.36 0.469-2.12h-0.17c0.004 0.26-0.065 0.45-0.418 0.45h-2.545-0.016l-0.064-3.5h0.013l3.571 0.13c0.349-0.01 0.421 0.18 0.426 0.45h0.169l-0.378-2.19-0.315-0.44c-0.096 0.01-0.187-0.01-0.279-0.02zm24.207 0.27c0.63 0.05 1.5 0.51 1.63 1.66 0.17 1.43-1.06 2.15-1.92 2.35h-0.65l-0.37-3.89 1.06-0.12c0.07-0.01 0.16-0.01 0.25 0zm-35.151 1.85c1.277 0.01 1.868 2.37 1.86 4.83-0.009 2.46-0.612 4.81-1.889 4.81-1.277-0.01-1.863-2.37-1.859-4.83 0.008-2.47 0.616-4.82 1.888-4.81zm18.501 2.51h0.04l1.48 5.13-2.82 0.09 1.3-5.22z" transform="matrix(.8 0 0 -.8 -122.85 164.53)" fill="#ffd200"/></g></g></svg>