<svg xmlns:dc="http://purl.org/dc/elements/1.1/" xmlns:cc="http://web.resource.org/cc/" xmlns:rdf="http://www.w3.org/1999/02/22-rdf-syntax-ns#" xmlns:svg="http://www.w3.org/2000/svg" xmlns="http://www.w3.org/2000/svg" xmlns:sodipodi="http://sodipodi.sourceforge.net/DTD/sodipodi-0.dtd" xmlns:inkscape="http://www.inkscape.org/namespaces/inkscape" width="8in" height="8in" viewBox="0 0 1 1" preserveAspectRatio="none" id="svg34637" sodipodi:version="0.32" inkscape:version="0.45.1" sodipodi:docname="HUD2.svg" sodipodi:docbase="/Users/lindberg/Projects/Wiki/seals" inkscape:output_extension="org.inkscape.output.svg.inkscape" inkscape:export-filename="/Users/lindberg/Projects/Wiki/seals/HUD2.png" inkscape:export-xdpi="90" inkscape:export-ydpi="90">
  <metadata id="metadata35830">
    <rdf:RDF>
      <cc:Work rdf:about="">
        <dc:format>image/svg+xml</dc:format>
        <dc:type rdf:resource="http://purl.org/dc/dcmitype/StillImage"/>
      </cc:Work>
    </rdf:RDF>
  </metadata>
  <defs id="defs35828">














































































































































































































































































































































































































































































































































































































</defs>
  <sodipodi:namedview inkscape:window-height="602" inkscape:window-width="697" inkscape:pageshadow="2" inkscape:pageopacity="0.0" guidetolerance="10.0" gridtolerance="10.0" objecttolerance="10.0" borderopacity="1.0" bordercolor="#666666" pagecolor="#ffffff" id="base" inkscape:zoom="0.37123106" inkscape:cx="394.662" inkscape:cy="386.05719" inkscape:window-x="632" inkscape:window-y="71" inkscape:current-layer="svg34637" inkscape:showpageshadow="false"/>
  <title id="title34639">SVG drawing</title>
  <desc id="desc34641">This was produced by version 4.1 of GNU libplot, a free library for exporting 2-D vector graphics.</desc>
  <g id="g51931">
    <path transform="matrix(53.699985,0,0,75.179982,3.2702374,-11.333886)" d="M -0.042328043 0.1574074 A 0.0092592593 0.0066137565 0 1 1  -0.060846562,0.1574074 A 0.0092592593 0.0066137565 0 1 1  -0.042328043 0.1574074 z" sodipodi:ry="0.0066137565" sodipodi:rx="0.0092592593" sodipodi:cy="0.1574074" sodipodi:cx="-0.051587302" id="path36487" style="opacity:0.98999999;fill:#ffffff;fill-opacity:1;fill-rule:evenodd;stroke:#000000;stroke-width:0.00008744;stroke-linecap:butt;stroke-linejoin:round;stroke-miterlimit:10.43299961;stroke-dasharray:none;stroke-opacity:1" sodipodi:type="arc"/>
    <polygon transform="matrix(8.5148342e-3,0,0,-8.5148287e-3,-2.8547169,3.1062788)" points="408.51,355.07 408.73,355.59 408.99,355.97 409.41,356.45 409.79,356.74 410.18,356.99 410.62,357.22 410.95,357.31 411.49,357.38 412,357.38 412.77,357.25 413.44,356.93 413.82,356.7 414.18,356.39 414.59,355.97 414.82,355.52 415.01,355.01 415.07,354.69 415.11,354.08 415.07,353.66 414.95,352.77 414.88,352.57 414.82,352.38 414.66,352.1 414.37,351.65 413.95,351.07 413.31,350.59 412.51,350.24 412,350.14 411.39,350.14 410.85,350.21 410.4,350.34 409.86,350.53 409.54,350.69 409.28,350.91 409.02,351.11 408.83,351.39 408.51,351.9 408.35,352.38 408.26,353.12 408.29,353.86 408.32,354.27 408.51,355.07 409.25,354.37 409.15,353.89 409.15,352.99 409.25,352.64 409.28,352.38 409.44,352.1 409.63,351.78 409.86,351.58 410.21,351.33 410.62,351.11 410.75,351.04 411.23,350.91 411.49,350.91 412,350.98 412.26,351.04 412.61,351.23 413.15,351.65 413.47,352.03 413.76,352.48 413.95,352.99 414.11,353.41 414.18,354.24 414.11,354.79 414.02,355.01 413.76,355.52 413.38,355.97 413.09,356.19 412.87,356.29 412.51,356.45 412.07,356.51 411.39,356.51 411.07,356.45 410.72,356.29 410.5,356.13 410.08,355.81 409.79,355.46 409.54,355.01 409.38,354.72 409.25,354.37 408.51,355.07 " style="font-style:normal;font-variant:normal;font-weight:normal;font-stretch:normal;letter-spacing:normal;word-spacing:normal;text-anchor:start;fill:#097ec4;fill-opacity:1;stroke:#2495ff;stroke-width:0;stroke-linecap:butt;stroke-linejoin:miter;stroke-miterlimit:10.43299961;stroke-dasharray:none;stroke-dashoffset:0;stroke-opacity:1" id="polygon34647"/>
    <polygon transform="matrix(8.5148342e-3,0,0,-8.5148287e-3,-2.8547169,3.1062788)" points="414.56,348.64 417.86,354.79 421.98,352.57 421.6,351.9 418.3,353.7 417.22,351.71 420.16,350.14 419.78,349.41 416.84,351.01 415.36,348.25 414.56,348.64 " style="font-style:normal;font-variant:normal;font-weight:normal;font-stretch:normal;letter-spacing:normal;word-spacing:normal;text-anchor:start;fill:#097ec4;fill-opacity:1;stroke:#2495ff;stroke-width:0;stroke-linecap:butt;stroke-linejoin:miter;stroke-miterlimit:10.43299961;stroke-dasharray:none;stroke-dashoffset:0;stroke-opacity:1" id="polygon34649"/>
    <polygon transform="matrix(8.5148342e-3,0,0,-8.5148287e-3,-2.8547169,3.1062788)" points="421.41,344.89 425.54,350.53 426.24,349.98 424.55,347.61 427.36,345.54 429.12,347.9 429.86,347.36 425.76,341.73 425,342.27 426.85,344.8 423.97,346.88 422.18,344.35 421.41,344.89 " style="font-style:normal;font-variant:normal;font-weight:normal;font-stretch:normal;letter-spacing:normal;word-spacing:normal;text-anchor:start;fill:#097ec4;fill-opacity:1;stroke:#2495ff;stroke-width:0;stroke-linecap:butt;stroke-linejoin:miter;stroke-miterlimit:10.43299961;stroke-dasharray:none;stroke-dashoffset:0;stroke-opacity:1" id="polygon34651"/>
    <polygon transform="matrix(8.5148342e-3,0,0,-8.5148287e-3,-2.8547169,3.1062788)" points="430.21,342.68 430.63,343.04 430.79,343.16 430.88,343.23 431.46,343.48 431.91,343.61 432.39,343.68 432.87,343.68 433.38,343.58 433.83,343.42 434.34,343.2 434.92,342.68 435.3,342.27 435.55,341.92 435.68,341.63 435.84,341.18 435.94,340.89 436,340.41 436,340.03 435.88,339.55 435.78,339.2 435.52,338.65 435.27,338.3 434.82,337.76 434.53,337.44 433.99,337.05 433.38,336.77 433.22,336.67 432.71,336.57 432.2,336.51 431.68,336.54 431.01,336.77 430.34,337.09 430.02,337.34 429.67,337.66 429.44,337.92 429.19,338.2 429.03,338.52 428.84,339 428.77,339.29 428.74,339.64 428.74,340.12 428.8,340.41 428.9,340.8 429.06,341.12 429.51,341.92 429.76,342.21 430.21,342.68 430.53,341.76 430.05,341.12 429.8,340.45 429.67,340.16 429.67,339.39 429.8,339 429.96,338.62 430.24,338.2 430.34,338.14 430.53,337.95 430.79,337.69 431.27,337.5 431.78,337.44 432.2,337.44 432.77,337.57 433.38,337.79 433.8,338.14 434.41,338.69 434.63,338.94 434.89,339.39 434.95,339.68 435.08,340.16 435.08,340.51 435.01,340.96 434.92,341.28 434.69,341.73 434.37,342.11 434.28,342.17 434.02,342.4 433.54,342.65 432.93,342.78 432.42,342.78 432.07,342.68 431.65,342.56 431.08,342.21 430.53,341.76 430.21,342.68 " style="font-style:normal;font-variant:normal;font-weight:normal;font-stretch:normal;letter-spacing:normal;word-spacing:normal;text-anchor:start;fill:#097ec4;fill-opacity:1;stroke:#2495ff;stroke-width:0;stroke-linecap:butt;stroke-linejoin:miter;stroke-miterlimit:10.43299961;stroke-dasharray:none;stroke-dashoffset:0;stroke-opacity:1" id="polygon34653"/>
    <polygon transform="matrix(8.5148342e-3,0,0,-8.5148287e-3,-2.8547169,3.1062788)" points="435.17,334.97 439.27,337.79 439.84,336.96 435.75,334.17 435.55,334.04 435.27,333.69 435.17,333.5 435.08,333.09 435.11,332.57 435.21,332.29 435.37,332 435.65,331.61 435.88,331.42 436.16,331.2 436.58,331.07 436.74,331.04 437.19,331.07 437.7,331.29 441.8,334.08 442.31,333.31 438.25,330.49 437.77,330.23 437.54,330.17 437.12,330.11 436.64,330.17 436.2,330.3 435.62,330.68 435.08,331.16 434.66,331.8 434.37,332.45 434.31,332.92 434.31,333.44 434.41,333.88 434.66,334.33 434.95,334.78 435.17,334.97 " style="font-style:normal;font-variant:normal;font-weight:normal;font-stretch:normal;letter-spacing:normal;word-spacing:normal;text-anchor:start;fill:#097ec4;fill-opacity:1;stroke:#2495ff;stroke-width:0;stroke-linecap:butt;stroke-linejoin:miter;stroke-miterlimit:10.43299961;stroke-dasharray:none;stroke-dashoffset:0;stroke-opacity:1" id="polygon34655"/>
    <polygon transform="matrix(8.5148342e-3,0,0,-8.5148287e-3,-2.8547169,3.1062788)" points="439.14,328.96 439.56,328.16 439.37,328.06 439.01,327.68 438.79,327.42 438.66,326.94 438.66,326.62 438.73,326.17 438.82,325.82 439.01,325.43 439.37,325.05 439.69,324.79 440.13,324.6 440.36,324.6 440.64,324.63 440.8,324.7 441,324.83 441.19,325.08 441.29,325.34 441.35,325.85 441.25,326.2 440.8,328.06 440.77,328.48 440.87,329.05 441.03,329.4 441.25,329.72 441.45,329.85 441.93,330.11 442.38,330.23 442.6,330.23 443.14,330.17 443.43,330.04 443.78,329.82 444.04,329.56 444.49,328.99 444.65,328.73 444.9,328.06 445,327.68 445.03,327.32 445,326.68 444.87,326.36 444.74,326.11 444.52,325.85 444.26,325.66 443.97,325.46 443.53,326.3 443.66,326.36 443.88,326.55 444.04,326.75 444.1,326.84 444.17,327.1 444.23,327.52 444.07,328.09 443.88,328.54 443.62,328.86 443.4,329.05 443.02,329.27 442.76,329.34 442.5,329.34 442.21,329.21 442.05,329.18 441.89,328.92 441.83,328.67 441.83,328.22 442.28,326.17 442.31,325.43 442.25,324.86 442.05,324.51 441.86,324.19 441.51,323.93 441.25,323.8 440.77,323.68 440.52,323.61 440.07,323.71 439.62,323.87 439.21,324.12 438.79,324.47 438.47,324.86 438.18,325.3 437.99,325.82 437.83,326.33 437.77,326.81 437.77,327.07 437.89,327.58 438.09,328.06 438.25,328.25 438.63,328.64 438.86,328.8 439.14,328.96 " style="font-style:normal;font-variant:normal;font-weight:normal;font-stretch:normal;letter-spacing:normal;word-spacing:normal;text-anchor:start;fill:#097ec4;fill-opacity:1;stroke:#2495ff;stroke-width:0;stroke-linecap:butt;stroke-linejoin:miter;stroke-miterlimit:10.43299961;stroke-dasharray:none;stroke-dashoffset:0;stroke-opacity:1" id="polygon34657"/>
    <polygon transform="matrix(8.5148342e-3,0,0,-8.5148287e-3,-2.8547169,3.1062788)" points="440.32,321.14 447.05,323.1 447.27,322.27 440.55,320.31 440.32,321.14 " style="font-style:normal;font-variant:normal;font-weight:normal;font-stretch:normal;letter-spacing:normal;word-spacing:normal;text-anchor:start;fill:#097ec4;fill-opacity:1;stroke:#2495ff;stroke-width:0;stroke-linecap:butt;stroke-linejoin:miter;stroke-miterlimit:10.43299961;stroke-dasharray:none;stroke-dashoffset:0;stroke-opacity:1" id="polygon34659"/>
    <polygon transform="matrix(8.5148342e-3,0,0,-8.5148287e-3,-2.8547169,3.1062788)" points="441.29,317.72 448.17,319.04 448.39,317.91 443.5,313.46 449.03,314.52 449.22,313.62 442.31,312.34 442.15,313.37 446.95,317.88 441.48,316.82 441.29,317.72 " style="font-style:normal;font-variant:normal;font-weight:normal;font-stretch:normal;letter-spacing:normal;word-spacing:normal;text-anchor:start;fill:#097ec4;fill-opacity:1;stroke:#2495ff;stroke-width:0;stroke-linecap:butt;stroke-linejoin:miter;stroke-miterlimit:10.43299961;stroke-dasharray:none;stroke-dashoffset:0;stroke-opacity:1" id="polygon34661"/>
    <polygon transform="matrix(8.5148342e-3,0,0,-8.5148287e-3,-2.8547169,3.1062788)" points="446.21,311.1 446.98,311 447.72,310.78 448.27,310.49 448.62,310.23 449.03,309.75 449.32,309.34 449.48,309.02 449.7,308.28 449.77,307.89 449.77,307.35 449.64,306.61 449.45,306.17 449.22,305.85 448.94,305.43 448.74,305.3 448.36,305.05 448.14,304.98 447.79,304.89 447.72,305.78 447.79,305.78 448.17,306.01 448.49,306.36 448.74,306.77 448.84,307.03 448.94,307.54 448.94,307.86 448.87,308.18 448.74,308.54 448.58,308.98 448.39,309.27 448.11,309.53 447.66,309.85 446.89,310.11 446.6,310.14 445.93,310.14 445,309.98 444.23,309.66 443.91,309.4 443.75,309.24 443.53,308.79 443.37,308.41 443.3,308.15 443.3,307.48 443.37,307.09 443.59,306.52 443.66,306.36 444.01,305.94 444.17,305.78 444.61,305.56 444.84,305.43 445.41,305.4 445.77,305.43 445.57,307.64 446.38,307.67 446.66,304.73 442.95,304.38 442.89,305.05 443.69,305.27 443.3,305.66 442.79,306.29 442.6,306.77 442.5,307.29 442.41,307.73 442.47,308.21 442.6,308.92 442.79,309.34 443.11,309.75 443.62,310.27 444.07,310.55 444.87,310.9 446.21,311.1 " style="font-style:normal;font-variant:normal;font-weight:normal;font-stretch:normal;letter-spacing:normal;word-spacing:normal;text-anchor:start;fill:#097ec4;fill-opacity:1;stroke:#2495ff;stroke-width:0;stroke-linecap:butt;stroke-linejoin:miter;stroke-miterlimit:10.43299961;stroke-dasharray:none;stroke-dashoffset:0;stroke-opacity:1" id="polygon34663"/>
    <polygon transform="matrix(8.5148342e-3,0,0,-8.5148287e-3,-2.8547169,3.1062788)" points="339.25,298.87 346.64,298.13 346.93,297.05 340.75,292.88 340.5,293.91 342.23,295.12 341.62,297.68 339.51,297.84 339.25,298.87 342.48,297.65 343,295.61 345.62,297.3 342.48,297.65 339.25,298.87 " style="font-style:normal;font-variant:normal;font-weight:normal;font-stretch:normal;letter-spacing:normal;word-spacing:normal;text-anchor:start;fill:#097ec4;fill-opacity:1;stroke:#2495ff;stroke-width:0;stroke-linecap:butt;stroke-linejoin:miter;stroke-miterlimit:10.43299961;stroke-dasharray:none;stroke-dashoffset:0;stroke-opacity:1" id="polygon34665"/>
    <polygon transform="matrix(8.5148342e-3,0,0,-8.5148287e-3,-2.8547169,3.1062788)" points="340.21,290.9 346.77,293.3 347.19,292.28 343.09,287 348.4,288.98 348.69,288.18 342.16,285.71 341.81,286.71 345.75,291.92 340.56,290.04 340.21,290.9 " style="font-style:normal;font-variant:normal;font-weight:normal;font-stretch:normal;letter-spacing:normal;word-spacing:normal;text-anchor:start;fill:#097ec4;fill-opacity:1;stroke:#2495ff;stroke-width:0;stroke-linecap:butt;stroke-linejoin:miter;stroke-miterlimit:10.43299961;stroke-dasharray:none;stroke-dashoffset:0;stroke-opacity:1" id="polygon34667"/>
    <polygon transform="matrix(8.5148342e-3,0,0,-8.5148287e-3,-2.8547169,3.1062788)" points="349.17,286.55 350.58,284.18 350.77,283.7 350.87,283.48 350.93,282.96 350.93,282.68 350.8,282 350.55,281.46 350.39,281.14 350.16,280.88 349.65,280.43 349.17,280.08 348.72,279.86 348.6,279.76 348.44,279.73 347.99,279.57 347.41,279.38 346.77,279.34 346.29,279.38 345.81,279.47 345.55,279.6 345.11,279.89 344.79,280.27 344.56,280.62 343.19,283.06 349.17,286.55 344.4,282.71 345.43,280.88 345.55,280.69 345.81,280.46 346.16,280.34 346.55,280.27 346.93,280.27 347.61,280.46 348.47,280.88 349.27,281.46 349.71,282 349.91,282.39 350.04,282.77 350.07,282.96 349.97,283.35 349.91,283.57 349.84,283.8 348.95,285.33 344.4,282.71 349.17,286.55 " style="font-style:normal;font-variant:normal;font-weight:normal;font-stretch:normal;letter-spacing:normal;word-spacing:normal;text-anchor:start;fill:#097ec4;fill-opacity:1;stroke:#2495ff;stroke-width:0;stroke-linecap:butt;stroke-linejoin:miter;stroke-miterlimit:10.43299961;stroke-dasharray:none;stroke-dashoffset:0;stroke-opacity:1" id="polygon34669"/>
    <polygon transform="matrix(8.5148342e-3,0,0,-8.5148287e-3,-2.8547169,3.1062788)" points="351.41,273.97 355.19,277.2 355.83,276.46 352.05,273.2 351.8,272.91 351.64,272.66 351.57,272.34 351.57,272.05 351.64,271.6 351.7,271.41 351.96,270.99 352.28,270.67 352.41,270.54 352.82,270.35 352.95,270.25 353.27,270.22 353.56,270.22 353.88,270.29 354.32,270.61 358.13,273.84 358.74,273.11 354.96,269.84 354.55,269.55 354.32,269.46 353.91,269.36 353.65,269.36 353.21,269.39 352.76,269.49 352.34,269.71 351.77,270.16 351.41,270.51 351.16,270.93 350.9,271.34 350.77,271.86 350.71,272.05 350.71,272.53 350.77,272.79 350.93,273.27 351.06,273.49 351.41,273.97 " style="font-style:normal;font-variant:normal;font-weight:normal;font-stretch:normal;letter-spacing:normal;word-spacing:normal;text-anchor:start;fill:#097ec4;fill-opacity:1;stroke:#2495ff;stroke-width:0;stroke-linecap:butt;stroke-linejoin:miter;stroke-miterlimit:10.43299961;stroke-dasharray:none;stroke-dashoffset:0;stroke-opacity:1" id="polygon34671"/>
    <polygon transform="matrix(8.5148342e-3,0,0,-8.5148287e-3,-2.8547169,3.1062788)" points="355.89,266.41 360.5,271.63 363.13,269.27 363.38,269.01 363.54,268.72 363.67,268.37 363.77,268.05 363.77,267.73 363.67,267.38 363.54,267.02 363.35,266.67 363.03,266.38 362.74,266.12 362.45,266 362.1,265.93 361.72,265.93 361.5,266.03 361.56,265.49 361.5,265.01 361.37,264.78 361.14,264.4 360.41,263.63 360.28,263.44 360.18,263.09 360.21,262.8 360.05,262.67 359.25,263.41 359.45,263.82 360.41,264.97 360.57,265.33 360.63,265.71 360.5,266.12 360.28,266.48 358.52,268.02 356.54,265.78 355.89,266.41 359.09,268.66 360.89,267.02 360.95,266.99 361.14,266.86 361.34,266.77 361.62,266.73 361.97,266.8 362.17,266.86 362.42,267.02 362.68,267.41 362.74,267.5 362.77,267.73 362.77,268.11 362.65,268.37 362.26,268.91 360.63,270.38 359.09,268.66 355.89,266.41 " style="font-style:normal;font-variant:normal;font-weight:normal;font-stretch:normal;letter-spacing:normal;word-spacing:normal;text-anchor:start;fill:#097ec4;fill-opacity:1;stroke:#2495ff;stroke-width:0;stroke-linecap:butt;stroke-linejoin:miter;stroke-miterlimit:10.43299961;stroke-dasharray:none;stroke-dashoffset:0;stroke-opacity:1" id="polygon34673"/>
    <polygon transform="matrix(8.5148342e-3,0,0,-8.5148287e-3,-2.8547169,3.1062788)" points="362.9,260.91 366.55,266.86 369.24,265.26 369.62,264.85 369.91,264.37 370.04,263.82 370.01,263.28 369.91,262.99 369.59,262.51 369.53,262.38 369.21,262.16 369.11,262.12 368.76,262 368.47,261.93 368.28,261.96 368.63,261.49 368.7,261.23 368.73,260.69 368.63,260.4 368.47,260.08 368.28,259.76 368.15,259.57 367.89,259.34 367.58,259.15 367.38,259.05 367.16,259.02 367.13,258.99 366.52,258.96 366.46,258.99 366.23,258.99 365.88,259.09 365.75,259.18 362.9,260.91 364.15,261.23 366.23,259.95 366.46,259.92 366.65,259.89 367.03,259.92 367.38,260.11 367.51,260.27 367.67,260.49 367.77,260.85 367.77,261.04 367.73,261.23 367.67,261.42 367.58,261.65 367.32,261.93 365.34,263.15 364.15,261.23 362.9,260.91 365.82,263.92 367.48,262.93 367.58,262.8 367.77,262.73 367.99,262.7 368.21,262.7 368.38,262.73 368.54,262.83 368.86,263.12 369.02,263.41 369.08,263.63 369.08,263.82 369.02,264.05 368.98,264.27 368.82,264.53 368.63,264.75 368.34,264.95 366.93,265.78 365.82,263.92 362.9,260.91 " style="font-style:normal;font-variant:normal;font-weight:normal;font-stretch:normal;letter-spacing:normal;word-spacing:normal;text-anchor:start;fill:#097ec4;fill-opacity:1;stroke:#2495ff;stroke-width:0;stroke-linecap:butt;stroke-linejoin:miter;stroke-miterlimit:10.43299961;stroke-dasharray:none;stroke-dashoffset:0;stroke-opacity:1" id="polygon34675"/>
    <polygon transform="matrix(8.5148342e-3,0,0,-8.5148287e-3,-2.8547169,3.1062788)" points="401.95,352.77 402.88,358.95 400.61,359.33 400.73,360.07 406.14,359.2 406.02,358.43 403.87,358.75 402.88,352.61 401.95,352.77 " style="font-style:normal;font-variant:normal;font-weight:normal;font-stretch:normal;letter-spacing:normal;word-spacing:normal;text-anchor:start;fill:#097ec4;fill-opacity:1;stroke:#2495ff;stroke-width:0;stroke-linecap:butt;stroke-linejoin:miter;stroke-miterlimit:10.43299961;stroke-dasharray:none;stroke-dashoffset:0;stroke-opacity:1" id="polygon34677"/>
    <polygon transform="matrix(8.5148342e-3,0,0,-8.5148287e-3,-2.8547169,3.1062788)" points="393.09,353.25 393.18,360.23 394.3,360.23 397.66,354.5 397.76,360.13 398.66,360.13 398.56,353.15 397.5,353.15 394.08,358.75 394.01,353.25 393.09,353.25 " style="font-style:normal;font-variant:normal;font-weight:normal;font-stretch:normal;letter-spacing:normal;word-spacing:normal;text-anchor:start;fill:#097ec4;fill-opacity:1;stroke:#2495ff;stroke-width:0;stroke-linecap:butt;stroke-linejoin:miter;stroke-miterlimit:10.43299961;stroke-dasharray:none;stroke-dashoffset:0;stroke-opacity:1" id="polygon34679"/>
    <polygon transform="matrix(8.5148342e-3,0,0,-8.5148287e-3,-2.8547169,3.1062788)" points="385.91,352.7 384.96,359.62 389.79,360.26 389.88,359.49 385.98,358.98 386.27,356.74 390.01,357.25 390.14,356.45 386.43,355.97 386.68,353.6 390.75,354.11 390.84,353.34 385.91,352.7 " style="font-style:normal;font-variant:normal;font-weight:normal;font-stretch:normal;letter-spacing:normal;word-spacing:normal;text-anchor:start;fill:#097ec4;fill-opacity:1;stroke:#2495ff;stroke-width:0;stroke-linecap:butt;stroke-linejoin:miter;stroke-miterlimit:10.43299961;stroke-dasharray:none;stroke-dashoffset:0;stroke-opacity:1" id="polygon34681"/>
    <polygon transform="matrix(8.5148342e-3,0,0,-8.5148287e-3,-2.8547169,3.1062788)" points="377.5,350.59 375.52,357.28 376.86,357.63 380.38,352.57 380.57,358.75 381.88,359.14 383.87,352.48 382.94,352.16 381.34,357.5 381.11,351.65 380.25,351.39 376.86,356.1 378.46,350.85 377.5,350.59 " style="font-style:normal;font-variant:normal;font-weight:normal;font-stretch:normal;letter-spacing:normal;word-spacing:normal;text-anchor:start;fill:#097ec4;fill-opacity:1;stroke:#2495ff;stroke-width:0;stroke-linecap:butt;stroke-linejoin:miter;stroke-miterlimit:10.43299961;stroke-dasharray:none;stroke-dashoffset:0;stroke-opacity:1" id="polygon34683"/>
    <polygon transform="matrix(8.5148342e-3,0,0,-8.5148287e-3,-2.8547169,3.1062788)" points="373.66,349.12 371,354.75 368.86,353.76 368.5,354.46 373.5,356.77 373.85,356.1 371.86,355.17 374.52,349.54 373.66,349.12 " style="font-style:normal;font-variant:normal;font-weight:normal;font-stretch:normal;letter-spacing:normal;word-spacing:normal;text-anchor:start;fill:#097ec4;fill-opacity:1;stroke:#2495ff;stroke-width:0;stroke-linecap:butt;stroke-linejoin:miter;stroke-miterlimit:10.43299961;stroke-dasharray:none;stroke-dashoffset:0;stroke-opacity:1" id="polygon34685"/>
    <polygon transform="matrix(8.5148342e-3,0,0,-8.5148287e-3,-2.8547169,3.1062788)" points="366.17,345.02 362.42,350.91 365.4,352.77 365.79,352.99 366.26,353.09 366.62,353.09 367.03,352.96 367.67,352.57 367.96,352.29 368.21,351.84 368.25,351.65 368.28,351.26 368.28,351.04 368.25,350.66 368.05,350.3 368.47,350.27 368.95,350.11 369.37,349.73 369.72,349.18 370.14,348.51 370.46,348.29 370.59,348.22 370.78,348.22 370.94,348.03 369.98,347.39 369.88,347.49 369.72,347.65 368.73,348.99 368.44,349.25 368.21,349.38 367.99,349.41 367.77,349.41 367.25,349.25 365.27,348.03 366.93,345.47 366.17,345.02 364.89,348.73 366.9,350.02 367,350.05 367.13,350.21 367.29,350.37 367.41,350.75 367.41,351.23 367.35,351.43 367.16,351.71 367.03,351.84 366.87,352 366.65,352.1 366.39,352.13 366.14,352.1 365.82,352.03 365.46,351.87 363.64,350.69 364.89,348.73 366.17,345.02 " style="font-style:normal;font-variant:normal;font-weight:normal;font-stretch:normal;letter-spacing:normal;word-spacing:normal;text-anchor:start;fill:#097ec4;fill-opacity:1;stroke:#2495ff;stroke-width:0;stroke-linecap:butt;stroke-linejoin:miter;stroke-miterlimit:10.43299961;stroke-dasharray:none;stroke-dashoffset:0;stroke-opacity:1" id="polygon34687"/>
    <polygon transform="matrix(8.5148342e-3,0,0,-8.5148287e-3,-2.8547169,3.1062788)" points="359.45,339.68 357.01,346.69 357.88,347.39 364.28,343.61 363.48,342.94 361.56,344.03 359.51,342.4 360.28,340.38 359.45,339.68 359.19,343.16 360.86,344.51 358.23,346.14 359.19,343.16 359.45,339.68 " style="font-style:normal;font-variant:normal;font-weight:normal;font-stretch:normal;letter-spacing:normal;word-spacing:normal;text-anchor:start;fill:#097ec4;fill-opacity:1;stroke:#2495ff;stroke-width:0;stroke-linecap:butt;stroke-linejoin:miter;stroke-miterlimit:10.43299961;stroke-dasharray:none;stroke-dashoffset:0;stroke-opacity:1" id="polygon34689"/>
    <polygon transform="matrix(8.5148342e-3,0,0,-8.5148287e-3,-2.8547169,3.1062788)" points="355.89,335.71 350.48,340.19 352.54,342.65 352.89,343 353.14,343.16 353.65,343.29 353.91,343.29 354.26,343.26 354.77,343.1 355.16,342.84 355.38,342.65 355.7,342.21 355.93,341.7 356.02,341.41 356.05,341.12 355.99,340.8 355.89,340.45 355.67,340.19 354.13,338.3 356.44,336.41 355.89,335.71 351.77,340.29 353.52,338.78 355.03,340.61 355.03,340.64 355.06,341.02 355.06,341.31 355,341.54 354.8,341.89 354.58,342.14 354.42,342.17 354.16,342.3 353.88,342.37 353.49,342.27 353.33,342.17 353.27,342.11 353.14,341.98 351.77,340.29 355.89,335.71 " style="font-style:normal;font-variant:normal;font-weight:normal;font-stretch:normal;letter-spacing:normal;word-spacing:normal;text-anchor:start;fill:#097ec4;fill-opacity:1;stroke:#2495ff;stroke-width:0;stroke-linecap:butt;stroke-linejoin:miter;stroke-miterlimit:10.43299961;stroke-dasharray:none;stroke-dashoffset:0;stroke-opacity:1" id="polygon34691"/>
    <polygon transform="matrix(8.5148342e-3,0,0,-8.5148287e-3,-2.8547169,3.1062788)" points="352.02,330.43 345.91,333.72 348.21,337.98 348.92,337.6 347.03,334.17 348.98,333.09 350.77,336.38 351.51,335.96 349.68,332.7 351.77,331.58 353.68,335.1 354.42,334.78 352.02,330.43 " style="font-style:normal;font-variant:normal;font-weight:normal;font-stretch:normal;letter-spacing:normal;word-spacing:normal;text-anchor:start;fill:#097ec4;fill-opacity:1;stroke:#2495ff;stroke-width:0;stroke-linecap:butt;stroke-linejoin:miter;stroke-miterlimit:10.43299961;stroke-dasharray:none;stroke-dashoffset:0;stroke-opacity:1" id="polygon34693"/>
    <polygon transform="matrix(8.5148342e-3,0,0,-8.5148287e-3,-2.8547169,3.1062788)" points="342.1,326.36 343.12,328.96 343.32,329.27 343.57,329.69 343.95,330.07 344.31,330.3 344.66,330.46 345.11,330.59 345.59,330.68 346.1,330.68 346.64,330.55 347.22,330.39 348.34,329.82 349.07,329.18 349.39,328.83 349.65,328.44 349.75,328.16 349.84,327.68 349.84,327.2 349.68,326.46 348.69,323.87 342.1,326.36 348.15,325.05 348.92,326.97 348.98,327.32 348.98,327.52 348.85,327.87 348.69,328.19 348.24,328.67 347.86,328.96 347.45,329.18 346.55,329.5 346.04,329.59 345.59,329.59 345.11,329.56 344.72,329.47 344.4,329.27 344.08,328.99 343.86,328.6 343.22,326.88 348.15,325.05 342.1,326.36 " style="font-style:normal;font-variant:normal;font-weight:normal;font-stretch:normal;letter-spacing:normal;word-spacing:normal;text-anchor:start;fill:#097ec4;fill-opacity:1;stroke:#2495ff;stroke-width:0;stroke-linecap:butt;stroke-linejoin:miter;stroke-miterlimit:10.43299961;stroke-dasharray:none;stroke-dashoffset:0;stroke-opacity:1" id="polygon34695"/>
    <polygon transform="matrix(8.5148342e-3,0,0,-8.5148287e-3,-2.8547169,3.1062788)" points="343.54,313.98 343.73,314.84 343.92,314.78 344.24,314.78 344.59,314.84 344.85,314.97 345.27,315.26 345.46,315.51 345.62,315.77 345.81,316.25 345.81,316.6 345.84,316.89 345.81,317.37 345.71,317.62 345.55,317.88 345.36,318.07 345.11,318.2 344.72,318.27 344.59,318.27 344.31,318.14 343.92,317.88 343.61,317.43 343.45,317.02 342.8,315.7 342.55,315.39 342.23,315.13 341.94,314.91 341.59,314.78 341.11,314.78 340.59,314.91 340.47,314.97 339.99,315.26 339.7,315.58 339.44,316.02 339.38,316.34 339.35,316.89 339.38,317.27 339.44,317.75 339.47,317.88 339.76,318.62 340.18,319.23 340.56,319.58 340.95,319.74 341.36,319.83 341.84,319.77 342.07,319.7 341.88,318.84 341.71,318.87 341.46,318.91 341.2,318.84 340.95,318.71 340.75,318.55 340.56,318.33 340.37,318.11 340.24,317.82 340.18,317.37 340.11,316.79 340.18,316.47 340.34,316.25 340.47,316.02 340.72,315.86 340.98,315.74 341.11,315.7 341.23,315.74 341.49,315.86 341.62,315.9 341.91,316.25 342.29,316.86 343,318.27 343.22,318.59 343.61,318.97 343.8,319.07 344.31,319.26 344.5,319.35 344.95,319.35 345.43,319.2 345.68,319.04 346.04,318.71 346.32,318.33 346.55,317.91 346.64,317.43 346.68,316.89 346.64,316.38 346.42,315.61 346.07,314.91 345.94,314.71 345.55,314.36 345.11,314.07 344.85,313.98 344.4,313.85 344.08,313.85 343.54,313.98 " style="font-style:normal;font-variant:normal;font-weight:normal;font-stretch:normal;letter-spacing:normal;word-spacing:normal;text-anchor:start;fill:#097ec4;fill-opacity:1;stroke:#2495ff;stroke-width:0;stroke-linecap:butt;stroke-linejoin:miter;stroke-miterlimit:10.43299961;stroke-dasharray:none;stroke-dashoffset:0;stroke-opacity:1" id="polygon34697"/>
    <polygon transform="matrix(8.5148342e-3,0,0,-8.5148287e-3,-2.8547169,3.1062788)" points="346.8,319.07 345.81,319.35 346.04,320.38 347.09,320.12 346.8,319.07 " style="font-style:normal;font-variant:normal;font-weight:normal;font-stretch:normal;letter-spacing:normal;word-spacing:normal;text-anchor:start;fill:#097ec4;fill-opacity:1;stroke:#2495ff;stroke-width:0;stroke-linecap:butt;stroke-linejoin:miter;stroke-miterlimit:10.43299961;stroke-dasharray:none;stroke-dashoffset:0;stroke-opacity:1" id="polygon34699"/>
    <polygon transform="matrix(8.5148342e-3,0,0,-8.5148287e-3,-2.8547169,3.1062788)" points="345.3,310.9 344.21,311 344.31,312.02 345.36,311.93 345.3,310.9 " style="font-style:normal;font-variant:normal;font-weight:normal;font-stretch:normal;letter-spacing:normal;word-spacing:normal;text-anchor:start;fill:#097ec4;fill-opacity:1;stroke:#2495ff;stroke-width:0;stroke-linecap:butt;stroke-linejoin:miter;stroke-miterlimit:10.43299961;stroke-dasharray:none;stroke-dashoffset:0;stroke-opacity:1" id="polygon34701"/>
    <polygon transform="matrix(8.5148342e-3,0,0,-8.5148287e-3,-2.8547169,3.1062788)" points="343.12,305.4 338.2,305.69 338.23,306.68 343.54,306.36 343.86,306.49 344.15,306.65 344.34,306.87 344.53,307.09 344.66,307.38 344.79,307.67 344.82,308.18 344.82,308.47 344.69,308.79 344.59,309.11 344.43,309.34 344.18,309.53 343.92,309.69 343.41,309.85 338.45,310.14 338.48,311.13 343.45,310.81 343.73,310.78 344.18,310.65 344.4,310.52 344.72,310.27 344.85,310.11 345.17,309.69 345.27,309.5 345.43,309.05 345.52,308.79 345.55,308.31 345.52,307.61 345.3,306.9 345.23,306.68 344.82,306.1 344.43,305.78 344.18,305.62 343.7,305.43 343.12,305.4 " style="font-style:normal;font-variant:normal;font-weight:normal;font-stretch:normal;letter-spacing:normal;word-spacing:normal;text-anchor:start;fill:#097ec4;fill-opacity:1;stroke:#2495ff;stroke-width:0;stroke-linecap:butt;stroke-linejoin:miter;stroke-miterlimit:10.43299961;stroke-dasharray:none;stroke-dashoffset:0;stroke-opacity:1" id="polygon34703"/>
    <polygon transform="matrix(8.5148342e-3,0,0,-8.5148287e-3,-2.8547169,3.1062788)" points="368.82,257.52 373.88,262.99 374.94,262.54 374.49,255.09 373.56,255.54 373.66,257.68 371.26,258.67 369.82,257.13 368.82,257.52 371.77,259.38 373.69,258.54 373.95,261.61 371.77,259.38 368.82,257.52 " style="font-style:normal;font-variant:normal;font-weight:normal;font-stretch:normal;letter-spacing:normal;word-spacing:normal;text-anchor:start;fill:#097ec4;fill-opacity:1;stroke:#2495ff;stroke-width:0;stroke-linecap:butt;stroke-linejoin:miter;stroke-miterlimit:10.43299961;stroke-dasharray:none;stroke-dashoffset:0;stroke-opacity:1" id="polygon34705"/>
    <polygon transform="matrix(8.5148342e-3,0,0,-8.5148287e-3,-2.8547169,3.1062788)" points="375.71,254.77 377.59,261.49 378.68,261.2 380.48,254.83 381.98,260.27 382.88,260.02 380.98,253.29 380,253.55 378.07,259.89 376.57,254.51 375.71,254.77 " style="font-style:normal;font-variant:normal;font-weight:normal;font-stretch:normal;letter-spacing:normal;word-spacing:normal;text-anchor:start;fill:#097ec4;fill-opacity:1;stroke:#2495ff;stroke-width:0;stroke-linecap:butt;stroke-linejoin:miter;stroke-miterlimit:10.43299961;stroke-dasharray:none;stroke-dashoffset:0;stroke-opacity:1" id="polygon34707"/>
    <polygon transform="matrix(8.5148342e-3,0,0,-8.5148287e-3,-2.8547169,3.1062788)" points="388.03,259.02 390.81,258.96 391.16,258.89 391.64,258.77 392.22,258.41 392.64,258.06 392.93,257.68 393.18,257.13 393.34,256.69 393.41,256.3 393.44,255.54 393.37,254.77 393.18,253.96 393.02,253.55 392.8,253.1 392.64,252.84 392.29,252.52 392.03,252.33 391.64,252.14 390.94,251.95 390.55,251.95 387.77,252.04 388.03,259.02 388.67,252.94 391,252.81 391.32,252.94 391.64,253.16 391.87,253.42 392.06,253.8 392.25,254.22 392.35,254.67 392.41,255.44 392.41,255.89 392.32,256.4 392.22,256.81 392.03,257.26 391.8,257.58 391.48,257.87 391.13,258.06 390.71,258.12 388.89,258.19 388.67,252.94 388.03,259.02 " style="font-style:normal;font-variant:normal;font-weight:normal;font-stretch:normal;letter-spacing:normal;word-spacing:normal;text-anchor:start;fill:#097ec4;fill-opacity:1;stroke:#2495ff;stroke-width:0;stroke-linecap:butt;stroke-linejoin:miter;stroke-miterlimit:10.43299961;stroke-dasharray:none;stroke-dashoffset:0;stroke-opacity:1" id="polygon34709"/>
    <polygon transform="matrix(8.5148342e-3,0,0,-8.5148287e-3,-2.8547169,3.1062788)" points="396.03,251.85 395.45,258.8 400.29,259.18 400.35,258.45 396.41,258.16 396.64,255.89 400.38,256.17 400.45,255.34 396.67,255.05 396.89,252.71 400.93,253.04 401.02,252.23 396.03,251.85 " style="font-style:normal;font-variant:normal;font-weight:normal;font-stretch:normal;letter-spacing:normal;word-spacing:normal;text-anchor:start;fill:#097ec4;fill-opacity:1;stroke:#2495ff;stroke-width:0;stroke-linecap:butt;stroke-linejoin:miter;stroke-miterlimit:10.43299961;stroke-dasharray:none;stroke-dashoffset:0;stroke-opacity:1" id="polygon34711"/>
    <polygon transform="matrix(8.5148342e-3,0,0,-8.5148287e-3,-2.8547169,3.1062788)" points="411.87,254.57 409.21,261.04 413.63,262.89 413.92,262.16 410.34,260.69 411.2,258.61 414.66,260.05 414.98,259.28 411.49,257.87 412.39,255.7 416.13,257.26 416.48,256.46 411.87,254.57 " style="font-style:normal;font-variant:normal;font-weight:normal;font-stretch:normal;letter-spacing:normal;word-spacing:normal;text-anchor:start;fill:#097ec4;fill-opacity:1;stroke:#2495ff;stroke-width:0;stroke-linecap:butt;stroke-linejoin:miter;stroke-miterlimit:10.43299961;stroke-dasharray:none;stroke-dashoffset:0;stroke-opacity:1" id="polygon34713"/>
    <polygon transform="matrix(8.5148342e-3,0,0,-8.5148287e-3,-2.8547169,3.1062788)" points="442.28,278.35 436.04,281.55 438.25,285.81 438.89,285.46 437.12,282 439.11,280.95 440.8,284.31 441.61,283.95 439.88,280.59 441.93,279.57 443.78,283.12 444.52,282.8 442.28,278.35 " style="font-style:normal;font-variant:normal;font-weight:normal;font-stretch:normal;letter-spacing:normal;word-spacing:normal;text-anchor:start;fill:#097ec4;fill-opacity:1;stroke:#2495ff;stroke-width:0;stroke-linecap:butt;stroke-linejoin:miter;stroke-miterlimit:10.43299961;stroke-dasharray:none;stroke-dashoffset:0;stroke-opacity:1" id="polygon34715"/>
    <polygon transform="matrix(8.5148342e-3,0,0,-8.5148287e-3,-2.8547169,3.1062788)" points="419.17,257.64 416.07,263.86 416.93,264.3 419.68,258.8 422.69,260.3 423.07,259.54 419.17,257.64 " style="font-style:normal;font-variant:normal;font-weight:normal;font-stretch:normal;letter-spacing:normal;word-spacing:normal;text-anchor:start;fill:#097ec4;fill-opacity:1;stroke:#2495ff;stroke-width:0;stroke-linecap:butt;stroke-linejoin:miter;stroke-miterlimit:10.43299961;stroke-dasharray:none;stroke-dashoffset:0;stroke-opacity:1" id="polygon34717"/>
    <polygon transform="matrix(8.5148342e-3,0,0,-8.5148287e-3,-2.8547169,3.1062788)" points="421.31,263.28 421.19,263.54 421.06,263.82 420.93,264.24 420.87,264.53 420.83,265.33 420.87,265.78 420.99,266.09 421.19,266.54 421.35,266.86 421.66,267.28 421.95,267.54 422.4,267.92 422.91,268.14 423.04,268.24 423.2,268.27 423.3,268.34 424.07,268.5 424.71,268.4 425.03,268.37 425.35,268.27 425.83,268.02 426.27,267.66 426.59,267.41 427.2,266.67 427.65,265.71 427.78,265.36 427.84,264.69 427.84,264.4 427.78,263.86 427.71,263.54 427.43,262.93 427.2,262.61 426.95,262.32 426.66,262.03 426.15,261.65 426.02,261.55 425.48,261.32 425,261.2 424.68,261.17 424.04,261.2 423.36,261.39 422.91,261.61 422.37,262.03 422.08,262.32 421.57,262.93 421.31,263.28 422.34,263.41 422.37,263.31 422.79,262.89 423.3,262.45 423.62,262.29 423.94,262.16 424.58,262.03 424.96,262.06 425.41,262.16 425.7,262.32 426.11,262.61 426.4,262.83 426.53,263.05 426.72,263.38 426.91,264.05 426.91,264.3 426.88,264.78 426.82,265.07 426.47,265.93 426.15,266.48 425.92,266.77 425.57,267.02 425.32,267.25 424.8,267.5 424.45,267.57 423.97,267.57 423.43,267.5 423.3,267.47 422.85,267.21 422.4,266.86 422.08,266.41 421.92,266.09 421.79,265.74 421.79,265.52 421.73,265.07 421.79,264.66 421.86,264.37 422.05,263.86 422.34,263.41 421.31,263.28 " style="font-style:normal;font-variant:normal;font-weight:normal;font-stretch:normal;letter-spacing:normal;word-spacing:normal;text-anchor:start;fill:#097ec4;fill-opacity:1;stroke:#2495ff;stroke-width:0;stroke-linecap:butt;stroke-linejoin:miter;stroke-miterlimit:10.43299961;stroke-dasharray:none;stroke-dashoffset:0;stroke-opacity:1" id="polygon34719"/>
    <polygon transform="matrix(8.5148342e-3,0,0,-8.5148287e-3,-2.8547169,3.1062788)" points="405.31,252.97 401.41,259.28 402.34,259.5 405.54,254.16 406.24,260.3 407.2,260.53 406.27,253.2 405.31,252.97 " style="font-style:normal;font-variant:normal;font-weight:normal;font-stretch:normal;letter-spacing:normal;word-spacing:normal;text-anchor:start;fill:#097ec4;fill-opacity:1;stroke:#2495ff;stroke-width:0;stroke-linecap:butt;stroke-linejoin:miter;stroke-miterlimit:10.43299961;stroke-dasharray:none;stroke-dashoffset:0;stroke-opacity:1" id="polygon34721"/>
    <polygon transform="matrix(8.5148342e-3,0,0,-8.5148287e-3,-2.8547169,3.1062788)" points="431.08,265.49 426.47,270.77 428.9,272.88 428.93,272.91 429.29,273.14 429.44,273.2 429.76,273.33 430.21,273.33 430.72,273.17 431.04,273.04 431.52,272.66 431.78,272.27 432,271.86 432.13,271.47 432.16,271.15 432.13,270.9 432.07,270.61 431.91,270.25 431.59,269.9 429.8,268.34 431.75,266.06 431.08,265.49 427.78,270.64 429.29,268.88 431.04,270.41 431.04,270.48 431.17,270.83 431.17,271.38 431.04,271.73 430.82,272.05 430.44,272.27 430.18,272.34 429.92,272.34 429.51,272.21 429.35,272.08 427.78,270.64 431.08,265.49 " style="font-style:normal;font-variant:normal;font-weight:normal;font-stretch:normal;letter-spacing:normal;word-spacing:normal;text-anchor:start;fill:#097ec4;fill-opacity:1;stroke:#2495ff;stroke-width:0;stroke-linecap:butt;stroke-linejoin:miter;stroke-miterlimit:10.43299961;stroke-dasharray:none;stroke-dashoffset:0;stroke-opacity:1" id="polygon34723"/>
    <polygon transform="matrix(8.5148342e-3,0,0,-8.5148287e-3,-2.8547169,3.1062788)" points="435.88,270.51 430.53,274.99 431.39,276.02 437.12,273.75 433.89,279.03 434.76,280.02 440.13,275.54 439.49,274.83 435.21,278.39 438.28,273.39 437.7,272.66 432.29,274.73 436.52,271.25 435.88,270.51 " style="font-style:normal;font-variant:normal;font-weight:normal;font-stretch:normal;letter-spacing:normal;word-spacing:normal;text-anchor:start;fill:#097ec4;fill-opacity:1;stroke:#2495ff;stroke-width:0;stroke-linecap:butt;stroke-linejoin:miter;stroke-miterlimit:10.43299961;stroke-dasharray:none;stroke-dashoffset:0;stroke-opacity:1" id="polygon34725"/>
    <polygon transform="matrix(8.5148342e-3,0,0,-8.5148287e-3,-2.8547169,3.1062788)" points="445.93,285.39 439.27,287.57 439.62,288.59 446.02,290.16 440.68,291.92 440.96,292.79 447.62,290.61 447.27,289.62 440.9,287.99 446.21,286.26 445.93,285.39 " style="font-style:normal;font-variant:normal;font-weight:normal;font-stretch:normal;letter-spacing:normal;word-spacing:normal;text-anchor:start;fill:#097ec4;fill-opacity:1;stroke:#2495ff;stroke-width:0;stroke-linecap:butt;stroke-linejoin:miter;stroke-miterlimit:10.43299961;stroke-dasharray:none;stroke-dashoffset:0;stroke-opacity:1" id="polygon34727"/>
    <polygon transform="matrix(8.5148342e-3,0,0,-8.5148287e-3,-2.8547169,3.1062788)" points="448.74,294.8 442.6,296.09 442.12,293.81 441.38,293.97 442.5,299.32 443.24,299.19 442.79,297.05 448.94,295.8 448.74,294.8 " style="font-style:normal;font-variant:normal;font-weight:normal;font-stretch:normal;letter-spacing:normal;word-spacing:normal;text-anchor:start;fill:#097ec4;fill-opacity:1;stroke:#2495ff;stroke-width:0;stroke-linecap:butt;stroke-linejoin:miter;stroke-miterlimit:10.43299961;stroke-dasharray:none;stroke-dashoffset:0;stroke-opacity:1" id="polygon34729"/>
    <polygon transform="matrix(8.5148342e-3,0,0,-8.5148287e-3,-2.8547169,3.1062788)" points="374.27,273.04 377.95,273.04 377.95,302.96 374.27,302.96 374.27,273.04 " style="font-style:normal;font-variant:normal;font-weight:normal;font-stretch:normal;letter-spacing:normal;word-spacing:normal;text-anchor:start;fill:#1ea271;fill-opacity:1;fill-rule:nonzero;stroke:#31de42;stroke-width:0;stroke-linecap:butt;stroke-linejoin:miter;stroke-miterlimit:10.43299961;stroke-dasharray:none;stroke-dashoffset:0;stroke-opacity:1" id="polygon34731"/>
    <polygon transform="matrix(8.5148342e-3,0,0,-8.5148287e-3,-2.8547169,3.1062788)" points="379.58,271.15 383.23,271.15 383.23,307.16 379.58,307.16 379.58,271.15 " style="font-style:normal;font-variant:normal;font-weight:normal;font-stretch:normal;letter-spacing:normal;word-spacing:normal;text-anchor:start;fill:#1ea271;fill-opacity:1;fill-rule:nonzero;stroke:#31de42;stroke-width:0;stroke-linecap:butt;stroke-linejoin:miter;stroke-miterlimit:10.43299961;stroke-dasharray:none;stroke-dashoffset:0;stroke-opacity:1" id="polygon34733"/>
    <polygon transform="matrix(8.5148342e-3,0,0,-8.5148287e-3,-2.8547169,3.1062788)" points="384.8,270.93 388.48,270.93 388.48,311.51 384.8,311.51 384.8,270.93 " style="font-style:normal;font-variant:normal;font-weight:normal;font-stretch:normal;letter-spacing:normal;word-spacing:normal;text-anchor:start;fill:#1ea271;fill-opacity:1;fill-rule:nonzero;stroke:#31de42;stroke-width:0;stroke-linecap:butt;stroke-linejoin:miter;stroke-miterlimit:10.43299961;stroke-dasharray:none;stroke-dashoffset:0;stroke-opacity:1" id="polygon34735"/>
    <polygon transform="matrix(8.5148342e-3,0,0,-8.5148287e-3,-2.8547169,3.1062788)" points="390.2,271.21 393.89,271.21 393.89,301.37 390.2,301.37 390.2,271.21 " style="font-style:normal;font-variant:normal;font-weight:normal;font-stretch:normal;letter-spacing:normal;word-spacing:normal;text-anchor:start;fill:#1ea271;fill-opacity:1;fill-rule:nonzero;stroke:#31de42;stroke-width:0;stroke-linecap:butt;stroke-linejoin:miter;stroke-miterlimit:10.43299961;stroke-dasharray:none;stroke-dashoffset:0;stroke-opacity:1" id="polygon34737"/>
    <polygon transform="matrix(8.5148342e-3,0,0,-8.5148287e-3,-2.8547169,3.1062788)" points="395.39,271.21 399,271.21 399,301.37 395.39,301.37 395.39,271.21 " style="font-style:normal;font-variant:normal;font-weight:normal;font-stretch:normal;letter-spacing:normal;word-spacing:normal;text-anchor:start;fill:#1ea271;fill-opacity:1;fill-rule:nonzero;stroke:#31de42;stroke-width:0;stroke-linecap:butt;stroke-linejoin:miter;stroke-miterlimit:10.43299961;stroke-dasharray:none;stroke-dashoffset:0;stroke-opacity:1" id="polygon34739"/>
    <polygon transform="matrix(8.5148342e-3,0,0,-8.5148287e-3,-2.8547169,3.1062788)" points="400.67,271.15 404.35,271.15 404.35,311.86 400.67,311.86 400.67,271.15 " style="font-style:normal;font-variant:normal;font-weight:normal;font-stretch:normal;letter-spacing:normal;word-spacing:normal;text-anchor:start;fill:#1ea271;fill-opacity:1;fill-rule:nonzero;stroke:#31de42;stroke-width:0;stroke-linecap:butt;stroke-linejoin:miter;stroke-miterlimit:10.43299961;stroke-dasharray:none;stroke-dashoffset:0;stroke-opacity:1" id="polygon34741"/>
    <polygon transform="matrix(8.5148342e-3,0,0,-8.5148287e-3,-2.8547169,3.1062788)" points="406.08,271.15 409.76,271.15 409.76,307.16 406.08,307.16 406.08,271.15 " style="font-style:normal;font-variant:normal;font-weight:normal;font-stretch:normal;letter-spacing:normal;word-spacing:normal;text-anchor:start;fill:#1ea271;fill-opacity:1;fill-rule:nonzero;stroke:#31de42;stroke-width:0;stroke-linecap:butt;stroke-linejoin:miter;stroke-miterlimit:10.43299961;stroke-dasharray:none;stroke-dashoffset:0;stroke-opacity:1" id="polygon34743"/>
    <polygon transform="matrix(8.5148342e-3,0,0,-8.5148287e-3,-2.8547169,3.1062788)" points="411.33,273.07 415.01,273.07 415.01,303 411.33,303 411.33,273.07 " style="font-style:normal;font-variant:normal;font-weight:normal;font-stretch:normal;letter-spacing:normal;word-spacing:normal;text-anchor:start;fill:#1ea271;fill-opacity:1;fill-rule:nonzero;stroke:#31de42;stroke-width:0;stroke-linecap:butt;stroke-linejoin:miter;stroke-miterlimit:10.43299961;stroke-dasharray:none;stroke-dashoffset:0;stroke-opacity:1" id="polygon34745"/>
    <polygon transform="matrix(8.5148342e-3,0,0,-8.5148287e-3,-2.8547169,3.1062788)" points="374.07,333.92 374.07,304.31 377.69,304.31 377.69,336.67 374.07,333.92 " style="font-style:normal;font-variant:normal;font-weight:normal;font-stretch:normal;letter-spacing:normal;word-spacing:normal;text-anchor:start;fill:#097ec4;fill-opacity:1;stroke:#2495ff;stroke-width:0;stroke-linecap:butt;stroke-linejoin:miter;stroke-miterlimit:10.43299961;stroke-dasharray:none;stroke-dashoffset:0;stroke-opacity:1" id="polygon34747"/>
    <polygon transform="matrix(8.5148342e-3,0,0,-8.5148287e-3,-2.8547169,3.1062788)" points="379.45,337.69 379.45,308.79 383.07,308.79 383.07,340.45 379.45,337.69 " style="font-style:normal;font-variant:normal;font-weight:normal;font-stretch:normal;letter-spacing:normal;word-spacing:normal;text-anchor:start;fill:#097ec4;fill-opacity:1;stroke:#2495ff;stroke-width:0;stroke-linecap:butt;stroke-linejoin:miter;stroke-miterlimit:10.43299961;stroke-dasharray:none;stroke-dashoffset:0;stroke-opacity:1" id="polygon34749"/>
    <polygon transform="matrix(8.5148342e-3,0,0,-8.5148287e-3,-2.8547169,3.1062788)" points="384.8,341.5 384.8,313.34 388.48,313.34 388.48,344.25 384.8,341.5 " style="font-style:normal;font-variant:normal;font-weight:normal;font-stretch:normal;letter-spacing:normal;word-spacing:normal;text-anchor:start;fill:#097ec4;fill-opacity:1;stroke:#2495ff;stroke-width:0;stroke-linecap:butt;stroke-linejoin:miter;stroke-miterlimit:10.43299961;stroke-dasharray:none;stroke-dashoffset:0;stroke-opacity:1" id="polygon34751"/>
    <polygon transform="matrix(8.5148342e-3,0,0,-8.5148287e-3,-2.8547169,3.1062788)" points="404.38,341.15 404.38,313.27 400.67,313.27 400.67,343.9 404.38,341.15 " style="font-style:normal;font-variant:normal;font-weight:normal;font-stretch:normal;letter-spacing:normal;word-spacing:normal;text-anchor:start;fill:#097ec4;fill-opacity:1;stroke:#2495ff;stroke-width:0;stroke-linecap:butt;stroke-linejoin:miter;stroke-miterlimit:10.43299961;stroke-dasharray:none;stroke-dashoffset:0;stroke-opacity:1" id="polygon34753"/>
    <polygon transform="matrix(8.5148342e-3,0,0,-8.5148287e-3,-2.8547169,3.1062788)" points="409.63,337.66 409.63,308.76 405.98,308.76 405.98,340.41 409.63,337.66 " style="font-style:normal;font-variant:normal;font-weight:normal;font-stretch:normal;letter-spacing:normal;word-spacing:normal;text-anchor:start;fill:#097ec4;fill-opacity:1;stroke:#2495ff;stroke-width:0;stroke-linecap:butt;stroke-linejoin:miter;stroke-miterlimit:10.43299961;stroke-dasharray:none;stroke-dashoffset:0;stroke-opacity:1" id="polygon34755"/>
    <polygon transform="matrix(8.5148342e-3,0,0,-8.5148287e-3,-2.8547169,3.1062788)" points="415.01,333.69 415.01,304.15 411.36,304.15 411.36,336.41 415.01,333.69 " style="font-style:normal;font-variant:normal;font-weight:normal;font-stretch:normal;letter-spacing:normal;word-spacing:normal;text-anchor:start;fill:#097ec4;fill-opacity:1;stroke:#2495ff;stroke-width:0;stroke-linecap:butt;stroke-linejoin:miter;stroke-miterlimit:10.43299961;stroke-dasharray:none;stroke-dashoffset:0;stroke-opacity:1" id="polygon34757"/>
    <polygon transform="matrix(8.5148342e-3,0,0,-8.5148287e-3,-2.8547169,3.1062788)" points="391.07,327.52 393.15,327.52 390.27,324.31 390.27,303.29 398.62,303.29 398.62,325.43 396.45,328.92 396.29,329.21 396.06,329.56 395.77,329.91 395.45,330.14 395.07,330.3 394.84,330.43 394.46,330.49 394.05,330.52 393.63,330.49 393.31,330.46 392.89,330.3 392.54,330.11 392.16,329.82 391.71,329.4 391.52,329.08 391.32,328.73 391.2,328.35 391.1,328 391.07,327.52 " style="font-style:normal;font-variant:normal;font-weight:normal;font-stretch:normal;letter-spacing:normal;word-spacing:normal;text-anchor:start;fill:#097ec4;fill-opacity:1;stroke:#2495ff;stroke-width:0;stroke-linecap:butt;stroke-linejoin:miter;stroke-miterlimit:10.43299961;stroke-dasharray:none;stroke-dashoffset:0;stroke-opacity:1" id="polygon34759"/>
    <polygon transform="matrix(8.5148342e-3,0,0,-8.5148287e-3,-2.8547169,3.1062788)" points="358.33,301.21 359.67,305.4 356.28,307.99 360.5,307.99 361.72,311.73 363,307.99 367.25,307.99 363.89,305.4 365.14,301.3 361.72,303.8 358.33,301.21 " style="font-style:normal;font-variant:normal;font-weight:normal;font-stretch:normal;letter-spacing:normal;word-spacing:normal;text-anchor:start;fill:#1ea271;fill-opacity:1;stroke:#31de42;stroke-width:0;stroke-linecap:butt;stroke-linejoin:miter;stroke-miterlimit:10.43299961;stroke-dasharray:none;stroke-dashoffset:0;stroke-opacity:1" id="polygon34761"/>
    <polygon transform="matrix(8.5148342e-3,0,0,-8.5148287e-3,-2.8547169,3.1062788)" points="423.52,300.92 424.9,305.11 421.48,307.67 425.7,307.67 426.91,311.45 428.16,307.67 432.48,307.67 429.09,305.11 430.34,301.05 426.91,303.51 423.52,300.92 " style="font-style:normal;font-variant:normal;font-weight:normal;font-stretch:normal;letter-spacing:normal;word-spacing:normal;text-anchor:start;fill:#097ec4;fill-opacity:1;stroke:#2495ff;stroke-width:0;stroke-linecap:butt;stroke-linejoin:miter;stroke-miterlimit:10.43299961;stroke-dasharray:none;stroke-dashoffset:0;stroke-opacity:1" id="polygon34763"/>
  </g>
</svg>
