<?xml version="1.0" encoding="utf-8"?>
<!-- Generator: Adobe Illustrator 19.1.0, SVG Export Plug-In . SVG Version: 6.00 Build 0)  -->
<svg version="1.1" id="Layer_1" xmlns="http://www.w3.org/2000/svg" xmlns:xlink="http://www.w3.org/1999/xlink" x="0px" y="0px"
	 viewBox="0 0 145 30" style="enable-background:new 0 0 145 30;" xml:space="preserve">
<style type="text/css">
	.st0{fill:#FFFFFF;}
</style>
<g>
	<path class="st0" d="M16.1,21.9C16.1,21.9,16.1,21.9,16.1,21.9c0.2,0,0.5-0.1,0.6-0.2l3.1-3.1c0,0,0,0,0,0l3.1-3.1c0,0,0,0,0,0
		l5.4-5.4c2.3-2.3,2.3-6.1,0-8.4c-2.3-2.3-6.1-2.3-8.4,0L8.3,13.3c-0.2,0.2-0.3,0.4-0.2,0.6l0.1,6.7L5,23.8
		c-2.1-2.4-3.3-5.5-3.3-8.7c0-3.5,1.4-6.8,3.9-9.3C8,3.3,11.3,2,14.9,2c0.5,0,0.8-0.4,0.8-0.8s-0.4-0.8-0.8-0.8
		c-4,0-7.7,1.5-10.5,4.4C1.5,7.4,0,11.2,0,15.1c0,4,1.5,7.7,4.4,10.5c2.8,2.8,6.5,4.4,10.5,4.4s7.7-1.5,10.5-4.4
		c2.8-2.8,4.4-6.5,4.4-10.5c0-0.5-0.4-0.8-0.8-0.8c-0.5,0-0.8,0.4-0.8,0.8c0,3.5-1.4,6.8-3.9,9.3s-5.8,3.9-9.3,3.9
		c-3.2,0-6.3-1.2-8.7-3.3l3.2-3.2L16.1,21.9z M15.8,20.2L11,20.2l1.5-1.5l4.7,0.1L15.8,20.2z M15.6,15.6l4.7,0.1l-1.5,1.5L14.1,17
		L15.6,15.6z M9.8,14.2L21.1,2.9c1.7-1.7,4.3-1.7,6,0c0.8,0.8,1.2,1.9,1.2,3s-0.4,2.2-1.2,3L22,14l-4.7-0.1l4-4
		c0.3-0.3,0.3-0.9,0-1.2c-0.3-0.3-0.9-0.3-1.2,0l-8.5,8.5l0,0L9.8,19L9.8,14.2z"/>
	<g>
		<path class="st0" d="M49.1,6.1v2h-8.7v6.3h7.4v2h-7.4v7.8h-2.5V6.1H49.1z"/>
		<path class="st0" d="M56.1,11.2c0.8,0,1.5,0.1,2.1,0.4c0.6,0.3,1.2,0.6,1.7,1.1s0.8,1.1,1.1,1.8c0.3,0.7,0.4,1.5,0.4,2.4
			c0,0.4,0,0.6-0.1,0.7c-0.1,0.1-0.2,0.2-0.4,0.2h-8.5c0,0.8,0.1,1.5,0.3,2.1s0.5,1.1,0.8,1.5s0.8,0.7,1.3,0.9
			c0.5,0.2,1,0.3,1.6,0.3c0.6,0,1.1-0.1,1.5-0.2c0.4-0.1,0.8-0.3,1.1-0.4c0.3-0.2,0.5-0.3,0.7-0.4c0.2-0.1,0.4-0.2,0.5-0.2
			c0.2,0,0.3,0.1,0.4,0.2l0.6,0.8c-0.3,0.3-0.6,0.6-1,0.9c-0.4,0.2-0.8,0.5-1.2,0.6c-0.4,0.2-0.9,0.3-1.4,0.4
			c-0.5,0.1-0.9,0.1-1.4,0.1c-0.9,0-1.7-0.1-2.4-0.4c-0.7-0.3-1.4-0.7-1.9-1.3s-1-1.3-1.3-2.1c-0.3-0.9-0.5-1.8-0.5-2.9
			c0-0.9,0.1-1.7,0.4-2.5c0.3-0.8,0.7-1.4,1.2-2c0.5-0.6,1.1-1,1.9-1.3C54.3,11.4,55.1,11.2,56.1,11.2z M56.1,12.9
			c-1.1,0-1.9,0.3-2.6,0.9c-0.6,0.6-1,1.5-1.2,2.6h7c0-0.5-0.1-1-0.2-1.4c-0.1-0.4-0.4-0.8-0.6-1.1c-0.3-0.3-0.6-0.6-1-0.7
			C57.1,12.9,56.6,12.9,56.1,12.9z"/>
		<path class="st0" d="M73.2,24.2c-0.3,0-0.5-0.2-0.6-0.5l-0.2-1.6c-0.5,0.7-1.2,1.2-1.9,1.6c-0.7,0.4-1.5,0.6-2.4,0.6
			c-0.7,0-1.4-0.1-2-0.4c-0.6-0.3-1.1-0.7-1.5-1.2c-0.4-0.5-0.7-1.2-1-2s-0.3-1.8-0.3-2.8c0-0.9,0.1-1.8,0.4-2.6
			c0.3-0.8,0.6-1.5,1.1-2.1c0.5-0.6,1.1-1.1,1.7-1.4c0.7-0.3,1.5-0.5,2.3-0.5c0.8,0,1.5,0.1,2,0.4c0.6,0.3,1.1,0.6,1.5,1.1V5.6h2.2
			v18.6H73.2z M68.9,22.6c0.7,0,1.4-0.2,1.9-0.5c0.6-0.3,1.1-0.8,1.5-1.4v-6.2c-0.4-0.6-0.9-0.9-1.4-1.2c-0.5-0.2-1-0.3-1.6-0.3
			c-1.2,0-2.1,0.4-2.8,1.3c-0.6,0.9-1,2.1-1,3.6c0,0.8,0.1,1.5,0.2,2.1c0.1,0.6,0.4,1.1,0.6,1.5c0.3,0.4,0.6,0.7,1,0.8
			C67.9,22.5,68.4,22.6,68.9,22.6z"/>
		<path class="st0" d="M83.4,11.2c0.8,0,1.5,0.1,2.1,0.4c0.6,0.3,1.2,0.6,1.7,1.1s0.8,1.1,1.1,1.8c0.3,0.7,0.4,1.5,0.4,2.4
			c0,0.4,0,0.6-0.1,0.7c-0.1,0.1-0.2,0.2-0.4,0.2h-8.5c0,0.8,0.1,1.5,0.3,2.1s0.5,1.1,0.8,1.5c0.4,0.4,0.8,0.7,1.3,0.9
			c0.5,0.2,1,0.3,1.6,0.3c0.6,0,1.1-0.1,1.5-0.2c0.4-0.1,0.8-0.3,1.1-0.4c0.3-0.2,0.5-0.3,0.7-0.4s0.4-0.2,0.5-0.2
			c0.2,0,0.3,0.1,0.4,0.2l0.6,0.8c-0.3,0.3-0.6,0.6-1,0.9c-0.4,0.2-0.8,0.5-1.2,0.6c-0.4,0.2-0.9,0.3-1.4,0.4
			c-0.5,0.1-0.9,0.1-1.4,0.1c-0.9,0-1.7-0.1-2.4-0.4c-0.7-0.3-1.4-0.7-1.9-1.3c-0.5-0.6-1-1.3-1.3-2.1c-0.3-0.9-0.5-1.8-0.5-2.9
			c0-0.9,0.1-1.7,0.4-2.5c0.3-0.8,0.7-1.4,1.2-2c0.5-0.6,1.1-1,1.9-1.3C81.7,11.4,82.5,11.2,83.4,11.2z M83.5,12.9
			c-1.1,0-1.9,0.3-2.6,0.9c-0.6,0.6-1,1.5-1.2,2.6h7c0-0.5-0.1-1-0.2-1.4c-0.1-0.4-0.4-0.8-0.6-1.1c-0.3-0.3-0.6-0.6-1-0.7
			C84.4,12.9,84,12.9,83.5,12.9z"/>
		<path class="st0" d="M91.6,24.2V11.4h1.3c0.2,0,0.4,0,0.5,0.1c0.1,0.1,0.2,0.3,0.2,0.5l0.2,2c0.4-0.9,1-1.6,1.6-2.1
			c0.6-0.5,1.4-0.8,2.3-0.8c0.4,0,0.7,0,1,0.1c0.3,0.1,0.6,0.2,0.8,0.3l-0.3,1.7c-0.1,0.2-0.2,0.3-0.4,0.3c-0.1,0-0.3,0-0.5-0.1
			c-0.2-0.1-0.6-0.1-1-0.1c-0.8,0-1.4,0.2-2,0.7c-0.5,0.5-1,1.1-1.3,2v8.2H91.6z"/>
		<path class="st0" d="M110.7,24.2h-1c-0.2,0-0.4,0-0.5-0.1c-0.1-0.1-0.2-0.2-0.3-0.4l-0.3-1.2c-0.3,0.3-0.7,0.6-1,0.8
			c-0.3,0.2-0.7,0.4-1,0.6c-0.4,0.2-0.7,0.3-1.1,0.4c-0.4,0.1-0.8,0.1-1.3,0.1c-0.5,0-1-0.1-1.4-0.2c-0.4-0.1-0.8-0.3-1.1-0.6
			c-0.3-0.3-0.6-0.6-0.8-1.1c-0.2-0.4-0.3-0.9-0.3-1.5c0-0.5,0.1-1,0.4-1.5c0.3-0.5,0.7-0.9,1.3-1.2c0.6-0.4,1.4-0.7,2.4-0.9
			c1-0.2,2.2-0.3,3.7-0.3v-1c0-1-0.2-1.8-0.6-2.3c-0.4-0.5-1.1-0.8-1.9-0.8c-0.5,0-1,0.1-1.4,0.2c-0.4,0.1-0.7,0.3-1,0.5
			s-0.5,0.3-0.7,0.5c-0.2,0.1-0.4,0.2-0.6,0.2c-0.2,0-0.3,0-0.4-0.1c-0.1-0.1-0.2-0.2-0.3-0.3l-0.4-0.7c0.7-0.7,1.5-1.2,2.3-1.5
			c0.8-0.3,1.7-0.5,2.7-0.5c0.7,0,1.4,0.1,1.9,0.4c0.6,0.2,1,0.6,1.4,1c0.4,0.4,0.7,0.9,0.9,1.5c0.2,0.6,0.3,1.3,0.3,2V24.2z
			 M104.9,22.8c0.4,0,0.8,0,1.1-0.1c0.3-0.1,0.6-0.2,0.9-0.3s0.6-0.3,0.8-0.5c0.3-0.2,0.5-0.5,0.8-0.7v-2.6c-1,0-1.9,0.1-2.6,0.2
			c-0.7,0.1-1.3,0.3-1.8,0.5c-0.5,0.2-0.8,0.5-1,0.7c-0.2,0.3-0.3,0.6-0.3,1c0,0.3,0.1,0.6,0.2,0.9c0.1,0.2,0.3,0.4,0.4,0.6
			c0.2,0.2,0.4,0.3,0.7,0.3C104.3,22.8,104.6,22.8,104.9,22.8z"/>
		<path class="st0" d="M116.6,5.6v18.6h-2.2V5.6H116.6z"/>
		<path class="st0" d="M123.6,7.4c0,0.2,0,0.4-0.1,0.6c-0.1,0.2-0.2,0.4-0.4,0.5c-0.1,0.1-0.3,0.3-0.5,0.3C122.4,8.9,122.2,9,122,9
			s-0.4,0-0.6-0.1c-0.2-0.1-0.4-0.2-0.5-0.3c-0.1-0.1-0.3-0.3-0.3-0.5c-0.1-0.2-0.1-0.4-0.1-0.6c0-0.2,0-0.4,0.1-0.6
			c0.1-0.2,0.2-0.4,0.3-0.5c0.1-0.1,0.3-0.3,0.5-0.3c0.2-0.1,0.4-0.1,0.6-0.1s0.4,0,0.6,0.1c0.2,0.1,0.4,0.2,0.5,0.3
			c0.1,0.1,0.3,0.3,0.4,0.5C123.5,7,123.6,7.2,123.6,7.4z M123.1,11.4v12.8h-2.2V11.4H123.1z"/>
		<path class="st0" d="M134.4,13.5c-0.1,0.2-0.3,0.3-0.5,0.3c-0.1,0-0.3,0-0.4-0.1c-0.2-0.1-0.4-0.2-0.6-0.3
			c-0.2-0.1-0.5-0.2-0.8-0.3c-0.3-0.1-0.7-0.1-1.1-0.1c-0.4,0-0.7,0-1,0.1c-0.3,0.1-0.6,0.2-0.8,0.4c-0.2,0.2-0.4,0.4-0.5,0.6
			c-0.1,0.2-0.2,0.5-0.2,0.7c0,0.3,0.1,0.6,0.3,0.8c0.2,0.2,0.4,0.4,0.8,0.6c0.3,0.2,0.7,0.3,1.1,0.4c0.4,0.1,0.8,0.3,1.2,0.4
			c0.4,0.1,0.8,0.3,1.2,0.5c0.4,0.2,0.7,0.4,1.1,0.6c0.3,0.3,0.6,0.6,0.8,0.9c0.2,0.4,0.3,0.8,0.3,1.3c0,0.6-0.1,1.1-0.3,1.6
			c-0.2,0.5-0.5,0.9-0.9,1.3c-0.4,0.4-0.9,0.7-1.5,0.9c-0.6,0.2-1.3,0.3-2.1,0.3c-0.9,0-1.7-0.1-2.4-0.4c-0.7-0.3-1.3-0.7-1.8-1.1
			l0.5-0.9c0.1-0.1,0.1-0.2,0.2-0.3c0.1-0.1,0.2-0.1,0.4-0.1s0.3,0.1,0.5,0.2c0.2,0.1,0.4,0.2,0.6,0.4c0.2,0.1,0.5,0.3,0.9,0.4
			s0.8,0.2,1.3,0.2c0.4,0,0.8-0.1,1.2-0.2c0.3-0.1,0.6-0.3,0.8-0.5c0.2-0.2,0.4-0.4,0.5-0.7s0.2-0.5,0.2-0.8c0-0.4-0.1-0.6-0.3-0.9
			c-0.2-0.2-0.4-0.4-0.8-0.6c-0.3-0.2-0.7-0.3-1.1-0.4c-0.4-0.1-0.8-0.3-1.2-0.4c-0.4-0.1-0.8-0.3-1.2-0.5c-0.4-0.2-0.8-0.4-1.1-0.7
			c-0.3-0.3-0.6-0.6-0.8-1c-0.2-0.4-0.3-0.8-0.3-1.4c0-0.5,0.1-1,0.3-1.4c0.2-0.5,0.5-0.8,0.9-1.2c0.4-0.3,0.9-0.6,1.4-0.8
			c0.6-0.2,1.2-0.3,1.9-0.3c0.8,0,1.6,0.1,2.3,0.4s1.2,0.6,1.7,1.1L134.4,13.5z"/>
		<path class="st0" d="M141.9,24.4c-1,0-1.8-0.3-2.3-0.8c-0.5-0.6-0.8-1.4-0.8-2.4v-7.8h-1.5c-0.1,0-0.2,0-0.3-0.1
			c-0.1-0.1-0.1-0.2-0.1-0.4v-0.9l2.1-0.3l0.5-4c0-0.1,0.1-0.2,0.2-0.3c0.1-0.1,0.2-0.1,0.4-0.1h1.1v4.4h3.7v1.6H141V21
			c0,0.5,0.1,0.9,0.4,1.2c0.3,0.3,0.6,0.4,1,0.4c0.2,0,0.4,0,0.6-0.1c0.2-0.1,0.3-0.1,0.4-0.2c0.1-0.1,0.2-0.1,0.3-0.2
			C143.9,22,144,22,144,22c0.1,0,0.2,0.1,0.3,0.2l0.7,1.1c-0.4,0.4-0.9,0.6-1.4,0.9C143,24.3,142.5,24.4,141.9,24.4z"/>
	</g>
</g>
</svg>
