<svg width="352" height="235" viewBox="0 0 352 235" fill="none" xmlns="http://www.w3.org/2000/svg">
<rect width="352" height="235" rx="10" fill="white"/>
<path d="M194.199 41.9352C193.951 41.1254 193.47 40.4055 192.816 39.8641C192.162 39.3228 191.363 38.9836 190.518 38.8883C190.499 38.8867 190.479 38.8867 190.459 38.8883C190.435 38.881 190.411 38.8755 190.387 38.8719C187.441 38.4915 184.166 39.4164 181.962 41.4301C181.143 42.1659 180.489 43.0641 180.041 44.067C179.632 43.5114 179.094 43.0634 178.472 42.7616C177.85 42.4599 177.164 42.3136 176.472 42.3353C175.581 42.394 174.729 42.725 174.033 43.2831C173.337 43.8413 172.831 44.5995 172.584 45.4543C172.557 45.5587 172.565 45.6691 172.606 45.769C172.647 45.8689 172.719 45.9529 172.812 46.0086C173.077 46.2342 173.392 46.3938 173.731 46.4743C174.459 46.6284 175.194 46.7694 175.929 46.8974C177.365 47.1466 178.809 47.3489 180.261 47.5041C181.22 47.6058 182.181 47.6867 183.144 47.7468C185.135 47.8714 187.134 47.9009 189.128 47.8386C190.116 47.8058 191.065 47.773 191.968 47.3401C192.626 47.0181 193.188 46.5309 193.599 45.9266C193.986 45.3453 194.24 44.6867 194.344 43.9971C194.447 43.3075 194.398 42.6037 194.199 41.9352Z" fill="#DFE1E2"/>
<path d="M176.1 54.6931C176.083 54.3262 176.021 53.9627 175.915 53.6108C175.666 52.8011 175.185 52.0814 174.53 51.5402C173.876 50.9989 173.077 50.6597 172.232 50.564C172.213 50.5623 172.194 50.5623 172.176 50.564C172.151 50.5569 172.126 50.5515 172.1 50.5476C170.47 50.3488 168.815 50.5181 167.26 51.0428C164.868 51.8398 162.769 53.4468 161.757 55.7426C161.348 55.1867 160.809 54.7384 160.187 54.4367C159.565 54.1349 158.878 53.9888 158.186 54.0109C157.294 54.0696 156.442 54.4006 155.747 54.9587C155.051 55.5169 154.545 56.2751 154.298 57.1299C154.272 57.2344 154.28 57.3442 154.321 57.4438C154.362 57.5433 154.433 57.6274 154.525 57.6842C154.791 57.9092 155.106 58.0687 155.444 58.1499C156.176 58.3041 156.907 58.4451 157.645 58.573C159.082 58.8223 160.525 59.0245 161.975 59.1797C164.92 59.4945 167.884 59.6062 170.845 59.5142C171.83 59.4814 172.782 59.4487 173.685 59.0158C174.342 58.6936 174.903 58.2063 175.312 57.6022C175.89 56.7455 176.167 55.7227 176.1 54.6931Z" fill="#DFE1E2"/>
<path d="M290.678 160.952C290.805 166.923 289.977 172.876 288.226 178.588C288.165 178.796 288.091 179.003 288.018 179.211H251.921C252.437 176.681 253.256 174.223 254.361 171.888C257.365 165.541 262.269 160.11 267.112 154.716C273.783 147.283 280.293 139.911 281.323 130.245C283.967 134.257 286.077 138.593 287.601 143.146C285.735 143.833 284.023 144.878 282.562 146.221C282.157 146.599 281.728 147.149 281.936 147.673C282.132 148.113 282.672 148.259 283.15 148.357C284.303 148.577 285.455 148.796 286.608 149.004C287.515 149.187 288.435 149.358 289.354 149.529C290.162 153.285 290.606 157.111 290.678 160.952Z" fill="#F0F0F0"/>
<path d="M321 156.998C315.213 160.5 311.534 165.919 308.531 171.985C305.916 172.578 303.503 173.84 301.529 175.646C301.113 176.025 300.683 176.574 300.904 177.099C301.088 177.538 301.64 177.685 302.118 177.782C303.258 178.002 304.423 178.222 305.563 178.429C305.453 178.685 305.343 178.954 305.232 179.21H266.978C268.714 176.879 270.637 174.691 272.728 172.668C273.182 172.217 273.648 171.79 274.126 171.35C279.002 166.963 284.602 163.446 290.678 160.952C300.251 156.968 310.719 155.603 321 156.998Z" fill="#F0F0F0"/>
<path d="M273.353 179.211H239.291C239.105 176.496 239.122 173.771 239.34 171.058C240.701 154.301 249.86 138.337 263.679 128.671C261.913 134.932 262.82 141.156 264.66 147.405C264.402 147.491 264.145 147.564 263.912 147.661C262.046 148.349 260.334 149.394 258.872 150.737C258.468 151.115 258.039 151.665 258.247 152.189C258.431 152.629 258.983 152.775 259.461 152.873C260.613 153.093 261.766 153.312 262.906 153.52C263.826 153.703 264.745 153.874 265.665 154.057C266.094 154.13 266.523 154.215 266.952 154.301C267.014 154.447 267.051 154.582 267.112 154.716C269.27 160.635 271.624 166.603 272.727 172.669C273.001 174.191 273.189 175.727 273.291 177.27C273.328 177.917 273.353 178.564 273.353 179.211Z" fill="#F2F2F2"/>
<path d="M87.7155 160.952C87.8419 166.923 87.0142 172.876 85.2633 178.588C85.2019 178.796 85.1284 179.003 85.0548 179.211H48.958C49.474 176.681 50.2932 174.223 51.398 171.888C54.402 165.541 59.3064 160.11 64.1496 154.716C70.8196 147.283 77.3303 139.911 78.3603 130.245C81.0042 134.257 83.1143 138.593 84.638 143.146C82.7726 143.833 81.0606 144.878 79.5987 146.221C79.194 146.599 78.7648 147.149 78.9733 147.673C79.1695 148.113 79.709 148.259 80.1872 148.357C81.3397 148.577 82.4923 148.796 83.6448 149.004C84.5521 149.187 85.4717 149.358 86.3913 149.529C87.1996 153.285 87.643 157.111 87.7155 160.952Z" fill="#F0F0F0"/>
<path d="M118.037 156.998C112.25 160.5 108.572 165.919 105.568 171.985C102.954 172.578 100.54 173.84 98.5665 175.646C98.1496 176.025 97.7205 176.574 97.9412 177.099C98.1251 177.538 98.6769 177.685 99.155 177.782C100.295 178.002 101.46 178.222 102.6 178.429C102.49 178.685 102.38 178.954 102.269 179.21H64.0146C65.7512 176.879 67.6743 174.691 69.7651 172.668C70.2188 172.217 70.6847 171.79 71.1629 171.35C76.0394 166.963 81.6389 163.446 87.7155 160.952C97.2883 156.968 107.757 155.603 118.037 156.998Z" fill="#F2F2F2"/>
<path d="M70.3899 179.211H36.3284C36.1424 176.496 36.1588 173.771 36.3775 171.058C37.7385 154.301 46.8975 138.337 60.7158 128.671C58.9502 134.932 59.8575 141.156 61.6967 147.405C61.4393 147.491 61.1818 147.564 60.9488 147.661C59.0834 148.349 57.3714 149.394 55.9095 150.737C55.5048 151.115 55.0757 151.665 55.2842 152.189C55.468 152.629 56.0198 152.775 56.498 152.873C57.6505 153.093 58.8031 153.312 59.9434 153.52C60.863 153.703 61.7825 153.874 62.7021 154.057C63.1312 154.13 63.5604 154.215 63.9895 154.301C64.0508 154.447 64.0876 154.582 64.1489 154.716C66.3069 160.635 68.661 166.603 69.7645 172.669C70.0377 174.191 70.226 175.727 70.3286 177.27C70.3654 177.917 70.3899 178.564 70.3899 179.211Z" fill="#F0F0F0"/>
<path d="M197.195 164.976L227.63 167.666L227.956 167.695V38.429C227.847 38.3536 227.739 38.2782 227.63 38.2027C221.287 33.7865 214.426 30.1585 207.198 27.3994L205.643 48.7503L205.502 50.705L203.963 71.8787L203.488 78.3922L197.251 164.222L197.195 164.976Z" fill="#DFE1E2"/>
<path d="M121.932 36.0214C121.714 36.1591 121.497 36.2969 121.279 36.4412V167.695L121.932 167.636L152.037 164.976L151.981 164.222L145.744 78.3918L145.269 71.8783L143.73 50.7046L143.589 48.7499L141.958 26.3594C134.924 28.7861 128.203 32.0292 121.932 36.0214Z" fill="#DFE1E2"/>
<path d="M121.279 36.4413C120.841 36.7233 120.402 37.012 119.971 37.3038V169.486C119.971 172.788 121.938 175.556 124.567 176.261C124.997 176.377 125.44 176.436 125.885 176.435H223.676C224.12 176.436 224.562 176.377 224.991 176.261C225.968 175.992 226.854 175.463 227.554 174.733C228.89 173.312 229.62 171.431 229.591 169.486V39.6029C229.05 39.2061 228.507 38.8125 227.956 38.4288C227.848 38.3533 227.739 38.2779 227.63 38.2025V169.486C227.631 169.911 227.58 170.335 227.479 170.748C227.014 172.7 225.482 174.13 223.676 174.13H125.885C123.704 174.13 121.931 172.047 121.931 169.486V36.0215C121.714 36.1592 121.496 36.297 121.279 36.4413Z" fill="#DFE1E2"/>
<path d="M228.61 48.7512H120.95V50.7056H228.61V48.7512Z" fill="#DFE1E2"/>
<path d="M195.638 23.8208C194.985 23.6601 194.333 23.5092 193.674 23.3682V76.437H195.638V23.8208Z" fill="#DFE1E2"/>
<path d="M155.889 22.709C155.233 22.8303 154.577 22.955 153.925 23.0894V76.437H155.889V22.709Z" fill="#DFE1E2"/>
<path d="M99.8428 173.014C99.8423 174.136 100.058 175.247 100.479 176.287C100.64 176.691 100.833 177.081 101.055 177.455C101.342 177.942 101.676 178.401 102.05 178.826C102.878 179.765 103.898 180.517 105.041 181.032C106.184 181.548 107.425 181.814 108.68 181.814H237.611C239.954 181.814 242.202 180.887 243.859 179.237C245.516 177.588 246.447 175.35 246.447 173.018C246.447 170.685 245.516 168.447 243.859 166.798C242.202 165.148 239.954 164.221 237.611 164.221H108.68C106.337 164.224 104.091 165.151 102.435 166.799C100.778 168.448 99.846 170.683 99.8428 173.014Z" fill="#DFE1E2"/>
<path d="M120.95 78.3926L227.956 78.3926V71.878L120.95 71.878V78.3926Z" fill="#DFE1E2"/>
<path d="M179.034 73.5068H169.872C169.872 72.5566 170.251 71.6452 170.926 70.9733C171.601 70.3013 172.517 69.9238 173.471 69.9238H175.435C175.907 69.9238 176.375 70.0165 176.812 70.1966C177.249 70.3766 177.646 70.6406 177.98 70.9733C178.314 71.306 178.579 71.701 178.76 72.1357C178.941 72.5704 179.034 73.0363 179.034 73.5068Z" fill="#DFE1E2"/>
<path d="M31 178.039C33.8623 181.415 36.9582 184.587 40.2651 187.534H306.022C309.328 184.587 312.424 181.415 315.287 178.039H31Z" fill="#1C304A"/>
<path d="M161.703 146.288V179.925H185.377V146.288C185.377 146.046 185.3 145.811 185.155 145.616C185.011 145.421 184.808 145.277 184.576 145.206C184.467 145.17 184.352 145.152 184.237 145.153H162.846C162.696 145.153 162.548 145.182 162.409 145.239C162.271 145.296 162.145 145.38 162.039 145.485C161.932 145.59 161.848 145.715 161.791 145.853C161.733 145.991 161.703 146.139 161.703 146.288ZM170.942 157.846C170.948 157.183 171.217 156.549 171.69 156.082C172.164 155.616 172.803 155.354 173.469 155.354C174.135 155.354 174.774 155.616 175.248 156.082C175.721 156.549 175.99 157.183 175.996 157.846V161.749C175.993 162.414 175.725 163.05 175.251 163.519C174.778 163.988 174.137 164.251 173.469 164.251C172.801 164.251 172.16 163.988 171.687 163.519C171.213 163.05 170.945 162.414 170.942 161.749V157.846Z" fill="#11181D"/>
<path d="M161.631 178.849V182.092C161.631 182.26 161.698 182.421 161.818 182.54C161.937 182.66 162.098 182.727 162.267 182.729H184.813C184.982 182.728 185.144 182.66 185.263 182.541C185.383 182.422 185.449 182.26 185.449 182.092V178.849H161.631Z" fill="#1C304A"/>
<path d="M124.462 95.6106V157.026C124.463 157.809 124.775 158.559 125.331 159.113C125.887 159.666 126.641 159.977 127.427 159.978H218.86C219.646 159.977 220.4 159.666 220.956 159.113C221.512 158.559 221.824 157.809 221.825 157.026V95.6106C221.823 94.8286 221.51 94.0792 220.954 93.5266C220.398 92.974 219.645 92.6631 218.86 92.6621H127.427C126.642 92.6631 125.889 92.974 125.333 93.5266C124.777 94.0792 124.464 94.8286 124.462 95.6106Z" fill="#1C304A"/>
<path d="M126.606 96.3748V156.269C126.607 156.687 126.774 157.088 127.071 157.383C127.368 157.679 127.771 157.845 128.191 157.846H218.098C218.518 157.845 218.921 157.679 219.218 157.383C219.515 157.088 219.682 156.687 219.683 156.269V96.3748C219.683 95.9561 219.516 95.5545 219.219 95.2582C218.922 94.9618 218.519 94.7949 218.098 94.7939H128.191C127.771 94.7949 127.368 94.9618 127.07 95.2582C126.773 95.5545 126.606 95.9561 126.606 96.3748Z" fill="#0B4778"/>
<path d="M144.939 183.493C145.031 183.608 145.147 183.7 145.279 183.763C145.412 183.826 145.557 183.858 145.703 183.857H199.192C199.338 183.857 199.483 183.825 199.615 183.762C199.747 183.699 199.863 183.608 199.955 183.495C200.047 183.382 200.113 183.25 200.148 183.108C200.182 182.967 200.184 182.819 200.154 182.677L199.324 178.751C199.29 178.591 199.215 178.442 199.108 178.318C199.001 178.193 198.865 178.098 198.711 178.039C198.6 177.996 198.481 177.974 198.362 177.974H146.53C146.411 177.974 146.293 177.996 146.181 178.039C146.028 178.098 145.891 178.193 145.784 178.318C145.677 178.442 145.603 178.591 145.568 178.751L144.738 182.677C144.709 182.819 144.711 182.966 144.746 183.108C144.781 183.249 144.847 183.381 144.939 183.493Z" fill="#11181D"/>
<path d="M196.496 179.664H197.822C197.91 179.664 197.982 179.593 197.982 179.504V178.841C197.982 178.752 197.91 178.68 197.822 178.68H196.496C196.407 178.68 196.335 178.752 196.335 178.841V179.504C196.335 179.593 196.407 179.664 196.496 179.664Z" fill="#1C304A"/>
<path d="M193.201 179.664H194.527C194.615 179.664 194.688 179.593 194.688 179.504V178.841C194.688 178.752 194.615 178.68 194.527 178.68H193.201C193.112 178.68 193.04 178.752 193.04 178.841V179.504C193.04 179.593 193.112 179.664 193.201 179.664Z" fill="#1C304A"/>
<path d="M189.906 179.664H191.232C191.321 179.664 191.393 179.593 191.393 179.504V178.841C191.393 178.752 191.321 178.68 191.232 178.68H189.906C189.817 178.68 189.745 178.752 189.745 178.841V179.504C189.745 179.593 189.817 179.664 189.906 179.664Z" fill="#1C304A"/>
<path d="M186.611 179.664H187.937C188.026 179.664 188.098 179.593 188.098 179.504V178.841C188.098 178.752 188.026 178.68 187.937 178.68H186.611C186.522 178.68 186.45 178.752 186.45 178.841V179.504C186.45 179.593 186.522 179.664 186.611 179.664Z" fill="#1C304A"/>
<path d="M183.316 179.664H184.642C184.731 179.664 184.803 179.593 184.803 179.504V178.841C184.803 178.752 184.731 178.68 184.642 178.68H183.316C183.227 178.68 183.155 178.752 183.155 178.841V179.504C183.155 179.593 183.227 179.664 183.316 179.664Z" fill="#1C304A"/>
<path d="M180.021 179.664H181.347C181.436 179.664 181.508 179.593 181.508 179.504V178.841C181.508 178.752 181.436 178.68 181.347 178.68H180.021C179.932 178.68 179.86 178.752 179.86 178.841V179.504C179.86 179.593 179.932 179.664 180.021 179.664Z" fill="#1C304A"/>
<path d="M176.726 179.664H178.052C178.141 179.664 178.213 179.593 178.213 179.504V178.841C178.213 178.752 178.141 178.68 178.052 178.68H176.726C176.637 178.68 176.565 178.752 176.565 178.841V179.504C176.565 179.593 176.637 179.664 176.726 179.664Z" fill="#1C304A"/>
<path d="M173.431 179.664H174.757C174.846 179.664 174.918 179.592 174.918 179.504V178.84C174.918 178.752 174.846 178.68 174.757 178.68H173.431C173.343 178.68 173.271 178.752 173.271 178.84V179.504C173.271 179.592 173.343 179.664 173.431 179.664Z" fill="#1C304A"/>
<path d="M170.136 179.664H171.462C171.551 179.664 171.623 179.592 171.623 179.504V178.84C171.623 178.752 171.551 178.68 171.462 178.68H170.136C170.048 178.68 169.976 178.752 169.976 178.84V179.504C169.976 179.592 170.048 179.664 170.136 179.664Z" fill="#1C304A"/>
<path d="M166.842 179.664H168.167C168.256 179.664 168.328 179.592 168.328 179.504V178.84C168.328 178.752 168.256 178.68 168.167 178.68H166.842C166.753 178.68 166.681 178.752 166.681 178.84V179.504C166.681 179.592 166.753 179.664 166.842 179.664Z" fill="#1C304A"/>
<path d="M163.548 179.664H164.873C164.962 179.664 165.034 179.592 165.034 179.504V178.84C165.034 178.752 164.962 178.68 164.873 178.68H163.548C163.459 178.68 163.387 178.752 163.387 178.84V179.504C163.387 179.592 163.459 179.664 163.548 179.664Z" fill="#1C304A"/>
<path d="M160.253 179.664H161.578C161.667 179.664 161.739 179.592 161.739 179.504V178.84C161.739 178.752 161.667 178.68 161.578 178.68H160.253C160.164 178.68 160.092 178.752 160.092 178.84V179.504C160.092 179.592 160.164 179.664 160.253 179.664Z" fill="#1C304A"/>
<path d="M156.958 179.664H158.283C158.372 179.664 158.444 179.592 158.444 179.504V178.84C158.444 178.752 158.372 178.68 158.283 178.68H156.958C156.869 178.68 156.797 178.752 156.797 178.84V179.504C156.797 179.592 156.869 179.664 156.958 179.664Z" fill="#1C304A"/>
<path d="M153.663 179.664H154.989C155.077 179.664 155.149 179.592 155.149 179.504V178.84C155.149 178.752 155.077 178.68 154.989 178.68H153.663C153.574 178.68 153.502 178.752 153.502 178.84V179.504C153.502 179.592 153.574 179.664 153.663 179.664Z" fill="#1C304A"/>
<path d="M150.368 179.664H151.694C151.782 179.664 151.854 179.593 151.854 179.504V178.841C151.854 178.752 151.782 178.68 151.694 178.68H150.368C150.279 178.68 150.207 178.752 150.207 178.841V179.504C150.207 179.593 150.279 179.664 150.368 179.664Z" fill="#1C304A"/>
<path d="M147.073 179.664H148.399C148.488 179.664 148.56 179.593 148.56 179.504V178.841C148.56 178.752 148.488 178.68 148.399 178.68H147.073C146.984 178.68 146.912 178.752 146.912 178.841V179.504C146.912 179.593 146.984 179.664 147.073 179.664Z" fill="#1C304A"/>
<path d="M196.535 181.304H197.861C197.949 181.304 198.021 181.232 198.021 181.144V180.48C198.021 180.391 197.949 180.32 197.861 180.32H196.535C196.446 180.32 196.374 180.391 196.374 180.48V181.144C196.374 181.232 196.446 181.304 196.535 181.304Z" fill="#1C304A"/>
<path d="M193.24 181.304H194.566C194.655 181.304 194.727 181.232 194.727 181.144V180.48C194.727 180.391 194.655 180.32 194.566 180.32H193.24C193.151 180.32 193.079 180.391 193.079 180.48V181.144C193.079 181.232 193.151 181.304 193.24 181.304Z" fill="#1C304A"/>
<path d="M189.945 181.304H191.271C191.36 181.304 191.432 181.232 191.432 181.144V180.48C191.432 180.391 191.36 180.32 191.271 180.32H189.945C189.856 180.32 189.784 180.391 189.784 180.48V181.144C189.784 181.232 189.856 181.304 189.945 181.304Z" fill="#1C304A"/>
<path d="M186.65 181.304H187.976C188.065 181.304 188.137 181.232 188.137 181.144V180.48C188.137 180.391 188.065 180.32 187.976 180.32H186.65C186.561 180.32 186.489 180.391 186.489 180.48V181.144C186.489 181.232 186.561 181.304 186.65 181.304Z" fill="#1C304A"/>
<path d="M183.355 181.304H184.681C184.77 181.304 184.842 181.232 184.842 181.144V180.48C184.842 180.391 184.77 180.32 184.681 180.32H183.355C183.266 180.32 183.194 180.391 183.194 180.48V181.144C183.194 181.232 183.266 181.304 183.355 181.304Z" fill="#1C304A"/>
<path d="M180.06 181.304H181.386C181.475 181.304 181.547 181.232 181.547 181.144V180.48C181.547 180.391 181.475 180.32 181.386 180.32H180.06C179.971 180.32 179.899 180.391 179.899 180.48V181.144C179.899 181.232 179.971 181.304 180.06 181.304Z" fill="#1C304A"/>
<path d="M176.765 181.304H178.091C178.18 181.304 178.252 181.232 178.252 181.144V180.48C178.252 180.391 178.18 180.32 178.091 180.32H176.765C176.677 180.32 176.605 180.391 176.605 180.48V181.144C176.605 181.232 176.677 181.304 176.765 181.304Z" fill="#1C304A"/>
<path d="M173.47 181.304H174.796C174.885 181.304 174.957 181.232 174.957 181.144V180.48C174.957 180.391 174.885 180.32 174.796 180.32H173.47C173.382 180.32 173.31 180.391 173.31 180.48V181.144C173.31 181.232 173.382 181.304 173.47 181.304Z" fill="#1C304A"/>
<path d="M170.176 181.304H171.501C171.59 181.304 171.662 181.232 171.662 181.144V180.48C171.662 180.391 171.59 180.32 171.501 180.32H170.176C170.087 180.32 170.015 180.391 170.015 180.48V181.144C170.015 181.232 170.087 181.304 170.176 181.304Z" fill="#1C304A"/>
<path d="M166.881 181.304H168.206C168.295 181.304 168.367 181.232 168.367 181.144V180.48C168.367 180.391 168.295 180.32 168.206 180.32H166.881C166.792 180.32 166.72 180.391 166.72 180.48V181.144C166.72 181.232 166.792 181.304 166.881 181.304Z" fill="#1C304A"/>
<path d="M163.586 181.304H164.911C165 181.304 165.072 181.232 165.072 181.144V180.48C165.072 180.391 165 180.32 164.911 180.32H163.586C163.497 180.32 163.425 180.391 163.425 180.48V181.144C163.425 181.232 163.497 181.304 163.586 181.304Z" fill="#1C304A"/>
<path d="M160.291 181.304H161.616C161.705 181.304 161.777 181.232 161.777 181.144V180.48C161.777 180.391 161.705 180.32 161.616 180.32H160.291C160.202 180.32 160.13 180.391 160.13 180.48V181.144C160.13 181.232 160.202 181.304 160.291 181.304Z" fill="#1C304A"/>
<path d="M156.997 181.304H158.323C158.411 181.304 158.483 181.232 158.483 181.144V180.48C158.483 180.391 158.411 180.32 158.323 180.32H156.997C156.908 180.32 156.836 180.391 156.836 180.48V181.144C156.836 181.232 156.908 181.304 156.997 181.304Z" fill="#1C304A"/>
<path d="M153.702 181.304H155.028C155.116 181.304 155.188 181.232 155.188 181.144V180.48C155.188 180.391 155.116 180.32 155.028 180.32H153.702C153.613 180.32 153.541 180.391 153.541 180.48V181.144C153.541 181.232 153.613 181.304 153.702 181.304Z" fill="#1C304A"/>
<path d="M150.407 181.304H151.733C151.822 181.304 151.894 181.232 151.894 181.144V180.48C151.894 180.391 151.822 180.32 151.733 180.32H150.407C150.318 180.32 150.246 180.391 150.246 180.48V181.144C150.246 181.232 150.318 181.304 150.407 181.304Z" fill="#1C304A"/>
<path d="M147.112 181.304H148.438C148.527 181.304 148.599 181.232 148.599 181.144V180.48C148.599 180.391 148.527 180.32 148.438 180.32H147.112C147.023 180.32 146.951 180.391 146.951 180.48V181.144C146.951 181.232 147.023 181.304 147.112 181.304Z" fill="#1C304A"/>
<path d="M169.187 183.271H182.045C182.134 183.271 182.206 183.2 182.206 183.111V182.448C182.206 182.359 182.134 182.288 182.045 182.288H169.187C169.099 182.288 169.027 182.359 169.027 182.448V183.111C169.027 183.2 169.099 183.271 169.187 183.271Z" fill="#1C304A"/>
<path d="M132.709 103.044H216.834C216.922 103.042 217.005 103.006 217.066 102.944C217.127 102.882 217.162 102.798 217.162 102.711C217.162 102.624 217.127 102.54 217.066 102.478C217.005 102.416 216.922 102.38 216.834 102.378H132.709C132.622 102.38 132.538 102.416 132.477 102.478C132.416 102.54 132.382 102.624 132.382 102.711C132.382 102.798 132.416 102.882 132.477 102.944C132.538 103.006 132.622 103.042 132.709 103.044Z" fill="#1C304A"/>
<path d="M211.108 100.678C212.191 100.678 213.069 99.7844 213.069 98.6826C213.069 97.5807 212.191 96.6875 211.108 96.6875C210.025 96.6875 209.147 97.5807 209.147 98.6826C209.147 99.7844 210.025 100.678 211.108 100.678Z" fill="#1C304A"/>
<path d="M204.336 100.678C205.418 100.678 206.296 99.7844 206.296 98.6826C206.296 97.5807 205.418 96.6875 204.336 96.6875C203.253 96.6875 202.375 97.5807 202.375 98.6826C202.375 99.7844 203.253 100.678 204.336 100.678Z" fill="#1C304A"/>
<path d="M197.562 100.678C198.645 100.678 199.523 99.7844 199.523 98.6826C199.523 97.5807 198.645 96.6875 197.562 96.6875C196.479 96.6875 195.602 97.5807 195.602 98.6826C195.602 99.7844 196.479 100.678 197.562 100.678Z" fill="#1C304A"/>
<path d="M136.429 97.5447C136.428 97.5919 136.438 97.6386 136.456 97.6823C136.473 97.7259 136.5 97.7657 136.533 97.7992C136.567 97.8327 136.606 97.8593 136.65 97.8775C136.694 97.8958 136.74 97.9053 136.788 97.9055H141.598C141.693 97.9033 141.784 97.8641 141.85 97.7964C141.917 97.7287 141.954 97.6378 141.954 97.5431C141.954 97.4484 141.917 97.3575 141.85 97.2898C141.784 97.222 141.693 97.1829 141.598 97.1807H136.788C136.692 97.1818 136.6 97.2208 136.533 97.289C136.466 97.3572 136.428 97.4491 136.429 97.5447Z" fill="#1C304A"/>
<path d="M136.429 98.9063C136.428 98.9534 136.438 99.0002 136.456 99.0438C136.473 99.0875 136.5 99.1272 136.533 99.1607C136.567 99.1942 136.606 99.2209 136.65 99.2391C136.694 99.2573 136.74 99.2668 136.788 99.267H141.598C141.694 99.265 141.784 99.2258 141.851 99.1581C141.917 99.0904 141.954 98.9994 141.954 98.9046C141.954 98.8099 141.917 98.7189 141.851 98.6512C141.784 98.5834 141.694 98.5443 141.598 98.5422H136.788C136.692 98.5434 136.6 98.5823 136.533 98.6505C136.466 98.7187 136.428 98.8107 136.429 98.9063Z" fill="#1C304A"/>
<path d="M136.429 100.264C136.428 100.36 136.466 100.452 136.533 100.52C136.6 100.588 136.692 100.627 136.788 100.628H141.598C141.693 100.626 141.784 100.587 141.85 100.519C141.917 100.451 141.954 100.36 141.954 100.266C141.954 100.171 141.917 100.08 141.85 100.012C141.784 99.9447 141.693 99.9055 141.598 99.9033H136.788C136.74 99.9035 136.694 99.913 136.65 99.9313C136.606 99.9495 136.567 99.9761 136.533 100.01C136.5 100.043 136.473 100.083 136.456 100.127C136.438 100.17 136.428 100.217 136.429 100.264Z" fill="#1C304A"/>
<path d="M137.916 110.783H136.187C135.663 110.783 135.238 111.206 135.238 111.728C135.238 112.249 135.663 112.672 136.187 112.672H137.916C138.44 112.672 138.865 112.249 138.865 111.728C138.865 111.206 138.44 110.783 137.916 110.783Z" fill="#DFE1E2"/>
<path d="M157.684 110.783H155.956C155.432 110.783 155.007 111.206 155.007 111.728C155.007 112.249 155.432 112.672 155.956 112.672H157.684C158.208 112.672 158.633 112.249 158.633 111.728C158.633 111.206 158.208 110.783 157.684 110.783Z" fill="#DFE1E2"/>
<path d="M163.286 110.783H161.557C161.033 110.783 160.608 111.206 160.608 111.728C160.608 112.249 161.033 112.672 161.557 112.672H163.286C163.81 112.672 164.235 112.249 164.235 111.728C164.235 111.206 163.81 110.783 163.286 110.783Z" fill="#DFE1E2"/>
<path d="M152.307 110.626H141.564C141.04 110.626 140.615 111.049 140.615 111.571C140.615 112.092 141.04 112.515 141.564 112.515H152.307C152.831 112.515 153.256 112.092 153.256 111.571C153.256 111.049 152.831 110.626 152.307 110.626Z" fill="#DFE1E2"/>
<path d="M178.666 110.626H167.923C167.398 110.626 166.974 111.049 166.974 111.571C166.974 112.092 167.398 112.515 167.923 112.515H178.666C179.19 112.515 179.615 112.092 179.615 111.571C179.615 111.049 179.19 110.626 178.666 110.626Z" fill="#DFE1E2"/>
<path d="M143.187 115.047H141.459C140.935 115.047 140.51 115.47 140.51 115.991C140.51 116.513 140.935 116.936 141.459 116.936H143.187C143.711 116.936 144.136 116.513 144.136 115.991C144.136 115.47 143.711 115.047 143.187 115.047Z" fill="#DFE1E2"/>
<path d="M162.957 115.047H161.228C160.704 115.047 160.279 115.47 160.279 115.991C160.279 116.513 160.704 116.936 161.228 116.936H162.957C163.481 116.936 163.906 116.513 163.906 115.991C163.906 115.47 163.481 115.047 162.957 115.047Z" fill="#DFE1E2"/>
<path d="M168.557 115.047H166.829C166.305 115.047 165.88 115.47 165.88 115.991C165.88 116.513 166.305 116.936 166.829 116.936H168.557C169.081 116.936 169.506 116.513 169.506 115.991C169.506 115.47 169.081 115.047 168.557 115.047Z" fill="#DFE1E2"/>
<path d="M157.579 114.89H146.836C146.312 114.89 145.887 115.313 145.887 115.834C145.887 116.356 146.312 116.779 146.836 116.779H157.579C158.103 116.779 158.528 116.356 158.528 115.834C158.528 115.313 158.103 114.89 157.579 114.89Z" fill="#DFE1E2"/>
<path d="M183.938 114.89H173.195C172.671 114.89 172.246 115.313 172.246 115.834C172.246 116.356 172.671 116.779 173.195 116.779H183.938C184.462 116.779 184.887 116.356 184.887 115.834C184.887 115.313 184.462 114.89 183.938 114.89Z" fill="#DFE1E2"/>
<path d="M148.459 119.311H146.73C146.206 119.311 145.781 119.733 145.781 120.255C145.781 120.777 146.206 121.2 146.73 121.2H148.459C148.983 121.2 149.408 120.777 149.408 120.255C149.408 119.733 148.983 119.311 148.459 119.311Z" fill="#DFE1E2"/>
<path d="M168.228 119.31H166.5C165.976 119.31 165.551 119.733 165.551 120.255C165.551 120.776 165.976 121.199 166.5 121.199H168.228C168.752 121.199 169.177 120.776 169.177 120.255C169.177 119.733 168.752 119.31 168.228 119.31Z" fill="#DFE1E2"/>
<path d="M173.83 119.311H172.101C171.577 119.311 171.152 119.733 171.152 120.255C171.152 120.777 171.577 121.2 172.101 121.2H173.83C174.354 121.2 174.779 120.777 174.779 120.255C174.779 119.733 174.354 119.311 173.83 119.311Z" fill="#DFE1E2"/>
<path d="M162.851 119.153H152.108C151.584 119.153 151.159 119.576 151.159 120.098C151.159 120.62 151.584 121.042 152.108 121.042H162.851C163.375 121.042 163.8 120.62 163.8 120.098C163.8 119.576 163.375 119.153 162.851 119.153Z" fill="#DFE1E2"/>
<path d="M189.21 119.153H178.466C177.942 119.153 177.518 119.576 177.518 120.098C177.518 120.62 177.942 121.042 178.466 121.042H189.21C189.734 121.042 190.159 120.62 190.159 120.098C190.159 119.576 189.734 119.153 189.21 119.153Z" fill="#DFE1E2"/>
<path d="M153.731 123.574H152.003C151.479 123.574 151.054 123.997 151.054 124.519C151.054 125.04 151.479 125.463 152.003 125.463H153.731C154.255 125.463 154.68 125.04 154.68 124.519C154.68 123.997 154.255 123.574 153.731 123.574Z" fill="#DFE1E2"/>
<path d="M173.5 123.574H171.771C171.247 123.574 170.822 123.997 170.822 124.519C170.822 125.04 171.247 125.463 171.771 125.463H173.5C174.024 125.463 174.449 125.04 174.449 124.519C174.449 123.997 174.024 123.574 173.5 123.574Z" fill="#DFE1E2"/>
<path d="M179.101 123.574H177.373C176.849 123.574 176.424 123.997 176.424 124.519C176.424 125.04 176.849 125.463 177.373 125.463H179.101C179.625 125.463 180.05 125.04 180.05 124.519C180.05 123.997 179.625 123.574 179.101 123.574Z" fill="#DFE1E2"/>
<path d="M168.123 123.416H157.38C156.855 123.416 156.431 123.839 156.431 124.361C156.431 124.882 156.855 125.305 157.38 125.305H168.123C168.647 125.305 169.072 124.882 169.072 124.361C169.072 123.839 168.647 123.416 168.123 123.416Z" fill="#DFE1E2"/>
<path d="M157.684 140.528H155.956C155.432 140.528 155.007 140.951 155.007 141.473C155.007 141.995 155.432 142.417 155.956 142.417H157.684C158.208 142.417 158.633 141.995 158.633 141.473C158.633 140.951 158.208 140.528 157.684 140.528Z" fill="#DFE1E2"/>
<path d="M163.286 140.528H161.557C161.033 140.528 160.608 140.951 160.608 141.473C160.608 141.995 161.033 142.417 161.557 142.417H163.286C163.81 142.417 164.235 141.995 164.235 141.473C164.235 140.951 163.81 140.528 163.286 140.528Z" fill="#DFE1E2"/>
<path d="M178.666 140.686H167.923C167.398 140.686 166.974 141.108 166.974 141.63C166.974 142.152 167.398 142.575 167.923 142.575H178.666C179.19 142.575 179.615 142.152 179.615 141.63C179.615 141.108 179.19 140.686 178.666 140.686Z" fill="#DFE1E2"/>
<path d="M137.916 140.528H136.187C135.663 140.528 135.238 140.951 135.238 141.473C135.238 141.995 135.663 142.417 136.187 142.417H137.916C138.44 142.417 138.865 141.995 138.865 141.473C138.865 140.951 138.44 140.528 137.916 140.528Z" fill="#DFE1E2"/>
<path d="M152.307 140.685H141.564C141.04 140.685 140.615 141.108 140.615 141.63C140.615 142.152 141.04 142.574 141.564 142.574H152.307C152.831 142.574 153.256 142.152 153.256 141.63C153.256 141.108 152.831 140.685 152.307 140.685Z" fill="#DFE1E2"/>
<path d="M143.187 136.265H141.459C140.935 136.265 140.51 136.688 140.51 137.209C140.51 137.731 140.935 138.154 141.459 138.154H143.187C143.711 138.154 144.136 137.731 144.136 137.209C144.136 136.688 143.711 136.265 143.187 136.265Z" fill="#DFE1E2"/>
<path d="M162.957 136.265H161.228C160.704 136.265 160.279 136.688 160.279 137.209C160.279 137.731 160.704 138.154 161.228 138.154H162.957C163.481 138.154 163.906 137.731 163.906 137.209C163.906 136.688 163.481 136.265 162.957 136.265Z" fill="#DFE1E2"/>
<path d="M168.557 136.265H166.829C166.305 136.265 165.88 136.688 165.88 137.209C165.88 137.731 166.305 138.154 166.829 138.154H168.557C169.081 138.154 169.506 137.731 169.506 137.209C169.506 136.688 169.081 136.265 168.557 136.265Z" fill="#DFE1E2"/>
<path d="M157.579 136.422H146.836C146.312 136.422 145.887 136.845 145.887 137.366C145.887 137.888 146.312 138.311 146.836 138.311H157.579C158.103 138.311 158.528 137.888 158.528 137.366C158.528 136.845 158.103 136.422 157.579 136.422Z" fill="#DFE1E2"/>
<path d="M148.459 132.001H146.73C146.206 132.001 145.781 132.424 145.781 132.946C145.781 133.467 146.206 133.89 146.73 133.89H148.459C148.983 133.89 149.408 133.467 149.408 132.946C149.408 132.424 148.983 132.001 148.459 132.001Z" fill="#DFE1E2"/>
<path d="M168.228 132.001H166.5C165.976 132.001 165.551 132.424 165.551 132.946C165.551 133.467 165.976 133.89 166.5 133.89H168.228C168.752 133.89 169.177 133.467 169.177 132.946C169.177 132.424 168.752 132.001 168.228 132.001Z" fill="#DFE1E2"/>
<path d="M173.83 132.001H172.101C171.577 132.001 171.152 132.424 171.152 132.946C171.152 133.467 171.577 133.89 172.101 133.89H173.83C174.354 133.89 174.779 133.467 174.779 132.946C174.779 132.424 174.354 132.001 173.83 132.001Z" fill="#DFE1E2"/>
<path d="M162.851 132.158H152.108C151.584 132.158 151.159 132.581 151.159 133.103C151.159 133.624 151.584 134.047 152.108 134.047H162.851C163.375 134.047 163.8 133.624 163.8 133.103C163.8 132.581 163.375 132.158 162.851 132.158Z" fill="#DFE1E2"/>
<path d="M153.731 127.737H152.003C151.479 127.737 151.054 128.16 151.054 128.682C151.054 129.204 151.479 129.626 152.003 129.626H153.731C154.255 129.626 154.68 129.204 154.68 128.682C154.68 128.16 154.255 127.737 153.731 127.737Z" fill="#DFE1E2"/>
<path d="M173.5 127.737H171.771C171.247 127.737 170.822 128.16 170.822 128.682C170.822 129.204 171.247 129.626 171.771 129.626H173.5C174.024 129.626 174.449 129.204 174.449 128.682C174.449 128.16 174.024 127.737 173.5 127.737Z" fill="#DFE1E2"/>
<path d="M179.101 127.737H177.373C176.849 127.737 176.424 128.16 176.424 128.682C176.424 129.204 176.849 129.626 177.373 129.626H179.101C179.625 129.626 180.05 129.204 180.05 128.682C180.05 128.16 179.625 127.737 179.101 127.737Z" fill="#DFE1E2"/>
<path d="M168.123 127.895H157.38C156.855 127.895 156.431 128.317 156.431 128.839C156.431 129.361 156.855 129.784 157.38 129.784H168.123C168.647 129.784 169.072 129.361 169.072 128.839C169.072 128.317 168.647 127.895 168.123 127.895Z" fill="#DFE1E2"/>
<path d="M146.291 201.765C146.218 201.801 146.146 201.837 146.073 201.87C145.615 202.096 145.154 202.319 144.689 202.539C143.299 203.198 141.891 203.825 140.465 204.418C136.714 205.98 132.865 207.298 128.943 208.364C128.284 204.274 127.645 194.628 127.032 187.534C126.917 186.199 126.802 184.956 126.686 183.858C126.577 182.415 126.369 180.982 126.063 179.568C126.034 179.457 125.99 179.35 125.935 179.25C125.998 179.817 126.063 181.509 126.126 183.858C126.159 184.956 126.189 186.199 126.222 187.534C126.376 194.363 126.538 203.654 126.699 208.944C126.241 209.056 125.78 209.167 125.319 209.272C125.029 209.341 124.736 209.407 124.442 209.469C124.087 209.548 123.731 209.626 123.375 209.698C123.003 209.777 122.63 209.853 122.258 209.925C116.174 211.114 109.987 211.712 103.787 211.709C103.375 211.709 102.967 211.706 102.555 211.702C102.429 211.702 102.304 211.699 102.176 211.696C101.813 211.689 101.438 211.683 101.056 211.673C93.728 211.471 86.4486 210.427 79.3622 208.56L79.6488 187.534L79.6983 183.858L79.718 182.464C79.5548 182.912 79.4572 183.382 79.4281 183.858C79.3128 184.753 79.1941 186.022 79.0755 187.534C78.6241 193.359 78.1596 202.755 77.6785 208.101C71.9817 206.488 67.817 205.015 62.6111 202.424C62.4101 202.326 62.2059 202.224 62.0049 202.122C62.0411 201.87 62.0807 201.617 62.1169 201.358C62.7067 197.278 62.0115 191.968 62.6639 187.534C63.1614 184.113 63.6754 180.827 64.1927 178.039C64.8187 174.684 65.4546 172.047 66.0839 170.765C66.8088 169.286 67.5337 167.83 68.2355 166.436C68.5386 165.836 68.8362 165.246 69.1284 164.668C69.2865 164.357 69.4447 164.048 69.5995 163.747C70.3046 162.372 70.9702 161.103 71.5797 159.978C72.0081 159.188 72.4035 158.473 72.7659 157.846C73.1909 157.108 73.5665 156.498 73.8763 156.036C76.1639 152.584 79.5677 150.014 83.5236 148.752L83.6224 148.726L83.718 148.765L83.8267 148.814L90.1067 146.528L92.9106 139.808L107.312 138.926L109.639 140.687L110.828 141.589L112.097 142.55L114.429 144.318L115.092 144.521L116.077 144.823L122.815 146.882L122.884 146.853L122.983 146.879C126.583 148.026 129.734 150.262 131.997 153.274C132.222 153.563 132.429 153.862 132.63 154.163C133.177 154.97 133.915 156.246 134.785 157.846C135.144 158.506 135.523 159.221 135.922 159.978C136.162 160.434 138.238 166.882 140.258 173.468C142.146 179.633 143.984 185.921 144.225 187.534C144.268 187.833 144.314 188.134 144.356 188.433C144.63 190.299 144.9 192.178 145.16 194.012C145.546 196.73 145.922 199.354 146.281 201.699C146.284 201.722 146.287 201.742 146.291 201.765Z" fill="#1C304A"/>
<path opacity="0.2" d="M131.029 178.024L128.229 167.27L125.757 176.55L131.029 178.024Z" fill="black"/>
<path d="M36.2157 177.899C36.3609 178.32 36.6362 178.684 37.0023 178.939C37.3683 179.195 37.8061 179.328 38.253 179.32L46.9816 179.096C47.4317 179.088 47.8669 178.934 48.2221 178.659C48.5773 178.383 48.8334 178.001 48.9522 177.569L50.1874 164.421C50.6257 164.619 51.1027 164.717 51.5838 164.707C52.4277 164.686 53.2288 164.332 53.8106 163.723C54.3924 163.114 54.7073 162.3 54.6861 161.46C54.665 160.62 54.3094 159.823 53.6976 159.243C53.0858 158.664 52.268 158.351 51.424 158.372C51.2317 158.371 51.04 158.391 50.852 158.431C50.6475 158.211 50.3989 158.036 50.1224 157.917C49.8458 157.798 49.5472 157.738 49.246 157.741L35.8193 158.086C35.7079 158.091 35.5971 158.104 35.4881 158.127C35.1937 158.182 34.9144 158.299 34.6691 158.47C34.4238 158.641 34.2182 158.862 34.066 159.119C33.9139 159.376 33.8188 159.662 33.7871 159.959C33.7555 160.255 33.788 160.555 33.8825 160.838L36.2157 177.899ZM50.4407 163.529L51.3197 160.396C51.4197 160.034 51.422 159.652 51.3264 159.289C51.369 159.289 51.4067 159.269 51.4493 159.269C52.052 159.256 52.635 159.482 53.0705 159.897C53.5061 160.312 53.7586 160.882 53.7727 161.482C53.7868 162.081 53.5614 162.662 53.1458 163.097C52.7303 163.532 52.1585 163.785 51.5559 163.8C51.1663 163.812 50.7807 163.719 50.4407 163.529Z" fill="#11181D"/>
<path d="M35.4883 158.128C35.7743 159.756 38.9904 160.9 42.8575 160.701C46.4135 160.538 49.3212 159.295 49.8539 157.822C49.6567 157.764 49.4517 157.737 49.2462 157.742L35.8195 158.087C35.7081 158.091 35.5973 158.105 35.4883 158.128Z" fill="#1C304A"/>
<path d="M43.5655 170.675C43.5832 170.67 43.6 170.663 43.6152 170.653L45.5108 169.418C45.5337 169.403 45.5526 169.383 45.5656 169.359C45.5786 169.335 45.5855 169.308 45.5855 169.281C45.5855 169.254 45.5787 169.227 45.5657 169.203C45.5526 169.179 45.5338 169.159 45.5109 169.144L43.5407 167.859C43.5226 167.847 43.5023 167.839 43.481 167.835C43.4597 167.831 43.4379 167.831 43.4166 167.835C43.3954 167.84 43.3752 167.848 43.3573 167.86C43.3393 167.872 43.324 167.888 43.3121 167.906C43.3002 167.924 43.292 167.944 43.288 167.966C43.284 167.987 43.2842 168.009 43.2887 168.03C43.2931 168.051 43.3018 168.071 43.314 168.089C43.3263 168.106 43.342 168.122 43.3601 168.133L45.1199 169.281L43.4349 170.379C43.4023 170.4 43.3783 170.432 43.3672 170.469C43.356 170.506 43.3586 170.546 43.3742 170.582C43.3899 170.617 43.4177 170.646 43.4527 170.663C43.4878 170.68 43.5277 170.684 43.5655 170.675Z" fill="#0B4778"/>
<path d="M40.5721 170.812C40.6039 170.804 40.6325 170.787 40.6544 170.762C40.6763 170.738 40.6904 170.708 40.6948 170.675C40.6993 170.643 40.6939 170.61 40.6795 170.581C40.665 170.552 40.6421 170.527 40.6136 170.511L38.8663 169.514L40.5551 168.265C40.5725 168.252 40.5871 168.236 40.5982 168.218C40.6093 168.199 40.6166 168.179 40.6198 168.157C40.6229 168.136 40.6219 168.114 40.6166 168.094C40.6113 168.073 40.602 168.053 40.5891 168.036C40.5762 168.019 40.56 168.004 40.5414 167.993C40.5229 167.982 40.5023 167.975 40.4809 167.971C40.4596 167.968 40.4378 167.969 40.4168 167.975C40.3958 167.98 40.3761 167.989 40.3587 168.002L38.468 169.4C38.446 169.416 38.4284 169.438 38.4168 169.462C38.4053 169.487 38.4 169.514 38.4017 169.541C38.4033 169.569 38.4116 169.595 38.4261 169.618C38.4405 169.641 38.4604 169.66 38.4842 169.674L40.4496 170.795C40.4867 170.817 40.5306 170.823 40.5721 170.812Z" fill="#0B4778"/>
<path d="M43.3773 171.757C43.3933 171.753 43.4085 171.747 43.4225 171.738C43.441 171.727 43.4571 171.712 43.4699 171.695C43.4827 171.677 43.4919 171.658 43.497 171.637C43.5021 171.616 43.5031 171.594 43.4997 171.573C43.4964 171.552 43.4889 171.531 43.4777 171.513L40.7906 167.115C40.7677 167.078 40.7311 167.052 40.6887 167.042C40.6463 167.032 40.6016 167.038 40.5644 167.061C40.5272 167.084 40.5005 167.12 40.4901 167.162C40.4797 167.204 40.4865 167.249 40.509 167.286L43.1961 171.683C43.2145 171.713 43.242 171.737 43.2746 171.75C43.3072 171.763 43.3432 171.766 43.3773 171.757Z" fill="#0B4778"/>
<path d="M289.695 202.121C289.494 202.223 289.29 202.325 289.089 202.423C283.883 205.014 279.718 206.487 274.021 208.1C273.54 202.754 273.076 193.358 272.624 187.533C272.506 186.021 272.387 184.752 272.272 183.857C272.243 183.381 272.145 182.911 271.982 182.463L272.002 183.857L272.051 187.533L272.338 208.559C265.251 210.426 257.972 211.47 250.644 211.672C250.262 211.682 249.886 211.688 249.524 211.695C249.395 211.698 249.27 211.701 249.145 211.701C248.733 211.705 248.325 211.708 247.913 211.708C240.191 211.714 232.497 210.785 225 208.943C225.162 203.653 225.323 194.362 225.478 187.533C225.511 186.198 225.541 184.955 225.574 183.857C225.636 181.508 225.702 179.816 225.765 179.249C225.709 179.349 225.666 179.456 225.636 179.567C225.331 180.981 225.123 182.414 225.014 183.857C224.898 184.955 224.783 186.198 224.668 187.533C224.055 194.627 223.416 204.273 222.757 208.363C218.834 207.297 214.985 205.979 211.234 204.417C209.258 203.597 207.316 202.713 205.409 201.764C205.772 199.402 206.151 196.756 206.539 194.011C206.842 191.882 207.155 189.695 207.475 187.533C207.969 184.195 224.76 148.141 228.717 146.878L228.816 146.852L228.885 146.881L235.623 144.822L236.608 144.52L237.27 144.317L239.603 142.549L240.872 141.588L242.061 140.686L244.387 138.925L258.789 139.807L261.593 146.527L267.873 148.813L267.982 148.764L268.077 148.725L268.176 148.751C272.132 150.013 275.536 152.583 277.823 156.035C278.133 156.497 278.509 157.107 278.934 157.845C279.296 158.472 279.692 159.187 280.12 159.977C280.73 161.102 281.395 162.371 282.1 163.746C282.255 164.047 282.413 164.356 282.571 164.667C282.865 165.244 283.162 165.834 283.464 166.435C284.166 167.829 284.891 169.285 285.616 170.764C286.245 172.046 286.881 174.683 287.507 178.038C288.024 180.826 288.538 184.113 289.036 187.533C289.688 191.967 288.993 197.277 289.583 201.357C289.619 201.616 289.659 201.869 289.695 202.121Z" fill="#1C304A"/>
<path d="M247.457 136.513C256.708 136.513 264.207 129.048 264.207 119.84C264.207 110.632 256.708 103.167 247.457 103.167C238.206 103.167 230.707 110.632 230.707 119.84C230.707 129.048 238.206 136.513 247.457 136.513Z" fill="#FFB6B6"/>
<path opacity="0.2" d="M220.671 178.024L223.471 167.27L225.943 176.55L220.671 178.024Z" fill="black"/>
<path d="M295.171 171.017C294.169 184.752 295.207 190.8 289.678 202.125C284.648 204.576 279.408 206.575 274.021 208.1C273.461 208.258 272.9 208.411 272.338 208.56C265.251 210.426 257.972 211.47 250.644 211.672C250.262 211.682 249.886 211.688 249.524 211.695C249.396 211.698 249.27 211.702 249.145 211.702C248.733 211.705 248.325 211.708 247.913 211.708C240.191 211.714 232.497 210.785 225 208.943C224.249 208.76 223.501 208.566 222.757 208.363C218.834 207.297 214.986 205.979 211.235 204.417C209.258 203.597 207.316 202.713 205.409 201.764C204.978 201.548 204.546 201.331 204.121 201.108C201.936 197.284 200.694 192.633 200.668 187.045C202.18 177.416 291.83 162.713 295.171 171.017Z" fill="#11181D"/>
<path opacity="0.2" d="M295.169 173.369C295.22 172.519 295.277 171.641 295.344 170.726C292.003 162.422 202.353 177.125 200.841 186.754C200.845 187.637 200.883 188.493 200.947 189.33C204.609 179.826 289.778 165.852 295.169 173.369Z" fill="black"/>
<path d="M198.439 171.665L205.797 168.002L199.665 151.522L198.049 143.21C197.839 142.13 197.348 141.124 196.625 140.293C195.902 139.461 194.972 138.833 193.929 138.47C192.886 138.108 191.765 138.025 190.679 138.229C189.594 138.433 188.581 138.917 187.742 139.633C186.499 140.694 185.718 142.194 185.565 143.816C185.412 145.439 185.898 147.058 186.921 148.33L192.92 155.794L198.439 171.665Z" fill="#FFB6B6"/>
<path d="M205.798 164.95L195.986 169.834L203.432 193.057C203.967 194.724 204.925 196.226 206.215 197.417C207.504 198.607 209.081 199.446 210.791 199.851C212.901 200.351 215.116 200.169 217.114 199.332C219.113 198.495 220.792 197.046 221.908 195.195L241.652 161.508C243.051 159.187 243.483 156.413 242.855 153.779C242.228 151.145 240.59 148.859 238.293 147.411C237.057 146.632 235.67 146.121 234.223 145.91C232.776 145.7 231.3 145.796 229.892 146.191C228.484 146.585 227.176 147.271 226.052 148.203C224.928 149.134 224.013 150.291 223.368 151.598L211.317 177.158L205.798 164.95Z" fill="#1C304A"/>
<path d="M100.029 135.362C110.208 135.362 118.459 127.149 118.459 117.017C118.459 106.885 110.208 98.6719 100.029 98.6719C89.8509 98.6719 81.5996 106.885 81.5996 117.017C81.5996 127.149 89.8509 135.362 100.029 135.362Z" fill="#A0616A"/>
<path d="M81.8215 104.375C83.32 102.365 85.4738 100.935 87.1212 99.044C88.0251 98.0062 88.7757 96.8304 89.7919 95.9013C91.68 94.1752 94.3204 93.4679 96.8825 93.3799C99.6904 93.3081 102.476 93.8953 105.013 95.094C107.551 96.2927 109.769 98.0693 111.489 100.28C112.828 99.4983 114.167 98.7167 115.507 97.9351C116.036 99.3213 116.565 100.707 117.094 102.094C117.528 101.718 118.082 101.507 118.657 101.499C119.232 101.491 119.792 101.686 120.237 102.05C120.681 102.413 120.982 102.921 121.086 103.485C121.19 104.048 121.091 104.63 120.805 105.127C121.124 104.146 122.584 103.938 123.389 104.586C124.194 105.234 124.41 106.386 124.278 107.408C124.114 108.529 123.616 109.576 122.848 110.413C122.081 111.25 121.08 111.84 119.974 112.106C118.226 112.494 116.192 112.087 114.793 113.199C113.672 114.091 113.333 115.715 112.189 116.578C110.779 117.641 108.786 117.149 107.033 117.384C103.966 117.795 101.537 120.917 101.906 123.976C101.628 123.011 101.337 122.018 100.707 121.234C100.077 120.45 99.0166 119.92 98.0507 120.208C96.454 120.684 96.1928 122.85 96.5798 124.464C97.606 128.744 101.495 135.662 101.495 135.662C96.4452 137.645 90.4285 135.77 86.5318 132.008C82.6353 128.245 80.6058 122.917 79.7218 117.585C78.9722 113.063 79.0784 108.055 81.8215 104.375Z" fill="#3D4551"/>
<path d="M268.448 129.031C271.954 121.029 269.968 113.666 265.694 109.759V109.756C264.013 106.008 261.779 103.115 259.222 102.436C257.987 101.646 256.788 100.717 255.456 100.245C254.836 100.014 254.176 99.9103 253.514 99.9402C252.853 99.9701 252.205 100.133 251.608 100.419L250.929 100.239C250.353 98.7725 249.677 98.743 248.926 99.7072C246.033 98.3658 243.427 97.7656 241.107 97.7656C233.542 97.7656 229.068 104.141 227.882 111.849L234.205 113.525L236.402 110.038L235.388 113.839L238.877 114.761C244.188 121.645 237.832 137.525 229.776 146.361C231.694 145.833 233.604 145.387 235.506 145.023L242.419 134.934L238.135 144.118C240.359 143.793 243.196 144.105 246.297 144.731C247.341 143.373 247.891 141.563 247.351 139.949C248.235 141.651 248.844 143.48 249.157 145.37C255.7 146.961 264.626 147.778 269.437 148.381C273.323 147.118 273.334 132.855 268.448 129.031Z" fill="#3D4551"/>
<path d="M270.729 101.812C273.297 107.536 268.115 109.998 263.367 109.929C259.078 109.866 255.432 106.866 255.213 102.602C255.108 100.554 255.825 98.5479 257.205 97.0257C258.586 95.5035 260.517 94.5896 262.574 94.4849C266.859 94.2669 268.979 97.913 270.729 101.812Z" fill="#3D4551"/>
<path d="M151.586 194.995L147.355 187.971L161.422 177.349L167.27 171.202C168.03 170.404 168.987 169.818 170.045 169.503C171.104 169.188 172.227 169.155 173.303 169.407C174.378 169.659 175.368 170.188 176.174 170.941C176.98 171.694 177.573 172.644 177.894 173.696C178.37 175.255 178.219 176.938 177.473 178.388C176.726 179.839 175.443 180.944 173.893 181.471L164.805 184.559L151.586 194.995Z" fill="#A0616A"/>
<path d="M154.644 194.763L148.057 200.227L146.281 201.699L146.074 201.87C145.616 202.096 145.154 202.319 144.69 202.539C143.299 203.198 141.891 203.824 140.466 204.418C136.715 205.98 132.866 207.298 128.944 208.364C128.199 208.567 127.451 208.76 126.7 208.944C126.242 209.056 125.781 209.167 125.319 209.272C125.029 209.341 124.736 209.407 124.443 209.469C124.087 209.548 123.731 209.626 123.375 209.698C123.003 209.777 122.631 209.853 122.259 209.925C121.257 208.976 120.459 207.834 119.914 206.569C119.369 205.304 119.089 203.942 119.089 202.565C119.089 202.477 119.089 202.385 119.092 202.293L120.15 175.291L120.618 163.323C120.69 160.617 121.822 158.046 123.773 156.16C125.724 154.273 128.339 153.221 131.059 153.229C131.375 153.229 131.688 153.245 131.998 153.274C132.222 153.563 132.43 153.862 132.631 154.163C133.178 154.97 133.916 156.246 134.786 157.846C135.145 158.506 135.524 159.221 135.922 159.978C136.163 160.434 138.239 166.882 140.258 173.468L139.369 180.345L137.761 192.742L144.357 188.433L149.003 185.396L149.553 186.311L150.986 188.692L153.754 193.284L154.644 194.763Z" fill="#1C304A"/>
<path d="M151.032 187.045C151.029 187.603 151.016 188.151 150.986 188.692C150.918 190.184 150.744 191.671 150.466 193.139C150.011 195.605 149.2 197.992 148.057 200.226C147.906 200.525 147.744 200.82 147.579 201.109C147.154 201.332 146.723 201.548 146.291 201.765C146.219 201.801 146.146 201.837 146.074 201.87C144.238 202.778 142.369 203.627 140.466 204.418C136.715 205.98 132.866 207.297 128.944 208.363C128.199 208.567 127.451 208.76 126.7 208.944C125.234 209.305 123.753 209.632 122.258 209.924C116.174 211.114 109.988 211.712 103.787 211.709C103.376 211.709 102.967 211.705 102.555 211.702C102.43 211.702 102.305 211.699 102.176 211.696C101.814 211.689 101.438 211.682 101.056 211.673C93.7285 211.471 86.4491 210.426 79.3626 208.56C78.7992 208.413 78.238 208.259 77.679 208.101C72.292 206.576 67.0522 204.576 62.0218 202.125C56.4931 190.801 57.5309 184.753 56.5293 171.017C58.5853 165.904 93.3691 169.515 120.15 175.291C127.418 176.859 134.093 178.587 139.369 180.345C144.818 182.159 148.769 184.002 150.317 185.733C150.679 186.092 150.928 186.548 151.032 187.045Z" fill="#11181D"/>
<path opacity="0.2" d="M56.5315 173.369C56.4803 172.519 56.4232 171.641 56.3564 170.726C59.6974 162.422 149.347 177.125 150.859 186.754C150.855 187.637 150.817 188.493 150.754 189.33C147.091 179.826 61.9228 165.852 56.5315 173.369Z" fill="black"/>
</svg>
