<svg width="352" height="235" viewBox="0 0 352 235" fill="none" xmlns="http://www.w3.org/2000/svg">
<rect width="352" height="235" rx="10" fill="white"/>
<g clip-path="url(#clip0_346_1070)">
<path d="M93.0337 33.6447H74.0297C72.2026 33.6464 70.4509 34.3695 69.159 35.6553C67.867 36.9411 67.1405 38.6846 67.1389 40.503V61.0092C66.8959 60.9948 66.6529 60.9731 66.4135 60.9442C61.9113 60.4728 57.6309 58.7589 54.055 55.9958C50.4791 53.2328 47.7498 49.5304 46.175 45.3061C44.6001 41.0819 44.2422 36.5037 45.1417 32.0878C46.0412 27.672 48.1623 23.594 51.2658 20.3137C54.3693 17.0334 58.3318 14.6813 62.7066 13.5225C67.0814 12.3637 71.6945 12.4443 76.0257 13.7552C80.3569 15.0662 84.234 17.5553 87.2199 20.942C90.2058 24.3287 92.1818 28.4782 92.925 32.9228C92.9648 33.161 93.0011 33.4029 93.0337 33.6447Z" fill="#F0F0F0"/>
<path d="M317.384 32.9229H74.0302C72.011 32.925 70.075 33.7244 68.6472 35.1455C67.2194 36.5665 66.4163 38.4933 66.4141 40.503V168.283C66.4163 170.293 67.2194 172.22 68.6472 173.641C70.075 175.062 72.011 175.861 74.0302 175.864H317.384C319.403 175.861 321.339 175.062 322.767 173.641C324.195 172.22 324.998 170.293 325 168.283V40.503C324.998 38.4933 324.195 36.5665 322.767 35.1455C321.339 33.7244 319.403 32.925 317.384 32.9229ZM324.275 168.283C324.273 170.102 323.547 171.845 322.255 173.131C320.963 174.417 319.211 175.14 317.384 175.142H74.0302C72.2032 175.14 70.4514 174.417 69.1595 173.131C67.8676 171.845 67.1411 170.102 67.1394 168.283V40.503C67.1411 38.6846 67.8676 36.9411 69.1595 35.6553C70.4514 34.3695 72.2032 33.6464 74.0302 33.6448H317.384C319.211 33.6464 320.963 34.3695 322.255 35.6553C323.547 36.9411 324.273 38.6846 324.275 40.503V168.283Z" fill="#0B4778"/>
<path d="M305.416 53.6311H85.9984C85.9022 53.6311 85.81 53.5931 85.742 53.5254C85.674 53.4577 85.6357 53.3659 85.6357 53.2701C85.6357 53.1744 85.674 53.0826 85.742 53.0149C85.81 52.9472 85.9022 52.9092 85.9984 52.9092H305.416C305.512 52.9092 305.604 52.9472 305.672 53.0149C305.74 53.0826 305.778 53.1744 305.778 53.2701C305.778 53.3659 305.74 53.4577 305.672 53.5254C305.604 53.5931 305.512 53.6311 305.416 53.6311Z" fill="#0B4778"/>
<path d="M148.015 160.342C147.919 160.342 147.827 160.304 147.759 160.237C147.691 160.169 147.652 160.077 147.652 159.981V41.2252C147.652 41.1295 147.691 41.0377 147.759 40.97C147.827 40.9023 147.919 40.8643 148.015 40.8643C148.111 40.8643 148.203 40.9023 148.271 40.97C148.339 41.0377 148.378 41.1295 148.378 41.2252V159.981C148.378 160.077 148.339 160.169 148.271 160.237C148.203 160.304 148.111 160.342 148.015 160.342Z" fill="#0B4778"/>
<path d="M202.779 160.342C202.683 160.342 202.59 160.304 202.522 160.237C202.454 160.169 202.416 160.077 202.416 159.981V41.2252C202.416 41.1295 202.454 41.0377 202.522 40.97C202.59 40.9023 202.683 40.8643 202.779 40.8643C202.875 40.8643 202.967 40.9023 203.035 40.97C203.103 41.0377 203.141 41.1295 203.141 41.2252V159.981C203.141 160.077 203.103 160.169 203.035 160.237C202.967 160.304 202.875 160.342 202.779 160.342Z" fill="#0B4778"/>
<path d="M257.542 160.342C257.446 160.342 257.354 160.304 257.286 160.237C257.218 160.169 257.18 160.077 257.18 159.981V41.2252C257.18 41.1295 257.218 41.0377 257.286 40.97C257.354 40.9023 257.446 40.8643 257.542 40.8643C257.639 40.8643 257.731 40.9023 257.799 40.97C257.867 41.0377 257.905 41.1295 257.905 41.2252V159.981C257.905 160.077 257.867 160.169 257.799 160.237C257.731 160.304 257.639 160.342 257.542 160.342Z" fill="#0B4778"/>
<path d="M112.806 90.8883H99.5539C99.1212 90.8879 98.7064 90.7166 98.4004 90.4121C98.0945 90.1075 97.9224 89.6947 97.9219 89.264V73.6995C97.9224 73.2689 98.0945 72.856 98.4004 72.5515C98.7064 72.247 99.1212 72.0757 99.5539 72.0752H112.806C113.239 72.0757 113.654 72.247 113.959 72.5515C114.265 72.856 114.438 73.2689 114.438 73.6995V89.264C114.438 89.6947 114.265 90.1075 113.959 90.4121C113.654 90.7166 113.239 90.8879 112.806 90.8883Z" fill="#0B4778"/>
<path d="M131.664 135.287H118.412C117.98 135.286 117.565 135.115 117.259 134.811C116.953 134.506 116.781 134.093 116.78 133.662V118.098C116.781 117.667 116.953 117.254 117.259 116.95C117.565 116.645 117.98 116.474 118.412 116.474H131.664C132.097 116.474 132.512 116.645 132.818 116.95C133.124 117.254 133.296 117.667 133.296 118.098V133.662C133.296 134.093 133.124 134.506 132.818 134.811C132.512 135.115 132.097 135.286 131.664 135.287Z" fill="#0B4778"/>
<path d="M174.46 100.274H161.208C160.776 100.274 160.361 100.102 160.055 99.7978C159.749 99.4933 159.577 99.0804 159.576 98.6498V83.0853C159.577 82.6546 159.749 82.2417 160.055 81.9372C160.361 81.6327 160.776 81.4614 161.208 81.4609H174.46C174.893 81.4614 175.308 81.6327 175.614 81.9372C175.92 82.2417 176.092 82.6546 176.092 83.0853V98.6498C176.092 99.0804 175.92 99.4933 175.614 99.7978C175.308 100.102 174.893 100.274 174.46 100.274Z" fill="#0B4778"/>
<path d="M229.95 83.3083H216.697C216.265 83.3078 215.85 83.1365 215.544 82.832C215.238 82.5275 215.066 82.1146 215.065 81.6839V66.1194C215.066 65.6888 215.238 65.2759 215.544 64.9714C215.85 64.6669 216.265 64.4956 216.697 64.4951H229.95C230.382 64.4956 230.797 64.6669 231.103 64.9714C231.409 65.2759 231.581 65.6888 231.582 66.1194V81.684C231.581 82.1146 231.409 82.5275 231.103 82.832C230.797 83.1365 230.382 83.3078 229.95 83.3083Z" fill="#0B4778"/>
<path d="M281.086 83.3083H267.834C267.401 83.3078 266.987 83.1365 266.681 82.832C266.375 82.5275 266.203 82.1146 266.202 81.6839V66.1194C266.203 65.6888 266.375 65.2759 266.681 64.9714C266.987 64.6669 267.401 64.4956 267.834 64.4951H281.086C281.519 64.4956 281.934 64.6669 282.24 64.9714C282.546 65.2759 282.718 65.6888 282.718 66.1194V81.684C282.718 82.1146 282.546 82.5275 282.24 82.832C281.934 83.1365 281.519 83.3078 281.086 83.3083Z" fill="#0B4778"/>
<path d="M304.659 87.6403H291.407C290.975 87.6398 290.56 87.4685 290.254 87.164C289.948 86.8595 289.776 86.4466 289.775 86.016V70.4515C289.776 70.0208 289.948 69.6079 290.254 69.3034C290.56 68.9989 290.975 68.8276 291.407 68.8271H304.659C305.092 68.8276 305.507 68.9989 305.813 69.3034C306.119 69.6079 306.291 70.0208 306.292 70.4515V86.016C306.291 86.4466 306.119 86.8595 305.813 87.164C305.507 87.4685 305.092 87.6398 304.659 87.6403Z" fill="#DFE1E2"/>
<path d="M294.142 115.434H280.89C280.457 115.434 280.042 115.262 279.736 114.958C279.43 114.653 279.258 114.241 279.258 113.81V98.2454C279.258 97.8148 279.43 97.4019 279.736 97.0974C280.042 96.7929 280.457 96.6216 280.89 96.6211H294.142C294.575 96.6216 294.989 96.7929 295.295 97.0974C295.601 97.4019 295.773 97.8148 295.774 98.2454V113.81C295.773 114.241 295.601 114.653 295.295 114.958C294.989 115.262 294.575 115.434 294.142 115.434Z" fill="#DFE1E2"/>
<path d="M249.171 109.659H235.919C235.486 109.658 235.072 109.487 234.766 109.183C234.46 108.878 234.288 108.465 234.287 108.035V92.47C234.288 92.0394 234.46 91.6265 234.766 91.322C235.072 91.0175 235.486 90.8462 235.919 90.8457H249.171C249.604 90.8462 250.019 91.0175 250.325 91.322C250.631 91.6265 250.803 92.0394 250.803 92.47V108.035C250.803 108.465 250.631 108.878 250.325 109.183C250.019 109.487 249.604 109.658 249.171 109.659Z" fill="#28A0CB"/>
<path d="M223.421 115.434H210.169C209.736 115.434 209.322 115.262 209.016 114.958C208.71 114.653 208.538 114.241 208.537 113.81V98.2454C208.538 97.8148 208.71 97.4019 209.016 97.0974C209.322 96.7929 209.736 96.6216 210.169 96.6211H223.421C223.854 96.6216 224.269 96.7929 224.575 97.0974C224.881 97.4019 225.053 97.8148 225.053 98.2454V113.81C225.053 114.241 224.881 114.653 224.575 114.958C224.269 115.262 223.854 115.434 223.421 115.434Z" fill="#E6E6E6"/>
<path d="M167.932 139.979H154.68C154.247 139.979 153.832 139.807 153.526 139.503C153.22 139.198 153.048 138.785 153.048 138.355V122.79C153.048 122.36 153.22 121.947 153.526 121.642C153.832 121.338 154.247 121.167 154.68 121.166H167.932C168.365 121.167 168.779 121.338 169.085 121.642C169.391 121.947 169.563 122.36 169.564 122.79V138.355C169.563 138.786 169.391 139.198 169.085 139.503C168.779 139.807 168.365 139.979 167.932 139.979Z" fill="#DFE1E2"/>
<path d="M100.837 119.405H87.5852C87.1525 119.404 86.7376 119.233 86.4317 118.929C86.1257 118.624 85.9536 118.211 85.9531 117.781V102.216C85.9536 101.785 86.1257 101.373 86.4317 101.068C86.7376 100.764 87.1525 100.592 87.5852 100.592H100.837C101.27 100.592 101.685 100.764 101.991 101.068C102.297 101.373 102.469 101.785 102.469 102.216V117.781C102.469 118.211 102.297 118.624 101.991 118.929C101.685 119.233 101.27 119.404 100.837 119.405Z" fill="#28A0CB"/>
<path d="M138.193 90.8883H124.941C124.508 90.8879 124.093 90.7166 123.787 90.4121C123.481 90.1075 123.309 89.6947 123.309 89.264V73.6995C123.309 73.2689 123.481 72.856 123.787 72.5515C124.093 72.247 124.508 72.0757 124.941 72.0752H138.193C138.625 72.0757 139.04 72.247 139.346 72.5515C139.652 72.856 139.824 73.2689 139.825 73.6995V89.264C139.824 89.6947 139.652 90.1075 139.346 90.4121C139.04 90.7166 138.625 90.8879 138.193 90.8883Z" fill="#DFE1E2"/>
<path d="M127.343 47.7227H106.67C106.286 47.7227 105.917 47.5705 105.645 47.2998C105.373 47.029 105.22 46.6617 105.22 46.2788C105.22 45.8959 105.373 45.5286 105.645 45.2579C105.917 44.9871 106.286 44.835 106.67 44.835H127.343C127.728 44.835 128.097 44.9871 128.369 45.2579C128.641 45.5286 128.793 45.8959 128.793 46.2788C128.793 46.6617 128.641 47.029 128.369 47.2998C128.097 47.5705 127.728 47.7227 127.343 47.7227Z" fill="#A9AEB1"/>
<path d="M185.733 47.7227H165.061C164.676 47.7227 164.307 47.5705 164.035 47.2998C163.763 47.029 163.61 46.6617 163.61 46.2788C163.61 45.8959 163.763 45.5286 164.035 45.2579C164.307 44.9871 164.676 44.835 165.061 44.835H185.733C186.118 44.835 186.487 44.9871 186.759 45.2579C187.031 45.5286 187.184 45.8959 187.184 46.2788C187.184 46.6617 187.031 47.029 186.759 47.2998C186.487 47.5705 186.118 47.7227 185.733 47.7227Z" fill="#A9AEB1"/>
<path d="M240.497 47.7227H219.825C219.44 47.7227 219.071 47.5705 218.799 47.2998C218.527 47.029 218.374 46.6617 218.374 46.2788C218.374 45.8959 218.527 45.5286 218.799 45.2579C219.071 44.9871 219.44 44.835 219.825 44.835H240.497C240.882 44.835 241.251 44.9871 241.523 45.2579C241.795 45.5286 241.948 45.8959 241.948 46.2788C241.948 46.6617 241.795 47.029 241.523 47.2998C241.251 47.5705 240.882 47.7227 240.497 47.7227Z" fill="#A9AEB1"/>
<path d="M291.634 47.7227H270.961C270.577 47.7227 270.208 47.5705 269.936 47.2998C269.664 47.029 269.511 46.6617 269.511 46.2788C269.511 45.8959 269.664 45.5286 269.936 45.2579C270.208 44.9871 270.577 44.835 270.961 44.835H291.634C292.019 44.835 292.388 44.9871 292.66 45.2579C292.932 45.5286 293.085 45.8959 293.085 46.2788C293.085 46.6617 292.932 47.029 292.66 47.2998C292.388 47.5705 292.019 47.7227 291.634 47.7227Z" fill="#A9AEB1"/>
<path d="M81.0415 153.444C80.5109 153.393 79.9981 153.226 79.5393 152.955C79.0805 152.685 78.6868 152.318 78.3859 151.88C78.0851 151.442 77.8845 150.943 77.7981 150.42C77.7118 149.896 77.7418 149.36 77.8862 148.849L68.5898 140.236L73.5051 138.995L82.6465 146.375C83.4927 146.673 84.1995 147.27 84.6331 148.052C85.0667 148.834 85.1969 149.748 84.999 150.619C84.8012 151.49 84.2891 152.259 83.5597 152.78C82.8303 153.301 81.9343 153.537 81.0415 153.444Z" fill="#FFB8B8"/>
<path d="M93.8787 217.104H98.325L100.44 200.035H93.8779L93.8787 217.104Z" fill="#FFB8B8"/>
<path d="M106.899 221.213L92.9253 221.214L92.9251 215.84L101.5 215.84C102.932 215.839 104.305 216.406 105.318 217.413C106.33 218.421 106.899 219.788 106.899 221.213Z" fill="#11181D"/>
<path d="M63.3926 213.91L67.6895 215.048L74.1455 199.095L67.8041 197.415L63.3926 213.91Z" fill="#FFB8B8"/>
<path d="M74.9141 221.215L61.4102 217.637L62.799 212.445L71.0854 214.64C72.4692 215.006 73.6499 215.905 74.3679 217.138C75.0859 218.371 75.2824 219.838 74.9141 221.215Z" fill="#11181D"/>
<path d="M99.5207 213.873H92.7361C92.3076 213.874 91.894 213.716 91.5768 213.429C91.2595 213.143 91.0617 212.748 91.0221 212.323L86.9034 169.755C86.8732 169.442 86.7349 169.15 86.5122 168.928C86.2895 168.706 85.9962 168.568 85.6826 168.538C85.3689 168.507 85.0543 168.586 84.7927 168.761C84.531 168.936 84.3386 169.196 84.2483 169.497L72.2897 209.274C72.1632 209.697 71.8776 210.055 71.4925 210.273C71.1073 210.492 70.6523 210.553 70.2225 210.446L63.9108 208.875C63.6905 208.82 63.4833 208.723 63.3011 208.588C63.1188 208.453 62.9652 208.284 62.849 208.09C62.7328 207.895 62.6563 207.68 62.624 207.457C62.5917 207.233 62.6041 207.005 62.6606 206.786C62.7637 206.385 72.9644 166.709 73.0534 166.302C75.3647 149.348 78.1298 144.805 79.6153 142.365C79.7383 142.163 79.8513 141.977 79.953 141.801C80.0803 141.582 80.8642 139.403 81.3615 137.988C81.426 137.758 81.5379 137.543 81.6899 137.358C81.8419 137.173 82.0308 137.022 82.2446 136.913C88.4864 133.736 95.7895 135.935 97.8791 136.685C98.2255 136.806 98.5231 137.036 98.7271 137.34C104.996 146.751 101.919 201.408 101.239 212.269C101.211 212.704 101.017 213.111 100.698 213.409C100.379 213.707 99.9582 213.873 99.5207 213.873Z" fill="#11181D"/>
<path d="M82.0121 106.049C86.9317 106.049 90.9197 102.079 90.9197 97.183C90.9197 92.2866 86.9317 88.3174 82.0121 88.3174C77.0926 88.3174 73.1045 92.2866 73.1045 97.183C73.1045 102.079 77.0926 106.049 82.0121 106.049Z" fill="#FFB8B8"/>
<rect x="88" y="96.959" width="3.5" height="2.5" rx="1.25" fill="white" fill-opacity="0.3" stroke="#11181D" stroke-width="0.5"/>
<path d="M81.0677 139.709L81.0037 139.648C80.8836 139.532 69.0153 127.96 70.5512 117.259C71.2081 112.682 74.9288 109.758 81.3109 108.802C83.6556 108.455 86.0471 108.962 88.046 110.23C90.0448 111.498 91.5167 113.442 92.191 115.704L98.5015 137.175L81.0677 139.709Z" fill="#A9AEB1"/>
<path d="M74.9931 147.94L66.5362 139.576C65.9579 139.001 65.5381 138.287 65.3171 137.504C65.0961 136.721 65.0813 135.894 65.2742 135.103L69.3682 118.528C69.4909 118.031 69.7146 117.565 70.0256 117.158C70.3366 116.751 70.7283 116.412 71.1764 116.161C71.6245 115.911 72.1194 115.755 72.6306 115.702C73.1418 115.65 73.6583 115.703 74.1482 115.857C75.082 116.156 75.862 116.806 76.3229 117.668C76.7839 118.53 76.8896 119.537 76.6177 120.475L72.3075 135.057L79.2775 142.506L74.9931 147.94Z" fill="#A9AEB1"/>
<path d="M120.354 119.396C120.13 119.877 119.803 120.305 119.396 120.647C118.988 120.989 118.511 121.238 117.996 121.377C117.481 121.516 116.942 121.54 116.417 121.449C115.892 121.358 115.393 121.154 114.956 120.85L103.666 126.674L104.165 121.727L114.174 115.562C114.735 114.865 115.534 114.397 116.419 114.246C117.303 114.096 118.213 114.274 118.975 114.747C119.736 115.219 120.298 115.954 120.552 116.81C120.806 117.667 120.735 118.587 120.354 119.396Z" fill="#FFB8B8"/>
<path d="M113.723 123.078L102.717 127.812C101.985 128.124 101.184 128.244 100.391 128.159C99.5987 128.075 98.8414 127.789 98.1921 127.328L84.197 117.348C83.7793 117.05 83.4275 116.67 83.1633 116.232C82.8991 115.793 82.7281 115.305 82.6611 114.798C82.594 114.291 82.6321 113.776 82.7732 113.284C82.9143 112.792 83.1553 112.334 83.4812 111.939C84.1076 111.187 85.0034 110.708 85.9788 110.602C86.9542 110.496 87.9327 110.773 88.7068 111.373L100.707 120.773L110.246 117.1L113.723 123.078Z" fill="#A9AEB1"/>
<path d="M83.4881 100.024C84.587 98.6535 86.64 98.5798 88.1495 97.6759C90.1267 96.4918 90.9441 93.8458 90.307 91.6384C89.6698 89.4311 87.7907 87.7108 85.6363 86.8881C83.4819 86.0654 81.085 86.0552 78.8123 86.4529C75.4285 87.045 72.097 88.6169 70.0332 91.3508C67.9695 94.0846 67.4443 98.0884 69.3146 100.957C70.1742 102.275 71.5012 103.363 71.8444 104.897C72.295 106.911 70.8756 108.854 69.355 110.256C67.6226 111.854 65.635 113.192 64.1173 114.993C62.5995 116.794 61.5874 119.255 62.28 121.502C62.8602 123.385 64.5488 124.772 66.4004 125.467C68.2521 126.162 70.2687 126.262 72.2472 126.3C74.1683 126.338 76.2089 126.291 77.8273 125.26C79.5598 124.157 80.4849 122.063 80.5532 120.017C80.6216 117.971 79.9346 115.966 79.0138 114.135C78.465 113.044 77.8269 111.986 77.4622 110.821C77.0976 109.656 77.0344 108.334 77.6184 107.261C78.2323 106.133 79.4742 105.453 80.7389 105.206C80.8046 105.193 80.8741 105.182 80.9468 105.171C81.3066 105.125 81.6532 105.006 81.9657 104.823C82.2781 104.639 82.5499 104.394 82.7646 104.103C82.9793 103.812 83.1325 103.481 83.2148 103.129C83.2972 102.777 83.307 102.413 83.2437 102.057C83.0996 101.258 83.1121 100.493 83.4881 100.024Z" fill="#11181D"/>
<path d="M200.396 198.022C208.999 198.022 215.974 190.112 215.974 180.354C215.974 170.597 208.999 162.687 200.396 162.687C191.792 162.687 184.817 170.597 184.817 180.354C184.817 190.112 191.792 198.022 200.396 198.022Z" fill="#11181D"/>
<path d="M220.393 121.566C216.649 123.199 212.567 123.906 208.492 123.627C209.539 122.881 210.211 121.682 210.481 120.425C210.752 119.168 210.649 117.854 210.369 116.599C210.318 116.456 210.321 116.299 210.378 116.158C210.435 116.087 210.507 116.03 210.59 115.991C210.672 115.951 210.762 115.931 210.853 115.931C212.431 115.712 216.951 114.758 218.153 116.109C218.722 116.749 218.504 117.992 218.712 118.774C218.798 119.097 219.897 121.783 220.393 121.566Z" fill="#FBBEBE"/>
<path opacity="0.1" d="M220.393 121.566C216.649 123.199 212.567 123.906 208.492 123.627C209.539 122.881 210.211 121.682 210.481 120.425C210.752 119.168 210.649 117.854 210.369 116.599C210.318 116.456 210.321 116.299 210.378 116.158C210.435 116.087 210.507 116.03 210.59 115.991C210.672 115.951 210.762 115.931 210.853 115.931C212.431 115.712 216.951 114.758 218.153 116.109C218.722 116.749 218.504 117.992 218.712 118.774C218.798 119.097 219.897 121.783 220.393 121.566Z" fill="black"/>
<path d="M207.239 148.387L183.827 149.108C183.827 149.108 163.116 169.278 180.225 175.402C180.225 175.402 201.296 178.824 206.339 174.861C206.339 174.861 212.642 150.008 207.239 148.387ZM206.159 155.051L181.125 156.672C181.125 156.672 182.926 150.548 190.13 150.548C197.334 150.548 205.438 148.927 206.159 152.71C206.879 156.492 206.159 155.051 206.159 155.051Z" fill="#1C304A"/>
<path d="M175.631 113.588C175.789 114.097 176.056 114.565 176.414 114.96C176.771 115.355 177.211 115.668 177.702 115.875C178.193 116.083 178.723 116.181 179.255 116.162C179.787 116.143 180.307 116.008 180.78 115.766L190.159 124.71L191.343 118.106L182.255 110.626C181.792 109.857 181.064 109.284 180.208 109.015C179.352 108.745 178.429 108.798 177.612 109.163C176.796 109.528 176.143 110.18 175.778 110.996C175.413 111.812 175.361 112.734 175.631 113.588Z" fill="#FBBEBE"/>
<path d="M196.521 133.005C196.341 132.872 196.169 132.728 196.009 132.572L181.362 118.356C181.122 118.124 180.944 117.837 180.843 117.519C180.742 117.202 180.722 116.865 180.784 116.538C180.804 116.433 180.832 116.33 180.868 116.229C180.963 115.968 181.111 115.729 181.303 115.529C181.494 115.328 181.726 115.169 181.983 115.063L184.966 113.828C185.285 113.696 185.634 113.649 185.978 113.691C186.322 113.733 186.65 113.862 186.93 114.067L186.932 114.068L201.127 124.515L218.683 122.843C219.5 122.766 220.318 122.972 221.003 123.427C221.603 123.826 222.069 124.397 222.339 125.065C222.608 125.733 222.67 126.466 222.514 127.167C222.358 127.868 221.993 128.505 221.467 128.993C220.941 129.481 220.278 129.798 219.566 129.902L200.375 133.848C199.71 133.985 199.024 133.981 198.36 133.836C197.696 133.69 197.069 133.407 196.521 133.005Z" fill="#E2EBF1"/>
<path d="M231.192 162.615L200.396 161.534L207.599 131.098C207.599 131.098 236.415 128.937 235.695 136.321C234.974 143.705 231.192 162.615 231.192 162.615Z" fill="#11181D"/>
<path d="M201.462 177.164C201.462 177.164 182.926 180.445 176.263 170.719C169.599 160.994 201.476 166.217 201.476 166.217L204.178 173.601L201.462 177.164Z" fill="#11181D"/>
<path d="M195.893 218.445C200.568 218.445 204.358 214.655 204.358 209.98C204.358 205.305 200.568 201.516 195.893 201.516C191.218 201.516 187.429 205.305 187.429 209.98C187.429 214.655 191.218 218.445 195.893 218.445Z" fill="#11181D"/>
<path d="M196.703 216.104C199.638 216.104 202.016 213.362 202.016 209.98C202.016 206.598 199.638 203.857 196.703 203.857C193.769 203.857 191.391 206.598 191.391 209.98C191.391 213.362 193.769 216.104 196.703 216.104Z" fill="#1C304A"/>
<path d="M242.179 130.198C242.179 130.198 235.155 126.235 234.795 135.6L228.852 179.184H231.373L238.217 132.539C238.217 132.539 241.638 133.079 242.179 133.079C242.719 133.079 242.179 130.198 242.179 130.198Z" fill="#1C304A"/>
<path d="M249.177 135.006C249.113 135.238 249 135.453 248.846 135.637C248.692 135.821 248.5 135.97 248.284 136.074C248.067 136.178 247.831 136.234 247.591 136.24C247.351 136.245 247.113 136.199 246.892 136.104L238.744 132.621L240.222 129.365L248.252 133.023C248.618 133.189 248.911 133.48 249.081 133.844C249.25 134.208 249.285 134.62 249.177 135.006Z" fill="#11181D"/>
<path d="M199.675 176.122C199.675 176.122 186.708 174.682 183.106 187.108C179.504 199.535 179.865 209.08 176.803 208.36C173.741 207.639 167.258 205.118 167.258 205.118L167.798 208.9C167.798 208.9 179.144 214.663 180.945 208.54C182.746 202.417 183.827 179.904 194.092 180.445C204.358 180.985 206.159 179.904 206.159 179.904L199.675 176.122Z" fill="#1C304A"/>
<path d="M175.002 170.179C175.002 170.179 164.917 171.439 160.955 178.823C156.993 186.207 155.012 199.535 155.012 199.535H158.794C158.794 199.535 160.955 173.06 172.301 174.501L175.002 170.179Z" fill="#1C304A"/>
<path d="M168.158 211.421L152.129 201.516C152.129 201.516 151.229 197.914 161.494 196.473C161.494 196.473 180.903 203.261 179.033 205.81C177.163 208.36 170.86 212.322 168.158 211.421Z" fill="#11181D"/>
<path d="M193.012 179.183V200.255H195.353V178.823L193.012 179.183Z" fill="#1C304A"/>
<path d="M196.433 192.15C196.433 192.15 200.936 209.8 198.054 212.321C198.054 212.321 194.272 201.155 191.391 202.596L192.291 192.15H196.433Z" fill="#11181D"/>
<path d="M213.903 118.671C217.782 118.671 220.926 115.526 220.926 111.647C220.926 107.768 217.782 104.624 213.903 104.624C210.024 104.624 206.879 107.768 206.879 111.647C206.879 115.526 210.024 118.671 213.903 118.671Z" fill="#FBBEBE"/>
<path d="M212.575 122.293C215.439 122.779 217.915 119.449 220.782 119.917C221.406 120.045 222.002 120.28 222.546 120.611C224.658 121.806 226.498 123.428 227.95 125.372C229.402 127.317 230.434 129.542 230.979 131.907C231.303 133.351 231.429 134.918 230.818 136.267C230.494 136.984 229.981 137.596 229.468 138.193C227.56 140.411 225.466 142.623 222.744 143.696C222.478 144.617 222.734 145.614 223.053 146.518C224.384 150.293 222.267 154.361 222.159 158.362C222.14 159.046 222.161 159.796 221.733 160.33C221.258 160.923 220.41 161.029 219.651 161.071C212.697 161.463 205.752 160.396 198.868 159.333C198.688 159.32 198.514 159.261 198.363 159.162C198.137 158.981 198.102 158.658 198.054 158.372C197.799 156.861 199.141 155.635 198.505 154.24C197.411 151.842 199.797 149.22 200.486 146.676C201.174 144.132 201.445 143.684 201.927 141.093C202.107 140.124 201.588 137.203 201.747 136.23C202.263 133.053 201.873 129.434 203.547 126.685C204.554 125.033 204.293 123.749 206.088 123.031C207.983 122.273 210.548 122.529 212.575 122.293Z" fill="#EFF6FB"/>
<path d="M180.854 164.18C178.757 164.585 176.531 164.97 174.917 166.369C173.932 167.223 173.27 168.381 172.626 169.516L166.062 181.09C164.059 184.62 162.056 188.152 160.241 191.781C160.083 192.045 159.989 192.343 159.97 192.651C159.977 193.084 160.268 193.456 160.566 193.771C161.602 194.844 162.874 195.661 164.281 196.156C165.688 196.65 167.192 196.81 168.671 196.62C169.123 194.282 171.345 192.737 172.435 190.62C173.033 189.456 173.274 188.148 173.66 186.898C175.101 182.235 178.522 178.491 181.843 174.915C183.413 173.225 185.02 171.506 187.042 170.397C189.415 169.096 192.168 168.736 194.819 168.195C197.471 167.655 200.216 166.836 202.092 164.886C202.888 164.046 203.488 163.04 203.848 161.94C204.207 160.839 204.318 159.673 204.171 158.525C202.473 158.406 200.583 158.185 198.944 158.732C197.041 159.366 195.2 160.233 193.295 160.881C189.228 162.264 185.072 163.367 180.854 164.18Z" fill="#0B4778"/>
<path opacity="0.1" d="M180.854 164.18C178.757 164.585 176.531 164.97 174.917 166.369C173.932 167.223 173.27 168.381 172.626 169.516L166.062 181.09C164.059 184.62 162.056 188.152 160.241 191.781C160.083 192.045 159.989 192.343 159.97 192.651C159.977 193.084 160.268 193.456 160.566 193.771C161.602 194.844 162.874 195.661 164.281 196.156C165.688 196.65 167.192 196.81 168.671 196.62C169.123 194.282 171.345 192.737 172.435 190.62C173.033 189.456 173.274 188.148 173.66 186.898C175.101 182.235 178.522 178.491 181.843 174.915C183.413 173.225 185.02 171.506 187.042 170.397C189.415 169.096 192.168 168.736 194.819 168.195C197.471 167.655 200.216 166.836 202.092 164.886C202.888 164.046 203.488 163.04 203.848 161.94C204.207 160.839 204.318 159.673 204.171 158.525C202.473 158.406 200.583 158.185 198.944 158.732C197.041 159.366 195.2 160.233 193.295 160.881C189.228 162.264 185.072 163.367 180.854 164.18Z" fill="black"/>
<path d="M152.552 200.882C152.319 201.049 152.139 201.281 152.035 201.55C151.797 202.362 152.813 202.934 153.627 203.168C155.455 203.694 157.404 204.221 159.227 203.679C160.345 203.347 161.318 202.635 162.429 202.279C164.077 201.751 165.862 202.05 167.566 202.355C167.947 200.213 167.691 198.006 166.83 196.008C166.283 194.747 164.095 194.133 162.792 194.078C161.368 194.017 160.873 195.068 160.051 196.035C158.049 198.391 154.859 198.937 152.552 200.882Z" fill="#1C304A"/>
<path d="M182.192 167.63C181.185 168.031 180.152 168.448 179.361 169.19C178.527 169.974 178.038 171.049 177.593 172.104C176.276 175.222 175.156 178.418 174.237 181.675C173.773 183.321 173.36 184.985 172.735 186.577C171.487 189.753 169.37 192.795 169.569 196.202C169.568 196.616 169.679 197.022 169.891 197.378C170.174 197.788 170.654 198.005 171.111 198.204L173.506 199.243C174.791 199.801 176.359 200.338 177.507 199.535C178.275 198.998 178.582 198.023 178.814 197.115C179.651 193.834 180.168 190.426 181.668 187.391C183.363 183.96 186.229 181.187 187.746 177.674C187.96 177.176 188.164 176.643 188.586 176.303C188.934 176.023 189.386 175.914 189.823 175.815C198.817 173.767 208.014 172.646 216.936 170.305C218.205 169.972 219.532 169.576 220.437 168.627C221.692 167.311 221.803 165.311 221.844 163.493C221.869 162.354 221.863 161.116 221.169 160.212C220.387 159.193 218.983 158.924 217.705 158.79C212.804 158.274 208.284 159.087 203.457 159.681C199.04 160.226 194.592 162.719 190.472 164.347C187.711 165.439 184.951 166.533 182.192 167.63Z" fill="#0B4778"/>
<path d="M171.111 200.189C170.437 201.788 169.71 203.459 168.344 204.529C167.773 204.976 167.035 205.424 167.012 206.148C166.988 206.915 167.793 207.421 168.515 207.681C170.353 208.344 172.444 208.486 174.237 207.71C175.463 207.18 176.475 206.263 177.461 205.362C177.759 205.091 178.066 204.804 178.206 204.427C178.301 204.108 178.329 203.774 178.289 203.445C178.171 201.444 177.814 199.464 177.226 197.548C177.181 197.398 173.306 196.914 172.962 197.004C171.88 197.287 171.528 199.198 171.111 200.189Z" fill="#1C304A"/>
<path d="M231.372 153.79L207.96 154.51C207.96 154.51 187.248 174.681 204.358 180.805C204.358 180.805 225.429 184.226 230.472 180.264C230.472 180.264 236.775 155.411 231.372 153.79ZM230.292 160.454L205.258 162.075C205.258 162.075 207.059 155.951 214.263 155.951C221.467 155.951 229.571 154.33 230.292 158.112C231.012 161.894 230.292 160.454 230.292 160.454Z" fill="#1C304A"/>
<path d="M226.059 218.445C239.039 218.445 249.562 206.511 249.562 191.791C249.562 177.07 239.039 165.136 226.059 165.136C213.079 165.136 202.557 177.07 202.557 191.791C202.557 206.511 213.079 218.445 226.059 218.445Z" fill="#11181D"/>
<path d="M227.14 211.601C236.937 211.601 244.88 202.731 244.88 191.79C244.88 180.849 236.937 171.979 227.14 171.979C217.343 171.979 209.4 180.849 209.4 191.79C209.4 202.731 217.343 211.601 227.14 211.601Z" fill="#1C304A"/>
<path d="M231.732 191.521C231.732 191.175 231.697 190.83 231.629 190.491L244.879 183.866L243.979 181.885L230.594 188.406C230.459 188.267 230.31 188.143 230.15 188.035L230.16 188.037L234.074 168.558L230.612 168.479L228.31 187.648L228.531 187.695C228.352 187.732 228.179 187.791 228.015 187.871L216.439 175.989L214.803 178.283L226.696 189.225C226.398 189.798 226.219 190.425 226.17 191.069L209.4 197.914L209.04 200.796L226.52 193.444C226.683 193.848 226.914 194.222 227.203 194.548L221.827 212.862H223.808L228.321 195.294C228.521 195.358 228.73 195.392 228.941 195.393C229.347 195.389 229.744 195.27 230.085 195.05L239.476 207.459L242.358 205.478L231.355 193.459C231.607 192.844 231.736 192.185 231.732 191.521Z" fill="#11181D"/>
<path d="M205.741 107.201C206.058 106.404 207.082 106.074 207.417 105.285C207.777 104.436 207.212 103.356 207.703 102.575C208.197 101.788 209.348 101.88 210.265 102.032C211.347 102.211 212.498 102.332 213.508 101.903C213.957 101.712 214.355 101.42 214.79 101.199C215.481 100.848 216.251 100.681 217.025 100.713C217.2 100.709 217.372 100.75 217.526 100.832C217.673 100.938 217.786 101.084 217.852 101.252C218.167 101.936 218.213 102.79 218.784 103.281C219.059 103.516 219.415 103.627 219.744 103.778C220.51 104.148 221.144 104.744 221.561 105.485C221.977 106.227 222.157 107.078 222.074 107.924C221.999 108.316 221.951 108.713 221.932 109.112C221.955 109.988 222.527 110.863 222.235 111.688C222.017 112.302 221.381 112.665 220.758 112.855C220.581 112.927 220.385 112.937 220.201 112.883C219.882 112.753 219.818 112.343 219.716 112.013C219.571 111.582 219.293 111.208 218.921 110.946C218.55 110.684 218.104 110.548 217.649 110.557C216.923 110.588 216.188 110.996 215.502 110.753C215.165 110.634 214.902 110.373 214.633 110.139C214.013 109.598 213.28 109.148 212.466 109.033C211.652 108.918 210.75 109.192 210.27 109.861C210.077 110.13 209.959 110.448 209.775 110.724C208.115 113.204 205.056 108.921 205.741 107.201Z" fill="#11181D"/>
<path d="M206.609 155.141H194.183V169.008H206.609V155.141Z" fill="#28A0CB"/>
<path d="M209.483 150.006C209.175 149.966 208.861 150.001 208.57 150.11C208.279 150.218 208.018 150.396 207.811 150.628C206.235 152.064 204.565 153.682 204.279 155.795C204.236 155.987 204.259 156.189 204.345 156.367C204.497 156.615 204.83 156.67 205.121 156.675C205.858 156.683 206.587 156.533 207.261 156.235C207.934 155.938 208.537 155.499 209.027 154.95C209.297 154.644 209.545 154.293 209.916 154.12C210.255 153.994 210.618 153.949 210.978 153.988C211.966 154.021 214.224 154.527 215.086 154.036C215.992 153.52 215.743 151.904 215.32 151.124C214.314 149.272 211.195 149.987 209.483 150.006Z" fill="#FBBEBE"/>
<path d="M231.48 134.446C232.086 136.394 231.731 138.588 232.589 140.439C233.159 141.667 234.23 142.658 234.562 143.97C234.875 145.211 234.455 146.548 233.719 147.594C232.982 148.641 231.957 149.444 230.929 150.206C229.803 151.04 228.633 151.854 227.307 152.305C225.983 152.754 224.565 152.822 223.169 152.886L213.915 153.311L212.211 148.201L218.241 145.839C218.844 145.603 219.459 145.364 220.105 145.316C221.221 145.233 222.582 145.643 223.299 144.784C223.527 144.468 223.672 144.1 223.72 143.714C224.305 140.712 223.796 137.536 224.696 134.613C225.142 133.167 226.427 130.265 228.181 130.01C230.039 129.739 231.06 133.094 231.48 134.446Z" fill="#EFF6FB"/>
</g>
<defs>
<clipPath id="clip0_346_1070">
<rect width="298" height="209" fill="white" transform="translate(27 12.709)"/>
</clipPath>
</defs>
</svg>
