<svg width="352" height="235" viewBox="0 0 352 235" fill="none" xmlns="http://www.w3.org/2000/svg">
<rect width="352" height="235" rx="10" fill="white"/>
<path d="M198.791 24.3678C201.279 29.6634 196.008 31.1634 189.97 34.0018C183.932 36.8403 179.414 39.9422 176.926 34.6466C174.439 29.3509 172.42 18.84 180.962 14.8245C189.798 10.6708 196.304 19.0721 198.791 24.3678Z" fill="#11181D"/>
<path d="M186.472 34.7819C190.961 34.7819 194.601 31.1412 194.601 26.6502C194.601 22.1592 190.961 18.5186 186.472 18.5186C181.983 18.5186 178.344 22.1592 178.344 26.6502C178.344 31.1412 181.983 34.7819 186.472 34.7819Z" fill="#FFB8B8"/>
<path d="M226.742 62.7133C226.461 62.3458 226.179 61.9849 225.895 61.634C225.528 61.1771 225.158 60.7345 224.786 60.3063C220.573 55.4428 216.092 52.3803 211.158 52.0525H211.151L211.078 52.0459L201.246 61.634L197.903 64.8918L197.976 65.0706L199.78 69.5633H231.382C229.958 67.1992 228.409 64.9126 226.742 62.7133Z" fill="#11181D"/>
<path d="M177.633 29.9244L180.543 28.5566L180.138 24.3574L182.083 27.8325L183.474 27.1787L183.238 24.7292L184.373 26.7563L194.706 21.8985C193.736 19.8323 191.984 18.2364 189.838 17.4619C187.691 16.6874 185.325 16.7978 183.259 17.7687L181.762 18.4727C179.696 19.4437 178.101 21.1957 177.327 23.3433C176.552 25.4909 176.663 27.8582 177.633 29.9244Z" fill="#11181D"/>
<path d="M244.977 177.527H75.2546C73.8068 177.526 72.4188 176.95 71.3951 175.926C70.3714 174.902 69.7956 173.513 69.7939 172.065V70.0413C69.7951 68.9802 70.217 67.9629 70.9669 67.2126C71.7169 66.4623 72.7338 66.0403 73.7944 66.0391H246.368C247.447 66.0403 248.482 66.4696 249.245 67.2329C250.008 67.9962 250.437 69.031 250.438 70.1105V172.065C250.436 173.513 249.86 174.902 248.837 175.926C247.813 176.95 246.425 177.526 244.977 177.527Z" fill="#F0F0F0"/>
<path d="M80.55 172.065H239.682C241.087 172.065 242.434 171.506 243.427 170.513C244.42 169.52 244.978 168.172 244.978 166.767V80.1742C244.978 78.7693 244.42 77.4219 243.427 76.4285C242.434 75.4351 241.087 74.877 239.682 74.877H80.55C79.1457 74.877 77.7988 75.4351 76.8058 76.4285C75.8128 77.4219 75.2549 78.7693 75.2549 80.1742V166.767C75.2549 168.172 75.8128 169.52 76.8058 170.513C77.7988 171.506 79.1457 172.065 80.55 172.065Z" fill="white"/>
<path d="M250.361 69.7283H69.7168V66.9471C69.7189 65.4939 70.2971 64.101 71.3245 63.0737C72.352 62.0465 73.7447 61.469 75.1973 61.4678H244.881C246.333 61.469 247.726 62.0465 248.754 63.0737C249.781 64.1009 250.359 65.4939 250.361 66.9471V69.7283Z" fill="#0B4778"/>
<path d="M79.6774 67.0248C80.4603 67.0248 81.0949 66.3899 81.0949 65.6066C81.0949 64.8234 80.4603 64.1885 79.6774 64.1885C78.8944 64.1885 78.2598 64.8234 78.2598 65.6066C78.2598 66.3899 78.8944 67.0248 79.6774 67.0248Z" fill="white"/>
<path d="M85.0582 67.0248C85.8411 67.0248 86.4758 66.3899 86.4758 65.6066C86.4758 64.8234 85.8411 64.1885 85.0582 64.1885C84.2753 64.1885 83.6406 64.8234 83.6406 65.6066C83.6406 66.3899 84.2753 67.0248 85.0582 67.0248Z" fill="white"/>
<path d="M90.4391 67.0248C91.222 67.0248 91.8567 66.3899 91.8567 65.6066C91.8567 64.8234 91.222 64.1885 90.4391 64.1885C89.6562 64.1885 89.0215 64.8234 89.0215 65.6066C89.0215 66.3899 89.6562 67.0248 90.4391 67.0248Z" fill="white"/>
<path d="M165.081 153.285H150.85C150.017 153.284 149.217 152.952 148.628 152.362C148.039 151.773 147.707 150.973 147.706 150.139V135.903C147.707 135.069 148.039 134.27 148.628 133.68C149.217 133.09 150.017 132.759 150.85 132.758H165.081C165.914 132.759 166.713 133.09 167.303 133.68C167.892 134.27 168.224 135.069 168.225 135.903V150.139C168.224 150.973 167.892 151.773 167.303 152.362C166.713 152.952 165.914 153.284 165.081 153.285ZM150.85 133.42C150.192 133.421 149.561 133.683 149.096 134.148C148.63 134.614 148.369 135.245 148.368 135.903V150.139C148.369 150.798 148.63 151.429 149.096 151.894C149.561 152.36 150.192 152.622 150.85 152.623H165.081C165.739 152.622 166.37 152.36 166.835 151.894C167.3 151.429 167.562 150.798 167.563 150.139V135.903C167.562 135.245 167.3 134.614 166.835 134.148C166.37 133.683 165.739 133.421 165.081 133.42H150.85Z" fill="#A9AEB1"/>
<path d="M162.268 149.312H153.664C153.401 149.312 153.148 149.207 152.962 149.021C152.776 148.835 152.671 148.583 152.671 148.319V137.725C152.671 137.461 152.776 137.209 152.962 137.023C153.148 136.836 153.401 136.732 153.664 136.731H159.899C160.125 136.732 160.344 136.809 160.521 136.95L162.89 138.855C163.006 138.948 163.1 139.066 163.164 139.2C163.228 139.334 163.262 139.481 163.261 139.63V148.319C163.261 148.583 163.156 148.835 162.97 149.021C162.784 149.207 162.532 149.312 162.268 149.312ZM153.664 137.394C153.576 137.394 153.492 137.429 153.43 137.491C153.368 137.553 153.333 137.637 153.333 137.725V148.319C153.333 148.407 153.368 148.491 153.43 148.553C153.492 148.615 153.576 148.65 153.664 148.65H162.268C162.356 148.65 162.44 148.615 162.502 148.553C162.564 148.491 162.599 148.407 162.599 148.319V139.63C162.599 139.58 162.588 139.531 162.567 139.487C162.546 139.442 162.514 139.403 162.476 139.372L160.106 137.467C160.047 137.419 159.974 137.394 159.899 137.394H153.664Z" fill="#A9AEB1"/>
<path d="M160.613 141.366H155.318C155.23 141.366 155.146 141.331 155.084 141.269C155.022 141.207 154.987 141.123 154.987 141.035C154.987 140.947 155.022 140.863 155.084 140.801C155.146 140.739 155.23 140.704 155.318 140.704H160.613C160.701 140.704 160.785 140.739 160.847 140.801C160.909 140.863 160.944 140.947 160.944 141.035C160.944 141.123 160.909 141.207 160.847 141.269C160.785 141.331 160.701 141.366 160.613 141.366Z" fill="#A9AEB1"/>
<path d="M160.613 143.353H155.318C155.23 143.353 155.146 143.318 155.084 143.256C155.022 143.194 154.987 143.109 154.987 143.022C154.987 142.934 155.022 142.849 155.084 142.787C155.146 142.725 155.23 142.69 155.318 142.69H160.613C160.701 142.69 160.785 142.725 160.847 142.787C160.909 142.849 160.944 142.934 160.944 143.022C160.944 143.109 160.909 143.194 160.847 143.256C160.785 143.318 160.701 143.353 160.613 143.353Z" fill="#A9AEB1"/>
<path d="M160.613 145.339H155.318C155.23 145.339 155.146 145.304 155.084 145.242C155.022 145.18 154.987 145.096 154.987 145.008C154.987 144.92 155.022 144.836 155.084 144.774C155.146 144.712 155.23 144.677 155.318 144.677H160.613C160.701 144.677 160.785 144.712 160.847 144.774C160.909 144.836 160.944 144.92 160.944 145.008C160.944 145.096 160.909 145.18 160.847 145.242C160.785 145.304 160.701 145.339 160.613 145.339Z" fill="#A9AEB1"/>
<path d="M198.838 153.285H184.607C183.773 153.284 182.974 152.952 182.385 152.362C181.795 151.773 181.464 150.973 181.463 150.139V135.903C181.464 135.069 181.795 134.27 182.385 133.68C182.974 133.09 183.773 132.759 184.607 132.758H198.838C199.671 132.759 200.47 133.09 201.06 133.68C201.649 134.27 201.981 135.069 201.982 135.903V150.139C201.981 150.973 201.649 151.773 201.06 152.362C200.47 152.952 199.671 153.284 198.838 153.285ZM184.607 133.42C183.949 133.421 183.318 133.683 182.853 134.148C182.387 134.614 182.126 135.245 182.125 135.903V150.139C182.126 150.798 182.387 151.429 182.853 151.894C183.318 152.36 183.949 152.622 184.607 152.623H198.838C199.496 152.622 200.127 152.36 200.592 151.894C201.057 151.429 201.319 150.798 201.32 150.139V135.903C201.319 135.245 201.057 134.614 200.592 134.148C200.127 133.683 199.496 133.421 198.838 133.42H184.607Z" fill="#A9AEB1"/>
<path d="M196.356 146.664H187.09C186.826 146.663 186.574 146.559 186.388 146.372C186.202 146.186 186.097 145.934 186.097 145.67V140.373C186.097 140.11 186.202 139.857 186.388 139.671C186.574 139.485 186.826 139.38 187.09 139.38H196.356C196.619 139.38 196.872 139.485 197.058 139.671C197.244 139.857 197.349 140.11 197.349 140.373V145.67C197.349 145.934 197.244 146.186 197.058 146.372C196.872 146.559 196.619 146.663 196.356 146.664ZM187.09 140.042C187.002 140.042 186.918 140.077 186.856 140.139C186.794 140.201 186.759 140.285 186.759 140.373V145.67C186.759 145.758 186.794 145.842 186.856 145.904C186.918 145.966 187.002 146.001 187.09 146.001H196.356C196.444 146.001 196.528 145.966 196.59 145.904C196.652 145.842 196.687 145.758 196.687 145.67V140.373C196.687 140.285 196.652 140.201 196.59 140.139C196.528 140.077 196.444 140.042 196.356 140.042H187.09Z" fill="#A9AEB1"/>
<path d="M191.722 143.895C191.536 143.895 191.354 143.843 191.196 143.745L186.252 140.654C186.177 140.607 186.125 140.533 186.105 140.447C186.085 140.362 186.101 140.272 186.147 140.198C186.194 140.123 186.268 140.07 186.353 140.051C186.438 140.031 186.528 140.046 186.603 140.092L191.547 143.183C191.6 143.216 191.661 143.233 191.722 143.233C191.784 143.233 191.845 143.216 191.898 143.183L196.842 140.092C196.916 140.046 197.006 140.031 197.092 140.051C197.177 140.07 197.251 140.123 197.298 140.198C197.344 140.272 197.359 140.362 197.34 140.447C197.32 140.533 197.267 140.607 197.193 140.654L192.249 143.745C192.091 143.843 191.908 143.895 191.722 143.895Z" fill="#A9AEB1"/>
<path d="M131.325 153.285H117.094C116.261 153.284 115.462 152.952 114.872 152.362C114.283 151.773 113.951 150.973 113.95 150.139V135.903C113.951 135.069 114.283 134.27 114.872 133.68C115.462 133.09 116.261 132.759 117.094 132.758H131.325C132.158 132.759 132.958 133.09 133.547 133.68C134.136 134.27 134.468 135.069 134.469 135.903V150.139C134.468 150.973 134.136 151.773 133.547 152.362C132.958 152.952 132.158 153.284 131.325 153.285ZM117.094 133.42C116.436 133.421 115.805 133.683 115.34 134.148C114.875 134.614 114.613 135.245 114.612 135.903V150.139C114.613 150.798 114.875 151.429 115.34 151.894C115.805 152.36 116.436 152.622 117.094 152.623H131.325C131.983 152.622 132.614 152.36 133.079 151.894C133.545 151.429 133.806 150.798 133.807 150.139V135.903C133.806 135.245 133.545 134.614 133.079 134.148C132.614 133.683 131.983 133.421 131.325 133.42H117.094Z" fill="#A9AEB1"/>
<path d="M128.842 146.664H119.576C119.313 146.663 119.06 146.559 118.874 146.372C118.688 146.186 118.583 145.934 118.583 145.67V140.373C118.583 140.11 118.688 139.857 118.874 139.671C119.06 139.485 119.313 139.38 119.576 139.38H128.842C129.106 139.38 129.358 139.485 129.544 139.671C129.73 139.857 129.835 140.11 129.835 140.373V145.67C129.835 145.934 129.73 146.186 129.544 146.372C129.358 146.559 129.106 146.663 128.842 146.664ZM119.576 140.042C119.488 140.042 119.404 140.077 119.342 140.139C119.28 140.201 119.245 140.285 119.245 140.373V145.67C119.245 145.758 119.28 145.842 119.342 145.904C119.404 145.966 119.488 146.001 119.576 146.001H128.842C128.93 146.001 129.014 145.966 129.076 145.904C129.138 145.842 129.173 145.758 129.173 145.67V140.373C129.173 140.285 129.138 140.201 129.076 140.139C129.014 140.077 128.93 140.042 128.842 140.042H119.576Z" fill="#A9AEB1"/>
<path d="M127.374 146.664H120.714C120.598 146.664 120.483 146.633 120.383 146.575C120.282 146.517 120.199 146.434 120.14 146.333C120.082 146.232 120.052 146.118 120.052 146.002C120.052 145.886 120.082 145.771 120.141 145.671L122.147 142.194C122.205 142.094 122.288 142.01 122.389 141.952C122.49 141.894 122.604 141.863 122.72 141.863C122.836 141.863 122.95 141.894 123.051 141.952C123.151 142.01 123.235 142.094 123.293 142.194L124.589 144.439L125.339 143.139C125.397 143.038 125.481 142.955 125.582 142.896C125.682 142.838 125.796 142.808 125.913 142.808C126.029 142.808 126.143 142.838 126.244 142.896C126.344 142.955 126.428 143.038 126.486 143.139L127.947 145.671C128.005 145.771 128.036 145.886 128.036 146.002C128.036 146.118 128.005 146.232 127.947 146.333C127.889 146.434 127.805 146.517 127.705 146.575C127.604 146.633 127.49 146.664 127.374 146.664ZM127.374 146.002L125.913 143.47L124.875 145.267C124.846 145.318 124.805 145.359 124.754 145.388C124.704 145.417 124.647 145.433 124.589 145.433C124.531 145.433 124.474 145.417 124.423 145.388C124.373 145.359 124.331 145.318 124.302 145.267L122.72 142.525L120.714 146.002H127.374Z" fill="#A9AEB1"/>
<path d="M127.849 142.028C128.215 142.028 128.511 141.732 128.511 141.366C128.511 141.001 128.215 140.704 127.849 140.704C127.484 140.704 127.188 141.001 127.188 141.366C127.188 141.732 127.484 142.028 127.849 142.028Z" fill="#A9AEB1"/>
<path d="M286.113 218.299L282.056 218.299L280.126 202.643L286.114 202.643L286.113 218.299Z" fill="#FFB8B8"/>
<path d="M287.148 222.233L274.065 222.232V222.067C274.065 221.398 274.197 220.735 274.453 220.117C274.709 219.499 275.084 218.938 275.557 218.465C276.03 217.992 276.591 217.616 277.209 217.36C277.827 217.104 278.489 216.973 279.158 216.973H279.158L287.148 216.973L287.148 222.233Z" fill="#11181D"/>
<path d="M302.661 218.299L298.604 218.299L296.674 202.643L302.662 202.643L302.661 218.299Z" fill="#FFB8B8"/>
<path d="M303.696 222.233L290.613 222.232V222.067C290.613 221.398 290.745 220.735 291.001 220.117C291.257 219.499 291.632 218.938 292.105 218.465C292.578 217.992 293.139 217.616 293.757 217.36C294.375 217.104 295.037 216.973 295.705 216.973H295.706L303.696 216.973L303.696 222.233Z" fill="#11181D"/>
<path d="M301.444 211.511L297.687 210.368C297.406 210.283 297.158 210.117 296.971 209.891C296.785 209.666 296.669 209.39 296.639 209.099L293.135 175.883C293.133 175.843 293.115 175.805 293.085 175.777C293.056 175.75 293.017 175.735 292.977 175.735C292.937 175.731 292.897 175.743 292.865 175.768C292.834 175.793 292.813 175.83 292.808 175.87L286.94 208.051C286.904 208.246 286.83 208.432 286.722 208.598C286.613 208.764 286.472 208.907 286.308 209.018C286.144 209.129 285.959 209.206 285.764 209.245C285.569 209.283 285.369 209.283 285.175 209.242L280.372 208.253C280.02 208.179 279.706 207.981 279.488 207.694C279.271 207.408 279.163 207.052 279.187 206.693L282.756 153.948L306.961 151.335L303.364 210.177C303.341 210.555 303.175 210.91 302.899 211.17C302.623 211.43 302.259 211.575 301.88 211.576C301.732 211.576 301.586 211.554 301.444 211.511Z" fill="#11181D"/>
<path d="M301.421 108.015C305.911 108.015 309.55 104.375 309.55 99.8836C309.55 95.3926 305.911 91.752 301.421 91.752C296.932 91.752 293.293 95.3926 293.293 99.8836C293.293 104.375 296.932 108.015 301.421 108.015Z" fill="#FFB8B8"/>
<path d="M282.72 154.258L287.968 121.199C288.247 119.442 288.897 117.764 289.875 116.277C290.853 114.79 292.136 113.529 293.639 112.576C295.142 111.624 296.83 111.003 298.592 110.755C300.353 110.506 302.148 110.636 303.855 111.135C306.841 111.999 309.397 113.945 311.025 116.594C312.653 119.242 313.236 122.403 312.659 125.458L307.168 154.981L282.72 154.258Z" fill="#0B4778"/>
<path d="M303.666 160.172C304.072 159.904 304.414 159.55 304.668 159.135C304.923 158.72 305.083 158.255 305.138 157.771C305.194 157.288 305.142 156.798 304.987 156.336C304.833 155.875 304.579 155.453 304.244 155.1L309.67 144.588L303.559 145.24L299.343 155.123C298.788 155.725 298.473 156.511 298.459 157.33C298.444 158.149 298.73 158.946 299.263 159.568C299.795 160.191 300.538 160.596 301.349 160.707C302.161 160.819 302.985 160.628 303.666 160.172Z" fill="#FFB8B8"/>
<path d="M304.827 153.247C304.527 153.204 304.247 153.071 304.024 152.866L301.948 150.946C301.724 150.738 301.569 150.466 301.504 150.167C301.44 149.867 301.469 149.555 301.587 149.273L305.736 139.434L305.148 119.993C305.232 119.368 305.439 118.766 305.756 118.221C306.074 117.676 306.495 117.199 306.997 116.817C307.499 116.436 308.071 116.156 308.681 115.996C309.29 115.835 309.926 115.797 310.55 115.882C311.175 115.967 311.776 116.175 312.321 116.493C312.865 116.811 313.342 117.233 313.723 117.735C314.104 118.238 314.383 118.81 314.542 119.42C314.702 120.03 314.74 120.666 314.655 121.29L315.661 133.511C315.967 137.22 314.916 140.914 312.703 143.906L306.232 152.657C306.108 152.826 305.949 152.966 305.767 153.069C305.585 153.172 305.383 153.235 305.175 153.255C305.059 153.266 304.943 153.263 304.827 153.247Z" fill="#0B4778"/>
<path d="M254.613 95.4536C254.701 95.9321 254.894 96.3855 255.176 96.7816C255.459 97.1778 255.825 97.5071 256.249 97.7465C256.672 97.9858 257.143 98.1293 257.628 98.1668C258.113 98.2044 258.601 98.1351 259.056 97.9638L266.617 107.061L268.399 101.177L260.946 93.4403C260.608 92.694 260.007 92.0978 259.259 91.7647C258.511 91.4316 257.666 91.3846 256.885 91.6328C256.105 91.8809 255.442 92.4069 255.023 93.1111C254.604 93.8153 254.458 94.6488 254.613 95.4536Z" fill="#FFB8B8"/>
<path d="M260.535 99.2246C260.691 98.9646 260.923 98.7583 261.199 98.6333L263.775 97.469C264.054 97.3436 264.365 97.307 264.666 97.3642C264.967 97.4213 265.243 97.5695 265.456 97.7886L272.895 105.447L291.02 112.485C291.563 112.806 292.036 113.232 292.414 113.736C292.792 114.241 293.067 114.816 293.223 115.427C293.379 116.038 293.413 116.674 293.323 117.298C293.233 117.923 293.021 118.523 292.699 119.065C292.377 119.608 291.951 120.081 291.446 120.459C290.941 120.836 290.367 121.11 289.756 121.266C289.144 121.421 288.509 121.454 287.885 121.363C287.261 121.273 286.661 121.06 286.119 120.737L274.478 116.899C270.944 115.735 267.954 113.327 266.062 110.122L260.53 100.749C260.424 100.568 260.357 100.368 260.333 100.16C260.309 99.9519 260.329 99.7412 260.392 99.5417C260.427 99.4307 260.475 99.3243 260.535 99.2246Z" fill="#0B4778"/>
<path opacity="0.1" d="M308.015 128.08L307.684 138.675L301.587 149.273L306.678 137.462L308.015 128.08Z" fill="black"/>
<path d="M300.49 101.412C299.98 101.478 299.463 101.357 299.035 101.071C298.607 100.784 298.297 100.352 298.164 99.8551C298.035 99.2827 297.753 98.7561 297.347 98.3319C296.942 97.9076 296.429 97.6017 295.863 97.447C294.372 97.1061 292.55 97.8083 291.457 96.6781C291.223 96.4201 291.054 96.1102 290.963 95.7739C290.873 95.4375 290.863 95.0845 290.936 94.7438C291.137 93.6456 291.922 92.8159 292.777 92.1523C294.575 90.7624 296.752 89.9487 299.021 89.818C300.195 89.784 301.37 89.8425 302.536 89.9929C303.756 90.0699 304.963 90.2906 306.131 90.6502C307.462 91.1528 308.645 91.9829 309.571 93.0639C310.496 94.1448 311.135 95.4418 311.427 96.8349C311.694 98.2322 311.653 99.6711 311.307 101.051C310.96 102.431 310.317 103.718 309.422 104.824C308.351 106.159 306.969 107.211 305.398 107.889C305.023 108.066 304.594 108.088 304.204 107.95C303.225 107.561 303.385 106.348 303.832 105.539C304.309 104.673 305.044 103.835 304.66 102.781C304.467 102.293 304.098 101.895 303.625 101.667C302.652 101.17 301.564 101.288 300.518 101.409L300.49 101.412Z" fill="#11181D"/>
<path d="M251.897 116.003H151.289C149.841 116.002 148.453 115.426 147.429 114.402C146.406 113.377 145.83 111.989 145.828 110.541V89.0204C145.83 87.5721 146.406 86.1836 147.429 85.1594C148.453 84.1353 149.841 83.5593 151.289 83.5576H251.897C253.345 83.5593 254.733 84.1354 255.756 85.1595C256.78 86.1836 257.356 87.5721 257.357 89.0204V110.541C257.356 111.989 256.78 113.377 255.756 114.402C254.733 115.426 253.345 116.002 251.897 116.003Z" fill="white"/>
<path d="M251.896 116.169H151.288C149.797 116.168 148.367 115.574 147.312 114.519C146.257 113.464 145.664 112.033 145.662 110.541V89.0209C145.664 87.5287 146.257 86.0981 147.312 85.0429C148.367 83.9878 149.797 83.3943 151.288 83.3926H251.896C253.388 83.3943 254.818 83.9878 255.873 85.0429C256.927 86.0981 257.521 87.5287 257.522 89.0209V110.541C257.521 112.033 256.927 113.464 255.873 114.519C254.818 115.574 253.388 116.168 251.896 116.169ZM151.288 84.0547C149.972 84.0562 148.71 84.5799 147.78 85.5109C146.849 86.442 146.325 87.7043 146.324 89.0209V110.541C146.325 111.858 146.849 113.12 147.78 114.051C148.71 114.982 149.972 115.506 151.288 115.507H251.896C253.212 115.506 254.474 114.982 255.405 114.051C256.336 113.12 256.859 111.858 256.861 110.541V89.0209C256.859 87.7043 256.336 86.442 255.405 85.5109C254.474 84.5799 253.212 84.0562 251.896 84.0547H151.288Z" fill="#1C304A"/>
<path d="M239.651 110.706H163.533C162.085 110.704 160.697 110.128 159.673 109.104C158.65 108.08 158.074 106.691 158.072 105.243V93.9862C158.074 92.5379 158.65 91.1494 159.673 90.1253C160.697 89.1011 162.085 88.5251 163.533 88.5234H239.651C241.099 88.5251 242.487 89.1011 243.51 90.1253C244.534 91.1494 245.11 92.5379 245.111 93.9862V105.243C245.11 106.691 244.534 108.08 243.51 109.104C242.487 110.128 241.099 110.704 239.651 110.706Z" fill="#B3EFFF"/>
<path d="M179.913 104.639C183.52 104.639 186.444 101.714 186.444 98.1062C186.444 94.4981 183.52 91.5732 179.913 91.5732C176.307 91.5732 173.383 94.4981 173.383 98.1062C173.383 101.714 176.307 104.639 179.913 104.639Z" fill="white"/>
<path d="M234.921 110.047L225.704 102.313L216.645 94.7131C216.406 94.5125 216.104 94.4028 215.792 94.4034C215.48 94.4041 215.178 94.5149 214.94 94.7164L205.91 102.352L203.705 104.217L200.379 101.427L190.273 92.9473C190.034 92.7468 189.732 92.6371 189.42 92.6377C189.108 92.6383 188.806 92.7491 188.568 92.9506L178.495 101.469L168.263 110.121C168.211 110.165 168.174 110.224 168.157 110.289C168.139 110.355 168.142 110.424 168.166 110.488C168.189 110.552 168.232 110.607 168.287 110.646C168.343 110.684 168.409 110.705 168.477 110.705L189.455 110.664L196.095 110.652L196.03 110.707L215.823 110.668L234.709 110.632C234.777 110.632 234.843 110.611 234.899 110.572C234.955 110.533 234.997 110.478 235.02 110.414C235.043 110.35 235.046 110.281 235.028 110.215C235.011 110.15 234.973 110.091 234.921 110.047Z" fill="#1C304A"/>
<path d="M231.584 57.3824C231.32 56.9527 230.971 56.5814 230.558 56.2911C230.146 56.0008 229.678 55.7976 229.185 55.6939C229.004 55.6559 228.82 55.6326 228.636 55.6244L203.421 33.0713C202.925 32.562 202.265 32.2462 201.557 32.1807C201.418 32.1646 201.277 32.1602 201.137 32.1674C200.555 32.1939 199.994 32.3893 199.521 32.7299C199.049 33.0705 198.686 33.5414 198.476 34.0851C198.267 34.6288 198.221 35.2217 198.343 35.7913C198.465 36.3609 198.751 36.8826 199.165 37.2925L208.818 45.7119L224.671 59.5344C224.684 59.7948 224.723 60.0532 224.787 60.3059C224.976 61.0378 225.384 61.6948 225.955 62.1897C226.527 62.6846 227.235 62.9941 227.987 63.077C228.672 63.1571 229.366 63.0423 229.989 62.7459C230.483 62.5148 230.921 62.1793 231.273 61.7626C231.309 61.7196 231.343 61.6798 231.376 61.6335C231.839 61.0302 232.106 60.3001 232.144 59.5405C232.181 58.781 231.986 58.0281 231.584 57.3824Z" fill="#FFB8B8"/>
<path d="M188.455 79.1181L188.22 69.5632L188.021 61.6338L187.886 56.0849L187.618 45.2685C187.565 44.6894 187.344 44.1383 186.983 43.6824C186.622 43.2265 186.137 42.8856 185.585 42.7013C185.034 42.517 184.441 42.4972 183.879 42.6444C183.316 42.7917 182.809 43.0995 182.418 43.5304C182.327 43.6288 182.243 43.7352 182.17 43.8482C181.763 44.432 181.579 45.1432 181.654 45.8512L182.243 61.6338L182.538 69.5632L182.915 79.6776C182.806 79.8263 182.708 79.9822 182.62 80.1445C182.385 80.5909 182.243 81.0806 182.202 81.5837C182.162 82.0868 182.224 82.5929 182.385 83.0712C182.554 83.5728 182.826 84.0331 183.185 84.4217C183.544 84.8103 183.981 85.1185 184.467 85.3259C184.954 85.5333 185.479 85.6352 186.007 85.6249C186.536 85.6146 187.057 85.4924 187.535 85.2663C188.09 85.0036 188.572 84.6081 188.939 84.1148C189.305 83.6215 189.544 83.0456 189.635 82.4378C189.726 81.8301 189.666 81.2093 189.46 80.6303C189.254 80.0513 188.909 79.532 188.455 79.1181Z" fill="#FFB8B8"/>
<path d="M211.158 52.0517L208.818 45.7115L205.032 35.4414C204.759 34.6942 204.321 34.0181 203.751 33.4633C203.181 32.9084 202.493 32.4892 201.739 32.2366C201.68 32.2167 201.617 32.1968 201.557 32.1803C200.827 31.9584 200.057 31.8974 199.3 32.0015C198.544 32.1055 197.819 32.372 197.176 32.7828L184.424 40.8744C183.256 41.6138 182.422 42.7783 182.096 44.122C181.771 45.4657 181.98 46.8833 182.68 48.0754C184.275 50.8339 186.012 53.5071 187.886 56.0842C189.372 58.1071 192.139 58.3223 192.618 61.6331H202.021L211.539 53.0846L211.158 52.0517Z" fill="#A9AEB1"/>
<path d="M65.153 119.539C69.3882 119.539 72.8216 116.104 72.8216 111.867C72.8216 107.63 69.3882 104.195 65.153 104.195C60.9177 104.195 57.4844 107.63 57.4844 111.867C57.4844 116.104 60.9177 119.539 65.153 119.539Z" fill="#A0616A"/>
<path d="M83.9797 106.586C84.0552 106.646 84.1285 106.71 84.1994 106.777C84.5517 107.109 84.8299 107.512 85.0157 107.959C85.2016 108.406 85.2909 108.887 85.2779 109.371C85.2649 109.855 85.1498 110.331 84.9401 110.767C84.7305 111.204 84.431 111.591 84.0614 111.903C83.9752 111.976 83.8853 112.043 83.792 112.106L84.311 129.635C84.3258 130.209 84.1553 130.772 83.8247 131.242C83.4941 131.711 83.0211 132.061 82.4759 132.24L82.4443 132.247L68.2173 133.762C67.8305 133.804 67.4394 133.768 67.0666 133.657C66.6937 133.546 66.3465 133.362 66.0451 133.116C65.7436 132.87 65.4938 132.567 65.3101 132.224C65.1264 131.881 65.0124 131.505 64.9748 131.118C64.9371 130.731 64.9765 130.34 65.0908 129.968C65.205 129.596 65.3917 129.25 65.6402 128.951C65.8887 128.651 66.194 128.404 66.5385 128.223C66.883 128.043 67.2599 127.932 67.6474 127.898L77.789 127.004L79.5429 111.824C79.4282 111.723 79.3207 111.613 79.2214 111.496C78.6715 110.845 78.383 110.013 78.4121 109.161C78.4412 108.309 78.7857 107.499 79.3788 106.886C79.9718 106.274 80.771 105.905 81.6213 105.849C82.4715 105.794 83.312 106.056 83.9797 106.586Z" fill="#A0616A"/>
<path d="M77.7829 218.638H81.611L83.4318 203.867H77.7822L77.7829 218.638Z" fill="#A0616A"/>
<path d="M76.8066 217.387L84.345 217.387C84.9758 217.387 85.6009 217.511 86.1837 217.753C86.7666 217.994 87.2962 218.348 87.7423 218.794C88.1884 219.241 88.5422 219.77 88.7837 220.353C89.0251 220.937 89.1493 221.561 89.1493 222.193V222.349L76.8069 222.349L76.8066 217.387Z" fill="#11181D"/>
<path d="M39.7363 213.343L43.0253 215.302L52.1439 203.543L47.2895 200.651L39.7363 213.343Z" fill="#A0616A"/>
<path d="M39.5376 211.769L46.0148 215.627C46.5568 215.949 47.0303 216.376 47.4076 216.882C47.7848 217.388 48.0588 217.963 48.2139 218.575C48.369 219.187 48.4021 219.823 48.3113 220.447C48.2205 221.072 48.0077 221.673 47.6849 222.215L47.605 222.349L37 216.032L39.5376 211.769Z" fill="#11181D"/>
<path d="M82.5143 213.42H78.2279C77.8809 213.421 77.5459 213.293 77.2879 213.06C77.0298 212.828 76.867 212.509 76.8309 212.163L72.5096 171.527C72.4987 171.425 72.4545 171.329 72.3837 171.255C72.3129 171.18 72.2196 171.131 72.1181 171.114C72.0165 171.098 71.9125 171.116 71.8219 171.164C71.7314 171.213 71.6594 171.29 71.617 171.384L63.8214 188.653L50.0197 211.167C49.8411 211.456 49.5645 211.67 49.2406 211.772C48.9167 211.873 48.5672 211.854 48.2561 211.719L42.7424 209.292C42.5601 209.211 42.397 209.093 42.2638 208.945C42.1306 208.797 42.0304 208.622 41.9698 208.432C41.9093 208.242 41.8898 208.042 41.9126 207.844C41.9354 207.646 42 207.455 42.1021 207.284L54.7897 186.031L58.6809 168.125C57.457 160.359 62.7035 148.814 62.7567 148.698L62.7827 148.642L77.2344 142.991L77.3069 143.08C83.0062 161.791 86.4791 181.926 83.9148 212.132C83.8832 212.483 83.7222 212.809 83.4632 213.047C83.2043 213.285 82.866 213.418 82.5143 213.42Z" fill="#11181D"/>
<path d="M62.2001 150.534L62.1328 150.392C62.1007 150.324 58.8872 143.544 56.4101 136.298C55.934 134.896 55.754 133.411 55.8816 131.937C56.0091 130.462 56.4413 129.03 57.1509 127.731C57.8697 126.419 58.8531 125.271 60.0388 124.359C61.2245 123.447 62.5866 122.791 64.0388 122.433C66.56 121.828 69.2143 122.15 71.5183 123.339C73.8222 124.528 75.6224 126.506 76.5909 128.912C78.5558 133.827 77.9296 139.074 77.3403 143.2L77.3285 143.283L77.2534 143.319L62.2001 150.534Z" fill="#1C304A"/>
<path d="M74.4513 107.533H62.2744V102.223C64.9471 101.161 67.5624 100.258 69.1434 102.223C70.5511 102.223 71.9012 102.783 72.8966 103.778C73.892 104.774 74.4512 106.125 74.4513 107.533Z" fill="#11181D"/>
<path d="M61.6003 101.286C54.3207 101.286 52.2832 110.414 52.2832 115.564C52.2832 118.436 53.5815 119.463 55.6216 119.811L56.3421 115.967L58.0297 119.976C58.6027 119.979 59.2048 119.968 59.8289 119.956L60.4011 118.778L61.677 119.935C66.7871 119.943 70.9172 120.688 70.9172 115.564C70.9172 110.414 69.1303 101.286 61.6003 101.286Z" fill="#11181D"/>
<path d="M96.741 113.784H82.5102C81.6767 113.783 80.8775 113.451 80.2881 112.861C79.6987 112.272 79.3672 111.472 79.3662 110.639V96.4021C79.3672 95.5682 79.6987 94.7687 80.2881 94.1791C80.8775 93.5895 81.6767 93.2578 82.5102 93.2568H96.741C97.5745 93.2578 98.3737 93.5895 98.9631 94.1791C99.5525 94.7687 99.884 95.5682 99.885 96.4021V110.639C99.884 111.472 99.5525 112.272 98.9631 112.861C98.3737 113.451 97.5745 113.783 96.741 113.784Z" fill="white"/>
<path d="M96.741 113.784H82.5102C81.6767 113.783 80.8775 113.451 80.2881 112.861C79.6987 112.272 79.3672 111.472 79.3662 110.639V96.4021C79.3672 95.5682 79.6987 94.7687 80.2881 94.1791C80.8775 93.5895 81.6767 93.2578 82.5102 93.2568H96.741C97.5745 93.2578 98.3737 93.5895 98.9631 94.1791C99.5525 94.7687 99.884 95.5682 99.885 96.4021V110.639C99.884 111.472 99.5525 112.272 98.9631 112.861C98.3737 113.451 97.5745 113.783 96.741 113.784ZM82.5102 93.919C81.8521 93.9197 81.2212 94.1816 80.7559 94.6471C80.2906 95.1126 80.0288 95.7438 80.0281 96.4021V110.639C80.0288 111.297 80.2906 111.928 80.7559 112.394C81.2212 112.859 81.8521 113.121 82.5102 113.122H96.741C97.399 113.121 98.0299 112.859 98.4953 112.394C98.9606 111.928 99.2223 111.297 99.2231 110.639V96.4021C99.2223 95.7438 98.9606 95.1126 98.4953 94.6471C98.0299 94.1816 97.399 93.9197 96.741 93.919H82.5102Z" fill="#1C304A"/>
<path d="M94.2584 107.99H84.9919C84.7286 107.99 84.4763 107.885 84.2901 107.699C84.104 107.512 83.9993 107.26 83.999 106.997V100.044C83.9993 99.7807 84.104 99.5282 84.2901 99.342C84.4763 99.1558 84.7286 99.0511 84.9919 99.0508H87.6005C87.7702 99.0502 87.9371 99.0933 88.0853 99.1761C88.2334 99.2589 88.3577 99.3785 88.4461 99.5233L89.1736 100.706H94.2584C94.5216 100.706 94.774 100.811 94.9601 100.997C95.1463 101.184 95.251 101.436 95.2512 101.699V106.997C95.251 107.26 95.1463 107.512 94.9601 107.699C94.774 107.885 94.5216 107.99 94.2584 107.99Z" fill="#0B4778"/>
<path d="M93.9567 111.502C94.003 111.587 94.0457 111.674 94.085 111.764C94.2809 112.206 94.3811 112.685 94.379 113.17C94.3769 113.654 94.2725 114.132 94.0728 114.573C93.873 115.014 93.5824 115.408 93.2199 115.729C92.8574 116.05 92.4312 116.29 91.9693 116.435C91.8619 116.468 91.7527 116.495 91.6423 116.517L85.3214 132.874C85.1125 133.409 84.7368 133.862 84.2501 134.166C83.7634 134.47 83.1917 134.609 82.6198 134.562L82.5881 134.556L68.8879 130.43C68.5154 130.318 68.1689 130.133 67.8682 129.886C67.5676 129.639 67.3188 129.335 67.1363 128.992C66.9538 128.648 66.8411 128.272 66.8048 127.884C66.7685 127.497 66.8094 127.106 66.9249 126.734C67.0404 126.363 67.2284 126.018 67.478 125.719C67.7276 125.421 68.0338 125.175 68.379 124.995C68.7242 124.816 69.1015 124.706 69.4891 124.674C69.8767 124.641 70.267 124.685 70.6373 124.804L80.3309 127.918L87.8356 114.608C87.7693 114.47 87.7127 114.327 87.6664 114.181C87.4122 113.367 87.4692 112.488 87.8265 111.714C88.1837 110.941 88.8157 110.327 89.5996 109.993C90.3836 109.659 91.2636 109.629 92.0687 109.908C92.8739 110.187 93.5467 110.755 93.9567 111.502Z" fill="#A0616A"/>
<path d="M185.896 28.2506C186.642 29.8506 185.95 31.7524 184.35 32.4984C182.75 33.2445 180.848 32.5522 180.102 30.9523C179.356 29.3524 182.323 28.153 182.323 28.153C182.323 28.153 185.15 26.6507 185.896 28.2506Z" fill="white" fill-opacity="0.3"/>
<path d="M193.139 24.8737C193.885 26.4736 193.193 28.3754 191.593 29.1215C189.993 29.8675 188.091 29.1753 187.345 27.5754C186.599 25.9754 189.567 24.776 189.567 24.776C189.567 24.776 192.393 23.2738 193.139 24.8737Z" fill="white" fill-opacity="0.3"/>
<path fill-rule="evenodd" clip-rule="evenodd" d="M189.566 24.776C189.566 24.776 186.598 25.9754 187.344 27.5753C187.344 27.5754 187.344 27.5755 187.344 27.5755L185.896 28.2509C185.896 28.2508 185.896 28.2508 185.896 28.2507C185.15 26.6508 182.324 28.1531 182.324 28.1531C182.324 28.1531 179.356 29.3525 180.102 30.9524C180.848 32.5523 182.75 33.2445 184.35 32.4985C185.7 31.8691 186.403 30.4171 186.142 29.0177L187.773 28.2572C188.677 29.3565 190.242 29.7508 191.592 29.1214C193.192 28.3753 193.884 26.4735 193.138 24.8736C192.392 23.2737 189.566 24.776 189.566 24.776ZM189.866 25.5164L189.866 25.5166L189.863 25.5176L189.845 25.5251C189.829 25.5322 189.802 25.5436 189.768 25.5591C189.699 25.5902 189.599 25.6373 189.48 25.6986C189.238 25.8232 188.936 25.9982 188.663 26.2086C188.381 26.4261 188.184 26.6404 188.087 26.828C188.008 26.9822 188.002 27.0959 188.068 27.2376C188.628 28.4375 190.054 28.9567 191.254 28.3971C192.454 27.8376 192.973 26.4113 192.414 25.2113C192.348 25.0697 192.257 25.001 192.088 24.9626C191.882 24.9158 191.591 24.929 191.243 25.0053C190.907 25.0793 190.578 25.1983 190.327 25.3033C190.204 25.355 190.104 25.4015 190.035 25.4344C190.001 25.4508 189.976 25.4636 189.959 25.4719L189.942 25.4806L189.94 25.4818L189.94 25.4819L189.94 25.4821L189.94 25.4821L189.94 25.4821L189.939 25.4822L189.904 25.5012L189.866 25.5164L189.866 25.5164L189.866 25.5164ZM182.624 28.8936L182.624 28.8937L182.621 28.8948L182.603 28.9022C182.587 28.9093 182.56 28.9207 182.526 28.9362C182.457 28.9673 182.357 29.0144 182.238 29.0757C181.996 29.2003 181.694 29.3753 181.421 29.5857C181.139 29.8032 180.942 30.0175 180.845 30.2051C180.766 30.3593 180.76 30.4731 180.826 30.6147C181.386 31.8146 182.812 32.3338 184.012 31.7743C185.212 31.2147 185.731 29.7884 185.172 28.5884C185.106 28.4468 185.015 28.3781 184.846 28.3397C184.64 28.2929 184.349 28.3061 184.001 28.3824C183.664 28.4564 183.336 28.5755 183.085 28.6804C182.962 28.7321 182.862 28.7787 182.793 28.8115C182.759 28.8279 182.734 28.8407 182.717 28.849L182.7 28.8577L182.698 28.8589L182.698 28.859L182.698 28.8592L182.698 28.8592L182.698 28.8592L182.697 28.8593L182.662 28.8783L182.624 28.8935L182.624 28.8935L182.624 28.8936Z" fill="#11181D"/>
</svg>
