<svg width="1120" height="375" viewBox="0 0 1120 375" fill="none" xmlns="http://www.w3.org/2000/svg">
<g clip-path="url(#clip0_346_1287)">
<rect width="1120" height="374.542" rx="10" fill="white"/>
<path d="M330.271 262.608C331.79 252.74 331.79 242.698 330.271 232.83C330.174 232.243 329.873 231.709 329.42 231.323C328.966 230.937 328.391 230.725 327.796 230.724H304.504C304.126 230.722 303.753 230.807 303.414 230.972C303.074 231.137 302.776 231.377 302.544 231.674C302.306 231.975 302.139 232.326 302.058 232.701C301.976 233.076 301.981 233.465 302.072 233.838C304.251 242.964 304.251 252.474 302.072 261.6C301.981 261.973 301.976 262.362 302.058 262.737C302.139 263.112 302.306 263.463 302.544 263.764C302.776 264.061 303.074 264.301 303.414 264.466C303.753 264.63 304.126 264.715 304.504 264.714H327.796C328.391 264.713 328.966 264.501 329.42 264.115C329.873 263.729 330.174 263.195 330.271 262.608Z" fill="#DFE1E2"/>
<path d="M311.246 245.861H323.469C323.934 245.86 324.379 245.675 324.708 245.347C325.036 245.018 325.221 244.573 325.222 244.108V243.423C325.221 242.959 325.036 242.513 324.708 242.185C324.379 241.856 323.934 241.671 323.469 241.671H311.246C310.782 241.671 310.336 241.856 310.008 242.185C309.679 242.513 309.494 242.959 309.494 243.423V244.108C309.494 244.573 309.679 245.018 310.008 245.347C310.336 245.675 310.782 245.86 311.246 245.861Z" fill="white"/>
<path d="M323.43 235.368C322.736 233.963 322.596 232.348 323.038 230.845C323.48 229.341 324.472 228.059 325.816 227.253C326.088 227.103 326.372 226.975 326.665 226.873L327.145 205.662L335.617 211.901L333.863 231.087C334.177 232.374 334.069 233.728 333.555 234.95C333.042 236.171 332.15 237.196 331.011 237.873C330.355 238.238 329.631 238.462 328.884 238.533C328.137 238.604 327.384 238.519 326.671 238.283C325.959 238.048 325.303 237.667 324.745 237.166C324.187 236.664 323.739 236.052 323.43 235.368Z" fill="#A0616A"/>
<path d="M327 225.95L333.072 226.316C333.72 226.332 334.351 226.104 334.838 225.677C335.325 225.249 335.634 224.654 335.702 224.01L340.745 186.07L348.894 162.928C349.582 161 349.506 158.881 348.683 157.007C348.301 156.104 347.738 155.289 347.029 154.611C346.32 153.934 345.48 153.409 344.561 153.068C340.849 151.719 336.786 153.854 335.503 157.828L327.216 184.361L324.66 223.11C324.609 223.813 324.828 224.508 325.273 225.054C325.552 225.397 325.918 225.659 326.333 225.812C326.547 225.89 326.772 225.936 327 225.95Z" fill="#1C304A"/>
<path d="M362.404 342.562L369.566 342.561L372.973 314.938L362.403 314.938L362.404 342.562Z" fill="#A0616A"/>
<path d="M360.579 349.504L383.671 349.503V349.211C383.671 348.03 383.438 346.862 382.987 345.771C382.535 344.681 381.873 343.69 381.038 342.855C380.204 342.021 379.213 341.358 378.122 340.907C377.032 340.455 375.863 340.223 374.683 340.223L360.578 340.223L360.579 349.504Z" fill="#11181D"/>
<path d="M341.375 342.562L348.537 342.561L351.943 314.938L341.374 314.938L341.375 342.562Z" fill="#A0616A"/>
<path d="M339.548 349.504L362.641 349.503V349.211C362.641 348.03 362.408 346.862 361.956 345.771C361.505 344.681 360.843 343.69 360.008 342.855C359.173 342.021 358.183 341.358 357.092 340.907C356.002 340.455 354.833 340.223 353.652 340.223L339.548 340.223L339.548 349.504Z" fill="#11181D"/>
<path d="M336.569 230.924L338.279 332.39C338.284 332.711 338.356 333.028 338.489 333.32C338.623 333.612 338.815 333.874 339.054 334.089C339.293 334.304 339.574 334.467 339.879 334.568C340.184 334.669 340.507 334.706 340.827 334.677L349.207 333.915C349.757 333.865 350.271 333.623 350.659 333.23C351.047 332.837 351.283 332.319 351.325 331.769L356.232 268.478C356.243 268.329 356.311 268.19 356.422 268.09C356.532 267.99 356.677 267.936 356.826 267.939C356.975 267.942 357.117 268.001 357.223 268.106C357.33 268.21 357.392 268.352 357.398 268.501L359.85 333.241C359.873 333.845 360.129 334.417 360.564 334.836C361 335.255 361.581 335.489 362.185 335.489H371.173C371.768 335.489 372.341 335.262 372.774 334.855C373.207 334.447 373.469 333.889 373.505 333.295L379.797 230.34L342.41 220.993L336.569 230.924Z" fill="#11181D"/>
<path d="M363.686 135.648C355.762 135.648 349.338 129.225 349.338 121.301C349.338 113.377 355.762 106.953 363.686 106.953C371.61 106.953 378.033 113.377 378.033 121.301C378.033 129.225 371.61 135.648 363.686 135.648Z" fill="#A0616A"/>
<path d="M381.077 233.942C381.325 233.702 381.524 233.415 381.661 233.098C381.797 232.78 381.87 232.439 381.874 232.093L382.841 162.904C382.9 159.384 381.841 155.937 379.817 153.056C377.793 150.176 374.909 148.012 371.578 146.873C370.233 140.775 363.079 140.011 358.909 140.102C357.868 140.125 356.848 140.398 355.935 140.899C355.022 141.399 354.243 142.113 353.664 142.978L350.675 147.463L344.085 151.325C341.036 153.105 338.63 155.808 337.216 159.043C335.802 162.279 335.452 165.88 336.216 169.327L337.231 173.942C340.803 190.275 340.463 207.221 336.239 223.397L334.198 231.181C334.091 231.586 334.083 232.011 334.175 232.42C334.266 232.829 334.454 233.21 334.722 233.532C334.991 233.854 335.332 234.107 335.718 234.269C336.105 234.432 336.524 234.5 336.942 234.468L339.313 234.286C339.928 234.239 340.508 233.977 340.949 233.546C341.391 233.114 341.666 232.541 341.727 231.927L342.119 228.003C342.127 227.931 342.16 227.864 342.214 227.816C342.268 227.767 342.338 227.74 342.41 227.74C342.482 227.74 342.552 227.767 342.606 227.816C342.66 227.864 342.693 227.931 342.701 228.003L343.08 231.802C343.145 232.444 343.442 233.039 343.917 233.476C344.392 233.912 345.011 234.159 345.656 234.169L379.205 234.685C379.219 234.685 379.233 234.686 379.247 234.686C379.93 234.687 380.587 234.42 381.077 233.942Z" fill="#1C304A"/>
<path d="M362.563 129.571C362.504 131.6 361.096 132.773 359.367 133.835C357.639 134.898 355.618 135.358 353.638 135.803C353.372 135.944 353.074 136.014 352.773 136.007C352.472 135.999 352.178 135.915 351.92 135.761C351.661 135.606 351.447 135.388 351.297 135.127C351.147 134.866 351.067 134.571 351.065 134.269L349.249 127.363C348.607 125.157 348.139 122.903 347.851 120.623C347.414 116.237 348.453 111.518 351.515 108.346C354.577 105.175 359.886 104.048 363.555 106.492C367.91 100.931 387.812 113.217 382.902 117.084C382.029 117.772 380.694 116.902 379.585 116.817C378.477 116.733 377.234 116.928 376.53 117.788C375.61 118.912 376.011 120.587 375.632 121.989C375.475 122.482 375.222 122.94 374.887 123.335C374.553 123.73 374.144 124.055 373.683 124.291C373.222 124.527 372.719 124.67 372.203 124.711C371.687 124.752 371.168 124.69 370.676 124.529C369.759 124.077 368.897 123.523 368.106 122.877C367.255 122.31 366.181 121.892 365.224 122.249C363.962 122.72 363.514 124.265 363.4 125.607C363.207 126.945 362.928 128.269 362.563 129.571Z" fill="#11181D"/>
<path opacity="0.2" d="M365.914 168.024L368.251 196.648L380.519 226.441L362.409 197.233L365.914 168.024Z" fill="black"/>
<path d="M383.387 237.535C382.717 236.998 382.174 236.32 381.794 235.549C381.415 234.779 381.209 233.934 381.192 233.076C381.174 232.217 381.345 231.365 381.692 230.58C382.039 229.794 382.555 229.094 383.201 228.53L375.386 209.173L386.019 211.32L391.811 229.372C392.687 230.522 393.112 231.953 393.004 233.395C392.896 234.837 392.263 236.189 391.224 237.195C390.186 238.202 388.815 238.792 387.37 238.855C385.926 238.917 384.509 238.448 383.387 237.535Z" fill="#A0616A"/>
<path d="M383.616 228.999L389.635 226.83C390.255 226.603 390.767 226.152 391.072 225.566C391.376 224.98 391.45 224.301 391.279 223.664L381.35 187.317L379.836 154.468C379.79 153.477 379.548 152.504 379.123 151.607C378.698 150.71 378.099 149.907 377.361 149.243C376.623 148.58 375.76 148.07 374.823 147.742C373.886 147.415 372.893 147.278 371.902 147.338C370.912 147.398 369.943 147.654 369.052 148.092C368.161 148.53 367.366 149.141 366.714 149.889C366.061 150.636 365.564 151.506 365.25 152.448C364.937 153.39 364.814 154.385 364.888 155.375L367.592 191.343L380.244 227.397C380.436 227.942 380.801 228.408 381.284 228.725C381.767 229.041 382.341 229.191 382.917 229.149C383.156 229.131 383.391 229.08 383.616 228.999Z" fill="#1C304A"/>
<path d="M992.558 266.015C992.558 264.019 991.888 262.399 991.065 262.396H766.817C765.991 262.399 765.324 264.019 765.321 266.015V348.164C765.321 348.349 765.252 348.528 765.127 348.665C765.003 348.802 764.832 348.888 764.648 348.906C764.046 348.964 763.444 349.018 762.842 349.067C762.827 349.067 762.812 349.071 762.797 349.071C762.47 349.101 762.142 349.123 761.815 349.149H761.811C761.642 348.838 761.476 348.523 761.311 348.206C761.256 348.1 761.227 347.981 761.227 347.86V261.32C761.227 260.769 761.249 260.214 761.286 259.667C761.339 258.915 761.432 258.167 761.565 257.425C762.194 253.967 763.616 251.625 765.231 251.617H992.647C992.883 251.619 993.116 251.668 993.332 251.762C993.649 251.903 993.936 252.104 994.177 252.354C994.503 252.694 994.783 253.076 995.007 253.49C995.934 255.337 996.467 257.357 996.574 259.421C996.574 259.443 996.578 259.466 996.578 259.488C996.63 260.091 996.656 260.705 996.652 261.32L996.704 269.298L996.738 274.057L996.838 288.987L996.875 294.288L997.039 348.721C997.039 348.919 996.961 349.108 996.821 349.248C996.681 349.387 996.492 349.466 996.295 349.466H993.302C993.105 349.466 992.915 349.387 992.776 349.248C992.636 349.108 992.558 348.919 992.558 348.721V266.015Z" fill="#DFE1E2"/>
<path d="M931.622 214.283H907.459C907.117 214.284 906.79 214.42 906.548 214.662C906.307 214.904 906.172 215.232 906.172 215.574V253.757H932.913V215.574C932.913 215.405 932.88 215.237 932.815 215.08C932.75 214.923 932.655 214.781 932.535 214.661C932.415 214.541 932.273 214.446 932.116 214.381C931.96 214.316 931.792 214.283 931.622 214.283ZM919.622 235.978C918.866 235.974 918.143 235.673 917.608 235.138C917.074 234.604 916.772 233.88 916.769 233.124V228.72C916.769 227.963 917.069 227.237 917.604 226.702C918.14 226.166 918.865 225.866 919.622 225.866C920.379 225.866 921.104 226.166 921.64 226.702C922.175 227.237 922.475 227.963 922.475 228.72V233.124C922.472 233.88 922.17 234.604 921.636 235.138C921.101 235.673 920.378 235.974 919.622 235.978Z" fill="#A9AEB1"/>
<path d="M906.089 252.535V256.219C906.089 256.41 906.165 256.593 906.3 256.728C906.435 256.863 906.618 256.939 906.809 256.939H932.276C932.466 256.938 932.649 256.862 932.784 256.727C932.919 256.592 932.995 256.41 932.996 256.219V252.535H906.089Z" fill="#3F3D56"/>
<path d="M971.634 154.695H868.346C867.458 154.697 866.608 155.05 865.98 155.678C865.353 156.305 864.999 157.156 864.998 158.044V227.765C864.999 228.652 865.352 229.504 865.98 230.131C866.607 230.759 867.458 231.112 868.346 231.113H971.634C972.521 231.112 973.372 230.759 974 230.131C974.627 229.504 974.98 228.652 974.981 227.765V158.044C974.98 157.156 974.627 156.305 973.999 155.678C973.372 155.05 972.521 154.697 971.634 154.695Z" fill="#DFE1E2"/>
<path d="M970.772 157.113H869.209C868.734 157.114 868.279 157.304 867.943 157.64C867.608 157.977 867.419 158.433 867.419 158.908V226.9C867.42 227.375 867.609 227.83 867.944 228.166C868.28 228.501 868.735 228.69 869.209 228.691H970.772C971.247 228.69 971.702 228.501 972.037 228.166C972.373 227.83 972.562 227.375 972.562 226.9V158.908C972.562 158.433 972.374 157.977 972.038 157.64C971.703 157.304 971.247 157.114 970.772 157.113Z" fill="white"/>
<path d="M950.989 258.221H890.565C890.399 258.221 890.236 258.184 890.087 258.113C889.937 258.042 889.806 257.938 889.702 257.81C889.597 257.681 889.523 257.531 889.484 257.37C889.445 257.21 889.443 257.042 889.477 256.88L890.415 252.426C890.468 252.177 890.605 251.953 890.803 251.793C891.001 251.632 891.247 251.544 891.502 251.543H950.052C950.306 251.544 950.553 251.632 950.751 251.793C950.949 251.953 951.086 252.177 951.139 252.426L952.077 256.88C952.111 257.042 952.108 257.21 952.07 257.37C952.031 257.531 951.956 257.681 951.852 257.81C951.748 257.938 951.616 258.042 951.467 258.113C951.318 258.184 951.154 258.221 950.989 258.221Z" fill="#A9AEB1"/>
<path d="M893.466 252.345H892.258C892.078 252.345 891.932 252.491 891.932 252.671V253.135C891.932 253.315 892.078 253.462 892.258 253.462H893.466C893.646 253.462 893.793 253.315 893.793 253.135V252.671C893.793 252.491 893.646 252.345 893.466 252.345Z" fill="#DFE1E2"/>
<path d="M897.188 252.345H895.98C895.799 252.345 895.653 252.491 895.653 252.671V253.135C895.653 253.315 895.799 253.462 895.98 253.462H897.188C897.368 253.462 897.514 253.315 897.514 253.135V252.671C897.514 252.491 897.368 252.345 897.188 252.345Z" fill="#DFE1E2"/>
<path d="M900.91 252.345H899.701C899.521 252.345 899.375 252.491 899.375 252.671V253.135C899.375 253.315 899.521 253.462 899.701 253.462H900.91C901.09 253.462 901.236 253.315 901.236 253.135V252.671C901.236 252.491 901.09 252.345 900.91 252.345Z" fill="#DFE1E2"/>
<path d="M904.632 252.345H903.424C903.244 252.345 903.098 252.491 903.098 252.671V253.135C903.098 253.315 903.244 253.462 903.424 253.462H904.632C904.813 253.462 904.959 253.315 904.959 253.135V252.671C904.959 252.491 904.813 252.345 904.632 252.345Z" fill="#DFE1E2"/>
<path d="M908.354 252.345H907.146C906.965 252.345 906.819 252.491 906.819 252.671V253.135C906.819 253.315 906.965 253.462 907.146 253.462H908.354C908.534 253.462 908.68 253.315 908.68 253.135V252.671C908.68 252.491 908.534 252.345 908.354 252.345Z" fill="#DFE1E2"/>
<path d="M912.076 252.345H910.867C910.687 252.345 910.541 252.491 910.541 252.671V253.135C910.541 253.315 910.687 253.462 910.867 253.462H912.076C912.256 253.462 912.402 253.315 912.402 253.135V252.671C912.402 252.491 912.256 252.345 912.076 252.345Z" fill="#DFE1E2"/>
<path d="M915.798 252.345H914.59C914.41 252.345 914.264 252.491 914.264 252.671V253.135C914.264 253.315 914.41 253.462 914.59 253.462H915.798C915.979 253.462 916.125 253.315 916.125 253.135V252.671C916.125 252.491 915.979 252.345 915.798 252.345Z" fill="#DFE1E2"/>
<path d="M919.52 252.345H918.312C918.131 252.345 917.985 252.491 917.985 252.671V253.135C917.985 253.315 918.131 253.462 918.312 253.462H919.52C919.7 253.462 919.846 253.315 919.846 253.135V252.671C919.846 252.491 919.7 252.345 919.52 252.345Z" fill="#DFE1E2"/>
<path d="M923.243 252.345H922.034C921.854 252.345 921.708 252.491 921.708 252.671V253.135C921.708 253.315 921.854 253.462 922.034 253.462H923.243C923.423 253.462 923.569 253.315 923.569 253.135V252.671C923.569 252.491 923.423 252.345 923.243 252.345Z" fill="#DFE1E2"/>
<path d="M926.964 252.345H925.756C925.576 252.345 925.43 252.491 925.43 252.671V253.135C925.43 253.315 925.576 253.462 925.756 253.462H926.964C927.145 253.462 927.291 253.315 927.291 253.135V252.671C927.291 252.491 927.145 252.345 926.964 252.345Z" fill="#DFE1E2"/>
<path d="M930.686 252.345H929.478C929.298 252.345 929.151 252.491 929.151 252.671V253.135C929.151 253.315 929.298 253.462 929.478 253.462H930.686C930.866 253.462 931.012 253.315 931.012 253.135V252.671C931.012 252.491 930.866 252.345 930.686 252.345Z" fill="#DFE1E2"/>
<path d="M934.409 252.345H933.201C933.02 252.345 932.874 252.491 932.874 252.671V253.135C932.874 253.315 933.02 253.462 933.201 253.462H934.409C934.589 253.462 934.735 253.315 934.735 253.135V252.671C934.735 252.491 934.589 252.345 934.409 252.345Z" fill="#DFE1E2"/>
<path d="M938.13 252.345H936.922C936.742 252.345 936.596 252.491 936.596 252.671V253.135C936.596 253.315 936.742 253.462 936.922 253.462H938.13C938.311 253.462 938.457 253.315 938.457 253.135V252.671C938.457 252.491 938.311 252.345 938.13 252.345Z" fill="#DFE1E2"/>
<path d="M941.852 252.345H940.644C940.464 252.345 940.317 252.491 940.317 252.671V253.135C940.317 253.315 940.464 253.462 940.644 253.462H941.852C942.032 253.462 942.178 253.315 942.178 253.135V252.671C942.178 252.491 942.032 252.345 941.852 252.345Z" fill="#DFE1E2"/>
<path d="M945.575 252.345H944.367C944.186 252.345 944.04 252.491 944.04 252.671V253.135C944.04 253.315 944.186 253.462 944.367 253.462H945.575C945.755 253.462 945.901 253.315 945.901 253.135V252.671C945.901 252.491 945.755 252.345 945.575 252.345Z" fill="#DFE1E2"/>
<path d="M949.296 252.345H948.088C947.908 252.345 947.762 252.491 947.762 252.671V253.135C947.762 253.315 947.908 253.462 948.088 253.462H949.296C949.477 253.462 949.623 253.315 949.623 253.135V252.671C949.623 252.491 949.477 252.345 949.296 252.345Z" fill="#DFE1E2"/>
<path d="M893.422 254.207H892.214C892.034 254.207 891.888 254.353 891.888 254.534V254.997C891.888 255.178 892.034 255.324 892.214 255.324H893.422C893.603 255.324 893.749 255.178 893.749 254.997V254.534C893.749 254.353 893.603 254.207 893.422 254.207Z" fill="#DFE1E2"/>
<path d="M897.144 254.207H895.936C895.756 254.207 895.609 254.353 895.609 254.534V254.997C895.609 255.178 895.756 255.324 895.936 255.324H897.144C897.324 255.324 897.47 255.178 897.47 254.997V254.534C897.47 254.353 897.324 254.207 897.144 254.207Z" fill="#DFE1E2"/>
<path d="M900.866 254.207H899.658C899.477 254.207 899.331 254.353 899.331 254.534V254.997C899.331 255.178 899.477 255.324 899.658 255.324H900.866C901.046 255.324 901.192 255.178 901.192 254.997V254.534C901.192 254.353 901.046 254.207 900.866 254.207Z" fill="#DFE1E2"/>
<path d="M904.588 254.207H903.38C903.2 254.207 903.054 254.353 903.054 254.534V254.997C903.054 255.178 903.2 255.324 903.38 255.324H904.588C904.769 255.324 904.915 255.178 904.915 254.997V254.534C904.915 254.353 904.769 254.207 904.588 254.207Z" fill="#DFE1E2"/>
<path d="M908.31 254.207H907.102C906.922 254.207 906.775 254.353 906.775 254.534V254.997C906.775 255.178 906.922 255.324 907.102 255.324H908.31C908.49 255.324 908.636 255.178 908.636 254.997V254.534C908.636 254.353 908.49 254.207 908.31 254.207Z" fill="#DFE1E2"/>
<path d="M912.032 254.207H910.824C910.643 254.207 910.497 254.353 910.497 254.534V254.997C910.497 255.178 910.643 255.324 910.824 255.324H912.032C912.212 255.324 912.358 255.178 912.358 254.997V254.534C912.358 254.353 912.212 254.207 912.032 254.207Z" fill="#DFE1E2"/>
<path d="M915.754 254.207H914.546C914.366 254.207 914.22 254.353 914.22 254.534V254.997C914.22 255.178 914.366 255.324 914.546 255.324H915.754C915.935 255.324 916.081 255.178 916.081 254.997V254.534C916.081 254.353 915.935 254.207 915.754 254.207Z" fill="#DFE1E2"/>
<path d="M919.476 254.207H918.268C918.088 254.207 917.941 254.353 917.941 254.534V254.997C917.941 255.178 918.088 255.324 918.268 255.324H919.476C919.656 255.324 919.802 255.178 919.802 254.997V254.534C919.802 254.353 919.656 254.207 919.476 254.207Z" fill="#DFE1E2"/>
<path d="M923.199 254.207H921.991C921.81 254.207 921.664 254.353 921.664 254.534V254.997C921.664 255.178 921.81 255.324 921.991 255.324H923.199C923.379 255.324 923.525 255.178 923.525 254.997V254.534C923.525 254.353 923.379 254.207 923.199 254.207Z" fill="#DFE1E2"/>
<path d="M926.92 254.207H925.712C925.532 254.207 925.386 254.353 925.386 254.534V254.997C925.386 255.178 925.532 255.324 925.712 255.324H926.92C927.101 255.324 927.247 255.178 927.247 254.997V254.534C927.247 254.353 927.101 254.207 926.92 254.207Z" fill="#DFE1E2"/>
<path d="M930.642 254.207H929.434C929.254 254.207 929.107 254.353 929.107 254.534V254.997C929.107 255.178 929.254 255.324 929.434 255.324H930.642C930.822 255.324 930.968 255.178 930.968 254.997V254.534C930.968 254.353 930.822 254.207 930.642 254.207Z" fill="#DFE1E2"/>
<path d="M934.365 254.207H933.157C932.976 254.207 932.83 254.353 932.83 254.534V254.997C932.83 255.178 932.976 255.324 933.157 255.324H934.365C934.545 255.324 934.691 255.178 934.691 254.997V254.534C934.691 254.353 934.545 254.207 934.365 254.207Z" fill="#DFE1E2"/>
<path d="M938.086 254.207H936.878C936.698 254.207 936.552 254.353 936.552 254.534V254.997C936.552 255.178 936.698 255.324 936.878 255.324H938.086C938.267 255.324 938.413 255.178 938.413 254.997V254.534C938.413 254.353 938.267 254.207 938.086 254.207Z" fill="#DFE1E2"/>
<path d="M941.808 254.207H940.6C940.42 254.207 940.273 254.353 940.273 254.534V254.997C940.273 255.178 940.42 255.324 940.6 255.324H941.808C941.988 255.324 942.134 255.178 942.134 254.997V254.534C942.134 254.353 941.988 254.207 941.808 254.207Z" fill="#DFE1E2"/>
<path d="M945.531 254.207H944.323C944.142 254.207 943.996 254.353 943.996 254.534V254.997C943.996 255.178 944.142 255.324 944.323 255.324H945.531C945.711 255.324 945.857 255.178 945.857 254.997V254.534C945.857 254.353 945.711 254.207 945.531 254.207Z" fill="#DFE1E2"/>
<path d="M949.252 254.207H948.044C947.864 254.207 947.718 254.353 947.718 254.534V254.997C947.718 255.178 947.864 255.324 948.044 255.324H949.252C949.433 255.324 949.579 255.178 949.579 254.997V254.534C949.579 254.353 949.433 254.207 949.252 254.207Z" fill="#DFE1E2"/>
<path d="M924.315 256.44H910.079C909.899 256.44 909.753 256.587 909.753 256.767V257.231C909.753 257.411 909.899 257.557 910.079 257.557H924.315C924.495 257.557 924.641 257.411 924.641 257.231V256.767C924.641 256.587 924.495 256.44 924.315 256.44Z" fill="#DFE1E2"/>
<path d="M965.666 166.481H870.634C870.535 166.478 870.441 166.438 870.372 166.367C870.303 166.296 870.265 166.201 870.265 166.103C870.265 166.004 870.303 165.909 870.372 165.838C870.441 165.768 870.535 165.727 870.634 165.725H965.666C965.765 165.727 965.859 165.768 965.928 165.838C965.997 165.909 966.036 166.004 966.036 166.103C966.036 166.201 965.997 166.296 965.928 166.367C965.859 166.438 965.765 166.478 965.666 166.481Z" fill="#A9AEB1"/>
<path d="M877.103 163.795C878.327 163.795 879.318 162.781 879.318 161.53C879.318 160.28 878.327 159.266 877.103 159.266C875.88 159.266 874.889 160.28 874.889 161.53C874.889 162.781 875.88 163.795 877.103 163.795Z" fill="#A9AEB1"/>
<path d="M884.755 163.795C885.978 163.795 886.97 162.781 886.97 161.53C886.97 160.28 885.978 159.266 884.755 159.266C883.532 159.266 882.54 160.28 882.54 161.53C882.54 162.781 883.532 163.795 884.755 163.795Z" fill="#A9AEB1"/>
<path d="M892.405 163.795C893.628 163.795 894.62 162.781 894.62 161.53C894.62 160.28 893.628 159.266 892.405 159.266C891.182 159.266 890.19 160.28 890.19 161.53C890.19 162.781 891.182 163.795 892.405 163.795Z" fill="#A9AEB1"/>
<path d="M961.06 159.827H955.625C955.517 159.829 955.415 159.874 955.339 159.951C955.264 160.028 955.222 160.131 955.222 160.239C955.222 160.347 955.264 160.45 955.339 160.527C955.415 160.604 955.517 160.648 955.625 160.65H961.06C961.168 160.648 961.27 160.604 961.346 160.527C961.421 160.45 961.463 160.347 961.463 160.239C961.463 160.131 961.421 160.028 961.346 159.951C961.27 159.874 961.168 159.829 961.06 159.827Z" fill="#A9AEB1"/>
<path d="M961.06 161.372H955.625C955.517 161.374 955.415 161.419 955.339 161.496C955.264 161.572 955.222 161.676 955.222 161.784C955.222 161.891 955.264 161.995 955.339 162.072C955.415 162.149 955.517 162.193 955.625 162.195H961.06C961.168 162.193 961.27 162.149 961.346 162.072C961.421 161.995 961.463 161.891 961.463 161.784C961.463 161.676 961.421 161.572 961.346 161.496C961.27 161.419 961.168 161.374 961.06 161.372Z" fill="#A9AEB1"/>
<path d="M961.06 162.915H955.625C955.517 162.917 955.415 162.961 955.339 163.038C955.264 163.115 955.222 163.219 955.222 163.327C955.222 163.434 955.264 163.538 955.339 163.615C955.415 163.692 955.517 163.736 955.625 163.738H961.06C961.168 163.736 961.27 163.692 961.346 163.615C961.421 163.538 961.463 163.434 961.463 163.327C961.463 163.219 961.421 163.115 961.346 163.038C961.27 162.961 961.168 162.917 961.06 162.915Z" fill="#A9AEB1"/>
<path d="M925.824 187.077H913.949C913.057 187.077 912.334 187.8 912.334 188.693C912.334 189.585 913.057 190.308 913.949 190.308H925.824C926.716 190.308 927.439 189.585 927.439 188.693C927.439 187.8 926.716 187.077 925.824 187.077Z" fill="#0B4778"/>
<path d="M933.494 193.539H906.277C905.385 193.539 904.662 194.262 904.662 195.155C904.662 196.047 905.385 196.77 906.277 196.77H933.494C934.386 196.77 935.109 196.047 935.109 195.155C935.109 194.262 934.386 193.539 933.494 193.539Z" fill="#DFE1E2"/>
<path d="M933.494 200.001H906.277C905.385 200.001 904.662 200.724 904.662 201.616C904.662 202.509 905.385 203.232 906.277 203.232H933.494C934.386 203.232 935.109 202.509 935.109 201.616C935.109 200.724 934.386 200.001 933.494 200.001Z" fill="#DFE1E2"/>
<path d="M746.129 298.672L740.655 296.052L748.175 273.164L756.254 277.029L746.129 298.672Z" fill="#FFB6B6"/>
<path d="M782.83 294.98C782.432 295.23 782.034 295.475 781.631 295.721C780.831 296.211 780.023 296.694 779.215 297.168C778.809 297.406 778.399 297.643 777.992 297.876V297.888L777.968 297.893L777.96 297.897L777.341 298.049L776.452 295.7L776.042 294.618L775.463 293.086L774.402 290.282L768.812 275.521L777.502 273.377L777.828 274.708H777.832L777.992 275.368L781.028 287.684L781.648 290.202L781.668 290.278L782.042 291.783L782.363 293.086L782.721 294.542L782.83 294.98Z" fill="#FFB6B6"/>
<path d="M834.666 243.141C834.115 244.026 833.552 244.907 832.985 245.78C831.931 247.405 830.85 249.006 829.74 250.582C829.74 250.586 829.736 250.586 829.732 250.59C829.084 251.19 828.369 251.713 827.601 252.147C827.568 252.171 827.532 252.187 827.5 252.207C826.934 252.52 826.332 252.762 825.707 252.927C825.482 252.984 825.252 253.04 825.027 253.096C824.215 253.289 823.411 253.454 822.611 253.599C821.187 253.852 819.78 254.034 818.38 254.146C818.268 254.158 818.155 254.166 818.043 254.174C812.289 254.597 806.687 253.917 800.841 252.803C797.954 252.256 795.006 251.6 791.954 250.92C790.957 250.695 789.956 250.474 788.943 250.253C788.866 250.237 788.786 250.216 788.705 250.2C787.258 249.883 785.786 249.569 784.278 249.259C782.38 248.869 780.422 248.491 778.387 248.133L778.532 251.001C778.653 253.207 779.111 255.381 779.891 257.448C780.76 259.99 781.447 262.002 779.996 266.189L779.296 268.216C779.659 269.223 779.783 270.3 779.66 271.363C779.536 272.425 779.168 273.445 778.585 274.342L778.444 274.555L784.278 289.321L784.656 290.278H781.669L777.993 290.282H771.765L762.778 272.246L762.348 271.385V271.341L763.277 236.682C763.289 236.376 763.313 236.066 763.353 235.76C763.517 234.371 763.956 233.028 764.644 231.809C765.332 230.591 766.256 229.522 767.362 228.665C768.421 227.837 769.635 227.228 770.932 226.873C772.229 226.518 773.584 226.424 774.917 226.598L777.993 226.996L784.278 227.808L788.705 228.384L788.794 228.396L801.85 230.085L802.787 226.264L802.96 226.2L808.457 224.184L827.468 217.214L827.516 217.198L828.767 216.739L828.915 216.981C828.96 217.053 829.004 217.125 829.044 217.198C830.28 219.414 831.287 221.751 832.048 224.172C833.328 228.127 834.382 232.152 835.204 236.227C835.24 236.404 835.273 236.565 835.301 236.71L835.313 236.754C835.325 236.822 835.333 236.867 835.337 236.879C835.714 238.988 835.481 241.16 834.666 243.141Z" fill="#A9AEB1"/>
<path d="M835.468 230.368C835.408 230.11 835.331 229.849 835.251 229.596C834.613 227.676 833.869 225.794 833.023 223.956C832.074 221.865 830.936 219.625 829.581 217.199C828.926 216.025 828.221 214.803 827.466 213.535C827.088 212.899 826.696 212.252 826.288 211.592C826.272 211.562 826.255 211.532 826.236 211.504L826.119 211.311L807.309 213.828L800.304 214.766L799.886 218.257L799.786 219.122C799.782 219.122 799.782 219.122 799.786 219.126L799.504 221.483V221.487L799.13 224.6L799.098 224.596L788.704 223.249L777.992 221.861L772.238 221.117C770.904 220.943 769.549 221.036 768.252 221.391C766.955 221.746 765.742 222.356 764.682 223.184C763.577 224.042 762.653 225.111 761.965 226.329C761.276 227.547 760.837 228.89 760.673 230.279C760.637 230.561 760.613 230.851 760.601 231.136L755.173 244.003C751.924 251.699 749.856 259.84 749.036 268.153L745.056 280.883L745.623 280.936L754.059 281.72L756.286 281.929L761.192 274.766C761.751 273.949 762.282 273.108 762.776 272.248C763.591 270.842 764.315 269.385 764.944 267.887L775.555 242.628C776.375 242.769 777.188 242.903 777.992 243.03C781.711 243.633 785.282 244.125 788.704 244.506C799.83 245.749 809.464 245.846 818.041 244.792C820.45 244.498 822.778 244.112 825.026 243.633C825.85 243.46 826.663 243.274 827.466 243.074C827.655 243.03 827.84 242.986 828.025 242.938C829.687 242.509 831.215 241.67 832.469 240.498C833.723 239.326 834.663 237.858 835.203 236.228C835.847 234.34 835.94 232.307 835.468 230.368Z" fill="#A9AEB1"/>
<path d="M747.878 294.934L741.955 292.094L741.026 291.647L739.543 295.292L729.184 297.572C728.672 297.685 728.209 297.958 727.864 298.352C727.518 298.746 727.307 299.241 727.262 299.763C727.217 300.286 727.34 300.809 727.614 301.256C727.887 301.704 728.297 302.052 728.782 302.25L738.903 306.381L742.116 303.489L741.328 307.37L745.14 308.927L749.318 295.626L747.878 294.934Z" fill="#11181D"/>
<path d="M782.215 290.482L776.009 292.633L775.035 292.97L776.544 296.604L770.788 305.515C770.503 305.955 770.367 306.475 770.398 306.998C770.429 307.522 770.628 308.022 770.963 308.425C771.299 308.828 771.754 309.113 772.264 309.238C772.773 309.363 773.309 309.323 773.793 309.122L783.89 304.934L784.139 300.617L786.309 303.93L790.113 302.353L783.725 289.961L782.215 290.482Z" fill="#11181D"/>
<path d="M748.547 159.397C748.841 159.971 749.258 160.472 749.767 160.868C750.276 161.263 750.866 161.541 751.494 161.684C752.123 161.826 752.775 161.829 753.404 161.692C754.034 161.556 754.626 161.282 755.139 160.892L768.189 169.558L768.214 161.415L755.817 154.434C755.105 153.616 754.116 153.088 753.04 152.95C751.964 152.812 750.875 153.074 749.979 153.685C749.083 154.297 748.442 155.216 748.178 156.269C747.914 157.322 748.045 158.435 748.547 159.397Z" fill="#FFB6B6"/>
<path d="M758.297 163.161L764.386 156.232L789.177 170.955L822.042 167.944C823.666 167.796 825.303 168.006 826.837 168.562C828.371 169.117 829.764 170.003 830.917 171.158C832.07 172.312 832.955 173.706 833.508 175.241C834.062 176.776 834.271 178.414 834.121 180.039C833.846 182.973 832.419 185.679 830.152 187.562C827.886 189.445 824.965 190.352 822.031 190.083L785.018 186.656L758.297 163.161Z" fill="#0B4778"/>
<path d="M830.535 163.248L830.481 163.18C826.117 162.749 821.722 163.594 817.829 165.613C813.935 167.632 810.711 170.738 808.546 174.554L805.913 179.195C797.398 189.614 803.586 196.799 803.956 197.867L801 211.506L801.663 216.071C801.663 216.071 792 239.57 806.5 237.57C821 235.57 835.733 235.07 835.733 235.07C837.654 225.834 835.797 217.963 828.798 211.95L835.57 190.865C837.071 186.203 837.397 181.242 836.518 176.424C835.64 171.605 833.584 167.079 830.535 163.248Z" fill="#0B4778"/>
<path d="M815.971 169.16L831.55 166.07L836.56 183.442C836.56 183.442 821.34 224.233 831 234.07L799.505 242.31C799.505 242.31 766.726 224.538 803.305 198.516C803.305 198.516 797.129 191.057 804.098 184.551C811.064 178.045 815.974 169.16 815.974 169.16H815.971Z" fill="#0B4778"/>
<path d="M852.029 263.518L841.613 268.311C841.04 268.574 840.391 268.621 839.786 268.444C839.18 268.268 838.659 267.878 838.318 267.348C835.496 262.909 833.288 258.11 831.753 253.08C831.575 252.483 831.615 251.841 831.866 251.271C832.118 250.701 832.565 250.239 833.126 249.969C835.727 246.992 839.257 245.368 843.618 245.142C843.963 244.988 844.338 244.912 844.716 244.919C845.094 244.926 845.465 245.016 845.805 245.182C846.159 245.354 846.47 245.603 846.715 245.91C846.961 246.218 847.135 246.576 847.225 246.959C848.304 251.51 850.278 255.8 853.031 259.58C853.264 259.897 853.423 260.263 853.496 260.649C853.57 261.036 853.557 261.434 853.458 261.815C853.361 262.187 853.183 262.533 852.936 262.828C852.689 263.122 852.379 263.358 852.029 263.518Z" fill="#0B4778"/>
<path d="M844.993 251.099L836.226 255.133C836.154 255.167 836.076 255.186 835.996 255.19C835.917 255.193 835.837 255.181 835.762 255.154C835.688 255.127 835.619 255.085 835.56 255.031C835.502 254.977 835.454 254.912 835.421 254.839C835.388 254.767 835.369 254.688 835.366 254.609C835.363 254.529 835.376 254.45 835.404 254.375C835.432 254.301 835.475 254.232 835.529 254.174C835.584 254.116 835.649 254.069 835.722 254.037L844.489 250.003C844.561 249.969 844.639 249.95 844.718 249.946C844.798 249.943 844.878 249.955 844.952 249.982C845.027 250.01 845.096 250.051 845.155 250.105C845.213 250.159 845.26 250.224 845.294 250.297C845.327 250.369 845.346 250.447 845.349 250.527C845.351 250.607 845.339 250.686 845.311 250.761C845.283 250.835 845.24 250.904 845.186 250.962C845.131 251.02 845.066 251.067 844.993 251.099Z" fill="white"/>
<path d="M847.011 255.484L838.244 259.518C838.172 259.552 838.094 259.571 838.014 259.575C837.934 259.578 837.855 259.566 837.78 259.539C837.705 259.511 837.636 259.469 837.578 259.415C837.519 259.361 837.472 259.296 837.439 259.224C837.405 259.151 837.387 259.073 837.384 258.994C837.381 258.914 837.394 258.835 837.422 258.76C837.45 258.685 837.492 258.617 837.547 258.559C837.601 258.501 837.667 258.454 837.739 258.421L846.506 254.388C846.578 254.354 846.656 254.335 846.736 254.331C846.816 254.327 846.895 254.34 846.97 254.367C847.045 254.394 847.114 254.436 847.172 254.49C847.231 254.544 847.278 254.609 847.311 254.682C847.345 254.754 847.363 254.832 847.366 254.912C847.369 254.991 847.356 255.071 847.328 255.146C847.3 255.22 847.258 255.288 847.203 255.347C847.149 255.405 847.083 255.451 847.011 255.484Z" fill="white"/>
<path d="M849.029 259.868L840.262 263.902C840.19 263.936 840.111 263.955 840.032 263.959C839.952 263.962 839.873 263.95 839.798 263.923C839.723 263.896 839.654 263.854 839.596 263.8C839.537 263.746 839.49 263.681 839.456 263.608C839.423 263.536 839.404 263.457 839.401 263.378C839.399 263.298 839.411 263.219 839.439 263.144C839.467 263.069 839.51 263.001 839.564 262.943C839.619 262.885 839.685 262.838 839.757 262.806L848.524 258.772C848.596 258.738 848.674 258.719 848.754 258.715C848.834 258.711 848.913 258.724 848.988 258.751C849.063 258.778 849.132 258.82 849.19 258.874C849.249 258.928 849.296 258.993 849.33 259.066C849.363 259.138 849.381 259.216 849.384 259.296C849.387 259.376 849.374 259.455 849.346 259.53C849.318 259.604 849.276 259.673 849.221 259.731C849.167 259.789 849.101 259.836 849.029 259.868Z" fill="white"/>
<path d="M750.65 163.372H739.184C738.553 163.372 737.944 163.144 737.468 162.73C736.992 162.316 736.681 161.745 736.593 161.12C735.885 155.909 735.885 150.626 736.593 145.414C736.68 144.797 736.985 144.231 737.451 143.819C737.918 143.406 738.517 143.173 739.14 143.162C742.748 141.545 746.632 141.545 750.689 143.162C751.067 143.167 751.439 143.255 751.78 143.419C752.12 143.583 752.42 143.82 752.659 144.113C752.909 144.417 753.087 144.773 753.182 145.155C753.276 145.537 753.284 145.935 753.206 146.321C752.285 150.906 752.285 155.628 753.206 160.213C753.284 160.599 753.276 160.997 753.182 161.379C753.087 161.761 752.909 162.117 752.659 162.422C752.416 162.72 752.109 162.959 751.762 163.124C751.414 163.288 751.034 163.373 750.65 163.372Z" fill="#0B4778"/>
<path d="M749.448 149.15H739.798C739.718 149.151 739.639 149.136 739.565 149.106C739.492 149.076 739.425 149.031 739.368 148.975C739.311 148.919 739.267 148.852 739.236 148.779C739.205 148.705 739.189 148.626 739.189 148.547C739.189 148.467 739.205 148.388 739.236 148.315C739.267 148.241 739.311 148.174 739.368 148.118C739.425 148.062 739.492 148.018 739.565 147.988C739.639 147.958 739.718 147.943 739.798 147.943H749.448C749.528 147.943 749.607 147.958 749.681 147.988C749.755 148.018 749.822 148.062 749.878 148.118C749.935 148.174 749.98 148.241 750.01 148.315C750.041 148.388 750.057 148.467 750.057 148.547C750.057 148.626 750.041 148.705 750.01 148.779C749.98 148.852 749.935 148.919 749.878 148.975C749.822 149.031 749.755 149.076 749.681 149.106C749.607 149.136 749.528 149.151 749.448 149.15Z" fill="white"/>
<path d="M749.448 153.977H739.798C739.718 153.978 739.639 153.963 739.565 153.933C739.492 153.903 739.425 153.858 739.368 153.802C739.311 153.746 739.267 153.68 739.236 153.606C739.205 153.532 739.189 153.454 739.189 153.374C739.189 153.294 739.205 153.215 739.236 153.142C739.267 153.068 739.311 153.001 739.368 152.945C739.425 152.889 739.492 152.845 739.565 152.815C739.639 152.785 739.718 152.77 739.798 152.771H749.448C749.528 152.77 749.607 152.785 749.681 152.815C749.755 152.845 749.822 152.889 749.878 152.945C749.935 153.001 749.98 153.068 750.01 153.142C750.041 153.215 750.057 153.294 750.057 153.374C750.057 153.454 750.041 153.532 750.01 153.606C749.98 153.68 749.935 153.746 749.878 153.802C749.822 153.858 749.755 153.903 749.681 153.933C749.607 153.963 749.528 153.978 749.448 153.977Z" fill="white"/>
<path d="M749.449 158.804H739.798C739.719 158.805 739.64 158.79 739.566 158.76C739.492 158.73 739.425 158.686 739.368 158.63C739.312 158.574 739.267 158.507 739.236 158.433C739.205 158.36 739.189 158.281 739.189 158.201C739.189 158.121 739.205 158.042 739.236 157.969C739.267 157.895 739.312 157.828 739.368 157.772C739.425 157.716 739.492 157.672 739.566 157.642C739.64 157.612 739.719 157.597 739.798 157.598H749.449C749.528 157.597 749.607 157.612 749.681 157.642C749.755 157.672 749.822 157.716 749.879 157.772C749.936 157.828 749.98 157.895 750.011 157.969C750.042 158.042 750.058 158.121 750.058 158.201C750.058 158.281 750.042 158.36 750.011 158.433C749.98 158.507 749.936 158.574 749.879 158.63C749.822 158.686 749.755 158.73 749.681 158.76C749.607 158.79 749.528 158.805 749.449 158.804Z" fill="white"/>
<path d="M848.953 248.794C849.32 248.264 849.567 247.661 849.675 247.025C849.784 246.39 849.751 245.738 849.581 245.117C849.41 244.495 849.106 243.918 848.688 243.427C848.271 242.936 847.751 242.542 847.165 242.274L848.656 226.678L841.465 230.491L841.151 244.717C840.766 245.731 840.766 246.852 841.151 247.866C841.536 248.881 842.281 249.719 843.242 250.221C844.204 250.724 845.317 250.856 846.369 250.593C847.422 250.33 848.341 249.69 848.953 248.794Z" fill="#FFB6B6"/>
<path d="M847.677 238.419L838.698 236.311L839.997 207.501L821.854 179.922C820.957 178.559 820.372 177.015 820.139 175.4C819.906 173.785 820.031 172.138 820.505 170.577C820.98 169.016 821.792 167.579 822.885 166.368C823.977 165.156 825.323 164.2 826.827 163.567C829.544 162.428 832.602 162.413 835.331 163.526C838.059 164.639 840.235 166.789 841.381 169.504L855.802 203.776L847.677 238.419Z" fill="#0B4778"/>
<path d="M826.334 158.949C834.037 158.949 840.281 152.703 840.281 144.997C840.281 137.292 834.037 131.046 826.334 131.046C818.631 131.046 812.387 137.292 812.387 144.997C812.387 152.703 818.631 158.949 826.334 158.949Z" fill="#FFB6B6"/>
<path d="M871.094 165.527C869.485 167.808 867.136 169.462 864.446 170.209C863.369 170.529 862.258 170.718 861.136 170.771C860.997 169.502 860.665 168.262 860.152 167.093C860.204 168.337 860.031 169.58 859.641 170.763C857.957 170.667 856.309 170.226 854.803 169.466C853.322 168.721 852.036 167.641 851.046 166.313C850.056 164.984 849.389 163.443 849.098 161.811C848.507 157.995 850.236 154.248 850.862 150.438C851.49 146.627 850.311 141.801 846.582 140.8C843.742 140.037 844.061 140.367 841.7 142.12C844.156 145.752 835.086 159.061 831.374 157.9C829.276 157.244 827.933 155.318 827.499 155.318C824.582 160.345 830.075 168.815 824.539 170.573L824.995 170.117C828.337 166.006 821.353 157.304 824.694 153.192C825.626 152.041 826.619 150.679 826.343 149.224C826.082 147.841 823.888 147.109 823.246 148.246C824.402 145.597 822.695 142.063 819.87 141.382C817.36 140.777 817.406 141.523 814.888 141.847C814.723 140.759 814.415 139.696 813.973 138.688C814.019 139.775 813.892 140.861 813.597 141.908C812.707 141.89 811.848 141.58 811.153 141.024C809.099 139.368 809.515 135.891 811.348 133.994C813.184 132.098 815.912 131.415 818.513 130.973C819.269 125.705 833.8 125.156 835.726 130.419C836.546 126.489 841.465 124.449 845.288 125.668C849.112 126.888 851.765 130.46 853.162 134.224C854.559 137.985 854.949 142.034 855.809 145.953C856.67 149.872 858.124 153.863 861.119 156.535C864.113 159.203 868.992 160.087 872.147 157.608C872.606 158.918 872.75 160.317 872.567 161.693C872.384 163.069 871.879 164.382 871.094 165.527Z" fill="#11181D"/>
<path d="M1001.94 197.364L999.992 207.163C999.845 207.913 999.691 208.675 999.524 209.431C997.892 209.093 996.2 209.187 994.616 209.705C995.873 211.502 996.999 213.386 997.986 215.344C996.756 219.137 994.95 222.642 991.928 225.177C989.909 226.833 987.498 227.94 984.927 228.392C982.356 228.845 979.712 228.627 977.249 227.759L977.336 227.371C974.086 221.063 975.852 213.11 979.891 207.284C981.951 204.41 984.392 201.828 987.146 199.611C989.875 197.337 992.824 195.297 995.746 193.283C996.402 192.832 997.178 192.586 997.975 192.578C998.771 192.57 999.552 192.8 1000.22 193.238C1000.88 193.676 1001.4 194.302 1001.71 195.037C1002.02 195.772 1002.1 196.582 1001.94 197.364Z" fill="#DFE1E2"/>
<path d="M977.944 251.339C977.123 245.35 976.277 239.285 976.854 233.232C977.366 227.856 979.005 222.606 982.343 218.301C984.115 216.02 986.271 214.066 988.714 212.526C989.351 212.125 989.937 213.134 989.303 213.534C985.076 216.207 981.807 220.153 979.966 224.803C977.933 229.975 977.607 235.614 977.96 241.108C978.172 244.43 978.62 247.73 979.073 251.028C979.11 251.177 979.088 251.334 979.012 251.468C978.936 251.601 978.812 251.701 978.665 251.746C978.516 251.786 978.357 251.766 978.222 251.69C978.088 251.613 977.989 251.487 977.947 251.338L977.944 251.339Z" fill="#F0F0F0"/>
<path d="M451.225 159.682L451.76 128.084C451.782 126.792 449.776 126.792 449.754 128.084L449.219 159.682C449.197 160.974 451.203 160.974 451.225 159.682Z" fill="#DFE1E2"/>
<path d="M450.561 123.716L450.558 123.717L450.563 123.716H450.561Z" fill="#DFE1E2"/>
<path d="M450.566 123.715C450.571 123.716 450.565 123.716 450.565 123.716L450.566 123.715Z" fill="#DFE1E2"/>
<path d="M450.566 123.715L450.562 123.715C450.567 123.716 450.566 123.715 450.566 123.715Z" fill="#DFE1E2"/>
<path d="M450.563 123.713L450.565 123.714L450.563 123.713Z" fill="#DFE1E2"/>
<path d="M493.357 104.986L493.354 104.988L493.36 104.986H493.357Z" fill="#DFE1E2"/>
<path d="M493.364 104.986L493.36 104.987C493.365 104.987 493.364 104.986 493.364 104.986Z" fill="#DFE1E2"/>
<path d="M493.361 104.984L493.363 104.985L493.361 104.984Z" fill="#DFE1E2"/>
<path d="M534.821 114.349L534.823 114.35L534.821 114.349Z" fill="#DFE1E2"/>
<path d="M534.817 114.351L534.814 114.352L534.82 114.351H534.817Z" fill="#DFE1E2"/>
<path d="M534.824 114.351L534.82 114.351C534.825 114.352 534.824 114.351 534.824 114.351Z" fill="#DFE1E2"/>
<path d="M534.824 114.35C534.828 114.351 534.823 114.351 534.823 114.351L534.824 114.35Z" fill="#DFE1E2"/>
<path d="M576.946 93.6143L576.943 93.6157L576.949 93.6143H576.946Z" fill="#DFE1E2"/>
<path d="M576.952 93.6143L576.948 93.6148C576.953 93.6153 576.952 93.6143 576.952 93.6143Z" fill="#DFE1E2"/>
<path d="M576.953 93.6133C576.957 93.6146 576.952 93.6148 576.952 93.6148L576.953 93.6133Z" fill="#DFE1E2"/>
<path d="M576.95 93.6123L576.952 93.6133L576.95 93.6123Z" fill="#DFE1E2"/>
<path d="M415.641 57.9466C444.286 57.4484 472.935 57.3768 501.587 57.7319C530.235 58.0891 558.873 58.8749 587.501 60.0892C603.566 60.7707 619.624 61.5871 635.676 62.5385C636.965 62.6148 636.961 60.6078 635.676 60.5317C607.076 58.8388 578.455 57.5721 549.813 56.7316C521.175 55.8933 492.529 55.4836 463.875 55.5026C447.796 55.5133 431.718 55.6591 415.641 55.9399C414.351 55.9623 414.347 57.9691 415.641 57.9466Z" fill="#DFE1E2"/>
<path d="M615.274 45.3645L627.8 44.432C629.08 44.3367 629.09 42.3292 627.8 42.4252L615.274 43.3578C613.995 43.453 613.984 45.4605 615.274 45.3645Z" fill="#DFE1E2"/>
<path d="M615.274 57.4045L627.8 56.472C629.08 56.3767 629.09 54.3692 627.8 54.4653L615.274 55.3978C613.995 55.4931 613.984 57.5006 615.274 57.4045Z" fill="#DFE1E2"/>
<path d="M614.332 51.9062L632.141 53.5246C633.426 53.6414 633.418 51.634 632.141 51.5179L614.332 49.8994C613.047 49.7826 613.055 51.7901 614.332 51.9062Z" fill="#DFE1E2"/>
<path d="M423.054 42.6651C422.183 42.6597 421.329 42.9109 420.6 43.3874C419.871 43.8639 419.298 44.5445 418.952 45.3445C418.566 46.1275 418.447 47.0154 418.613 47.8726C418.779 48.7297 419.221 49.5089 419.872 50.091C420.483 50.6115 421.217 50.9683 422.004 51.1283C422.79 51.2882 423.605 51.2459 424.371 51.0054C425.155 50.7317 425.834 50.2217 426.316 49.5458C426.798 48.8698 427.058 48.0611 427.062 47.2309C427.097 46.3099 426.847 45.4004 426.347 44.6262C425.847 43.852 425.121 43.2505 424.267 42.9037C424.011 42.834 423.737 42.8686 423.506 42.9998C423.275 43.1311 423.105 43.3485 423.034 43.6045C422.97 43.8608 423.008 44.1317 423.138 44.3613C423.268 44.5909 423.482 44.7618 423.734 44.8388C423.909 44.9063 423.574 44.7528 423.738 44.8418C423.805 44.8783 423.873 44.9114 423.939 44.9504C423.995 44.9836 424.049 45.02 424.103 45.0556C424.29 45.1778 424.012 44.9658 424.131 45.0757C424.235 45.171 424.338 45.264 424.432 45.3692C424.468 45.4089 424.608 45.5195 424.499 45.4422C424.416 45.3831 424.467 45.397 424.499 45.4445C424.524 45.4805 424.549 45.5155 424.573 45.5518C424.651 45.6702 424.723 45.7931 424.786 45.9199C424.801 45.9493 424.814 45.9793 424.829 46.0085C424.857 46.0632 424.898 46.0776 424.832 46.009C424.769 45.9435 424.809 45.948 424.832 46.011C424.847 46.0525 424.863 46.0934 424.877 46.1349C424.924 46.2703 424.964 46.4081 424.996 46.5479C425.01 46.6124 425.022 46.6774 425.035 46.7424C425.079 46.9728 425.028 46.5991 425.039 46.7703C425.048 46.9132 425.059 47.0546 425.056 47.1981C425.055 47.2637 425.052 47.3293 425.048 47.3948C425.045 47.4275 425.042 47.46 425.039 47.4927C425.029 47.6502 425.029 47.4352 425.051 47.4205C425.005 47.5541 424.974 47.6926 424.96 47.8332C424.942 47.8956 424.921 47.9566 424.901 48.0183C424.831 48.2336 424.966 47.9009 424.892 48.0481C424.831 48.1745 424.762 48.2972 424.687 48.4158C424.654 48.4654 424.531 48.5776 424.632 48.4995C424.741 48.4148 424.574 48.5607 424.539 48.5982C424.493 48.6464 424.446 48.6929 424.397 48.7378C424.365 48.7685 424.332 48.7974 424.297 48.8243C424.291 48.8211 424.465 48.7081 424.371 48.7679C424.252 48.8439 424.139 48.9253 424.013 48.9915C423.999 48.9992 423.838 49.0736 423.839 49.0762C423.832 49.0491 424.045 49.0011 423.899 49.0484C423.868 49.0583 423.838 49.0704 423.807 49.0807C423.674 49.1256 423.538 49.1619 423.4 49.1893C423.368 49.1956 423.335 49.1988 423.304 49.2068C423.2 49.2336 423.403 49.1911 423.409 49.1946C423.332 49.1913 423.255 49.1981 423.181 49.2148C423.038 49.2229 422.896 49.2229 422.753 49.2148C422.72 49.2129 422.687 49.2096 422.655 49.2077C422.578 49.2032 422.522 49.1481 422.624 49.2079C422.702 49.2541 422.696 49.2204 422.626 49.2076C422.594 49.2016 422.561 49.1965 422.528 49.1904C422.388 49.164 422.248 49.1299 422.111 49.0882C422.037 49.0657 421.965 49.0395 421.892 49.0141C421.861 49.0049 421.83 48.993 421.8 48.9785C421.8 48.9703 421.988 49.0684 421.888 49.0149C421.763 48.9473 421.633 48.8907 421.511 48.8169C421.446 48.7775 421.383 48.7347 421.32 48.6925C421.292 48.6757 421.265 48.6566 421.24 48.6356C421.242 48.6271 421.396 48.7693 421.315 48.6926C421.213 48.5955 421.104 48.5086 421.008 48.4052C420.986 48.3815 420.965 48.3568 420.943 48.3331L420.922 48.3087C420.867 48.2423 420.866 48.2426 420.919 48.3097C420.972 48.3254 420.97 48.3837 420.919 48.3079C420.901 48.2809 420.882 48.2547 420.864 48.2277C420.783 48.1115 420.713 47.9875 420.657 47.8573C420.662 47.8535 420.744 48.0987 420.681 47.9137C420.669 47.8787 420.656 47.8443 420.644 47.8093C420.621 47.7397 420.601 47.6695 420.583 47.5984C420.566 47.528 420.557 47.4554 420.54 47.3853C420.51 47.2671 420.557 47.4785 420.551 47.4732C420.535 47.4567 420.542 47.3542 420.541 47.3297C420.533 47.1723 420.55 47.0195 420.553 46.863C420.555 46.7417 420.543 46.9574 420.541 46.9511C420.541 46.9148 420.548 46.8788 420.56 46.8445C420.578 46.762 420.595 46.6796 420.617 46.5979C420.643 46.5045 420.672 46.4122 420.705 46.321C420.717 46.2869 420.732 46.2533 420.744 46.2189C420.786 46.0929 420.66 46.371 420.73 46.2574C420.825 46.1011 420.896 45.932 420.998 45.7776C421.022 45.741 421.168 45.5371 421.09 45.6401C421.013 45.7426 421.169 45.5483 421.199 45.5153C421.322 45.3782 421.467 45.2657 421.594 45.1345C421.67 45.0568 421.541 45.1727 421.534 45.1781C421.573 45.15 421.612 45.1207 421.652 45.0932C421.722 45.0451 421.793 44.9997 421.866 44.957C421.948 44.9087 422.041 44.8728 422.121 44.8217C422.215 44.7614 422.049 44.8482 422.046 44.85C422.089 44.8287 422.134 44.8115 422.18 44.7988C422.258 44.7712 422.596 44.6254 422.667 44.671C422.664 44.669 422.41 44.6914 422.615 44.6783C422.663 44.6751 422.712 44.6704 422.76 44.6684C422.858 44.6644 422.956 44.6668 423.054 44.6719C423.319 44.6702 423.573 44.5639 423.761 44.3761C423.949 44.1883 424.055 43.9341 424.057 43.6685C424.051 43.4042 423.944 43.1523 423.757 42.9653C423.57 42.7784 423.318 42.6708 423.054 42.6651Z" fill="#DFE1E2"/>
<path d="M437.097 42.6651C436.226 42.6597 435.372 42.9109 434.643 43.3874C433.914 43.8639 433.341 44.5445 432.995 45.3445C432.609 46.1275 432.49 47.0154 432.656 47.8726C432.822 48.7297 433.264 49.5089 433.915 50.091C434.526 50.6115 435.26 50.9683 436.047 51.1283C436.833 51.2882 437.648 51.2459 438.414 51.0054C439.198 50.7317 439.877 50.2217 440.359 49.5458C440.841 48.8698 441.101 48.0611 441.105 47.2309C441.14 46.3099 440.89 45.4004 440.39 44.6262C439.89 43.852 439.164 43.2505 438.31 42.9037C438.054 42.834 437.78 42.8686 437.549 42.9998C437.318 43.1311 437.148 43.3485 437.077 43.6045C437.013 43.8608 437.051 44.1317 437.181 44.3613C437.311 44.5909 437.525 44.7618 437.777 44.8388C437.952 44.9063 437.617 44.7528 437.781 44.8418C437.848 44.8783 437.916 44.9114 437.982 44.9504C438.038 44.9836 438.092 45.02 438.146 45.0556C438.333 45.1778 438.055 44.9658 438.174 45.0757C438.278 45.171 438.381 45.264 438.475 45.3692C438.511 45.4089 438.651 45.5195 438.542 45.4422C438.459 45.3831 438.51 45.397 438.542 45.4445C438.567 45.4805 438.592 45.5155 438.616 45.5518C438.694 45.6702 438.766 45.7931 438.829 45.9199C438.844 45.9493 438.857 45.9793 438.872 46.0085C438.9 46.0632 438.941 46.0776 438.875 46.009C438.812 45.9435 438.852 45.948 438.875 46.011C438.89 46.0525 438.906 46.0934 438.92 46.1349C438.967 46.2703 439.007 46.4081 439.038 46.5479C439.053 46.6124 439.065 46.6774 439.078 46.7424C439.122 46.9728 439.071 46.5991 439.082 46.7703C439.091 46.9132 439.102 47.0546 439.099 47.1981C439.098 47.2637 439.095 47.3293 439.09 47.3948C439.088 47.4275 439.085 47.46 439.082 47.4927C439.072 47.6502 439.072 47.4352 439.094 47.4205C439.048 47.5541 439.017 47.6926 439.003 47.8332C438.985 47.8956 438.964 47.9566 438.944 48.0183C438.874 48.2336 439.009 47.9009 438.935 48.0481C438.874 48.1745 438.805 48.2972 438.73 48.4158C438.697 48.4654 438.574 48.5776 438.675 48.4995C438.784 48.4148 438.617 48.5607 438.582 48.5982C438.536 48.6464 438.489 48.6929 438.44 48.7378C438.408 48.7685 438.375 48.7974 438.34 48.8243C438.334 48.8211 438.508 48.7081 438.414 48.7679C438.295 48.8439 438.182 48.9253 438.056 48.9915C438.042 48.9992 437.881 49.0736 437.882 49.0762C437.875 49.0491 438.088 49.0011 437.942 49.0484C437.911 49.0583 437.881 49.0704 437.85 49.0807C437.717 49.1256 437.581 49.1619 437.443 49.1893C437.411 49.1956 437.378 49.1988 437.347 49.2068C437.243 49.2336 437.446 49.1911 437.452 49.1946C437.375 49.1913 437.298 49.1981 437.223 49.2148C437.081 49.2229 436.939 49.2229 436.796 49.2148C436.763 49.2129 436.73 49.2096 436.697 49.2077C436.621 49.2032 436.565 49.1481 436.667 49.2079C436.745 49.2541 436.739 49.2204 436.669 49.2076C436.637 49.2016 436.604 49.1965 436.571 49.1904C436.431 49.164 436.291 49.1299 436.154 49.0882C436.08 49.0657 436.008 49.0395 435.935 49.0141C435.904 49.0049 435.873 48.993 435.843 48.9785C435.843 48.9703 436.031 49.0684 435.931 49.0149C435.806 48.9473 435.676 48.8907 435.554 48.8169C435.489 48.7775 435.426 48.7347 435.363 48.6925C435.335 48.6757 435.308 48.6566 435.283 48.6356C435.285 48.6271 435.439 48.7693 435.358 48.6926C435.256 48.5955 435.147 48.5086 435.051 48.4052C435.029 48.3815 435.008 48.3568 434.986 48.3331L434.965 48.3087C434.91 48.2423 434.909 48.2426 434.962 48.3097C435.015 48.3254 435.012 48.3837 434.962 48.3079C434.944 48.2809 434.925 48.2547 434.907 48.2277C434.826 48.1115 434.756 47.9875 434.7 47.8573C434.705 47.8535 434.787 48.0987 434.724 47.9137C434.712 47.8787 434.699 47.8443 434.687 47.8093C434.664 47.7397 434.644 47.6695 434.626 47.5984C434.609 47.528 434.6 47.4554 434.583 47.3853C434.553 47.2671 434.6 47.4785 434.594 47.4732C434.578 47.4567 434.585 47.3542 434.584 47.3297C434.576 47.1723 434.593 47.0195 434.596 46.863C434.598 46.7417 434.586 46.9574 434.584 46.9511C434.584 46.9148 434.591 46.8788 434.603 46.8445C434.621 46.762 434.638 46.6796 434.66 46.5979C434.685 46.5045 434.715 46.4122 434.748 46.321C434.76 46.2869 434.775 46.2533 434.787 46.2189C434.829 46.0929 434.703 46.371 434.773 46.2574C434.868 46.1011 434.939 45.932 435.041 45.7776C435.065 45.741 435.211 45.5371 435.133 45.6401C435.056 45.7426 435.212 45.5483 435.242 45.5153C435.365 45.3782 435.51 45.2657 435.637 45.1345C435.713 45.0568 435.584 45.1727 435.577 45.1781C435.616 45.15 435.655 45.1207 435.695 45.0932C435.765 45.0451 435.836 44.9997 435.909 44.957C435.991 44.9087 436.084 44.8728 436.164 44.8217C436.258 44.7614 436.092 44.8482 436.089 44.85C436.132 44.8287 436.177 44.8115 436.223 44.7988C436.301 44.7712 436.639 44.6254 436.71 44.671C436.707 44.669 436.453 44.6914 436.658 44.6783C436.706 44.6751 436.755 44.6704 436.803 44.6684C436.901 44.6644 436.999 44.6668 437.097 44.6719C437.362 44.6702 437.616 44.5639 437.804 44.3761C437.992 44.1883 438.098 43.9341 438.1 43.6685C438.094 43.4042 437.987 43.1523 437.8 42.9653C437.613 42.7784 437.361 42.6708 437.097 42.6651Z" fill="#DFE1E2"/>
<path d="M451.14 42.6651C450.269 42.6597 449.415 42.9109 448.686 43.3874C447.957 43.8639 447.384 44.5445 447.038 45.3445C446.652 46.1275 446.533 47.0154 446.699 47.8726C446.865 48.7297 447.307 49.5089 447.958 50.091C448.569 50.6115 449.303 50.9683 450.09 51.1283C450.876 51.2882 451.691 51.2459 452.457 51.0054C453.241 50.7317 453.92 50.2217 454.402 49.5458C454.884 48.8698 455.144 48.0611 455.148 47.2309C455.183 46.3099 454.933 45.4004 454.433 44.6262C453.933 43.852 453.207 43.2505 452.353 42.9037C452.097 42.834 451.823 42.8686 451.592 42.9998C451.361 43.1311 451.191 43.3485 451.119 43.6045C451.056 43.8608 451.094 44.1317 451.224 44.3613C451.354 44.5909 451.568 44.7618 451.82 44.8388C451.995 44.9063 451.66 44.7528 451.824 44.8418C451.891 44.8783 451.959 44.9114 452.025 44.9504C452.081 44.9836 452.135 45.02 452.189 45.0556C452.376 45.1778 452.098 44.9658 452.217 45.0757C452.321 45.171 452.424 45.264 452.518 45.3692C452.554 45.4089 452.694 45.5195 452.585 45.4422C452.502 45.3831 452.553 45.397 452.585 45.4445C452.609 45.4805 452.635 45.5155 452.659 45.5518C452.737 45.6702 452.808 45.7931 452.872 45.9199C452.887 45.9493 452.9 45.9793 452.915 46.0085C452.943 46.0632 452.984 46.0776 452.918 46.009C452.855 45.9435 452.895 45.948 452.918 46.011C452.933 46.0525 452.949 46.0934 452.963 46.1349C453.01 46.2703 453.05 46.4081 453.081 46.5479C453.096 46.6124 453.108 46.6774 453.121 46.7424C453.165 46.9728 453.114 46.5991 453.125 46.7703C453.134 46.9132 453.144 47.0546 453.142 47.1981C453.141 47.2637 453.138 47.3293 453.133 47.3948C453.131 47.4275 453.127 47.46 453.125 47.4927C453.115 47.6502 453.115 47.4352 453.137 47.4205C453.091 47.5541 453.06 47.6926 453.046 47.8332C453.028 47.8956 453.007 47.9566 452.987 48.0183C452.917 48.2336 453.052 47.9009 452.978 48.0481C452.917 48.1745 452.848 48.2972 452.773 48.4158C452.74 48.4654 452.617 48.5776 452.718 48.4995C452.827 48.4148 452.66 48.5607 452.625 48.5982C452.579 48.6464 452.532 48.6929 452.483 48.7378C452.451 48.7685 452.418 48.7974 452.383 48.8243C452.377 48.8211 452.551 48.7081 452.457 48.7679C452.338 48.8439 452.225 48.9253 452.099 48.9915C452.085 48.9992 451.924 49.0736 451.925 49.0762C451.918 49.0491 452.131 49.0011 451.985 49.0484C451.954 49.0583 451.924 49.0704 451.893 49.0807C451.76 49.1256 451.624 49.1619 451.486 49.1893C451.454 49.1956 451.421 49.1988 451.39 49.2068C451.286 49.2336 451.489 49.1911 451.495 49.1946C451.418 49.1913 451.341 49.1981 451.266 49.2148C451.124 49.2229 450.981 49.2229 450.839 49.2148C450.806 49.2129 450.773 49.2096 450.74 49.2077C450.664 49.2032 450.608 49.1481 450.71 49.2079C450.788 49.2541 450.782 49.2204 450.712 49.2076C450.68 49.2016 450.647 49.1965 450.614 49.1904C450.474 49.164 450.334 49.1299 450.197 49.0882C450.123 49.0657 450.051 49.0395 449.978 49.0141C449.947 49.0049 449.916 48.993 449.886 48.9785C449.886 48.9703 450.074 49.0684 449.974 49.0149C449.849 48.9473 449.719 48.8907 449.597 48.8169C449.532 48.7775 449.469 48.7347 449.406 48.6925C449.378 48.6757 449.351 48.6566 449.326 48.6356C449.328 48.6271 449.482 48.7693 449.401 48.6926C449.299 48.5955 449.19 48.5086 449.094 48.4052C449.072 48.3815 449.051 48.3568 449.029 48.3331L449.008 48.3087C448.953 48.2423 448.952 48.2426 449.005 48.3097C449.058 48.3254 449.055 48.3837 449.005 48.3079C448.987 48.2809 448.968 48.2547 448.95 48.2277C448.869 48.1115 448.799 47.9875 448.743 47.8573C448.748 47.8535 448.83 48.0987 448.767 47.9137C448.755 47.8787 448.742 47.8443 448.73 47.8093C448.707 47.7397 448.687 47.6695 448.669 47.5984C448.652 47.528 448.643 47.4554 448.625 47.3853C448.596 47.2671 448.643 47.4785 448.637 47.4732C448.621 47.4567 448.628 47.3542 448.627 47.3297C448.619 47.1723 448.636 47.0195 448.639 46.863C448.641 46.7417 448.629 46.9574 448.627 46.9511C448.627 46.9148 448.634 46.8788 448.646 46.8445C448.664 46.762 448.681 46.6796 448.703 46.5979C448.728 46.5045 448.758 46.4122 448.791 46.321C448.803 46.2869 448.818 46.2533 448.83 46.2189C448.872 46.0929 448.746 46.371 448.816 46.2574C448.911 46.1011 448.982 45.932 449.084 45.7776C449.108 45.741 449.254 45.5371 449.176 45.6401C449.099 45.7426 449.255 45.5483 449.285 45.5153C449.408 45.3782 449.553 45.2657 449.68 45.1345C449.755 45.0568 449.627 45.1727 449.62 45.1781C449.659 45.15 449.698 45.1207 449.738 45.0932C449.808 45.0451 449.879 44.9997 449.952 44.957C450.034 44.9087 450.127 44.8728 450.207 44.8217C450.301 44.7614 450.135 44.8482 450.132 44.85C450.175 44.8287 450.22 44.8115 450.266 44.7988C450.344 44.7712 450.682 44.6254 450.753 44.671C450.75 44.669 450.496 44.6914 450.701 44.6783C450.749 44.6751 450.798 44.6704 450.846 44.6684C450.944 44.6644 451.042 44.6668 451.14 44.6719C451.405 44.6702 451.659 44.5639 451.847 44.3761C452.035 44.1883 452.141 43.9341 452.143 43.6685C452.137 43.4042 452.03 43.1523 451.843 42.9653C451.656 42.7784 451.404 42.6708 451.14 42.6651Z" fill="#DFE1E2"/>
<path d="M654.008 264.886H407.986C404.875 264.883 401.893 263.645 399.693 261.445C397.493 259.244 396.255 256.261 396.252 253.149V33.808C396.255 30.696 397.493 27.7125 399.693 25.5121C401.892 23.3116 404.875 22.0738 407.986 22.0703H654.008C657.119 22.0738 660.101 23.3116 662.301 25.5121C664.501 27.7125 665.738 30.696 665.742 33.808V253.149C665.738 256.261 664.501 259.244 662.301 261.445C660.101 263.645 657.119 264.883 654.008 264.886ZM407.986 23.4081C405.23 23.4113 402.587 24.508 400.638 26.4577C398.689 28.4073 397.593 31.0508 397.589 33.808V253.149C397.593 255.906 398.689 258.55 400.638 260.499C402.587 262.449 405.23 263.546 407.986 263.549H654.008C656.764 263.546 659.407 262.449 661.356 260.499C663.305 258.55 664.401 255.906 664.404 253.149V33.808C664.401 31.0508 663.305 28.4073 661.356 26.4577C659.407 24.508 656.764 23.4113 654.008 23.4081H407.986Z" fill="#DFE1E2"/>
<path d="M407.579 171.309L494.096 171.045L580.172 170.783L628.728 170.636C628.988 170.627 629.234 170.517 629.415 170.33C629.595 170.143 629.697 169.893 629.697 169.632C629.697 169.372 629.595 169.122 629.415 168.935C629.234 168.748 628.988 168.638 628.728 168.629L542.21 168.892L456.135 169.154L407.579 169.302C407.319 169.311 407.073 169.42 406.892 169.608C406.711 169.795 406.61 170.045 406.61 170.305C406.61 170.565 406.711 170.816 406.892 171.003C407.073 171.19 407.319 171.3 407.579 171.309Z" fill="#DFE1E2"/>
<path d="M492.575 170.024L493.879 130.308L494.251 118.96C494.294 117.669 492.288 117.67 492.245 118.96L490.941 158.677L490.569 170.024C490.527 171.316 492.533 171.315 492.575 170.024Z" fill="#DFE1E2"/>
<path d="M533.814 100.134C533.028 114.201 531.572 155.694 530.786 169.761C530.714 171.052 532.72 171.048 532.792 169.761C533.579 155.694 535.034 114.201 535.82 100.134C535.892 98.8438 533.886 98.8479 533.814 100.134Z" fill="#DFE1E2"/>
<path d="M574.854 155.645L574.608 169.166C574.584 170.458 576.59 170.458 576.614 169.166C576.904 153.197 577.649 153.718 577.731 149.211C577.754 147.919 575.748 147.919 575.725 149.211C575.725 149.211 575.144 139.676 574.854 155.645Z" fill="#DFE1E2"/>
<path d="M615.051 120.125L615.278 158.059L615.343 168.921C615.352 169.181 615.461 169.427 615.648 169.608C615.836 169.789 616.086 169.89 616.346 169.89C616.606 169.89 616.856 169.789 617.043 169.608C617.23 169.427 617.34 169.181 617.349 168.921L617.122 130.987L617.057 120.125C617.048 119.865 616.938 119.619 616.751 119.438C616.564 119.257 616.314 119.156 616.054 119.156C615.794 119.156 615.544 119.257 615.357 119.438C615.169 119.619 615.06 119.865 615.051 120.125Z" fill="#DFE1E2"/>
<path d="M407.74 170.18C406.08 165.616 409.823 161.225 413.669 159.253C418.277 156.889 423.578 156.353 428.235 154.075C435.178 150.678 440.235 144.582 444.734 138.48C449.366 132.199 453.603 125.459 459.488 120.24C462.589 117.429 466.252 115.309 470.234 114.02C475.25 112.454 480.571 112.346 485.755 112.978C496.467 114.282 506.397 118.707 516.732 121.52C526.477 124.172 537.213 125.664 546.778 121.54C551.637 119.444 555.611 115.93 559.879 112.889C564.01 109.916 568.628 107.687 573.526 106.304C583.128 103.633 593.613 104.347 602.552 108.861C610.769 112.958 617.275 119.827 620.921 128.255C625.159 138.381 624.607 149.697 623.223 160.356C622.865 163.111 622.439 165.857 622.009 168.602C621.811 169.865 623.743 170.409 623.943 169.135C625.667 158.144 627.386 146.805 625.241 135.745C623.386 126.088 618.077 117.438 610.308 111.413C602.505 105.371 592.806 102.309 582.95 102.776C577.785 103.016 572.701 104.147 567.921 106.119C562.96 108.172 558.759 111.215 554.491 114.416C550.103 117.708 545.581 120.431 540.133 121.505C534.849 122.546 529.353 122.156 524.092 121.172C513.237 119.144 503.12 114.493 492.357 112.11C482.385 109.903 471.625 109.682 462.696 115.317C455.827 119.652 450.974 126.381 446.316 132.879C441.699 139.32 437.024 146.207 430.272 150.607C426.154 153.291 421.524 154.281 416.917 155.791C412.298 157.304 407.864 159.857 405.981 164.59C405.169 166.54 405.107 168.721 405.806 170.714C406.244 171.918 408.183 171.398 407.74 170.18Z" fill="#DFE1E2"/>
<path d="M454.039 131.87C453.575 131.048 452.835 130.418 451.951 130.091C451.067 129.763 450.095 129.76 449.208 130.082C448.768 130.242 448.364 130.49 448.021 130.81C447.677 131.13 447.401 131.515 447.21 131.943C447.171 132.034 447.149 132.13 447.117 132.223C447.074 132.293 447.022 132.357 446.983 132.431C446.567 133.259 446.453 134.207 446.661 135.111C446.869 136.015 447.385 136.818 448.121 137.381C448.857 137.945 449.766 138.235 450.692 138.2C451.619 138.166 452.504 137.809 453.196 137.192C453.923 136.534 454.403 135.648 454.556 134.68C454.71 133.711 454.527 132.72 454.039 131.87ZM451.526 133.574C451.534 133.625 451.531 133.671 451.526 133.574ZM451.271 132.993C451.262 132.983 451.261 132.982 451.271 132.993ZM450.145 133.446C450.13 133.423 450.129 133.419 450.145 133.446ZM450.412 133.672C450.475 133.694 450.45 133.689 450.412 133.672ZM450.531 133.729L450.557 133.717C450.551 133.717 450.544 133.716 450.539 133.713L450.54 133.713L450.56 133.716L450.564 133.714L450.552 133.711C450.562 133.711 450.563 133.712 450.564 133.714C450.683 133.659 450.603 133.685 450.534 133.707L450.529 133.706C450.486 133.684 450.439 133.669 450.392 133.662C450.387 133.659 450.382 133.657 450.378 133.655C450.34 133.627 450.146 133.476 450.326 133.635C450.287 133.6 450.248 133.566 450.211 133.529C450.189 133.506 450.17 133.482 450.152 133.456C450.128 133.416 450.106 133.375 450.083 133.334L450.08 133.311C450.077 133.293 450.075 133.285 450.072 133.274C450.074 133.263 450.075 133.25 450.077 133.238C450.091 133.202 450.099 133.164 450.103 133.126L450.11 133.116C450.139 133.076 450.164 133.029 450.192 132.987C450.047 133.208 450.249 132.963 450.264 132.932C450.267 132.927 450.262 132.93 450.263 132.926C450.269 132.923 450.267 132.925 450.274 132.921C450.319 132.894 450.362 132.865 450.408 132.839C450.462 132.809 450.677 132.748 450.454 132.812C450.505 132.797 450.553 132.779 450.605 132.766C450.614 132.763 450.689 132.753 450.729 132.745C450.765 132.745 450.799 132.743 450.803 132.744C450.819 132.744 450.836 132.746 450.853 132.746C450.816 132.751 450.979 132.787 451.028 132.794C451.035 132.8 451.039 132.803 451.048 132.81C451.089 132.84 451.139 132.867 451.183 132.895C450.989 132.77 451.185 132.905 451.222 132.942C451.244 132.964 451.265 132.988 451.286 133.011C451.305 133.033 451.322 133.057 451.337 133.082C451.369 133.14 451.403 133.199 451.436 133.257L451.446 133.272C451.445 133.273 451.445 133.275 451.445 133.277C451.463 133.37 451.488 133.462 451.522 133.55C451.524 133.557 451.525 133.565 451.526 133.573C451.529 133.624 451.533 133.674 451.533 133.726L451.533 133.736C451.378 133.655 451.207 133.613 451.033 133.612C450.859 133.61 450.687 133.651 450.531 133.729Z" fill="#DFE1E2"/>
<path d="M496.836 113.14C496.372 112.319 495.632 111.689 494.748 111.361C493.864 111.034 492.892 111.031 492.005 111.352C491.565 111.513 491.161 111.761 490.817 112.08C490.474 112.4 490.198 112.786 490.007 113.214C489.968 113.305 489.946 113.4 489.914 113.494C489.871 113.564 489.819 113.627 489.78 113.701C489.364 114.53 489.25 115.478 489.458 116.381C489.665 117.285 490.182 118.088 490.918 118.652C491.653 119.216 492.563 119.505 493.489 119.471C494.416 119.436 495.301 119.08 495.993 118.462C496.72 117.805 497.2 116.918 497.353 115.95C497.506 114.982 497.324 113.99 496.836 113.14ZM494.323 114.844C494.331 114.895 494.328 114.942 494.323 114.844ZM494.068 114.264C494.059 114.253 494.058 114.252 494.068 114.264ZM492.942 114.716C492.927 114.693 492.925 114.689 492.942 114.716ZM493.209 114.943C493.272 114.964 493.247 114.96 493.209 114.943ZM493.328 114.999L493.354 114.987C493.348 114.988 493.341 114.987 493.336 114.984L493.336 114.983L493.357 114.986L493.361 114.984L493.349 114.981C493.359 114.981 493.36 114.983 493.361 114.984C493.48 114.93 493.4 114.956 493.331 114.977L493.326 114.976C493.283 114.954 493.236 114.939 493.188 114.932C493.184 114.93 493.179 114.928 493.175 114.925C493.137 114.898 492.943 114.746 493.123 114.905C493.083 114.87 493.045 114.836 493.008 114.799C492.986 114.777 492.966 114.753 492.949 114.727C492.925 114.686 492.902 114.645 492.88 114.604L492.877 114.582C492.874 114.563 492.872 114.556 492.869 114.545C492.87 114.533 492.872 114.521 492.874 114.509C492.888 114.473 492.896 114.435 492.9 114.397L492.907 114.387C492.936 114.347 492.961 114.3 492.989 114.258C492.843 114.479 493.046 114.234 493.061 114.202C493.063 114.197 493.059 114.2 493.06 114.196C493.066 114.193 493.064 114.195 493.071 114.191C493.116 114.165 493.159 114.135 493.205 114.11C493.259 114.079 493.474 114.019 493.251 114.082C493.302 114.068 493.35 114.049 493.401 114.036C493.411 114.034 493.486 114.023 493.526 114.016C493.561 114.015 493.596 114.014 493.599 114.014C493.616 114.014 493.633 114.016 493.649 114.017C493.612 114.022 493.776 114.057 493.825 114.065C493.832 114.07 493.835 114.074 493.845 114.081C493.886 114.111 493.936 114.138 493.979 114.166C493.785 114.04 493.982 114.176 494.019 114.213C494.041 114.235 494.062 114.258 494.082 114.282C494.102 114.304 494.119 114.328 494.134 114.353C494.166 114.411 494.2 114.47 494.233 114.527L494.242 114.542C494.242 114.544 494.242 114.546 494.242 114.548C494.26 114.641 494.285 114.732 494.319 114.821C494.321 114.828 494.322 114.836 494.323 114.843C494.326 114.894 494.33 114.945 494.33 114.996L494.33 115.007C494.175 114.926 494.004 114.883 493.83 114.882C493.655 114.881 493.484 114.921 493.328 114.999Z" fill="#DFE1E2"/>
<path d="M493.364 114.984C493.368 114.986 493.363 114.986 493.363 114.986L493.364 114.984Z" fill="#DFE1E2"/>
<path d="M538.295 94.4098C537.832 93.5885 537.092 92.9581 536.208 92.6307C535.323 92.3034 534.352 92.3001 533.465 92.6216C533.025 92.7825 532.621 93.0301 532.277 93.3499C531.934 93.6697 531.658 94.055 531.466 94.4833C531.428 94.5743 531.406 94.67 531.374 94.7632C531.331 94.8335 531.279 94.897 531.24 94.9705C530.824 95.7993 530.71 96.7472 530.918 97.6509C531.125 98.5546 531.642 99.3576 532.377 99.9215C533.113 100.485 534.023 100.775 534.949 100.74C535.875 100.706 536.761 100.349 537.452 99.7318C538.18 99.0744 538.66 98.1879 538.813 97.2197C538.966 96.2514 538.784 95.2598 538.295 94.4098ZM535.783 96.114C535.791 96.1646 535.788 96.2112 535.783 96.114ZM535.528 95.5331C535.519 95.523 535.518 95.5217 535.528 95.5331ZM534.402 95.9858C534.387 95.9626 534.385 95.9588 534.402 95.9858ZM534.669 96.2121C534.732 96.2338 534.707 96.2292 534.669 96.2121ZM534.788 96.2689L534.814 96.2568C534.808 96.2574 534.801 96.2561 534.796 96.2531L534.796 96.253L534.817 96.2555L534.821 96.2538L534.809 96.251C534.819 96.2506 534.82 96.2522 534.821 96.2538C534.94 96.1991 534.86 96.2253 534.791 96.2468L534.786 96.2457C534.743 96.2237 534.696 96.2089 534.648 96.2015C534.644 96.1991 534.639 96.1973 534.635 96.1946C534.597 96.1673 534.402 96.0156 534.583 96.1746C534.543 96.14 534.505 96.106 534.468 96.0686C534.446 96.0463 534.426 96.0221 534.409 95.9963C534.385 95.9557 534.362 95.9148 534.34 95.8736L534.337 95.8513C534.334 95.8328 534.332 95.8252 534.329 95.8141C534.33 95.8026 534.332 95.7903 534.334 95.7783C534.347 95.7422 534.356 95.7045 534.36 95.6661L534.367 95.6563C534.396 95.6161 534.421 95.5692 534.449 95.5274C534.303 95.7483 534.506 95.503 534.521 95.472C534.523 95.4667 534.519 95.4696 534.52 95.4659C534.526 95.4626 534.524 95.4649 534.531 95.4607C534.576 95.4342 534.619 95.4046 534.665 95.3792C534.719 95.349 534.934 95.288 534.711 95.3517C534.762 95.3372 534.81 95.319 534.861 95.3056C534.871 95.3032 534.946 95.2927 534.986 95.2855C535.021 95.2846 535.056 95.2835 535.059 95.2835C535.076 95.2838 535.093 95.2858 535.109 95.2865C535.072 95.2915 535.236 95.3269 535.285 95.3343C535.292 95.3398 535.295 95.3434 535.305 95.3504C535.346 95.3804 535.396 95.4071 535.439 95.4352C535.245 95.3098 535.442 95.4451 535.479 95.4822C535.501 95.5044 535.522 95.528 535.542 95.5513C535.562 95.5735 535.579 95.5972 535.594 95.6222C535.626 95.6805 535.66 95.7395 535.693 95.7969L535.702 95.8116C535.702 95.8135 535.702 95.8154 535.702 95.8173C535.72 95.9103 535.745 96.0016 535.779 96.09C535.781 96.0975 535.782 96.1051 535.783 96.1127C535.786 96.1637 535.79 96.2145 535.79 96.2657L535.79 96.2761C535.635 96.1955 535.464 96.1528 535.29 96.1516C535.115 96.1503 534.943 96.1906 534.788 96.2689Z" fill="#DFE1E2"/>
<path d="M580.424 145.918C579.961 145.096 579.221 144.466 578.337 144.139C577.452 143.811 576.481 143.808 575.594 144.129C575.154 144.29 574.75 144.538 574.406 144.858C574.063 145.177 573.787 145.563 573.595 145.991C573.557 146.082 573.535 146.178 573.503 146.271C573.46 146.341 573.407 146.405 573.369 146.478C572.953 147.307 572.839 148.255 573.047 149.159C573.254 150.062 573.771 150.865 574.506 151.429C575.242 151.993 576.152 152.283 577.078 152.248C578.004 152.214 578.89 151.857 579.581 151.24C580.308 150.582 580.789 149.696 580.942 148.727C581.095 147.759 580.913 146.768 580.424 145.918ZM577.912 147.622C577.92 147.672 577.917 147.719 577.912 147.622ZM577.656 147.041C577.648 147.031 577.647 147.03 577.656 147.041ZM576.531 147.494C576.516 147.47 576.514 147.467 576.531 147.494ZM576.798 147.72C576.861 147.742 576.836 147.737 576.798 147.72ZM576.917 147.777L576.943 147.765C576.937 147.765 576.93 147.764 576.924 147.761L576.925 147.761L576.946 147.763L576.95 147.762L576.938 147.759C576.948 147.758 576.949 147.76 576.95 147.762C577.069 147.707 576.989 147.733 576.919 147.755L576.915 147.753C576.872 147.732 576.825 147.717 576.777 147.709C576.773 147.707 576.768 147.705 576.764 147.702C576.725 147.675 576.531 147.523 576.711 147.682C576.672 147.648 576.634 147.614 576.597 147.576C576.575 147.554 576.555 147.53 576.538 147.504C576.514 147.464 576.491 147.423 576.469 147.381L576.466 147.359C576.463 147.341 576.461 147.333 576.458 147.322C576.459 147.31 576.461 147.298 576.463 147.286C576.476 147.25 576.485 147.212 576.488 147.174L576.496 147.164C576.525 147.124 576.55 147.077 576.578 147.035C576.432 147.256 576.635 147.011 576.65 146.98C576.652 146.974 576.648 146.977 576.649 146.974C576.655 146.97 576.653 146.973 576.66 146.969C576.705 146.942 576.748 146.912 576.794 146.887C576.848 146.857 577.063 146.796 576.84 146.859C576.891 146.845 576.939 146.827 576.99 146.813C577 146.811 577.074 146.801 577.115 146.793C577.15 146.792 577.185 146.791 577.188 146.791C577.205 146.792 577.222 146.794 577.238 146.794C577.201 146.799 577.365 146.835 577.414 146.842C577.421 146.848 577.424 146.851 577.434 146.858C577.475 146.888 577.525 146.915 577.568 146.943C577.374 146.818 577.571 146.953 577.608 146.99C577.63 147.012 577.65 147.036 577.671 147.059C577.69 147.081 577.708 147.105 577.723 147.13C577.755 147.188 577.789 147.247 577.822 147.305L577.831 147.319C577.831 147.321 577.831 147.323 577.831 147.325C577.848 147.418 577.874 147.509 577.908 147.598C577.909 147.605 577.911 147.613 577.912 147.621C577.915 147.671 577.919 147.722 577.919 147.774L577.919 147.784C577.764 147.703 577.593 147.661 577.419 147.659C577.244 147.658 577.072 147.698 576.917 147.777Z" fill="#DFE1E2"/>
<path d="M619.878 115.146C619.415 114.325 618.675 113.694 617.791 113.367C616.906 113.04 615.935 113.036 615.048 113.358C614.608 113.519 614.204 113.766 613.86 114.086C613.517 114.406 613.241 114.791 613.049 115.22C613.011 115.311 612.989 115.406 612.957 115.5C612.914 115.57 612.862 115.633 612.823 115.707C612.407 116.536 612.293 117.484 612.501 118.387C612.708 119.291 613.225 120.094 613.96 120.658C614.696 121.222 615.606 121.511 616.532 121.477C617.458 121.442 618.344 121.085 619.035 120.468C619.763 119.811 620.243 118.924 620.396 117.956C620.549 116.988 620.367 115.996 619.878 115.146ZM617.366 116.85C617.374 116.901 617.371 116.947 617.366 116.85ZM617.111 116.269C617.102 116.259 617.101 116.258 617.111 116.269ZM615.985 116.722C615.97 116.699 615.968 116.695 615.985 116.722ZM616.252 116.948C616.315 116.97 616.29 116.966 616.252 116.948ZM616.371 117.005L616.397 116.993C616.391 116.994 616.384 116.992 616.379 116.989L616.379 116.989L616.4 116.992L616.404 116.99L616.392 116.987C616.402 116.987 616.403 116.989 616.404 116.99C616.523 116.935 616.443 116.962 616.374 116.983L616.369 116.982C616.326 116.96 616.279 116.945 616.231 116.938C616.227 116.935 616.222 116.934 616.218 116.931C616.18 116.904 615.985 116.752 616.166 116.911C616.126 116.876 616.088 116.842 616.051 116.805C616.029 116.783 616.009 116.758 615.992 116.733C615.968 116.692 615.945 116.651 615.923 116.61L615.92 116.588C615.917 116.569 615.915 116.561 615.912 116.55C615.913 116.539 615.915 116.527 615.917 116.515C615.93 116.479 615.939 116.441 615.943 116.402L615.95 116.393C615.979 116.352 616.004 116.306 616.032 116.264C615.886 116.485 616.089 116.239 616.104 116.208C616.106 116.203 616.102 116.206 616.103 116.202C616.109 116.199 616.107 116.201 616.114 116.197C616.159 116.17 616.202 116.141 616.248 116.116C616.302 116.085 616.517 116.024 616.294 116.088C616.345 116.074 616.393 116.055 616.444 116.042C616.454 116.04 616.529 116.029 616.569 116.022C616.604 116.021 616.639 116.02 616.642 116.02C616.659 116.02 616.676 116.022 616.692 116.023C616.655 116.028 616.819 116.063 616.868 116.071C616.875 116.076 616.878 116.08 616.888 116.087C616.929 116.117 616.979 116.143 617.022 116.172C616.828 116.046 617.025 116.181 617.062 116.219C617.084 116.241 617.105 116.264 617.125 116.288C617.145 116.31 617.162 116.334 617.177 116.359C617.209 116.417 617.243 116.476 617.276 116.533L617.285 116.548C617.285 116.55 617.285 116.552 617.285 116.554C617.303 116.647 617.328 116.738 617.362 116.826C617.364 116.834 617.365 116.841 617.366 116.849C617.369 116.9 617.373 116.951 617.373 117.002L617.373 117.012C617.218 116.932 617.047 116.889 616.873 116.888C616.698 116.887 616.526 116.927 616.371 117.005Z" fill="#DFE1E2"/>
<path d="M616.4 106.992L616.397 106.994L616.403 106.992H616.4Z" fill="#DFE1E2"/>
<path d="M616.404 106.99L616.406 106.991L616.404 106.99Z" fill="#DFE1E2"/>
<path d="M616.406 106.991C616.41 106.993 616.405 106.993 616.405 106.993L616.406 106.991Z" fill="#DFE1E2"/>
<path d="M616.406 106.992L616.402 106.993C616.407 106.993 616.406 106.992 616.406 106.992Z" fill="#DFE1E2"/>
<path d="M605.588 137.648L574.495 139.376C574.32 139.386 574.148 139.328 574.014 139.215C573.88 139.101 573.795 138.94 573.776 138.766C573.757 138.591 573.805 138.416 573.911 138.276C574.018 138.137 574.174 138.043 574.347 138.015L606.127 132.842L605.588 137.648Z" fill="#3F3D56"/>
<path d="M645.102 206.891L654.819 187.173L665.479 191.264C665.479 191.264 650.557 209.908 650.082 210.444C650.285 211.351 650.209 212.297 649.863 213.159C649.517 214.021 648.918 214.758 648.144 215.271C647.37 215.785 646.459 216.052 645.531 216.036C644.602 216.021 643.701 215.723 642.945 215.184C642.189 214.645 641.615 213.888 641.298 213.015C640.981 212.142 640.936 211.194 641.17 210.295C641.404 209.396 641.905 208.589 642.607 207.982C643.31 207.374 644.18 206.994 645.102 206.891Z" fill="#C7949C"/>
<path d="M649.977 161.087L668.96 170.994C670.146 171.849 671.141 172.942 671.881 174.203C672.621 175.465 673.09 176.867 673.257 178.32C673.425 179.773 673.287 181.245 672.854 182.641C672.42 184.038 671.7 185.329 670.739 186.432L660.652 199.448L651.951 190.72L654.345 184.53L647.837 182.285L649.977 161.087Z" fill="#0B4778"/>
<path d="M595.881 137.969L596.742 160.808L584.165 160.824C584.165 160.824 589.66 137.582 589.86 136.894C589.287 136.162 588.951 135.274 588.894 134.347C588.837 133.42 589.063 132.498 589.542 131.702C590.021 130.906 590.73 130.275 591.575 129.891C592.421 129.507 593.363 129.389 594.277 129.552C595.191 129.715 596.034 130.152 596.694 130.805C597.355 131.458 597.801 132.296 597.975 133.209C598.149 134.121 598.042 135.065 597.668 135.915C597.294 136.765 596.671 137.481 595.881 137.969Z" fill="#C7949C"/>
<path d="M614.944 184.675L592.9 180.631C583.618 179.514 579.808 173.405 581.483 167.446L586.873 148.268L597.335 151.806L597.303 161.993L607.148 161.373L614.944 184.675Z" fill="#0B4778"/>
<path d="M605.921 342.51H596.86L593.977 319.123H605.923L605.921 342.51Z" fill="#C7949C"/>
<path d="M606.135 348.834L584.496 348.833V348.598C584.496 346.673 585.261 344.827 586.621 343.466C587.982 342.105 589.827 341.341 591.751 341.341L595.156 338.757L601.509 341.341L606.136 341.341L606.135 348.834Z" fill="#11181D"/>
<path d="M648.809 342.51H657.87L660.754 319.123H648.808L648.809 342.51Z" fill="#C7949C"/>
<path d="M648.595 348.834L670.234 348.833V348.598C670.234 346.673 669.47 344.827 668.109 343.466C666.749 342.105 664.903 341.341 662.979 341.341L659.574 338.757L653.222 341.341L648.595 341.341L648.595 348.834Z" fill="#11181D"/>
<path d="M590.71 301.937C590.799 300.603 591.511 293.223 591.511 293.223L590.71 278.203L590.221 236.085L592.899 225.18L618.157 230.346L628.914 225.187L641.701 229.276L657.657 233.011C657.657 233.011 657.674 234.609 657.751 236.541C657.853 239.069 658.032 242.168 658.458 242.974C659.17 244.398 658.991 252.043 658.991 252.043C658.991 252.043 659.698 267.595 660.589 269.301C661.48 271.006 661.659 274.558 661.39 275.27C661.122 275.982 662.281 294.66 662.281 294.66C662.281 294.66 665.257 327.713 663.39 332.697C661.523 337.681 648.469 334.416 648.469 334.416C648.469 334.416 648.81 333.086 646.764 332.459C644.718 331.832 638.487 284.965 638.487 284.965C638.487 284.965 637.328 275.355 636.262 272.601C635.197 269.846 634.216 262.108 634.216 262.108C634.216 262.108 627.636 249.301 627.55 246.453C627.55 246.453 626.689 243.789 625.875 246.722C625.061 249.655 622.662 256.681 622.662 256.681L620.322 265.31L617.569 278.203L615.787 289.057C615.787 289.057 613.119 303.463 612.693 304.086C612.266 304.708 612.693 317.869 612.693 317.869C612.693 317.869 610.63 329.078 607.715 331.035C604.799 332.992 591.076 331.066 591.076 331.066C591.076 331.066 590.62 303.272 590.71 301.937Z" fill="#11181D"/>
<path fill-rule="evenodd" clip-rule="evenodd" d="M592.927 212.042L599.621 190.09L599.054 187.844L599.875 163.735L598.17 164.106L599.023 162.253L605.714 160.922L614.562 159.536L621.198 154.084L632.135 153.91L638.43 158.243L650.041 161.243L648.043 182.821L651.184 197.416L652 200.57L652.855 203.576L658.587 230.679C658.667 231.277 658.614 231.885 658.432 232.46C658.251 233.036 657.946 233.564 657.538 234.008C657.13 234.452 656.63 234.801 656.072 235.031C655.515 235.261 654.914 235.365 654.312 235.337L592.423 233.274C591.817 233.246 591.225 233.084 590.69 232.8C590.154 232.516 589.687 232.118 589.323 231.633C588.959 231.148 588.706 230.588 588.584 229.994C588.461 229.401 588.47 228.787 588.612 228.197L590 220.57L590.259 219.374L592.91 212.07L592.893 212.078L592.927 212.042Z" fill="#0B4778"/>
<path d="M626.421 150.969C633.537 150.969 639.305 145.199 639.305 138.082C639.305 130.964 633.537 125.194 626.421 125.194C619.306 125.194 613.538 130.964 613.538 138.082C613.538 145.199 619.306 150.969 626.421 150.969Z" fill="#C7949C"/>
<path d="M623.315 150.137L632.624 149.662C633.816 149.601 635.118 149.496 635.986 148.675C636.452 148.168 636.811 147.571 637.041 146.922C637.901 144.922 638.762 142.923 639.6 140.914C640.76 138.135 641.899 135.201 641.603 132.205C641.534 130.836 640.96 129.542 639.993 128.572C639.499 128.104 638.865 127.814 638.188 127.745C637.512 127.677 636.832 127.834 636.255 128.193C636.111 127.245 635.754 126.342 635.211 125.553C634.667 124.764 633.951 124.108 633.117 123.636C631.433 122.705 629.509 122.297 627.592 122.464C624.81 122.644 622.154 123.691 619.998 125.458C619.392 126.018 618.744 126.531 618.061 126.994C617.717 127.224 617.33 127.381 616.924 127.456C616.517 127.532 616.099 127.523 615.696 127.432C615.297 127.325 614.95 127.077 614.719 126.734C614.488 126.391 614.389 125.976 614.44 125.566C613.785 126.056 613.335 126.773 613.179 127.577C613.024 128.381 613.173 129.214 613.598 129.914C613.115 130.116 612.587 130.19 612.067 130.129C611.547 130.067 611.051 129.872 610.629 129.562C610.176 129.787 609.775 130.104 609.452 130.493C609.129 130.881 608.89 131.333 608.751 131.819C608.613 132.306 608.577 132.815 608.647 133.316C608.717 133.817 608.89 134.298 609.157 134.727C609.423 135.157 609.776 135.527 610.193 135.812C610.61 136.098 611.082 136.293 611.579 136.385C612.076 136.477 612.587 136.465 613.079 136.348C613.571 136.232 614.033 136.014 614.436 135.708C615.001 136.5 614.79 137.576 614.717 138.545C614.643 139.515 614.903 140.72 615.837 140.988C617.101 141.351 618.124 139.649 619.439 139.667C619.763 139.693 620.076 139.799 620.349 139.976C620.622 140.152 620.848 140.393 621.006 140.677C621.316 141.249 621.528 141.868 621.633 142.51L623.315 150.084" fill="#11181D"/>
<path d="M543.064 192.806H531.598C530.967 192.805 530.358 192.577 529.882 192.164C529.406 191.75 529.095 191.178 529.007 190.554C528.299 185.342 528.299 180.059 529.007 174.848C529.094 174.231 529.399 173.665 529.866 173.252C530.332 172.84 530.931 172.607 531.554 172.596C535.162 170.978 539.047 170.979 543.103 172.596C543.481 172.601 543.853 172.688 544.194 172.853C544.534 173.017 544.834 173.253 545.073 173.546C545.323 173.851 545.501 174.207 545.596 174.589C545.69 174.971 545.699 175.369 545.62 175.755C544.699 180.34 544.699 185.062 545.62 189.647C545.699 190.032 545.69 190.431 545.596 190.813C545.501 191.195 545.323 191.551 545.073 191.855C544.83 192.153 544.523 192.393 544.176 192.557C543.828 192.722 543.448 192.807 543.064 192.806Z" fill="#0B4778"/>
<path d="M541.863 178.584H532.213C532.133 178.584 532.054 178.569 531.981 178.539C531.907 178.509 531.84 178.465 531.783 178.409C531.726 178.353 531.682 178.286 531.651 178.212C531.62 178.139 531.604 178.06 531.604 177.98C531.604 177.901 531.62 177.822 531.651 177.748C531.682 177.675 531.726 177.608 531.783 177.552C531.84 177.496 531.907 177.451 531.981 177.421C532.054 177.391 532.133 177.376 532.213 177.377H541.863C541.943 177.376 542.022 177.391 542.096 177.421C542.17 177.451 542.237 177.496 542.293 177.552C542.35 177.608 542.395 177.675 542.425 177.748C542.456 177.822 542.472 177.901 542.472 177.98C542.472 178.06 542.456 178.139 542.425 178.212C542.395 178.286 542.35 178.353 542.293 178.409C542.237 178.465 542.17 178.509 542.096 178.539C542.022 178.569 541.943 178.584 541.863 178.584Z" fill="white"/>
<path d="M541.863 183.41H532.213C532.133 183.411 532.054 183.395 531.981 183.365C531.907 183.335 531.84 183.291 531.783 183.235C531.726 183.179 531.682 183.112 531.651 183.039C531.62 182.965 531.604 182.886 531.604 182.806C531.604 182.727 531.62 182.648 531.651 182.574C531.682 182.501 531.726 182.434 531.783 182.378C531.84 182.322 531.907 182.278 531.981 182.248C532.054 182.218 532.133 182.202 532.213 182.203H541.863C541.943 182.202 542.022 182.218 542.096 182.248C542.17 182.278 542.237 182.322 542.293 182.378C542.35 182.434 542.395 182.501 542.425 182.574C542.456 182.648 542.472 182.727 542.472 182.806C542.472 182.886 542.456 182.965 542.425 183.039C542.395 183.112 542.35 183.179 542.293 183.235C542.237 183.291 542.17 183.335 542.096 183.365C542.022 183.395 541.943 183.411 541.863 183.41Z" fill="white"/>
<path d="M541.864 188.237H532.213C532.134 188.238 532.055 188.223 531.981 188.193C531.907 188.163 531.84 188.118 531.783 188.062C531.727 188.006 531.682 187.939 531.651 187.866C531.62 187.792 531.604 187.713 531.604 187.634C531.604 187.554 531.62 187.475 531.651 187.401C531.682 187.328 531.727 187.261 531.783 187.205C531.84 187.149 531.907 187.105 531.981 187.075C532.055 187.045 532.134 187.03 532.213 187.03H541.864C541.943 187.03 542.022 187.045 542.096 187.075C542.17 187.105 542.237 187.149 542.294 187.205C542.351 187.261 542.395 187.328 542.426 187.401C542.457 187.475 542.473 187.554 542.473 187.634C542.473 187.713 542.457 187.792 542.426 187.866C542.395 187.939 542.351 188.006 542.294 188.062C542.237 188.118 542.17 188.163 542.096 188.193C542.022 188.223 541.943 188.238 541.864 188.237Z" fill="white"/>
<path d="M454.715 240.115C455.173 239.655 455.525 239.099 455.745 238.487C455.966 237.876 456.049 237.224 455.991 236.576C455.932 235.929 455.732 235.303 455.404 234.741C455.077 234.18 454.631 233.697 454.097 233.326L461.173 198.168L453.359 200.678L447.695 234.685C447.132 235.623 446.933 236.735 447.136 237.811C447.338 238.886 447.928 239.85 448.794 240.519C449.659 241.188 450.74 241.517 451.831 241.443C452.922 241.368 453.949 240.896 454.715 240.115Z" fill="#9E616A"/>
<path d="M465.164 165.729L460.316 162.068C460.316 162.068 456.038 161.765 455.281 169.481C454.523 177.196 452.968 192.233 452.968 192.233L445.549 226.606L455.819 228.861L463.765 191.766L468.532 180.75L465.164 165.729Z" fill="#DFE1E2"/>
<path d="M457.171 221.858L484.492 221.402L486.769 202.727H457.171V221.858Z" fill="#9E616A"/>
<path d="M481.76 336.779H488.067L491.068 312.443L481.759 312.444L481.76 336.779Z" fill="#9E616A"/>
<path d="M442.246 337.365L448.553 337.32L451.383 312.964L443.18 314.846L442.246 337.365Z" fill="#9E616A"/>
<path d="M461.973 186.644L460.544 190.36L460.829 194.077L488.8 203.768L487.412 187.501L484.268 183.784L461.973 186.644Z" fill="#FFB6B6"/>
<path d="M473.972 153.195C479.489 153.195 483.962 148.721 483.962 143.202C483.962 137.683 479.489 133.209 473.972 133.209C468.455 133.209 463.982 137.683 463.982 143.202C463.982 148.721 468.455 153.195 473.972 153.195Z" fill="#9E616A"/>
<path d="M480.196 333.668L490.166 333.072V337.345L499.646 343.894C500.114 344.218 500.466 344.682 500.652 345.22C500.837 345.758 500.846 346.342 500.677 346.885C500.508 347.428 500.169 347.903 499.711 348.241C499.252 348.578 498.698 348.76 498.129 348.76H486.259L484.213 344.533L483.414 348.76H478.938L480.196 333.668Z" fill="#11181D"/>
<path d="M440.088 334.267L450.054 333.602L450.084 337.875L459.609 344.357C460.079 344.677 460.435 345.139 460.625 345.676C460.814 346.213 460.827 346.796 460.661 347.34C460.496 347.885 460.161 348.362 459.705 348.703C459.249 349.043 458.696 349.229 458.127 349.233L446.257 349.316L444.181 345.104L443.412 349.336L438.937 349.367L440.088 334.267Z" fill="#11181D"/>
<path d="M440.283 318.706L444.876 281.984L450.34 243.266C446.338 235.833 455.349 212.748 455.349 212.748L456.621 212.809L485.409 218.242L485.402 218.214C491.291 234.279 493.241 242.215 492.919 259.322L491.759 320.819H492.123C492.726 320.819 493.306 321.059 493.732 321.486C494.159 321.913 494.399 322.492 494.399 323.096C494.399 323.7 494.159 324.28 493.732 324.707C493.306 325.134 492.726 325.374 492.123 325.374H480.739C480.439 325.374 480.143 325.316 479.866 325.201C479.589 325.087 479.338 324.92 479.126 324.708C478.914 324.496 478.746 324.245 478.632 323.969C478.517 323.692 478.458 323.396 478.458 323.096C478.458 322.797 478.517 322.5 478.632 322.224C478.746 321.947 478.914 321.696 479.126 321.484C479.338 321.273 479.589 321.105 479.866 320.991C480.143 320.877 480.439 320.818 480.739 320.819H481.032L470.583 247.594L461.724 278.34L451.706 318.424C455.349 317.513 454.783 319.623 454.783 320.819C454.783 321.423 454.543 322.002 454.116 322.429C453.689 322.856 453.11 323.096 452.506 323.096H441.122C440.593 323.097 440.08 322.913 439.672 322.575C439.263 322.238 438.986 321.769 438.886 321.249C438.787 320.728 438.872 320.19 439.127 319.726C439.382 319.261 439.791 318.901 440.283 318.706Z" fill="#0A2F59"/>
<path d="M453.107 213.943L454.018 204.833C454.113 204.462 454.322 204.13 454.617 203.885C454.912 203.64 455.277 203.494 455.66 203.469C456.039 199.13 457.636 180.408 457.731 179.592L457.735 179.557L458.461 164.044C458.487 163.48 458.72 162.946 459.115 162.544C459.51 162.141 460.039 161.899 460.602 161.862L464.436 161.611C464.489 161.609 464.539 161.587 464.575 161.549C464.612 161.511 464.632 161.461 464.632 161.408C464.632 160.985 464.716 160.565 464.878 160.174C465.04 159.782 465.278 159.427 465.577 159.127C465.876 158.828 466.232 158.59 466.623 158.428C467.014 158.266 467.434 158.183 467.857 158.183H479.21C479.945 158.183 480.655 158.452 481.206 158.938C481.758 159.425 482.112 160.096 482.204 160.826C482.209 160.876 482.233 160.923 482.271 160.956C482.308 160.99 482.357 161.008 482.408 161.007H482.409C483.699 160.98 484.956 161.417 485.951 162.238C486.947 163.059 487.615 164.21 487.835 165.482C489.387 174.515 492.497 195.016 490.96 206.414C490.424 210.381 491.578 207.239 491.781 210.559C491.801 210.879 491.758 211.201 491.653 211.505C491.549 211.809 491.386 212.09 491.173 212.33C491.608 212.489 491.964 212.813 492.163 213.232C492.361 213.651 492.386 214.132 492.233 214.57L492.432 214.52C492.374 214.752 492.27 214.97 492.127 215.162C491.985 215.354 491.806 215.516 491.6 215.639C491.395 215.762 491.167 215.843 490.931 215.878C490.694 215.912 490.453 215.9 490.221 215.842L460.52 219.867C459.544 219.621 452.861 214.919 453.107 213.943Z" fill="#DFE1E2"/>
<path d="M532.473 176.904C532.287 177.527 531.967 178.102 531.535 178.587C531.103 179.073 530.57 179.457 529.973 179.714C529.376 179.972 528.73 180.095 528.081 180.075C527.431 180.056 526.794 179.894 526.214 179.601L514.732 190.083L513.207 182.016L524.352 173.325C524.908 172.383 525.79 171.677 526.831 171.342C527.873 171.007 529.001 171.065 530.002 171.506C531.003 171.948 531.807 172.741 532.263 173.736C532.718 174.731 532.793 175.858 532.473 176.904Z" fill="#9E616A"/>
<path d="M492.509 168.893C492.509 168.893 488.505 159.842 483.448 161.641C478.391 163.44 481.002 172.222 481.002 172.222L500.001 200.859C500.001 200.859 527.404 183.275 524.072 183.151C520.739 183.026 519.743 176.964 519.743 176.964L505.26 184.203L504.77 181.626L503.984 182.412L501.957 180.816L492.509 168.893Z" fill="#DFE1E2"/>
<path d="M462.215 137.084C460.683 137.819 458.968 136.713 457.645 135.616L458.118 136.025C455.781 138.3 454.688 141.574 454.154 144.796C453.619 148.015 453.559 151.307 452.886 154.503C452.213 157.696 450.815 160.903 448.205 162.859C444.708 165.478 439.886 165.31 435.595 164.507C435.538 164.495 435.484 164.487 435.427 164.475C436.582 161.14 437.051 157.607 436.807 154.086C435.657 157.614 433.699 160.825 431.089 163.462C428.244 162.679 425.467 161.666 422.785 160.435C421.05 159.636 419.181 158.544 418.7 156.694C418.217 154.858 419.338 152.933 420.837 151.773C422.336 150.614 424.176 150.01 425.884 149.184C427.589 148.362 429.276 147.19 429.959 145.421C431.534 141.351 427.048 136.681 428.796 132.681C429.658 130.714 431.77 129.644 433.754 128.819C436.784 127.563 439.895 126.513 443.067 125.677C445.851 124.942 448.757 124.371 451.594 124.853C454.43 125.334 457.208 127.06 458.229 129.754C459.932 130.33 461.74 130.979 462.833 132.413C463.925 133.843 463.837 136.306 462.215 137.084Z" fill="#11181D"/>
<path d="M475.848 132.367C471.465 128.906 467.921 129.497 465.187 131.647C464.727 131.136 462.771 132.543 462.109 132.34L459.714 136.838C458.481 139.014 457.976 141.235 458.175 142.485C455.908 148.845 461.284 153.14 467.642 155.407C470.179 156.319 472.947 156.359 475.51 155.521L475.588 154.438L476.069 155.326C476.069 155.326 481.882 167.298 483.255 167.835C482.422 165.673 480.224 155.394 479.61 153.252C478.769 150.337 479.344 145.706 479.838 142.866C480.146 141.116 480.162 139.326 479.886 137.57L479.874 137.494L481.233 140.24L484.285 138.32C483.119 134.923 483.095 130.858 475.848 132.367Z" fill="#11181D"/>
<path d="M185.982 162.456H155.66V146.231C155.66 142.21 157.257 138.354 160.101 135.511C162.944 132.668 166.8 131.07 170.821 131.07C174.842 131.07 178.698 132.668 181.542 135.511C184.385 138.354 185.982 142.21 185.982 146.231V162.456Z" fill="#11181D"/>
<path d="M199.519 342.976H206.04L209.143 317.82L199.518 317.821L199.519 342.976Z" fill="#FFB6B6"/>
<path d="M197.854 340.847L210.698 340.847C212.869 340.847 214.951 341.709 216.486 343.244C218.021 344.779 218.884 346.861 218.884 349.032V349.298L197.855 349.298L197.854 340.847Z" fill="#11181D"/>
<path d="M121.557 334.273L127.236 337.479L142.306 317.099L133.923 312.367L121.557 334.273Z" fill="#FFB6B6"/>
<path d="M121.155 331.601L132.339 337.915C134.23 338.982 135.619 340.757 136.201 342.848C136.783 344.939 136.51 347.176 135.443 349.066L135.313 349.298L117 338.96L121.155 331.601Z" fill="#11181D"/>
<path d="M163.238 229.842L162.734 232.358C162.734 232.358 161.224 233.868 161.979 234.623C162.734 235.378 162.483 238.901 162.483 238.901C162.06 245.325 153.667 281.424 152.165 288.475C152.165 288.475 140.59 296.024 131.531 310.871C122.471 325.718 122.22 329.493 122.22 329.493L132.285 333.771L157.45 303.322C157.45 303.322 164.496 299.044 167.012 295.269C169.529 291.494 185.131 252.49 185.131 252.49L193.938 293.256C193.938 293.256 193.435 308.103 195.7 317.665C197.092 323.7 197.934 329.849 198.216 336.035L210.043 334.777C210.043 334.777 209.288 299.044 208.03 295.269C208.03 295.269 213.315 251.735 202.746 234.371L194.228 211.663L185.885 208.452L163.238 229.842Z" fill="#0A2F59"/>
<path d="M170.666 135.036C186.544 135.307 186.541 158.925 170.666 159.194C154.789 158.923 154.791 135.305 170.666 135.036Z" fill="#FFB8B8"/>
<path d="M182.885 146.488H180.187L179.452 144.651L179.819 146.488H165.06L165.54 142.644L161.953 146.488H158.374V144.405C158.371 142.794 158.686 141.198 159.3 139.708C159.915 138.219 160.817 136.865 161.955 135.725C163.094 134.584 164.446 133.679 165.934 133.062C167.423 132.445 169.018 132.127 170.629 132.127C172.241 132.127 173.836 132.445 175.325 133.062C176.813 133.679 178.165 134.584 179.303 135.725C180.442 136.865 181.344 138.219 181.959 139.708C182.573 141.198 182.888 142.794 182.885 144.405V146.488Z" fill="#11181D"/>
<path d="M187.038 166.25L157.032 166.493L163.374 230.815C163.374 230.815 198.462 228.963 198.484 218.253L195.197 208.735L187.038 166.25Z" fill="#28A0CB"/>
<path d="M242.879 278.485L138.283 300.145C137.213 300.364 135.98 298.771 135.525 296.583L124.531 243.495C124.078 241.307 124.579 239.356 125.647 239.131L230.244 217.47C231.313 217.252 232.547 218.844 233.001 221.032L243.995 274.12C244.447 276.308 243.946 278.261 242.879 278.485Z" fill="white"/>
<path d="M163.638 262.524C168.797 262.524 172.979 258.342 172.979 253.183C172.979 248.025 168.797 243.843 163.638 243.843C158.48 243.843 154.298 248.025 154.298 253.183C154.298 258.342 158.48 262.524 163.638 262.524Z" fill="#F0F0F0"/>
<path d="M198.157 275.429L153.288 284.721C153.231 284.733 153.174 284.74 153.117 284.742L166.727 243.59C166.809 243.334 166.958 243.105 167.157 242.925C167.357 242.745 167.601 242.622 167.864 242.568C168.127 242.513 168.4 242.53 168.655 242.615C168.909 242.701 169.137 242.852 169.314 243.054L188.664 264.772L189.591 265.811L198.157 275.429Z" fill="#DFE1E2"/>
<path d="M223.137 270.256L184.329 278.293L189.587 265.813L189.965 264.914L196.817 248.65C196.945 248.396 197.125 248.172 197.346 247.993C197.566 247.813 197.822 247.682 198.096 247.608C198.371 247.534 198.657 247.519 198.938 247.563C199.219 247.607 199.487 247.709 199.726 247.864C199.788 247.909 199.847 247.958 199.903 248.011L223.137 270.256Z" fill="#DFE1E2"/>
<path d="M242.879 278.485L138.283 300.145C137.213 300.364 135.98 298.771 135.525 296.583L124.531 243.495C124.078 241.307 124.579 239.356 125.647 239.131L230.244 217.47C231.313 217.252 232.547 218.844 233.001 221.032L243.995 274.12C244.447 276.308 243.946 278.261 242.879 278.485ZM125.976 240.716C125.334 240.849 125.035 242.022 125.306 243.335L136.3 296.422C136.571 297.735 137.312 298.691 137.954 298.56L242.551 276.899C243.192 276.766 243.491 275.594 243.22 274.281L232.227 221.193C231.955 219.88 231.214 218.924 230.572 219.055L125.976 240.716Z" fill="#A9AEB1"/>
<path d="M211.934 229.347C211.273 229.037 210.689 228.586 210.222 228.026C209.755 227.466 209.416 226.811 209.23 226.106C209.044 225.401 209.014 224.663 209.144 223.946C209.273 223.228 209.559 222.548 209.98 221.952L203.903 212.308L208.864 207.186L217.253 220.926C218.207 221.699 218.843 222.796 219.043 224.007C219.242 225.219 218.99 226.461 218.334 227.499C217.678 228.537 216.664 229.299 215.485 229.639C214.305 229.98 213.042 229.876 211.934 229.347Z" fill="#FFB6B6"/>
<path d="M182.427 168.783L186.78 165.914C186.78 165.914 190.139 166.667 193.712 173.539C197.285 180.412 211.693 211.134 211.693 211.134L205.771 217.147L189.972 193.044L182.427 168.783Z" fill="#28A0CB"/>
<path d="M155.748 237.033C156.209 236.468 156.54 235.809 156.719 235.102C156.898 234.395 156.919 233.657 156.782 232.941C156.645 232.224 156.352 231.547 155.925 230.956C155.498 230.365 154.946 229.875 154.309 229.52L155.612 218.196L148.924 215.726L147.308 231.743C146.783 232.853 146.683 234.117 147.028 235.296C147.373 236.474 148.138 237.485 149.178 238.137C150.219 238.789 151.462 239.037 152.673 238.833C153.884 238.63 154.978 237.989 155.748 237.033Z" fill="#FFB6B6"/>
<path d="M160.98 172.032L157.032 166.514C157.032 166.514 154.33 165.914 151.139 169.638C147.947 173.362 146.085 219.909 146.085 219.909L157.788 222.569L164.704 189.587L160.98 172.032Z" fill="#28A0CB"/>
<path d="M148.881 253.184L131.571 256.859C131.765 251.198 130.369 245.415 127.896 239.549L145.206 235.874C144.586 238.857 144.593 241.935 145.226 244.915C145.859 247.895 147.103 250.71 148.881 253.184Z" fill="#0B4778"/>
<path d="M141.79 240.437L131.299 242.664L131.744 244.762L142.235 242.535L141.79 240.437Z" fill="white"/>
<path d="M142.679 244.634L132.188 246.861L132.634 248.96L143.125 246.732L142.679 244.634Z" fill="white"/>
<path d="M143.571 248.83L133.08 251.058L133.526 253.156L144.017 250.928L143.571 248.83Z" fill="white"/>
</g>
<defs>
<clipPath id="clip0_346_1287">
<rect width="1120" height="374.542" fill="white"/>
</clipPath>
</defs>
</svg>
