<?xml version="1.0" encoding="UTF-8"?>
<svg width="96px" height="96px" viewBox="0 0 96 96" version="1.1" xmlns="http://www.w3.org/2000/svg" xmlns:xlink="http://www.w3.org/1999/xlink" role="img" aria-hidden="true">
    <!-- Generator: Sketch 40.3 (33839) - http://www.bohemiancoding.com/sketch -->
    <title>Open</title>
    <desc>Representing our commitment to open source</desc>
    <defs></defs>
    <g stroke="none" stroke-width="1" fill="none" fill-rule="evenodd">
        <g transform="translate(-374.000000, -1209.000000)">
            <path d="M421.8692,1290.2584 L421.8692,1302.4068 C419.9352,1288.966 375.8992,1292.9072 375.8992,1292.9072 L375.8992,1215.4872 C375.8992,1215.4872 379.0292,1215.7036 384.0512,1216.3116" id="Shape" stroke="#00CFFF" stroke-width="4"></path>
            <path d="M421.8692,1302.4068 C423.8032,1288.966 467.8392,1292.9072 467.8392,1292.9072 L467.8392,1215.4872 C467.8392,1215.4872 464.5704,1215.6964 459.6872,1216.2808" id="Shape" stroke="#00CFFF" stroke-width="4"></path>
            <path d="M421.8692,1290.2584 C420.278,1279.5052 384.0512,1282.658 384.0512,1282.658 L384.0512,1211.952 C384.0512,1211.952 420.2784,1214.158 421.8692,1224.9112 L421.8692,1290.2584 L421.8692,1290.2584 Z" id="Shape" stroke="#00CFFF" stroke-width="4"></path>
            <path d="M421.8692,1290.2584 C423.4604,1279.5052 459.6872,1282.658 459.6872,1282.658 L459.6872,1211.952 C459.6872,1211.952 423.46,1214.158 421.8692,1224.9112 C421.8692,1224.9268 421.8692,1290.2584 421.8692,1290.2584 L421.8692,1290.2584 Z" id="Shape" stroke="#00CFFF" stroke-width="4"></path>
            <rect id="Rectangle-path" x="374" y="1209" width="96" height="96"></rect>
        </g>
    </g>
</svg>
