<?xml version="1.0" encoding="UTF-8"?>
<svg width="97px" height="97px" viewBox="0 0 97 97" version="1.1" xmlns="http://www.w3.org/2000/svg" xmlns:xlink="http://www.w3.org/1999/xlink" role="img" aria-hidden="true">
    <!-- Generator: Sketch 40.3 (33839) - http://www.bohemiancoding.com/sketch -->
    <title>Respect</title>
    <desc>Hands shaking</desc>
    <defs></defs>
    <g stroke="none" stroke-width="1" fill="none" fill-rule="evenodd">
        <g transform="translate(-375.000000, -1338.000000)">
            <path d="M441.1912,1399.0928 L432.6248,1391.898" id="Shape" stroke="#00CFFF" stroke-width="4"></path>
            <path d="M433.3188,1403.454 L426.3352,1397.738" id="Shape" stroke="#00CFFF" stroke-width="4"></path>
            <path d="M395.1892,1388.3516 C397.6744,1395.4952 417.688,1410.9604 417.688,1410.9604 C422.5144,1415.0448 426.8772,1408.8108 422.9092,1405.4524 L419.8668,1402.4996" id="Shape" stroke="#00CFFF" stroke-width="4"></path>
            <path d="M419.8664,1402.4996 L428.1428,1409.6864 C432.904,1413.716 437.5484,1407.1416 433.6144,1403.8124 L435.702,1405.5788 C439.8636,1409.1008 445.3416,1402.6052 441.1912,1399.0928 L441.5136,1399.3656 C445.6764,1402.8884 451.1532,1396.392 447.0024,1392.8796 L426.5152,1376.1748 C426.5152,1376.1748 422.5628,1377.6896 421.0344,1377.2528 C421.0344,1377.2528 415.1356,1386.3 410.8228,1383.1556 C406.51,1380.0112 410.8224,1366.6232 422.9456,1364.7104 C422.9456,1364.7104 428.4016,1363.1548 441.764,1370.0416 L446.7176,1368.5416" id="Shape" stroke="#00CFFF" stroke-width="4"></path>
            <rect stroke="#00CFFF" stroke-width="4.00017018" transform="translate(389.870064, 1379.440373) rotate(195.812395) translate(-389.870064, -1379.440373) " x="382.323743" y="1363.81431" width="15.0926421" height="31.2521295"></rect>
            <rect stroke="#00CFFF" stroke-width="4.00017018" transform="translate(458.177900, 1380.243633) rotate(-15.812395) translate(-458.177900, -1380.243633) " x="450.631579" y="1364.61757" width="15.0926421" height="31.2521295"></rect>
            <path d="M400.814,1368.4884 C400.814,1368.4884 401.5176,1367.2108 416.9196,1366.8764" id="Shape" stroke="#00CFFF" stroke-width="4"></path>
            <path d="M448.324,1395.014 C448.324,1395.014 452.1416,1396.0032 454.1448,1393.714" id="Shape" stroke="#00CFFF" stroke-width="4"></path>
            <rect x="375.9936" y="1338.988" width="96" height="96"></rect>
        </g>
    </g>
</svg>
