<?xml version="1.0" encoding="UTF-8"?>
<svg width="445px" height="281px" viewBox="0 0 445 281" version="1.1" xmlns="http://www.w3.org/2000/svg" xmlns:xlink="http://www.w3.org/1999/xlink">
    <!-- Generator: Sketch 40.3 (33839) - http://www.bohemiancoding.com/sketch -->
    <title>Shape</title>
    <desc>Created with Sketch.</desc>
    <defs></defs>
    <g id="Page-1" stroke="none" stroke-width="1" fill="none" fill-rule="evenodd">
        <path d="M248.1,270 L434,83.9 C441.2,77 444.8,68.5 444.8,58.2 C444.8,47.9 441.2,39.4 434,32.5 L412.6,10.8 C405.6,3.8 397,0.2 386.9,0.2 C377,0.2 368.3,3.7 360.9,10.8 L222.4,149.5 L83.7,10.8 C76.7,3.8 68.1,0.2 58,0.2 C48.1,0.2 39.4,3.7 32,10.8 L10.6,32.5 C3.6,39.5 1.77635684e-15,48.1 1.77635684e-15,58.2 C1.77635684e-15,68.3 3.5,76.9 10.6,83.9 L196.4,270 C203.8,277 212.5,280.6 222.4,280.6 C232.5,280.6 241.1,277.1 248.1,270 L248.1,270 Z" id="Shape" fill="#000000" transform="translate(222.400000, 140.400000) scale(1, -1) translate(-222.400000, -140.400000) "></path>
    </g>
</svg>