<?xml version="1.0" encoding="UTF-8"?>
<svg width="47px" height="49px" viewBox="0 0 47 49" version="1.1" xmlns="http://www.w3.org/2000/svg" xmlns:xlink="http://www.w3.org/1999/xlink">
    <!-- Generator: Sketch 52.2 (67145) - http://www.bohemiancoding.com/sketch -->
    <title>thin-0437_tag_price_sale</title>
    <desc>Created with Sketch.</desc>
    <g id="How-we-work" stroke="none" stroke-width="1" fill="none" fill-rule="evenodd">
        <g id="How-we-work---desktop" transform="translate(-527.000000, -929.000000)">
            <g id="thin-0437_tag_price_sale" transform="translate(527.000000, 929.675127)">
                <g id="Group" transform="translate(0.890660, 0.913973)" stroke="#00CFFF" stroke-width="2">
                    <path d="M44.5563473,24.0147271 C28.4038552,7.59807438 31.7273763,10.9759411 21.6412666,0.725172082 C21.0051757,0.0788408646 20.190105,0.22945787 19.2405554,0.233063064 L1.90039443,0.317584841 C1.00042052,0.331404752 0.229655613,1.06986871 0.234339927,2.04587492 L0.323927441,21.0877099 C0.325684059,21.5407626 0.505834985,21.9767909 0.819293693,22.2998563 C1.1858413,22.6723931 23.7581863,45.707181 24.230131,45.9206886 C24.9292649,46.2505639 25.6631409,46.0288444 26.1007339,45.5753911 L44.5655207,26.4452289 C45.2195681,25.7704567 45.2135175,24.6806866 44.5563473,24.0147271 L44.5563473,24.0147271 Z" id="Shape"></path>
                    <ellipse id="Oval" cx="10.0985302" cy="10.3181935" rx="3.79800311" ry="3.89741529"></ellipse>
                </g>
                <polygon id="Rectangle-path" points="1.16620272e-14 -8.52052274e-16 46.3143151 -8.52052274e-16 46.3143151 47.5265856 1.16620272e-14 47.5265856"></polygon>
            </g>
        </g>
    </g>
</svg>