<?xml version="1.0" encoding="UTF-8"?>
<svg width="49px" height="47px" viewBox="0 0 49 47" version="1.1" xmlns="http://www.w3.org/2000/svg" xmlns:xlink="http://www.w3.org/1999/xlink">
    <!-- Generator: Sketch 52.2 (67145) - http://www.bohemiancoding.com/sketch -->
    <title>thin-0143_rotate_clockwise copy 2</title>
    <desc>Created with Sketch.</desc>
    <g id="How-we-work" stroke="none" stroke-width="1" fill="none" fill-rule="evenodd">
        <g id="How-we-work---desktop" transform="translate(-774.000000, -1330.000000)">
            <g id="thin-0143_rotate_clockwise-copy-2" transform="translate(773.000000, 1327.028916)">
                <g id="Group" transform="translate(1.559724, 3.899309)" stroke="#00CFFF" stroke-width="2">
                    <polyline id="Shape" points="0.145386969 24.3006126 5.39655664 19.2074229 10.5097671 24.3602984"></polyline>
                    <path d="M17.6881172,42.1190395 C8.52400437,38.2949471 3.74596543,28.498515 5.39655664,19.2074229" id="Shape"></path>
                    <polyline id="Shape" points="39.8130155 44.7160357 32.7200794 42.7870785 34.6564273 35.8270491"></polyline>
                    <path d="M46.578606,20.7667702 C47.8399153,30.5214221 41.6744585,39.528675 32.720303,42.7870785" id="Shape"></path>
                    <polyline id="Shape" points="37.2074426 0.0217487634 39.1446849 7.03770598 32.10094 8.93880977"></polyline>
                    <path d="M12.9183513,6.47577507 C20.763914,0.430265019 31.7447504,1.08260889 39.1446849,7.03770598" id="Shape"></path>
                </g>
                <polygon id="Rectangle-path" points="0 -7.27018705e-15 53.0306047 -7.27018705e-15 53.0306047 53.0306047 0 53.0306047"></polygon>
            </g>
        </g>
    </g>
</svg>