<?xml version="1.0" encoding="UTF-8"?>
<svg width="51px" height="57px" viewBox="0 0 51 57" version="1.1" xmlns="http://www.w3.org/2000/svg" xmlns:xlink="http://www.w3.org/1999/xlink">
    <!-- Generator: Sketch 61.1 (89650) - https://sketch.com -->
    <title>svg/medium/tablet-hand--c</title>
    <desc>Created with Sketch.</desc>
    <g id="**-Sticker-Sheets" stroke="none" stroke-width="1" fill="none" fill-rule="evenodd" stroke-linecap="round" stroke-linejoin="round">
        <g id="sticker-sheet--all--page-6" transform="translate(-569.000000, -523.000000)" stroke="#046B99" stroke-width="2">
            <g id="icon-preview-row-copy-29" transform="translate(0.000000, 509.000000)">
                <g id="Icon-Row--Large-icon">
                    <g id="tablet-hand--c" transform="translate(561.000000, 11.000000)">
                        <path d="M41.8049483,46.8625647 C40.9613908,46.0398048 39.7558775,44.8636801 38.188316,43.3343335 C37.00568,41.6453542 34.664548,40.1767369 33.3073324,41.1270695 C31.9501169,42.077402 33.4580026,46.273461 34.6406387,47.9624403 C34.6532859,47.9752103 34.6659201,47.9879704 34.6785415,48.0007206 L34.6785415,48.0007206 M34.6785415,48.0007206 L11,48 C9.8954305,48 9,47.1045695 9,46 L9,6 C9,4.8954305 9.8954305,4 11,4 L40,4 C41.1045695,4 42,4.8954305 42,6 L42,46 C42,46.3088778 41.9299805,46.6014017 41.8049483,46.8625647 C41.8743796,46.9305362 41.9414434,46.9959651 42.0060474,47.0589941 M43.996619,58.9731635 C43.4632049,58.1417574 43.01234,57.4528627 42.693951,56.9981562 C41.2579944,54.9473976 38.5861912,51.9482524 34.6785415,48.0007206 M25,43 L25.5,43 M14,10 L24,10 L24,20 L14,20 L14,10 Z M29,12 L37,12 M29,18 L37,18 M14,25 L37,25 M14,31 L37,31 M14,37 L37,37 M42,26.5 C46,29.7857143 48,32.952381 48,36 C48,36 48,48 51,51 C52.6935021,52.6935021 54.8649958,55.3429874 57.5144811,58.9484558"></path>
                    </g>
                </g>
            </g>
        </g>
    </g>
</svg>