<?xml version="1.0" encoding="UTF-8"?>
<svg width="162px" height="162px" viewBox="0 0 162 162" version="1.1" xmlns="http://www.w3.org/2000/svg" xmlns:xlink="http://www.w3.org/1999/xlink">
    <!-- Generator: Sketch 52.2 (67145) - http://www.bohemiancoding.com/sketch -->
    <title>Group 3</title>
    <desc>Created with Sketch.</desc>
    <g id="How-we-work" stroke="none" stroke-width="1" fill="none" fill-rule="evenodd">
        <g id="How-we-work---desktop" transform="translate(-33.000000, -1763.000000)">
            <g id="Group-3" transform="translate(35.500000, 1765.694288)">
                <circle id="Oval-2-Copy-2" stroke="#FFFFFF" stroke-width="4" cx="78.5" cy="78.5" r="78.5"></circle>
                <g id="thin-0281_chat_message_discussion_bubble_reply_conversation" transform="translate(24.000000, 25.000000)">
                    <g id="Group" transform="translate(3.000000, 11.000000)" stroke="#FFFFFF" stroke-width="4">
                        <path d="M21.8804303,55.2323143 C8.66911674,52.9301143 0.843435593,41.7341143 0.843435593,28.0977643 C0.843435593,12.7968643 11.3441831,0.526714286 25.0385633,0.526714286 L50.1346667,0.526714286 C63.829047,0.526714286 74.9310441,12.2258143 74.9310441,27.5271643 C74.9310441,42.8271643 63.829047,54.5267143 50.1346667,54.5267143 L42.2294481,54.5267143 L21.8799809,75.0665143 L21.8799809,55.2323143 L21.8804303,55.2323143 Z" id="Shape"></path>
                        <path d="M51.2886345,64.1067643 C54.4890078,68.9199643 59.6117621,72.5267143 65.3923858,72.5267143 L72.2029528,72.5267143 L83.5336763,83.8694143 L83.5336763,71.5367143 C92.3412186,71.2050643 100.661201,62.5479643 100.661201,51.9086143 C100.661201,41.0604643 92.8431587,32.5086643 83.1337419,32.5086643" id="Shape"></path>
                        <path d="M19.6785447,27.5271643 L54.9087142,27.5271643" id="Shape"></path>
                        <path d="M19.6785447,18.5262643 L54.9087142,18.5262643" id="Shape"></path>
                        <path d="M19.6785447,36.5267143 L37.2936294,36.5267143" id="Shape"></path>
                    </g>
                    <polygon id="Rectangle-path" points="0 -9.77690151e-15 108 -9.77690151e-15 108 108 0 108"></polygon>
                </g>
            </g>
        </g>
    </g>
</svg>