<?xml version="1.0" encoding="UTF-8"?>
<svg width="54px" height="40px" viewBox="0 0 54 40" version="1.1" xmlns="http://www.w3.org/2000/svg" xmlns:xlink="http://www.w3.org/1999/xlink">
    <!-- Generator: Sketch 52.2 (67145) - http://www.bohemiancoding.com/sketch -->
    <title>Group 4</title>
    <desc>Created with Sketch.</desc>
    <g id="How-we-work" stroke="none" stroke-width="1" fill="none" fill-rule="evenodd" stroke-linecap="round" stroke-linejoin="round">
        <g id="How-we-work---desktop" transform="translate(-31.000000, -1339.000000)" stroke="#00CFFF" stroke-width="2">
            <g id="Group-4" transform="translate(32.000000, 1340.000000)">
                <path d="M37.7888691,13.6648178 L37.7888691,12.340076 C40.8595195,12.3317964 42.0786504,11.3823981 42.0786504,11.3823981 C40.7967561,10.6850687 40.3906961,5.81480256 40.3906961,5.81480256 C40.3906961,3.29135337 38.4250614,0.838741066 35.4495071,0.838741066 C32.6470275,0.838741066 30.5083181,3.13680015 30.5083181,5.81480256 C30.5083181,5.81480256 30.1022581,10.6850687 28.8203638,11.3823981 C28.8203638,11.3823981 30.0394947,12.3317964 33.1101451,12.340076 L33.1101451,13.6648178" id="Stroke-7-Copy"></path>
                <path d="M19.8424562,13.6648178 L19.8424562,12.340076 C22.9131065,12.3317964 24.1322375,11.3823981 24.1322375,11.3823981 C22.8503432,10.6850687 22.4442832,5.81480256 22.4442832,5.81480256 C22.4442832,3.29135337 20.4786485,0.838741066 17.5030942,0.838741066 C14.7006146,0.838741066 12.5619052,3.13680015 12.5619052,5.81480256 C12.5619052,5.81480256 12.1558452,10.6850687 10.8739509,11.3823981 C10.8739509,11.3823981 12.0930818,12.3317964 15.1637322,12.340076 L15.1637322,13.6648178" id="Stroke-7-Copy-2" transform="translate(17.503094, 7.251779) scale(-1, 1) translate(-17.503094, -7.251779) "></path>
                <path d="M13.3553485,28.1075394 C14.0361677,27.4042695 14.5726709,26.4239201 14.8899459,25.2766554 C15.646779,24.7391881 15.8461775,23.6241937 15.2105259,22.8352406 L15.2105259,20.5084409 C15.2105259,18.1070858 13.8874451,16.4635262 10.8601128,16.4635262 C7.91209929,16.4635262 6.50859809,18.1070858 6.50859809,20.5084409 L6.50859809,22.8352406 C5.87514974,23.6230809 6.07234496,24.7369625 6.82917803,25.2755427 C7.14755468,26.4239201 7.68405788,27.4042695 8.36487715,28.1075394 L8.36487715,29.1468655 C8.05972029,30.136117 4.41766772,31.7262637 1.13805777,33.0070606 C0.858238847,33.1172247 0.674263414,33.3920786 0.674263414,33.6992028 L0.674263414,36.2975181 C0.674263414,36.7059043 0.997046658,37.0375094 1.3958437,37.0375094 L10.2571367,37.0375094" id="Stroke-3"></path>
                <path d="M49.7649472,28.1075394 C50.4457665,27.4042695 50.9822697,26.4239201 51.2995447,25.2766554 C52.0563778,24.7391881 52.2557763,23.6241937 51.6201246,22.8352406 L51.6201246,20.5084409 C51.6201246,18.1070858 50.2970438,16.4635262 47.2697116,16.4635262 C44.321698,16.4635262 42.9181968,18.1070858 42.9181968,20.5084409 L42.9181968,22.8352406 C42.2847485,23.6230809 42.4819437,24.7369625 43.2387768,25.2755427 C43.5571534,26.4239201 44.0936566,27.4042695 44.7744759,28.1075394 L44.7744759,29.1468655 C44.4693191,30.136117 40.8272665,31.7262637 37.5476565,33.0070606 C37.2678376,33.1172247 37.0838622,33.3920786 37.0838622,33.6992028 L37.0838622,36.2975181 C37.0838622,36.7059043 37.4066454,37.0375094 37.8054425,37.0375094 L46.6667355,37.0375094" id="Stroke-3-Copy" transform="translate(44.541931, 26.750518) scale(-1, 1) translate(-44.541931, -26.750518) "></path>
                <path d="M37.5550241,32.7096447 C33.8208624,31.3347169 29.6759429,31.4066213 29.3277576,30.3426312 L29.3277576,28.7422735 C33.0568731,28.7325567 34.5364085,27.5840304 34.5364085,27.5840304 C32.9801714,26.7425552 32.4866565,20.8570868 32.4866565,20.8570868 C32.4866565,17.8079536 30.0998207,14.8443282 26.486767,14.8443282 C23.0836337,14.8443282 20.4878866,17.6204192 20.4878866,20.8570868 C20.4878866,20.8570868 19.9943718,26.7425552 18.4381346,27.5840304 C18.4381346,27.5840304 19.9176701,28.7325567 23.6467856,28.7422735 L23.6467856,30.3426312 C23.2986003,31.4056496 19.1536808,31.3337452 15.4195191,32.7096447 C15.1006015,32.8272181 14.890681,33.1226089 14.890681,33.4520086 L14.890681,36.2436465 C14.890681,36.6818743 15.2580418,37.0375094 15.7121966,37.0375094 L37.2623466,37.0375094 C37.7165014,37.0375094 38.0838622,36.6818743 38.0838622,36.2436465 L38.0838622,33.4520086 C38.0838622,33.1226089 37.8729325,32.8262464 37.5550241,32.7096447 Z" id="Stroke-5"></path>
            </g>
        </g>
    </g>
</svg>