<?xml version="1.0" encoding="UTF-8"?>
<svg width="55px" height="34px" viewBox="0 0 55 34" version="1.1" xmlns="http://www.w3.org/2000/svg" xmlns:xlink="http://www.w3.org/1999/xlink">
    <!-- Generator: Sketch 52.2 (67145) - http://www.bohemiancoding.com/sketch -->
    <title>Group 5</title>
    <desc>Created with Sketch.</desc>
    <g id="How-we-work" stroke="none" stroke-width="1" fill="none" fill-rule="evenodd" stroke-linecap="round" stroke-linejoin="round">
        <g id="How-we-work---desktop" transform="translate(-31.000000, -942.000000)" stroke="#00CFFF" stroke-width="2">
            <g id="Group-5" transform="translate(32.000000, 943.000000)">
                <path d="M48.9210923,18.7603003 C49.8613007,17.7890876 50.6022093,16.4352294 51.0403647,14.8508619 C52.0855478,14.1086219 52.3609163,12.5688195 51.4830842,11.4792787 L51.4830842,8.2659786 C51.4830842,4.94971764 49.6559154,2.67996905 45.4751828,2.67996905 C41.4039891,2.67996905 39.46576,4.94971764 39.46576,8.2659786 L39.46576,11.4792787 C38.5909707,12.5672828 38.8632964,14.1055484 39.9084795,14.8493252 C40.3481563,16.4352294 41.0890649,17.7890876 42.0292733,18.7603003 L42.0292733,20.1956051 C41.607853,21.561757 36.5781944,23.7577426 32.0490674,25.5265176 C31.6626387,25.6786538 31.4085694,26.0582258 31.4085694,26.482363 L31.4085694,30.070625 C31.4085694,30.6346045 31.8543317,31.0925497 32.4050687,31.0925497 L44.6424755,31.0925497" id="Stroke-3-Copy" transform="translate(41.708130, 16.886259) scale(-1, 1) translate(-41.708130, -16.886259) "></path>
                <path d="M32.059242,25.1157876 C26.9023811,23.2170183 21.1782654,23.3163179 20.697423,21.8469522 L20.697423,19.6368653 C25.8473152,19.6234464 27.8905472,18.0373367 27.8905472,18.0373367 C25.7413905,16.875263 25.0598486,8.74745698 25.0598486,8.74745698 C25.0598486,4.53661738 21.7636388,0.443863792 16.7740274,0.443863792 C12.0743152,0.443863792 8.48959999,4.2776333 8.48959999,8.74745698 C8.48959999,8.74745698 7.8080581,16.875263 5.65890145,18.0373367 C5.65890145,18.0373367 7.70213339,19.6234464 12.8520256,19.6368653 L12.8520256,21.8469522 C12.3711832,23.314976 6.64706751,23.2156764 1.49020656,25.1157876 C1.04978276,25.2781558 0.759883548,25.6860893 0.759883548,26.1409888 L0.759883548,29.9962285 C0.759883548,30.6014193 1.26720717,31.0925497 1.89439296,31.0925497 L31.6550556,31.0925497 C32.2822414,31.0925497 32.7895651,30.6014193 32.7895651,29.9962285 L32.7895651,26.1409888 C32.7895651,25.6860893 32.4982721,25.2768139 32.059242,25.1157876 Z" id="Stroke-5"></path>
            </g>
        </g>
    </g>
</svg>