<?xml version="1.0" encoding="utf-8"?>
<!-- Generator: Adobe Illustrator 18.1.0, SVG Export Plug-In . SVG Version: 6.00 Build 0)  -->
<svg version="1.1" id="Layer_1" xmlns="http://www.w3.org/2000/svg" xmlns:xlink="http://www.w3.org/1999/xlink" x="0px" y="0px"
	 width="24px" height="24px" viewBox="0 0 24 24" enable-background="new 0 0 24 24" xml:space="preserve">
<g>
	<path d="M17.4531,24H6.5166c-1.4512,0-2.6318-1.166-2.6318-2.5986l-0.9409-9.7588C2.9414,10.1641,4.1221,9,5.5737,9h12.8228
		c1.4766,0,2.6328,1.1362,2.6328,2.5864l-0.9453,9.8442C20.0859,22.8262,18.9053,24,17.4531,24z M5.5737,10
		c-0.9155,0-1.6323,0.7007-1.6323,1.5947l0.9409,9.7588C4.8848,22.2979,5.6016,23,6.5166,23h10.9365
		c0.9004,0,1.6328-0.7256,1.6328-1.6172l0.9453-9.8442C20.0293,10.6968,19.3125,10,18.3965,10H5.5737z"/>
	<path d="M13.1016,20h-2.2319c-0.2529,0-0.4658-0.1885-0.4966-0.4395l-0.4199-3.457c-0.0034-1.1592,0.9092-2.0527,2.0308-2.0527
		c1.1226,0,2.0366,0.8896,2.0366,1.9834l-0.4229,3.5254C13.5674,19.8115,13.3545,20,13.1016,20z M11.312,19h1.3462l0.3662-3.0254
		c-0.0039-0.4922-0.459-0.9238-1.0405-0.9238c-0.5801,0-1.0342,0.4355-1.0342,0.9922L11.312,19z"/>
	<path d="M16.4863,10c-0.2764,0-0.5-0.2236-0.5-0.5V5.0366c0-2.0068-1.832-3.7026-3.9995-3.7026
		c-2.1685,0-4.0005,1.6958-4.0005,3.7026V9.5c0,0.2764-0.2236,0.5-0.5,0.5s-0.5-0.2236-0.5-0.5V5.0366
		c0-2.5493,2.29-4.7026,5.0005-4.7026s4.9995,2.1533,4.9995,4.7026V9.5C16.9863,9.7764,16.7627,10,16.4863,10z"/>
</g>
<rect x="-0.0136" fill="none" width="24" height="24"/>
</svg>
