<?xml version="1.0" encoding="utf-8"?>
<!-- Generator: Adobe Illustrator 18.1.0, SVG Export Plug-In . SVG Version: 6.00 Build 0)  -->
<svg version="1.1" id="Layer_1" xmlns="http://www.w3.org/2000/svg" xmlns:xlink="http://www.w3.org/1999/xlink" x="0px" y="0px"
	 width="24px" height="24px" viewBox="0 0 24 24" enable-background="new 0 0 24 24" xml:space="preserve">
<g>
	<path d="M16.4541,18.5752c0,0-0.0049,0-0.0059,0c-1.375,0-2.6348-0.7969-3.2363-2.0146l-1.7974,0.0029c-0.0005,0-0.0005,0-0.001,0
		c-0.1367,0-0.2676-0.0557-0.3618-0.1553l-0.8882-0.9316l-1.4575,1.1006c-0.1704,0.127-0.4028,0.1348-0.5806,0.0156l-1.2256-0.8242
		L5.792,16.4121c-0.1899,0.1084-0.4287,0.083-0.5913-0.0664l-1.3179-1.2236c-0.1523-0.1416-0.2012-0.3623-0.123-0.5547
		l0.4448-1.0947c0.0767-0.1875,0.2593-0.3115,0.4624-0.3115l8.6641-0.0156c0.6445-1.1094,1.8408-1.8115,3.1328-1.814
		c0.9736,0,1.8809,0.376,2.5625,1.0591c0.6816,0.6826,1.0566,1.5908,1.0547,2.5576C20.0762,16.9434,18.4492,18.5703,16.4541,18.5752
		z M13.5391,15.5596c0.208,0,0.3945,0.1289,0.4678,0.3242c0.3809,1.0117,1.3613,1.6914,2.4414,1.6914v0.5l0.0039-0.5
		c1.4463-0.0029,2.626-1.1826,2.6289-2.6289c0.001-0.6992-0.2695-1.3564-0.7617-1.8496c-0.4932-0.4932-1.1494-0.7656-1.8486-0.7656
		c-1.0186,0.0029-1.9521,0.6006-2.3838,1.5244c-0.082,0.1758-0.2578,0.2891-0.4521,0.2891l-8.6299,0.0156L4.8164,14.624
		l0.7935,0.7373l1.0586-0.6152c0.166-0.0957,0.3716-0.0898,0.5298,0.0176l1.1899,0.7998l1.5288-1.1543
		c0.2021-0.1533,0.4868-0.1309,0.6631,0.0547l1.0474,1.0996l1.9106-0.0039H13.5391z"/>
	<path d="M17.0518,16.1875c-0.6816,0-1.2354-0.5537-1.2354-1.2354s0.5537-1.2354,1.2354-1.2354s1.2354,0.5537,1.2354,1.2354
		S17.7334,16.1875,17.0518,16.1875z M17.0518,14.7168c-0.1299,0-0.2354,0.1055-0.2354,0.2354c0,0.2598,0.4707,0.2598,0.4707,0
		C17.2871,14.8223,17.1816,14.7168,17.0518,14.7168z"/>
	<path d="M21.4336,24.0098H2.6084c-1.4487,0-2.627-1.1787-2.627-2.627V8.6348c0-1.4487,1.1782-2.6274,2.627-2.6274h18.8252
		c1.4482,0,2.627,1.1787,2.627,2.6274v12.748C24.0605,22.8311,22.8818,24.0098,21.4336,24.0098z M2.6084,7.0073
		c-0.897,0-1.627,0.73-1.627,1.6274v12.748c0,0.8975,0.73,1.627,1.627,1.627h18.8252c0.8975,0,1.627-0.7295,1.627-1.627V8.6348
		c0-0.8975-0.7295-1.6274-1.627-1.6274H2.6084z"/>
	<path d="M15.5479,5.0073c-0.2764,0-0.5-0.2236-0.5-0.5V4.1353c0-0.6543-0.5762-1.187-1.2842-1.187h-3.4849
		c-0.7085,0-1.2847,0.5327-1.2847,1.187v0.3721c0,0.2764-0.2236,0.5-0.5,0.5s-0.5-0.2236-0.5-0.5V4.1353
		c0-1.2061,1.0249-2.187,2.2847-2.187h3.4849c1.2598,0,2.2842,0.981,2.2842,2.187v0.3721
		C16.0479,4.7837,15.8242,5.0073,15.5479,5.0073z"/>
</g>
<rect x="0.0293" fill="none" width="24" height="24"/>
</svg>
