<?xml version="1.0" encoding="utf-8"?>
<!-- Generator: Adobe Illustrator 18.1.0, SVG Export Plug-In . SVG Version: 6.00 Build 0)  -->
<svg version="1.1" id="Layer_1_8f571303" xmlns="http://www.w3.org/2000/svg" xmlns:xlink="http://www.w3.org/1999/xlink" x="0px" y="0px"
	 width="24px" height="24px" viewBox="0 0 24 24" enable-background="new 0 0 24 24" xml:space="preserve">
<g>
	<path d="M15.0732,5.9766H8.9067c-1.291,0-1.9663-0.98-1.9663-1.9478c0-0.9761,0.6753-1.9644,1.9663-1.9644h0.7671v-0.165
		c0-1.0508,0.8843-1.9053,1.9707-1.9053h0.7393c1.0869,0,1.9707,0.8545,1.9707,1.9053v0.165h0.7188
		c1.2939,0,1.9707,0.9849,1.9707,1.9575c0,0.5049-0.1758,0.9785-0.4951,1.3345C16.2939,5.6392,15.832,5.9766,15.0732,5.9766z
		 M8.9067,3.0645c-0.7627,0-0.9663,0.606-0.9663,0.9644c0,0.2529,0.0864,0.4941,0.2368,0.6616
		c0.1709,0.1899,0.4165,0.2861,0.7295,0.2861h6.1665c0.3135,0,0.5596-0.0972,0.7314-0.2886
		c0.1523-0.1694,0.2393-0.4121,0.2393-0.666c0-0.4419-0.2539-0.9575-0.9707-0.9575h-1.2188c-0.2764,0-0.5-0.2236-0.5-0.5v-0.665
		c0-0.499-0.4355-0.9053-0.9707-0.9053h-0.7393c-0.5352,0-0.9707,0.4062-0.9707,0.9053v0.665c0,0.2764-0.2236,0.5-0.5,0.5H8.9067z"
		/>
	<path d="M20.5557,24.0527H3.4736c-0.2764,0-0.5-0.2236-0.5-0.5V3.4751c0-0.2764,0.2236-0.5,0.5-0.5h2.0107
		c0.2764,0,0.5,0.2236,0.5,0.5s-0.2236,0.5-0.5,0.5H3.9736v19.0776h16.082V3.9751h-1.5312c-0.2764,0-0.5-0.2236-0.5-0.5
		s0.2236-0.5,0.5-0.5h2.0312c0.2764,0,0.5,0.2236,0.5,0.5v20.0776C21.0557,23.8291,20.832,24.0527,20.5557,24.0527z"/>
	<path d="M10.1514,18.9473c-0.1411,0-0.2754-0.0596-0.3701-0.1641l-2.5464-2.8066c-0.1855-0.2041-0.1704-0.5205,0.0342-0.7061
		c0.2041-0.1855,0.521-0.1709,0.7061,0.0342l2.1587,2.3789l6.209-7.5181c0.1758-0.2134,0.4932-0.2427,0.7041-0.0674
		c0.2129,0.1763,0.2432,0.4912,0.0674,0.7041l-6.5771,7.9634c-0.0928,0.1123-0.229,0.1777-0.374,0.1816
		C10.1592,18.9473,10.1553,18.9473,10.1514,18.9473z"/>
	<path d="M12.0098,2.6797c-0.1299,0-0.2598-0.0601-0.3501-0.1499C11.5698,2.4399,11.52,2.3101,11.52,2.1797
		c0-0.1396,0.0498-0.2598,0.1396-0.3599c0.1899-0.1899,0.52-0.1802,0.7104,0c0.0898,0.1001,0.1494,0.23,0.1494,0.3599
		c0,0.1201-0.0596,0.25-0.1494,0.3501C12.2695,2.6299,12.1494,2.6797,12.0098,2.6797z"/>
</g>
<rect y="0.0001" fill="none" width="24" height="24"/>
</svg>
