<?xml version="1.0" encoding="utf-8"?>
<!-- Generator: Adobe Illustrator 18.1.0, SVG Export Plug-In . SVG Version: 6.00 Build 0)  -->
<svg version="1.1" id="Layer_1_c804ba45" xmlns="http://www.w3.org/2000/svg" xmlns:xlink="http://www.w3.org/1999/xlink" x="0px" y="0px"
	 width="24px" height="24px" viewBox="0 0 24 24" enable-background="new 0 0 24 24" xml:space="preserve">
<g>
	<path d="M11.5352,20.998c-0.2764,0-0.5-0.2236-0.5-0.5V9.5269c0-0.2764,0.2236-0.5,0.5-0.5s0.5,0.2236,0.5,0.5V20.498
		C12.0352,20.7744,11.8115,20.998,11.5352,20.998z"/>
	<path d="M8.5894,13.0791c-0.125,0-0.25-0.0469-0.3472-0.1406c-0.1987-0.1914-0.2046-0.5078-0.0127-0.707l2.9458-3.0518
		c0.1885-0.1953,0.5312-0.1953,0.7197,0l2.9458,3.0518c0.1924,0.1992,0.1865,0.5156-0.0117,0.707
		c-0.1992,0.1924-0.5156,0.1875-0.707-0.0117l-2.5869-2.6802l-2.5859,2.6802C8.8511,13.0283,8.7202,13.0791,8.5894,13.0791z"/>
	<path d="M18.582,16.0176h-3.5439c-0.2764,0-0.5-0.2236-0.5-0.5s0.2236-0.5,0.5-0.5h3.5439c2.2041,0,4.0654-1.6982,4.0654-3.7075
		c0-0.9595-0.4443-1.9131-1.2188-2.6162c-0.8789-0.7974-2.0918-1.1895-3.3193-1.0684c-0.2295,0.021-0.4551-0.1235-0.5254-0.3496
		c-0.4609-1.4907-1.959-3.1113-4.6758-2.7788c-0.1387,0.0142-0.2764-0.0239-0.3828-0.1128
		c-1.5425-1.2915-3.5693-1.6528-5.4209-0.9668C5.2012,4.1226,3.8599,5.7827,3.5156,7.8579C3.4922,8.001,3.4072,8.127,3.2837,8.2026
		c-1.5874,0.9731-2.2695,2.4971-1.8242,4.0757c0.3848,1.3633,1.6821,2.7393,3.7139,2.7393h2.811c0.2764,0,0.5,0.2236,0.5,0.5
		s-0.2236,0.5-0.5,0.5h-2.811c-2.2119,0-4.0913-1.3936-4.6763-3.4678c-0.4307-1.5269-0.1006-3.6406,2.0728-5.0776
		c0.4604-2.3301,2.0122-4.1865,4.187-4.9927C8.8823,1.6924,11.2002,2.0688,13,3.4814c2.8027-0.2573,4.6797,1.3154,5.4062,3.125
		c1.3809-0.0396,2.7021,0.4463,3.6953,1.3472c0.9824,0.8921,1.5459,2.1157,1.5459,3.3564
		C23.6475,13.8613,21.3281,16.0176,18.582,16.0176z"/>
</g>
<rect y="0.0001" fill="none" width="24" height="24"/>
</svg>
