<?xml version="1.0" encoding="UTF-8" standalone="no"?>
<svg width="610px" height="190px" viewBox="0 0 610 190" version="1.1" xmlns="http://www.w3.org/2000/svg" xmlns:xlink="http://www.w3.org/1999/xlink" style="background: #FFFFFF;">
    <!-- Generator: Sketch 42 (36781) - http://www.bohemiancoding.com/sketch -->
    <title>Graphic-2-c</title>
    <desc>Created with Sketch.</desc>
    <defs></defs>
    <g id="Page-1" stroke="none" stroke-width="1" fill="none" fill-rule="evenodd">
        <g id="Graphic-2-c">
            <g id="Group-3" transform="translate(14.000000, 53.000000)">
                <path d="M0,2.00334454 C0,0.8969279 0.894623033,0 1.99591109,0 L489,0 L489,88 L1.99591109,88 C0.893599835,88 0,87.1003688 0,85.9966555 L0,2.00334454 Z" id="Rectangle-4" fill="#E8E8E8"></path>
                <rect id="Rectangle-4-Copy" fill="#315786" x="489" y="0" width="64" height="88"></rect>
                <path d="M552,0 L579.006713,0 C580.107575,0 581,0.899631158 581,2.00334454 L581,85.9966555 C581,87.1030721 580.100287,88 579.006713,88 L552,88 L552,0 Z" id="Rectangle-4-Copy-2" fill="#1D304A"></path>
            </g>
            <text id="325" font-family="HelveticaNeue-Bold, Helvetica Neue" font-size="17" font-weight="bold" line-spacing="22" fill="#000000">
                <tspan x="16" y="28">325</tspan>
            </text>
            <text id="security-controls" font-family="HelveticaNeue, Helvetica Neue" font-size="17" font-weight="normal" line-spacing="22" fill="#000000">
                <tspan x="50" y="27">security controls</tspan>
            </text>
            <path d="M15.5,42.5 L593.998055,42.5" id="Line-Copy-2" stroke="#979797" stroke-linecap="square"></path>
            <path id="Line-Copy-2-decoration-1" d="M15.5,39.5 L15.5,45.5" stroke="#979797" stroke-linecap="square"></path>
            <path id="Line-Copy-2-decoration-2" d="M593.998055,39.5 L593.998055,45.5" stroke="#979797" stroke-linecap="square"></path>
            <path d="M579.998055,157.534162 L579.998055,124.5" id="Line-Copy-3" stroke="#1C304A" stroke-linecap="square"></path>
            <text id="41-copy" font-family="HelveticaNeue-Bold, Helvetica Neue" font-size="17" font-weight="bold" line-spacing="22" fill="#FFFFFF">
                <tspan x="511" y="110">41</tspan>
            </text>
            <text id="15-copy" font-family="HelveticaNeue-Bold, Helvetica Neue" font-size="17" font-weight="bold" line-spacing="22" fill="#FFFFFF">
                <tspan x="570" y="110">15</tspan>
            </text>
            <g id="Group-2" transform="translate(63.000000, 93.000000)" font-size="17" line-spacing="22" fill="#000000">
                <text id="269-copy" font-family="HelveticaNeue-Bold, Helvetica Neue" font-weight="bold">
                    <tspan x="0" y="17">269</tspan>
                </text>
                <text id="handled-by-cloud.gov-copy" font-family="HelveticaNeue, Helvetica Neue" font-weight="normal">
                    <tspan x="0" y="35">handled by cloud.gov</tspan>
                </text>
            </g>
            <text id="customer-copy" font-family="HelveticaNeue, Helvetica Neue" font-size="17" font-weight="normal" line-spacing="22" fill="#000000">
                <tspan x="489.515" y="170">customer</tspan>
            </text>
            <text id="shared-copy" font-family="HelveticaNeue, Helvetica Neue" font-size="17" font-weight="normal" line-spacing="22" fill="#FFFFFF">
                <tspan x="509" y="128">shared</tspan>
            </text>
            <g id="block/ui/icon/cloud-gov-copy-6" transform="translate(27.000000, 99.000000)" fill-rule="nonzero">
                <g id="Group-2">
                    <polygon id="Fill-1" fill="#046CD5" points="12.2282609 -7.33333336e-05 0 9.07639333 4.98427908 12.98506 10.4204987 12.98506 12.2239498 7.31859333 14.0281195 12.98506 19.4808648 12.98506 24.4565217 9.07639333"></polygon>
                    <polygon id="Fill-2" fill="#333333" points="19.4805051 12.9830573 19.4833791 12.9830573 15.1428818 16.4839258 16.9470514 22.1486474 12.2235902 18.6470461 7.50084744 22.1486474 9.30501706 16.4839258 4.98391943 12.9830573 4.98463793 12.9830573 -0.000359654731 9.0761 -0.000359654731 23.4819974 12.2279012 32.5427667 24.4561621 23.4819974 24.4561621 9.0761"></polygon>
                </g>
            </g>
            <g id="Group" transform="translate(569.000000, 160.000000)" fill="#1C304A">
                <path d="M15.7511737,2.78018109 C15.6737089,2.54250503 15.6737089,2.38405433 15.6737089,2.14637827 C15.6737089,1.03722334 16.4483568,0.165744467 17.4553991,0.165744467 C18.4624413,0.165744467 19.2370892,1.03722334 19.2370892,2.14637827 C19.2370892,2.38405433 19.2370892,2.54250503 19.1596244,2.78018109 C19.2370892,2.85940644 19.314554,2.93863179 19.314554,3.09708249 C19.314554,3.2555332 19.1596244,3.4139839 19.0046948,3.4139839 L19.0046948,3.4139839 C18.92723,4.28546278 18.2300469,5.15694165 17.4553991,5.15694165 C16.6032864,5.15694165 15.9061033,4.28546278 15.9061033,3.4139839 L15.9061033,3.4139839 C15.7511737,3.4139839 15.5962441,3.2555332 15.5962441,3.09708249 C15.5962441,2.93863179 15.6737089,2.85940644 15.7511737,2.78018109 L15.7511737,2.78018109 Z" id="Path"></path>
                <path d="M8.00469484,3.49320926 C8.00469484,1.67102616 9.39906103,0.165744467 11.1032864,0.165744467 C12.8075117,0.165744467 14.2018779,1.67102616 14.2018779,3.49320926 C14.2018779,3.88933602 14.1244131,4.20623742 14.0469484,4.60236419 C14.2018779,4.68158954 14.3568075,4.91926559 14.3568075,5.15694165 C14.3568075,5.47384306 14.1244131,5.71151911 13.814554,5.71151911 L13.814554,5.71151911 C13.7370892,7.2168008 12.5751174,8.72208249 11.1032864,8.72208249 C9.70892019,8.72208249 8.54694836,7.2168008 8.39201878,5.71151911 L8.39201878,5.71151911 C8.08215962,5.71151911 7.84976526,5.47384306 7.84976526,5.15694165 C7.84976526,4.91926559 8.00469484,4.76081489 8.15962441,4.60236419 C8.00469484,4.28546278 8.00469484,3.88933602 8.00469484,3.49320926 L8.00469484,3.49320926 Z" id="Path"></path>
                <path d="M3.04694836,2.78018109 C2.96948357,2.54250503 2.96948357,2.38405433 2.96948357,2.14637827 C2.96948357,1.03722334 3.74413146,0.165744467 4.75117371,0.165744467 C5.75821596,0.165744467 6.53286385,1.03722334 6.53286385,2.14637827 C6.53286385,2.38405433 6.53286385,2.54250503 6.45539906,2.78018109 C6.53286385,2.85940644 6.61032864,2.93863179 6.61032864,3.09708249 C6.61032864,3.2555332 6.45539906,3.4139839 6.30046948,3.4139839 L6.30046948,3.4139839 C6.22300469,4.28546278 5.5258216,5.15694165 4.75117371,5.15694165 C3.89906103,5.15694165 3.20187793,4.28546278 3.20187793,3.4139839 L3.20187793,3.4139839 C3.04694836,3.4139839 2.89201878,3.2555332 2.89201878,3.09708249 C2.89201878,2.93863179 2.96948357,2.85940644 3.04694836,2.78018109 L3.04694836,2.78018109 Z" id="Path"></path>
                <path d="M0.723004695,8.08827968 L0.723004695,7.45447686 C0.723004695,7.37525151 0.723004695,7.37525151 0.800469484,7.29602616 C1.57511737,6.58299799 2.50469484,6.02842052 3.51173709,5.79074447 L3.51173709,5.79074447 L3.58920188,5.79074447 L3.66666667,5.79074447 C3.97652582,5.94919517 4.36384977,6.02842052 4.75117371,6.02842052 C5.13849765,6.02842052 5.5258216,5.94919517 5.83568075,5.79074447 L5.91314554,5.79074447 L5.99061033,5.79074447 L6.06807512,5.79074447 C6.45539906,5.86996982 6.842723,6.02842052 7.23004695,6.26609658 C7.30751174,6.34532193 7.30751174,6.42454728 7.38497653,6.42454728 C7.5399061,7.0583501 7.84976526,7.69215292 8.2370892,8.24673038 L0.877934272,8.24673038 C0.800469484,8.24673038 0.723004695,8.16750503 0.723004695,8.08827968 L0.723004695,8.08827968 Z" id="Path"></path>
                <path d="M17.9201878,13.4756036 C17.9201878,13.6340543 17.7652582,13.792505 17.6103286,13.792505 L4.51877934,13.792505 C4.36384977,13.792505 4.20892019,13.6340543 4.20892019,13.4756036 L4.20892019,12.445674 C4.20892019,12.3664487 4.20892019,12.2872233 4.28638498,12.207998 C5.60328638,10.9403924 7.15258216,10.0689135 8.85680751,9.59356137 L8.9342723,9.59356137 L9.01173709,9.59356137 L9.16666667,9.59356137 C9.6314554,9.83123742 10.3286385,9.98968813 11.0258216,9.98968813 C11.7230047,9.98968813 12.4201878,9.83123742 12.8849765,9.59356137 L13.0399061,9.59356137 L13.1948357,9.59356137 L13.3497653,9.59356137 C14.9765258,9.98968813 16.5258216,10.861167 17.842723,12.1287726 C17.9201878,12.207998 17.9201878,12.2872233 17.9201878,12.3664487 L17.9201878,13.4756036 L17.9201878,13.4756036 Z" id="Path"></path>
                <path d="M21.4835681,8.08827968 C21.4835681,8.16750503 21.4061033,8.24673038 21.3286385,8.24673038 L13.8920188,8.24673038 C14.2793427,7.69215292 14.5892019,7.0583501 14.7441315,6.42454728 L14.8215962,6.34532193 C15.286385,6.10764588 15.7511737,5.94919517 16.2159624,5.79074447 L16.2934272,5.79074447 L16.370892,5.79074447 L16.4483568,5.79074447 C16.758216,5.94919517 17.1455399,6.02842052 17.5328638,6.02842052 C17.9201878,6.02842052 18.3075117,5.94919517 18.6173709,5.79074447 L18.6948357,5.79074447 L18.7723005,5.79074447 L18.8497653,5.79074447 C19.7793427,6.02842052 20.7089202,6.58299799 21.4835681,7.29602616 C21.4835681,7.29602616 21.5610329,7.37525151 21.5610329,7.45447686 L21.5610329,8.08827968 L21.4835681,8.08827968 Z" id="Path"></path>
            </g>
        </g>
    </g>
</svg>