<?xml version="1.0" encoding="UTF-8"?>
<svg width="61px" height="63px" viewBox="0 0 61 63" version="1.1" xmlns="http://www.w3.org/2000/svg" xmlns:xlink="http://www.w3.org/1999/xlink" role="img" aria-hidden="true">
    <!-- Generator: Sketch 40.3 (33839) - http://www.bohemiancoding.com/sketch -->
    <title>Gavel</title>
    <desc>Showing our commitment to impliment laws and mandates</desc>
    <defs></defs>
    <g stroke="none" stroke-width="1" fill="none" fill-rule="evenodd">
        <g transform="translate(-539.000000, -673.000000)" stroke="#00CFFF" stroke-width="2">
            <g transform="translate(540.000000, 674.000000)">
                <path d="M57.9711832,26.5499327 L57.561014,26.1324634 C56.6949561,25.252113 55.3656944,25.1342019 54.3703156,25.7720907 L33.3704364,4.42538713 C33.9990141,3.4154407 33.882756,2.06344563 33.0169594,1.18309528 L32.6054839,0.766422663 C31.5999162,-0.255474221 29.9702121,-0.255474221 28.9646444,0.766422663 L14.7531961,15.212401 C13.7489346,16.2332357 13.7489346,17.8919591 14.7531961,18.913856 L15.1646715,19.3305286 C16.0270719,20.2071611 17.349541,20.3250723 18.3417847,19.6970093 L39.3484565,41.0490242 C38.7303289,42.0589706 38.8463258,43.4019365 39.7087261,44.2796312 L40.1188953,44.6971005 C41.124463,45.7208563 42.7554734,45.7208563 43.7607798,44.6971005 L57.9711832,30.2524499 C58.9770121,29.2297564 58.9770121,27.5712984 57.9711832,26.5499327"></path>
                <path d="M25.5389109,35 L0,60.9603768"></path>
                <path d="M40,40.276668 L55.0221204,25"></path>
                <path d="M19,19.2713566 L34.0286517,3"></path>
            </g>
        </g>
    </g>
</svg>
