<?xml version="1.0" encoding="UTF-8"?>
<svg width="97px" height="97px" viewBox="0 0 97 97" version="1.1" xmlns="http://www.w3.org/2000/svg" xmlns:xlink="http://www.w3.org/1999/xlink" role="img" aria-hidden="true">
    <!-- Generator: Sketch 40.3 (33839) - http://www.bohemiancoding.com/sketch -->
    <title>User centered-design</title>
    <desc>Demonstrating our commitment to our users</desc>
    <defs></defs>
    <g stroke="none" stroke-width="1" fill="none" fill-rule="evenodd">
        <g transform="translate(-373.000000, -874.000000)">
            <path d="M404.8772,936.0624 C387.9244,938.3756 375.8552,944.2024 375.8552,951.052 C375.8552,959.9316 396.068,967.1316 421.002,967.1316 C445.936,967.1316 466.1488,959.9316 466.1488,951.052 C466.1488,944.2692 454.3156,938.4936 437.6296,936.1352" id="Shape" stroke="#00CFFF" stroke-width="4"></path>
            <path d="M421.0024,955.1044 L421.0032,925.4184" id="Shape" stroke="#00CFFF" stroke-width="4"></path>
            <path d="M425.938,881.8972 C425.938,884.6224 423.7288,888.4284 421.0032,888.4284 C418.278,888.4284 416.0684,884.6228 416.0684,881.8972 C416.0684,879.1716 418.2776,876.9624 421.0032,876.9624 C423.7288,876.9628 425.938,879.172 425.938,881.8972 L425.938,881.8972 Z" id="Shape" stroke="#00CFFF" stroke-width="4"></path>
            <path d="M414.6168,955.1044 L412.6668,920.002 C412.638,919.2928 410.3608,920.216 410.3356,919.5436 C409.408,894.7168 411.472,893.138 411.7052,892.9428 C411.9796,892.866 414.232,892.8052 414.906,892.7628 C415.8172,892.7056 416.6028,893.262 417.0212,894.0736 C418.5052,896.9516 423.5008,896.9516 424.9848,894.0736 C425.4032,893.262 426.1888,892.7056 427.1,892.7628 C427.774,892.8052 430.0264,892.866 430.3008,892.9428 C430.534,893.138 432.5984,894.7168 431.6708,919.544 C431.6456,920.2164 429.3684,919.2932 429.3396,920.0024 L427.3876,955.1048" id="Shape" stroke="#00CFFF" stroke-width="4"></path>
            <rect x="373.002" y="874.0016" width="96" height="96"></rect>
        </g>
    </g>
</svg>
