<svg width="64" height="50" viewBox="0 0 64 50" fill="none" xmlns="http://www.w3.org/2000/svg">
<path fill-rule="evenodd" clip-rule="evenodd" d="M51.2 1.84862C51.2 1.1038 50.586 0.5 49.8286 0.5C49.0712 0.5 48.4571 1.1038 48.4571 1.84862V3.64679C48.4571 5.38471 47.0245 6.79358 45.2571 6.79358H16.9143C13.6321 6.79358 10.9714 9.41004 10.9714 12.6376V14.8853H1.82857C0.818679 14.8853 0 15.6904 0 16.6835V47.7018C0 48.6949 0.818679 49.5 1.82857 49.5H62.1714C63.1813 49.5 64 48.6949 64 47.7018V16.6835C64 15.6904 63.1813 14.8853 62.1714 14.8853H13.7143V12.6376C13.7143 10.8997 15.147 9.49083 16.9143 9.49083H45.2571C48.5393 9.49083 51.2 6.87436 51.2 3.64679V1.84862ZM2.28571 47.2523V17.133H61.7143V47.2523H2.28571ZM12.1143 27.922C12.7455 27.922 13.2571 27.4189 13.2571 26.7982C13.2571 26.1775 12.7455 25.6743 12.1143 25.6743C11.4831 25.6743 10.9714 26.1775 10.9714 26.7982C10.9714 27.4189 11.4831 27.922 12.1143 27.922ZM18.2857 32.1927C18.2857 32.8133 17.774 33.3165 17.1429 33.3165C16.5117 33.3165 16 32.8133 16 32.1927C16 31.572 16.5117 31.0688 17.1429 31.0688C17.774 31.0688 18.2857 31.572 18.2857 32.1927ZM20.3429 27.922C20.974 27.922 21.4857 27.4189 21.4857 26.7982C21.4857 26.1775 20.974 25.6743 20.3429 25.6743C19.7117 25.6743 19.2 26.1775 19.2 26.7982C19.2 27.4189 19.7117 27.922 20.3429 27.922ZM26.5143 32.1927C26.5143 32.8133 26.0026 33.3165 25.3714 33.3165C24.7402 33.3165 24.2286 32.8133 24.2286 32.1927C24.2286 31.572 24.7402 31.0688 25.3714 31.0688C26.0026 31.0688 26.5143 31.572 26.5143 32.1927ZM28.1143 27.922C28.7455 27.922 29.2571 27.4189 29.2571 26.7982C29.2571 26.1775 28.7455 25.6743 28.1143 25.6743C27.4831 25.6743 26.9714 26.1775 26.9714 26.7982C26.9714 27.4189 27.4831 27.922 28.1143 27.922ZM34.2857 32.1927C34.2857 32.8133 33.774 33.3165 33.1429 33.3165C32.5117 33.3165 32 32.8133 32 32.1927C32 31.572 32.5117 31.0688 33.1429 31.0688C33.774 31.0688 34.2857 31.572 34.2857 32.1927ZM35.8857 27.922C36.5169 27.922 37.0286 27.4189 37.0286 26.7982C37.0286 26.1775 36.5169 25.6743 35.8857 25.6743C35.2545 25.6743 34.7429 26.1775 34.7429 26.7982C34.7429 27.4189 35.2545 27.922 35.8857 27.922ZM42.0571 32.1927C42.0571 32.8133 41.5455 33.3165 40.9143 33.3165C40.2831 33.3165 39.7714 32.8133 39.7714 32.1927C39.7714 31.572 40.2831 31.0688 40.9143 31.0688C41.5455 31.0688 42.0571 31.572 42.0571 32.1927ZM44.1143 27.922C44.7455 27.922 45.2571 27.4189 45.2571 26.7982C45.2571 26.1775 44.7455 25.6743 44.1143 25.6743C43.4831 25.6743 42.9714 26.1775 42.9714 26.7982C42.9714 27.4189 43.4831 27.922 44.1143 27.922ZM50.2857 32.1927C50.2857 32.8133 49.774 33.3165 49.1429 33.3165C48.5117 33.3165 48 32.8133 48 32.1927C48 31.572 48.5117 31.0688 49.1429 31.0688C49.774 31.0688 50.2857 31.572 50.2857 32.1927ZM51.8857 27.922C52.5169 27.922 53.0286 27.4189 53.0286 26.7982C53.0286 26.1775 52.5169 25.6743 51.8857 25.6743C51.2545 25.6743 50.7429 26.1775 50.7429 26.7982C50.7429 27.4189 51.2545 27.922 51.8857 27.922ZM20.1143 40.0596C20.1143 39.3148 20.7283 38.711 21.4857 38.711H42.9714C43.7288 38.711 44.3429 39.3148 44.3429 40.0596C44.3429 40.8045 43.7288 41.4083 42.9714 41.4083H21.4857C20.7283 41.4083 20.1143 40.8045 20.1143 40.0596Z" fill="#B3EFFF"/>
</svg>
