<svg width="64" height="49" viewBox="0 0 64 49" fill="none" xmlns="http://www.w3.org/2000/svg">
<path fill-rule="evenodd" clip-rule="evenodd" d="M51.2 1.34862C51.2 0.603799 50.586 0 49.8286 0C49.0712 0 48.4571 0.603799 48.4571 1.34862V3.14679C48.4571 4.88471 47.0245 6.29358 45.2571 6.29358H16.9143C13.6321 6.29358 10.9714 8.91004 10.9714 12.1376V14.3853H1.82857C0.818679 14.3853 0 15.1904 0 16.1835V47.2018C0 48.1949 0.818679 49 1.82857 49H62.1714C63.1813 49 64 48.1949 64 47.2018V16.1835C64 15.1904 63.1813 14.3853 62.1714 14.3853H13.7143V12.1376C13.7143 10.3997 15.147 8.99083 16.9143 8.99083H45.2571C48.5393 8.99083 51.2 6.37436 51.2 3.14679V1.34862ZM2.28571 46.7523V16.633H61.7143V46.7523H2.28571ZM12.1143 27.422C12.7455 27.422 13.2571 26.9189 13.2571 26.2982C13.2571 25.6775 12.7455 25.1743 12.1143 25.1743C11.4831 25.1743 10.9714 25.6775 10.9714 26.2982C10.9714 26.9189 11.4831 27.422 12.1143 27.422ZM18.2857 31.6927C18.2857 32.3133 17.774 32.8165 17.1429 32.8165C16.5117 32.8165 16 32.3133 16 31.6927C16 31.072 16.5117 30.5688 17.1429 30.5688C17.774 30.5688 18.2857 31.072 18.2857 31.6927ZM20.3429 27.422C20.974 27.422 21.4857 26.9189 21.4857 26.2982C21.4857 25.6775 20.974 25.1743 20.3429 25.1743C19.7117 25.1743 19.2 25.6775 19.2 26.2982C19.2 26.9189 19.7117 27.422 20.3429 27.422ZM26.5143 31.6927C26.5143 32.3133 26.0026 32.8165 25.3714 32.8165C24.7402 32.8165 24.2286 32.3133 24.2286 31.6927C24.2286 31.072 24.7402 30.5688 25.3714 30.5688C26.0026 30.5688 26.5143 31.072 26.5143 31.6927ZM28.1143 27.422C28.7455 27.422 29.2571 26.9189 29.2571 26.2982C29.2571 25.6775 28.7455 25.1743 28.1143 25.1743C27.4831 25.1743 26.9714 25.6775 26.9714 26.2982C26.9714 26.9189 27.4831 27.422 28.1143 27.422ZM34.2857 31.6927C34.2857 32.3133 33.774 32.8165 33.1429 32.8165C32.5117 32.8165 32 32.3133 32 31.6927C32 31.072 32.5117 30.5688 33.1429 30.5688C33.774 30.5688 34.2857 31.072 34.2857 31.6927ZM35.8857 27.422C36.5169 27.422 37.0286 26.9189 37.0286 26.2982C37.0286 25.6775 36.5169 25.1743 35.8857 25.1743C35.2545 25.1743 34.7429 25.6775 34.7429 26.2982C34.7429 26.9189 35.2545 27.422 35.8857 27.422ZM42.0571 31.6927C42.0571 32.3133 41.5455 32.8165 40.9143 32.8165C40.2831 32.8165 39.7714 32.3133 39.7714 31.6927C39.7714 31.072 40.2831 30.5688 40.9143 30.5688C41.5455 30.5688 42.0571 31.072 42.0571 31.6927ZM44.1143 27.422C44.7455 27.422 45.2571 26.9189 45.2571 26.2982C45.2571 25.6775 44.7455 25.1743 44.1143 25.1743C43.4831 25.1743 42.9714 25.6775 42.9714 26.2982C42.9714 26.9189 43.4831 27.422 44.1143 27.422ZM50.2857 31.6927C50.2857 32.3133 49.774 32.8165 49.1429 32.8165C48.5117 32.8165 48 32.3133 48 31.6927C48 31.072 48.5117 30.5688 49.1429 30.5688C49.774 30.5688 50.2857 31.072 50.2857 31.6927ZM51.8857 27.422C52.5169 27.422 53.0286 26.9189 53.0286 26.2982C53.0286 25.6775 52.5169 25.1743 51.8857 25.1743C51.2545 25.1743 50.7429 25.6775 50.7429 26.2982C50.7429 26.9189 51.2545 27.422 51.8857 27.422ZM20.1143 39.5596C20.1143 38.8148 20.7283 38.211 21.4857 38.211H42.9714C43.7288 38.211 44.3429 38.8148 44.3429 39.5596C44.3429 40.3045 43.7288 40.9083 42.9714 40.9083H21.4857C20.7283 40.9083 20.1143 40.3045 20.1143 39.5596Z" fill="#1C304A"/>
</svg>
