<?xml version="1.0" encoding="utf-8"?>
<!-- Generator: Adobe Illustrator 19.2.1, SVG Export Plug-In . SVG Version: 6.00 Build 0)  -->
<svg version="1.1" id="Layer_1" xmlns="http://www.w3.org/2000/svg" xmlns:xlink="http://www.w3.org/1999/xlink" x="0px" y="0px"
	 viewBox="0 0 65 65" style="enable-background:new 0 0 65 65;" xml:space="preserve">
<style type="text/css">
	.st0{fill:#00CFFF;}
</style>
<g>
	<path class="st0" d="M61.5,30.1H14.9v-4.6c0-0.6,0.3-5.4,5.7-5.4h19.3c3.5-0.1,10.1-2,10.3-8.6V4.1c0-0.7-0.6-1.3-1.3-1.3
		c-0.7,0-1.3,0.6-1.3,1.3v7.5c-0.2,5.7-7.6,6.1-7.8,6.1H20.5c-6.4,0-8.1,5.1-8.2,7.9v4.6H3.5c-0.7,0-1.3,0.6-1.3,1.3v30.2
		c0,0.7,0.6,1.3,1.3,1.3h58c0.7,0,1.3-0.6,1.3-1.3V31.4C62.7,30.7,62.2,30.1,61.5,30.1z M60.2,60.3H4.8V32.7h55.5V60.3z"/>
	<path class="st0" d="M21.3,54.1c0,0.7,0.6,1.3,1.3,1.3h20c0.7,0,1.3-0.6,1.3-1.3c0-0.7-0.6-1.3-1.3-1.3h-20
		C21.9,52.9,21.3,53.5,21.3,54.1z"/>
	<path class="st0" d="M18.7,47.8c0.3,0,0.6-0.1,0.9-0.4c0.2-0.2,0.4-0.6,0.4-0.9s-0.2-0.7-0.4-0.9c-0.5-0.5-1.3-0.5-1.8,0
		c-0.2,0.2-0.4,0.6-0.4,0.9s0.1,0.7,0.4,0.9C18,47.6,18.3,47.8,18.7,47.8z"/>
	<path class="st0" d="M26.2,47.8c0.3,0,0.7-0.1,0.9-0.4c0.2-0.2,0.4-0.6,0.4-0.9s-0.2-0.7-0.4-0.9c-0.5-0.5-1.3-0.5-1.8,0
		c-0.2,0.2-0.4,0.6-0.4,0.9s0.1,0.7,0.4,0.9C25.6,47.6,25.9,47.8,26.2,47.8z"/>
	<path class="st0" d="M33.8,47.8c0.3,0,0.7-0.1,0.9-0.4c0.3-0.2,0.4-0.6,0.4-0.9c0-0.3-0.2-0.7-0.4-0.9c-0.5-0.5-1.3-0.5-1.8,0
		c-0.2,0.2-0.4,0.6-0.4,0.9s0.1,0.7,0.4,0.9C33.1,47.6,33.4,47.8,33.8,47.8z"/>
	<path class="st0" d="M41.3,47.8c0.3,0,0.6-0.1,0.9-0.4c0.2-0.2,0.4-0.6,0.4-0.9s-0.2-0.7-0.4-0.9c-0.5-0.5-1.3-0.4-1.8,0
		c-0.3,0.3-0.4,0.6-0.4,0.9c0,0.4,0.1,0.7,0.4,0.9C40.7,47.6,41,47.8,41.3,47.8z"/>
	<path class="st0" d="M48.9,47.8c0.3,0,0.6-0.1,0.9-0.4c0.2-0.2,0.4-0.6,0.4-0.9s-0.2-0.7-0.4-0.9c-0.5-0.5-1.3-0.4-1.8,0
		c-0.3,0.2-0.4,0.6-0.4,0.9c0,0.4,0.1,0.7,0.4,0.9C48.2,47.6,48.6,47.8,48.9,47.8z"/>
	<path class="st0" d="M12.8,40.6c-0.3,0.2-0.4,0.6-0.4,0.9c0,0.3,0.1,0.7,0.4,0.9c0.3,0.2,0.6,0.4,0.9,0.4c0.3,0,0.6-0.1,0.9-0.4
		c0.2-0.3,0.4-0.6,0.4-0.9s-0.2-0.7-0.4-0.9C14,40.1,13.1,40.1,12.8,40.6z"/>
	<path class="st0" d="M21.2,42.7c0.3,0,0.6-0.1,0.9-0.4c0.3-0.2,0.4-0.6,0.4-0.9c0-0.4-0.2-0.7-0.4-0.9c-0.5-0.5-1.3-0.5-1.8,0
		c-0.2,0.2-0.4,0.6-0.4,0.9s0.1,0.6,0.4,0.9C20.5,42.6,20.9,42.7,21.2,42.7z"/>
	<path class="st0" d="M28.7,42.7c0.3,0,0.6-0.1,0.9-0.4c0.2-0.3,0.4-0.6,0.4-0.9s-0.2-0.7-0.4-0.9c-0.5-0.5-1.4-0.4-1.8,0
		c-0.3,0.2-0.4,0.6-0.4,0.9c0,0.3,0.1,0.7,0.4,0.9C28.1,42.6,28.4,42.7,28.7,42.7z"/>
	<path class="st0" d="M36.3,42.7c0.3,0,0.7-0.1,0.9-0.4c0.3-0.2,0.4-0.6,0.4-0.9c0-0.4-0.2-0.7-0.4-0.9c-0.5-0.5-1.4-0.5-1.8,0
		c-0.2,0.2-0.4,0.6-0.4,0.9s0.1,0.6,0.4,0.9C35.6,42.6,36,42.7,36.3,42.7z"/>
	<path class="st0" d="M43.8,42.7c0.3,0,0.6-0.1,0.9-0.4c0.2-0.3,0.4-0.6,0.4-0.9s-0.2-0.7-0.4-0.9c-0.5-0.5-1.4-0.5-1.8,0
		c-0.3,0.2-0.4,0.6-0.4,0.9c0,0.3,0.1,0.7,0.4,0.9C43.2,42.6,43.5,42.7,43.8,42.7z"/>
	<path class="st0" d="M51.4,42.7c0.3,0,0.7-0.1,0.9-0.4c0.3-0.2,0.4-0.6,0.4-0.9c0-0.4-0.2-0.7-0.4-0.9c-0.5-0.5-1.3-0.5-1.8,0
		c-0.3,0.2-0.4,0.6-0.4,0.9s0.1,0.6,0.4,0.9C50.7,42.6,51.1,42.7,51.4,42.7z"/>
</g>
</svg>
