<svg width="65" height="64" viewBox="0 0 65 64" fill="none" xmlns="http://www.w3.org/2000/svg">
<path d="M26.5617 55.926C17.0109 51.8891 11.1032 41.846 11.7924 31.4091L16.1247 35.8399C16.4201 36.1353 16.7155 36.2337 17.1094 36.2337C17.5032 36.2337 17.7986 36.1353 18.094 35.8399C18.6847 35.3476 18.6847 34.4614 18.094 33.8707L11.694 27.3722L11.5955 27.2737C11.4971 27.1753 11.497 27.1753 11.3986 27.0768C11.3001 27.0768 11.2017 26.9783 11.1032 26.9783C11.1032 26.9783 11.0047 26.9783 11.0047 26.8799H10.9063C10.8078 26.8799 10.7094 26.8799 10.6109 26.8799C10.5124 26.8799 10.414 26.8799 10.3155 26.9783C10.217 26.9783 10.217 27.0768 10.1186 27.0768C10.0201 27.1753 9.92166 27.1753 9.8232 27.2737C9.8232 27.2737 9.72474 27.2737 9.72474 27.3722L3.22628 33.7722C2.63551 34.2645 2.63551 35.1507 3.22628 35.7414C3.71859 36.3322 4.60474 36.3322 5.19551 35.7414L9.03551 31.9999C8.5432 43.4214 15.0417 54.1537 25.4786 58.486C25.6755 58.5845 25.8724 58.5845 25.9709 58.5845C26.5617 58.5845 27.054 58.2891 27.2509 57.6983C27.5463 57.1076 27.2509 56.2214 26.5617 55.926Z" fill="#B3EFFF"/>
<path d="M63.3853 30.1291C63.2869 29.3414 62.5976 28.8491 61.8099 28.9475C61.0222 29.046 60.5299 29.7352 60.6284 30.5229C61.9084 40.7629 56.1976 50.9045 46.8438 55.6306L48.5176 49.7229C48.7146 48.9352 48.3207 48.246 47.533 48.0491C46.8438 47.8522 46.0561 48.246 45.8592 49.0337L43.4961 57.7968V57.8952C43.4961 57.9937 43.4961 58.0922 43.4961 58.1906C43.4961 58.2891 43.4961 58.3875 43.4961 58.486C43.4961 58.5845 43.4961 58.5845 43.4961 58.6829C43.4961 58.6829 43.4961 58.6829 43.4961 58.7814C43.5946 58.9783 43.693 59.1752 43.9884 59.3722C43.9884 59.3722 44.0869 59.3722 44.0869 59.4706C44.1853 59.5691 44.2838 59.5691 44.3822 59.6675L53.2438 62.1291C53.3422 62.1291 53.5392 62.1291 53.6376 62.1291C54.2284 62.1291 54.8192 61.7352 55.0161 61.1445C55.213 60.3568 54.8192 59.6675 54.0315 59.4706L48.9115 58.0922C58.7576 52.3814 64.7638 41.3537 63.3853 30.1291Z" fill="#B3EFFF"/>
<path d="M44.2839 16.7383L53.047 14.3752C53.047 14.3752 53.1454 14.3752 53.1454 14.2767C53.2439 14.2767 53.2439 14.1783 53.3424 14.1783C53.4408 14.0798 53.5393 14.0798 53.6377 13.9813C53.6377 13.9813 53.7362 13.9813 53.7362 13.8829C53.7362 13.8829 53.7362 13.7844 53.8347 13.7844C53.9331 13.686 53.9331 13.5875 53.9331 13.489C53.9331 13.3906 54.0316 13.2921 54.0316 13.2921C54.0316 13.1936 54.0316 13.0952 54.0316 12.9967C54.0316 12.8983 54.0316 12.7998 54.0316 12.7013V12.6029L51.6685 3.74134C51.4716 2.95365 50.6839 2.5598 49.9947 2.75673C49.207 2.95365 48.8131 3.74134 49.01 4.43057L50.3885 9.55057C40.6408 3.64288 28.1362 4.13519 19.1762 11.0275C18.5854 11.5198 18.487 12.406 18.9793 12.9967C19.4716 13.5875 20.3577 13.686 20.9485 13.1936C29.1208 6.79365 40.7393 6.59673 49.6008 12.209L43.6931 13.7844C42.9054 13.9813 42.5116 14.769 42.7085 15.4583C42.9054 16.049 43.3977 16.4429 44.087 16.4429C44.087 16.8367 44.1854 16.8367 44.2839 16.7383Z" fill="#B3EFFF"/>
</svg>
