<svg width="52" height="53" viewBox="0 0 52 53" fill="none" xmlns="http://www.w3.org/2000/svg">
<path d="M21.0407 45.9398C13.2807 42.6598 8.4807 34.4998 9.0407 26.0198L12.5607 29.6198C12.8007 29.8598 13.0407 29.9398 13.3607 29.9398C13.6807 29.9398 13.9207 29.8598 14.1607 29.6198C14.6407 29.2198 14.6407 28.4998 14.1607 28.0198L8.9607 22.7398L8.8807 22.6598C8.8007 22.5798 8.8007 22.5798 8.7207 22.4998C8.6407 22.4998 8.5607 22.4198 8.4807 22.4198C8.4807 22.4198 8.4007 22.4198 8.4007 22.3398H8.3207C8.2407 22.3398 8.1607 22.3398 8.0807 22.3398C8.0007 22.3398 7.9207 22.3398 7.8407 22.4198C7.7607 22.4198 7.7607 22.4998 7.6807 22.4998C7.6007 22.5798 7.5207 22.5798 7.4407 22.6598C7.4407 22.6598 7.3607 22.6598 7.3607 22.7398L2.0807 27.9398C1.6007 28.3398 1.6007 29.0598 2.0807 29.5398C2.4807 30.0198 3.2007 30.0198 3.6807 29.5398L6.8007 26.4998C6.4007 35.7798 11.6807 44.4998 20.1607 48.0198C20.3207 48.0998 20.4807 48.0998 20.5607 48.0998C21.0407 48.0998 21.4407 47.8598 21.6007 47.3798C21.8407 46.8998 21.6007 46.1798 21.0407 45.9398Z" fill="#1C304A"/>
<path d="M50.9608 24.9799C50.8808 24.3399 50.3208 23.9399 49.6808 24.0199C49.0408 24.0999 48.6408 24.6599 48.7208 25.2999C49.7608 33.6199 45.1208 41.8599 37.5208 45.6999L38.8808 40.8999C39.0408 40.2599 38.7208 39.6999 38.0808 39.5399C37.5208 39.3799 36.8808 39.6999 36.7208 40.3399L34.8008 47.4599V47.5399C34.8008 47.6199 34.8008 47.6999 34.8008 47.7799C34.8008 47.8599 34.8008 47.9399 34.8008 48.0199C34.8008 48.0999 34.8008 48.0999 34.8008 48.1799C34.8008 48.1799 34.8008 48.1799 34.8008 48.2599C34.8808 48.4199 34.9608 48.5799 35.2008 48.7399C35.2008 48.7399 35.2808 48.7399 35.2808 48.8199C35.3608 48.8999 35.4408 48.8999 35.5208 48.9799L42.7208 50.9799C42.8008 50.9799 42.9608 50.9799 43.0408 50.9799C43.5208 50.9799 44.0008 50.6599 44.1608 50.1799C44.3208 49.5399 44.0008 48.9799 43.3608 48.8199L39.2008 47.6999C47.2008 43.0599 52.0808 34.0999 50.9608 24.9799Z" fill="#1C304A"/>
<path d="M35.4411 14.1L42.5611 12.18C42.5611 12.18 42.6411 12.18 42.6411 12.1C42.7211 12.1 42.7211 12.02 42.8011 12.02C42.8811 11.94 42.9611 11.94 43.0411 11.86C43.0411 11.86 43.1211 11.86 43.1211 11.78C43.1211 11.78 43.1211 11.7 43.2011 11.7C43.2811 11.62 43.2811 11.54 43.2811 11.46C43.2811 11.38 43.3611 11.3 43.3611 11.3C43.3611 11.22 43.3611 11.14 43.3611 11.06C43.3611 10.98 43.3611 10.9 43.3611 10.82V10.74L41.4411 3.53999C41.2811 2.89999 40.6411 2.57999 40.0811 2.73999C39.4411 2.89999 39.1211 3.53999 39.2811 4.09999L40.4011 8.25999C32.4811 3.45999 22.3211 3.85999 15.0411 9.45999C14.5611 9.85999 14.4811 10.58 14.8811 11.06C15.2811 11.54 16.0011 11.62 16.4811 11.22C23.1211 6.01999 32.5611 5.85999 39.7611 10.42L34.9611 11.7C34.3211 11.86 34.0011 12.5 34.1611 13.06C34.3211 13.54 34.7211 13.86 35.2811 13.86C35.2811 14.18 35.3611 14.18 35.4411 14.1Z" fill="#1C304A"/>
</svg>
