<svg width="52" height="53" viewBox="0 0 52 53" fill="none" xmlns="http://www.w3.org/2000/svg">
<path d="M4.5592 11.4599L5.0392 11.7799L4.9592 12.1799C4.3192 14.0999 4.1592 14.7399 4.6392 15.4599C4.8792 15.7799 5.3592 16.0199 5.6792 16.0199C6.3192 16.0199 6.7992 15.6999 8.1592 14.7399L8.6392 14.4199L9.1192 14.7399C10.4792 15.6999 10.9592 16.0199 11.5992 16.0199C11.9992 16.0199 12.4792 15.7799 12.6392 15.4599C13.1192 14.8199 12.9592 14.0999 12.3192 12.1799L12.2392 11.7799L12.5592 11.5399C14.3192 10.2599 15.0392 9.69992 14.7192 8.65992C14.3192 7.69992 13.4392 7.69992 11.4392 7.69992H10.7992L10.6392 7.29992C9.9192 5.21992 9.6792 4.41992 8.5592 4.41992C7.5192 4.41992 7.1992 5.29992 6.5592 7.13992L6.4792 7.69992H6.0792C3.8392 7.69992 2.9592 7.69992 2.6392 8.73992C2.3192 9.77992 3.0392 10.3399 4.5592 11.4599ZM7.2792 10.0199C7.7592 10.0199 8.2392 9.69992 8.3992 9.21992L8.6392 8.57992L8.8792 9.21992C9.0392 9.69992 9.4392 10.0199 9.9992 10.0199H10.6392L10.0792 10.4199C9.6792 10.7399 9.5192 11.2199 9.6792 11.6999L9.9192 12.3399L9.3592 11.9399C9.1192 11.7799 8.9592 11.6999 8.7192 11.6999C8.4792 11.6999 8.2392 11.7799 8.0792 11.9399L7.5192 12.3399L7.5992 11.6999C7.7592 11.2199 7.5992 10.7399 7.1992 10.4199L6.6392 10.0199H7.2792Z" fill="#1C304A"/>
<path d="M4.55899 28.0198L5.03899 28.3398L4.95899 28.6598C4.31899 30.6598 4.15899 31.2998 4.63899 31.9398C4.87899 32.2598 5.35899 32.4998 5.67899 32.4998C6.31899 32.4998 6.79899 32.1798 8.07899 31.2198L8.55899 30.8998L9.03899 31.2198C10.399 32.1798 10.879 32.4998 11.519 32.4998C11.919 32.4998 12.399 32.2598 12.559 31.9398C13.039 31.2998 12.879 30.5798 12.239 28.6598L12.159 28.2598L12.479 28.0198C14.239 26.7398 14.959 26.1798 14.639 25.1398C14.319 24.0998 13.439 24.0998 11.439 24.0998H10.799L10.639 23.6998C9.91899 21.6198 9.67899 20.8198 8.55899 20.8198C7.51899 20.8198 7.19899 21.6998 6.55899 23.5398L6.39899 24.0998H5.99899C3.75899 24.0998 2.87899 24.1798 2.55899 25.1398C2.31899 26.3398 3.03899 26.8998 4.55899 28.0198ZM7.27899 26.5798C7.75899 26.5798 8.23899 26.2598 8.39899 25.7798L8.63899 25.1398L8.87899 25.7798C9.03899 26.2598 9.43899 26.5798 9.99899 26.5798H10.639L10.079 26.9798C9.67899 27.2998 9.51899 27.7798 9.67899 28.2598L9.91899 28.8998L9.35899 28.4998C8.95899 28.2598 8.39899 28.2598 7.99899 28.4998L7.43899 28.8998L7.67899 28.2598C7.83899 27.7798 7.67899 27.2998 7.27899 26.9798L6.71899 26.5798H7.27899Z" fill="#1C304A"/>
<path d="M11.4389 40.82H10.8789L10.7189 40.42C9.99889 38.42 9.75889 37.54 8.63889 37.54C7.59889 37.54 7.27889 38.42 6.63889 40.26L6.47889 40.82H6.07889C3.83889 40.82 2.95889 40.9 2.63889 41.86C2.31889 42.9 3.03889 43.38 4.63889 44.58L5.11889 44.9L5.03889 45.22C4.39889 47.22 4.23889 47.86 4.71889 48.5C4.95889 48.82 5.43889 49.06 5.75889 49.06C6.39889 49.06 6.87889 48.74 8.15889 47.78L8.63889 47.46L9.11889 47.78C10.4789 48.74 10.9589 49.06 11.5989 49.06C11.9989 49.06 12.4789 48.82 12.6389 48.5C13.1189 47.86 12.9589 47.14 12.3189 45.22L12.2389 44.82L12.5589 44.58C14.3189 43.3 15.0389 42.74 14.7189 41.7C14.3189 40.9 13.4389 40.9 11.4389 40.82ZM10.0789 43.62C9.67889 43.94 9.51889 44.42 9.67889 44.9L9.83889 45.54L9.27889 45.14C8.87889 44.9 8.31889 44.9 7.91889 45.14L7.35889 45.54L7.51889 44.9C7.67889 44.42 7.51889 43.94 7.11889 43.62L6.55889 43.22H7.27889C7.75889 43.22 8.23889 42.9 8.39889 42.42L8.63889 41.78L8.87889 42.42C9.03889 42.9 9.43889 43.22 9.99889 43.22H10.7189L10.0789 43.62Z" fill="#1C304A"/>
<path d="M48.3188 42.1797H19.9988C19.3588 42.1797 18.7988 42.7397 18.7988 43.3797C18.7988 44.0197 19.3588 44.5797 19.9988 44.5797H48.2388C48.8788 44.5797 49.4388 44.0197 49.4388 43.3797C49.4388 42.7397 48.9588 42.1797 48.3188 42.1797Z" fill="#1C304A"/>
<path d="M48.3188 25.6201H19.9988C19.3588 25.6201 18.7988 26.1801 18.7988 26.8201C18.7988 27.4601 19.3588 28.0201 19.9988 28.0201H48.2388C48.8788 28.0201 49.4388 27.4601 49.4388 26.8201C49.4388 26.1801 48.9588 25.6201 48.3188 25.6201Z" fill="#1C304A"/>
<path d="M19.9988 11.38H48.2388C48.8788 11.38 49.4388 10.82 49.4388 10.18C49.4388 9.53998 48.8788 8.97998 48.2388 8.97998H19.9988C19.3588 8.97998 18.7988 9.53998 18.7988 10.18C18.7988 10.9 19.3588 11.38 19.9988 11.38Z" fill="#1C304A"/>
</svg>
