<svg width="65" height="64" viewBox="0 0 65 64" fill="none" xmlns="http://www.w3.org/2000/svg">
<path d="M5.94726 13.4893L6.53803 13.8832L6.43956 14.3755C5.65187 16.7386 5.45495 17.5262 6.04572 18.4124C6.3411 18.8062 6.93187 19.1016 7.32572 19.1016C8.11341 19.1016 8.70418 18.7078 10.378 17.5262L10.9688 17.1324L11.5596 17.5262C13.2334 18.7078 13.8242 19.1016 14.6119 19.1016C15.1042 19.1016 15.6949 18.8062 15.8919 18.4124C16.4826 17.6247 16.2857 16.7386 15.498 14.3755L15.3996 13.8832L15.7934 13.5878C17.9596 12.0124 18.8457 11.3232 18.4519 10.0432C17.9596 8.86163 16.8765 8.86163 14.4149 8.86163H13.6273L13.4303 8.36932C12.5442 5.80932 12.2488 4.82471 10.8703 4.82471C9.59033 4.82471 9.19649 5.90778 8.4088 8.1724L8.31033 8.86163H7.81803C5.0611 8.86163 3.97803 8.86163 3.58418 10.1416C3.19033 11.4216 4.07649 12.1109 5.94726 13.4893ZM9.29495 11.717C9.88572 11.717 10.4765 11.3232 10.6734 10.7324L10.9688 9.94471L11.2642 10.7324C11.4611 11.3232 11.9534 11.717 12.6426 11.717H13.4303L12.7411 12.2093C12.2488 12.6032 12.0519 13.1939 12.2488 13.7847L12.5442 14.5724L11.8549 14.0801C11.5596 13.8832 11.3626 13.7847 11.0673 13.7847C10.7719 13.7847 10.4765 13.8832 10.2796 14.0801L9.59033 14.5724L9.6888 13.7847C9.88572 13.1939 9.6888 12.6032 9.19649 12.2093L8.50726 11.717H9.29495Z" fill="#B3EFFF"/>
<path d="M5.947 33.8708L6.53777 34.2647L6.43931 34.6585C5.65162 37.12 5.45469 37.9077 6.04546 38.6954C6.34085 39.0893 6.93162 39.3847 7.32546 39.3847C8.11315 39.3847 8.70392 38.9908 10.2793 37.8093L10.8701 37.4154L11.4608 37.8093C13.1347 38.9908 13.7255 39.3847 14.5132 39.3847C15.0055 39.3847 15.5962 39.0893 15.7932 38.6954C16.3839 37.9077 16.187 37.0216 15.3993 34.6585L15.3008 34.1662L15.6947 33.8708C17.8608 32.2954 18.747 31.6062 18.3532 30.3262C17.9593 29.0462 16.8762 29.0462 14.4147 29.0462H13.627L13.4301 28.5539C12.5439 25.9939 12.2485 25.0093 10.8701 25.0093C9.59008 25.0093 9.19623 26.0924 8.40854 28.357L8.21162 29.0462H7.71931C4.96239 29.0462 3.87931 29.1447 3.48546 30.3262C3.19008 31.8031 4.07623 32.4924 5.947 33.8708ZM9.29469 32.0985C9.88546 32.0985 10.4762 31.7047 10.6732 31.1139L10.9685 30.3262L11.2639 31.1139C11.4608 31.7047 11.9532 32.0985 12.6424 32.0985H13.4301L12.7408 32.5908C12.2485 32.9847 12.0516 33.5754 12.2485 34.1662L12.5439 34.9539L11.8547 34.4616C11.3624 34.1662 10.6732 34.1662 10.1808 34.4616L9.49162 34.9539L9.787 34.1662C9.98392 33.5754 9.787 32.9847 9.29469 32.5908L8.60546 32.0985H9.29469Z" fill="#B3EFFF"/>
<path d="M14.4146 49.6248H13.7253L13.5284 49.1325C12.6423 46.671 12.3469 45.5879 10.9684 45.5879C9.68842 45.5879 9.29457 46.671 8.50688 48.9356L8.30996 49.6248H7.81765C5.06073 49.6248 3.97765 49.7233 3.58381 50.9048C3.18996 52.1848 4.07611 52.7756 6.04534 54.2525L6.63611 54.6464L6.53765 55.0402C5.74996 57.5017 5.55304 58.2894 6.14381 59.0771C6.43919 59.471 7.02996 59.7664 7.42381 59.7664C8.2115 59.7664 8.80227 59.3725 10.3777 58.191L10.9684 57.7971L11.5592 58.191C13.233 59.3725 13.8238 59.7664 14.6115 59.7664C15.1038 59.7664 15.6946 59.471 15.8915 59.0771C16.4823 58.2894 16.2853 57.4033 15.4977 55.0402L15.3992 54.5479L15.793 54.2525C17.9592 52.6771 18.8453 51.9879 18.4515 50.7079C17.9592 49.7233 16.8761 49.7233 14.4146 49.6248ZM12.7407 53.071C12.2484 53.4648 12.0515 54.0556 12.2484 54.6464L12.4453 55.434L11.7561 54.9417C11.2638 54.6464 10.5746 54.6464 10.0823 54.9417L9.39304 55.434L9.58996 54.6464C9.78688 54.0556 9.58996 53.4648 9.09765 53.071L8.40842 52.5787H9.29457C9.88534 52.5787 10.4761 52.1848 10.673 51.594L10.9684 50.8064L11.2638 51.594C11.4607 52.1848 11.953 52.5787 12.6423 52.5787H13.5284L12.7407 53.071Z" fill="#B3EFFF"/>
<path d="M59.805 51.2983H24.9496C24.1619 51.2983 23.4727 51.9876 23.4727 52.7753C23.4727 53.563 24.1619 54.2522 24.9496 54.2522H59.7065C60.4942 54.2522 61.1834 53.563 61.1834 52.7753C61.1834 51.9876 60.5927 51.2983 59.805 51.2983Z" fill="#B3EFFF"/>
<path d="M59.805 30.917H24.9496C24.1619 30.917 23.4727 31.6062 23.4727 32.3939C23.4727 33.1816 24.1619 33.8708 24.9496 33.8708H59.7065C60.4942 33.8708 61.1834 33.1816 61.1834 32.3939C61.1834 31.6062 60.5927 30.917 59.805 30.917Z" fill="#B3EFFF"/>
<path d="M24.9496 13.3909H59.7065C60.4942 13.3909 61.1834 12.7016 61.1834 11.9139C61.1834 11.1262 60.4942 10.437 59.7065 10.437H24.9496C24.1619 10.437 23.4727 11.1262 23.4727 11.9139C23.4727 12.8001 24.1619 13.3909 24.9496 13.3909Z" fill="#B3EFFF"/>
</svg>
