<?xml version="1.0" encoding="utf-8"?>
<!-- Generator: Adobe Illustrator 19.2.1, SVG Export Plug-In . SVG Version: 6.00 Build 0)  -->
<svg version="1.1" id="Layer_1" xmlns="http://www.w3.org/2000/svg" xmlns:xlink="http://www.w3.org/1999/xlink" x="0px" y="0px"
	 viewBox="0 0 65 65" style="enable-background:new 0 0 65 65;" xml:space="preserve">
<style type="text/css">
	.st0{fill:#00CFFF;}
</style>
<g>
	<path class="st0" d="M5.7,13.7l0.6,0.4l-0.1,0.5c-0.8,2.4-1,3.2-0.4,4.1c0.3,0.4,0.9,0.7,1.3,0.7c0.8,0,1.4-0.4,3.1-1.6l0.6-0.4
		l0.6,0.4c1.7,1.2,2.3,1.6,3.1,1.6c0.5,0,1.1-0.3,1.3-0.7c0.6-0.8,0.4-1.7-0.4-4.1l-0.1-0.5l0.4-0.3c2.2-1.6,3.1-2.3,2.7-3.6
		C17.9,9,16.8,9,14.3,9l-0.8,0l-0.2-0.5c-0.9-2.6-1.2-3.6-2.6-3.6c-1.3,0-1.7,1.1-2.5,3.4L8.1,9L7.6,9C4.8,9,3.7,9,3.3,10.3
		C2.9,11.6,3.8,12.3,5.7,13.7z M9.1,11.9c0.6,0,1.2-0.4,1.4-1l0.3-0.8l0.3,0.8c0.2,0.6,0.7,1,1.4,1l0.8,0l-0.7,0.5
		c-0.5,0.4-0.7,1-0.5,1.6l0.3,0.8l-0.7-0.5c-0.3-0.2-0.5-0.3-0.8-0.3c-0.3,0-0.6,0.1-0.8,0.3l-0.7,0.5L9.5,14c0.2-0.6,0-1.2-0.5-1.6
		l-0.7-0.5L9.1,11.9z"/>
	<path class="st0" d="M5.7,34.4l0.6,0.4l-0.1,0.4c-0.8,2.5-1,3.3-0.4,4.1c0.3,0.4,0.9,0.7,1.3,0.7c0.8,0,1.4-0.4,3-1.6l0.6-0.4
		l0.6,0.4c1.7,1.2,2.3,1.6,3.1,1.6h0c0.5,0,1.1-0.3,1.3-0.7c0.6-0.8,0.4-1.7-0.4-4.1l-0.1-0.5l0.4-0.3c2.2-1.6,3.1-2.3,2.7-3.6
		c-0.4-1.3-1.5-1.3-4-1.3l-0.8,0l-0.2-0.5c-0.9-2.6-1.2-3.6-2.6-3.6c-1.3,0-1.7,1.1-2.5,3.4l-0.2,0.7l-0.5,0c-2.8,0-3.9,0.1-4.3,1.3
		C2.9,32.3,3.8,33,5.7,34.4z M9.1,32.6c0.6,0,1.2-0.4,1.4-1l0.3-0.8l0.3,0.8c0.2,0.6,0.7,1,1.4,1l0.8,0l-0.7,0.5
		c-0.5,0.4-0.7,1-0.5,1.6l0.3,0.8l-0.7-0.5c-0.5-0.3-1.2-0.3-1.7,0l-0.7,0.5l0.3-0.8c0.2-0.6,0-1.2-0.5-1.6l-0.7-0.5L9.1,32.6z"/>
	<path class="st0" d="M14.3,50.4l-0.7,0l-0.2-0.5c-0.9-2.5-1.2-3.6-2.6-3.6c-1.3,0-1.7,1.1-2.5,3.4l-0.2,0.7l-0.5,0
		c-2.8,0-3.9,0.1-4.3,1.3c-0.4,1.3,0.5,1.9,2.5,3.4l0.6,0.4l-0.1,0.4c-0.8,2.5-1,3.3-0.4,4.1c0.3,0.4,0.9,0.7,1.3,0.7
		c0.8,0,1.4-0.4,3-1.6l0.6-0.4l0.6,0.4c1.7,1.2,2.3,1.6,3.1,1.6h0c0.5,0,1.1-0.3,1.3-0.7c0.6-0.8,0.4-1.7-0.4-4.1l-0.1-0.5l0.4-0.3
		c2.2-1.6,3.1-2.3,2.7-3.6C17.9,50.5,16.8,50.5,14.3,50.4z M12.6,53.9c-0.5,0.4-0.7,1-0.5,1.6l0.2,0.8l-0.7-0.5
		c-0.5-0.3-1.2-0.3-1.7,0l-0.7,0.5l0.2-0.8c0.2-0.6,0-1.2-0.5-1.6l-0.7-0.5l0.9,0c0.6,0,1.2-0.4,1.4-1l0.3-0.8l0.3,0.8
		c0.2,0.6,0.7,1,1.4,1l0.9,0L12.6,53.9z"/>
	<path class="st0" d="M60.4,52.1H25c-0.8,0-1.5,0.7-1.5,1.5c0,0.8,0.7,1.5,1.5,1.5h35.3c0.8,0,1.5-0.7,1.5-1.5
		C61.8,52.8,61.2,52.1,60.4,52.1z"/>
	<path class="st0" d="M60.4,31.4H25c-0.8,0-1.5,0.7-1.5,1.5c0,0.8,0.7,1.5,1.5,1.5h35.3c0.8,0,1.5-0.7,1.5-1.5
		C61.8,32.1,61.2,31.4,60.4,31.4z"/>
	<path class="st0" d="M25,13.6h35.3c0.8,0,1.5-0.7,1.5-1.5c0-0.8-0.7-1.5-1.5-1.5H25c-0.8,0-1.5,0.7-1.5,1.5
		C23.5,13,24.2,13.6,25,13.6z"/>
</g>
</svg>
