<svg width="320" height="316" viewBox="0 0 320 316" fill="none" xmlns="http://www.w3.org/2000/svg">
<g clip-path="url(#clip0_733_1760)">
<path d="M160 315.52C245.891 315.52 315.52 245.891 315.52 160C315.52 74.1087 245.891 4.48 160 4.48C74.1087 4.48 4.48001 74.1087 4.48001 160C4.48001 245.891 74.1087 315.52 160 315.52Z" fill="#00CFFF"/>
<mask id="mask0_733_1760" style="mask-type:alpha" maskUnits="userSpaceOnUse" x="4" y="-1" width="312" height="316">
<path fill-rule="evenodd" clip-rule="evenodd" d="M315.52 -1H4.48001V159C4.48001 244.891 74.1088 314.52 160 314.52C245.891 314.52 315.52 244.891 315.52 159V-1Z" fill="#D9D9D9"/>
</mask>
<g mask="url(#mask0_733_1760)">
<path d="M256.64 73.36H63.36V369.04H256.64V73.36Z" fill="white" stroke="black" stroke-width="8"/>
<path d="M85.6349 119.664H88.6813C89.1748 119.664 89.6535 119.584 90.1175 119.425C90.5815 119.266 90.9949 119.004 91.3578 118.642C91.7207 118.265 92.0106 117.778 92.2282 117.184C92.4458 116.589 92.5546 115.863 92.5546 115.008C92.5546 114.224 92.4746 113.521 92.3152 112.897C92.1699 112.259 91.9236 111.715 91.5754 111.265C91.2272 110.815 90.7632 110.475 90.1827 110.242C89.617 109.996 88.9136 109.872 88.072 109.872H85.6349V119.664ZM82.2186 107H88.9207C89.9216 107 90.8503 107.159 91.7059 107.479C92.5763 107.798 93.3232 108.277 93.9472 108.915C94.5853 109.553 95.0787 110.351 95.4269 111.308C95.7898 112.266 95.9709 113.39 95.9709 114.681C95.9709 115.813 95.8256 116.857 95.5357 117.815C95.2458 118.772 94.8029 119.599 94.2084 120.295C93.6279 120.992 92.8957 121.543 92.0106 121.949C91.1402 122.341 90.1104 122.537 88.9207 122.537H82.2186V107ZM105.92 115.704C105.775 114.921 105.514 114.326 105.136 113.92C104.774 113.513 104.215 113.31 103.461 113.31C102.968 113.31 102.555 113.397 102.221 113.572C101.902 113.731 101.641 113.934 101.437 114.181C101.249 114.427 101.111 114.688 101.024 114.964C100.951 115.24 100.908 115.486 100.893 115.704H105.92ZM100.893 117.662C100.937 118.663 101.191 119.388 101.655 119.838C102.119 120.288 102.786 120.513 103.657 120.513C104.281 120.513 104.818 120.361 105.267 120.056C105.717 119.737 105.993 119.403 106.094 119.055H108.814C108.379 120.404 107.712 121.369 106.812 121.949C105.913 122.53 104.825 122.82 103.548 122.82C102.663 122.82 101.865 122.682 101.154 122.406C100.444 122.116 99.8416 121.71 99.3482 121.188C98.8554 120.665 98.4708 120.041 98.1949 119.316C97.9338 118.591 97.8032 117.793 97.8032 116.923C97.8032 116.081 97.9415 115.298 98.2167 114.572C98.4925 113.847 98.8842 113.223 99.3917 112.701C99.8999 112.164 100.501 111.744 101.198 111.439C101.909 111.134 102.692 110.982 103.548 110.982C104.505 110.982 105.34 111.171 106.05 111.548C106.761 111.911 107.342 112.404 107.791 113.028C108.256 113.652 108.589 114.362 108.792 115.16C108.996 115.958 109.068 116.792 109.01 117.662H100.893ZM111.147 115.269H117.697V117.924H111.147V115.269ZM120.356 111.287H123.294V113.376H123.337C123.483 113.028 123.678 112.708 123.925 112.418C124.172 112.114 124.455 111.86 124.773 111.657C125.093 111.439 125.434 111.272 125.796 111.156C126.159 111.04 126.536 110.982 126.928 110.982C127.131 110.982 127.356 111.019 127.602 111.091V113.963C127.458 113.934 127.284 113.913 127.08 113.898C126.877 113.869 126.681 113.854 126.493 113.854C125.927 113.854 125.448 113.948 125.056 114.137C124.665 114.326 124.346 114.587 124.099 114.921C123.867 115.24 123.7 115.617 123.598 116.052C123.497 116.487 123.446 116.959 123.446 117.467V122.537H120.356V111.287ZM132.317 109.546H129.227V107H132.317V109.546ZM129.227 111.287H132.317V122.537H129.227V111.287ZM137.47 118.881C137.47 119.214 137.536 119.505 137.666 119.751C137.811 119.984 137.993 120.18 138.21 120.339C138.428 120.484 138.674 120.593 138.95 120.665C139.24 120.738 139.538 120.774 139.842 120.774C140.06 120.774 140.285 120.752 140.517 120.709C140.763 120.651 140.981 120.571 141.17 120.469C141.373 120.354 141.54 120.208 141.67 120.034C141.801 119.845 141.866 119.614 141.866 119.338C141.866 118.874 141.554 118.526 140.93 118.293C140.321 118.061 139.465 117.829 138.363 117.597C137.913 117.495 137.47 117.38 137.035 117.249C136.614 117.104 136.237 116.923 135.904 116.705C135.57 116.473 135.301 116.19 135.099 115.856C134.895 115.508 134.794 115.088 134.794 114.594C134.794 113.869 134.932 113.274 135.207 112.81C135.497 112.346 135.874 111.983 136.339 111.722C136.803 111.446 137.325 111.258 137.906 111.156C138.485 111.04 139.081 110.982 139.69 110.982C140.299 110.982 140.887 111.04 141.453 111.156C142.032 111.272 142.548 111.468 142.997 111.744C143.447 112.02 143.817 112.389 144.107 112.853C144.412 113.303 144.593 113.876 144.651 114.572H141.714C141.67 113.978 141.445 113.579 141.039 113.376C140.633 113.158 140.154 113.049 139.603 113.049C139.429 113.049 139.24 113.064 139.037 113.093C138.834 113.108 138.645 113.151 138.471 113.223C138.311 113.296 138.174 113.404 138.058 113.55C137.941 113.68 137.884 113.861 137.884 114.094C137.884 114.37 137.985 114.594 138.189 114.768C138.391 114.942 138.653 115.088 138.972 115.204C139.305 115.305 139.682 115.399 140.103 115.486C140.524 115.573 140.952 115.668 141.387 115.769C141.837 115.871 142.272 115.994 142.693 116.139C143.128 116.284 143.512 116.48 143.846 116.727C144.18 116.959 144.448 117.256 144.651 117.619C144.854 117.967 144.956 118.402 144.956 118.924C144.956 119.664 144.804 120.288 144.499 120.796C144.208 121.289 143.824 121.688 143.346 121.993C142.867 122.297 142.315 122.508 141.692 122.624C141.083 122.754 140.459 122.82 139.821 122.82C139.168 122.82 138.529 122.754 137.906 122.624C137.282 122.493 136.723 122.276 136.23 121.971C135.751 121.666 135.352 121.268 135.033 120.774C134.729 120.267 134.562 119.636 134.533 118.881H137.47ZM147.373 107H150.463V115.334L154.358 111.287H158.014L153.771 115.421L158.493 122.537H154.75L151.66 117.51L150.463 118.663V122.537H147.373V107ZM163.089 109.546H159.999V107H163.089V109.546ZM159.999 111.287H163.089V122.537H159.999V111.287ZM165.849 111.287H168.786V112.853H168.852C169.243 112.201 169.751 111.729 170.375 111.439C170.998 111.134 171.637 110.982 172.29 110.982C173.117 110.982 173.791 111.098 174.313 111.33C174.85 111.548 175.271 111.86 175.575 112.266C175.88 112.658 176.09 113.143 176.206 113.724C176.337 114.29 176.402 114.921 176.402 115.617V122.537H173.312V116.183C173.312 115.254 173.167 114.565 172.877 114.116C172.587 113.652 172.072 113.419 171.332 113.419C170.491 113.419 169.881 113.673 169.504 114.181C169.127 114.674 168.939 115.493 168.939 116.64V122.537H165.849V111.287ZM184.318 119.882C184.753 119.882 185.138 119.795 185.471 119.621C185.805 119.447 186.08 119.214 186.298 118.924C186.516 118.635 186.675 118.308 186.777 117.945C186.893 117.568 186.951 117.177 186.951 116.77C186.951 116.306 186.907 115.871 186.82 115.465C186.733 115.044 186.588 114.674 186.385 114.355C186.182 114.036 185.913 113.782 185.58 113.593C185.246 113.404 184.825 113.31 184.318 113.31C183.883 113.31 183.506 113.397 183.186 113.572C182.882 113.746 182.621 113.985 182.403 114.29C182.2 114.58 182.048 114.921 181.946 115.312C181.859 115.689 181.815 116.089 181.815 116.509C181.815 116.916 181.852 117.321 181.924 117.728C182.011 118.119 182.149 118.475 182.338 118.794C182.541 119.113 182.802 119.374 183.121 119.577C183.44 119.78 183.839 119.882 184.318 119.882ZM189.888 121.819C189.888 122.268 189.823 122.783 189.693 123.364C189.577 123.944 189.316 124.48 188.909 124.974C188.503 125.481 187.915 125.909 187.147 126.258C186.378 126.606 185.348 126.78 184.057 126.78C183.506 126.78 182.94 126.708 182.359 126.562C181.794 126.432 181.271 126.221 180.793 125.931C180.329 125.641 179.937 125.264 179.618 124.8C179.313 124.35 179.139 123.806 179.095 123.168H182.164C182.309 123.748 182.592 124.147 183.012 124.364C183.433 124.597 183.919 124.713 184.47 124.713C185.341 124.713 185.972 124.452 186.363 123.929C186.77 123.407 186.965 122.747 186.951 121.949V120.469H186.907C186.574 121.064 186.095 121.507 185.471 121.797C184.862 122.073 184.216 122.21 183.534 122.21C182.693 122.21 181.968 122.065 181.358 121.775C180.749 121.47 180.249 121.064 179.857 120.556C179.465 120.034 179.175 119.432 178.987 118.75C178.813 118.054 178.725 117.321 178.725 116.553C178.725 115.828 178.827 115.131 179.03 114.464C179.248 113.782 179.559 113.187 179.966 112.679C180.372 112.157 180.873 111.744 181.467 111.439C182.077 111.134 182.773 110.982 183.556 110.982C184.296 110.982 184.942 111.12 185.493 111.396C186.059 111.671 186.53 112.135 186.907 112.788H186.951V111.287H189.888V121.819ZM93.4467 147.654C92.8375 148.437 92.1629 148.988 91.4231 149.308C90.6832 149.612 89.9363 149.765 89.1818 149.765C87.992 149.765 86.9188 149.562 85.9613 149.156C85.0186 148.735 84.2205 148.162 83.5677 147.436C82.9149 146.711 82.4144 145.863 82.0663 144.891C81.7181 143.904 81.544 142.845 81.544 141.714C81.544 140.553 81.7181 139.479 82.0663 138.493C82.4144 137.492 82.9149 136.622 83.5677 135.882C84.2205 135.142 85.0186 134.562 85.9613 134.141C86.9188 133.721 87.992 133.51 89.1818 133.51C89.9799 133.51 90.7485 133.634 91.4884 133.88C92.2429 134.112 92.9175 134.46 93.512 134.924C94.1213 135.388 94.6218 135.962 95.0135 136.644C95.4051 137.325 95.6445 138.108 95.7316 138.994H92.4676C92.2647 138.123 91.873 137.47 91.2925 137.035C90.712 136.6 90.0087 136.382 89.1818 136.382C88.4131 136.382 87.7604 136.535 87.2234 136.839C86.6864 137.129 86.2512 137.529 85.9178 138.036C85.5844 138.53 85.3373 139.095 85.178 139.733C85.0327 140.372 84.9604 141.032 84.9604 141.714C84.9604 142.366 85.0327 143.004 85.178 143.628C85.3373 144.238 85.5844 144.789 85.9178 145.282C86.2512 145.776 86.6864 146.174 87.2234 146.479C87.7604 146.769 88.4131 146.914 89.1818 146.914C90.3133 146.914 91.1837 146.631 91.793 146.066C92.417 145.485 92.7792 144.651 92.881 143.563H89.4429V141.017H95.9709V149.417H93.7949L93.4467 147.654ZM101.472 143.803C101.472 144.252 101.515 144.695 101.602 145.13C101.689 145.55 101.834 145.935 102.037 146.283C102.255 146.617 102.538 146.885 102.886 147.088C103.234 147.291 103.669 147.393 104.192 147.393C104.714 147.393 105.149 147.291 105.497 147.088C105.86 146.885 106.142 146.617 106.346 146.283C106.564 145.935 106.716 145.55 106.803 145.13C106.89 144.695 106.933 144.252 106.933 143.803C106.933 143.353 106.89 142.91 106.803 142.475C106.716 142.04 106.564 141.655 106.346 141.322C106.142 140.988 105.86 140.72 105.497 140.517C105.149 140.299 104.714 140.19 104.192 140.19C103.669 140.19 103.234 140.299 102.886 140.517C102.538 140.72 102.255 140.988 102.037 141.322C101.834 141.655 101.689 142.04 101.602 142.475C101.515 142.91 101.472 143.353 101.472 143.803ZM98.3818 143.803C98.3818 142.903 98.5194 142.091 98.7952 141.365C99.0704 140.626 99.4621 140.002 99.9703 139.494C100.478 138.972 101.087 138.573 101.798 138.297C102.509 138.007 103.307 137.862 104.192 137.862C105.076 137.862 105.874 138.007 106.585 138.297C107.31 138.573 107.927 138.972 108.435 139.494C108.942 140.002 109.334 140.626 109.61 141.365C109.885 142.091 110.023 142.903 110.023 143.803C110.023 144.702 109.885 145.515 109.61 146.24C109.334 146.965 108.942 147.589 108.435 148.111C107.927 148.619 107.31 149.01 106.585 149.286C105.874 149.562 105.076 149.7 104.192 149.7C103.307 149.7 102.509 149.562 101.798 149.286C101.087 149.01 100.478 148.619 99.9703 148.111C99.4621 147.589 99.0704 146.965 98.7952 146.24C98.5194 145.515 98.3818 144.702 98.3818 143.803ZM118.582 149.417H115.144L111.293 138.167H114.535L116.907 145.848H116.95L119.322 138.167H122.39L118.582 149.417ZM131.563 142.584C131.417 141.801 131.156 141.206 130.779 140.8C130.416 140.393 129.858 140.19 129.104 140.19C128.61 140.19 128.197 140.277 127.863 140.452C127.544 140.611 127.283 140.814 127.08 141.061C126.891 141.307 126.754 141.568 126.667 141.844C126.594 142.12 126.551 142.366 126.536 142.584H131.563ZM126.536 144.542C126.58 145.543 126.834 146.268 127.298 146.718C127.762 147.168 128.429 147.393 129.3 147.393C129.924 147.393 130.46 147.241 130.91 146.936C131.36 146.617 131.635 146.283 131.737 145.935H134.457C134.021 147.284 133.354 148.249 132.455 148.829C131.556 149.41 130.468 149.7 129.191 149.7C128.306 149.7 127.508 149.562 126.797 149.286C126.086 148.996 125.485 148.59 124.991 148.068C124.498 147.545 124.114 146.921 123.838 146.196C123.577 145.471 123.446 144.673 123.446 143.803C123.446 142.961 123.584 142.178 123.86 141.452C124.135 140.727 124.527 140.103 125.035 139.581C125.542 139.044 126.144 138.624 126.841 138.319C127.552 138.014 128.335 137.862 129.191 137.862C130.148 137.862 130.982 138.051 131.693 138.428C132.404 138.791 132.984 139.284 133.434 139.908C133.898 140.532 134.232 141.242 134.435 142.04C134.638 142.838 134.711 143.672 134.653 144.542H126.536ZM136.811 138.167H139.749V140.256H139.792C139.938 139.908 140.133 139.588 140.38 139.298C140.627 138.994 140.91 138.74 141.229 138.537C141.548 138.319 141.889 138.152 142.251 138.036C142.614 137.92 142.991 137.862 143.383 137.862C143.586 137.862 143.811 137.899 144.057 137.971V140.843C143.913 140.814 143.739 140.793 143.535 140.778C143.332 140.749 143.136 140.734 142.948 140.734C142.382 140.734 141.903 140.828 141.511 141.017C141.12 141.206 140.801 141.467 140.554 141.801C140.322 142.12 140.155 142.497 140.053 142.932C139.952 143.367 139.901 143.839 139.901 144.347V149.417H136.811V138.167ZM145.978 138.167H148.916V139.733H148.981C149.373 139.081 149.88 138.609 150.504 138.319C151.128 138.014 151.766 137.862 152.419 137.862C153.246 137.862 153.92 137.978 154.443 138.21C154.98 138.428 155.4 138.74 155.705 139.146C156.009 139.538 156.22 140.023 156.336 140.604C156.466 141.17 156.532 141.801 156.532 142.497V149.417H153.442V143.063C153.442 142.134 153.296 141.445 153.006 140.996C152.717 140.532 152.201 140.299 151.461 140.299C150.62 140.299 150.011 140.553 149.634 141.061C149.257 141.554 149.068 142.373 149.068 143.52V149.417H145.978V138.167ZM159.29 138.167H162.206V139.69H162.249C162.656 139.109 163.141 138.66 163.707 138.341C164.288 138.021 164.948 137.862 165.687 137.862C166.398 137.862 167.044 138 167.624 138.276C168.219 138.551 168.669 139.037 168.973 139.733C169.307 139.24 169.757 138.805 170.322 138.428C170.903 138.051 171.584 137.862 172.368 137.862C172.963 137.862 173.514 137.934 174.021 138.08C174.53 138.225 174.965 138.457 175.327 138.776C175.69 139.095 175.973 139.516 176.176 140.038C176.379 140.546 176.48 141.163 176.48 141.888V149.417H173.39V143.041C173.39 142.664 173.376 142.308 173.347 141.975C173.318 141.641 173.238 141.351 173.108 141.104C172.977 140.858 172.781 140.662 172.52 140.517C172.274 140.372 171.933 140.299 171.497 140.299C171.062 140.299 170.707 140.386 170.431 140.56C170.17 140.72 169.96 140.937 169.8 141.213C169.655 141.474 169.554 141.779 169.495 142.127C169.452 142.46 169.43 142.802 169.43 143.15V149.417H166.34V143.106C166.34 142.773 166.333 142.446 166.318 142.127C166.304 141.794 166.239 141.489 166.123 141.213C166.021 140.937 165.84 140.72 165.579 140.56C165.332 140.386 164.962 140.299 164.469 140.299C164.324 140.299 164.128 140.336 163.881 140.408C163.65 140.466 163.417 140.589 163.185 140.778C162.967 140.952 162.779 141.213 162.619 141.561C162.46 141.895 162.38 142.338 162.38 142.889V149.417H159.29V138.167ZM186.822 142.584C186.677 141.801 186.416 141.206 186.039 140.8C185.676 140.393 185.117 140.19 184.363 140.19C183.87 140.19 183.456 140.277 183.123 140.452C182.804 140.611 182.542 140.814 182.34 141.061C182.151 141.307 182.013 141.568 181.926 141.844C181.853 142.12 181.81 142.366 181.796 142.584H186.822ZM181.796 144.542C181.839 145.543 182.093 146.268 182.557 146.718C183.021 147.168 183.689 147.393 184.559 147.393C185.182 147.393 185.719 147.241 186.169 146.936C186.619 146.617 186.894 146.283 186.996 145.935H189.716C189.281 147.284 188.613 148.249 187.714 148.829C186.814 149.41 185.726 149.7 184.45 149.7C183.565 149.7 182.767 149.562 182.057 149.286C181.346 148.996 180.743 148.59 180.251 148.068C179.757 147.545 179.373 146.921 179.097 146.196C178.836 145.471 178.706 144.673 178.706 143.803C178.706 142.961 178.843 142.178 179.119 141.452C179.394 140.727 179.786 140.103 180.294 139.581C180.802 139.044 181.404 138.624 182.1 138.319C182.811 138.014 183.594 137.862 184.45 137.862C185.408 137.862 186.242 138.051 186.953 138.428C187.663 138.791 188.244 139.284 188.693 139.908C189.157 140.532 189.491 141.242 189.694 142.04C189.897 142.838 189.97 143.672 189.912 144.542H181.796ZM192.071 138.167H195.008V139.733H195.074C195.465 139.081 195.973 138.609 196.597 138.319C197.221 138.014 197.859 137.862 198.512 137.862C199.339 137.862 200.013 137.978 200.535 138.21C201.072 138.428 201.493 138.74 201.797 139.146C202.102 139.538 202.313 140.023 202.429 140.604C202.559 141.17 202.624 141.801 202.624 142.497V149.417H199.534V143.063C199.534 142.134 199.39 141.445 199.099 140.996C198.809 140.532 198.294 140.299 197.554 140.299C196.713 140.299 196.104 140.553 195.726 141.061C195.349 141.554 195.161 142.373 195.161 143.52V149.417H192.071V138.167ZM209.213 138.167H211.476V140.234H209.213V145.804C209.213 146.327 209.3 146.675 209.474 146.849C209.648 147.023 209.997 147.11 210.519 147.11C210.693 147.11 210.859 147.103 211.019 147.088C211.179 147.074 211.331 147.052 211.476 147.023V149.417C211.215 149.46 210.925 149.489 210.606 149.504C210.286 149.518 209.975 149.525 209.67 149.525C209.191 149.525 208.734 149.489 208.299 149.417C207.878 149.358 207.501 149.236 207.168 149.047C206.848 148.858 206.594 148.59 206.406 148.242C206.217 147.893 206.123 147.436 206.123 146.871V140.234H204.252V138.167H206.123V134.794H209.213V138.167ZM85.6567 163.632H81V160.76H93.7296V163.632H89.073V176.297H85.6567V163.632ZM100.671 169.464C100.526 168.681 100.265 168.086 99.8877 167.68C99.5248 167.273 98.9668 167.07 98.2122 167.07C97.7188 167.07 97.3053 167.157 96.9719 167.332C96.6525 167.491 96.3914 167.694 96.1885 167.941C95.9997 168.187 95.8621 168.448 95.7751 168.724C95.7028 169 95.6592 169.246 95.6445 169.464H100.671ZM95.6445 171.422C95.688 172.423 95.9421 173.148 96.4061 173.598C96.8701 174.048 97.5376 174.273 98.408 174.273C99.032 174.273 99.5684 174.121 100.018 173.816C100.468 173.497 100.743 173.163 100.845 172.815H103.565C103.13 174.164 102.462 175.129 101.563 175.709C100.664 176.29 99.576 176.58 98.2992 176.58C97.4141 176.58 96.6167 176.442 95.9056 176.166C95.1946 175.876 94.593 175.47 94.0996 174.948C93.6061 174.425 93.2221 173.801 92.9463 173.076C92.6852 172.351 92.5546 171.553 92.5546 170.683C92.5546 169.841 92.6922 169.058 92.968 168.332C93.2439 167.607 93.6355 166.983 94.1431 166.461C94.6506 165.924 95.2528 165.504 95.9492 165.199C96.6602 164.894 97.4436 164.742 98.2992 164.742C99.2567 164.742 100.091 164.931 100.802 165.308C101.513 165.671 102.093 166.164 102.542 166.788C103.006 167.412 103.341 168.122 103.543 168.92C103.746 169.718 103.819 170.552 103.761 171.422H95.6445ZM113.579 169.007C113.376 167.716 112.615 167.07 111.294 167.07C110.802 167.07 110.388 167.186 110.054 167.419C109.721 167.636 109.445 167.926 109.227 168.289C109.024 168.637 108.879 169.029 108.792 169.464C108.705 169.884 108.661 170.306 108.661 170.726C108.661 171.132 108.705 171.546 108.792 171.966C108.879 172.387 109.017 172.772 109.205 173.12C109.409 173.453 109.677 173.729 110.011 173.947C110.345 174.164 110.75 174.273 111.229 174.273C111.969 174.273 112.535 174.07 112.926 173.664C113.333 173.243 113.587 172.684 113.688 171.988H116.669C116.466 173.483 115.886 174.621 114.928 175.404C113.971 176.188 112.745 176.58 111.251 176.58C110.41 176.58 109.634 176.442 108.923 176.166C108.226 175.876 107.632 175.477 107.138 174.969C106.645 174.462 106.261 173.86 105.985 173.163C105.71 172.452 105.572 171.676 105.572 170.835C105.572 169.964 105.695 169.159 105.941 168.42C106.203 167.665 106.58 167.02 107.073 166.483C107.566 165.932 108.169 165.504 108.879 165.199C109.59 164.894 110.402 164.742 111.316 164.742C111.984 164.742 112.622 164.829 113.231 165.003C113.855 165.177 114.406 165.445 114.885 165.808C115.378 166.156 115.777 166.599 116.082 167.136C116.386 167.658 116.56 168.282 116.604 169.007H113.579ZM118.741 160.76H121.831V166.613H121.897C122.288 165.961 122.789 165.489 123.398 165.199C124.007 164.894 124.602 164.742 125.182 164.742C126.009 164.742 126.684 164.858 127.206 165.09C127.743 165.308 128.164 165.62 128.468 166.026C128.773 166.418 128.983 166.903 129.099 167.484C129.23 168.05 129.295 168.681 129.295 169.377V176.297H126.205V169.943C126.205 169.014 126.06 168.325 125.77 167.876C125.48 167.412 124.965 167.179 124.225 167.179C123.383 167.179 122.774 167.433 122.397 167.941C122.02 168.434 121.831 169.253 121.831 170.4V176.297H118.741V160.76ZM131.966 165.047H134.904V166.613H134.969C135.361 165.961 135.869 165.489 136.493 165.199C137.117 164.894 137.755 164.742 138.407 164.742C139.234 164.742 139.909 164.858 140.431 165.09C140.968 165.308 141.389 165.62 141.693 166.026C141.998 166.418 142.208 166.903 142.324 167.484C142.455 168.05 142.52 168.681 142.52 169.377V176.297H139.43V169.943C139.43 169.014 139.285 168.325 138.995 167.876C138.705 167.412 138.19 167.179 137.45 167.179C136.609 167.179 136 167.433 135.622 167.941C135.245 168.434 135.056 169.253 135.056 170.4V176.297H131.966V165.047ZM147.933 170.683C147.933 171.132 147.977 171.575 148.064 172.01C148.151 172.43 148.296 172.815 148.499 173.163C148.717 173.497 148.999 173.765 149.348 173.968C149.696 174.171 150.131 174.273 150.653 174.273C151.175 174.273 151.611 174.171 151.959 173.968C152.322 173.765 152.605 173.497 152.807 173.163C153.025 172.815 153.177 172.43 153.264 172.01C153.351 171.575 153.395 171.132 153.395 170.683C153.395 170.233 153.351 169.79 153.264 169.355C153.177 168.92 153.025 168.535 152.807 168.202C152.605 167.868 152.322 167.6 151.959 167.397C151.611 167.179 151.175 167.07 150.653 167.07C150.131 167.07 149.696 167.179 149.348 167.397C148.999 167.6 148.717 167.868 148.499 168.202C148.296 168.535 148.151 168.92 148.064 169.355C147.977 169.79 147.933 170.233 147.933 170.683ZM144.843 170.683C144.843 169.783 144.981 168.971 145.257 168.245C145.533 167.506 145.924 166.882 146.432 166.374C146.94 165.852 147.549 165.453 148.26 165.177C148.971 164.887 149.769 164.742 150.653 164.742C151.538 164.742 152.336 164.887 153.047 165.177C153.773 165.453 154.389 165.852 154.896 166.374C155.405 166.882 155.796 167.506 156.071 168.245C156.347 168.971 156.485 169.783 156.485 170.683C156.485 171.582 156.347 172.395 156.071 173.12C155.796 173.845 155.405 174.469 154.896 174.991C154.389 175.499 153.773 175.89 153.047 176.166C152.336 176.442 151.538 176.58 150.653 176.58C149.769 176.58 148.971 176.442 148.26 176.166C147.549 175.89 146.94 175.499 146.432 174.991C145.924 174.469 145.533 173.845 145.257 173.12C144.981 172.395 144.843 171.582 144.843 170.683ZM158.908 160.76H161.998V176.297H158.908V160.76ZM167.499 170.683C167.499 171.132 167.542 171.575 167.629 172.01C167.716 172.43 167.861 172.815 168.064 173.163C168.282 173.497 168.565 173.765 168.913 173.968C169.261 174.171 169.696 174.273 170.219 174.273C170.741 174.273 171.176 174.171 171.524 173.968C171.887 173.765 172.17 173.497 172.373 173.163C172.59 172.815 172.743 172.43 172.83 172.01C172.917 171.575 172.96 171.132 172.96 170.683C172.96 170.233 172.917 169.79 172.83 169.355C172.743 168.92 172.59 168.535 172.373 168.202C172.17 167.868 171.887 167.6 171.524 167.397C171.176 167.179 170.741 167.07 170.219 167.07C169.696 167.07 169.261 167.179 168.913 167.397C168.565 167.6 168.282 167.868 168.064 168.202C167.861 168.535 167.716 168.92 167.629 169.355C167.542 169.79 167.499 170.233 167.499 170.683ZM164.409 170.683C164.409 169.783 164.547 168.971 164.822 168.245C165.098 167.506 165.49 166.882 165.997 166.374C166.505 165.852 167.115 165.453 167.825 165.177C168.536 164.887 169.334 164.742 170.219 164.742C171.104 164.742 171.902 164.887 172.612 165.177C173.338 165.453 173.954 165.852 174.462 166.374C174.97 166.882 175.362 167.506 175.637 168.245C175.913 168.971 176.05 169.783 176.05 170.683C176.05 171.582 175.913 172.395 175.637 173.12C175.362 173.845 174.97 174.469 174.462 174.991C173.954 175.499 173.338 175.89 172.612 176.166C171.902 176.442 171.104 176.58 170.219 176.58C169.334 176.58 168.536 176.442 167.825 176.166C167.115 175.89 166.505 175.499 165.997 174.991C165.49 174.469 165.098 173.845 164.822 173.12C164.547 172.395 164.409 171.582 164.409 170.683ZM183.63 173.642C184.065 173.642 184.45 173.555 184.783 173.381C185.117 173.207 185.392 172.974 185.61 172.684C185.828 172.395 185.988 172.068 186.089 171.705C186.205 171.328 186.263 170.937 186.263 170.53C186.263 170.066 186.219 169.631 186.132 169.225C186.045 168.804 185.901 168.434 185.697 168.115C185.494 167.796 185.226 167.542 184.892 167.353C184.558 167.164 184.138 167.07 183.63 167.07C183.195 167.07 182.818 167.157 182.498 167.332C182.194 167.506 181.933 167.745 181.715 168.05C181.512 168.34 181.36 168.681 181.258 169.072C181.171 169.449 181.127 169.849 181.127 170.269C181.127 170.676 181.164 171.081 181.236 171.488C181.323 171.879 181.461 172.235 181.65 172.554C181.853 172.873 182.114 173.134 182.433 173.337C182.752 173.54 183.151 173.642 183.63 173.642ZM189.2 175.579C189.2 176.028 189.135 176.543 189.005 177.124C188.889 177.704 188.628 178.24 188.221 178.734C187.815 179.241 187.228 179.669 186.459 180.018C185.69 180.366 184.66 180.54 183.369 180.54C182.818 180.54 182.252 180.468 181.671 180.322C181.106 180.192 180.583 179.981 180.105 179.691C179.641 179.401 179.249 179.024 178.93 178.56C178.625 178.11 178.451 177.566 178.407 176.928H181.476C181.621 177.508 181.904 177.907 182.324 178.124C182.745 178.357 183.231 178.473 183.782 178.473C184.653 178.473 185.284 178.212 185.675 177.689C186.082 177.167 186.277 176.507 186.263 175.709V174.229H186.219C185.886 174.824 185.407 175.267 184.783 175.557C184.174 175.833 183.529 175.97 182.846 175.97C182.005 175.97 181.28 175.825 180.67 175.535C180.061 175.23 179.561 174.824 179.169 174.316C178.777 173.794 178.487 173.192 178.299 172.51C178.125 171.814 178.037 171.081 178.037 170.313C178.037 169.588 178.139 168.891 178.342 168.224C178.56 167.542 178.872 166.947 179.278 166.439C179.684 165.917 180.185 165.504 180.779 165.199C181.389 164.894 182.085 164.742 182.868 164.742C183.608 164.742 184.254 164.88 184.805 165.156C185.371 165.431 185.842 165.895 186.219 166.548H186.263V165.047H189.2V175.579ZM197.564 177.689C197.23 178.603 196.766 179.256 196.171 179.648C195.576 180.039 194.749 180.235 193.691 180.235C193.371 180.235 193.052 180.22 192.733 180.192C192.429 180.177 192.116 180.155 191.797 180.126V177.58C192.087 177.609 192.385 177.639 192.69 177.668C192.994 177.696 193.299 177.704 193.604 177.689C194.009 177.646 194.307 177.486 194.496 177.211C194.699 176.935 194.8 176.63 194.8 176.297C194.8 176.05 194.757 175.818 194.67 175.6L190.731 165.047H194.017L196.563 172.75H196.606L199.065 165.047H202.264L197.564 177.689Z" fill="#1C304A"/>
<path d="M141.188 196.561C141.034 195.73 140.757 195.099 140.357 194.668C139.972 194.237 139.38 194.022 138.58 194.022C138.057 194.022 137.618 194.114 137.265 194.299C136.926 194.468 136.649 194.683 136.434 194.945C136.234 195.207 136.088 195.484 135.995 195.776C135.918 196.068 135.872 196.33 135.857 196.561H141.188ZM135.857 198.638C135.903 199.699 136.172 200.469 136.665 200.946C137.157 201.423 137.865 201.661 138.788 201.661C139.449 201.661 140.018 201.499 140.495 201.176C140.972 200.838 141.265 200.484 141.372 200.115H144.257C143.795 201.546 143.088 202.569 142.134 203.184C141.18 203.8 140.026 204.107 138.672 204.107C137.734 204.107 136.888 203.961 136.134 203.669C135.38 203.361 134.741 202.93 134.218 202.376C133.695 201.823 133.288 201.161 132.995 200.392C132.718 199.622 132.58 198.776 132.58 197.853C132.58 196.961 132.726 196.13 133.018 195.36C133.311 194.591 133.726 193.93 134.265 193.376C134.803 192.806 135.441 192.36 136.18 192.037C136.934 191.714 137.765 191.552 138.672 191.552C139.688 191.552 140.572 191.752 141.326 192.152C142.08 192.537 142.695 193.06 143.172 193.722C143.665 194.383 144.019 195.137 144.234 195.984C144.449 196.83 144.526 197.715 144.465 198.638H135.857Z" fill="#1C304A"/>
<path d="M127.518 197.807C127.518 197.314 127.472 196.845 127.38 196.399C127.288 195.937 127.126 195.537 126.895 195.199C126.68 194.845 126.395 194.56 126.042 194.345C125.688 194.13 125.241 194.022 124.703 194.022C124.165 194.022 123.711 194.13 123.341 194.345C122.972 194.56 122.672 194.845 122.441 195.199C122.226 195.553 122.065 195.961 121.957 196.422C121.865 196.868 121.818 197.338 121.818 197.83C121.818 198.291 121.872 198.753 121.98 199.215C122.088 199.676 122.257 200.092 122.488 200.461C122.734 200.815 123.034 201.107 123.388 201.338C123.757 201.553 124.195 201.661 124.703 201.661C125.241 201.661 125.688 201.553 126.042 201.338C126.411 201.123 126.703 200.838 126.918 200.484C127.134 200.115 127.288 199.699 127.38 199.238C127.472 198.776 127.518 198.299 127.518 197.807ZM127.565 202.284H127.518C127.134 202.93 126.626 203.4 125.995 203.692C125.38 203.969 124.68 204.107 123.895 204.107C123.003 204.107 122.218 203.938 121.541 203.6C120.865 203.246 120.303 202.777 119.857 202.192C119.426 201.592 119.095 200.907 118.864 200.138C118.649 199.369 118.541 198.568 118.541 197.738C118.541 196.938 118.649 196.168 118.864 195.43C119.095 194.676 119.426 194.014 119.857 193.445C120.303 192.876 120.857 192.422 121.518 192.083C122.18 191.729 122.949 191.552 123.826 191.552C124.534 191.552 125.203 191.706 125.834 192.014C126.48 192.306 126.988 192.745 127.357 193.33H127.403V187.329H130.68V203.807H127.565V202.284Z" fill="#1C304A"/>
<path d="M116.469 190.029H113.192V187.329H116.469V190.029ZM113.192 191.876H116.469V203.807H113.192V191.876Z" fill="#1C304A"/>
<path d="M110.612 203.807H107.497V202.146H107.428C107.012 202.838 106.474 203.338 105.812 203.646C105.151 203.954 104.474 204.107 103.782 204.107C102.905 204.107 102.182 203.992 101.612 203.761C101.058 203.53 100.62 203.207 100.297 202.792C99.9738 202.361 99.7431 201.846 99.6046 201.246C99.4815 200.63 99.42 199.953 99.42 199.215V191.876H102.697V198.615C102.697 199.599 102.851 200.338 103.158 200.83C103.466 201.307 104.012 201.546 104.797 201.546C105.689 201.546 106.335 201.284 106.735 200.761C107.135 200.222 107.335 199.345 107.335 198.13V191.876H110.612V203.807Z" fill="#1C304A"/>
<path d="M94.1633 201.938C93.5171 202.769 92.8017 203.353 92.0171 203.692C91.2325 204.015 90.4401 204.177 89.6401 204.177C88.3786 204.177 87.2401 203.961 86.2247 203.53C85.2247 203.084 84.3785 202.476 83.6862 201.707C82.9939 200.938 82.4631 200.038 82.0939 199.007C81.7247 197.961 81.54 196.838 81.54 195.637C81.54 194.407 81.7247 193.268 82.0939 192.222C82.4631 191.16 82.9939 190.237 83.6862 189.452C84.3785 188.668 85.2247 188.052 86.2247 187.606C87.2401 187.16 88.3786 186.937 89.6401 186.937C90.4863 186.937 91.3017 187.067 92.0863 187.329C92.8863 187.575 93.6017 187.944 94.2325 188.437C94.8787 188.929 95.4094 189.537 95.8248 190.26C96.2402 190.983 96.4941 191.814 96.5864 192.753H93.1248C92.9094 191.829 92.494 191.137 91.8786 190.675C91.2632 190.214 90.5171 189.983 89.6401 189.983C88.8247 189.983 88.1324 190.145 87.5632 190.468C86.994 190.775 86.5324 191.199 86.1786 191.737C85.8247 192.26 85.5632 192.86 85.3939 193.537C85.2401 194.214 85.1632 194.914 85.1632 195.637C85.1632 196.33 85.2401 197.007 85.3939 197.668C85.5632 198.315 85.8247 198.899 86.1786 199.422C86.5324 199.945 86.994 200.369 87.5632 200.692C88.1324 200.999 88.8247 201.153 89.6401 201.153C90.8401 201.153 91.7632 200.853 92.4094 200.253C93.0709 199.638 93.4556 198.753 93.5633 197.599H89.9171V194.899H96.8402V203.807H94.5325L94.1633 201.938Z" fill="#1C304A"/>
<path d="M240 219H80V225.4H240V219Z" fill="#1C304A"/>
</g>
<path fill-rule="evenodd" clip-rule="evenodd" d="M4.47998 160C4.47998 245.891 74.1088 315.52 160 315.52C245.891 315.52 315.52 245.891 315.52 160H307.84C307.84 241.65 241.65 307.84 160 307.84C78.3501 307.84 12.16 241.65 12.16 160H4.47998Z" fill="#00CFFF"/>
</g>
<defs>
<clipPath id="clip0_733_1760">
<rect width="320" height="315.52" fill="white"/>
</clipPath>
</defs>
</svg>
