<svg width="500" height="500" viewBox="0 0 500 500" fill="none" xmlns="http://www.w3.org/2000/svg">
<circle cx="250" cy="250" r="243" fill="#B3EFFF"/>
<mask id="mask0_859_1355" style="mask-type:alpha" maskUnits="userSpaceOnUse" x="7" y="0" width="486" height="493">
<path fill-rule="evenodd" clip-rule="evenodd" d="M493 0H7V250C7 384.205 115.795 493 250 493C384.205 493 493 384.205 493 250V0Z" fill="#D9D9D9"/>
</mask>
<g mask="url(#mask0_859_1355)">
<rect x="42" y="4" width="302" height="505" fill="white" stroke="#00CFFF" stroke-width="8"/>
<path d="M70.65 259.7H74.15C74.7167 259.7 75.2667 259.608 75.8 259.425C76.3333 259.242 76.8083 258.942 77.225 258.525C77.6417 258.092 77.975 257.533 78.225 256.85C78.475 256.167 78.6 255.333 78.6 254.35C78.6 253.45 78.5083 252.642 78.325 251.925C78.1583 251.192 77.875 250.567 77.475 250.05C77.075 249.533 76.5417 249.142 75.875 248.875C75.225 248.592 74.4167 248.45 73.45 248.45H70.65V259.7ZM66.725 245.15H74.425C75.575 245.15 76.6417 245.333 77.625 245.7C78.625 246.067 79.4833 246.617 80.2 247.35C80.9333 248.083 81.5 249 81.9 250.1C82.3167 251.2 82.525 252.492 82.525 253.975C82.525 255.275 82.3583 256.475 82.025 257.575C81.6917 258.675 81.1833 259.625 80.5 260.425C79.8333 261.225 78.9917 261.858 77.975 262.325C76.975 262.775 75.7917 263 74.425 263H66.725V245.15ZM92.8303 255.15C92.6636 254.25 92.3636 253.567 91.9303 253.1C91.5136 252.633 90.8719 252.4 90.0053 252.4C89.4386 252.4 88.9636 252.5 88.5803 252.7C88.2136 252.883 87.9136 253.117 87.6803 253.4C87.4636 253.683 87.3053 253.983 87.2053 254.3C87.1219 254.617 87.0719 254.9 87.0553 255.15H92.8303ZM87.0553 257.4C87.1053 258.55 87.3969 259.383 87.9303 259.9C88.4636 260.417 89.2303 260.675 90.2303 260.675C90.9469 260.675 91.5636 260.5 92.0803 260.15C92.5969 259.783 92.9136 259.4 93.0303 259H96.1553C95.6553 260.55 94.8886 261.658 93.8553 262.325C92.8219 262.992 91.5719 263.325 90.1053 263.325C89.0886 263.325 88.1719 263.167 87.3553 262.85C86.5386 262.517 85.8469 262.05 85.2803 261.45C84.7136 260.85 84.2719 260.133 83.9553 259.3C83.6553 258.467 83.5053 257.55 83.5053 256.55C83.5053 255.583 83.6636 254.683 83.9803 253.85C84.2969 253.017 84.7469 252.3 85.3303 251.7C85.9136 251.083 86.6053 250.6 87.4053 250.25C88.2219 249.9 89.1219 249.725 90.1053 249.725C91.2053 249.725 92.1636 249.942 92.9803 250.375C93.7969 250.792 94.4636 251.358 94.9803 252.075C95.5136 252.792 95.8969 253.608 96.1303 254.525C96.3636 255.442 96.4469 256.4 96.3803 257.4H87.0553ZM97.7107 254.65H105.236V257.7H97.7107V254.65ZM107.166 250.075H110.541V252.475H110.591C110.758 252.075 110.983 251.708 111.266 251.375C111.55 251.025 111.875 250.733 112.241 250.5C112.608 250.25 113 250.058 113.416 249.925C113.833 249.792 114.266 249.725 114.716 249.725C114.95 249.725 115.208 249.767 115.491 249.85V253.15C115.325 253.117 115.125 253.092 114.891 253.075C114.658 253.042 114.433 253.025 114.216 253.025C113.566 253.025 113.016 253.133 112.566 253.35C112.116 253.567 111.75 253.867 111.466 254.25C111.2 254.617 111.008 255.05 110.891 255.55C110.775 256.05 110.716 256.592 110.716 257.175V263H107.166V250.075ZM119.783 248.075H116.233V245.15H119.783V248.075ZM116.233 250.075H119.783V263H116.233V250.075ZM124.579 258.8C124.579 259.183 124.654 259.517 124.804 259.8C124.97 260.067 125.179 260.292 125.429 260.475C125.679 260.642 125.962 260.767 126.279 260.85C126.612 260.933 126.954 260.975 127.304 260.975C127.554 260.975 127.812 260.95 128.079 260.9C128.362 260.833 128.612 260.742 128.829 260.625C129.062 260.492 129.254 260.325 129.404 260.125C129.554 259.908 129.629 259.642 129.629 259.325C129.629 258.792 129.27 258.392 128.554 258.125C127.854 257.858 126.87 257.592 125.604 257.325C125.087 257.208 124.579 257.075 124.079 256.925C123.595 256.758 123.162 256.55 122.779 256.3C122.395 256.033 122.087 255.708 121.854 255.325C121.62 254.925 121.504 254.442 121.504 253.875C121.504 253.042 121.662 252.358 121.979 251.825C122.312 251.292 122.745 250.875 123.279 250.575C123.812 250.258 124.412 250.042 125.079 249.925C125.745 249.792 126.429 249.725 127.129 249.725C127.829 249.725 128.504 249.792 129.154 249.925C129.82 250.058 130.412 250.283 130.929 250.6C131.445 250.917 131.87 251.342 132.204 251.875C132.554 252.392 132.762 253.05 132.829 253.85H129.454C129.404 253.167 129.145 252.708 128.679 252.475C128.212 252.225 127.662 252.1 127.029 252.1C126.829 252.1 126.612 252.117 126.379 252.15C126.145 252.167 125.929 252.217 125.729 252.3C125.545 252.383 125.387 252.508 125.254 252.675C125.12 252.825 125.054 253.033 125.054 253.3C125.054 253.617 125.17 253.875 125.404 254.075C125.637 254.275 125.937 254.442 126.304 254.575C126.687 254.692 127.12 254.8 127.604 254.9C128.087 255 128.579 255.108 129.079 255.225C129.595 255.342 130.095 255.483 130.579 255.65C131.079 255.817 131.52 256.042 131.904 256.325C132.287 256.592 132.595 256.933 132.829 257.35C133.062 257.75 133.179 258.25 133.179 258.85C133.179 259.7 133.004 260.417 132.654 261C132.32 261.567 131.879 262.025 131.329 262.375C130.779 262.725 130.145 262.967 129.429 263.1C128.729 263.25 128.012 263.325 127.279 263.325C126.529 263.325 125.795 263.25 125.079 263.1C124.362 262.95 123.72 262.7 123.154 262.35C122.604 262 122.145 261.542 121.779 260.975C121.429 260.392 121.237 259.667 121.204 258.8H124.579ZM134.831 245.15H138.381V254.725L142.856 250.075H147.056L142.181 254.825L147.606 263H143.306L139.756 257.225L138.381 258.55V263H134.831V245.15ZM151.762 248.075H148.212V245.15H151.762V248.075ZM148.212 250.075H151.762V263H148.212V250.075ZM153.807 250.075H157.182V251.875H157.257C157.707 251.125 158.29 250.583 159.007 250.25C159.724 249.9 160.457 249.725 161.207 249.725C162.157 249.725 162.932 249.858 163.532 250.125C164.149 250.375 164.632 250.733 164.982 251.2C165.332 251.65 165.574 252.208 165.707 252.875C165.857 253.525 165.932 254.25 165.932 255.05V263H162.382V255.7C162.382 254.633 162.215 253.842 161.882 253.325C161.549 252.792 160.957 252.525 160.107 252.525C159.14 252.525 158.44 252.817 158.007 253.4C157.574 253.967 157.357 254.908 157.357 256.225V263H153.807V250.075ZM173.901 259.95C174.401 259.95 174.843 259.85 175.226 259.65C175.61 259.45 175.926 259.183 176.176 258.85C176.426 258.517 176.61 258.142 176.726 257.725C176.86 257.292 176.926 256.842 176.926 256.375C176.926 255.842 176.876 255.342 176.776 254.875C176.676 254.392 176.51 253.967 176.276 253.6C176.043 253.233 175.735 252.942 175.351 252.725C174.968 252.508 174.485 252.4 173.901 252.4C173.401 252.4 172.968 252.5 172.601 252.7C172.251 252.9 171.951 253.175 171.701 253.525C171.468 253.858 171.293 254.25 171.176 254.7C171.076 255.133 171.026 255.592 171.026 256.075C171.026 256.542 171.068 257.008 171.151 257.475C171.251 257.925 171.41 258.333 171.626 258.7C171.86 259.067 172.16 259.367 172.526 259.6C172.893 259.833 173.351 259.95 173.901 259.95ZM180.301 262.175C180.301 262.692 180.226 263.283 180.076 263.95C179.943 264.617 179.643 265.233 179.176 265.8C178.71 266.383 178.035 266.875 177.151 267.275C176.268 267.675 175.085 267.875 173.601 267.875C172.968 267.875 172.318 267.792 171.651 267.625C171.001 267.475 170.401 267.233 169.851 266.9C169.318 266.567 168.868 266.133 168.501 265.6C168.151 265.083 167.951 264.458 167.901 263.725H171.426C171.593 264.392 171.918 264.85 172.401 265.1C172.885 265.367 173.443 265.5 174.076 265.5C175.076 265.5 175.801 265.2 176.251 264.6C176.718 264 176.943 263.242 176.926 262.325V260.625H176.876C176.493 261.308 175.943 261.817 175.226 262.15C174.526 262.467 173.785 262.625 173.001 262.625C172.035 262.625 171.201 262.458 170.501 262.125C169.801 261.775 169.226 261.308 168.776 260.725C168.326 260.125 167.993 259.433 167.776 258.65C167.576 257.85 167.476 257.008 167.476 256.125C167.476 255.292 167.593 254.492 167.826 253.725C168.076 252.942 168.435 252.258 168.901 251.675C169.368 251.075 169.943 250.6 170.626 250.25C171.326 249.9 172.126 249.725 173.026 249.725C173.876 249.725 174.618 249.883 175.251 250.2C175.901 250.517 176.443 251.05 176.876 251.8H176.926V250.075H180.301V262.175ZM70.85 281.075H73.45V283.45H70.85V289.85C70.85 290.45 70.95 290.85 71.15 291.05C71.35 291.25 71.75 291.35 72.35 291.35C72.55 291.35 72.7417 291.342 72.925 291.325C73.1083 291.308 73.2833 291.283 73.45 291.25V294C73.15 294.05 72.8167 294.083 72.45 294.1C72.0833 294.117 71.725 294.125 71.375 294.125C70.825 294.125 70.3 294.083 69.8 294C69.3167 293.933 68.8833 293.792 68.5 293.575C68.1333 293.358 67.8417 293.05 67.625 292.65C67.4083 292.25 67.3 291.725 67.3 291.075V283.45H65.15V281.075H67.3V277.2H70.85V281.075ZM83.0891 286.15C82.9224 285.25 82.6224 284.567 82.1891 284.1C81.7724 283.633 81.1307 283.4 80.2641 283.4C79.6974 283.4 79.2224 283.5 78.8391 283.7C78.4724 283.883 78.1724 284.117 77.9391 284.4C77.7224 284.683 77.5641 284.983 77.4641 285.3C77.3807 285.617 77.3307 285.9 77.3141 286.15H83.0891ZM77.3141 288.4C77.3641 289.55 77.6557 290.383 78.1891 290.9C78.7224 291.417 79.4891 291.675 80.4891 291.675C81.2057 291.675 81.8224 291.5 82.3391 291.15C82.8557 290.783 83.1724 290.4 83.2891 290H86.4141C85.9141 291.55 85.1474 292.658 84.1141 293.325C83.0807 293.992 81.8307 294.325 80.3641 294.325C79.3474 294.325 78.4307 294.167 77.6141 293.85C76.7974 293.517 76.1057 293.05 75.5391 292.45C74.9724 291.85 74.5307 291.133 74.2141 290.3C73.9141 289.467 73.7641 288.55 73.7641 287.55C73.7641 286.583 73.9224 285.683 74.2391 284.85C74.5557 284.017 75.0057 283.3 75.5891 282.7C76.1724 282.083 76.8641 281.6 77.6641 281.25C78.4807 280.9 79.3807 280.725 80.3641 280.725C81.4641 280.725 82.4224 280.942 83.2391 281.375C84.0557 281.792 84.7224 282.358 85.2391 283.075C85.7724 283.792 86.1557 284.608 86.3891 285.525C86.6224 286.442 86.7057 287.4 86.6391 288.4H77.3141ZM96.7945 285.625C96.5612 284.142 95.6862 283.4 94.1695 283.4C93.6029 283.4 93.1279 283.533 92.7445 283.8C92.3612 284.05 92.0445 284.383 91.7945 284.8C91.5612 285.2 91.3945 285.65 91.2945 286.15C91.1945 286.633 91.1445 287.117 91.1445 287.6C91.1445 288.067 91.1945 288.542 91.2945 289.025C91.3945 289.508 91.5529 289.95 91.7695 290.35C92.0029 290.733 92.3112 291.05 92.6945 291.3C93.0779 291.55 93.5445 291.675 94.0945 291.675C94.9445 291.675 95.5945 291.442 96.0445 290.975C96.5112 290.492 96.8029 289.85 96.9195 289.05H100.345C100.111 290.767 99.4445 292.075 98.3445 292.975C97.2445 293.875 95.8362 294.325 94.1195 294.325C93.1529 294.325 92.2612 294.167 91.4445 293.85C90.6445 293.517 89.9612 293.058 89.3945 292.475C88.8279 291.892 88.3862 291.2 88.0695 290.4C87.7529 289.583 87.5945 288.692 87.5945 287.725C87.5945 286.725 87.7362 285.8 88.0195 284.95C88.3195 284.083 88.7529 283.342 89.3195 282.725C89.8862 282.092 90.5779 281.6 91.3945 281.25C92.2112 280.9 93.1445 280.725 94.1945 280.725C94.9612 280.725 95.6945 280.825 96.3945 281.025C97.1112 281.225 97.7445 281.533 98.2945 281.95C98.8612 282.35 99.3195 282.858 99.6695 283.475C100.02 284.075 100.22 284.792 100.27 285.625H96.7945ZM101.6 276.15H105.15V282.875H105.225C105.675 282.125 106.25 281.583 106.95 281.25C107.65 280.9 108.333 280.725 109 280.725C109.95 280.725 110.725 280.858 111.325 281.125C111.942 281.375 112.425 281.733 112.775 282.2C113.125 282.65 113.367 283.208 113.5 283.875C113.65 284.525 113.725 285.25 113.725 286.05V294H110.175V286.7C110.175 285.633 110.008 284.842 109.675 284.325C109.342 283.792 108.75 283.525 107.9 283.525C106.933 283.525 106.233 283.817 105.8 284.4C105.367 284.967 105.15 285.908 105.15 287.225V294H101.6V276.15ZM115.669 281.075H119.044V282.875H119.119C119.569 282.125 120.153 281.583 120.869 281.25C121.586 280.9 122.319 280.725 123.069 280.725C124.019 280.725 124.794 280.858 125.394 281.125C126.011 281.375 126.494 281.733 126.844 282.2C127.194 282.65 127.436 283.208 127.569 283.875C127.719 284.525 127.794 285.25 127.794 286.05V294H124.244V286.7C124.244 285.633 124.078 284.842 123.744 284.325C123.411 283.792 122.819 283.525 121.969 283.525C121.003 283.525 120.303 283.817 119.869 284.4C119.436 284.967 119.219 285.908 119.219 287.225V294H115.669V281.075ZM132.889 287.55C132.889 288.067 132.939 288.575 133.039 289.075C133.139 289.558 133.305 290 133.539 290.4C133.789 290.783 134.114 291.092 134.514 291.325C134.914 291.558 135.414 291.675 136.014 291.675C136.614 291.675 137.114 291.558 137.514 291.325C137.93 291.092 138.255 290.783 138.489 290.4C138.739 290 138.914 289.558 139.014 289.075C139.114 288.575 139.164 288.067 139.164 287.55C139.164 287.033 139.114 286.525 139.014 286.025C138.914 285.525 138.739 285.083 138.489 284.7C138.255 284.317 137.93 284.008 137.514 283.775C137.114 283.525 136.614 283.4 136.014 283.4C135.414 283.4 134.914 283.525 134.514 283.775C134.114 284.008 133.789 284.317 133.539 284.7C133.305 285.083 133.139 285.525 133.039 286.025C132.939 286.525 132.889 287.033 132.889 287.55ZM129.339 287.55C129.339 286.517 129.497 285.583 129.814 284.75C130.13 283.9 130.58 283.183 131.164 282.6C131.747 282 132.447 281.542 133.264 281.225C134.08 280.892 134.997 280.725 136.014 280.725C137.03 280.725 137.947 280.892 138.764 281.225C139.597 281.542 140.305 282 140.889 282.6C141.472 283.183 141.922 283.9 142.239 284.75C142.555 285.583 142.714 286.517 142.714 287.55C142.714 288.583 142.555 289.517 142.239 290.35C141.922 291.183 141.472 291.9 140.889 292.5C140.305 293.083 139.597 293.533 138.764 293.85C137.947 294.167 137.03 294.325 136.014 294.325C134.997 294.325 134.08 294.167 133.264 293.85C132.447 293.533 131.747 293.083 131.164 292.5C130.58 291.9 130.13 291.183 129.814 290.35C129.497 289.517 129.339 288.583 129.339 287.55ZM144.372 276.15H147.922V294H144.372V276.15ZM153.117 287.55C153.117 288.067 153.167 288.575 153.267 289.075C153.367 289.558 153.534 290 153.767 290.4C154.017 290.783 154.342 291.092 154.742 291.325C155.142 291.558 155.642 291.675 156.242 291.675C156.842 291.675 157.342 291.558 157.742 291.325C158.159 291.092 158.484 290.783 158.717 290.4C158.967 290 159.142 289.558 159.242 289.075C159.342 288.575 159.392 288.067 159.392 287.55C159.392 287.033 159.342 286.525 159.242 286.025C159.142 285.525 158.967 285.083 158.717 284.7C158.484 284.317 158.159 284.008 157.742 283.775C157.342 283.525 156.842 283.4 156.242 283.4C155.642 283.4 155.142 283.525 154.742 283.775C154.342 284.008 154.017 284.317 153.767 284.7C153.534 285.083 153.367 285.525 153.267 286.025C153.167 286.525 153.117 287.033 153.117 287.55ZM149.567 287.55C149.567 286.517 149.726 285.583 150.042 284.75C150.359 283.9 150.809 283.183 151.392 282.6C151.976 282 152.676 281.542 153.492 281.225C154.309 280.892 155.226 280.725 156.242 280.725C157.259 280.725 158.176 280.892 158.992 281.225C159.826 281.542 160.534 282 161.117 282.6C161.701 283.183 162.151 283.9 162.467 284.75C162.784 285.583 162.942 286.517 162.942 287.55C162.942 288.583 162.784 289.517 162.467 290.35C162.151 291.183 161.701 291.9 161.117 292.5C160.534 293.083 159.826 293.533 158.992 293.85C158.176 294.167 157.259 294.325 156.242 294.325C155.226 294.325 154.309 294.167 153.492 293.85C152.676 293.533 151.976 293.083 151.392 292.5C150.809 291.9 150.359 291.183 150.042 290.35C149.726 289.517 149.567 288.583 149.567 287.55ZM170.525 290.95C171.025 290.95 171.467 290.85 171.85 290.65C172.234 290.45 172.55 290.183 172.8 289.85C173.05 289.517 173.234 289.142 173.35 288.725C173.484 288.292 173.55 287.842 173.55 287.375C173.55 286.842 173.5 286.342 173.4 285.875C173.3 285.392 173.134 284.967 172.9 284.6C172.667 284.233 172.359 283.942 171.975 283.725C171.592 283.508 171.109 283.4 170.525 283.4C170.025 283.4 169.592 283.5 169.225 283.7C168.875 283.9 168.575 284.175 168.325 284.525C168.092 284.858 167.917 285.25 167.8 285.7C167.7 286.133 167.65 286.592 167.65 287.075C167.65 287.542 167.692 288.008 167.775 288.475C167.875 288.925 168.034 289.333 168.25 289.7C168.484 290.067 168.784 290.367 169.15 290.6C169.517 290.833 169.975 290.95 170.525 290.95ZM176.925 293.175C176.925 293.692 176.85 294.283 176.7 294.95C176.567 295.617 176.267 296.233 175.8 296.8C175.334 297.383 174.659 297.875 173.775 298.275C172.892 298.675 171.709 298.875 170.225 298.875C169.592 298.875 168.942 298.792 168.275 298.625C167.625 298.475 167.025 298.233 166.475 297.9C165.942 297.567 165.492 297.133 165.125 296.6C164.775 296.083 164.575 295.458 164.525 294.725H168.05C168.217 295.392 168.542 295.85 169.025 296.1C169.509 296.367 170.067 296.5 170.7 296.5C171.7 296.5 172.425 296.2 172.875 295.6C173.342 295 173.567 294.242 173.55 293.325V291.625H173.5C173.117 292.308 172.567 292.817 171.85 293.15C171.15 293.467 170.409 293.625 169.625 293.625C168.659 293.625 167.825 293.458 167.125 293.125C166.425 292.775 165.85 292.308 165.4 291.725C164.95 291.125 164.617 290.433 164.4 289.65C164.2 288.85 164.1 288.008 164.1 287.125C164.1 286.292 164.217 285.492 164.45 284.725C164.7 283.942 165.059 283.258 165.525 282.675C165.992 282.075 166.567 281.6 167.25 281.25C167.95 280.9 168.75 280.725 169.65 280.725C170.5 280.725 171.242 280.883 171.875 281.2C172.525 281.517 173.067 282.05 173.5 282.8H173.55V281.075H176.925V293.175ZM185.409 295.6C185.025 296.65 184.492 297.4 183.809 297.85C183.125 298.3 182.175 298.525 180.959 298.525C180.592 298.525 180.225 298.508 179.859 298.475C179.509 298.458 179.15 298.433 178.784 298.4V295.475C179.117 295.508 179.459 295.542 179.809 295.575C180.159 295.608 180.509 295.617 180.859 295.6C181.325 295.55 181.667 295.367 181.884 295.05C182.117 294.733 182.234 294.383 182.234 294C182.234 293.717 182.184 293.45 182.084 293.2L177.559 281.075H181.334L184.259 289.925H184.309L187.134 281.075H190.809L185.409 295.6Z" fill="#1C304A"/>
<rect x="65" y="207" width="250" height="10" fill="#00CFFF"/>
<path d="M70.984 86.942C70.984 87.758 71.1313 88.4493 71.426 89.016C71.7207 89.5827 72.106 90.0473 72.582 90.41C73.0807 90.75 73.6587 91.0107 74.316 91.192C74.9733 91.3507 75.6533 91.43 76.356 91.43C76.832 91.43 77.342 91.396 77.886 91.328C78.43 91.2373 78.94 91.0787 79.416 90.852C79.892 90.6253 80.2887 90.3193 80.606 89.934C80.9233 89.526 81.082 89.016 81.082 88.404C81.082 87.7467 80.8667 87.214 80.436 86.806C80.028 86.398 79.484 86.058 78.804 85.786C78.124 85.514 77.3533 85.276 76.492 85.072C75.6307 84.868 74.758 84.6413 73.874 84.392C72.9673 84.1653 72.0833 83.8933 71.222 83.576C70.3607 83.236 69.59 82.8053 68.91 82.284C68.23 81.7627 67.6747 81.1167 67.244 80.346C66.836 79.5527 66.632 78.6007 66.632 77.49C66.632 76.2433 66.8927 75.1667 67.414 74.26C67.958 73.3307 68.6607 72.56 69.522 71.948C70.3833 71.336 71.358 70.8827 72.446 70.588C73.534 70.2933 74.622 70.146 75.71 70.146C76.9793 70.146 78.192 70.2933 79.348 70.588C80.5267 70.86 81.5693 71.3133 82.476 71.948C83.3827 72.5827 84.0967 73.3987 84.618 74.396C85.162 75.3707 85.434 76.5607 85.434 77.966H80.266C80.2207 77.2407 80.062 76.64 79.79 76.164C79.5407 75.688 79.2007 75.314 78.77 75.042C78.3393 74.77 77.8407 74.5773 77.274 74.464C76.73 74.3507 76.1293 74.294 75.472 74.294C75.0413 74.294 74.6107 74.3393 74.18 74.43C73.7493 74.5207 73.3527 74.6793 72.99 74.906C72.65 75.1327 72.3667 75.416 72.14 75.756C71.9133 76.096 71.8 76.5267 71.8 77.048C71.8 77.524 71.8907 77.9093 72.072 78.204C72.2533 78.4987 72.6047 78.7707 73.126 79.02C73.67 79.2693 74.4067 79.5187 75.336 79.768C76.288 80.0173 77.5233 80.3347 79.042 80.72C79.4953 80.8107 80.1187 80.9807 80.912 81.23C81.728 81.4567 82.5327 81.8307 83.326 82.352C84.1193 82.8733 84.7993 83.576 85.366 84.46C85.9553 85.3213 86.25 86.432 86.25 87.792C86.25 88.9027 86.0347 89.934 85.604 90.886C85.1733 91.838 84.5273 92.6653 83.666 93.368C82.8273 94.048 81.7733 94.5807 80.504 94.966C79.2573 95.3513 77.8067 95.544 76.152 95.544C74.8147 95.544 73.5113 95.374 72.242 95.034C70.9953 94.7167 69.8847 94.2067 68.91 93.504C67.958 92.8013 67.1987 91.906 66.632 90.818C66.0653 89.73 65.7933 88.438 65.816 86.942H70.984ZM96.0561 77.422H99.5921V80.652H96.0561V89.356C96.0561 90.172 96.1921 90.716 96.4641 90.988C96.7361 91.26 97.2801 91.396 98.0961 91.396C98.3681 91.396 98.6287 91.3847 98.8781 91.362C99.1274 91.3393 99.3654 91.3053 99.5921 91.26V95C99.1841 95.068 98.7307 95.1133 98.2321 95.136C97.7334 95.1587 97.2461 95.17 96.7701 95.17C96.0221 95.17 95.3081 95.1133 94.6281 95C93.9707 94.9093 93.3814 94.7167 92.8601 94.422C92.3614 94.1273 91.9647 93.708 91.6701 93.164C91.3754 92.62 91.2281 91.906 91.2281 91.022V80.652H88.3041V77.422H91.2281V72.152H96.0561V77.422ZM102.705 82.828C102.773 81.6947 103.057 80.754 103.555 80.006C104.054 79.258 104.689 78.6573 105.459 78.204C106.23 77.7507 107.091 77.4333 108.043 77.252C109.018 77.048 109.993 76.946 110.967 76.946C111.851 76.946 112.747 77.014 113.653 77.15C114.56 77.2633 115.387 77.5013 116.135 77.864C116.883 78.2267 117.495 78.7367 117.971 79.394C118.447 80.0287 118.685 80.8787 118.685 81.944V91.09C118.685 91.8833 118.731 92.6427 118.821 93.368C118.912 94.0933 119.071 94.6373 119.297 95H114.401C114.311 94.728 114.231 94.456 114.163 94.184C114.118 93.8893 114.084 93.5947 114.061 93.3C113.291 94.0933 112.384 94.6487 111.341 94.966C110.299 95.2833 109.233 95.442 108.145 95.442C107.307 95.442 106.525 95.34 105.799 95.136C105.074 94.932 104.439 94.6147 103.895 94.184C103.351 93.7533 102.921 93.2093 102.603 92.552C102.309 91.8947 102.161 91.1127 102.161 90.206C102.161 89.2087 102.331 88.3927 102.671 87.758C103.034 87.1007 103.487 86.5793 104.031 86.194C104.598 85.8087 105.233 85.5253 105.935 85.344C106.661 85.14 107.386 84.9813 108.111 84.868C108.837 84.7547 109.551 84.664 110.253 84.596C110.956 84.528 111.579 84.426 112.123 84.29C112.667 84.154 113.098 83.9613 113.415 83.712C113.733 83.44 113.88 83.0547 113.857 82.556C113.857 82.0347 113.767 81.6267 113.585 81.332C113.427 81.0147 113.2 80.7767 112.905 80.618C112.633 80.4367 112.305 80.3233 111.919 80.278C111.557 80.21 111.16 80.176 110.729 80.176C109.777 80.176 109.029 80.38 108.485 80.788C107.941 81.196 107.624 81.876 107.533 82.828H102.705ZM113.857 86.398C113.653 86.5793 113.393 86.7267 113.075 86.84C112.781 86.9307 112.452 87.01 112.089 87.078C111.749 87.146 111.387 87.2027 111.001 87.248C110.616 87.2933 110.231 87.35 109.845 87.418C109.483 87.486 109.12 87.5767 108.757 87.69C108.417 87.8033 108.111 87.962 107.839 88.166C107.59 88.3473 107.386 88.5853 107.227 88.88C107.069 89.1747 106.989 89.5487 106.989 90.002C106.989 90.4327 107.069 90.7953 107.227 91.09C107.386 91.3847 107.601 91.6227 107.873 91.804C108.145 91.9627 108.463 92.076 108.825 92.144C109.188 92.212 109.562 92.246 109.947 92.246C110.899 92.246 111.636 92.0873 112.157 91.77C112.679 91.4527 113.064 91.0787 113.313 90.648C113.563 90.1947 113.71 89.7413 113.755 89.288C113.823 88.8347 113.857 88.472 113.857 88.2V86.398ZM129.573 77.422H133.109V80.652H129.573V89.356C129.573 90.172 129.709 90.716 129.981 90.988C130.253 91.26 130.797 91.396 131.613 91.396C131.885 91.396 132.145 91.3847 132.395 91.362C132.644 91.3393 132.882 91.3053 133.109 91.26V95C132.701 95.068 132.247 95.1133 131.749 95.136C131.25 95.1587 130.763 95.17 130.287 95.17C129.539 95.17 128.825 95.1133 128.145 95C127.487 94.9093 126.898 94.7167 126.377 94.422C125.878 94.1273 125.481 93.708 125.187 93.164C124.892 92.62 124.745 91.906 124.745 91.022V80.652H121.821V77.422H124.745V72.152H129.573V77.422ZM148.258 84.324C148.031 83.1 147.623 82.1707 147.034 81.536C146.467 80.9013 145.594 80.584 144.416 80.584C143.645 80.584 142.999 80.72 142.478 80.992C141.979 81.2413 141.571 81.5587 141.254 81.944C140.959 82.3293 140.744 82.7373 140.608 83.168C140.494 83.5987 140.426 83.984 140.404 84.324H148.258ZM140.404 87.384C140.472 88.948 140.868 90.0813 141.594 90.784C142.319 91.4867 143.362 91.838 144.722 91.838C145.696 91.838 146.535 91.6 147.238 91.124C147.94 90.6253 148.371 90.104 148.53 89.56H152.78C152.1 91.668 151.057 93.1753 149.652 94.082C148.246 94.9887 146.546 95.442 144.552 95.442C143.169 95.442 141.922 95.2267 140.812 94.796C139.701 94.3427 138.76 93.708 137.99 92.892C137.219 92.076 136.618 91.1013 136.188 89.968C135.78 88.8347 135.576 87.588 135.576 86.228C135.576 84.9133 135.791 83.6893 136.222 82.556C136.652 81.4227 137.264 80.448 138.058 79.632C138.851 78.7933 139.792 78.136 140.88 77.66C141.99 77.184 143.214 76.946 144.552 76.946C146.048 76.946 147.351 77.2407 148.462 77.83C149.572 78.3967 150.479 79.1673 151.182 80.142C151.907 81.1167 152.428 82.2273 152.746 83.474C153.063 84.7207 153.176 86.024 153.086 87.384H140.404ZM171.6 86.942C171.6 87.758 171.747 88.4493 172.042 89.016C172.337 89.5827 172.722 90.0473 173.198 90.41C173.697 90.75 174.275 91.0107 174.932 91.192C175.589 91.3507 176.269 91.43 176.972 91.43C177.448 91.43 177.958 91.396 178.502 91.328C179.046 91.2373 179.556 91.0787 180.032 90.852C180.508 90.6253 180.905 90.3193 181.222 89.934C181.539 89.526 181.698 89.016 181.698 88.404C181.698 87.7467 181.483 87.214 181.052 86.806C180.644 86.398 180.1 86.058 179.42 85.786C178.74 85.514 177.969 85.276 177.108 85.072C176.247 84.868 175.374 84.6413 174.49 84.392C173.583 84.1653 172.699 83.8933 171.838 83.576C170.977 83.236 170.206 82.8053 169.526 82.284C168.846 81.7627 168.291 81.1167 167.86 80.346C167.452 79.5527 167.248 78.6007 167.248 77.49C167.248 76.2433 167.509 75.1667 168.03 74.26C168.574 73.3307 169.277 72.56 170.138 71.948C170.999 71.336 171.974 70.8827 173.062 70.588C174.15 70.2933 175.238 70.146 176.326 70.146C177.595 70.146 178.808 70.2933 179.964 70.588C181.143 70.86 182.185 71.3133 183.092 71.948C183.999 72.5827 184.713 73.3987 185.234 74.396C185.778 75.3707 186.05 76.5607 186.05 77.966H180.882C180.837 77.2407 180.678 76.64 180.406 76.164C180.157 75.688 179.817 75.314 179.386 75.042C178.955 74.77 178.457 74.5773 177.89 74.464C177.346 74.3507 176.745 74.294 176.088 74.294C175.657 74.294 175.227 74.3393 174.796 74.43C174.365 74.5207 173.969 74.6793 173.606 74.906C173.266 75.1327 172.983 75.416 172.756 75.756C172.529 76.096 172.416 76.5267 172.416 77.048C172.416 77.524 172.507 77.9093 172.688 78.204C172.869 78.4987 173.221 78.7707 173.742 79.02C174.286 79.2693 175.023 79.5187 175.952 79.768C176.904 80.0173 178.139 80.3347 179.658 80.72C180.111 80.8107 180.735 80.9807 181.528 81.23C182.344 81.4567 183.149 81.8307 183.942 82.352C184.735 82.8733 185.415 83.576 185.982 84.46C186.571 85.3213 186.866 86.432 186.866 87.792C186.866 88.9027 186.651 89.934 186.22 90.886C185.789 91.838 185.143 92.6653 184.282 93.368C183.443 94.048 182.389 94.5807 181.12 94.966C179.873 95.3513 178.423 95.544 176.768 95.544C175.431 95.544 174.127 95.374 172.858 95.034C171.611 94.7167 170.501 94.2067 169.526 93.504C168.574 92.8013 167.815 91.906 167.248 90.818C166.681 89.73 166.409 88.438 166.432 86.942H171.6ZM194.836 86.228C194.836 86.9307 194.904 87.622 195.04 88.302C195.176 88.9593 195.403 89.56 195.72 90.104C196.06 90.6253 196.502 91.0447 197.046 91.362C197.59 91.6793 198.27 91.838 199.086 91.838C199.902 91.838 200.582 91.6793 201.126 91.362C201.693 91.0447 202.135 90.6253 202.452 90.104C202.792 89.56 203.03 88.9593 203.166 88.302C203.302 87.622 203.37 86.9307 203.37 86.228C203.37 85.5253 203.302 84.834 203.166 84.154C203.03 83.474 202.792 82.8733 202.452 82.352C202.135 81.8307 201.693 81.4113 201.126 81.094C200.582 80.754 199.902 80.584 199.086 80.584C198.27 80.584 197.59 80.754 197.046 81.094C196.502 81.4113 196.06 81.8307 195.72 82.352C195.403 82.8733 195.176 83.474 195.04 84.154C194.904 84.834 194.836 85.5253 194.836 86.228ZM190.008 86.228C190.008 84.8227 190.224 83.5533 190.654 82.42C191.085 81.264 191.697 80.2893 192.49 79.496C193.284 78.68 194.236 78.0567 195.346 77.626C196.457 77.1727 197.704 76.946 199.086 76.946C200.469 76.946 201.716 77.1727 202.826 77.626C203.96 78.0567 204.923 78.68 205.716 79.496C206.51 80.2893 207.122 81.264 207.552 82.42C207.983 83.5533 208.198 84.8227 208.198 86.228C208.198 87.6333 207.983 88.9027 207.552 90.036C207.122 91.1693 206.51 92.144 205.716 92.96C204.923 93.7533 203.96 94.3653 202.826 94.796C201.716 95.2267 200.469 95.442 199.086 95.442C197.704 95.442 196.457 95.2267 195.346 94.796C194.236 94.3653 193.284 93.7533 192.49 92.96C191.697 92.144 191.085 91.1693 190.654 90.036C190.224 88.9027 190.008 87.6333 190.008 86.228ZM213.411 80.652H210.521V77.422H213.411V76.062C213.411 74.498 213.899 73.2173 214.873 72.22C215.848 71.2227 217.321 70.724 219.293 70.724C219.724 70.724 220.155 70.7467 220.585 70.792C221.016 70.8147 221.435 70.8373 221.843 70.86V74.464C221.277 74.396 220.687 74.362 220.075 74.362C219.418 74.362 218.942 74.5207 218.647 74.838C218.375 75.1327 218.239 75.6427 218.239 76.368V77.422H221.571V80.652H218.239V95H213.411V80.652ZM230.82 77.422H234.356V80.652H230.82V89.356C230.82 90.172 230.956 90.716 231.228 90.988C231.5 91.26 232.044 91.396 232.86 91.396C233.132 91.396 233.392 91.3847 233.642 91.362C233.891 91.3393 234.129 91.3053 234.356 91.26V95C233.948 95.068 233.494 95.1133 232.996 95.136C232.497 95.1587 232.01 95.17 231.534 95.17C230.786 95.17 230.072 95.1133 229.392 95C228.734 94.9093 228.145 94.7167 227.624 94.422C227.125 94.1273 226.728 93.708 226.434 93.164C226.139 92.62 225.992 91.906 225.992 91.022V80.652H223.068V77.422H225.992V72.152H230.82V77.422ZM257.767 95H252.803L249.675 83.202H249.607L246.615 95H241.617L236.041 77.422H241.141L244.371 89.356H244.439L247.363 77.422H252.055L255.047 89.322H255.115L258.345 77.422H263.309L257.767 95ZM266.18 82.828C266.248 81.6947 266.531 80.754 267.03 80.006C267.529 79.258 268.163 78.6573 268.934 78.204C269.705 77.7507 270.566 77.4333 271.518 77.252C272.493 77.048 273.467 76.946 274.442 76.946C275.326 76.946 276.221 77.014 277.128 77.15C278.035 77.2633 278.862 77.5013 279.61 77.864C280.358 78.2267 280.97 78.7367 281.446 79.394C281.922 80.0287 282.16 80.8787 282.16 81.944V91.09C282.16 91.8833 282.205 92.6427 282.296 93.368C282.387 94.0933 282.545 94.6373 282.772 95H277.876C277.785 94.728 277.706 94.456 277.638 94.184C277.593 93.8893 277.559 93.5947 277.536 93.3C276.765 94.0933 275.859 94.6487 274.816 94.966C273.773 95.2833 272.708 95.442 271.62 95.442C270.781 95.442 269.999 95.34 269.274 95.136C268.549 94.932 267.914 94.6147 267.37 94.184C266.826 93.7533 266.395 93.2093 266.078 92.552C265.783 91.8947 265.636 91.1127 265.636 90.206C265.636 89.2087 265.806 88.3927 266.146 87.758C266.509 87.1007 266.962 86.5793 267.506 86.194C268.073 85.8087 268.707 85.5253 269.41 85.344C270.135 85.14 270.861 84.9813 271.586 84.868C272.311 84.7547 273.025 84.664 273.728 84.596C274.431 84.528 275.054 84.426 275.598 84.29C276.142 84.154 276.573 83.9613 276.89 83.712C277.207 83.44 277.355 83.0547 277.332 82.556C277.332 82.0347 277.241 81.6267 277.06 81.332C276.901 81.0147 276.675 80.7767 276.38 80.618C276.108 80.4367 275.779 80.3233 275.394 80.278C275.031 80.21 274.635 80.176 274.204 80.176C273.252 80.176 272.504 80.38 271.96 80.788C271.416 81.196 271.099 81.876 271.008 82.828H266.18ZM277.332 86.398C277.128 86.5793 276.867 86.7267 276.55 86.84C276.255 86.9307 275.927 87.01 275.564 87.078C275.224 87.146 274.861 87.2027 274.476 87.248C274.091 87.2933 273.705 87.35 273.32 87.418C272.957 87.486 272.595 87.5767 272.232 87.69C271.892 87.8033 271.586 87.962 271.314 88.166C271.065 88.3473 270.861 88.5853 270.702 88.88C270.543 89.1747 270.464 89.5487 270.464 90.002C270.464 90.4327 270.543 90.7953 270.702 91.09C270.861 91.3847 271.076 91.6227 271.348 91.804C271.62 91.9627 271.937 92.076 272.3 92.144C272.663 92.212 273.037 92.246 273.422 92.246C274.374 92.246 275.111 92.0873 275.632 91.77C276.153 91.4527 276.539 91.0787 276.788 90.648C277.037 90.1947 277.185 89.7413 277.23 89.288C277.298 88.8347 277.332 88.472 277.332 88.2V86.398ZM286.928 77.422H291.518V80.686H291.586C291.812 80.142 292.118 79.6433 292.504 79.19C292.889 78.714 293.331 78.3173 293.83 78C294.328 77.66 294.861 77.3993 295.428 77.218C295.994 77.0367 296.584 76.946 297.196 76.946C297.513 76.946 297.864 77.0027 298.25 77.116V81.604C298.023 81.5587 297.751 81.5247 297.434 81.502C297.116 81.4567 296.81 81.434 296.516 81.434C295.632 81.434 294.884 81.5813 294.272 81.876C293.66 82.1707 293.161 82.5787 292.776 83.1C292.413 83.5987 292.152 84.188 291.994 84.868C291.835 85.548 291.756 86.2847 291.756 87.078V95H286.928V77.422ZM312.397 84.324C312.17 83.1 311.762 82.1707 311.173 81.536C310.606 80.9013 309.733 80.584 308.555 80.584C307.784 80.584 307.138 80.72 306.617 80.992C306.118 81.2413 305.71 81.5587 305.393 81.944C305.098 82.3293 304.883 82.7373 304.747 83.168C304.633 83.5987 304.565 83.984 304.543 84.324H312.397ZM304.543 87.384C304.611 88.948 305.007 90.0813 305.733 90.784C306.458 91.4867 307.501 91.838 308.861 91.838C309.835 91.838 310.674 91.6 311.377 91.124C312.079 90.6253 312.51 90.104 312.669 89.56H316.919C316.239 91.668 315.196 93.1753 313.791 94.082C312.385 94.9887 310.685 95.442 308.691 95.442C307.308 95.442 306.061 95.2267 304.951 94.796C303.84 94.3427 302.899 93.708 302.129 92.892C301.358 92.076 300.757 91.1013 300.327 89.968C299.919 88.8347 299.715 87.588 299.715 86.228C299.715 84.9133 299.93 83.6893 300.361 82.556C300.791 81.4227 301.403 80.448 302.197 79.632C302.99 78.7933 303.931 78.136 305.019 77.66C306.129 77.184 307.353 76.946 308.691 76.946C310.187 76.946 311.49 77.2407 312.601 77.83C313.711 78.3967 314.618 79.1673 315.321 80.142C316.046 81.1167 316.567 82.2273 316.885 83.474C317.202 84.7207 317.315 86.024 317.225 87.384H304.543ZM72.684 122.55H78.09C79.042 122.55 79.824 122.323 80.436 121.87C81.048 121.417 81.354 120.68 81.354 119.66C81.354 119.093 81.252 118.629 81.048 118.266C80.844 117.903 80.572 117.62 80.232 117.416C79.892 117.212 79.4953 117.076 79.042 117.008C78.6113 116.917 78.158 116.872 77.682 116.872H72.684V122.55ZM67.346 112.724H78.77C79.926 112.724 80.98 112.826 81.932 113.03C82.884 113.234 83.7 113.574 84.38 114.05C85.06 114.503 85.5813 115.115 85.944 115.886C86.3293 116.657 86.522 117.609 86.522 118.742C86.522 119.966 86.2387 120.986 85.672 121.802C85.128 122.618 84.312 123.287 83.224 123.808C84.72 124.239 85.8307 124.998 86.556 126.086C87.304 127.151 87.678 128.443 87.678 129.962C87.678 131.186 87.44 132.251 86.964 133.158C86.488 134.042 85.842 134.767 85.026 135.334C84.2327 135.901 83.3147 136.32 82.272 136.592C81.252 136.864 80.198 137 79.11 137H67.346V112.724ZM72.684 132.852H78.396C78.9173 132.852 79.416 132.807 79.892 132.716C80.368 132.603 80.7873 132.433 81.15 132.206C81.5127 131.957 81.796 131.628 82 131.22C82.2267 130.812 82.34 130.291 82.34 129.656C82.34 128.409 81.9887 127.525 81.286 127.004C80.5833 126.46 79.654 126.188 78.498 126.188H72.684V132.852ZM108.285 137H103.695V134.552H103.593C102.981 135.572 102.188 136.309 101.213 136.762C100.239 137.215 99.2415 137.442 98.2215 137.442C96.9295 137.442 95.8641 137.272 95.0255 136.932C94.2095 136.592 93.5635 136.116 93.0875 135.504C92.6115 134.869 92.2715 134.11 92.0675 133.226C91.8861 132.319 91.7955 131.322 91.7955 130.234V119.422H96.6235V129.35C96.6235 130.801 96.8501 131.889 97.3035 132.614C97.7568 133.317 98.5615 133.668 99.7175 133.668C101.032 133.668 101.984 133.283 102.573 132.512C103.163 131.719 103.457 130.427 103.457 128.636V119.422H108.285V137ZM125.448 128.16C125.448 127.435 125.38 126.743 125.244 126.086C125.108 125.406 124.87 124.817 124.53 124.318C124.212 123.797 123.793 123.377 123.272 123.06C122.75 122.743 122.093 122.584 121.3 122.584C120.506 122.584 119.838 122.743 119.294 123.06C118.75 123.377 118.308 123.797 117.968 124.318C117.65 124.839 117.412 125.44 117.254 126.12C117.118 126.777 117.05 127.469 117.05 128.194C117.05 128.874 117.129 129.554 117.288 130.234C117.446 130.914 117.696 131.526 118.036 132.07C118.398 132.591 118.84 133.022 119.362 133.362C119.906 133.679 120.552 133.838 121.3 133.838C122.093 133.838 122.75 133.679 123.272 133.362C123.816 133.045 124.246 132.625 124.564 132.104C124.881 131.56 125.108 130.948 125.244 130.268C125.38 129.588 125.448 128.885 125.448 128.16ZM125.516 134.756H125.448C124.881 135.708 124.133 136.399 123.204 136.83C122.297 137.238 121.266 137.442 120.11 137.442C118.795 137.442 117.639 137.193 116.642 136.694C115.644 136.173 114.817 135.481 114.16 134.62C113.525 133.736 113.038 132.727 112.698 131.594C112.38 130.461 112.222 129.282 112.222 128.058C112.222 126.879 112.38 125.746 112.698 124.658C113.038 123.547 113.525 122.573 114.16 121.734C114.817 120.895 115.633 120.227 116.608 119.728C117.582 119.207 118.716 118.946 120.008 118.946C121.05 118.946 122.036 119.173 122.966 119.626C123.918 120.057 124.666 120.703 125.21 121.564H125.278V112.724H130.106V137H125.516V134.756ZM142.969 132.852C143.649 132.852 144.25 132.716 144.771 132.444C145.292 132.172 145.723 131.809 146.063 131.356C146.403 130.903 146.652 130.393 146.811 129.826C146.992 129.237 147.083 128.625 147.083 127.99C147.083 127.265 147.015 126.585 146.879 125.95C146.743 125.293 146.516 124.715 146.199 124.216C145.882 123.717 145.462 123.321 144.941 123.026C144.42 122.731 143.762 122.584 142.969 122.584C142.289 122.584 141.7 122.72 141.201 122.992C140.725 123.264 140.317 123.638 139.977 124.114C139.66 124.567 139.422 125.1 139.263 125.712C139.127 126.301 139.059 126.925 139.059 127.582C139.059 128.217 139.116 128.851 139.229 129.486C139.365 130.098 139.58 130.653 139.875 131.152C140.192 131.651 140.6 132.059 141.099 132.376C141.598 132.693 142.221 132.852 142.969 132.852ZM151.673 135.878C151.673 136.581 151.571 137.385 151.367 138.292C151.186 139.199 150.778 140.037 150.143 140.808C149.508 141.601 148.59 142.27 147.389 142.814C146.188 143.358 144.578 143.63 142.561 143.63C141.7 143.63 140.816 143.517 139.909 143.29C139.025 143.086 138.209 142.757 137.461 142.304C136.736 141.851 136.124 141.261 135.625 140.536C135.149 139.833 134.877 138.983 134.809 137.986H139.603C139.83 138.893 140.272 139.516 140.929 139.856C141.586 140.219 142.346 140.4 143.207 140.4C144.567 140.4 145.553 139.992 146.165 139.176C146.8 138.36 147.106 137.329 147.083 136.082V133.77H147.015C146.494 134.699 145.746 135.391 144.771 135.844C143.819 136.275 142.81 136.49 141.745 136.49C140.43 136.49 139.297 136.263 138.345 135.81C137.393 135.334 136.611 134.699 135.999 133.906C135.387 133.09 134.934 132.149 134.639 131.084C134.367 129.996 134.231 128.851 134.231 127.65C134.231 126.517 134.39 125.429 134.707 124.386C135.047 123.321 135.534 122.391 136.169 121.598C136.804 120.782 137.586 120.136 138.515 119.66C139.467 119.184 140.555 118.946 141.779 118.946C142.935 118.946 143.944 119.161 144.805 119.592C145.689 120.023 146.426 120.748 147.015 121.768H147.083V119.422H151.673V135.878ZM168.412 126.324C168.185 125.1 167.777 124.171 167.188 123.536C166.621 122.901 165.749 122.584 164.57 122.584C163.799 122.584 163.153 122.72 162.632 122.992C162.133 123.241 161.725 123.559 161.408 123.944C161.113 124.329 160.898 124.737 160.762 125.168C160.649 125.599 160.581 125.984 160.558 126.324H168.412ZM160.558 129.384C160.626 130.948 161.023 132.081 161.748 132.784C162.473 133.487 163.516 133.838 164.876 133.838C165.851 133.838 166.689 133.6 167.392 133.124C168.095 132.625 168.525 132.104 168.684 131.56H172.934C172.254 133.668 171.211 135.175 169.806 136.082C168.401 136.989 166.701 137.442 164.706 137.442C163.323 137.442 162.077 137.227 160.966 136.796C159.855 136.343 158.915 135.708 158.144 134.892C157.373 134.076 156.773 133.101 156.342 131.968C155.934 130.835 155.73 129.588 155.73 128.228C155.73 126.913 155.945 125.689 156.376 124.556C156.807 123.423 157.419 122.448 158.212 121.632C159.005 120.793 159.946 120.136 161.034 119.66C162.145 119.184 163.369 118.946 164.706 118.946C166.202 118.946 167.505 119.241 168.616 119.83C169.727 120.397 170.633 121.167 171.336 122.142C172.061 123.117 172.583 124.227 172.9 125.474C173.217 126.721 173.331 128.024 173.24 129.384H160.558ZM183.243 119.422H186.779V122.652H183.243V131.356C183.243 132.172 183.379 132.716 183.651 132.988C183.923 133.26 184.467 133.396 185.283 133.396C185.555 133.396 185.816 133.385 186.065 133.362C186.315 133.339 186.553 133.305 186.779 133.26V137C186.371 137.068 185.918 137.113 185.419 137.136C184.921 137.159 184.433 137.17 183.957 137.17C183.209 137.17 182.495 137.113 181.815 137C181.158 136.909 180.569 136.717 180.047 136.422C179.549 136.127 179.152 135.708 178.857 135.164C178.563 134.62 178.415 133.906 178.415 133.022V122.652H175.491V119.422H178.415V114.152H183.243V119.422ZM195.061 116.702H190.233V112.724H195.061V116.702ZM190.233 119.422H195.061V137H190.233V119.422ZM199.882 119.422H204.472V121.87H204.574C205.186 120.85 205.98 120.113 206.954 119.66C207.929 119.184 208.926 118.946 209.946 118.946C211.238 118.946 212.292 119.127 213.108 119.49C213.947 119.83 214.604 120.317 215.08 120.952C215.556 121.564 215.885 122.323 216.066 123.23C216.27 124.114 216.372 125.1 216.372 126.188V137H211.544V127.072C211.544 125.621 211.318 124.545 210.864 123.842C210.411 123.117 209.606 122.754 208.45 122.754C207.136 122.754 206.184 123.151 205.594 123.944C205.005 124.715 204.71 125.995 204.71 127.786V137H199.882V119.422ZM229.251 132.852C229.931 132.852 230.531 132.716 231.053 132.444C231.574 132.172 232.005 131.809 232.345 131.356C232.685 130.903 232.934 130.393 233.093 129.826C233.274 129.237 233.365 128.625 233.365 127.99C233.365 127.265 233.297 126.585 233.161 125.95C233.025 125.293 232.798 124.715 232.481 124.216C232.163 123.717 231.744 123.321 231.223 123.026C230.701 122.731 230.044 122.584 229.251 122.584C228.571 122.584 227.981 122.72 227.483 122.992C227.007 123.264 226.599 123.638 226.259 124.114C225.941 124.567 225.703 125.1 225.545 125.712C225.409 126.301 225.341 126.925 225.341 127.582C225.341 128.217 225.397 128.851 225.511 129.486C225.647 130.098 225.862 130.653 226.157 131.152C226.474 131.651 226.882 132.059 227.381 132.376C227.879 132.693 228.503 132.852 229.251 132.852ZM237.955 135.878C237.955 136.581 237.853 137.385 237.649 138.292C237.467 139.199 237.059 140.037 236.425 140.808C235.79 141.601 234.872 142.27 233.671 142.814C232.469 143.358 230.86 143.63 228.843 143.63C227.981 143.63 227.097 143.517 226.191 143.29C225.307 143.086 224.491 142.757 223.743 142.304C223.017 141.851 222.405 141.261 221.907 140.536C221.431 139.833 221.159 138.983 221.091 137.986H225.885C226.111 138.893 226.553 139.516 227.211 139.856C227.868 140.219 228.627 140.4 229.489 140.4C230.849 140.4 231.835 139.992 232.447 139.176C233.081 138.36 233.387 137.329 233.365 136.082V133.77H233.297C232.775 134.699 232.027 135.391 231.053 135.844C230.101 136.275 229.092 136.49 228.027 136.49C226.712 136.49 225.579 136.263 224.627 135.81C223.675 135.334 222.893 134.699 222.281 133.906C221.669 133.09 221.215 132.149 220.921 131.084C220.649 129.996 220.513 128.851 220.513 127.65C220.513 126.517 220.671 125.429 220.989 124.386C221.329 123.321 221.816 122.391 222.451 121.598C223.085 120.782 223.867 120.136 224.797 119.66C225.749 119.184 226.837 118.946 228.061 118.946C229.217 118.946 230.225 119.161 231.087 119.592C231.971 120.023 232.707 120.748 233.297 121.768H233.365V119.422H237.955V135.878ZM67.346 154.724H72.684V164.04H82.51V154.724H87.848V179H82.51V168.528H72.684V179H67.346V154.724ZM92.8532 166.828C92.9212 165.695 93.2045 164.754 93.7032 164.006C94.2018 163.258 94.8365 162.657 95.6072 162.204C96.3778 161.751 97.2392 161.433 98.1912 161.252C99.1658 161.048 100.141 160.946 101.115 160.946C101.999 160.946 102.895 161.014 103.801 161.15C104.708 161.263 105.535 161.501 106.283 161.864C107.031 162.227 107.643 162.737 108.119 163.394C108.595 164.029 108.833 164.879 108.833 165.944V175.09C108.833 175.883 108.879 176.643 108.969 177.368C109.06 178.093 109.219 178.637 109.445 179H104.549C104.459 178.728 104.379 178.456 104.311 178.184C104.266 177.889 104.232 177.595 104.209 177.3C103.439 178.093 102.532 178.649 101.489 178.966C100.447 179.283 99.3812 179.442 98.2932 179.442C97.4545 179.442 96.6725 179.34 95.9472 179.136C95.2218 178.932 94.5872 178.615 94.0432 178.184C93.4992 177.753 93.0685 177.209 92.7512 176.552C92.4565 175.895 92.3092 175.113 92.3092 174.206C92.3092 173.209 92.4792 172.393 92.8192 171.758C93.1818 171.101 93.6352 170.579 94.1792 170.194C94.7458 169.809 95.3805 169.525 96.0832 169.344C96.8085 169.14 97.5338 168.981 98.2592 168.868C98.9845 168.755 99.6985 168.664 100.401 168.596C101.104 168.528 101.727 168.426 102.271 168.29C102.815 168.154 103.246 167.961 103.563 167.712C103.881 167.44 104.028 167.055 104.005 166.556C104.005 166.035 103.915 165.627 103.733 165.332C103.575 165.015 103.348 164.777 103.053 164.618C102.781 164.437 102.453 164.323 102.067 164.278C101.705 164.21 101.308 164.176 100.877 164.176C99.9252 164.176 99.1772 164.38 98.6332 164.788C98.0892 165.196 97.7718 165.876 97.6812 166.828H92.8532ZM104.005 170.398C103.801 170.579 103.541 170.727 103.223 170.84C102.929 170.931 102.6 171.01 102.237 171.078C101.897 171.146 101.535 171.203 101.149 171.248C100.764 171.293 100.379 171.35 99.9932 171.418C99.6305 171.486 99.2678 171.577 98.9052 171.69C98.5652 171.803 98.2592 171.962 97.9872 172.166C97.7378 172.347 97.5338 172.585 97.3752 172.88C97.2165 173.175 97.1372 173.549 97.1372 174.002C97.1372 174.433 97.2165 174.795 97.3752 175.09C97.5338 175.385 97.7492 175.623 98.0212 175.804C98.2932 175.963 98.6105 176.076 98.9732 176.144C99.3358 176.212 99.7098 176.246 100.095 176.246C101.047 176.246 101.784 176.087 102.305 175.77C102.827 175.453 103.212 175.079 103.461 174.648C103.711 174.195 103.858 173.741 103.903 173.288C103.971 172.835 104.005 172.472 104.005 172.2V170.398ZM113.601 161.422H118.191V163.87H118.293C118.905 162.85 119.698 162.113 120.673 161.66C121.647 161.184 122.645 160.946 123.665 160.946C124.957 160.946 126.011 161.127 126.827 161.49C127.665 161.83 128.323 162.317 128.799 162.952C129.275 163.564 129.603 164.323 129.785 165.23C129.989 166.114 130.091 167.1 130.091 168.188V179H125.263V169.072C125.263 167.621 125.036 166.545 124.583 165.842C124.129 165.117 123.325 164.754 122.169 164.754C120.854 164.754 119.902 165.151 119.313 165.944C118.723 166.715 118.429 167.995 118.429 169.786V179H113.601V161.422ZM147.253 170.16C147.253 169.435 147.185 168.743 147.049 168.086C146.913 167.406 146.675 166.817 146.335 166.318C146.018 165.797 145.598 165.377 145.077 165.06C144.556 164.743 143.898 164.584 143.105 164.584C142.312 164.584 141.643 164.743 141.099 165.06C140.555 165.377 140.113 165.797 139.773 166.318C139.456 166.839 139.218 167.44 139.059 168.12C138.923 168.777 138.855 169.469 138.855 170.194C138.855 170.874 138.934 171.554 139.093 172.234C139.252 172.914 139.501 173.526 139.841 174.07C140.204 174.591 140.646 175.022 141.167 175.362C141.711 175.679 142.357 175.838 143.105 175.838C143.898 175.838 144.556 175.679 145.077 175.362C145.621 175.045 146.052 174.625 146.369 174.104C146.686 173.56 146.913 172.948 147.049 172.268C147.185 171.588 147.253 170.885 147.253 170.16ZM147.321 176.756H147.253C146.686 177.708 145.938 178.399 145.009 178.83C144.102 179.238 143.071 179.442 141.915 179.442C140.6 179.442 139.444 179.193 138.447 178.694C137.45 178.173 136.622 177.481 135.965 176.62C135.33 175.736 134.843 174.727 134.503 173.594C134.186 172.461 134.027 171.282 134.027 170.058C134.027 168.879 134.186 167.746 134.503 166.658C134.843 165.547 135.33 164.573 135.965 163.734C136.622 162.895 137.438 162.227 138.413 161.728C139.388 161.207 140.521 160.946 141.813 160.946C142.856 160.946 143.842 161.173 144.771 161.626C145.723 162.057 146.471 162.703 147.015 163.564H147.083V154.724H151.911V179H147.321V176.756ZM169.466 170.228C169.466 169.48 169.387 168.766 169.228 168.086C169.069 167.406 168.82 166.805 168.48 166.284C168.14 165.763 167.709 165.355 167.188 165.06C166.689 164.743 166.077 164.584 165.352 164.584C164.649 164.584 164.037 164.743 163.516 165.06C162.995 165.355 162.564 165.763 162.224 166.284C161.884 166.805 161.635 167.406 161.476 168.086C161.317 168.766 161.238 169.48 161.238 170.228C161.238 170.953 161.317 171.656 161.476 172.336C161.635 173.016 161.884 173.617 162.224 174.138C162.564 174.659 162.995 175.079 163.516 175.396C164.037 175.691 164.649 175.838 165.352 175.838C166.077 175.838 166.689 175.691 167.188 175.396C167.709 175.079 168.14 174.659 168.48 174.138C168.82 173.617 169.069 173.016 169.228 172.336C169.387 171.656 169.466 170.953 169.466 170.228ZM156.58 154.724H161.408V163.564H161.476C162.065 162.657 162.859 162 163.856 161.592C164.876 161.161 165.93 160.946 167.018 160.946C167.902 160.946 168.775 161.127 169.636 161.49C170.497 161.853 171.268 162.408 171.948 163.156C172.651 163.904 173.217 164.867 173.648 166.046C174.079 167.202 174.294 168.585 174.294 170.194C174.294 171.803 174.079 173.197 173.648 174.376C173.217 175.532 172.651 176.484 171.948 177.232C171.268 177.98 170.497 178.535 169.636 178.898C168.775 179.261 167.902 179.442 167.018 179.442C165.726 179.442 164.57 179.238 163.55 178.83C162.53 178.422 161.759 177.731 161.238 176.756H161.17V179H156.58V154.724ZM182.669 170.228C182.669 170.931 182.737 171.622 182.873 172.302C183.009 172.959 183.236 173.56 183.553 174.104C183.893 174.625 184.335 175.045 184.879 175.362C185.423 175.679 186.103 175.838 186.919 175.838C187.735 175.838 188.415 175.679 188.959 175.362C189.526 175.045 189.968 174.625 190.285 174.104C190.625 173.56 190.863 172.959 190.999 172.302C191.135 171.622 191.203 170.931 191.203 170.228C191.203 169.525 191.135 168.834 190.999 168.154C190.863 167.474 190.625 166.873 190.285 166.352C189.968 165.831 189.526 165.411 188.959 165.094C188.415 164.754 187.735 164.584 186.919 164.584C186.103 164.584 185.423 164.754 184.879 165.094C184.335 165.411 183.893 165.831 183.553 166.352C183.236 166.873 183.009 167.474 182.873 168.154C182.737 168.834 182.669 169.525 182.669 170.228ZM177.841 170.228C177.841 168.823 178.057 167.553 178.487 166.42C178.918 165.264 179.53 164.289 180.323 163.496C181.117 162.68 182.069 162.057 183.179 161.626C184.29 161.173 185.537 160.946 186.919 160.946C188.302 160.946 189.549 161.173 190.659 161.626C191.793 162.057 192.756 162.68 193.549 163.496C194.343 164.289 194.955 165.264 195.385 166.42C195.816 167.553 196.031 168.823 196.031 170.228C196.031 171.633 195.816 172.903 195.385 174.036C194.955 175.169 194.343 176.144 193.549 176.96C192.756 177.753 191.793 178.365 190.659 178.796C189.549 179.227 188.302 179.442 186.919 179.442C185.537 179.442 184.29 179.227 183.179 178.796C182.069 178.365 181.117 177.753 180.323 176.96C179.53 176.144 178.918 175.169 178.487 174.036C178.057 172.903 177.841 171.633 177.841 170.228ZM204.474 170.228C204.474 170.931 204.542 171.622 204.678 172.302C204.814 172.959 205.041 173.56 205.358 174.104C205.698 174.625 206.14 175.045 206.684 175.362C207.228 175.679 207.908 175.838 208.724 175.838C209.54 175.838 210.22 175.679 210.764 175.362C211.331 175.045 211.773 174.625 212.09 174.104C212.43 173.56 212.668 172.959 212.804 172.302C212.94 171.622 213.008 170.931 213.008 170.228C213.008 169.525 212.94 168.834 212.804 168.154C212.668 167.474 212.43 166.873 212.09 166.352C211.773 165.831 211.331 165.411 210.764 165.094C210.22 164.754 209.54 164.584 208.724 164.584C207.908 164.584 207.228 164.754 206.684 165.094C206.14 165.411 205.698 165.831 205.358 166.352C205.041 166.873 204.814 167.474 204.678 168.154C204.542 168.834 204.474 169.525 204.474 170.228ZM199.646 170.228C199.646 168.823 199.862 167.553 200.292 166.42C200.723 165.264 201.335 164.289 202.128 163.496C202.922 162.68 203.874 162.057 204.984 161.626C206.095 161.173 207.342 160.946 208.724 160.946C210.107 160.946 211.354 161.173 212.464 161.626C213.598 162.057 214.561 162.68 215.354 163.496C216.148 164.289 216.76 165.264 217.19 166.42C217.621 167.553 217.836 168.823 217.836 170.228C217.836 171.633 217.621 172.903 217.19 174.036C216.76 175.169 216.148 176.144 215.354 176.96C214.561 177.753 213.598 178.365 212.464 178.796C211.354 179.227 210.107 179.442 208.724 179.442C207.342 179.442 206.095 179.227 204.984 178.796C203.874 178.365 202.922 177.753 202.128 176.96C201.335 176.144 200.723 175.169 200.292 174.036C199.862 172.903 199.646 171.633 199.646 170.228ZM222.438 154.724H227.266V167.746L233.352 161.422H239.064L232.434 167.882L239.812 179H233.964L229.136 171.146L227.266 172.948V179H222.438V154.724Z" fill="#1C304A"/>
<rect x="165" y="76" width="302" height="462" fill="white" stroke="black" stroke-width="8"/>
<path d="M198.684 162.512H203.444C204.215 162.512 204.963 162.387 205.688 162.138C206.413 161.889 207.059 161.481 207.626 160.914C208.193 160.325 208.646 159.565 208.986 158.636C209.326 157.707 209.496 156.573 209.496 155.236C209.496 154.012 209.371 152.913 209.122 151.938C208.895 150.941 208.51 150.091 207.966 149.388C207.422 148.685 206.697 148.153 205.79 147.79C204.906 147.405 203.807 147.212 202.492 147.212H198.684V162.512ZM193.346 142.724H203.818C205.382 142.724 206.833 142.973 208.17 143.472C209.53 143.971 210.697 144.719 211.672 145.716C212.669 146.713 213.44 147.96 213.984 149.456C214.551 150.952 214.834 152.709 214.834 154.726C214.834 156.494 214.607 158.126 214.154 159.622C213.701 161.118 213.009 162.41 212.08 163.498C211.173 164.586 210.029 165.447 208.646 166.082C207.286 166.694 205.677 167 203.818 167H193.346V142.724ZM230.889 156.324C230.663 155.1 230.255 154.171 229.665 153.536C229.099 152.901 228.226 152.584 227.047 152.584C226.277 152.584 225.631 152.72 225.109 152.992C224.611 153.241 224.203 153.559 223.885 153.944C223.591 154.329 223.375 154.737 223.239 155.168C223.126 155.599 223.058 155.984 223.035 156.324H230.889ZM223.035 159.384C223.103 160.948 223.5 162.081 224.225 162.784C224.951 163.487 225.993 163.838 227.353 163.838C228.328 163.838 229.167 163.6 229.869 163.124C230.572 162.625 231.003 162.104 231.161 161.56H235.411C234.731 163.668 233.689 165.175 232.283 166.082C230.878 166.989 229.178 167.442 227.183 167.442C225.801 167.442 224.554 167.227 223.443 166.796C222.333 166.343 221.392 165.708 220.621 164.892C219.851 164.076 219.25 163.101 218.819 161.968C218.411 160.835 218.207 159.588 218.207 158.228C218.207 156.913 218.423 155.689 218.853 154.556C219.284 153.423 219.896 152.448 220.689 151.632C221.483 150.793 222.423 150.136 223.511 149.66C224.622 149.184 225.846 148.946 227.183 148.946C228.679 148.946 229.983 149.241 231.093 149.83C232.204 150.397 233.111 151.167 233.813 152.142C234.539 153.117 235.06 154.227 235.377 155.474C235.695 156.721 235.808 158.024 235.717 159.384H223.035ZM239.567 155.644H249.801V159.792H239.567V155.644ZM254.466 149.422H259.056V152.686H259.124C259.351 152.142 259.657 151.643 260.042 151.19C260.428 150.714 260.87 150.317 261.368 150C261.867 149.66 262.4 149.399 262.966 149.218C263.533 149.037 264.122 148.946 264.734 148.946C265.052 148.946 265.403 149.003 265.788 149.116V153.604C265.562 153.559 265.29 153.525 264.972 153.502C264.655 153.457 264.349 153.434 264.054 153.434C263.17 153.434 262.422 153.581 261.81 153.876C261.198 154.171 260.7 154.579 260.314 155.1C259.952 155.599 259.691 156.188 259.532 156.868C259.374 157.548 259.294 158.285 259.294 159.078V167H254.466V149.422ZM273.665 146.702H268.837V142.724H273.665V146.702ZM268.837 149.422H273.665V167H268.837V149.422ZM282.227 161.288C282.227 161.809 282.329 162.263 282.533 162.648C282.759 163.011 283.043 163.317 283.383 163.566C283.723 163.793 284.108 163.963 284.539 164.076C284.992 164.189 285.457 164.246 285.933 164.246C286.273 164.246 286.624 164.212 286.987 164.144C287.372 164.053 287.712 163.929 288.007 163.77C288.324 163.589 288.585 163.362 288.789 163.09C288.993 162.795 289.095 162.433 289.095 162.002C289.095 161.277 288.607 160.733 287.633 160.37C286.681 160.007 285.343 159.645 283.621 159.282C282.918 159.123 282.227 158.942 281.547 158.738C280.889 158.511 280.3 158.228 279.779 157.888C279.257 157.525 278.838 157.083 278.521 156.562C278.203 156.018 278.045 155.361 278.045 154.59C278.045 153.457 278.26 152.527 278.691 151.802C279.144 151.077 279.733 150.51 280.459 150.102C281.184 149.671 282 149.377 282.907 149.218C283.813 149.037 284.743 148.946 285.695 148.946C286.647 148.946 287.565 149.037 288.449 149.218C289.355 149.399 290.16 149.705 290.863 150.136C291.565 150.567 292.143 151.145 292.597 151.87C293.073 152.573 293.356 153.468 293.447 154.556H288.857C288.789 153.627 288.437 153.003 287.803 152.686C287.168 152.346 286.42 152.176 285.559 152.176C285.287 152.176 284.992 152.199 284.675 152.244C284.357 152.267 284.063 152.335 283.791 152.448C283.541 152.561 283.326 152.731 283.145 152.958C282.963 153.162 282.873 153.445 282.873 153.808C282.873 154.239 283.031 154.59 283.349 154.862C283.666 155.134 284.074 155.361 284.573 155.542C285.094 155.701 285.683 155.848 286.341 155.984C286.998 156.12 287.667 156.267 288.347 156.426C289.049 156.585 289.729 156.777 290.387 157.004C291.067 157.231 291.667 157.537 292.189 157.922C292.71 158.285 293.129 158.749 293.447 159.316C293.764 159.86 293.923 160.54 293.923 161.356C293.923 162.512 293.685 163.487 293.209 164.28C292.755 165.051 292.155 165.674 291.407 166.15C290.659 166.626 289.797 166.955 288.823 167.136C287.871 167.34 286.896 167.442 285.899 167.442C284.879 167.442 283.881 167.34 282.907 167.136C281.932 166.932 281.059 166.592 280.289 166.116C279.541 165.64 278.917 165.017 278.419 164.246C277.943 163.453 277.682 162.467 277.637 161.288H282.227ZM298.211 142.724H303.039V155.746L309.125 149.422H314.837L308.207 155.882L315.585 167H309.737L304.909 159.146L303.039 160.948V167H298.211V142.724ZM323.276 146.702H318.448V142.724H323.276V146.702ZM318.448 149.422H323.276V167H318.448V149.422ZM328.098 149.422H332.688V151.87H332.79C333.402 150.85 334.195 150.113 335.17 149.66C336.144 149.184 337.142 148.946 338.162 148.946C339.454 148.946 340.508 149.127 341.324 149.49C342.162 149.83 342.82 150.317 343.296 150.952C343.772 151.564 344.1 152.323 344.282 153.23C344.486 154.114 344.588 155.1 344.588 156.188V167H339.76V157.072C339.76 155.621 339.533 154.545 339.08 153.842C338.626 153.117 337.822 152.754 336.666 152.754C335.351 152.754 334.399 153.151 333.81 153.944C333.22 154.715 332.926 155.995 332.926 157.786V167H328.098V149.422ZM357.466 162.852C358.146 162.852 358.747 162.716 359.268 162.444C359.789 162.172 360.22 161.809 360.56 161.356C360.9 160.903 361.149 160.393 361.308 159.826C361.489 159.237 361.58 158.625 361.58 157.99C361.58 157.265 361.512 156.585 361.376 155.95C361.24 155.293 361.013 154.715 360.696 154.216C360.379 153.717 359.959 153.321 359.438 153.026C358.917 152.731 358.259 152.584 357.466 152.584C356.786 152.584 356.197 152.72 355.698 152.992C355.222 153.264 354.814 153.638 354.474 154.114C354.157 154.567 353.919 155.1 353.76 155.712C353.624 156.301 353.556 156.925 353.556 157.582C353.556 158.217 353.613 158.851 353.726 159.486C353.862 160.098 354.077 160.653 354.372 161.152C354.689 161.651 355.097 162.059 355.596 162.376C356.095 162.693 356.718 162.852 357.466 162.852ZM366.17 165.878C366.17 166.581 366.068 167.385 365.864 168.292C365.683 169.199 365.275 170.037 364.64 170.808C364.005 171.601 363.087 172.27 361.886 172.814C360.685 173.358 359.075 173.63 357.058 173.63C356.197 173.63 355.313 173.517 354.406 173.29C353.522 173.086 352.706 172.757 351.958 172.304C351.233 171.851 350.621 171.261 350.122 170.536C349.646 169.833 349.374 168.983 349.306 167.986H354.1C354.327 168.893 354.769 169.516 355.426 169.856C356.083 170.219 356.843 170.4 357.704 170.4C359.064 170.4 360.05 169.992 360.662 169.176C361.297 168.36 361.603 167.329 361.58 166.082V163.77H361.512C360.991 164.699 360.243 165.391 359.268 165.844C358.316 166.275 357.307 166.49 356.242 166.49C354.927 166.49 353.794 166.263 352.842 165.81C351.89 165.334 351.108 164.699 350.496 163.906C349.884 163.09 349.431 162.149 349.136 161.084C348.864 159.996 348.728 158.851 348.728 157.65C348.728 156.517 348.887 155.429 349.204 154.386C349.544 153.321 350.031 152.391 350.666 151.598C351.301 150.782 352.083 150.136 353.012 149.66C353.964 149.184 355.052 148.946 356.276 148.946C357.432 148.946 358.441 149.161 359.302 149.592C360.186 150.023 360.923 150.748 361.512 151.768H361.58V149.422H366.17V165.878ZM210.89 206.246C209.938 207.47 208.884 208.331 207.728 208.83C206.572 209.306 205.405 209.544 204.226 209.544C202.367 209.544 200.69 209.227 199.194 208.592C197.721 207.935 196.474 207.039 195.454 205.906C194.434 204.773 193.652 203.447 193.108 201.928C192.564 200.387 192.292 198.732 192.292 196.964C192.292 195.151 192.564 193.473 193.108 191.932C193.652 190.368 194.434 189.008 195.454 187.852C196.474 186.696 197.721 185.789 199.194 185.132C200.69 184.475 202.367 184.146 204.226 184.146C205.473 184.146 206.674 184.339 207.83 184.724C209.009 185.087 210.063 185.631 210.992 186.356C211.944 187.081 212.726 187.977 213.338 189.042C213.95 190.107 214.324 191.331 214.46 192.714H209.36C209.043 191.354 208.431 190.334 207.524 189.654C206.617 188.974 205.518 188.634 204.226 188.634C203.025 188.634 202.005 188.872 201.166 189.348C200.327 189.801 199.647 190.425 199.126 191.218C198.605 191.989 198.219 192.873 197.97 193.87C197.743 194.867 197.63 195.899 197.63 196.964C197.63 197.984 197.743 198.981 197.97 199.956C198.219 200.908 198.605 201.769 199.126 202.54C199.647 203.311 200.327 203.934 201.166 204.41C202.005 204.863 203.025 205.09 204.226 205.09C205.994 205.09 207.354 204.648 208.306 203.764C209.281 202.857 209.847 201.554 210.006 199.854H204.634V195.876H214.834V209H211.434L210.89 206.246ZM223.939 200.228C223.939 200.931 224.007 201.622 224.143 202.302C224.279 202.959 224.505 203.56 224.823 204.104C225.163 204.625 225.605 205.045 226.149 205.362C226.693 205.679 227.373 205.838 228.189 205.838C229.005 205.838 229.685 205.679 230.229 205.362C230.795 205.045 231.237 204.625 231.555 204.104C231.895 203.56 232.133 202.959 232.269 202.302C232.405 201.622 232.473 200.931 232.473 200.228C232.473 199.525 232.405 198.834 232.269 198.154C232.133 197.474 231.895 196.873 231.555 196.352C231.237 195.831 230.795 195.411 230.229 195.094C229.685 194.754 229.005 194.584 228.189 194.584C227.373 194.584 226.693 194.754 226.149 195.094C225.605 195.411 225.163 195.831 224.823 196.352C224.505 196.873 224.279 197.474 224.143 198.154C224.007 198.834 223.939 199.525 223.939 200.228ZM219.111 200.228C219.111 198.823 219.326 197.553 219.757 196.42C220.187 195.264 220.799 194.289 221.593 193.496C222.386 192.68 223.338 192.057 224.449 191.626C225.559 191.173 226.806 190.946 228.189 190.946C229.571 190.946 230.818 191.173 231.929 191.626C233.062 192.057 234.025 192.68 234.819 193.496C235.612 194.289 236.224 195.264 236.655 196.42C237.085 197.553 237.301 198.823 237.301 200.228C237.301 201.633 237.085 202.903 236.655 204.036C236.224 205.169 235.612 206.144 234.819 206.96C234.025 207.753 233.062 208.365 231.929 208.796C230.818 209.227 229.571 209.442 228.189 209.442C226.806 209.442 225.559 209.227 224.449 208.796C223.338 208.365 222.386 207.753 221.593 206.96C220.799 206.144 220.187 205.169 219.757 204.036C219.326 202.903 219.111 201.633 219.111 200.228ZM251.184 209H245.812L239.794 191.422H244.86L248.566 203.424H248.634L252.34 191.422H257.134L251.184 209ZM271.976 198.324C271.749 197.1 271.341 196.171 270.752 195.536C270.185 194.901 269.313 194.584 268.134 194.584C267.363 194.584 266.717 194.72 266.196 194.992C265.697 195.241 265.289 195.559 264.972 195.944C264.677 196.329 264.462 196.737 264.326 197.168C264.213 197.599 264.145 197.984 264.122 198.324H271.976ZM264.122 201.384C264.19 202.948 264.587 204.081 265.312 204.784C266.037 205.487 267.08 205.838 268.44 205.838C269.415 205.838 270.253 205.6 270.956 205.124C271.659 204.625 272.089 204.104 272.248 203.56H276.498C275.818 205.668 274.775 207.175 273.37 208.082C271.965 208.989 270.265 209.442 268.27 209.442C266.887 209.442 265.641 209.227 264.53 208.796C263.419 208.343 262.479 207.708 261.708 206.892C260.937 206.076 260.337 205.101 259.906 203.968C259.498 202.835 259.294 201.588 259.294 200.228C259.294 198.913 259.509 197.689 259.94 196.556C260.371 195.423 260.983 194.448 261.776 193.632C262.569 192.793 263.51 192.136 264.598 191.66C265.709 191.184 266.933 190.946 268.27 190.946C269.766 190.946 271.069 191.241 272.18 191.83C273.291 192.397 274.197 193.167 274.9 194.142C275.625 195.117 276.147 196.227 276.464 197.474C276.781 198.721 276.895 200.024 276.804 201.384H264.122ZM280.687 191.422H285.277V194.686H285.345C285.572 194.142 285.878 193.643 286.263 193.19C286.649 192.714 287.091 192.317 287.589 192C288.088 191.66 288.621 191.399 289.187 191.218C289.754 191.037 290.343 190.946 290.955 190.946C291.273 190.946 291.624 191.003 292.009 191.116V195.604C291.783 195.559 291.511 195.525 291.193 195.502C290.876 195.457 290.57 195.434 290.275 195.434C289.391 195.434 288.643 195.581 288.031 195.876C287.419 196.171 286.921 196.579 286.535 197.1C286.173 197.599 285.912 198.188 285.753 198.868C285.595 199.548 285.515 200.285 285.515 201.078V209H280.687V191.422ZM295.52 191.422H300.11V193.87H300.212C300.824 192.85 301.617 192.113 302.592 191.66C303.567 191.184 304.564 190.946 305.584 190.946C306.876 190.946 307.93 191.127 308.746 191.49C309.585 191.83 310.242 192.317 310.718 192.952C311.194 193.564 311.523 194.323 311.704 195.23C311.908 196.114 312.01 197.1 312.01 198.188V209H307.182V199.072C307.182 197.621 306.955 196.545 306.502 195.842C306.049 195.117 305.244 194.754 304.088 194.754C302.773 194.754 301.821 195.151 301.232 195.944C300.643 196.715 300.348 197.995 300.348 199.786V209H295.52V191.422ZM316.83 191.422H321.386V193.802H321.454C322.089 192.895 322.848 192.193 323.732 191.694C324.639 191.195 325.67 190.946 326.826 190.946C327.937 190.946 328.946 191.161 329.852 191.592C330.782 192.023 331.484 192.782 331.96 193.87C332.482 193.099 333.184 192.419 334.068 191.83C334.975 191.241 336.04 190.946 337.264 190.946C338.194 190.946 339.055 191.059 339.848 191.286C340.642 191.513 341.322 191.875 341.888 192.374C342.455 192.873 342.897 193.53 343.214 194.346C343.532 195.139 343.69 196.103 343.69 197.236V209H338.862V199.038C338.862 198.449 338.84 197.893 338.794 197.372C338.749 196.851 338.624 196.397 338.42 196.012C338.216 195.627 337.91 195.321 337.502 195.094C337.117 194.867 336.584 194.754 335.904 194.754C335.224 194.754 334.669 194.89 334.238 195.162C333.83 195.411 333.502 195.751 333.252 196.182C333.026 196.59 332.867 197.066 332.776 197.61C332.708 198.131 332.674 198.664 332.674 199.208V209H327.846V199.14C327.846 198.619 327.835 198.109 327.812 197.61C327.79 197.089 327.688 196.613 327.506 196.182C327.348 195.751 327.064 195.411 326.656 195.162C326.271 194.89 325.693 194.754 324.922 194.754C324.696 194.754 324.39 194.811 324.004 194.924C323.642 195.015 323.279 195.207 322.916 195.502C322.576 195.774 322.282 196.182 322.032 196.726C321.783 197.247 321.658 197.939 321.658 198.8V209H316.83V191.422ZM360.359 198.324C360.132 197.1 359.724 196.171 359.135 195.536C358.568 194.901 357.695 194.584 356.517 194.584C355.746 194.584 355.1 194.72 354.579 194.992C354.08 195.241 353.672 195.559 353.355 195.944C353.06 196.329 352.845 196.737 352.709 197.168C352.595 197.599 352.527 197.984 352.505 198.324H360.359ZM352.505 201.384C352.573 202.948 352.969 204.081 353.695 204.784C354.42 205.487 355.463 205.838 356.823 205.838C357.797 205.838 358.636 205.6 359.339 205.124C360.041 204.625 360.472 204.104 360.631 203.56H364.881C364.201 205.668 363.158 207.175 361.753 208.082C360.347 208.989 358.647 209.442 356.653 209.442C355.27 209.442 354.023 209.227 352.913 208.796C351.802 208.343 350.861 207.708 350.091 206.892C349.32 206.076 348.719 205.101 348.289 203.968C347.881 202.835 347.677 201.588 347.677 200.228C347.677 198.913 347.892 197.689 348.323 196.556C348.753 195.423 349.365 194.448 350.159 193.632C350.952 192.793 351.893 192.136 352.981 191.66C354.091 191.184 355.315 190.946 356.653 190.946C358.149 190.946 359.452 191.241 360.563 191.83C361.673 192.397 362.58 193.167 363.283 194.142C364.008 195.117 364.529 196.227 364.847 197.474C365.164 198.721 365.277 200.024 365.187 201.384H352.505ZM369.07 191.422H373.66V193.87H373.762C374.374 192.85 375.168 192.113 376.142 191.66C377.117 191.184 378.114 190.946 379.134 190.946C380.426 190.946 381.48 191.127 382.296 191.49C383.135 191.83 383.792 192.317 384.268 192.952C384.744 193.564 385.073 194.323 385.254 195.23C385.458 196.114 385.56 197.1 385.56 198.188V209H380.732V199.072C380.732 197.621 380.506 196.545 380.052 195.842C379.599 195.117 378.794 194.754 377.638 194.754C376.324 194.754 375.372 195.151 374.782 195.944C374.193 196.715 373.898 197.995 373.898 199.786V209H369.07V191.422ZM396.365 191.422H399.901V194.652H396.365V203.356C396.365 204.172 396.501 204.716 396.773 204.988C397.045 205.26 397.589 205.396 398.405 205.396C398.677 205.396 398.937 205.385 399.187 205.362C399.436 205.339 399.674 205.305 399.901 205.26V209C399.493 209.068 399.039 209.113 398.541 209.136C398.042 209.159 397.555 209.17 397.079 209.17C396.331 209.17 395.617 209.113 394.937 209C394.279 208.909 393.69 208.717 393.169 208.422C392.67 208.127 392.273 207.708 391.979 207.164C391.684 206.62 391.537 205.906 391.537 205.022V194.652H388.613V191.422H391.537V186.152H396.365V191.422ZM198.718 231.212H191.442V226.724H211.332V231.212H204.056V251H198.718V231.212ZM222.688 240.324C222.461 239.1 222.053 238.171 221.464 237.536C220.897 236.901 220.025 236.584 218.846 236.584C218.075 236.584 217.429 236.72 216.908 236.992C216.409 237.241 216.001 237.559 215.684 237.944C215.389 238.329 215.174 238.737 215.038 239.168C214.925 239.599 214.857 239.984 214.834 240.324H222.688ZM214.834 243.384C214.902 244.948 215.299 246.081 216.024 246.784C216.749 247.487 217.792 247.838 219.152 247.838C220.127 247.838 220.965 247.6 221.668 247.124C222.371 246.625 222.801 246.104 222.96 245.56H227.21C226.53 247.668 225.487 249.175 224.082 250.082C222.677 250.989 220.977 251.442 218.982 251.442C217.599 251.442 216.353 251.227 215.242 250.796C214.131 250.343 213.191 249.708 212.42 248.892C211.649 248.076 211.049 247.101 210.618 245.968C210.21 244.835 210.006 243.588 210.006 242.228C210.006 240.913 210.221 239.689 210.652 238.556C211.083 237.423 211.695 236.448 212.488 235.632C213.281 234.793 214.222 234.136 215.31 233.66C216.421 233.184 217.645 232.946 218.982 232.946C220.478 232.946 221.781 233.241 222.892 233.83C224.003 234.397 224.909 235.167 225.612 236.142C226.337 237.117 226.859 238.227 227.176 239.474C227.493 240.721 227.607 242.024 227.516 243.384H214.834ZM243.367 239.61C243.05 237.593 241.86 236.584 239.797 236.584C239.027 236.584 238.381 236.765 237.859 237.128C237.338 237.468 236.907 237.921 236.567 238.488C236.25 239.032 236.023 239.644 235.887 240.324C235.751 240.981 235.683 241.639 235.683 242.296C235.683 242.931 235.751 243.577 235.887 244.234C236.023 244.891 236.239 245.492 236.533 246.036C236.851 246.557 237.27 246.988 237.791 247.328C238.313 247.668 238.947 247.838 239.695 247.838C240.851 247.838 241.735 247.521 242.347 246.886C242.982 246.229 243.379 245.356 243.537 244.268H248.195C247.878 246.603 246.971 248.382 245.475 249.606C243.979 250.83 242.064 251.442 239.729 251.442C238.415 251.442 237.202 251.227 236.091 250.796C235.003 250.343 234.074 249.719 233.303 248.926C232.533 248.133 231.932 247.192 231.501 246.104C231.071 244.993 230.855 243.781 230.855 242.466C230.855 241.106 231.048 239.848 231.433 238.692C231.841 237.513 232.431 236.505 233.201 235.666C233.972 234.805 234.913 234.136 236.023 233.66C237.134 233.184 238.403 232.946 239.831 232.946C240.874 232.946 241.871 233.082 242.823 233.354C243.798 233.626 244.659 234.045 245.407 234.612C246.178 235.156 246.801 235.847 247.277 236.686C247.753 237.502 248.025 238.477 248.093 239.61H243.367ZM251.943 226.724H256.771V235.87H256.873C257.485 234.85 258.267 234.113 259.219 233.66C260.171 233.184 261.1 232.946 262.007 232.946C263.299 232.946 264.353 233.127 265.169 233.49C266.008 233.83 266.665 234.317 267.141 234.952C267.617 235.564 267.946 236.323 268.127 237.23C268.331 238.114 268.433 239.1 268.433 240.188V251H263.605V241.072C263.605 239.621 263.378 238.545 262.925 237.842C262.472 237.117 261.667 236.754 260.511 236.754C259.196 236.754 258.244 237.151 257.655 237.944C257.066 238.715 256.771 239.995 256.771 241.786V251H251.943V226.724ZM273.117 233.422H277.707V235.87H277.809C278.421 234.85 279.215 234.113 280.189 233.66C281.164 233.184 282.161 232.946 283.181 232.946C284.473 232.946 285.527 233.127 286.343 233.49C287.182 233.83 287.839 234.317 288.315 234.952C288.791 235.564 289.12 236.323 289.301 237.23C289.505 238.114 289.607 239.1 289.607 240.188V251H284.779V241.072C284.779 239.621 284.553 238.545 284.099 237.842C283.646 237.117 282.841 236.754 281.685 236.754C280.371 236.754 279.419 237.151 278.829 237.944C278.24 238.715 277.945 239.995 277.945 241.786V251H273.117V233.422ZM298.575 242.228C298.575 242.931 298.643 243.622 298.779 244.302C298.915 244.959 299.142 245.56 299.459 246.104C299.799 246.625 300.241 247.045 300.785 247.362C301.329 247.679 302.009 247.838 302.825 247.838C303.641 247.838 304.321 247.679 304.865 247.362C305.432 247.045 305.874 246.625 306.191 246.104C306.531 245.56 306.769 244.959 306.905 244.302C307.041 243.622 307.109 242.931 307.109 242.228C307.109 241.525 307.041 240.834 306.905 240.154C306.769 239.474 306.531 238.873 306.191 238.352C305.874 237.831 305.432 237.411 304.865 237.094C304.321 236.754 303.641 236.584 302.825 236.584C302.009 236.584 301.329 236.754 300.785 237.094C300.241 237.411 299.799 237.831 299.459 238.352C299.142 238.873 298.915 239.474 298.779 240.154C298.643 240.834 298.575 241.525 298.575 242.228ZM293.747 242.228C293.747 240.823 293.963 239.553 294.393 238.42C294.824 237.264 295.436 236.289 296.229 235.496C297.023 234.68 297.975 234.057 299.085 233.626C300.196 233.173 301.443 232.946 302.825 232.946C304.208 232.946 305.455 233.173 306.565 233.626C307.699 234.057 308.662 234.68 309.455 235.496C310.249 236.289 310.861 237.264 311.291 238.42C311.722 239.553 311.937 240.823 311.937 242.228C311.937 243.633 311.722 244.903 311.291 246.036C310.861 247.169 310.249 248.144 309.455 248.96C308.662 249.753 307.699 250.365 306.565 250.796C305.455 251.227 304.208 251.442 302.825 251.442C301.443 251.442 300.196 251.227 299.085 250.796C297.975 250.365 297.023 249.753 296.229 248.96C295.436 248.144 294.824 247.169 294.393 246.036C293.963 244.903 293.747 243.633 293.747 242.228ZM316.233 226.724H321.061V251H316.233V226.724ZM330.166 242.228C330.166 242.931 330.234 243.622 330.37 244.302C330.506 244.959 330.733 245.56 331.05 246.104C331.39 246.625 331.832 247.045 332.376 247.362C332.92 247.679 333.6 247.838 334.416 247.838C335.232 247.838 335.912 247.679 336.456 247.362C337.023 247.045 337.465 246.625 337.782 246.104C338.122 245.56 338.36 244.959 338.496 244.302C338.632 243.622 338.7 242.931 338.7 242.228C338.7 241.525 338.632 240.834 338.496 240.154C338.36 239.474 338.122 238.873 337.782 238.352C337.465 237.831 337.023 237.411 336.456 237.094C335.912 236.754 335.232 236.584 334.416 236.584C333.6 236.584 332.92 236.754 332.376 237.094C331.832 237.411 331.39 237.831 331.05 238.352C330.733 238.873 330.506 239.474 330.37 240.154C330.234 240.834 330.166 241.525 330.166 242.228ZM325.338 242.228C325.338 240.823 325.554 239.553 325.984 238.42C326.415 237.264 327.027 236.289 327.82 235.496C328.614 234.68 329.566 234.057 330.676 233.626C331.787 233.173 333.034 232.946 334.416 232.946C335.799 232.946 337.046 233.173 338.156 233.626C339.29 234.057 340.253 234.68 341.046 235.496C341.84 236.289 342.452 237.264 342.882 238.42C343.313 239.553 343.528 240.823 343.528 242.228C343.528 243.633 343.313 244.903 342.882 246.036C342.452 247.169 341.84 248.144 341.046 248.96C340.253 249.753 339.29 250.365 338.156 250.796C337.046 251.227 335.799 251.442 334.416 251.442C333.034 251.442 331.787 251.227 330.676 250.796C329.566 250.365 328.614 249.753 327.82 248.96C327.027 248.144 326.415 247.169 325.984 246.036C325.554 244.903 325.338 243.633 325.338 242.228ZM355.881 246.852C356.561 246.852 357.162 246.716 357.683 246.444C358.205 246.172 358.635 245.809 358.975 245.356C359.315 244.903 359.565 244.393 359.723 243.826C359.905 243.237 359.995 242.625 359.995 241.99C359.995 241.265 359.927 240.585 359.791 239.95C359.655 239.293 359.429 238.715 359.111 238.216C358.794 237.717 358.375 237.321 357.853 237.026C357.332 236.731 356.675 236.584 355.881 236.584C355.201 236.584 354.612 236.72 354.113 236.992C353.637 237.264 353.229 237.638 352.889 238.114C352.572 238.567 352.334 239.1 352.175 239.712C352.039 240.301 351.971 240.925 351.971 241.582C351.971 242.217 352.028 242.851 352.141 243.486C352.277 244.098 352.493 244.653 352.787 245.152C353.105 245.651 353.513 246.059 354.011 246.376C354.51 246.693 355.133 246.852 355.881 246.852ZM364.585 249.878C364.585 250.581 364.483 251.385 364.279 252.292C364.098 253.199 363.69 254.037 363.055 254.808C362.421 255.601 361.503 256.27 360.301 256.814C359.1 257.358 357.491 257.63 355.473 257.63C354.612 257.63 353.728 257.517 352.821 257.29C351.937 257.086 351.121 256.757 350.373 256.304C349.648 255.851 349.036 255.261 348.537 254.536C348.061 253.833 347.789 252.983 347.721 251.986H352.515C352.742 252.893 353.184 253.516 353.841 253.856C354.499 254.219 355.258 254.4 356.119 254.4C357.479 254.4 358.465 253.992 359.077 253.176C359.712 252.36 360.018 251.329 359.995 250.082V247.77H359.927C359.406 248.699 358.658 249.391 357.683 249.844C356.731 250.275 355.723 250.49 354.657 250.49C353.343 250.49 352.209 250.263 351.257 249.81C350.305 249.334 349.523 248.699 348.911 247.906C348.299 247.09 347.846 246.149 347.551 245.084C347.279 243.996 347.143 242.851 347.143 241.65C347.143 240.517 347.302 239.429 347.619 238.386C347.959 237.321 348.447 236.391 349.081 235.598C349.716 234.782 350.498 234.136 351.427 233.66C352.379 233.184 353.467 232.946 354.691 232.946C355.847 232.946 356.856 233.161 357.717 233.592C358.601 234.023 359.338 234.748 359.927 235.768H359.995V233.422H364.585V249.878ZM378.163 253.176C377.641 254.604 376.916 255.624 375.987 256.236C375.057 256.848 373.765 257.154 372.111 257.154C371.612 257.154 371.113 257.131 370.615 257.086C370.139 257.063 369.651 257.029 369.153 256.984V253.006C369.606 253.051 370.071 253.097 370.547 253.142C371.023 253.187 371.499 253.199 371.975 253.176C372.609 253.108 373.074 252.859 373.369 252.428C373.686 251.997 373.845 251.521 373.845 251C373.845 250.615 373.777 250.252 373.641 249.912L367.487 233.422H372.621L376.599 245.458H376.667L380.509 233.422H385.507L378.163 253.176Z" fill="#1C304A"/>
<rect x="191" y="279" width="250" height="10" fill="#1C304A"/>
<path d="M192.725 317.15H205.275V320.45H196.65V324.575H204.125V327.625H196.65V335H192.725V317.15ZM215.119 327.15C214.953 326.25 214.653 325.567 214.219 325.1C213.803 324.633 213.161 324.4 212.294 324.4C211.728 324.4 211.253 324.5 210.869 324.7C210.503 324.883 210.203 325.117 209.969 325.4C209.753 325.683 209.594 325.983 209.494 326.3C209.411 326.617 209.361 326.9 209.344 327.15H215.119ZM209.344 329.4C209.394 330.55 209.686 331.383 210.219 331.9C210.753 332.417 211.519 332.675 212.519 332.675C213.236 332.675 213.853 332.5 214.369 332.15C214.886 331.783 215.203 331.4 215.319 331H218.444C217.944 332.55 217.178 333.658 216.144 334.325C215.111 334.992 213.861 335.325 212.394 335.325C211.378 335.325 210.461 335.167 209.644 334.85C208.828 334.517 208.136 334.05 207.569 333.45C207.003 332.85 206.561 332.133 206.244 331.3C205.944 330.467 205.794 329.55 205.794 328.55C205.794 327.583 205.953 326.683 206.269 325.85C206.586 325.017 207.036 324.3 207.619 323.7C208.203 323.083 208.894 322.6 209.694 322.25C210.511 321.9 211.411 321.725 212.394 321.725C213.494 321.725 214.453 321.942 215.269 322.375C216.086 322.792 216.753 323.358 217.269 324.075C217.803 324.792 218.186 325.608 218.419 326.525C218.653 327.442 218.736 328.4 218.669 329.4H209.344ZM229.2 328.5C229.2 327.967 229.15 327.458 229.05 326.975C228.95 326.475 228.775 326.042 228.525 325.675C228.291 325.292 227.983 324.983 227.6 324.75C227.216 324.517 226.733 324.4 226.15 324.4C225.566 324.4 225.075 324.517 224.675 324.75C224.275 324.983 223.95 325.292 223.7 325.675C223.466 326.058 223.291 326.5 223.175 327C223.075 327.483 223.025 327.992 223.025 328.525C223.025 329.025 223.083 329.525 223.2 330.025C223.316 330.525 223.5 330.975 223.75 331.375C224.016 331.758 224.341 332.075 224.725 332.325C225.125 332.558 225.6 332.675 226.15 332.675C226.733 332.675 227.216 332.558 227.6 332.325C228 332.092 228.316 331.783 228.55 331.4C228.783 331 228.95 330.55 229.05 330.05C229.15 329.55 229.2 329.033 229.2 328.5ZM229.25 333.35H229.2C228.783 334.05 228.233 334.558 227.55 334.875C226.883 335.175 226.125 335.325 225.275 335.325C224.308 335.325 223.458 335.142 222.725 334.775C221.991 334.392 221.383 333.883 220.9 333.25C220.433 332.6 220.075 331.858 219.825 331.025C219.591 330.192 219.475 329.325 219.475 328.425C219.475 327.558 219.591 326.725 219.825 325.925C220.075 325.108 220.433 324.392 220.9 323.775C221.383 323.158 221.983 322.667 222.7 322.3C223.416 321.917 224.25 321.725 225.2 321.725C225.966 321.725 226.691 321.892 227.375 322.225C228.075 322.542 228.625 323.017 229.025 323.65H229.075V317.15H232.625V335H229.25V333.35ZM243.258 327.15C243.091 326.25 242.791 325.567 242.358 325.1C241.941 324.633 241.3 324.4 240.433 324.4C239.866 324.4 239.391 324.5 239.008 324.7C238.641 324.883 238.341 325.117 238.108 325.4C237.891 325.683 237.733 325.983 237.633 326.3C237.55 326.617 237.5 326.9 237.483 327.15H243.258ZM237.483 329.4C237.533 330.55 237.825 331.383 238.358 331.9C238.891 332.417 239.658 332.675 240.658 332.675C241.375 332.675 241.991 332.5 242.508 332.15C243.025 331.783 243.341 331.4 243.458 331H246.583C246.083 332.55 245.316 333.658 244.283 334.325C243.25 334.992 242 335.325 240.533 335.325C239.516 335.325 238.6 335.167 237.783 334.85C236.966 334.517 236.275 334.05 235.708 333.45C235.141 332.85 234.7 332.133 234.383 331.3C234.083 330.467 233.933 329.55 233.933 328.55C233.933 327.583 234.091 326.683 234.408 325.85C234.725 325.017 235.175 324.3 235.758 323.7C236.341 323.083 237.033 322.6 237.833 322.25C238.65 321.9 239.55 321.725 240.533 321.725C241.633 321.725 242.591 321.942 243.408 322.375C244.225 322.792 244.891 323.358 245.408 324.075C245.941 324.792 246.325 325.608 246.558 326.525C246.791 327.442 246.875 328.4 246.808 329.4H237.483ZM248.163 322.075H251.538V324.475H251.588C251.755 324.075 251.98 323.708 252.263 323.375C252.547 323.025 252.872 322.733 253.238 322.5C253.605 322.25 253.997 322.058 254.413 321.925C254.83 321.792 255.263 321.725 255.713 321.725C255.947 321.725 256.205 321.767 256.488 321.85V325.15C256.322 325.117 256.122 325.092 255.888 325.075C255.655 325.042 255.43 325.025 255.213 325.025C254.563 325.025 254.013 325.133 253.563 325.35C253.113 325.567 252.747 325.867 252.463 326.25C252.197 326.617 252.005 327.05 251.888 327.55C251.772 328.05 251.713 328.592 251.713 329.175V335H248.163V322.075ZM256.98 326.05C257.03 325.217 257.239 324.525 257.605 323.975C257.972 323.425 258.439 322.983 259.005 322.65C259.572 322.317 260.205 322.083 260.905 321.95C261.622 321.8 262.339 321.725 263.055 321.725C263.705 321.725 264.364 321.775 265.03 321.875C265.697 321.958 266.305 322.133 266.855 322.4C267.405 322.667 267.855 323.042 268.205 323.525C268.555 323.992 268.73 324.617 268.73 325.4V332.125C268.73 332.708 268.764 333.267 268.83 333.8C268.897 334.333 269.014 334.733 269.18 335H265.58C265.514 334.8 265.455 334.6 265.405 334.4C265.372 334.183 265.347 333.967 265.33 333.75C264.764 334.333 264.097 334.742 263.33 334.975C262.564 335.208 261.78 335.325 260.98 335.325C260.364 335.325 259.789 335.25 259.255 335.1C258.722 334.95 258.255 334.717 257.855 334.4C257.455 334.083 257.139 333.683 256.905 333.2C256.689 332.717 256.58 332.142 256.58 331.475C256.58 330.742 256.705 330.142 256.955 329.675C257.222 329.192 257.555 328.808 257.955 328.525C258.372 328.242 258.839 328.033 259.355 327.9C259.889 327.75 260.422 327.633 260.955 327.55C261.489 327.467 262.014 327.4 262.53 327.35C263.047 327.3 263.505 327.225 263.905 327.125C264.305 327.025 264.622 326.883 264.855 326.7C265.089 326.5 265.197 326.217 265.18 325.85C265.18 325.467 265.114 325.167 264.98 324.95C264.864 324.717 264.697 324.542 264.48 324.425C264.28 324.292 264.039 324.208 263.755 324.175C263.489 324.125 263.197 324.1 262.88 324.1C262.18 324.1 261.63 324.25 261.23 324.55C260.83 324.85 260.597 325.35 260.53 326.05H256.98ZM265.18 328.675C265.03 328.808 264.839 328.917 264.605 329C264.389 329.067 264.147 329.125 263.88 329.175C263.63 329.225 263.364 329.267 263.08 329.3C262.797 329.333 262.514 329.375 262.23 329.425C261.964 329.475 261.697 329.542 261.43 329.625C261.18 329.708 260.955 329.825 260.755 329.975C260.572 330.108 260.422 330.283 260.305 330.5C260.189 330.717 260.13 330.992 260.13 331.325C260.13 331.642 260.189 331.908 260.305 332.125C260.422 332.342 260.58 332.517 260.78 332.65C260.98 332.767 261.214 332.85 261.48 332.9C261.747 332.95 262.022 332.975 262.305 332.975C263.005 332.975 263.547 332.858 263.93 332.625C264.314 332.392 264.597 332.117 264.78 331.8C264.964 331.467 265.072 331.133 265.105 330.8C265.155 330.467 265.18 330.2 265.18 330V328.675ZM270.836 317.15H274.386V335H270.836V317.15ZM287.514 328.1H292.139L289.889 321.55H289.839L287.514 328.1ZM287.889 317.15H291.914L298.589 335H294.514L293.164 331.025H286.489L285.089 335H281.139L287.889 317.15ZM305.028 331.95C305.528 331.95 305.97 331.85 306.353 331.65C306.737 331.45 307.053 331.183 307.303 330.85C307.553 330.517 307.737 330.142 307.853 329.725C307.987 329.292 308.053 328.842 308.053 328.375C308.053 327.842 308.003 327.342 307.903 326.875C307.803 326.392 307.637 325.967 307.403 325.6C307.17 325.233 306.862 324.942 306.478 324.725C306.095 324.508 305.612 324.4 305.028 324.4C304.528 324.4 304.095 324.5 303.728 324.7C303.378 324.9 303.078 325.175 302.828 325.525C302.595 325.858 302.42 326.25 302.303 326.7C302.203 327.133 302.153 327.592 302.153 328.075C302.153 328.542 302.195 329.008 302.278 329.475C302.378 329.925 302.537 330.333 302.753 330.7C302.987 331.067 303.287 331.367 303.653 331.6C304.02 331.833 304.478 331.95 305.028 331.95ZM311.428 334.175C311.428 334.692 311.353 335.283 311.203 335.95C311.07 336.617 310.77 337.233 310.303 337.8C309.837 338.383 309.162 338.875 308.278 339.275C307.395 339.675 306.212 339.875 304.728 339.875C304.095 339.875 303.445 339.792 302.778 339.625C302.128 339.475 301.528 339.233 300.978 338.9C300.445 338.567 299.995 338.133 299.628 337.6C299.278 337.083 299.078 336.458 299.028 335.725H302.553C302.72 336.392 303.045 336.85 303.528 337.1C304.012 337.367 304.57 337.5 305.203 337.5C306.203 337.5 306.928 337.2 307.378 336.6C307.845 336 308.07 335.242 308.053 334.325V332.625H308.003C307.62 333.308 307.07 333.817 306.353 334.15C305.653 334.467 304.912 334.625 304.128 334.625C303.162 334.625 302.328 334.458 301.628 334.125C300.928 333.775 300.353 333.308 299.903 332.725C299.453 332.125 299.12 331.433 298.903 330.65C298.703 329.85 298.603 329.008 298.603 328.125C298.603 327.292 298.72 326.492 298.953 325.725C299.203 324.942 299.562 324.258 300.028 323.675C300.495 323.075 301.07 322.6 301.753 322.25C302.453 321.9 303.253 321.725 304.153 321.725C305.003 321.725 305.745 321.883 306.378 322.2C307.028 322.517 307.57 323.05 308.003 323.8H308.053V322.075H311.428V334.175ZM322.237 327.15C322.07 326.25 321.77 325.567 321.337 325.1C320.92 324.633 320.278 324.4 319.412 324.4C318.845 324.4 318.37 324.5 317.987 324.7C317.62 324.883 317.32 325.117 317.087 325.4C316.87 325.683 316.712 325.983 316.612 326.3C316.528 326.617 316.478 326.9 316.462 327.15H322.237ZM316.462 329.4C316.512 330.55 316.803 331.383 317.337 331.9C317.87 332.417 318.637 332.675 319.637 332.675C320.353 332.675 320.97 332.5 321.487 332.15C322.003 331.783 322.32 331.4 322.437 331H325.562C325.062 332.55 324.295 333.658 323.262 334.325C322.228 334.992 320.978 335.325 319.512 335.325C318.495 335.325 317.578 335.167 316.762 334.85C315.945 334.517 315.253 334.05 314.687 333.45C314.12 332.85 313.678 332.133 313.362 331.3C313.062 330.467 312.912 329.55 312.912 328.55C312.912 327.583 313.07 326.683 313.387 325.85C313.703 325.017 314.153 324.3 314.737 323.7C315.32 323.083 316.012 322.6 316.812 322.25C317.628 321.9 318.528 321.725 319.512 321.725C320.612 321.725 321.57 321.942 322.387 322.375C323.203 322.792 323.87 323.358 324.387 324.075C324.92 324.792 325.303 325.608 325.537 326.525C325.77 327.442 325.853 328.4 325.787 329.4H316.462ZM327.142 322.075H330.517V323.875H330.592C331.042 323.125 331.625 322.583 332.342 322.25C333.059 321.9 333.792 321.725 334.542 321.725C335.492 321.725 336.267 321.858 336.867 322.125C337.484 322.375 337.967 322.733 338.317 323.2C338.667 323.65 338.909 324.208 339.042 324.875C339.192 325.525 339.267 326.25 339.267 327.05V335H335.717V327.7C335.717 326.633 335.55 325.842 335.217 325.325C334.884 324.792 334.292 324.525 333.442 324.525C332.475 324.525 331.775 324.817 331.342 325.4C330.909 325.967 330.692 326.908 330.692 328.225V335H327.142V322.075ZM350.011 326.625C349.778 325.142 348.903 324.4 347.386 324.4C346.82 324.4 346.345 324.533 345.961 324.8C345.578 325.05 345.261 325.383 345.011 325.8C344.778 326.2 344.611 326.65 344.511 327.15C344.411 327.633 344.361 328.117 344.361 328.6C344.361 329.067 344.411 329.542 344.511 330.025C344.611 330.508 344.77 330.95 344.986 331.35C345.22 331.733 345.528 332.05 345.911 332.3C346.295 332.55 346.761 332.675 347.311 332.675C348.161 332.675 348.811 332.442 349.261 331.975C349.728 331.492 350.02 330.85 350.136 330.05H353.561C353.328 331.767 352.661 333.075 351.561 333.975C350.461 334.875 349.053 335.325 347.336 335.325C346.37 335.325 345.478 335.167 344.661 334.85C343.861 334.517 343.178 334.058 342.611 333.475C342.045 332.892 341.603 332.2 341.286 331.4C340.97 330.583 340.811 329.692 340.811 328.725C340.811 327.725 340.953 326.8 341.236 325.95C341.536 325.083 341.97 324.342 342.536 323.725C343.103 323.092 343.795 322.6 344.611 322.25C345.428 321.9 346.361 321.725 347.411 321.725C348.178 321.725 348.911 321.825 349.611 322.025C350.328 322.225 350.961 322.533 351.511 322.95C352.078 323.35 352.536 323.858 352.886 324.475C353.236 325.075 353.436 325.792 353.486 326.625H350.011ZM361.192 336.6C360.808 337.65 360.275 338.4 359.592 338.85C358.908 339.3 357.958 339.525 356.742 339.525C356.375 339.525 356.008 339.508 355.642 339.475C355.292 339.458 354.933 339.433 354.567 339.4V336.475C354.9 336.508 355.242 336.542 355.592 336.575C355.942 336.608 356.292 336.617 356.642 336.6C357.108 336.55 357.45 336.367 357.667 336.05C357.9 335.733 358.017 335.383 358.017 335C358.017 334.717 357.967 334.45 357.867 334.2L353.342 322.075H357.117L360.042 330.925H360.092L362.917 322.075H366.592L361.192 336.6ZM192.725 348.15H205.275V351.45H196.65V355.575H204.125V358.625H196.65V366H192.725V348.15ZM210.069 351.075H206.519V348.15H210.069V351.075ZM206.519 353.075H210.069V366H206.519V353.075ZM220.815 358.15C220.648 357.25 220.348 356.567 219.915 356.1C219.498 355.633 218.856 355.4 217.99 355.4C217.423 355.4 216.948 355.5 216.565 355.7C216.198 355.883 215.898 356.117 215.665 356.4C215.448 356.683 215.29 356.983 215.19 357.3C215.106 357.617 215.056 357.9 215.04 358.15H220.815ZM215.04 360.4C215.09 361.55 215.381 362.383 215.915 362.9C216.448 363.417 217.215 363.675 218.215 363.675C218.931 363.675 219.548 363.5 220.065 363.15C220.581 362.783 220.898 362.4 221.015 362H224.14C223.64 363.55 222.873 364.658 221.84 365.325C220.806 365.992 219.556 366.325 218.09 366.325C217.073 366.325 216.156 366.167 215.34 365.85C214.523 365.517 213.831 365.05 213.265 364.45C212.698 363.85 212.256 363.133 211.94 362.3C211.64 361.467 211.49 360.55 211.49 359.55C211.49 358.583 211.648 357.683 211.965 356.85C212.281 356.017 212.731 355.3 213.315 354.7C213.898 354.083 214.59 353.6 215.39 353.25C216.206 352.9 217.106 352.725 218.09 352.725C219.19 352.725 220.148 352.942 220.965 353.375C221.781 353.792 222.448 354.358 222.965 355.075C223.498 355.792 223.881 356.608 224.115 357.525C224.348 358.442 224.431 359.4 224.365 360.4H215.04ZM225.82 348.15H229.37V366H225.82V348.15ZM240.59 359.5C240.59 358.967 240.54 358.458 240.44 357.975C240.34 357.475 240.165 357.042 239.915 356.675C239.682 356.292 239.374 355.983 238.99 355.75C238.607 355.517 238.124 355.4 237.54 355.4C236.957 355.4 236.465 355.517 236.065 355.75C235.665 355.983 235.34 356.292 235.09 356.675C234.857 357.058 234.682 357.5 234.565 358C234.465 358.483 234.415 358.992 234.415 359.525C234.415 360.025 234.474 360.525 234.59 361.025C234.707 361.525 234.89 361.975 235.14 362.375C235.407 362.758 235.732 363.075 236.115 363.325C236.515 363.558 236.99 363.675 237.54 363.675C238.124 363.675 238.607 363.558 238.99 363.325C239.39 363.092 239.707 362.783 239.94 362.4C240.174 362 240.34 361.55 240.44 361.05C240.54 360.55 240.59 360.033 240.59 359.5ZM240.64 364.35H240.59C240.174 365.05 239.624 365.558 238.94 365.875C238.274 366.175 237.515 366.325 236.665 366.325C235.699 366.325 234.849 366.142 234.115 365.775C233.382 365.392 232.774 364.883 232.29 364.25C231.824 363.6 231.465 362.858 231.215 362.025C230.982 361.192 230.865 360.325 230.865 359.425C230.865 358.558 230.982 357.725 231.215 356.925C231.465 356.108 231.824 355.392 232.29 354.775C232.774 354.158 233.374 353.667 234.09 353.3C234.807 352.917 235.64 352.725 236.59 352.725C237.357 352.725 238.082 352.892 238.765 353.225C239.465 353.542 240.015 354.017 240.415 354.65H240.465V348.15H244.015V366H240.64V364.35ZM265.432 363.975C264.732 364.875 263.957 365.508 263.107 365.875C262.257 366.225 261.398 366.4 260.532 366.4C259.165 366.4 257.932 366.167 256.832 365.7C255.748 365.217 254.832 364.558 254.082 363.725C253.332 362.892 252.757 361.917 252.357 360.8C251.957 359.667 251.757 358.45 251.757 357.15C251.757 355.817 251.957 354.583 252.357 353.45C252.757 352.3 253.332 351.3 254.082 350.45C254.832 349.6 255.748 348.933 256.832 348.45C257.932 347.967 259.165 347.725 260.532 347.725C261.448 347.725 262.332 347.867 263.182 348.15C264.048 348.417 264.823 348.817 265.507 349.35C266.207 349.883 266.782 350.542 267.232 351.325C267.682 352.108 267.957 353.008 268.057 354.025H264.307C264.073 353.025 263.623 352.275 262.957 351.775C262.29 351.275 261.482 351.025 260.532 351.025C259.648 351.025 258.898 351.2 258.282 351.55C257.665 351.883 257.165 352.342 256.782 352.925C256.398 353.492 256.115 354.142 255.932 354.875C255.765 355.608 255.682 356.367 255.682 357.15C255.682 357.9 255.765 358.633 255.932 359.35C256.115 360.05 256.398 360.683 256.782 361.25C257.165 361.817 257.665 362.275 258.282 362.625C258.898 362.958 259.648 363.125 260.532 363.125C261.832 363.125 262.832 362.8 263.532 362.15C264.248 361.483 264.665 360.525 264.782 359.275H260.832V356.35H268.332V366H265.832L265.432 363.975ZM282.501 366H279.126V364.2H279.051C278.601 364.95 278.018 365.492 277.301 365.825C276.585 366.158 275.851 366.325 275.101 366.325C274.151 366.325 273.368 366.2 272.751 365.95C272.151 365.7 271.676 365.35 271.326 364.9C270.976 364.433 270.726 363.875 270.576 363.225C270.443 362.558 270.376 361.825 270.376 361.025V353.075H273.926V360.375C273.926 361.442 274.093 362.242 274.426 362.775C274.76 363.292 275.351 363.55 276.201 363.55C277.168 363.55 277.868 363.267 278.301 362.7C278.735 362.117 278.951 361.167 278.951 359.85V353.075H282.501V366ZM288.096 351.075H284.546V348.15H288.096V351.075ZM284.546 353.075H288.096V366H284.546V353.075ZM299.316 359.5C299.316 358.967 299.266 358.458 299.166 357.975C299.066 357.475 298.891 357.042 298.641 356.675C298.408 356.292 298.099 355.983 297.716 355.75C297.333 355.517 296.849 355.4 296.266 355.4C295.683 355.4 295.191 355.517 294.791 355.75C294.391 355.983 294.066 356.292 293.816 356.675C293.583 357.058 293.408 357.5 293.291 358C293.191 358.483 293.141 358.992 293.141 359.525C293.141 360.025 293.199 360.525 293.316 361.025C293.433 361.525 293.616 361.975 293.866 362.375C294.133 362.758 294.458 363.075 294.841 363.325C295.241 363.558 295.716 363.675 296.266 363.675C296.849 363.675 297.333 363.558 297.716 363.325C298.116 363.092 298.433 362.783 298.666 362.4C298.899 362 299.066 361.55 299.166 361.05C299.266 360.55 299.316 360.033 299.316 359.5ZM299.366 364.35H299.316C298.899 365.05 298.349 365.558 297.666 365.875C296.999 366.175 296.241 366.325 295.391 366.325C294.424 366.325 293.574 366.142 292.841 365.775C292.108 365.392 291.499 364.883 291.016 364.25C290.549 363.6 290.191 362.858 289.941 362.025C289.708 361.192 289.591 360.325 289.591 359.425C289.591 358.558 289.708 357.725 289.941 356.925C290.191 356.108 290.549 355.392 291.016 354.775C291.499 354.158 292.099 353.667 292.816 353.3C293.533 352.917 294.366 352.725 295.316 352.725C296.083 352.725 296.808 352.892 297.491 353.225C298.191 353.542 298.741 354.017 299.141 354.65H299.191V348.15H302.741V366H299.366V364.35ZM313.374 358.15C313.208 357.25 312.908 356.567 312.474 356.1C312.058 355.633 311.416 355.4 310.549 355.4C309.983 355.4 309.508 355.5 309.124 355.7C308.758 355.883 308.458 356.117 308.224 356.4C308.008 356.683 307.849 356.983 307.749 357.3C307.666 357.617 307.616 357.9 307.599 358.15H313.374ZM307.599 360.4C307.649 361.55 307.941 362.383 308.474 362.9C309.008 363.417 309.774 363.675 310.774 363.675C311.491 363.675 312.108 363.5 312.624 363.15C313.141 362.783 313.458 362.4 313.574 362H316.699C316.199 363.55 315.433 364.658 314.399 365.325C313.366 365.992 312.116 366.325 310.649 366.325C309.633 366.325 308.716 366.167 307.899 365.85C307.083 365.517 306.391 365.05 305.824 364.45C305.258 363.85 304.816 363.133 304.499 362.3C304.199 361.467 304.049 360.55 304.049 359.55C304.049 358.583 304.208 357.683 304.524 356.85C304.841 356.017 305.291 355.3 305.874 354.7C306.458 354.083 307.149 353.6 307.949 353.25C308.766 352.9 309.666 352.725 310.649 352.725C311.749 352.725 312.708 352.942 313.524 353.375C314.341 353.792 315.008 354.358 315.524 355.075C316.058 355.792 316.441 356.608 316.674 357.525C316.908 358.442 316.991 359.4 316.924 360.4H307.599Z" fill="#1C304A"/>
</g>
<path fill-rule="evenodd" clip-rule="evenodd" d="M7 250C7 384.205 115.795 493 250 493C384.205 493 493 384.205 493 250H481C481 377.578 377.578 481 250 481C122.422 481 19 377.578 19 250H7Z" fill="#B3EFFF"/>
</svg>
