<svg width="55" height="55" viewBox="0 0 55 55" fill="none" xmlns="http://www.w3.org/2000/svg">
<path d="M48.4957 17.3651C49.4926 16.3682 49.9911 15.122 49.9911 13.7928C49.9911 12.4635 49.4926 11.1343 48.4957 10.2205L43.9265 5.65123C42.1819 3.90662 39.1911 3.90662 37.5296 5.65123L8.70187 34.3959C8.53572 34.562 8.45264 34.8112 8.45264 34.9774C8.03726 35.9743 6.87418 38.7989 3.30187 47.9374C2.96956 48.8512 3.13572 49.8482 3.88341 50.5959C4.38187 51.0943 4.96341 51.3435 5.62802 51.3435C5.96033 51.3435 6.20956 51.2605 6.45879 51.1774C15.5973 47.6882 18.5049 46.5251 19.5019 46.1097C19.7511 46.1097 19.9173 46.0266 20.0834 45.8605L48.4957 17.3651ZM11.4434 47.1066L7.37264 43.0359C8.36956 40.6266 9.20033 38.3005 9.78187 36.9712L17.508 44.6974C16.1788 45.2789 13.8526 46.1097 11.4434 47.1066ZM38.9419 7.06354C39.9388 6.06662 41.6003 6.06662 42.5142 7.06354L47.0834 11.6328C47.6649 12.2143 47.9973 12.962 47.9973 13.7928C47.9973 14.6235 47.6649 15.3712 47.0834 15.9528L19.4188 43.7005L16.5942 40.8758L39.3573 18.1128C39.7726 17.6974 39.7726 17.1159 39.3573 16.7005C38.9419 16.2851 38.3603 16.2851 37.9449 16.7005L15.0988 39.3805L10.8619 35.1435L38.9419 7.06354ZM5.7111 49.2666C5.54495 49.3497 5.37879 49.1835 5.29572 49.1005C5.21264 49.0174 5.12956 48.7682 5.12956 48.6851C5.54495 47.6051 6.04341 46.3589 6.54187 45.0297L9.36649 47.8543C8.12033 48.3528 6.87418 48.8512 5.7111 49.2666Z" fill="#1C304A"/>
<path d="M12.6895 26.6695C12.8556 26.8356 13.1049 27.0018 13.4372 27.0018C13.6864 27.0018 13.9356 26.9187 14.1849 26.6695C14.6002 26.2541 14.6002 25.6725 14.1849 25.2572L12.7725 23.8448L14.6833 21.9341C15.0987 21.5187 15.0987 20.9372 14.6833 20.5218C14.2679 20.1064 13.6864 20.1064 13.271 20.5218L11.3602 22.4325L9.20023 20.3556L15.0156 14.5402C15.431 14.1248 15.431 13.5433 15.0156 13.1279C14.6002 12.7125 14.0187 12.7125 13.6033 13.1279L7.78793 18.9433L5.46177 16.6172L15.8464 6.14947L24.5695 14.8725C24.9849 15.2879 25.5664 15.2879 25.9818 14.8725C26.3972 14.4572 26.3972 13.8756 25.9818 13.4602L16.511 3.98946C16.3448 3.82331 16.0956 3.74023 15.8464 3.74023C15.5972 3.74023 15.3479 3.82331 15.0987 4.07254L3.30177 15.8695C2.88639 16.2848 2.88639 16.8664 3.30177 17.2818L12.6895 26.6695Z" fill="#1C304A"/>
<path d="M50.8208 38.3001L41.1008 28.5801C40.6855 28.1647 40.1039 28.1647 39.6885 28.5801C39.2732 28.9955 39.2732 29.577 39.6885 29.9924L48.7439 39.0478L38.2762 49.4324L36.0332 47.1893L41.8485 41.3739C42.2639 40.9586 42.2639 40.377 41.8485 39.9616C41.4332 39.5462 40.8516 39.5462 40.4362 39.9616L34.6208 45.777L32.3778 43.5339L34.2885 41.6232C34.7039 41.2078 34.7039 40.6262 34.2885 40.2109C33.8732 39.7955 33.2916 39.7955 32.8762 40.2109L30.9655 42.0386L29.3039 40.377C28.8885 39.9616 28.307 39.9616 27.8916 40.377C27.4762 40.7924 27.4762 41.3739 27.8916 41.7893L37.6116 51.5093C37.7778 51.6755 38.027 51.8416 38.3593 51.8416C38.6085 51.8416 38.8578 51.7586 39.107 51.5093L50.9039 39.7124C51.0701 39.5462 51.2362 39.297 51.2362 38.9647C51.1532 38.7986 51.0701 38.5493 50.8208 38.3001Z" fill="#1C304A"/>
</svg>
