<svg width="500" height="500" viewBox="0 0 500 500" fill="none" xmlns="http://www.w3.org/2000/svg">
<circle cx="250" cy="250" r="243" fill="#B3EFFF"/>
<mask id="mask0_859_1375" style="mask-type:alpha" maskUnits="userSpaceOnUse" x="7" y="0" width="486" height="493">
<path fill-rule="evenodd" clip-rule="evenodd" d="M493 0H7V250C7 384.205 115.795 493 250 493C384.205 493 493 384.205 493 250V0Z" fill="#D9D9D9"/>
</mask>
<g mask="url(#mask0_859_1375)">
<rect x="42" y="2" width="302" height="162" fill="white" stroke="#00CFFF" stroke-width="8"/>
<path d="M125.644 91.512H130.404C131.175 91.512 131.923 91.3873 132.648 91.138C133.374 90.8887 134.02 90.4807 134.586 89.914C135.153 89.3247 135.606 88.5653 135.946 87.636C136.286 86.7067 136.456 85.5733 136.456 84.236C136.456 83.012 136.332 81.9127 136.082 80.938C135.856 79.9407 135.47 79.0907 134.926 78.388C134.382 77.6853 133.657 77.1527 132.75 76.79C131.866 76.4047 130.767 76.212 129.452 76.212H125.644V91.512ZM120.306 71.724H130.778C132.342 71.724 133.793 71.9733 135.13 72.472C136.49 72.9707 137.658 73.7187 138.632 74.716C139.63 75.7133 140.4 76.96 140.944 78.456C141.511 79.952 141.794 81.7087 141.794 83.726C141.794 85.494 141.568 87.126 141.114 88.622C140.661 90.118 139.97 91.41 139.04 92.498C138.134 93.586 136.989 94.4473 135.606 95.082C134.246 95.694 132.637 96 130.778 96H120.306V71.724ZM150.981 75.702H146.153V71.724H150.981V75.702ZM146.153 78.422H150.981V96H146.153V78.422ZM159.543 90.288C159.543 90.8093 159.645 91.2627 159.849 91.648C160.076 92.0107 160.359 92.3167 160.699 92.566C161.039 92.7927 161.424 92.9627 161.855 93.076C162.308 93.1893 162.773 93.246 163.249 93.246C163.589 93.246 163.94 93.212 164.303 93.144C164.688 93.0533 165.028 92.9287 165.323 92.77C165.64 92.5887 165.901 92.362 166.105 92.09C166.309 91.7953 166.411 91.4327 166.411 91.002C166.411 90.2767 165.924 89.7327 164.949 89.37C163.997 89.0073 162.66 88.6447 160.937 88.282C160.234 88.1233 159.543 87.942 158.863 87.738C158.206 87.5113 157.616 87.228 157.095 86.888C156.574 86.5253 156.154 86.0833 155.837 85.562C155.52 85.018 155.361 84.3607 155.361 83.59C155.361 82.4567 155.576 81.5273 156.007 80.802C156.46 80.0767 157.05 79.51 157.775 79.102C158.5 78.6713 159.316 78.3767 160.223 78.218C161.13 78.0367 162.059 77.946 163.011 77.946C163.963 77.946 164.881 78.0367 165.765 78.218C166.672 78.3993 167.476 78.7053 168.179 79.136C168.882 79.5667 169.46 80.1447 169.913 80.87C170.389 81.5727 170.672 82.468 170.763 83.556H166.173C166.105 82.6267 165.754 82.0033 165.119 81.686C164.484 81.346 163.736 81.176 162.875 81.176C162.603 81.176 162.308 81.1987 161.991 81.244C161.674 81.2667 161.379 81.3347 161.107 81.448C160.858 81.5613 160.642 81.7313 160.461 81.958C160.28 82.162 160.189 82.4453 160.189 82.808C160.189 83.2387 160.348 83.59 160.665 83.862C160.982 84.134 161.39 84.3607 161.889 84.542C162.41 84.7007 163 84.848 163.657 84.984C164.314 85.12 164.983 85.2673 165.663 85.426C166.366 85.5847 167.046 85.7773 167.703 86.004C168.383 86.2307 168.984 86.5367 169.505 86.922C170.026 87.2847 170.446 87.7493 170.763 88.316C171.08 88.86 171.239 89.54 171.239 90.356C171.239 91.512 171.001 92.4867 170.525 93.28C170.072 94.0507 169.471 94.674 168.723 95.15C167.975 95.626 167.114 95.9547 166.139 96.136C165.187 96.34 164.212 96.442 163.215 96.442C162.195 96.442 161.198 96.34 160.223 96.136C159.248 95.932 158.376 95.592 157.605 95.116C156.857 94.64 156.234 94.0167 155.735 93.246C155.259 92.4527 154.998 91.4667 154.953 90.288H159.543ZM187.053 84.61C186.735 82.5927 185.545 81.584 183.483 81.584C182.712 81.584 182.066 81.7653 181.545 82.128C181.023 82.468 180.593 82.9213 180.253 83.488C179.935 84.032 179.709 84.644 179.573 85.324C179.437 85.9813 179.369 86.6387 179.369 87.296C179.369 87.9307 179.437 88.5767 179.573 89.234C179.709 89.8913 179.924 90.492 180.219 91.036C180.536 91.5573 180.955 91.988 181.477 92.328C181.998 92.668 182.633 92.838 183.381 92.838C184.537 92.838 185.421 92.5207 186.033 91.886C186.667 91.2287 187.064 90.356 187.223 89.268H191.881C191.563 91.6027 190.657 93.382 189.161 94.606C187.665 95.83 185.749 96.442 183.415 96.442C182.1 96.442 180.887 96.2267 179.777 95.796C178.689 95.3427 177.759 94.7193 176.989 93.926C176.218 93.1327 175.617 92.192 175.187 91.104C174.756 89.9933 174.541 88.7807 174.541 87.466C174.541 86.106 174.733 84.848 175.119 83.692C175.527 82.5133 176.116 81.5047 176.887 80.666C177.657 79.8047 178.598 79.136 179.709 78.66C180.819 78.184 182.089 77.946 183.517 77.946C184.559 77.946 185.557 78.082 186.509 78.354C187.483 78.626 188.345 79.0453 189.093 79.612C189.863 80.156 190.487 80.8473 190.963 81.686C191.439 82.502 191.711 83.4767 191.779 84.61H187.053ZM199.912 87.228C199.912 87.9307 199.98 88.622 200.116 89.302C200.252 89.9593 200.479 90.56 200.796 91.104C201.136 91.6253 201.578 92.0447 202.122 92.362C202.666 92.6793 203.346 92.838 204.162 92.838C204.978 92.838 205.658 92.6793 206.202 92.362C206.769 92.0447 207.211 91.6253 207.528 91.104C207.868 90.56 208.106 89.9593 208.242 89.302C208.378 88.622 208.446 87.9307 208.446 87.228C208.446 86.5253 208.378 85.834 208.242 85.154C208.106 84.474 207.868 83.8733 207.528 83.352C207.211 82.8307 206.769 82.4113 206.202 82.094C205.658 81.754 204.978 81.584 204.162 81.584C203.346 81.584 202.666 81.754 202.122 82.094C201.578 82.4113 201.136 82.8307 200.796 83.352C200.479 83.8733 200.252 84.474 200.116 85.154C199.98 85.834 199.912 86.5253 199.912 87.228ZM195.084 87.228C195.084 85.8227 195.3 84.5533 195.73 83.42C196.161 82.264 196.773 81.2893 197.566 80.496C198.36 79.68 199.312 79.0567 200.422 78.626C201.533 78.1727 202.78 77.946 204.162 77.946C205.545 77.946 206.792 78.1727 207.902 78.626C209.036 79.0567 209.999 79.68 210.792 80.496C211.586 81.2893 212.198 82.264 212.628 83.42C213.059 84.5533 213.274 85.8227 213.274 87.228C213.274 88.6333 213.059 89.9027 212.628 91.036C212.198 92.1693 211.586 93.144 210.792 93.96C209.999 94.7533 209.036 95.3653 207.902 95.796C206.792 96.2267 205.545 96.442 204.162 96.442C202.78 96.442 201.533 96.2267 200.422 95.796C199.312 95.3653 198.36 94.7533 197.566 93.96C196.773 93.144 196.161 92.1693 195.73 91.036C195.3 89.9027 195.084 88.6333 195.084 87.228ZM227.157 96H221.785L215.767 78.422H220.833L224.539 90.424H224.607L228.313 78.422H233.107L227.157 96ZM247.949 85.324C247.723 84.1 247.315 83.1707 246.725 82.536C246.159 81.9013 245.286 81.584 244.107 81.584C243.337 81.584 242.691 81.72 242.169 81.992C241.671 82.2413 241.263 82.5587 240.945 82.944C240.651 83.3293 240.435 83.7373 240.299 84.168C240.186 84.5987 240.118 84.984 240.095 85.324H247.949ZM240.095 88.384C240.163 89.948 240.56 91.0813 241.285 91.784C242.011 92.4867 243.053 92.838 244.413 92.838C245.388 92.838 246.227 92.6 246.929 92.124C247.632 91.6253 248.063 91.104 248.221 90.56H252.471C251.791 92.668 250.749 94.1753 249.343 95.082C247.938 95.9887 246.238 96.442 244.243 96.442C242.861 96.442 241.614 96.2267 240.503 95.796C239.393 95.3427 238.452 94.708 237.681 93.892C236.911 93.076 236.31 92.1013 235.879 90.968C235.471 89.8347 235.267 88.588 235.267 87.228C235.267 85.9133 235.483 84.6893 235.913 83.556C236.344 82.4227 236.956 81.448 237.749 80.632C238.543 79.7933 239.483 79.136 240.571 78.66C241.682 78.184 242.906 77.946 244.243 77.946C245.739 77.946 247.043 78.2407 248.153 78.83C249.264 79.3967 250.171 80.1673 250.873 81.142C251.599 82.1167 252.12 83.2273 252.437 84.474C252.755 85.7207 252.868 87.024 252.777 88.384H240.095ZM256.661 78.422H261.251V81.686H261.319C261.546 81.142 261.852 80.6433 262.237 80.19C262.622 79.714 263.064 79.3173 263.563 79C264.062 78.66 264.594 78.3993 265.161 78.218C265.728 78.0367 266.317 77.946 266.929 77.946C267.246 77.946 267.598 78.0027 267.983 78.116V82.604C267.756 82.5587 267.484 82.5247 267.167 82.502C266.85 82.4567 266.544 82.434 266.249 82.434C265.365 82.434 264.617 82.5813 264.005 82.876C263.393 83.1707 262.894 83.5787 262.509 84.1C262.146 84.5987 261.886 85.188 261.727 85.868C261.568 86.548 261.489 87.2847 261.489 88.078V96H256.661V78.422Z" fill="#1C304A"/>
<rect x="162" y="325" width="302" height="162" fill="white" stroke="#00CFFF" stroke-width="8"/>
<path d="M258.866 419H252.848L244.994 394.724H250.468L255.874 411.792H255.942L261.416 394.724H266.924L258.866 419ZM267.44 406.828C267.508 405.695 267.792 404.754 268.29 404.006C268.789 403.258 269.424 402.657 270.194 402.204C270.965 401.751 271.826 401.433 272.778 401.252C273.753 401.048 274.728 400.946 275.702 400.946C276.586 400.946 277.482 401.014 278.388 401.15C279.295 401.263 280.122 401.501 280.87 401.864C281.618 402.227 282.23 402.737 282.706 403.394C283.182 404.029 283.42 404.879 283.42 405.944V415.09C283.42 415.883 283.466 416.643 283.556 417.368C283.647 418.093 283.806 418.637 284.032 419H279.136C279.046 418.728 278.966 418.456 278.898 418.184C278.853 417.889 278.819 417.595 278.796 417.3C278.026 418.093 277.119 418.649 276.076 418.966C275.034 419.283 273.968 419.442 272.88 419.442C272.042 419.442 271.26 419.34 270.534 419.136C269.809 418.932 269.174 418.615 268.63 418.184C268.086 417.753 267.656 417.209 267.338 416.552C267.044 415.895 266.896 415.113 266.896 414.206C266.896 413.209 267.066 412.393 267.406 411.758C267.769 411.101 268.222 410.579 268.766 410.194C269.333 409.809 269.968 409.525 270.67 409.344C271.396 409.14 272.121 408.981 272.846 408.868C273.572 408.755 274.286 408.664 274.988 408.596C275.691 408.528 276.314 408.426 276.858 408.29C277.402 408.154 277.833 407.961 278.15 407.712C278.468 407.44 278.615 407.055 278.592 406.556C278.592 406.035 278.502 405.627 278.32 405.332C278.162 405.015 277.935 404.777 277.64 404.618C277.368 404.437 277.04 404.323 276.654 404.278C276.292 404.21 275.895 404.176 275.464 404.176C274.512 404.176 273.764 404.38 273.22 404.788C272.676 405.196 272.359 405.876 272.268 406.828H267.44ZM278.592 410.398C278.388 410.579 278.128 410.727 277.81 410.84C277.516 410.931 277.187 411.01 276.824 411.078C276.484 411.146 276.122 411.203 275.736 411.248C275.351 411.293 274.966 411.35 274.58 411.418C274.218 411.486 273.855 411.577 273.492 411.69C273.152 411.803 272.846 411.962 272.574 412.166C272.325 412.347 272.121 412.585 271.962 412.88C271.804 413.175 271.724 413.549 271.724 414.002C271.724 414.433 271.804 414.795 271.962 415.09C272.121 415.385 272.336 415.623 272.608 415.804C272.88 415.963 273.198 416.076 273.56 416.144C273.923 416.212 274.297 416.246 274.682 416.246C275.634 416.246 276.371 416.087 276.892 415.77C277.414 415.453 277.799 415.079 278.048 414.648C278.298 414.195 278.445 413.741 278.49 413.288C278.558 412.835 278.592 412.472 278.592 412.2V410.398ZM288.324 394.724H293.152V419H288.324V394.724ZM302.937 398.702H298.109V394.724H302.937V398.702ZM298.109 401.422H302.937V419H298.109V401.422ZM320.237 410.16C320.237 409.435 320.169 408.743 320.033 408.086C319.897 407.406 319.659 406.817 319.319 406.318C319.002 405.797 318.582 405.377 318.061 405.06C317.54 404.743 316.882 404.584 316.089 404.584C315.296 404.584 314.627 404.743 314.083 405.06C313.539 405.377 313.097 405.797 312.757 406.318C312.44 406.839 312.202 407.44 312.043 408.12C311.907 408.777 311.839 409.469 311.839 410.194C311.839 410.874 311.918 411.554 312.077 412.234C312.236 412.914 312.485 413.526 312.825 414.07C313.188 414.591 313.63 415.022 314.151 415.362C314.695 415.679 315.341 415.838 316.089 415.838C316.882 415.838 317.54 415.679 318.061 415.362C318.605 415.045 319.036 414.625 319.353 414.104C319.67 413.56 319.897 412.948 320.033 412.268C320.169 411.588 320.237 410.885 320.237 410.16ZM320.305 416.756H320.237C319.67 417.708 318.922 418.399 317.993 418.83C317.086 419.238 316.055 419.442 314.899 419.442C313.584 419.442 312.428 419.193 311.431 418.694C310.434 418.173 309.606 417.481 308.949 416.62C308.314 415.736 307.827 414.727 307.487 413.594C307.17 412.461 307.011 411.282 307.011 410.058C307.011 408.879 307.17 407.746 307.487 406.658C307.827 405.547 308.314 404.573 308.949 403.734C309.606 402.895 310.422 402.227 311.397 401.728C312.372 401.207 313.505 400.946 314.797 400.946C315.84 400.946 316.826 401.173 317.755 401.626C318.707 402.057 319.455 402.703 319.999 403.564H320.067V394.724H324.895V419H320.305V416.756ZM329.36 406.828C329.428 405.695 329.712 404.754 330.21 404.006C330.709 403.258 331.344 402.657 332.114 402.204C332.885 401.751 333.746 401.433 334.698 401.252C335.673 401.048 336.648 400.946 337.622 400.946C338.506 400.946 339.402 401.014 340.308 401.15C341.215 401.263 342.042 401.501 342.79 401.864C343.538 402.227 344.15 402.737 344.626 403.394C345.102 404.029 345.34 404.879 345.34 405.944V415.09C345.34 415.883 345.386 416.643 345.476 417.368C345.567 418.093 345.726 418.637 345.952 419H341.056C340.966 418.728 340.886 418.456 340.818 418.184C340.773 417.889 340.739 417.595 340.716 417.3C339.946 418.093 339.039 418.649 337.996 418.966C336.954 419.283 335.888 419.442 334.8 419.442C333.962 419.442 333.18 419.34 332.454 419.136C331.729 418.932 331.094 418.615 330.55 418.184C330.006 417.753 329.576 417.209 329.258 416.552C328.964 415.895 328.816 415.113 328.816 414.206C328.816 413.209 328.986 412.393 329.326 411.758C329.689 411.101 330.142 410.579 330.686 410.194C331.253 409.809 331.888 409.525 332.59 409.344C333.316 409.14 334.041 408.981 334.766 408.868C335.492 408.755 336.206 408.664 336.908 408.596C337.611 408.528 338.234 408.426 338.778 408.29C339.322 408.154 339.753 407.961 340.07 407.712C340.388 407.44 340.535 407.055 340.512 406.556C340.512 406.035 340.422 405.627 340.24 405.332C340.082 405.015 339.855 404.777 339.56 404.618C339.288 404.437 338.96 404.323 338.574 404.278C338.212 404.21 337.815 404.176 337.384 404.176C336.432 404.176 335.684 404.38 335.14 404.788C334.596 405.196 334.279 405.876 334.188 406.828H329.36ZM340.512 410.398C340.308 410.579 340.048 410.727 339.73 410.84C339.436 410.931 339.107 411.01 338.744 411.078C338.404 411.146 338.042 411.203 337.656 411.248C337.271 411.293 336.886 411.35 336.5 411.418C336.138 411.486 335.775 411.577 335.412 411.69C335.072 411.803 334.766 411.962 334.494 412.166C334.245 412.347 334.041 412.585 333.882 412.88C333.724 413.175 333.644 413.549 333.644 414.002C333.644 414.433 333.724 414.795 333.882 415.09C334.041 415.385 334.256 415.623 334.528 415.804C334.8 415.963 335.118 416.076 335.48 416.144C335.843 416.212 336.217 416.246 336.602 416.246C337.554 416.246 338.291 416.087 338.812 415.77C339.334 415.453 339.719 415.079 339.968 414.648C340.218 414.195 340.365 413.741 340.41 413.288C340.478 412.835 340.512 412.472 340.512 412.2V410.398ZM356.228 401.422H359.764V404.652H356.228V413.356C356.228 414.172 356.364 414.716 356.636 414.988C356.908 415.26 357.452 415.396 358.268 415.396C358.54 415.396 358.8 415.385 359.05 415.362C359.299 415.339 359.537 415.305 359.764 415.26V419C359.356 419.068 358.902 419.113 358.404 419.136C357.905 419.159 357.418 419.17 356.942 419.17C356.194 419.17 355.48 419.113 354.8 419C354.142 418.909 353.553 418.717 353.032 418.422C352.533 418.127 352.136 417.708 351.842 417.164C351.547 416.62 351.4 415.906 351.4 415.022V404.652H348.476V401.422H351.4V396.152H356.228V401.422ZM374.913 408.324C374.686 407.1 374.278 406.171 373.689 405.536C373.122 404.901 372.249 404.584 371.071 404.584C370.3 404.584 369.654 404.72 369.133 404.992C368.634 405.241 368.226 405.559 367.909 405.944C367.614 406.329 367.399 406.737 367.263 407.168C367.149 407.599 367.081 407.984 367.059 408.324H374.913ZM367.059 411.384C367.127 412.948 367.523 414.081 368.249 414.784C368.974 415.487 370.017 415.838 371.377 415.838C372.351 415.838 373.19 415.6 373.893 415.124C374.595 414.625 375.026 414.104 375.185 413.56H379.435C378.755 415.668 377.712 417.175 376.307 418.082C374.901 418.989 373.201 419.442 371.207 419.442C369.824 419.442 368.577 419.227 367.467 418.796C366.356 418.343 365.415 417.708 364.645 416.892C363.874 416.076 363.273 415.101 362.843 413.968C362.435 412.835 362.231 411.588 362.231 410.228C362.231 408.913 362.446 407.689 362.877 406.556C363.307 405.423 363.919 404.448 364.713 403.632C365.506 402.793 366.447 402.136 367.535 401.66C368.645 401.184 369.869 400.946 371.207 400.946C372.703 400.946 374.006 401.241 375.117 401.83C376.227 402.397 377.134 403.167 377.837 404.142C378.562 405.117 379.083 406.227 379.401 407.474C379.718 408.721 379.831 410.024 379.741 411.384H367.059Z" fill="#1C304A"/>
<rect x="37" y="218" width="302" height="162" fill="white" stroke="#005EA2" stroke-width="8"/>
<path d="M144.108 287.724H151.622L157.3 304.418H157.368L162.74 287.724H170.254V312H165.256V294.796H165.188L159.238 312H155.124L149.174 294.966H149.106V312H144.108V287.724ZM175.26 299.828C175.328 298.695 175.611 297.754 176.11 297.006C176.608 296.258 177.243 295.657 178.014 295.204C178.784 294.751 179.646 294.433 180.598 294.252C181.572 294.048 182.547 293.946 183.522 293.946C184.406 293.946 185.301 294.014 186.208 294.15C187.114 294.263 187.942 294.501 188.69 294.864C189.438 295.227 190.05 295.737 190.526 296.394C191.002 297.029 191.24 297.879 191.24 298.944V308.09C191.24 308.883 191.285 309.643 191.376 310.368C191.466 311.093 191.625 311.637 191.852 312H186.956C186.865 311.728 186.786 311.456 186.718 311.184C186.672 310.889 186.638 310.595 186.616 310.3C185.845 311.093 184.938 311.649 183.896 311.966C182.853 312.283 181.788 312.442 180.7 312.442C179.861 312.442 179.079 312.34 178.354 312.136C177.628 311.932 176.994 311.615 176.45 311.184C175.906 310.753 175.475 310.209 175.158 309.552C174.863 308.895 174.716 308.113 174.716 307.206C174.716 306.209 174.886 305.393 175.226 304.758C175.588 304.101 176.042 303.579 176.586 303.194C177.152 302.809 177.787 302.525 178.49 302.344C179.215 302.14 179.94 301.981 180.666 301.868C181.391 301.755 182.105 301.664 182.808 301.596C183.51 301.528 184.134 301.426 184.678 301.29C185.222 301.154 185.652 300.961 185.97 300.712C186.287 300.44 186.434 300.055 186.412 299.556C186.412 299.035 186.321 298.627 186.14 298.332C185.981 298.015 185.754 297.777 185.46 297.618C185.188 297.437 184.859 297.323 184.474 297.278C184.111 297.21 183.714 297.176 183.284 297.176C182.332 297.176 181.584 297.38 181.04 297.788C180.496 298.196 180.178 298.876 180.088 299.828H175.26ZM186.412 303.398C186.208 303.579 185.947 303.727 185.63 303.84C185.335 303.931 185.006 304.01 184.644 304.078C184.304 304.146 183.941 304.203 183.556 304.248C183.17 304.293 182.785 304.35 182.4 304.418C182.037 304.486 181.674 304.577 181.312 304.69C180.972 304.803 180.666 304.962 180.394 305.166C180.144 305.347 179.94 305.585 179.782 305.88C179.623 306.175 179.544 306.549 179.544 307.002C179.544 307.433 179.623 307.795 179.782 308.09C179.94 308.385 180.156 308.623 180.428 308.804C180.7 308.963 181.017 309.076 181.38 309.144C181.742 309.212 182.116 309.246 182.502 309.246C183.454 309.246 184.19 309.087 184.712 308.77C185.233 308.453 185.618 308.079 185.868 307.648C186.117 307.195 186.264 306.741 186.31 306.288C186.378 305.835 186.412 305.472 186.412 305.2V303.398ZM196.449 287.724H201.277V300.746L207.363 294.422H213.075L206.445 300.882L213.823 312H207.975L203.147 304.146L201.277 305.948V312H196.449V287.724ZM228.383 301.324C228.156 300.1 227.748 299.171 227.159 298.536C226.592 297.901 225.719 297.584 224.541 297.584C223.77 297.584 223.124 297.72 222.603 297.992C222.104 298.241 221.696 298.559 221.379 298.944C221.084 299.329 220.869 299.737 220.733 300.168C220.619 300.599 220.551 300.984 220.529 301.324H228.383ZM220.529 304.384C220.597 305.948 220.993 307.081 221.719 307.784C222.444 308.487 223.487 308.838 224.847 308.838C225.821 308.838 226.66 308.6 227.363 308.124C228.065 307.625 228.496 307.104 228.655 306.56H232.905C232.225 308.668 231.182 310.175 229.777 311.082C228.371 311.989 226.671 312.442 224.677 312.442C223.294 312.442 222.047 312.227 220.937 311.796C219.826 311.343 218.885 310.708 218.115 309.892C217.344 309.076 216.743 308.101 216.313 306.968C215.905 305.835 215.701 304.588 215.701 303.228C215.701 301.913 215.916 300.689 216.347 299.556C216.777 298.423 217.389 297.448 218.183 296.632C218.976 295.793 219.917 295.136 221.005 294.66C222.115 294.184 223.339 293.946 224.677 293.946C226.173 293.946 227.476 294.241 228.587 294.83C229.697 295.397 230.604 296.167 231.307 297.142C232.032 298.117 232.553 299.227 232.871 300.474C233.188 301.721 233.301 303.024 233.211 304.384H220.529Z" fill="#1C304A"/>
<rect x="161" y="111" width="302" height="162" fill="white" stroke="#1C304A" stroke-width="8"/>
<path d="M260.473 200.512H265.233C266.004 200.512 266.752 200.387 267.477 200.138C268.202 199.889 268.848 199.481 269.415 198.914C269.982 198.325 270.435 197.565 270.775 196.636C271.115 195.707 271.285 194.573 271.285 193.236C271.285 192.012 271.16 190.913 270.911 189.938C270.684 188.941 270.299 188.091 269.755 187.388C269.211 186.685 268.486 186.153 267.579 185.79C266.695 185.405 265.596 185.212 264.281 185.212H260.473V200.512ZM255.135 180.724H265.607C267.171 180.724 268.622 180.973 269.959 181.472C271.319 181.971 272.486 182.719 273.461 183.716C274.458 184.713 275.229 185.96 275.773 187.456C276.34 188.952 276.623 190.709 276.623 192.726C276.623 194.494 276.396 196.126 275.943 197.622C275.49 199.118 274.798 200.41 273.869 201.498C272.962 202.586 271.818 203.447 270.435 204.082C269.075 204.694 267.466 205 265.607 205H255.135V180.724ZM292.678 194.324C292.451 193.1 292.043 192.171 291.454 191.536C290.887 190.901 290.015 190.584 288.836 190.584C288.065 190.584 287.419 190.72 286.898 190.992C286.399 191.241 285.991 191.559 285.674 191.944C285.379 192.329 285.164 192.737 285.028 193.168C284.915 193.599 284.847 193.984 284.824 194.324H292.678ZM284.824 197.384C284.892 198.948 285.289 200.081 286.014 200.784C286.739 201.487 287.782 201.838 289.142 201.838C290.117 201.838 290.955 201.6 291.658 201.124C292.361 200.625 292.791 200.104 292.95 199.56H297.2C296.52 201.668 295.477 203.175 294.072 204.082C292.667 204.989 290.967 205.442 288.972 205.442C287.589 205.442 286.343 205.227 285.232 204.796C284.121 204.343 283.181 203.708 282.41 202.892C281.639 202.076 281.039 201.101 280.608 199.968C280.2 198.835 279.996 197.588 279.996 196.228C279.996 194.913 280.211 193.689 280.642 192.556C281.073 191.423 281.685 190.448 282.478 189.632C283.271 188.793 284.212 188.136 285.3 187.66C286.411 187.184 287.635 186.946 288.972 186.946C290.468 186.946 291.771 187.241 292.882 187.83C293.993 188.397 294.899 189.167 295.602 190.142C296.327 191.117 296.849 192.227 297.166 193.474C297.483 194.721 297.597 196.024 297.506 197.384H284.824ZM313.357 193.61C313.04 191.593 311.85 190.584 309.787 190.584C309.017 190.584 308.371 190.765 307.849 191.128C307.328 191.468 306.897 191.921 306.557 192.488C306.24 193.032 306.013 193.644 305.877 194.324C305.741 194.981 305.673 195.639 305.673 196.296C305.673 196.931 305.741 197.577 305.877 198.234C306.013 198.891 306.229 199.492 306.523 200.036C306.841 200.557 307.26 200.988 307.781 201.328C308.303 201.668 308.937 201.838 309.685 201.838C310.841 201.838 311.725 201.521 312.337 200.886C312.972 200.229 313.369 199.356 313.527 198.268H318.185C317.868 200.603 316.961 202.382 315.465 203.606C313.969 204.83 312.054 205.442 309.719 205.442C308.405 205.442 307.192 205.227 306.081 204.796C304.993 204.343 304.064 203.719 303.293 202.926C302.523 202.133 301.922 201.192 301.491 200.104C301.061 198.993 300.845 197.781 300.845 196.466C300.845 195.106 301.038 193.848 301.423 192.692C301.831 191.513 302.421 190.505 303.191 189.666C303.962 188.805 304.903 188.136 306.013 187.66C307.124 187.184 308.393 186.946 309.821 186.946C310.864 186.946 311.861 187.082 312.813 187.354C313.788 187.626 314.649 188.045 315.397 188.612C316.168 189.156 316.791 189.847 317.267 190.686C317.743 191.502 318.015 192.477 318.083 193.61H313.357ZM326.897 184.702H322.069V180.724H326.897V184.702ZM322.069 187.422H326.897V205H322.069V187.422ZM344.197 196.16C344.197 195.435 344.129 194.743 343.993 194.086C343.857 193.406 343.619 192.817 343.279 192.318C342.961 191.797 342.542 191.377 342.021 191.06C341.499 190.743 340.842 190.584 340.049 190.584C339.255 190.584 338.587 190.743 338.043 191.06C337.499 191.377 337.057 191.797 336.717 192.318C336.399 192.839 336.161 193.44 336.003 194.12C335.867 194.777 335.799 195.469 335.799 196.194C335.799 196.874 335.878 197.554 336.037 198.234C336.195 198.914 336.445 199.526 336.785 200.07C337.147 200.591 337.589 201.022 338.111 201.362C338.655 201.679 339.301 201.838 340.049 201.838C340.842 201.838 341.499 201.679 342.021 201.362C342.565 201.045 342.995 200.625 343.313 200.104C343.63 199.56 343.857 198.948 343.993 198.268C344.129 197.588 344.197 196.885 344.197 196.16ZM344.265 202.756H344.197C343.63 203.708 342.882 204.399 341.953 204.83C341.046 205.238 340.015 205.442 338.859 205.442C337.544 205.442 336.388 205.193 335.391 204.694C334.393 204.173 333.566 203.481 332.909 202.62C332.274 201.736 331.787 200.727 331.447 199.594C331.129 198.461 330.971 197.282 330.971 196.058C330.971 194.879 331.129 193.746 331.447 192.658C331.787 191.547 332.274 190.573 332.909 189.734C333.566 188.895 334.382 188.227 335.357 187.728C336.331 187.207 337.465 186.946 338.757 186.946C339.799 186.946 340.785 187.173 341.715 187.626C342.667 188.057 343.415 188.703 343.959 189.564H344.027V180.724H348.855V205H344.265V202.756ZM365.356 194.324C365.129 193.1 364.721 192.171 364.132 191.536C363.565 190.901 362.692 190.584 361.514 190.584C360.743 190.584 360.097 190.72 359.576 190.992C359.077 191.241 358.669 191.559 358.352 191.944C358.057 192.329 357.842 192.737 357.706 193.168C357.592 193.599 357.524 193.984 357.502 194.324H365.356ZM357.502 197.384C357.57 198.948 357.966 200.081 358.692 200.784C359.417 201.487 360.46 201.838 361.82 201.838C362.794 201.838 363.633 201.6 364.336 201.124C365.038 200.625 365.469 200.104 365.628 199.56H369.878C369.198 201.668 368.155 203.175 366.75 204.082C365.344 204.989 363.644 205.442 361.65 205.442C360.267 205.442 359.02 205.227 357.91 204.796C356.799 204.343 355.858 203.708 355.088 202.892C354.317 202.076 353.716 201.101 353.286 199.968C352.878 198.835 352.674 197.588 352.674 196.228C352.674 194.913 352.889 193.689 353.32 192.556C353.75 191.423 354.362 190.448 355.156 189.632C355.949 188.793 356.89 188.136 357.978 187.66C359.088 187.184 360.312 186.946 361.65 186.946C363.146 186.946 364.449 187.241 365.56 187.83C366.67 188.397 367.577 189.167 368.28 190.142C369.005 191.117 369.526 192.227 369.844 193.474C370.161 194.721 370.274 196.024 370.184 197.384H357.502Z" fill="#1C304A"/>
</g>
<path fill-rule="evenodd" clip-rule="evenodd" d="M7 250C7 384.205 115.795 493 250 493C384.205 493 493 384.205 493 250H481C481 377.578 377.578 481 250 481C122.422 481 19 377.578 19 250H7Z" fill="#B3EFFF"/>
</svg>
