<?xml version="1.0" encoding="utf-8"?>
<!-- Generator: Adobe Illustrator 19.2.1, SVG Export Plug-In . SVG Version: 6.00 Build 0)  -->
<svg version="1.1" id="Layer_1" xmlns="http://www.w3.org/2000/svg" xmlns:xlink="http://www.w3.org/1999/xlink" x="0px" y="0px"
	 viewBox="0 0 65 65" style="enable-background:new 0 0 65 65;" xml:space="preserve">
<style type="text/css">
	.st0{fill:#00CFFF;}
</style>
<g>
	<path class="st0" d="M58.3,20.3c1.2-1.2,1.8-2.7,1.8-4.3c0-1.6-0.6-3.2-1.8-4.3l-5.5-5.5c-2.1-2.1-5.7-2.1-7.7,0L10.4,40.8
		c-0.2,0.2-0.3,0.5-0.3,0.7c-0.5,1.2-1.9,4.6-6.2,15.6c-0.4,1.1-0.2,2.3,0.7,3.2c0.6,0.6,1.3,0.9,2.1,0.9c0.4,0,0.7-0.1,1-0.2
		c11-4.2,14.5-5.6,15.7-6.1c0.3,0,0.5-0.1,0.7-0.3L58.3,20.3z M13.7,56.1l-4.9-4.9c1.2-2.9,2.2-5.7,2.9-7.3l9.3,9.3
		C19.4,53.9,16.6,54.9,13.7,56.1z M46.8,7.9c1.2-1.2,3.2-1.2,4.3,0l5.5,5.5c0.7,0.7,1.1,1.6,1.1,2.6c0,1-0.4,1.9-1.1,2.6L23.3,52
		l-3.4-3.4l27.4-27.4c0.5-0.5,0.5-1.2,0-1.7c-0.5-0.5-1.2-0.5-1.7,0L18.1,46.8L13,41.7L46.8,7.9z M6.8,58.7
		c-0.2,0.1-0.4-0.1-0.5-0.2c-0.1-0.1-0.2-0.4-0.2-0.5c0.5-1.3,1.1-2.8,1.7-4.4l3.4,3.4C9.7,57.6,8.2,58.2,6.8,58.7z"/>
	<path class="st0" d="M15.2,31.5c0.2,0.2,0.5,0.4,0.9,0.4c0.3,0,0.6-0.1,0.9-0.4c0.5-0.5,0.5-1.2,0-1.7l-1.7-1.7l2.3-2.3
		c0.5-0.5,0.5-1.2,0-1.7c-0.5-0.5-1.2-0.5-1.7,0l-2.3,2.3L11,23.9l7-7c0.5-0.5,0.5-1.2,0-1.7c-0.5-0.5-1.2-0.5-1.7,0l-7,7l-2.8-2.8
		L19,6.8l10.5,10.5c0.5,0.5,1.2,0.5,1.7,0c0.5-0.5,0.5-1.2,0-1.7L19.8,4.2C19.6,4,19.3,3.9,19,3.9c-0.3,0-0.6,0.1-0.9,0.4L3.9,18.5
		c-0.5,0.5-0.5,1.2,0,1.7L15.2,31.5z"/>
	<path class="st0" d="M61.1,45.5L49.4,33.8c-0.5-0.5-1.2-0.5-1.7,0s-0.5,1.2,0,1.7l10.9,10.9L46,58.9l-2.7-2.7l7-7
		c0.5-0.5,0.5-1.2,0-1.7c-0.5-0.5-1.2-0.5-1.7,0l-7,7l-2.7-2.7l2.3-2.3c0.5-0.5,0.5-1.2,0-1.7c-0.5-0.5-1.2-0.5-1.7,0L37.2,50l-2-2
		c-0.5-0.5-1.2-0.5-1.7,0c-0.5,0.5-0.5,1.2,0,1.7l11.7,11.7c0.2,0.2,0.5,0.4,0.9,0.4c0.3,0,0.6-0.1,0.9-0.4l14.2-14.2
		c0.2-0.2,0.4-0.5,0.4-0.9C61.5,46.1,61.4,45.8,61.1,45.5z"/>
</g>
</svg>
