<svg width="56" height="55" viewBox="0 0 56 55" fill="none" xmlns="http://www.w3.org/2000/svg">
<path d="M34.3325 26.0615C33.994 25.6384 33.3171 25.5538 32.894 25.9769C32.4709 26.3153 32.3863 26.9923 32.8094 27.4153L37.6325 33L32.8094 38.5846C32.4709 39.0077 32.4709 39.6846 32.894 40.023C33.0632 40.1923 33.3171 40.2769 33.5709 40.2769C33.8248 40.2769 34.1632 40.1923 34.3325 39.9384L39.7479 33.6769C40.0863 33.2538 40.0863 32.6615 39.7479 32.323L34.3325 26.0615Z" fill="#1C304A"/>
<path d="M22.4866 25.9771C22.0635 25.6386 21.3866 25.6386 21.0481 26.0617L15.6328 32.3232C15.2943 32.7463 15.2943 33.3386 15.6328 33.6771L21.0481 39.9386C21.2174 40.1924 21.5558 40.2771 21.8097 40.2771C22.0635 40.2771 22.3174 40.1924 22.4866 40.0232C22.9097 39.6848 22.9943 39.0078 22.5712 38.5848L17.6635 33.0001L22.4866 27.4155C22.9097 26.9924 22.9097 26.3155 22.4866 25.9771Z" fill="#1C304A"/>
<path d="M31.8781 20.3078C31.3704 20.1386 30.7781 20.3924 30.5243 20.9847L22.9089 43.9155C22.7397 44.4232 22.9935 45.0155 23.5858 45.2694C23.6704 45.2694 23.8397 45.354 23.9243 45.354C24.3474 45.354 24.7704 45.1001 24.9397 44.677L32.555 21.7463C32.7243 21.0694 32.3858 20.477 31.8781 20.3078Z" fill="#1C304A"/>
<path d="M45.5017 10.4077L38.6479 3.63849C38.3094 3.30003 37.8864 2.87695 36.9556 2.87695H11.571C10.1325 2.87695 8.86328 4.06157 8.86328 5.58465V50.0923C8.86328 51.6154 10.0479 52.8 11.571 52.8H43.6402C45.1633 52.8 46.3479 51.6154 46.3479 50.0923V12.1846C46.2633 11.3385 45.8402 10.8308 45.5017 10.4077ZM43.3017 11.1693H37.971V5.92311L43.3017 11.1693ZM43.5556 50.6846H11.4864C11.1479 50.6846 10.8941 50.4308 10.8941 50.0923V5.58465C10.8941 5.24618 11.1479 4.90772 11.4864 4.90772H35.8556V12.1846C35.8556 12.777 36.2787 13.2 36.871 13.2H44.1479V50.0077C44.2325 50.4308 43.8941 50.6846 43.5556 50.6846Z" fill="#1C304A"/>
</svg>
