<svg width="64" height="64" viewBox="0 0 64 64" fill="none" xmlns="http://www.w3.org/2000/svg">
<path d="M32 0C49.6731 0 64 14.3269 64 32C64 49.6731 49.6731 64 32 64C14.3269 64 0 49.6731 0 32C0 14.3269 14.3269 0 32 0ZM32 2.78261C15.8637 2.78261 2.78261 15.8637 2.78261 32C2.78261 48.1363 15.8637 61.2174 32 61.2174C48.1363 61.2174 61.2174 48.1363 61.2174 32C61.2174 15.8637 48.1363 2.78261 32 2.78261ZM33.3913 25.0435C33.7755 25.0435 34.087 25.3549 34.087 25.7391V56.3478C34.087 56.732 33.7755 57.0435 33.3913 57.0435H30.6087C30.2245 57.0435 29.913 56.732 29.913 56.3478V25.7391C29.913 25.3549 30.2245 25.0435 30.6087 25.0435H33.3913ZM41.0435 25.0435C41.4277 25.0435 41.7391 25.3549 41.7391 25.7391V51.7407C41.7391 51.9024 41.6828 52.059 41.5798 52.1837L38.7972 55.5521C38.665 55.7121 38.4684 55.8047 38.2609 55.8047C37.8767 55.8047 37.5652 55.4933 37.5652 55.1091V25.7391C37.5652 25.3549 37.8767 25.0435 38.2609 25.0435H41.0435ZM25.7391 25.0435C26.1233 25.0435 26.4348 25.3549 26.4348 25.7391V55.1091C26.4348 55.4933 26.1233 55.8047 25.7391 55.8047C25.5316 55.8047 25.335 55.7121 25.2028 55.5521L22.4202 52.1837C22.3172 52.059 22.2609 51.9024 22.2609 51.7407V25.7391C22.2609 25.3549 22.5723 25.0435 22.9565 25.0435H25.7391ZM18.7826 25.0435C19.1668 25.0435 19.4783 25.3549 19.4783 25.7391V49.7988C19.4783 50.183 19.1668 50.4945 18.7826 50.4945C18.5981 50.4945 18.4212 50.4212 18.2907 50.2907L15.5081 47.5081C15.3776 47.3776 15.3043 47.2007 15.3043 47.0162V25.7391C15.3043 25.3549 15.6158 25.0435 16 25.0435H18.7826ZM48 25.0435C48.3842 25.0435 48.6957 25.3549 48.6957 25.7391V47.0162C48.6957 47.2007 48.6224 47.3776 48.4919 47.5081L45.7093 50.2907C45.5788 50.4212 45.4019 50.4945 45.2174 50.4945C44.8332 50.4945 44.5217 50.183 44.5217 49.7988V25.7391C44.5217 25.3549 44.8332 25.0435 45.2174 25.0435H48ZM46.4615 14.2177L47.1383 15.5696L48.6622 15.7901C49.7545 15.9475 50.2184 17.2365 49.5381 18.0522L49.4274 18.1708L48.3376 19.2148L48.5944 20.6891C48.7827 21.7715 47.7102 22.6129 46.7235 22.2264L46.5833 22.1627L45.2169 21.4534L43.8515 22.1627C42.8761 22.6684 41.7506 21.8992 41.8219 20.8419L41.8404 20.6891L42.0962 19.2148L41.0074 18.1708C40.2113 17.4064 40.5853 16.0885 41.6135 15.822L41.7726 15.7901L43.2955 15.5696L43.9733 14.2177C44.4863 13.1931 45.9485 13.1931 46.4615 14.2177ZM21.418 14.2177L22.0948 15.5696L23.6187 15.7901C24.711 15.9475 25.1749 17.2365 24.4946 18.0522L24.3839 18.1708L23.2941 19.2148L23.5509 20.6891C23.7392 21.7715 22.6667 22.6129 21.68 22.2264L21.5398 22.1627L20.1735 21.4534L18.808 22.1627C17.8326 22.6684 16.7072 21.8992 16.7785 20.8419L16.7969 20.6891L17.0528 19.2148L15.9639 18.1708C15.1679 17.4064 15.5419 16.0885 16.57 15.822L16.7291 15.7901L18.2521 15.5696L18.9299 14.2177C19.4428 13.1931 20.905 13.1931 21.418 14.2177ZM33.9397 7.26113L35.0465 9.47293L37.5318 9.83071C38.6241 9.9881 39.088 11.2771 38.4076 12.0928L38.2969 12.2114L36.5115 13.9237L36.9325 16.3412C37.1208 17.4237 36.0482 18.2651 35.0616 17.8786L34.9214 17.8149L32.6952 16.659L30.4699 17.8149C29.4945 18.3206 28.3691 17.5514 28.4404 16.4941L28.4589 16.3412L28.8788 13.9237L27.0944 12.2114C26.2983 11.447 26.6723 10.1291 27.7005 9.8626L27.8595 9.83071L30.3439 9.47293L31.4516 7.26113C31.9646 6.23663 33.4267 6.23663 33.9397 7.26113Z" fill="#B3EFFF"/>
</svg>
