<?xml version="1.0" encoding="utf-8"?>
<!-- Generator: Adobe Illustrator 19.2.1, SVG Export Plug-In . SVG Version: 6.00 Build 0)  -->
<svg version="1.1" id="Layer_1" xmlns="http://www.w3.org/2000/svg" xmlns:xlink="http://www.w3.org/1999/xlink" x="0px" y="0px"
	 viewBox="0 0 65 65" style="enable-background:new 0 0 65 65;" xml:space="preserve">
<style type="text/css">
	.st0{fill:#00CFFF;}
</style>
<g>
	<path class="st0" d="M40.5,30.8c-0.4-0.5-1.2-0.6-1.7-0.1c-0.5,0.4-0.6,1.2-0.1,1.7l5.7,6.6l-5.7,6.6c-0.4,0.5-0.4,1.3,0.1,1.7
		c0.2,0.2,0.5,0.3,0.8,0.3c0.3,0,0.7-0.1,0.9-0.4l6.4-7.4c0.4-0.5,0.4-1.2,0-1.6L40.5,30.8z"/>
	<path class="st0" d="M26.5,30.7c-0.5-0.4-1.3-0.4-1.7,0.1l-6.4,7.4c-0.4,0.5-0.4,1.2,0,1.6l6.4,7.4c0.2,0.3,0.6,0.4,0.9,0.4
		c0.3,0,0.6-0.1,0.8-0.3c0.5-0.4,0.6-1.2,0.1-1.7L20.8,39l5.7-6.6C27,31.9,27,31.1,26.5,30.7z"/>
	<path class="st0" d="M37.6,24c-0.6-0.2-1.3,0.1-1.6,0.8l-9,27.1c-0.2,0.6,0.1,1.3,0.8,1.6c0.1,0,0.3,0.1,0.4,0.1
		c0.5,0,1-0.3,1.2-0.8l9-27.1C38.6,24.9,38.2,24.2,37.6,24z"/>
	<path class="st0" d="M53.7,12.3l-8.1-8c-0.4-0.4-0.9-0.9-2-0.9h-30c-1.7,0-3.2,1.4-3.2,3.2v52.6c0,1.8,1.4,3.2,3.2,3.2h37.9
		c1.8,0,3.2-1.4,3.2-3.2V14.4C54.6,13.4,54.1,12.8,53.7,12.3z M51.1,13.2h-6.3V7L51.1,13.2z M51.4,59.9H13.5c-0.4,0-0.7-0.3-0.7-0.7
		V6.6c0-0.4,0.3-0.8,0.7-0.8l28.8,0v8.6c0,0.7,0.5,1.2,1.2,1.2h8.6v43.5C52.2,59.6,51.8,59.9,51.4,59.9z"/>
</g>
</svg>
