<?xml version="1.0" encoding="utf-8"?>
<!-- Generator: Adobe Illustrator 19.2.1, SVG Export Plug-In . SVG Version: 6.00 Build 0)  -->
<svg version="1.1" id="Layer_1" xmlns="http://www.w3.org/2000/svg" xmlns:xlink="http://www.w3.org/1999/xlink" x="0px" y="0px"
	 viewBox="0 0 65 65" style="enable-background:new 0 0 65 65;" xml:space="preserve">
<style type="text/css">
	.st0{fill:#00CFFF;}
</style>
<g>
	<path class="st0" d="M26.3,56.8c-9.7-4.1-15.7-14.3-15-24.9l4.4,4.5c0.3,0.3,0.6,0.4,1,0.4c0.4,0,0.7-0.1,1-0.4
		c0.6-0.5,0.6-1.4,0-2l-6.5-6.6c0,0-0.1-0.1-0.1-0.1c-0.1-0.1-0.1-0.1-0.2-0.2c-0.1,0-0.2-0.1-0.3-0.1c0,0-0.1,0-0.1-0.1
		c0,0-0.1,0-0.1,0c-0.1,0-0.2,0-0.3,0c-0.1,0-0.2,0-0.3,0.1c-0.1,0-0.1,0.1-0.2,0.1c-0.1,0.1-0.2,0.1-0.3,0.2c0,0-0.1,0-0.1,0.1
		l-6.6,6.5c-0.6,0.5-0.6,1.4,0,2c0.5,0.6,1.4,0.6,2,0l3.9-3.8C8,44.1,14.6,55,25.2,59.4c0.2,0.1,0.4,0.1,0.5,0.1
		c0.6,0,1.1-0.3,1.3-0.9C27.3,58,27,57.1,26.3,56.8z"/>
	<path class="st0" d="M63.7,30.6c-0.1-0.8-0.8-1.3-1.6-1.2c-0.8,0.1-1.3,0.8-1.2,1.6c1.3,10.4-4.5,20.7-14,25.5l1.7-6
		c0.2-0.8-0.2-1.5-1-1.7c-0.7-0.2-1.5,0.2-1.7,1l-2.4,8.9c0,0,0,0.1,0,0.1c0,0.1,0,0.2,0,0.3c0,0.1,0,0.2,0,0.3c0,0.1,0,0.1,0,0.2
		c0,0,0,0,0,0.1c0.1,0.2,0.2,0.4,0.5,0.6c0,0,0.1,0,0.1,0.1c0.1,0.1,0.2,0.1,0.3,0.2l9,2.5c0.1,0,0.3,0,0.4,0c0.6,0,1.2-0.4,1.4-1
		c0.2-0.8-0.2-1.5-1-1.7l-5.2-1.4C59,53.2,65.1,42,63.7,30.6z"/>
	<path class="st0" d="M44.3,17l8.9-2.4c0,0,0.1,0,0.1-0.1c0.1,0,0.1-0.1,0.2-0.1c0.1-0.1,0.2-0.1,0.3-0.2c0,0,0.1,0,0.1-0.1
		c0,0,0-0.1,0.1-0.1c0.1-0.1,0.1-0.2,0.1-0.3c0-0.1,0.1-0.2,0.1-0.2c0-0.1,0-0.2,0-0.3c0-0.1,0-0.2,0-0.3c0,0,0-0.1,0-0.1l-2.4-9
		c-0.2-0.8-1-1.2-1.7-1c-0.8,0.2-1.2,1-1,1.7l1.4,5.2c-9.9-6-22.6-5.5-31.7,1.5c-0.6,0.5-0.7,1.4-0.2,2c0.5,0.6,1.4,0.7,2,0.2
		c8.3-6.5,20.1-6.7,29.1-1l-6,1.6c-0.8,0.2-1.2,1-1,1.7c0.2,0.6,0.7,1,1.4,1C44.1,17.1,44.2,17.1,44.3,17z"/>
</g>
</svg>
