<?xml version="1.0" encoding="utf-8"?>
<!-- Generator: Adobe Illustrator 19.2.1, SVG Export Plug-In . SVG Version: 6.00 Build 0)  -->
<svg version="1.1" id="Layer_1" xmlns="http://www.w3.org/2000/svg" xmlns:xlink="http://www.w3.org/1999/xlink" x="0px" y="0px"
	 viewBox="0 0 65 65" style="enable-background:new 0 0 65 65;" xml:space="preserve">
<style type="text/css">
	.st0{fill:#00CFFF;}
</style>
<g>
	<path class="st0" d="M41.4,52.4c-4.1-1.6-5.2-2.4-5.5-2.5v-0.1c0.5-0.6,0.9-1.4,1.2-2.2c0.4-0.4,0.7-0.9,0.7-1.5
		c0.1-0.6,0-1.2-0.3-1.7v-1.7c0-3-1.9-4.8-5.1-4.8c-3.1,0-5.1,1.8-5.1,4.8v1.7c-0.3,0.5-0.4,1.1-0.3,1.7c0.1,0.6,0.3,1.1,0.7,1.5
		c0.3,0.9,0.7,1.6,1.2,2.2v0c-0.4,0.3-1.6,1.1-5.5,2.6c-0.7,0.3-1.2,1-1.2,1.8v2.3c0,1.1,0.9,1.9,1.9,1.9h16.5c1,0,1.9-0.9,1.9-1.9
		v-2.3C42.6,53.4,42.1,52.7,41.4,52.4z M40.1,55.8H24.9v-1.2c5.1-2,6.3-3,6.6-4c0-0.1,0.1-0.2,0.1-0.4v-0.9c0-0.3-0.1-0.6-0.4-0.9
		c-0.5-0.5-0.8-1.1-1-1.9c-0.1-0.3-0.3-0.8-0.5-1c0.2-0.2,0.3-0.5,0.3-0.8v-2c0-1.5,0.8-2.3,2.5-2.3c1.7,0,2.5,0.7,2.5,2.3v2
		c0,0.3,0.1,0.9,0.3,1.1c-0.2,0.2-0.4,0.4-0.5,0.7c-0.2,0.8-0.6,1.5-1,1.9c-0.2,0.2-0.4,0.6-0.4,0.9v0.9c0,0.1,0,0.3,0.1,0.4
		c0.3,0.8,1,1.8,6.6,4V55.8z"/>
	<path class="st0" d="M61.8,24.4c-4.1-1.6-5.2-2.4-5.5-2.5v-0.1c0.5-0.6,0.9-1.4,1.2-2.2c0.4-0.4,0.7-0.9,0.7-1.5
		c0.1-0.6,0-1.2-0.3-1.7v-1.7c0-3-1.9-4.8-5.1-4.8c-3.1,0-5.1,1.8-5.1,4.8v1.7c-0.3,0.5-0.4,1.1-0.3,1.7c0.1,0.6,0.3,1.1,0.7,1.5
		c0.3,0.8,0.7,1.6,1.2,2.2v0c-0.4,0.3-1.6,1.1-5.5,2.6c-0.7,0.3-1.2,1-1.2,1.8v2.3c0,1.1,0.9,1.9,1.9,1.9h16.5c1,0,1.9-0.9,1.9-1.9
		v-2.3C63,25.4,62.5,24.7,61.8,24.4z M60.4,27.9H45.2v-1.2c5.1-2,6.3-3,6.6-4c0-0.1,0.1-0.2,0.1-0.4v-0.9c0-0.3-0.1-0.6-0.4-0.9
		c-0.4-0.5-0.8-1.1-1-1.9c-0.1-0.3-0.3-0.8-0.5-1c0.2-0.2,0.3-0.5,0.3-0.8v-2c0-1.5,0.8-2.3,2.5-2.3c1.7,0,2.5,0.7,2.5,2.3v2
		c0,0.3,0.1,0.9,0.3,1.1c-0.2,0.2-0.4,0.4-0.5,0.7c-0.2,0.8-0.6,1.5-1,1.9c-0.2,0.2-0.4,0.6-0.4,0.9v0.9c0,0.1,0,0.3,0.1,0.4
		c0.3,1,1.5,2,6.6,4V27.9z"/>
	<path class="st0" d="M21.1,24.4c-4.1-1.6-5.2-2.4-5.5-2.5v-0.1c0.5-0.6,0.9-1.4,1.2-2.2c0.4-0.4,0.7-0.9,0.7-1.5
		c0.1-0.6,0-1.2-0.3-1.7v-1.7c0-3-1.9-4.8-5.1-4.8c-3.1,0-5.1,1.8-5.1,4.8v1.7c-0.3,0.5-0.4,1.1-0.3,1.7c0.1,0.6,0.3,1.1,0.7,1.5
		c0.3,0.8,0.7,1.6,1.2,2.2v0c-0.4,0.3-1.6,1.1-5.5,2.6c-0.7,0.3-1.2,1-1.2,1.8v2.3c0,1.1,0.9,1.9,1.9,1.9h16.5c1,0,1.9-0.9,1.9-1.9
		v-2.3C22.3,25.4,21.8,24.7,21.1,24.4z M19.8,27.9H4.6v-1.2c5.1-2,6.3-3,6.6-4c0-0.1,0.1-0.2,0.1-0.4v-0.9c0-0.3-0.1-0.6-0.4-0.9
		c-0.4-0.5-0.8-1.1-1-1.9c-0.1-0.3-0.3-0.8-0.5-1c0.2-0.2,0.3-0.5,0.3-0.8v-2c0-1.5,0.8-2.3,2.5-2.3c1.7,0,2.5,0.7,2.5,2.3v2
		c0,0.3,0.1,0.9,0.3,1.1c-0.2,0.2-0.4,0.4-0.5,0.7c-0.2,0.8-0.6,1.5-1,1.9c-0.2,0.2-0.4,0.6-0.4,0.9v0.9c0,0.1,0,0.3,0.1,0.4
		c0.3,1,1.5,2,6.6,4V27.9z"/>
	<path class="st0" d="M22.4,12.6c6.3-3.7,14.5-3.7,20.8,0c0.2,0.1,0.4,0.2,0.6,0.2c0.4,0,0.9-0.2,1.1-0.6c0.4-0.6,0.1-1.4-0.5-1.7
		c-7.1-4.1-16.3-4.1-23.4,0c-0.6,0.4-0.8,1.1-0.5,1.7C21,12.8,21.8,13,22.4,12.6z"/>
	<path class="st0" d="M54.8,31.8c-0.7-0.1-1.3,0.4-1.4,1.1c-0.7,6.1-4,11.5-9.2,14.9c-0.4,0.2-0.6,0.6-0.6,1.1
		c0,0.2,0.1,0.5,0.2,0.7c0.2,0.4,0.6,0.6,1.1,0.6c0.2,0,0.5-0.1,0.7-0.2c5.8-3.8,9.5-9.9,10.3-16.7c0,0,0-0.1,0-0.1
		C55.9,32.4,55.4,31.9,54.8,31.8z"/>
	<path class="st0" d="M12.2,32.9c-0.1-0.7-0.7-1.2-1.4-1.1c-0.6,0.1-1.1,0.6-1.1,1.3c0,0,0,0.1,0,0.1C10.5,40,14.2,46.1,20,49.9
		c0.2,0.1,0.5,0.2,0.7,0.2c0.4,0,0.8-0.2,1.1-0.6c0.1-0.2,0.2-0.5,0.2-0.7c0-0.4-0.2-0.8-0.6-1.1C16.3,44.4,12.9,39,12.2,32.9z"/>
</g>
</svg>
