<svg width="59" height="64" viewBox="0 0 59 64" fill="none" xmlns="http://www.w3.org/2000/svg">
<g clip-path="url(#clip0_179_7086)">
<path d="M36.5238 0C37.2996 0 37.9286 0.622908 37.9286 1.3913V6.95652C37.9286 7.72492 37.2996 8.34783 36.5238 8.34783H32.3095V9.856L32.422 9.86845C40.0051 10.7572 46.3329 16.1441 48.445 23.4684L48.4952 23.6522H51.9761C52.6965 23.6521 53.2903 24.1892 53.3715 24.8812L53.381 25.0435V29.2174C53.381 29.9858 52.752 30.6087 51.9762 30.6087H51.2738V40.3478H53.381C54.1014 40.3478 54.6951 40.8849 54.7763 41.5769L54.7857 41.7391V45.913H57.5952C58.3157 45.913 58.9094 46.4501 58.9905 47.1421L59 47.3043V62.6087C59 63.3771 58.3711 64 57.5952 64H1.40476C0.628933 64 0 63.3771 0 62.6087V47.3043C0 46.536 0.628933 45.913 1.40476 45.913H4.21429V41.7391C4.21429 41.0256 4.75658 40.4376 5.45522 40.3572L5.61905 40.3478H9.13095V30.6087H8.42857C7.70816 30.6087 7.11441 30.0716 7.03326 29.3796L7.02381 29.2174V25.0435C7.02381 24.275 7.65281 23.6521 8.42868 23.6522H11.9082L11.9598 23.4684C13.9501 16.5667 19.6836 11.3852 26.6834 10.0667L26.6905 10.0647V1.3913C26.6905 0.677794 27.2328 0.0897291 27.9314 0.00936027L28.0952 0H36.5238ZM30.2024 12.5217C22.5452 12.5217 15.9767 17.9071 14.3852 25.3327C14.2474 25.9755 13.6744 26.4352 13.0109 26.4351L9.83333 26.4334V27.8261H10.5357C11.2561 27.8261 11.8499 28.3632 11.931 29.0551L11.9405 29.2174V41.7391C11.9405 42.5075 11.3115 43.1304 10.5357 43.1304H7.02381V47.3043C7.02381 48.0179 6.48151 48.6059 5.78287 48.6863L5.61905 48.6957H2.80952V61.2174H56.1905V48.6957H53.381C52.6605 48.6957 52.0668 48.1586 51.9856 47.4666L51.9762 47.3043V43.1304H49.869C49.1486 43.1304 48.5549 42.5933 48.4737 41.9014L48.4643 41.7391V29.2174C48.4643 28.449 49.0932 27.8261 49.869 27.8261H50.5714V26.4334L47.3938 26.4351C46.7857 26.4352 46.2535 26.0489 46.0629 25.4894L46.0196 25.3327C44.4281 17.9071 37.8596 12.5217 30.2024 12.5217ZM44.25 27.8261C45.0258 27.8261 45.6548 28.449 45.6548 29.2174V41.7391C45.6548 42.5075 45.0258 43.1304 44.25 43.1304H38.631C37.8551 43.1304 37.2262 42.5075 37.2262 41.7391V29.2174C37.2262 28.449 37.8551 27.8261 38.631 27.8261H44.25ZM33.0119 27.8261C33.7877 27.8261 34.4167 28.449 34.4167 29.2174V41.7391C34.4167 42.5075 33.7877 43.1304 33.0119 43.1304H27.3929C26.617 43.1304 25.9881 42.5075 25.9881 41.7391V29.2174C25.9881 28.449 26.617 27.8261 27.3929 27.8261H33.0119ZM21.7738 27.8261C22.5496 27.8261 23.1786 28.449 23.1786 29.2174V41.7391C23.1786 42.5075 22.5496 43.1304 21.7738 43.1304H16.1548C15.3789 43.1304 14.75 42.5075 14.75 41.7391V29.2174C14.75 28.449 15.3789 27.8261 16.1548 27.8261H21.7738ZM42.8452 30.6087H40.0357V40.3478H42.8452V30.6087ZM31.6071 30.6087H28.7976V40.3478H31.6071V30.6087ZM20.369 30.6087H17.5595V40.3478H20.369V30.6087ZM35.119 2.78261H29.5V6.95652L29.5095 6.79427C29.5844 6.15554 30.096 5.64876 30.7409 5.57458L30.9048 5.56522H35.119V2.78261Z" fill="#B3EFFF"/>
</g>
<defs>
<clipPath id="clip0_179_7086">
<rect width="59" height="64" fill="white"/>
</clipPath>
</defs>
</svg>
