<?xml version="1.0" encoding="UTF-8"?>
<svg width="56px" height="53px" viewBox="0 0 56 53" version="1.1" xmlns="http://www.w3.org/2000/svg" xmlns:xlink="http://www.w3.org/1999/xlink">
    <!-- Generator: Sketch 61.1 (89650) - https://sketch.com -->
    <title>svg/bright/user-interviews--c</title>
    <desc>Created with Sketch.</desc>
    <g id="**-Sticker-Sheets" stroke="none" stroke-width="1" fill="none" fill-rule="evenodd" stroke-linecap="round" stroke-linejoin="round">
        <g id="sticker-sheet--all--page-6" transform="translate(-713.000000, -2737.000000)" stroke="#00CFFF" stroke-width="2">
            <g id="icon-preview-row-copy-25" transform="translate(0.000000, 2719.000000)">
                <g id="Icon-Row--Large-icon">
                    <g id="user-interviews--c" transform="translate(709.000000, 11.000000)">
                        <path d="M5,20.2777995 C4.99507046,22.1842722 5.44049654,24.0649601 6.30003909,25.7666797 C8.37865039,29.9257021 12.6282738,32.5537587 17.2777995,32.5555578 C19.1842722,32.5605285 21.0649601,32.1151024 22.7666797,31.2555599 L31,34 L28.2555599,25.7666797 C29.1151024,24.0649601 29.5605285,22.1842722 29.5555578,20.2777995 C29.5537587,15.6282738 26.9257021,11.3786504 22.7666797,9.30003909 C21.0649601,8.44049654 19.1842722,7.99507046 17.2777995,8 L16.5555784,8 C10.3216413,8.34396238 5.34396238,13.3216413 5,19.5555784 L5,20.2777995 L5,20.2777995 Z M22,17 L13,17 M22,23 L13,23 M59,59 L59,55 C59,50.581722 55.5302068,47 51.25,47 L35.75,47 C31.4697932,47 28,50.581722 28,55 L28,59 M43.5,41 C47.6421356,41 51,37.418278 51,33 C51,28.581722 47.6421356,25 43.5,25 C39.3578644,25 36,28.581722 36,33 C36,37.418278 39.3578644,41 43.5,41 Z"></path>
                    </g>
                </g>
            </g>
        </g>
    </g>
</svg>