<?xml version="1.0" encoding="utf-8"?>
<!-- Generator: Adobe Illustrator 24.1.0, SVG Export Plug-In . SVG Version: 6.00 Build 0)  -->
<svg version="1.1" id="Layer_1" xmlns="http://www.w3.org/2000/svg" xmlns:xlink="http://www.w3.org/1999/xlink" x="0px" y="0px"
	 viewBox="0 0 66 66" style="enable-background:new 0 0 66 66;" xml:space="preserve">
<style type="text/css">
	.st0{fill:none;stroke:#00CFFF;stroke-width:2;stroke-linecap:round;stroke-linejoin:round;}
</style>
<desc>Created with Sketch.</desc>
<g id="_x2A__x2A_-Sticker-Sheets">
	<g id="sticker-sheet--all--page-6" transform="translate(-713.000000, -2907.000000)">
		<g id="icon-preview-row-copy-27" transform="translate(0.000000, 2889.000000)">
			<g id="Icon-Row--Large-icon">
				<g id="user-interviews-love--c" transform="translate(709.000000, 11.000000)">
					<path class="st0" d="M5,24.3c0,2.2,0.5,4.5,1.6,6.5c2.4,4.9,7.5,8,13,8c2.2,0,4.5-0.5,6.5-1.6l9.8,3.3l-3.3-9.8
						c1.1-2,1.6-4.3,1.6-6.5c0-5.5-3.1-10.6-8-13c-2-1.1-4.3-1.6-6.5-1.6h-0.9C11.3,10.2,5.4,16.1,5,23.5V24.3L5,24.3z M69,70.3
						v-4.8c0-5.2-4.1-9.5-9.2-9.5H41.5c-5,0-9.2,4.3-9.2,9.5v4.8 M50.6,48.9c4.9,0,8.9-4.3,8.9-9.5s-4-9.5-8.9-9.5s-8.9,4.3-8.9,9.5
						S45.7,48.9,50.6,48.9z M24.2,20.2c-0.6-0.6-1.4-1-2.2-1s-1.6,0.3-2.2,1l-0.6,0.6l-0.6-0.6c-1.3-1.3-3.2-1.3-4.4,0
						c-1.3,1.3-1.3,3.3,0,4.6l0.6,0.6l4.4,4.6l4.4-4.6l0.6-0.6c0.6-0.6,0.9-1.5,0.9-2.2C25.2,21.7,24.8,20.8,24.2,20.2z"/>
				</g>
			</g>
		</g>
	</g>
</g>
</svg>
