<svg width="57" height="53" viewBox="0 0 57 53" fill="none" xmlns="http://www.w3.org/2000/svg">
<g clip-path="url(#clip0_503_1808)">
<path d="M55.0625 52V48C55.0625 43.5818 51.5927 40 47.3125 40H31.8125C27.5323 40 24.0625 43.5818 24.0625 48V52M1.06254 13.2778C1.05761 15.1843 1.50304 17.065 2.36258 18.7667C4.44119 22.9257 8.69081 25.5538 13.3403 25.5556C15.2468 25.5606 17.1275 25.1151 18.8292 24.2556L27.0625 27L24.3181 18.7667C25.1776 17.065 25.6231 15.1843 25.6181 13.2778C25.6163 8.62831 22.9882 4.37869 18.8292 2.30008C17.1275 1.44054 15.2468 0.995111 13.3403 1.00004H12.6181C6.38418 1.344 1.4065 6.32168 1.06254 12.5556V13.2778ZM39.5625 34C43.7047 34 47.0625 30.4183 47.0625 26C47.0625 21.5818 43.7047 18 39.5625 18C35.4204 18 32.0625 21.5818 32.0625 26C32.0625 30.4183 35.4204 34 39.5625 34ZM17.2914 9.79571C16.798 9.28626 16.1285 9.00004 15.4305 9.00004C14.7324 9.00004 14.063 9.28626 13.5695 9.79571L13.0624 10.319L12.5553 9.79571C11.5275 8.73517 9.86116 8.73517 8.83338 9.79571C7.80559 10.8562 7.80559 12.5757 8.83338 13.6362L9.34048 14.1595L13.0624 18L16.7843 14.1595L17.2914 13.6362C17.7852 13.127 18.0625 12.4363 18.0625 11.716C18.0625 10.9957 17.7852 10.3049 17.2914 9.79571Z" stroke="#1C304A" stroke-width="2" stroke-linecap="round" stroke-linejoin="round"/>
</g>
<defs>
<clipPath id="clip0_503_1808">
<rect width="56" height="53" fill="white" transform="translate(0.0625)"/>
</clipPath>
</defs>
</svg>
