<?xml version="1.0" encoding="utf-8"?>
<!-- Generator: Adobe Illustrator 19.2.1, SVG Export Plug-In . SVG Version: 6.00 Build 0)  -->
<svg version="1.1" id="Layer_1" xmlns="http://www.w3.org/2000/svg" xmlns:xlink="http://www.w3.org/1999/xlink" x="0px" y="0px"
	 viewBox="0 0 65 65" style="enable-background:new 0 0 65 65;" xml:space="preserve">
<style type="text/css">
	.st0{fill:#00CFFF;}
</style>
<path class="st0" d="M55,13.2c0,0,0-0.1,0-0.1v0l0,0c0-0.2,0-0.4-0.1-0.5c0,0,0,0,0-0.1c-0.1-0.1-0.2-0.3-0.3-0.4c0,0,0,0,0,0
	c0,0,0,0,0,0C54.3,12,54.2,12,54,11.9c0,0-0.1,0-0.1,0c0,0,0,0-0.1,0c-4.2-0.4-7.1-1.6-8.3-3.4C44.5,6.8,45,5.1,45,5
	c0.2-0.4,0-0.9-0.3-1.3c-0.3-0.3-0.8-0.5-1.3-0.3l-30.5,9.1c0,0,0,0-0.1,0c0,0-0.1,0-0.1,0c-0.1,0-0.1,0.1-0.2,0.1
	c-0.1,0-0.1,0.1-0.2,0.1c0,0,0,0-0.1,0c0,0-0.1,0.1-0.1,0.2c0,0.1-0.1,0.1-0.1,0.2c0,0,0,0,0,0.1c0,0.1,0,0.1,0,0.2
	c0,0.1,0,0.2,0,0.3c0,0,0,0,0,0.1v0l0,0v0l0,39.9c0,0.1,0.2,8.8,11.2,9.8c0,0,0,0,0.1,0c0,0,0,0,0.1,0c0,0,0,0,0,0c0,0,0.1,0,0.1,0
	c0.2,0,0.4-0.1,0.6-0.2L54,55c0.5-0.1,0.9-0.6,0.9-1.2L55,13.2C55,13.3,55,13.2,55,13.2z M23.3,20.1c-1.9-0.2-3.3-0.6-4.5-1.1
	l26-7.6c0.9,0.8,2.1,1.4,3.5,1.9L23.3,20.1z M43.1,9.2l-27,7.9c-0.9-0.9-1.3-1.9-1.5-2.6l27.7-8.2C42.4,7.2,42.6,8.2,43.1,9.2z
	 M14.6,53.6l0-34.5c0.1,0.2,0.3,0.3,0.5,0.4c0,0,0.1,0.1,0.1,0.1c1.5,1.3,3.7,2.4,7,2.9v38.2C14.7,59.4,14.6,53.8,14.6,53.6z
	 M52.4,52.9l-27.8,7.6V22.3l27.8-7.6V52.9z"/>
</svg>
