<?xml version="1.0" encoding="UTF-8" standalone="no"?>
<svg width="100px" height="100px" viewBox="0 0 100 100" version="1.1" xmlns="http://www.w3.org/2000/svg" xmlns:xlink="http://www.w3.org/1999/xlink">
    <!-- Generator: Sketch 3.7.1 (28215) - http://www.bohemiancoding.com/sketch -->
    <title>Artboard 1</title>
    <desc>Created with Sketch.</desc>
    <defs></defs>
    <g id="2" stroke="none" stroke-width="1" fill="none" fill-rule="evenodd" stroke-linecap="round" stroke-linejoin="round">
        <g id="Artboard-1" stroke="#41CEFF">
            <g id="Page-1-Copy" transform="translate(25.000000, 25.000000)">
                <path d="M14.4673333,25.9980495 L35.4423333,25.9980495" id="Stroke-1"></path>
                <g id="Group-14" transform="translate(0.000000, 0.446032)">
                    <path d="M29.0156667,42.0607652 C33.249,42.0607652 34.2223333,45.2741185 35.5273333,47.8933233 C35.5273333,48.3290323 35.089,48.6871718 34.549,48.6871718 L15.3556667,48.6871718 C14.8156667,48.6871718 14.3773333,48.2547637 14.3773333,47.8174044 C15.719,45.2328582 16.7573333,42.0607652 20.889,42.0607652 L29.0156667,42.0607652 L29.0156667,42.0607652 Z" id="Stroke-2"></path>
                    <path d="M45.7078333,0.866796699 L4.19616667,0.866796699 C2.28616667,0.866796699 0.832833333,2.45779445 0.832833333,4.32936234 L0.832833333,30.6402401 C0.832833333,32.5134584 2.28616667,33.7809752 4.19616667,33.7809752 L45.7078333,33.7809752 C47.6195,33.7809752 49.0761667,32.5134584 49.0761667,30.6402401 L49.0761667,4.32936234 C49.0761667,2.45779445 47.6195,0.866796699 45.7078333,0.866796699 L45.7078333,0.866796699 Z" id="Stroke-4"></path>
                    <path d="M24.9551667,42.0607652 L24.9551667,37.6426107" id="Stroke-6"></path>
                    <path d="M29.7,9.42913728 C27.0766667,6.85779445 22.8266667,6.85779445 20.205,9.42913728 C17.5833333,12.0021305 17.5816667,16.1710728 20.205,18.7424156 C22.8266667,21.3137584 27.0783333,21.3137584 29.7016667,18.7424156 C32.3233333,16.1710728 32.3216667,12.0004801 29.7,9.42913728 L29.7,9.42913728 Z" id="Stroke-8"></path>
                    <path d="M23.8565,16.6353338 L27.9498333,12.3442611" id="Stroke-10"></path>
                    <path d="M23.8565,16.6353338 L21.9548333,14.6432858" id="Stroke-12"></path>
                </g>
            </g>
        </g>
    </g>
</svg>