<?xml version="1.0" encoding="UTF-8" standalone="no"?>
<svg width="100px" height="100px" viewBox="0 0 100 100" version="1.1" xmlns="http://www.w3.org/2000/svg" xmlns:xlink="http://www.w3.org/1999/xlink">
    <!-- Generator: Sketch 3.7.1 (28215) - http://www.bohemiancoding.com/sketch -->
    <title>Artboard 1</title>
    <desc>Created with Sketch.</desc>
    <defs></defs>
    <g id="2" stroke="none" stroke-width="1" fill="none" fill-rule="evenodd" stroke-linecap="round" stroke-linejoin="round">
        <g id="Artboard-1" stroke="#41CEFF">
            <g id="Page-1-Copy-2" transform="translate(26.000000, 25.000000)">
                <path d="M7.82817241,14.50933 L12.2094483,33.13963 C12.206069,33.15663 12.1976207,33.17193 12.1942414,33.18893 L11.025,36.64503 C10.8357586,37.57323 11.5471034,38.43513 12.4848621,38.43513 L42.635069,38.43513" id="Stroke-1"></path>
                <path d="M47.8981759,14.50933 L7.82800345,14.50933 L8.86207241,9.28183 C8.68465862,8.45053 7.95303793,7.85723 7.10483103,7.85723 L0.844658621,7.85723" id="Stroke-3"></path>
                <path d="M48.8156586,11.14027 L44.5306931,26.97747 C44.1707966,28.30687 43.0505552,29.28607 41.6920724,29.45777 L12.1940724,33.18927" id="Stroke-5"></path>
                <path d="M14.2519034,43.3602 C12.4828345,43.3602 11.0500069,44.7967 11.0500069,46.5681 C11.0500069,48.3395 12.4828345,49.7743 14.2519034,49.7743 C16.0192828,49.7743 17.4521103,48.3395 17.4521103,46.5681 C17.4521103,44.7967 16.0192828,43.3602 14.2519034,43.3602 L14.2519034,43.3602 Z" id="Stroke-7"></path>
                <path d="M39.4338483,43.3602 C37.6647793,43.3602 36.2319517,44.7967 36.2319517,46.5681 C36.2319517,48.3395 37.6647793,49.7743 39.4338483,49.7743 C41.2012276,49.7743 42.6357448,48.3395 42.6357448,46.5681 C42.6357448,44.7967 41.2012276,43.3602 39.4338483,43.3602 L39.4338483,43.3602 Z" id="Stroke-9"></path>
                <polyline id="Stroke-11" points="18.8891621 9.33878 32.859231 0.85068 39.4015759 9.43058"></polyline>
            </g>
        </g>
    </g>
</svg>