<?xml version="1.0" encoding="UTF-8" standalone="no"?>
<svg width="100px" height="100px" viewBox="0 0 100 100" version="1.1" xmlns="http://www.w3.org/2000/svg" xmlns:xlink="http://www.w3.org/1999/xlink">
    <!-- Generator: Sketch 3.7.1 (28215) - http://www.bohemiancoding.com/sketch -->
    <title>Artboard 1</title>
    <desc>Created with Sketch.</desc>
    <defs></defs>
    <g id="Page-2" stroke="none" stroke-width="1" fill="none" fill-rule="evenodd">
        <g id="Artboard-1">
            <g id="Page-1" transform="translate(14.000000, 14.000000)">
                <polygon id="Fill-1" fill="#00CFFF" points="0.513102123 71.2185747 72.9631219 71.2185747 72.9631219 67.9357473 0.513102123 67.9357473"></polygon>
                <polygon id="Stroke-2" stroke="#FFFFFF" points="0.513102123 71.2185747 72.9631219 71.2185747 72.9631219 67.9347211 0.513102123 67.9347211"></polygon>
                <path d="M35.0961852,0.513204744 L35.0961852,1.33416814 L35.0961852,12.2119332 L35.0961852,18.130053 L25.0024403,28.0154786 L2.15502892,28.0154786 L2.15502892,35.5067696 L2.15502892,38.7906231 L2.15502892,66.292897 L58.8015033,66.292897 L62.0853569,66.292897 L71.2185747,66.292897 L71.2185747,38.7906231 L71.3211951,38.7906231 L71.3211951,28.0154786 L48.4737838,28.0154786 L38.3800388,18.130053 L38.3800388,12.2119332 L53.3626208,12.2119332 L53.3626208,0.513204744 L35.0961852,0.513204744 Z M38.3800388,8.82443294 L50.077741,8.82443294 L50.077741,3.79603213 L38.3800388,3.79603213 L38.3800388,8.82443294 Z M36.738112,21.1399101 L51.3615225,35.5067696 L22.1147015,35.5067696 L36.738112,21.1399101 Z M51.8263931,31.2993321 L67.9347211,31.2993321 L67.9347211,35.5067696 L56.122084,35.5067696 L51.8263931,31.2993321 Z M5.43888251,31.2993321 L21.649831,31.2993321 L17.3531138,35.5067696 L5.43888251,35.5067696 L5.43888251,31.2993321 Z M62.0853569,63.0100696 L67.9347211,63.0100696 L67.9347211,38.7906231 L62.0853569,38.7906231 L62.0853569,63.0100696 Z M52.6442779,63.0100696 L58.8015033,63.0100696 L58.8015033,38.7906231 L52.6442779,38.7906231 L52.6442779,63.0100696 Z M24.1157998,63.0100696 L49.3604243,63.0100696 L49.3604243,38.7906231 L24.1157998,38.7906231 L24.1157998,63.0100696 Z M14.6747207,63.0100696 L20.8319462,63.0100696 L20.8319462,38.7906231 L14.6747207,38.7906231 L14.6747207,63.0100696 Z M5.54150293,63.0100696 L11.3908671,63.0100696 L11.3908671,38.7906231 L5.54150293,38.7906231 L5.54150293,63.0100696 Z" id="Fill-4" fill="#00CFFF"></path>
                <path d="M52.6442779,63.0089407 L58.8015033,63.0089407 L58.8015033,38.7905205 L52.6442779,38.7905205 L52.6442779,63.0089407 Z M5.54150293,63.0089407 L11.3908671,63.0089407 L11.3908671,38.7905205 L5.54150293,38.7905205 L5.54150293,63.0089407 Z M5.43888251,31.2992295 L21.649831,31.2992295 L17.3531138,35.5066669 L5.43888251,35.5066669 L5.43888251,31.2992295 L5.43888251,31.2992295 Z M24.1157998,63.0089407 L49.3604243,63.0089407 L49.3604243,38.7905205 L24.1157998,38.7905205 L24.1157998,63.0089407 Z M36.738112,21.1398075 L51.3615225,35.5066669 L22.1147015,35.5066669 L36.738112,21.1398075 L36.738112,21.1398075 Z M14.6747207,63.0089407 L20.8319462,63.0089407 L20.8319462,38.7905205 L14.6747207,38.7905205 L14.6747207,63.0089407 Z M67.9347211,31.2992295 L67.9347211,35.5066669 L56.122084,35.5066669 L51.8263931,31.2992295 L67.9347211,31.2992295 L67.9347211,31.2992295 Z M62.0853569,63.0089407 L67.9347211,63.0089407 L67.9347211,38.7905205 L62.0853569,38.7905205 L62.0853569,63.0089407 Z M38.3800388,8.82535652 L50.0787672,8.82535652 L50.0787672,3.79695571 L38.3800388,3.79695571 L38.3800388,8.82535652 Z M62.0853569,66.2927943 L71.2185747,66.2927943 L71.2185747,38.7905205 L71.3211951,38.7905205 L71.3211951,28.0153759 L48.4737838,28.0153759 L38.3800388,18.1299504 L38.3800388,12.2118305 L53.3626208,12.2118305 L53.3626208,0.513102123 L35.0961852,0.513102123 L35.0961852,1.33406552 L35.0961852,12.2118305 L35.0961852,18.1299504 L25.0024403,28.0153759 L2.15502892,28.0153759 L2.15502892,35.5066669 L2.15502892,38.7905205 L2.15502892,66.2927943 L58.8015033,66.2927943 L62.0853569,66.2927943 L62.0853569,66.2927943 Z" id="Stroke-5" stroke="#FFFFFF"></path>
            </g>
        </g>
    </g>
</svg>