<?xml version="1.0" encoding="UTF-8" standalone="no"?>
<svg width="100px" height="100px" viewBox="0 0 100 100" version="1.1" xmlns="http://www.w3.org/2000/svg" xmlns:xlink="http://www.w3.org/1999/xlink">
    <!-- Generator: Sketch 3.7.1 (28215) - http://www.bohemiancoding.com/sketch -->
    <title>Artboard 1</title>
    <desc>Created with Sketch.</desc>
    <defs>
        <polygon id="path-1" points="78.0703352 59.5198463 0 59.5198463 0 0.513307364 78.0703352 0.513307364 78.0703352 59.5198463"></polygon>
    </defs>
    <g id="Page-2" stroke="none" stroke-width="1" fill="none" fill-rule="evenodd">
        <g id="Artboard-1">
            <g id="Page-1" transform="translate(11.000000, 20.000000)">
                <path d="M19.8807575,12.9183722 C21.0844951,12.9183722 22.0593891,13.8942924 22.0593891,15.0970038 C22.0593891,16.3007414 21.0844951,17.2756354 19.8807575,17.2756354 C18.6770199,17.2756354 17.7021259,16.3007414 17.7021259,15.0970038 C17.7021259,13.8942924 18.6770199,12.9183722 19.8807575,12.9183722" id="Fill-1" fill="#00CFFF"></path>
                <path d="M19.5175838,32.6174915 C19.2456397,32.6174915 19.0640015,32.5271855 18.8823634,32.3455474 C18.5190871,31.9822711 18.5190871,31.4373566 18.8823634,31.0740803 L29.4122452,20.5441985 C29.7755215,20.1809222 30.3204359,20.1809222 30.6837122,20.5441985 L40.9416499,30.8021362 C41.3049262,31.1654125 41.3049262,31.7093007 40.9416499,32.072577 C40.5783736,32.4358533 40.0334591,32.4358533 39.6701828,32.072577 L30.1387978,22.4498598 L20.1528042,32.3455474 C19.9711661,32.5271855 19.7895279,32.6174915 19.5175838,32.6174915" id="Fill-3" fill="#00CFFF"></path>
                <path d="M59.823808,32.6174915 C59.5518639,32.6174915 59.3702257,32.5271855 59.1885876,32.3455474 L42.7570052,15.913965 L33.7705346,24.9014618 C33.4072583,25.2647381 32.8623438,25.2647381 32.4990675,24.9014618 C32.1357912,24.5381855 32.1357912,23.993271 32.4990675,23.6299947 L42.1217847,14.0072775 C42.4850611,13.6450274 43.0299755,13.6450274 43.3922256,14.0072775 L60.5503606,31.1654125 C60.9136369,31.5276626 60.9136369,32.072577 60.5503606,32.4358533 C60.2773903,32.5271855 60.0957521,32.6174915 59.823808,32.6174915" id="Fill-5" fill="#00CFFF"></path>
                <path d="M29.5033721,41.4231449 L10.4395758,41.4231449 C9.89466135,41.4231449 9.53138504,41.0598686 9.53138504,40.5149541 C9.53138504,39.9710659 9.89466135,39.6077896 10.4395758,39.6077896 L29.5033721,39.6077896 C30.0482865,39.6077896 30.4115629,39.9710659 30.4115629,40.5149541 C30.4115629,41.0598686 30.0482865,41.4231449 29.5033721,41.4231449" id="Fill-7" fill="#00CFFF"></path>
                <path d="M24.0565878,47.7777095 L10.4398837,47.7777095 C9.89496921,47.7777095 9.5316929,47.4144332 9.5316929,46.8695187 C9.5316929,46.3256304 9.89496921,45.9623541 10.4398837,45.9623541 L24.0565878,45.9623541 C24.6015023,45.9623541 24.9647786,46.3256304 24.9647786,46.8695187 C24.9647786,47.4144332 24.6015023,47.7777095 24.0565878,47.7777095" id="Fill-9" fill="#00CFFF"></path>
                <path d="M34.0423761,45.054266 L10.4396784,45.054266 C9.89476397,45.054266 9.53148766,44.6909897 9.53148766,44.1460752 C9.53148766,43.602187 9.89476397,43.2389107 10.4396784,43.2389107 L34.0423761,43.2389107 C34.5872906,43.2389107 34.9505669,43.602187 34.9505669,44.1460752 C34.9505669,44.6909897 34.5872906,45.054266 34.0423761,45.054266" id="Fill-11" fill="#00CFFF"></path>
                <path d="M60.3684146,41.4231449 L41.3046183,41.4231449 C40.7597039,41.4231449 40.3964275,41.0598686 40.3964275,40.5149541 C40.3964275,39.9710659 40.7597039,39.6077896 41.3046183,39.6077896 L60.3684146,39.6077896 C60.9133291,39.6077896 61.2766054,39.9710659 61.2766054,40.5149541 C61.2766054,41.0598686 60.9133291,41.4231449 60.3684146,41.4231449" id="Fill-13" fill="#00CFFF"></path>
                <path d="M55.8295132,47.7777095 L41.3046183,47.7777095 C40.7597039,47.7777095 40.3974538,47.4144332 40.3974538,46.8695187 C40.3974538,46.3256304 40.7597039,45.9623541 41.3046183,45.9623541 L55.8295132,45.9623541 C56.3744277,45.9623541 56.737704,46.3256304 56.737704,46.8695187 C56.737704,47.4144332 56.3744277,47.7777095 55.8295132,47.7777095" id="Fill-15" fill="#00CFFF"></path>
                <path d="M64.9074186,45.054266 L41.3047209,45.054266 C40.7598065,45.054266 40.3965302,44.6909897 40.3965302,44.1460752 C40.3965302,43.602187 40.7598065,43.2389107 41.3047209,43.2389107 L64.9074186,43.2389107 C65.4523331,43.2389107 65.8156094,43.602187 65.8156094,44.1460752 C65.8156094,44.6909897 65.4523331,45.054266 64.9074186,45.054266" id="Fill-17" fill="#00CFFF"></path>
                <g id="Group-21" transform="translate(0.000000, 0.513102)">
                    <mask id="mask-2" fill="white">
                        <use xlink:href="#path-1"></use>
                    </mask>
                    <g id="Clip-20"></g>
                    <path d="M2.72334083,2.32866268 C2.17842637,2.32866268 1.81515007,2.69193898 1.81515007,3.23685343 L1.81515007,56.7965055 C1.81515007,57.3414199 2.17842637,57.7046962 2.72334083,57.7046962 L75.3467892,57.7046962 C75.8917036,57.7046962 76.2549799,57.3414199 76.2549799,56.7965055 L76.2549799,3.23685343 C76.2549799,2.69193898 75.8917036,2.32866268 75.3467892,2.32866268 L2.72334083,2.32866268 Z M75.3467892,59.5200515 L2.72334083,59.5200515 C1.17992964,59.5200515 -0.000205240849,58.3399167 -0.000205240849,56.7965055 L-0.000205240849,3.23685343 C-0.000205240849,1.69344225 1.17992964,0.513307364 2.72334083,0.513307364 L75.3467892,0.513307364 C76.8902003,0.513307364 78.0703352,1.69344225 78.0703352,3.23685343 L78.0703352,56.7965055 C78.0703352,58.3399167 76.8902003,59.5200515 75.3467892,59.5200515 L75.3467892,59.5200515 Z" id="Fill-19" fill="#00CFFF" mask="url(#mask-2)"></path>
                </g>
                <path d="M76.7087674,9.65021949 L1.36177304,9.65021949 C0.81685858,9.65021949 0.453582277,9.28694319 0.453582277,8.74202874 C0.453582277,8.19814049 0.81685858,7.83486418 1.36177304,7.83486418 L76.7087674,7.83486418 C77.2536819,7.83486418 77.6169582,8.19814049 77.6169582,8.74202874 C77.6169582,9.28694319 77.2536819,9.65021949 76.7087674,9.65021949" id="Fill-22" fill="#00CFFF"></path>
                <path d="M76.7087674,33.2529172 L1.36177304,33.2529172 C0.81685858,33.2529172 0.453582277,32.8896409 0.453582277,32.3447264 C0.453582277,31.8008382 0.81685858,31.4375619 1.36177304,31.4375619 L76.7087674,31.4375619 C77.2536819,31.4375619 77.6169582,31.8008382 77.6169582,32.3447264 C77.6169582,32.8896409 77.2536819,33.2529172 76.7087674,33.2529172" id="Fill-24" fill="#00CFFF"></path>
                <path d="M4.90207507,4.47578982 C5.55371476,4.47578982 6.08220995,5.00428501 6.08220995,5.65592471 C6.08220995,6.3075644 5.55371476,6.83605959 4.90207507,6.83605959 C4.25043537,6.83605959 3.72194018,6.3075644 3.72194018,5.65592471 C3.72194018,5.00428501 4.25043537,4.47578982 4.90207507,4.47578982" id="Fill-26" fill="#00CFFF"></path>
                <path d="M9.25954354,4.47578982 C9.91118323,4.47578982 10.4396784,5.00428501 10.4396784,5.65592471 C10.4396784,6.3075644 9.91118323,6.83605959 9.25954354,6.83605959 C8.60790384,6.83605959 8.07940865,6.3075644 8.07940865,5.65592471 C8.07940865,5.00428501 8.60790384,4.47578982 9.25954354,4.47578982" id="Fill-28" fill="#00CFFF"></path>
                <path d="M13.5261929,4.47578982 C14.1778326,4.47578982 14.7063278,5.00428501 14.7063278,5.65592471 C14.7063278,6.3075644 14.1778326,6.83605959 13.5261929,6.83605959 C12.8745532,6.83605959 12.3460581,6.3075644 12.3460581,5.65592471 C12.3460581,5.00428501 12.8745532,4.47578982 13.5261929,4.47578982" id="Fill-30" fill="#00CFFF"></path>
            </g>
        </g>
    </g>
</svg>