<?xml version="1.0" encoding="UTF-8" standalone="no"?>
<svg width="100px" height="100px" viewBox="0 0 100 100" version="1.1" xmlns="http://www.w3.org/2000/svg" xmlns:xlink="http://www.w3.org/1999/xlink">
    <!-- Generator: Sketch 3.7.1 (28215) - http://www.bohemiancoding.com/sketch -->
    <title>Artboard 1</title>
    <desc>Created with Sketch.</desc>
    <defs></defs>
    <g id="Page-2" stroke="none" stroke-width="1" fill="none" fill-rule="evenodd">
        <g id="Artboard-1">
            <g id="Page-1" transform="translate(14.000000, 18.000000)">
                <path d="M70.2188465,59.0908929 C70.2188465,59.5455014 69.849413,59.9149349 69.3948045,59.9149349 L50.8482152,59.9149349 C50.3925805,59.9149349 50.023147,59.5455014 50.023147,59.0908929 L50.023147,3.45112488 C50.023147,2.9965164 50.3925805,2.62708287 50.8482152,2.62708287 L69.3948045,2.62708287 C69.849413,2.62708287 70.2188465,2.9965164 70.2188465,3.45112488 L70.2188465,59.0908929 Z M6.74811389,42.1923876 L47.5510209,42.1923876 L47.5510209,14.9907916 L6.74811389,14.9907916 L6.74811389,42.1923876 Z M3.45091964,46.3146501 C2.99733736,46.3146501 2.62687763,45.9452165 2.62687763,45.4895818 L2.62687763,11.6935974 C2.62687763,11.2400151 2.99733736,10.8695554 3.45091964,10.8695554 L47.5510209,10.8695554 L47.5510209,12.5186656 L4.27496165,12.5186656 L4.27496165,44.6655398 L47.5510209,44.6655398 L47.5510209,46.3146501 L3.45091964,46.3146501 Z M37.6358355,60.738977 L22.8461799,60.738977 C24.700531,58.9441457 28.3712636,54.6895029 28.8351079,48.7867761 L31.6469075,48.7867761 C32.1097256,54.6895029 35.779432,58.9441457 37.6358355,60.738977 L37.6358355,60.738977 Z M69.3948045,0.153930637 L50.8482152,0.153930637 C49.0297813,0.153930637 47.5510209,1.63269096 47.5510209,3.45112488 L47.5510209,8.39640315 L3.45091964,8.39640315 C1.63248572,8.39640315 0.153725396,9.87516347 0.153725396,11.6935974 L0.153725396,45.4895818 C0.153725396,47.3080158 1.63248572,48.7867761 3.45091964,48.7867761 L26.348615,48.7867761 C25.720578,55.3514047 20.3217175,59.6881438 20.2663024,59.7312444 C19.0800103,60.6599592 19.1641591,61.5548093 19.3191159,62.005313 C19.4740727,62.4568429 19.9594674,63.2121292 21.4659352,63.2121292 L39.0160802,63.2121292 C40.5225481,63.2121292 41.0079427,62.4568429 41.1628995,62.005313 C41.3178563,61.5548093 41.4020051,60.6599592 40.2177654,59.7332968 C40.160298,59.6881438 34.7614374,55.3514047 34.1334004,48.7867761 L47.5510209,48.7867761 L47.5510209,59.0908929 C47.5510209,60.9093269 49.0297813,62.3880872 50.8482152,62.3880872 L69.3948045,62.3880872 C71.2132385,62.3880872 72.6919988,60.9093269 72.6919988,59.0908929 L72.6919988,3.45112488 C72.6919988,1.63269096 71.2132385,0.153930637 69.3948045,0.153930637 L69.3948045,0.153930637 Z" id="Fill-1" fill="#00CFFF"></path>
                <path d="M70.2188465,59.0908929 C70.2188465,59.5455014 69.849413,59.9149349 69.3948045,59.9149349 L50.8482152,59.9149349 C50.3925805,59.9149349 50.023147,59.5455014 50.023147,59.0908929 L50.023147,3.45112488 C50.023147,2.9965164 50.3925805,2.62708287 50.8482152,2.62708287 L69.3948045,2.62708287 C69.849413,2.62708287 70.2188465,2.9965164 70.2188465,3.45112488 L70.2188465,59.0908929 L70.2188465,59.0908929 Z M6.74811389,42.1923876 L47.5510209,42.1923876 L47.5510209,14.9907916 L6.74811389,14.9907916 L6.74811389,42.1923876 Z M3.45091964,46.3146501 C2.99733736,46.3146501 2.62687763,45.9452165 2.62687763,45.4895818 L2.62687763,11.6935974 C2.62687763,11.2400151 2.99733736,10.8695554 3.45091964,10.8695554 L47.5510209,10.8695554 L47.5510209,12.5186656 L4.27496165,12.5186656 L4.27496165,44.6655398 L47.5510209,44.6655398 L47.5510209,46.3146501 L3.45091964,46.3146501 L3.45091964,46.3146501 Z M37.6358355,60.738977 L22.8461799,60.738977 C24.700531,58.9441457 28.3712636,54.6895029 28.8351079,48.7867761 L31.6469075,48.7867761 C32.1097256,54.6895029 35.779432,58.9441457 37.6358355,60.738977 L37.6358355,60.738977 Z M69.3948045,0.153930637 L50.8482152,0.153930637 C49.0297813,0.153930637 47.5510209,1.63269096 47.5510209,3.45112488 L47.5510209,8.39640315 L3.45091964,8.39640315 C1.63248572,8.39640315 0.153725396,9.87516347 0.153725396,11.6935974 L0.153725396,45.4895818 C0.153725396,47.3080158 1.63248572,48.7867761 3.45091964,48.7867761 L26.348615,48.7867761 C25.720578,55.3514047 20.3217175,59.6881438 20.2663024,59.7312444 C19.0800103,60.6599592 19.1641591,61.5548093 19.3191159,62.005313 C19.4740727,62.4568429 19.9594674,63.2121292 21.4659352,63.2121292 L39.0160802,63.2121292 C40.5225481,63.2121292 41.0079427,62.4568429 41.1628995,62.005313 C41.3178563,61.5548093 41.4020051,60.6599592 40.2177654,59.7332968 C40.160298,59.6881438 34.7614374,55.3514047 34.1334004,48.7867761 L47.5510209,48.7867761 L47.5510209,59.0908929 C47.5510209,60.9093269 49.0297813,62.3880872 50.8482152,62.3880872 L69.3948045,62.3880872 C71.2132385,62.3880872 72.6919988,60.9093269 72.6919988,59.0908929 L72.6919988,3.45112488 C72.6919988,1.63269096 71.2132385,0.153930637 69.3948045,0.153930637 L69.3948045,0.153930637 Z" id="Stroke-3" stroke="#FFFFFF" stroke-width="0.3"></path>
                <path d="M65.2731578,8.39681363 L54.969041,8.39681363 C54.2866151,8.39681363 53.733491,8.94993772 53.733491,9.63338975 C53.733491,10.3168418 54.2866151,10.8699659 54.969041,10.8699659 L65.2731578,10.8699659 C65.9555836,10.8699659 66.5097339,10.3168418 66.5097339,9.63338975 C66.5097339,8.94993772 65.9555836,8.39681363 65.2731578,8.39681363" id="Fill-5" fill="#00CFFF"></path>
                <path d="M65.2731578,8.39681363 L54.969041,8.39681363 C54.2866151,8.39681363 53.733491,8.94993772 53.733491,9.63338975 C53.733491,10.3168418 54.2866151,10.8699659 54.969041,10.8699659 L65.2731578,10.8699659 C65.9555836,10.8699659 66.5097339,10.3168418 66.5097339,9.63338975 C66.5097339,8.94993772 65.9555836,8.39681363 65.2731578,8.39681363 L65.2731578,8.39681363 Z" id="Stroke-7" stroke="#FFFFFF" stroke-width="0.3"></path>
                <path d="M65.2731578,14.5789759 L54.969041,14.5789759 C54.2866151,14.5789759 53.733491,15.1321 53.733491,15.815552 C53.733491,16.499004 54.2866151,17.0521281 54.969041,17.0521281 L65.2731578,17.0521281 C65.9555836,17.0521281 66.5097339,16.499004 66.5097339,15.815552 C66.5097339,15.1321 65.9555836,14.5789759 65.2731578,14.5789759" id="Fill-9" fill="#00CFFF"></path>
                <path d="M65.2731578,14.5789759 L54.969041,14.5789759 C54.2866151,14.5789759 53.733491,15.1321 53.733491,15.815552 C53.733491,16.499004 54.2866151,17.0521281 54.969041,17.0521281 L65.2731578,17.0521281 C65.9555836,17.0521281 66.5097339,16.499004 66.5097339,15.815552 C66.5097339,15.1321 65.9555836,14.5789759 65.2731578,14.5789759 L65.2731578,14.5789759 Z" id="Stroke-11" stroke="#FFFFFF" stroke-width="0.3"></path>
                <path d="M57.0301722,37.2471093 C56.5755637,37.2471093 56.2061302,36.8776758 56.2061302,36.4230673 C56.2061302,35.9674326 56.5755637,35.5990253 57.0301722,35.5990253 C57.4847807,35.5990253 57.8542142,35.9674326 57.8542142,36.4230673 C57.8542142,36.8776758 57.4847807,37.2471093 57.0301722,37.2471093 M57.0301722,33.1258731 C55.2117383,33.1258731 53.7329779,34.6046334 53.7329779,36.4230673 C53.7329779,38.2415013 55.2117383,39.7202616 57.0301722,39.7202616 C58.8486061,39.7202616 60.3273664,38.2415013 60.3273664,36.4230673 C60.3273664,34.6046334 58.8486061,33.1258731 57.0301722,33.1258731" id="Fill-13" fill="#00CFFF"></path>
                <path d="M57.0301722,37.2471093 C56.5755637,37.2471093 56.2061302,36.8776758 56.2061302,36.4230673 C56.2061302,35.9674326 56.5755637,35.5990253 57.0301722,35.5990253 C57.4847807,35.5990253 57.8542142,35.9674326 57.8542142,36.4230673 C57.8542142,36.8776758 57.4847807,37.2471093 57.0301722,37.2471093 L57.0301722,37.2471093 Z M57.0301722,33.1258731 C55.2117383,33.1258731 53.7329779,34.6046334 53.7329779,36.4230673 C53.7329779,38.2415013 55.2117383,39.7202616 57.0301722,39.7202616 C58.8486061,39.7202616 60.3273664,38.2415013 60.3273664,36.4230673 C60.3273664,34.6046334 58.8486061,33.1258731 57.0301722,33.1258731 L57.0301722,33.1258731 Z" id="Stroke-15" stroke="#FFFFFF" stroke-width="0.3"></path>
            </g>
        </g>
    </g>
</svg>