<?xml version="1.0" encoding="UTF-8" standalone="no"?>
<svg width="100px" height="100px" viewBox="0 0 100 100" version="1.1" xmlns="http://www.w3.org/2000/svg" xmlns:xlink="http://www.w3.org/1999/xlink">
    <!-- Generator: Sketch 3.7.1 (28215) - http://www.bohemiancoding.com/sketch -->
    <title>Artboard 1</title>
    <desc>Created with Sketch.</desc>
    <defs></defs>
    <g id="Page-2" stroke="none" stroke-width="1" fill="none" fill-rule="evenodd">
        <g id="Artboard-1">
            <g id="Page-1" transform="translate(14.000000, 15.000000)">
                <path d="M60.6150115,24.0534066 L55.1730504,24.0534066 L64.953803,3.07779178 L69.4239487,5.1620126 L60.6150115,24.0534066 Z M66.4469302,26.5193754 L59.6647463,53.6470846 L21.8624605,53.6470846 L15.0864339,26.5193754 L18.3713137,26.5193754 L20.9799249,26.5193754 L34.0209284,26.5193754 L36.6295396,26.5193754 L39.8230872,26.5193754 L43.6600649,26.5193754 L51.3011817,26.5193754 L54.0226754,26.5193754 L59.4646365,26.5193754 L62.1861302,26.5193754 L66.4469302,26.5193754 Z M25.0960301,14.5630697 L36.7557627,18.5775807 L34.8695993,24.0534066 L21.8285958,24.0534066 L25.0960301,14.5630697 Z M40.3782637,9.95643884 L48.3046653,19.4026489 L42.7621362,24.0534066 L37.4782105,24.0534066 L39.4885447,18.2143044 C39.7102048,17.5708744 39.3684788,16.8689506 38.7240225,16.6472905 L34.2436147,15.1049055 L40.3782637,9.95643884 Z M27.3331554,64.7454836 C27.3331554,66.7886562 25.6768617,68.4449499 23.633689,68.4449499 C21.5905164,68.4449499 19.9342227,66.7886562 19.9342227,64.7454836 C19.9342227,62.7023109 21.5905164,61.0460173 23.633689,61.0460173 C25.6768617,61.0460173 27.3331554,62.7023109 27.3331554,64.7454836 L27.3331554,64.7454836 Z M58.1603309,61.0460173 C60.2035036,61.0460173 61.8597972,62.7023109 61.8597972,64.7454836 C61.8597972,66.7886562 60.2035036,68.4449499 58.1603309,68.4449499 C56.1171583,68.4449499 54.4608646,66.7886562 54.4608646,64.7454836 C54.4608646,62.7023109 56.1171583,61.0460173 58.1603309,61.0460173 L58.1603309,61.0460173 Z M71.5841087,3.44825151 L64.8788901,0.32140717 C64.2611152,0.0330437767 63.5284053,0.299856881 63.2400419,0.917631837 L52.4515567,24.0534066 L46.5991139,24.0534066 L50.8342588,20.4996613 C51.3565968,20.0614721 51.4243262,19.2836092 50.986137,18.7622975 L41.4752761,7.42684537 C41.0370869,6.90553362 40.259224,6.83677793 39.7379123,7.27496715 L31.5231473,14.1679811 L24.73378,11.8302878 C24.0893237,11.6076015 23.3874,11.9503537 23.1657399,12.5937838 L19.2199846,24.0534066 L14.4707113,24.0534066 L11.0082982,10.1904134 C10.871813,9.64139414 10.3782088,9.25656755 9.81277025,9.25656755 L1.43791739,9.25656755 C0.757543975,9.25656755 0.20544609,9.80866543 0.20544609,10.4890388 C0.20544609,11.1704385 0.757543975,11.7225364 1.43791739,11.7225364 L8.83685001,11.7225364 L20.7336358,59.3055749 C18.7910312,60.3430674 17.4682539,62.3893186 17.4682539,64.7454836 C17.4682539,68.1504293 20.2287434,70.9109187 23.633689,70.9109187 C26.6168648,70.9109187 29.1043839,68.7928331 29.6759796,65.9779549 L52.1190665,65.9779549 C52.6896361,68.7928331 55.1771552,70.9109187 58.1603309,70.9109187 C61.5652766,70.9109187 64.325766,68.1504293 64.325766,64.7454836 C64.325766,61.3405379 61.5652766,58.5800485 58.1603309,58.5800485 C55.1771552,58.5800485 52.6896361,60.698134 52.1190665,63.5119861 L29.6759796,63.5119861 C29.1043839,60.698134 26.6168648,58.5800485 23.633689,58.5800485 C23.4541033,58.5800485 23.27657,58.5913367 23.101089,58.6067298 L22.4781831,56.1140797 L60.6262997,56.1140797 C61.1927645,56.1140797 61.6853425,55.7282269 61.8228539,55.1792076 L69.2217865,25.5855295 C69.4157391,24.8076667 68.8277241,24.0534066 68.0252323,24.0534066 L63.3365051,24.0534066 L72.1803333,5.08607349 C72.4686967,4.46932474 72.2008574,3.7355887 71.5841087,3.44825151 L71.5841087,3.44825151 Z" id="Fill-1" fill="#00CFFF"></path>
                <path d="M60.6150115,24.0534066 L55.1730504,24.0534066 L64.953803,3.07779178 L69.4239487,5.1620126 L60.6150115,24.0534066 L60.6150115,24.0534066 Z M66.4469302,26.5193754 L59.6647463,53.6470846 L21.8624605,53.6470846 L15.0864339,26.5193754 L18.3713137,26.5193754 L20.9799249,26.5193754 L34.0209284,26.5193754 L36.6295396,26.5193754 L39.8230872,26.5193754 L43.6600649,26.5193754 L51.3011817,26.5193754 L54.0226754,26.5193754 L59.4646365,26.5193754 L62.1861302,26.5193754 L66.4469302,26.5193754 L66.4469302,26.5193754 Z M25.0960301,14.5630697 L36.7557627,18.5775807 L34.8695993,24.0534066 L21.8285958,24.0534066 L25.0960301,14.5630697 L25.0960301,14.5630697 Z M40.3782637,9.95643884 L48.3046653,19.4026489 L42.7621362,24.0534066 L37.4782105,24.0534066 L39.4885447,18.2143044 C39.7102048,17.5708744 39.3684788,16.8689506 38.7240225,16.6472905 L34.2436147,15.1049055 L40.3782637,9.95643884 L40.3782637,9.95643884 Z M27.3331554,64.7454836 C27.3331554,66.7886562 25.6768617,68.4449499 23.633689,68.4449499 C21.5905164,68.4449499 19.9342227,66.7886562 19.9342227,64.7454836 C19.9342227,62.7023109 21.5905164,61.0460173 23.633689,61.0460173 C25.6768617,61.0460173 27.3331554,62.7023109 27.3331554,64.7454836 L27.3331554,64.7454836 Z M58.1603309,61.0460173 C60.2035036,61.0460173 61.8597972,62.7023109 61.8597972,64.7454836 C61.8597972,66.7886562 60.2035036,68.4449499 58.1603309,68.4449499 C56.1171583,68.4449499 54.4608646,66.7886562 54.4608646,64.7454836 C54.4608646,62.7023109 56.1171583,61.0460173 58.1603309,61.0460173 L58.1603309,61.0460173 Z M71.5841087,3.44825151 L64.8788901,0.32140717 C64.2611152,0.0330437767 63.5284053,0.299856881 63.2400419,0.917631837 L52.4515567,24.0534066 L46.5991139,24.0534066 L50.8342588,20.4996613 C51.3565968,20.0614721 51.4243262,19.2836092 50.986137,18.7622975 L41.4752761,7.42684537 C41.0370869,6.90553362 40.259224,6.83677793 39.7379123,7.27496715 L31.5231473,14.1679811 L24.73378,11.8302878 C24.0893237,11.6076015 23.3874,11.9503537 23.1657399,12.5937838 L19.2199846,24.0534066 L14.4707113,24.0534066 L11.0082982,10.1904134 C10.871813,9.64139414 10.3782088,9.25656755 9.81277025,9.25656755 L1.43791739,9.25656755 C0.757543975,9.25656755 0.20544609,9.80866543 0.20544609,10.4890388 C0.20544609,11.1704385 0.757543975,11.7225364 1.43791739,11.7225364 L8.83685001,11.7225364 L20.7336358,59.3055749 C18.7910312,60.3430674 17.4682539,62.3893186 17.4682539,64.7454836 C17.4682539,68.1504293 20.2287434,70.9109187 23.633689,70.9109187 C26.6168648,70.9109187 29.1043839,68.7928331 29.6759796,65.9779549 L52.1190665,65.9779549 C52.6896361,68.7928331 55.1771552,70.9109187 58.1603309,70.9109187 C61.5652766,70.9109187 64.325766,68.1504293 64.325766,64.7454836 C64.325766,61.3405379 61.5652766,58.5800485 58.1603309,58.5800485 C55.1771552,58.5800485 52.6896361,60.698134 52.1190665,63.5119861 L29.6759796,63.5119861 C29.1043839,60.698134 26.6168648,58.5800485 23.633689,58.5800485 C23.4541033,58.5800485 23.27657,58.5913367 23.101089,58.6067298 L22.4781831,56.1140797 L60.6262997,56.1140797 C61.1927645,56.1140797 61.6853425,55.7282269 61.8228539,55.1792076 L69.2217865,25.5855295 C69.4157391,24.8076667 68.8277241,24.0534066 68.0252323,24.0534066 L63.3365051,24.0534066 L72.1803333,5.08607349 C72.4686967,4.46932474 72.2008574,3.7355887 71.5841087,3.44825151 L71.5841087,3.44825151 Z" id="Stroke-3" stroke="#FFFFFF" stroke-width="0.4"></path>
            </g>
        </g>
    </g>
</svg>