<?xml version="1.0" encoding="UTF-8" standalone="no"?>
<svg width="100px" height="100px" viewBox="0 0 100 100" version="1.1" xmlns="http://www.w3.org/2000/svg" xmlns:xlink="http://www.w3.org/1999/xlink">
    <!-- Generator: Sketch 3.7.1 (28215) - http://www.bohemiancoding.com/sketch -->
    <title>Artboard 1</title>
    <desc>Created with Sketch.</desc>
    <defs></defs>
    <g id="Page-2" stroke="none" stroke-width="1" fill="none" fill-rule="evenodd">
        <g id="Artboard-1">
            <g id="Page-1" transform="translate(11.000000, 20.000000)">
                <path d="M53.7039364,27.0435605 C53.184677,26.5314846 52.2846959,26.5263536 51.7685152,27.0435605 C51.5099117,27.302164 51.3662431,27.6449162 51.3662431,28.0112711 C51.3662431,28.3755736 51.5099117,28.7183258 51.7685152,28.9748769 L55.5500778,32.763623 L51.7685152,36.5431332 C51.5099117,36.8007105 51.3693217,37.1444889 51.3693217,37.5077652 C51.3693217,37.8771987 51.5099117,38.219951 51.7685152,38.4785544 C52.2857221,38.9926828 53.1826246,38.9926828 53.7039364,38.4785544 L57.485499,34.6939132 L61.2670617,38.4785544 C61.7842686,38.9926828 62.6863021,38.9926828 63.2024829,38.4785544 C63.4590339,38.219951 63.6027025,37.8771987 63.6027025,37.5077652 C63.6027025,37.1444889 63.4610863,36.8007105 63.2024829,36.5451856 L59.4188678,32.763623 L63.2024829,28.9769293 C63.4610863,28.7183258 63.6027025,28.3755736 63.6027025,28.0112711 C63.6027025,27.6449162 63.4610863,27.302164 63.2024829,27.0456129 C62.6863021,26.5222488 61.786321,26.5294322 61.2670617,27.0435605 L57.485499,30.8251232 L53.7039364,27.0435605 Z" id="Fill-1" fill="#00CFFF"></path>
                <path d="M53.7039364,27.0435605 C53.184677,26.5314846 52.2846959,26.5263536 51.7685152,27.0435605 C51.5099117,27.302164 51.3662431,27.6449162 51.3662431,28.0112711 C51.3662431,28.3755736 51.5099117,28.7183258 51.7685152,28.9748769 L55.5500778,32.763623 L51.7685152,36.5431332 C51.5099117,36.8007105 51.3693217,37.1444889 51.3693217,37.5077652 C51.3693217,37.8771987 51.5099117,38.219951 51.7685152,38.4785544 C52.2857221,38.9926828 53.1826246,38.9926828 53.7039364,38.4785544 L57.485499,34.6939132 L61.2670617,38.4785544 C61.7842686,38.9926828 62.6863021,38.9926828 63.2024829,38.4785544 C63.4590339,38.219951 63.6027025,37.8771987 63.6027025,37.5077652 C63.6027025,37.1444889 63.4610863,36.8007105 63.2024829,36.5451856 L59.4188678,32.763623 L63.2024829,28.9769293 C63.4610863,28.7183258 63.6027025,28.3755736 63.6027025,28.0112711 C63.6027025,27.6449162 63.4610863,27.302164 63.2024829,27.0456129 C62.6863021,26.5222488 61.786321,26.5294322 61.2670617,27.0435605 L57.485499,30.8251232 L53.7039364,27.0435605 L53.7039364,27.0435605 Z" id="Stroke-3" stroke="#FFFFFF" stroke-width="0.5"></path>
                <path d="M74.5343433,54.0303719 L58.8529162,57.8263014 L58.8529162,44.1952304 C58.8529162,43.4409703 58.2402722,42.826274 57.4860121,42.826274 C56.7296996,42.826274 56.1191081,43.4419965 56.1191081,44.1952304 L56.1191081,57.8263014 L40.1790775,54.0252409 L40.1790775,40.6394327 C40.1790775,39.8831202 39.5356474,39.2673976 38.7413653,39.2673976 C37.9481095,39.2673976 37.3036532,39.8831202 37.3036532,40.6394327 L37.3036532,54.0252409 L21.3646488,57.8263014 L21.3646488,41.8534323 C21.3646488,41.0971198 20.7540573,40.4813973 19.9967186,40.4813973 C19.2434847,40.4813973 18.6298145,41.0971198 18.6298145,41.8534323 L18.6298145,57.8263014 L2.94838742,54.0303719 L2.94838742,38.8261298 L3.54563829,38.6352558 C7.50576048,37.3504481 11.593132,36.2749861 15.6897393,35.4334986 C16.4080823,35.3277995 16.9109224,34.7459417 16.9109224,34.0737779 C16.9109224,33.2333167 16.0909852,32.5775722 15.2874673,32.727398 C11.5407956,33.4867891 7.75923293,34.4544997 4.06489764,35.5956388 L2.94838742,35.9414697 L2.94838742,3.36872068 L18.6298145,7.16465019 L18.6298145,24.708638 C18.6349455,25.4536623 19.2506681,26.0622014 19.9967186,26.0622014 C20.7437953,26.0622014 21.3595178,25.4536623 21.3646488,24.7014546 L21.3646488,7.16978121 L37.3036532,3.36461586 L37.3036532,23.1888295 C37.3036532,23.945142 37.9481095,24.5608646 38.7413653,24.5608646 C39.5356474,24.5608646 40.1790775,23.945142 40.1790775,23.1888295 L40.1790775,3.36461586 L56.1191081,7.16978121 L56.1191081,21.3242164 C56.1191081,22.0805289 56.7296996,22.6983039 57.4860121,22.6983039 C58.2402722,22.6983039 58.8529162,22.0825813 58.8529162,21.3262688 L58.8529162,7.16465019 L74.5343433,3.36872068 L74.5343433,54.0303719 Z M77.2004219,1.08131141 C77.0711202,0.68622278 76.5262057,0.26342663 75.9012473,0.26342663 C75.7606573,0.265479039 75.5041063,0.319867864 75.492818,0.319867864 L57.7210129,4.73151992 L39.1169561,0.301396187 C38.7978066,0.221352256 38.5063646,0.265479039 38.3657746,0.301396187 L19.7617178,4.73562474 L1.9529693,0.314736842 C1.94783828,0.314736842 1.71283751,0.265479039 1.58148336,0.26342663 C0.956524978,0.26342663 0.411610523,0.68622278 0.256653682,1.29270949 L0.282308788,55.6558795 C0.378771987,55.9237188 0.747179312,56.2972571 1.21923327,56.4234802 L19.5934203,60.8679708 C19.9074388,60.9551982 20.1188369,60.9480148 20.3558901,60.8792591 L38.0692016,56.6512976 C38.3042023,56.6071708 38.5156004,56.5835681 38.7269985,56.5835681 C38.9671303,56.5835681 39.1785283,56.6071708 39.377612,56.6451404 L57.0940021,60.8700232 C57.3987847,60.9572506 57.6081304,60.9480148 57.8544194,60.8751543 L76.2819691,56.4193754 C76.7355514,56.2972571 77.1039587,55.9237188 77.226077,55.4444814 L77.2004219,1.08131141 Z" id="Fill-5" fill="#00CFFF"></path>
                <path d="M74.5343433,54.0303719 L58.8529162,57.8263014 L58.8529162,44.1952304 C58.8529162,43.4409703 58.2402722,42.826274 57.4860121,42.826274 C56.7296996,42.826274 56.1191081,43.4419965 56.1191081,44.1952304 L56.1191081,57.8263014 L40.1790775,54.0252409 L40.1790775,40.6394327 C40.1790775,39.8831202 39.5356474,39.2673976 38.7413653,39.2673976 C37.9481095,39.2673976 37.3036532,39.8831202 37.3036532,40.6394327 L37.3036532,54.0252409 L21.3646488,57.8263014 L21.3646488,41.8534323 C21.3646488,41.0971198 20.7540573,40.4813973 19.9967186,40.4813973 C19.2434847,40.4813973 18.6298145,41.0971198 18.6298145,41.8534323 L18.6298145,57.8263014 L2.94838742,54.0303719 L2.94838742,38.8261298 L3.54563829,38.6352558 C7.50576048,37.3504481 11.593132,36.2749861 15.6897393,35.4334986 C16.4080823,35.3277995 16.9109224,34.7459417 16.9109224,34.0737779 C16.9109224,33.2333167 16.0909852,32.5775722 15.2874673,32.727398 C11.5407956,33.4867891 7.75923293,34.4544997 4.06489764,35.5956388 L2.94838742,35.9414697 L2.94838742,3.36872068 L18.6298145,7.16465019 L18.6298145,24.708638 C18.6349455,25.4536623 19.2506681,26.0622014 19.9967186,26.0622014 C20.7437953,26.0622014 21.3595178,25.4536623 21.3646488,24.7014546 L21.3646488,7.16978121 L37.3036532,3.36461586 L37.3036532,23.1888295 C37.3036532,23.945142 37.9481095,24.5608646 38.7413653,24.5608646 C39.5356474,24.5608646 40.1790775,23.945142 40.1790775,23.1888295 L40.1790775,3.36461586 L56.1191081,7.16978121 L56.1191081,21.3242164 C56.1191081,22.0805289 56.7296996,22.6983039 57.4860121,22.6983039 C58.2402722,22.6983039 58.8529162,22.0825813 58.8529162,21.3262688 L58.8529162,7.16465019 L74.5343433,3.36872068 L74.5343433,54.0303719 L74.5343433,54.0303719 Z M77.2004219,1.08131141 C77.0711202,0.68622278 76.5262057,0.26342663 75.9012473,0.26342663 C75.7606573,0.265479039 75.5041063,0.319867864 75.492818,0.319867864 L57.7210129,4.73151992 L39.1169561,0.301396187 C38.7978066,0.221352256 38.5063646,0.265479039 38.3657746,0.301396187 L19.7617178,4.73562474 L1.9529693,0.314736842 C1.94783828,0.314736842 1.71283751,0.265479039 1.58148336,0.26342663 C0.956524978,0.26342663 0.411610523,0.68622278 0.256653682,1.29270949 L0.282308788,55.6558795 C0.378771987,55.9237188 0.747179312,56.2972571 1.21923327,56.4234802 L19.5934203,60.8679708 C19.9074388,60.9551982 20.1188369,60.9480148 20.3558901,60.8792591 L38.0692016,56.6512976 C38.3042023,56.6071708 38.5156004,56.5835681 38.7269985,56.5835681 C38.9671303,56.5835681 39.1785283,56.6071708 39.377612,56.6451404 L57.0940021,60.8700232 C57.3987847,60.9572506 57.6081304,60.9480148 57.8544194,60.8751543 L76.2819691,56.4193754 C76.7355514,56.2972571 77.1039587,55.9237188 77.226077,55.4444814 L77.2004219,1.08131141 L77.2004219,1.08131141 Z" id="Stroke-7" stroke="#FFFFFF" stroke-width="0.5"></path>
                <path d="M34.2150863,30.4660543 C34.193536,30.4681067 27.5601517,30.8652477 24.290665,31.2644412 C23.6051606,31.3496162 23.0859012,31.931474 23.0859012,32.6221094 C23.0838488,33.4533349 23.8678689,34.0977911 24.6806226,33.9705418 C27.9480569,33.5713483 34.2879468,33.1834431 34.5557861,33.1670239 C35.1099364,33.0633772 35.5840427,32.4979387 35.5840427,31.8350108 C35.5840427,31.0786982 34.9693464,30.4660543 34.2150863,30.4660543" id="Fill-9" fill="#00CFFF"></path>
                <path d="M34.2150863,30.4660543 C34.193536,30.4681067 27.5601517,30.8652477 24.290665,31.2644412 C23.6051606,31.3496162 23.0859012,31.931474 23.0859012,32.6221094 C23.0838488,33.4533349 23.8678689,34.0977911 24.6806226,33.9705418 C27.9480569,33.5713483 34.2879468,33.1834431 34.5557861,33.1670239 C35.1099364,33.0633772 35.5840427,32.4979387 35.5840427,31.8350108 C35.5840427,31.0786982 34.9693464,30.4660543 34.2150863,30.4660543 L34.2150863,30.4660543 Z" id="Stroke-11" stroke="#FFFFFF" stroke-width="0.3"></path>
                <path d="M46.0512234,30.5975111 C46.0419876,30.5975111 43.2281355,30.4661569 43.2281355,30.4661569 C42.5138974,30.4661569 41.9002273,31.0788009 41.9002273,31.8351134 C41.9002273,32.5893735 42.5138974,33.2050961 43.2681575,33.2050961 L43.7166088,33.2235677 C44.4400828,33.2564063 45.8911356,33.3272144 46.0625117,33.3333716 C46.812667,33.3272144 47.4181275,32.7135442 47.4181275,31.9644151 C47.4181275,31.2132336 46.807536,30.5975111 46.0512234,30.5975111" id="Fill-13" fill="#00CFFF"></path>
                <path d="M46.0512234,30.5975111 C46.0419876,30.5975111 43.2281355,30.4661569 43.2281355,30.4661569 C42.5138974,30.4661569 41.9002273,31.0788009 41.9002273,31.8351134 C41.9002273,32.5893735 42.5138974,33.2050961 43.2681575,33.2050961 L43.7166088,33.2235677 C44.4400828,33.2564063 45.8911356,33.3272144 46.0625117,33.3333716 C46.812667,33.3272144 47.4181275,32.7135442 47.4181275,31.9644151 C47.4181275,31.2132336 46.807536,30.5975111 46.0512234,30.5975111 L46.0512234,30.5975111 Z" id="Stroke-15" stroke="#FFFFFF" stroke-width="0.3"></path>
            </g>
        </g>
    </g>
</svg>