<?xml version="1.0" encoding="utf-8"?>
<!-- Generator: Adobe Illustrator 18.1.0, SVG Export Plug-In . SVG Version: 6.00 Build 0)  -->
<svg version="1.1" id="Layer_1_b97619" xmlns="http://www.w3.org/2000/svg" xmlns:xlink="http://www.w3.org/1999/xlink" x="0px" y="0px"
	 width="24px" height="24px" viewBox="0 0 24 24" enable-background="new 0 0 24 24" xml:space="preserve">
<g>
	<path d="M16.2725,13.3145L16.2725,13.3145c-0.126,0-0.3135-0.0361-0.4883-0.208c-0.0654-0.0645-0.1504-0.1123-0.2578-0.1738
		c-0.2109-0.1201-0.499-0.2832-0.7275-0.6475c-0.0801-0.127-0.1396-0.2354-0.1875-0.3252c-0.4131,0.1133-0.7354-0.085-0.8242-0.2134
		c-0.0869-0.1255-0.167-0.3428-0.0479-0.667l0.001-0.001c-0.3613,0.0029-0.4941,0.0317-0.54,0.0562
		c-0.3291,0.3901-1.0889,0.4536-1.5308,0.022l-0.103-0.104c-0.0239-0.0249-0.0532-0.0547-0.0786-0.0796
		c-0.1104,0.062-0.1597,0.0981-0.2041,0.1299c-0.1475,0.1055-0.3306,0.2373-0.5894,0.2373c-0.3159,0-0.563-0.2007-0.7627-0.397
		c-0.3613-0.353-0.6543-0.4307-0.7368-0.4307c-0.0332,0.0024-0.0728,0.0117-0.1162,0.02c-0.1289,0.0249-0.2739,0.0498-0.4038,0.0498
		c-0.4585,0-0.7769-0.2959-0.7925-0.7358C7.8584,9.8105,7.686,9.7061,7.5781,9.6704C7.4634,9.6323,7.3667,9.5537,7.3052,9.4497
		c-0.0894-0.1514-0.5278-0.9404-0.3535-1.563c0.0557-0.2007,0.0576-0.2705,0.0601-0.376c0.0024-0.1089,0.0059-0.2222,0.0405-0.4097
		c0.0103-0.0542,0.0063-0.0879-0.0024-0.1553c-0.0312-0.25-0.0342-0.5254,0.2925-0.895C7.7949,5.541,7.8237,5.3569,7.8247,5.3491
		C7.7939,4.5073,8.2593,4.166,8.6553,4.0303c0.335-0.1162,0.835-0.4365,0.998-0.5806C9.6807,3.3779,9.7227,3.3101,9.7783,3.25
		c0.2812-0.3037,0.9287-0.3931,1.1333-0.4004c0.2305-0.0088,0.5879-0.0972,0.6758-0.1543c0.2251-0.2598,0.6724-0.2822,0.8032-0.2822
		c0.2998,0,0.5586,0.0923,0.7295,0.2593c0.043,0.0425,0.1084,0.0796,0.1572,0.1001c0.3662-0.312,1.04-0.2944,1.3574,0.0166
		c0.0986,0.0962,0.1533,0.2148,0.1934,0.3232c0.3066-0.1021,0.7021-0.0005,0.9355,0.0938l0.1289,0.0488
		c0.2607,0.0874,0.4141,0.291,0.5156,0.4355c0.4697-0.0854,0.7979,0.2998,0.9482,0.499c0.0244,0.0327,0.0459,0.064,0.0684,0.0864
		c0.1182,0.1167,0.1787,0.2544,0.2227,0.355c0.0059,0.0132,0.0127,0.0298,0.0205,0.0454c0.6299,0.0308,0.9521,0.5088,0.9688,0.981
		c-0.0049-0.0107,0.166,0.1328,0.2412,0.2065c0.2393,0.2344,0.5811,0.8208,0.5957,1.2451c0.0049,0.1562-0.0293,0.29-0.0566,0.3975
		c-0.0049,0.019-0.0107,0.0381-0.0146,0.0566c0.3516,0.3926,0.4756,1.0542,0.1025,1.4761c-0.0361,0.0405-0.0635,0.0728-0.084,0.0981
		c0.3643,0.5088-0.1064,1.0391-0.292,1.2485c-0.0713,0.0806-0.0752,0.2085-0.0654,0.46c0.001,0.04,0.0088,0.0786,0.0156,0.1162
		c0.0303,0.1772,0.082,0.4746-0.127,0.7324c-0.1445,0.1772-0.3672,0.2725-0.6611,0.2832c-0.4111,0.0146-0.7061,0.1289-0.9023,0.3516
		c-0.0771,0.0869-0.1504,0.1943-0.2217,0.2979C16.9443,12.9492,16.6914,13.3145,16.2725,13.3145z M14.8506,10.917
		c0.3633,0.0449,0.5146,0.3306,0.6182,0.5254c0.043,0.0815,0.0977,0.1851,0.1777,0.311c0.0938,0.1509,0.2051,0.2139,0.374,0.3101
		c0.0713,0.04,0.1475,0.084,0.2246,0.1357c0.0352-0.0479,0.0703-0.0986,0.0996-0.1406c0.0947-0.1377,0.1934-0.2778,0.2949-0.3921
		c0.3477-0.3936,0.8291-0.6211,1.4326-0.6768c-0.0049-0.041-0.0078-0.0752-0.0088-0.1089c-0.0107-0.3057-0.0273-0.769,0.3164-1.1577
		c0.0332-0.0376,0.0791-0.0884,0.1162-0.1343c-0.1816-0.2632-0.2324-0.6616,0.2617-1.2144
		c-0.0215,0.0073-0.0469-0.0928-0.1074-0.1514c-0.3584-0.3501-0.2529-0.7646-0.2021-0.9639
		c0.0098-0.0391,0.0254-0.0981,0.0254-0.1182c-0.0107-0.1152-0.1904-0.4604-0.2939-0.5625
		c-0.2344-0.2285-0.5273-0.5142-0.543-0.8833c-0.623-0.0205-0.8281-0.4868-0.9053-0.6626
		c-0.0586-0.0928-0.1152-0.1636-0.1738-0.2422c-0.0166-0.022-0.0391-0.0513-0.0605-0.0781
		c-0.0479,0.0171-0.1191,0.0283-0.1914,0.0283c-0.3809,0.0005-0.5889-0.2949-0.7002-0.4536
		c-0.0273-0.0386-0.0674-0.0967-0.0859-0.1128c-0.0059,0.0054-0.0674-0.0156-0.1279-0.0405
		c-0.0957-0.0381-0.1777-0.0713-0.2344-0.0713c-0.0127,0-0.0498,0-0.1211,0.0371c-0.1279,0.0659-0.2559,0.0991-0.3799,0.0991
		c-0.5166,0-0.6836-0.4937-0.7461-0.6797c-0.126,0.1753-0.3418,0.2695-0.5811,0.2695c-0.3682,0-0.7197-0.2163-0.9082-0.4014
		c-0.1016,0.0259-0.1592,0.042-0.1738,0.0498c-0.3105,0.3647-1.2896,0.4116-1.2993,0.4116
		c-0.1279,0.0049-0.3203,0.0527-0.4224,0.0918c-0.3413,0.5669-1.5298,1.0303-1.5439,1.0352
		c-0.1021,0.0352-0.168,0.0576-0.1577,0.3521c0.0122,0.3745-0.2139,0.8018-0.7329,1.3867C8.041,6.7705,8.0293,6.7959,8.0288,6.7969
		c0.0264,0.127,0.0454,0.2817,0.0063,0.4883c-0.021,0.1133-0.022,0.1831-0.0239,0.2495C8.0073,7.7046,7.9976,7.8584,7.9146,8.1558
		c-0.0312,0.1123,0.063,0.4092,0.1782,0.6479c0.2407,0.1152,0.6191,0.354,0.7461,0.7573C8.856,9.5576,8.8726,9.5542,8.8887,9.5508
		c0.1045-0.02,0.1997-0.0352,0.27-0.0376c0.001,0,0.0015,0,0.002,0c0.4766,0,1.0127,0.2681,1.4707,0.7158
		c0.0264,0.0259,0.0483,0.0464,0.0674,0.063c0.0005-0.0005,0.001-0.001,0.0015-0.001c0.0708-0.0508,0.1514-0.1084,0.2495-0.167
		c0.1987-0.1187,0.3833-0.1763,0.5649-0.1763c0.3726,0,0.6016,0.2358,0.7695,0.4082l0.085,0.0869l0.4951,0.3271l-0.375-0.3306
		c0.293-0.3335,0.8125-0.3613,1.3193-0.3613l0.1836,0.0005l0.1357-0.0015c0.001,0,0.002,0,0.0029,0
		c0.374,0,0.5479,0.1504,0.6348,0.2764C14.8896,10.5337,14.8936,10.7246,14.8506,10.917z"/>
	<path d="M9.9985,23.8115c-0.2021,0-0.3911-0.123-0.4668-0.3213l-0.0532-0.1387c-0.1895-0.4824-0.1855-0.9512-0.1816-1.4043
		c0.0059-0.6787,0.0112-1.2646-0.6152-1.9502c-0.1147-0.125-0.208-0.2363-0.2896-0.334c-0.2627-0.3164-0.2676-0.3223-0.543-0.3223
		c-0.1987,0-0.4878,0.0303-0.9375,0.0986c-1.2339,0.1992-2.8003-0.5625-2.8003-2.1641c0-0.5645-0.0293-0.7031-0.042-0.7363
		c-0.4263-0.4219-0.4238-0.8262-0.3066-1.1582c-0.2559-0.2041-0.395-0.4941-0.395-0.8418c0-0.0449,0.0381-0.2793,0.0933-0.5605
		c0.0181-0.0938,0.0376-0.1934,0.0566-0.292c-0.4658,0-1.1748-0.0049-1.4678-0.7236c-0.3042-0.7451,0.3037-1.3555,0.5635-1.6157
		c0.7915-0.7915,1.2832-2.8975,1.4072-4.0396c0.4199-5.1973,4.9546-7.0464,8.71-7.0464c3.9727,0,8.4912,2.0542,9.042,5.8618
		c0.5752,3.9849,0.3174,4.4287-1.1133,6.8936l-0.1514,0.2578c-0.7617,1.2891-2.3467,3.9707-1.8877,7.5684
		c0.0312,0.2432-0.1191,0.4736-0.3545,0.543l-8.125,2.4053C10.0933,23.8047,10.0454,23.8115,9.9985,23.8115z M7.8491,18.3408
		c0.7441,0,1.0073,0.3164,1.312,0.6826c0.0723,0.0869,0.1548,0.1865,0.2578,0.2988c0.8926,0.9756,0.8843,1.8955,0.8779,2.6338
		c-0.002,0.2686-0.0044,0.5107,0.0332,0.7354l7.252-2.1465c-0.334-3.7207,1.2764-6.4453,2.0645-7.7793l0.1475-0.251
		c1.3711-2.3613,1.5146-2.6084,0.9883-6.249c-0.4697-3.2505-4.499-5.0044-8.0518-5.0044c-3.4893,0-7.3486,1.6133-7.7144,6.1411
		c-0.0049,0.0464-0.376,3.332-1.6953,4.6514c-0.2646,0.2656-0.3809,0.4443-0.3452,0.5322c0.0293,0.0723,0.0889,0.1289,0.5225,0.1006
		c0.23,0,0.4697,0.001,0.709,0.0527c0.25,0.0537,0.4189,0.2871,0.3916,0.542c-0.02,0.1875-0.0947,0.5723-0.1567,0.8896
		c-0.0366,0.1875-0.0688,0.3477-0.0762,0.4072l0,0c0.002,0,0.0029,0.0479,0.1973,0.0977c0.1543,0.04,0.2803,0.1504,0.3398,0.2988
		c0.0591,0.1475,0.0444,0.3145-0.04,0.4502c-0.061,0.0977-0.1616,0.2598-0.1719,0.3203c0.0034,0.001,0.0205,0.0303,0.0708,0.0811
		c0.291,0.292,0.3496,0.5352,0.3496,1.4492c0,0.9316,0.9121,1.293,1.6465,1.1758C7.2695,18.374,7.5947,18.3408,7.8491,18.3408z"/>
</g>
<rect x="0.0142" y="-0.003" fill="none" width="24" height="24"/>
</svg>
