<?xml version="1.0" encoding="utf-8"?>
<!-- Generator: Adobe Illustrator 18.1.0, SVG Export Plug-In . SVG Version: 6.00 Build 0)  -->
<svg version="1.1" id="Layer_1_ed35a830" xmlns="http://www.w3.org/2000/svg" xmlns:xlink="http://www.w3.org/1999/xlink" x="0px" y="0px"
	 width="24px" height="24px" viewBox="0 0 24 24" enable-background="new 0 0 24 24" xml:space="preserve">
<g>
	<path d="M21.5195,17.001c-0.2764,0-0.5-0.2236-0.5-0.5V5.2041c0-0.1216-0.0986-0.2207-0.2197-0.2207H3.1987
		c-0.1216,0-0.2202,0.0991-0.2202,0.2207V16.501c0,0.2764-0.2236,0.5-0.5,0.5s-0.5-0.2236-0.5-0.5V5.2041
		c0-0.6729,0.5474-1.2207,1.2202-1.2207h17.6011c0.6729,0,1.2197,0.5479,1.2197,1.2207V16.501
		C22.0195,16.7773,21.7959,17.001,21.5195,17.001z"/>
	<path d="M22.6953,21.0303H1.3022c-0.7163,0-1.2993-0.583-1.2993-1.2998v-1.2002c0-0.2764,0.2236-0.5,0.5-0.5h10.2573
		c0.2764,0,0.5,0.2236,0.5,0.5v0.3037l1.5425-0.0654l-0.0645-0.2383c0-0.2764,0.2236-0.5,0.5-0.5h10.2568
		c0.2764,0,0.5,0.2236,0.5,0.5v1.2002C23.9951,20.4473,23.4121,21.0303,22.6953,21.0303z M1.0029,19.0303v0.7002
		c0,0.165,0.1343,0.2998,0.2993,0.2998h21.3931c0.165,0,0.2998-0.1348,0.2998-0.2998v-0.7002h-9.2773
		c-0.0908,0.4219-0.4668,0.7383-0.915,0.7383h-1.6079c-0.4482,0-0.8232-0.3164-0.9141-0.7383H1.0029z"/>
	<path d="M15.2432,15.0039H8.7549c-0.4121,0-0.7476-0.3389-0.7476-0.7549v-0.8945c0-0.3096,0.1924-0.5928,0.4785-0.7031
		c1.5366-0.6035,2.0137-0.9082,2.1577-1.0264v-0.0068c-0.1973-0.2471-0.355-0.5469-0.4644-0.8823
		c-0.1567-0.1631-0.2603-0.375-0.2915-0.603c-0.0322-0.2324,0.0103-0.4619,0.1196-0.6636V8.8159
		c0-1.167,0.7632-1.8921,1.9917-1.8921c1.2471,0,1.9912,0.7075,1.9912,1.8921v0.6533c0.1104,0.2026,0.1523,0.4336,0.1191,0.6665
		c-0.0312,0.2275-0.1357,0.4385-0.291,0.6006c-0.1094,0.3345-0.2666,0.6338-0.4639,0.8813v0.0342
		c0.0938,0.0586,0.5352,0.3638,2.1592,0.9995c0.2842,0.1104,0.4766,0.3936,0.4766,0.7031v0.8945
		C15.9902,14.665,15.6553,15.0039,15.2432,15.0039z M9.0073,14.0039h5.9829v-0.4834c-2.0215-0.8027-2.4932-1.1914-2.6143-1.5854
		c-0.0137-0.0474-0.0215-0.0967-0.0215-0.1465v-0.3579c0-0.1294,0.0498-0.2534,0.1396-0.3467
		c0.1758-0.1831,0.3193-0.4526,0.4033-0.7598c0.0312-0.1113,0.0986-0.2085,0.1934-0.2754
		c-0.0713-0.0889-0.1006-0.3184-0.1006-0.4321V8.8159c0-0.6172-0.3057-0.8921-0.9912-0.8921c-0.6768,0-0.9917,0.2837-0.9917,0.8921
		v0.8008c0,0.1138-0.0386,0.2241-0.1099,0.3125c0.0933,0.0669,0.1714,0.2842,0.2017,0.3945
		c0.085,0.3081,0.2285,0.5776,0.4043,0.7598c0.0898,0.0933,0.1401,0.2178,0.1401,0.3472v0.3579c0,0.0498-0.0073,0.0991-0.022,0.147
		c-0.1206,0.3926-0.5923,0.7812-2.6143,1.585V14.0039z"/>
</g>
<rect fill="none" width="24" height="24"/>
</svg>
