<?xml version="1.0" encoding="utf-8"?>
<!-- Generator: Adobe Illustrator 18.1.0, SVG Export Plug-In . SVG Version: 6.00 Build 0)  -->
<svg version="1.1" id="Layer_1_6a265e2f" xmlns="http://www.w3.org/2000/svg" xmlns:xlink="http://www.w3.org/1999/xlink" x="0px" y="0px"
	 width="24px" height="24px" viewBox="0 0 24 24" enable-background="new 0 0 24 24" xml:space="preserve">
<g>
	<path d="M18.5791,21.9287c-0.0273,0-0.0557-0.002-0.083-0.0068L0.645,18.9385c-0.2725-0.0459-0.4561-0.3027-0.4106-0.5752
		L2.0327,7.5996c0.022-0.1309,0.0947-0.2476,0.2026-0.3247C2.3438,7.1982,2.478,7.168,2.6084,7.189l8.7627,1.4648
		c0.2725,0.0454,0.4561,0.3032,0.4106,0.5757c-0.0459,0.272-0.3032,0.457-0.5757,0.4106L2.9365,8.2578l-1.6333,9.7764
		l16.8657,2.8193l0.8848-5.2021c0.0469-0.2725,0.3115-0.4521,0.5771-0.4092c0.2725,0.0469,0.4551,0.3047,0.4092,0.5771
		l-0.9688,5.6934C19.0293,21.7568,18.8184,21.9287,18.5791,21.9287z"/>
	<path d="M3.6255,19.4297c-0.0273,0-0.0547-0.002-0.083-0.0068c-0.272-0.0459-0.4561-0.3027-0.4106-0.5752
		c0.2212-1.3262-0.6772-2.585-2.0029-2.8066c-0.2725-0.0459-0.4561-0.3037-0.4106-0.5752c0.0454-0.2734,0.3013-0.4619,0.5757-0.4111
		c1.8691,0.3125,3.1362,2.0879,2.8242,3.957C4.0771,19.2568,3.8657,19.4297,3.6255,19.4297z"/>
	<path d="M15.5381,21.3574c-0.0312,0-0.0615-0.0029-0.0928-0.0088c-0.2715-0.0508-0.4502-0.3115-0.3994-0.583
		c0.3604-1.9258,2.1777-3.165,4.1279-2.8252c0.2725,0.0469,0.4541,0.3057,0.4062,0.5781c-0.0469,0.2725-0.3125,0.459-0.5781,0.4062
		c-1.4355-0.2451-2.7109,0.6211-2.9736,2.0244C15.9834,21.1895,15.7734,21.3574,15.5381,21.3574z"/>
	<path d="M2.5278,11.1201c-0.188,0-0.3774-0.0156-0.5688-0.0474c-0.2725-0.0454-0.4561-0.3032-0.4106-0.5757
		s0.3022-0.4565,0.5757-0.4106c1.3218,0.2207,2.5845-0.6763,2.8062-2.0024C4.9756,7.812,5.231,7.625,5.5059,7.6733
		C5.7783,7.7188,5.9619,7.9766,5.9165,8.249C5.6357,9.9272,4.1758,11.1201,2.5278,11.1201z"/>
	<path d="M14.2822,10.9253c-2.5605,0-4.644-2.083-4.644-4.6436s2.0835-4.644,4.644-4.644s4.6436,2.0835,4.6436,4.644
		c0,0.4893-0.0762,1.0151-0.209,1.4419c-0.0811,0.2637-0.3594,0.4106-0.626,0.3291c-0.2637-0.082-0.4111-0.3623-0.3291-0.626
		c0.1025-0.3301,0.1641-0.7578,0.1641-1.145c0-2.0093-1.6348-3.644-3.6436-3.644c-2.0098,0-3.644,1.6348-3.644,3.644
		s1.6343,3.6436,3.644,3.6436c0.2881,0,0.5986-0.0332,0.8525-0.0908c0.2793-0.0669,0.5371,0.1079,0.5986,0.376
		c0.0615,0.2695-0.1074,0.5376-0.376,0.5986C15.0293,10.8843,14.6475,10.9253,14.2822,10.9253z"/>
	<path d="M19.1963,16.251c-2.5605,0-4.6436-2.083-4.6436-4.6436s2.083-4.644,4.6436-4.644s4.6436,2.0835,4.6436,4.644
		S21.7568,16.251,19.1963,16.251z M19.1963,7.9634c-2.0088,0-3.6436,1.6348-3.6436,3.644c0,2.0088,1.6348,3.6436,3.6436,3.6436
		s3.6436-1.6348,3.6436-3.6436C22.8398,9.5981,21.2051,7.9634,19.1963,7.9634z"/>
	<path d="M10.2612,17.79c-0.1411,0-0.2837-0.0127-0.4258-0.04c-0.6411-0.1201-1.4238-0.6279-1.9033-1.2354
		c-0.1709-0.2168-0.1338-0.5312,0.0825-0.7021c0.2183-0.1699,0.5317-0.1328,0.7026,0.083c0.3262,0.4131,0.8984,0.7959,1.3032,0.8721
		c0.2915,0.0518,0.5801,0.0107,0.8145-0.1279c0.2119-0.124,0.3506-0.3115,0.3911-0.5264c0.0425-0.2256-0.0166-0.585-1.0176-1.0938
		c-0.5381-0.2861-1.7783-0.9482-1.5469-2.1709c0.0947-0.502,0.4023-0.9292,0.8667-1.2026c0.4424-0.2603,0.9785-0.3491,1.5063-0.2485
		c0.7129,0.1348,1.3159,0.6055,1.5757,1.2275c0.1055,0.2549-0.0146,0.5479-0.2695,0.6543
		c-0.2559,0.1035-0.5479-0.0146-0.6538-0.2695c-0.1313-0.3154-0.4526-0.5566-0.8379-0.6299
		c-0.2925-0.0547-0.5806-0.0098-0.814,0.1279c-0.2114,0.125-0.3506,0.3115-0.3911,0.5264c-0.0493,0.2598,0.041,0.5732,1.0264,1.0986
		c0.4326,0.2197,1.7769,0.9033,1.5386,2.166c-0.0947,0.5029-0.4028,0.9297-0.8672,1.2031
		C11.0186,17.6924,10.6455,17.79,10.2612,17.79z"/>
	<path d="M9.7407,18.7578c-0.0308,0-0.062-0.0029-0.0933-0.0088c-0.2715-0.0508-0.4497-0.3125-0.3984-0.584l1.3896-7.3677
		c0.0508-0.2705,0.3135-0.4463,0.584-0.3984c0.2715,0.0513,0.4497,0.3125,0.3984,0.584l-1.3896,7.3677
		C10.1865,18.5908,9.9766,18.7578,9.7407,18.7578z"/>
	<path d="M19.3477,14.1562c-0.5156,0-1.1943-0.2773-1.6523-0.6738c-0.208-0.1816-0.2305-0.4971-0.0498-0.7061
		c0.1816-0.207,0.4971-0.2305,0.7061-0.0498c0.2725,0.2373,0.7197,0.4297,0.9961,0.4297c0.3623,0,0.668-0.2393,0.668-0.5215
		c0-0.2021-0.2715-0.3838-0.8086-0.541c-0.4629-0.145-1.5273-0.478-1.5273-1.501c0-0.8389,0.748-1.521,1.668-1.521
		c0.584,0,1.1328,0.2837,1.4316,0.7407c0.1514,0.231,0.0869,0.541-0.1436,0.6924c-0.2314,0.1494-0.541,0.0874-0.6924-0.1445
		c-0.1172-0.1782-0.3447-0.2886-0.5957-0.2886c-0.3623,0-0.668,0.2388-0.668,0.521c0,0.1426,0.0967,0.3184,0.8174,0.5439
		c0.3691,0.1074,1.5186,0.4438,1.5186,1.498C21.0156,13.4736,20.2676,14.1562,19.3477,14.1562z"/>
	<path d="M19.3477,10.0718c-0.2764,0-0.5-0.2236-0.5-0.5V9.0137c0-0.2764,0.2236-0.5,0.5-0.5s0.5,0.2236,0.5,0.5v0.5581
		C19.8477,9.8481,19.624,10.0718,19.3477,10.0718z"/>
	<path d="M19.3477,14.7139c-0.2764,0-0.5-0.2236-0.5-0.5v-0.5576c0-0.2764,0.2236-0.5,0.5-0.5s0.5,0.2236,0.5,0.5v0.5576
		C19.8477,14.4902,19.624,14.7139,19.3477,14.7139z"/>
	<path d="M14.3594,8.7881c-0.5156,0-1.1943-0.2773-1.6514-0.6743c-0.208-0.1812-0.2305-0.4971-0.0488-0.7056
		c0.1807-0.2085,0.4961-0.23,0.7051-0.0493c0.2725,0.2368,0.7188,0.4292,0.9951,0.4292c0.3623,0,0.668-0.2388,0.668-0.521
		c0-0.0757,0-0.3052-0.8086-0.541c-0.4629-0.1455-1.5264-0.479-1.5264-1.5015c0-0.8389,0.748-1.521,1.667-1.521
		c0.585,0,1.1338,0.2837,1.4326,0.7407c0.1514,0.231,0.0869,0.541-0.1436,0.6924c-0.2305,0.1489-0.542,0.0874-0.6924-0.1445
		c-0.1172-0.1782-0.3457-0.2886-0.5967-0.2886c-0.3613,0-0.667,0.2388-0.667,0.521c0,0.1426,0.0967,0.3188,0.8164,0.5444
		c0.3682,0.1074,1.5186,0.4434,1.5186,1.498C16.0273,8.106,15.2793,8.7881,14.3594,8.7881z"/>
	<path d="M14.3594,4.7036c-0.2764,0-0.5-0.2236-0.5-0.5V3.646c0-0.2764,0.2236-0.5,0.5-0.5s0.5,0.2236,0.5,0.5v0.5576
		C14.8594,4.48,14.6357,4.7036,14.3594,4.7036z"/>
	<path d="M14.3594,9.2573c-0.2764,0-0.5-0.2236-0.5-0.5V8.4492c0-0.2764,0.2236-0.5,0.5-0.5s0.5,0.2236,0.5,0.5v0.3081
		C14.8594,9.0337,14.6357,9.2573,14.3594,9.2573z"/>
</g>
<rect x="0.0075" y="-0.006" fill="none" width="24" height="24"/>
</svg>
