<svg version="1.1" viewBox="0.0 0.0 600.0 371.0" fill="none" stroke="none" stroke-linecap="square" stroke-miterlimit="10" width="600" height="371" xmlns:xlink="http://www.w3.org/1999/xlink" xmlns="http://www.w3.org/2000/svg"><path fill="#ffffff" d="M0 0L600.0 0L600.0 371.0L0 371.0L0 0Z" fill-rule="nonzero"/><path stroke="#333333" stroke-width="1.0" stroke-linecap="butt" d="M77.5 300.5L581.5 300.5" fill-rule="nonzero"/><path stroke="#cccccc" stroke-width="1.0" stroke-linecap="butt" d="M77.5 252.5L581.5 252.5" fill-rule="nonzero"/><path stroke="#cccccc" stroke-width="1.0" stroke-linecap="butt" d="M77.5 205.5L581.5 205.5" fill-rule="nonzero"/><path stroke="#cccccc" stroke-width="1.0" stroke-linecap="butt" d="M77.5 157.5L581.5 157.5" fill-rule="nonzero"/><path stroke="#cccccc" stroke-width="1.0" stroke-linecap="butt" d="M77.5 109.5L581.5 109.5" fill-rule="nonzero"/><path stroke="#cccccc" stroke-width="1.0" stroke-linecap="butt" d="M77.5 61.5L581.5 61.5" fill-rule="nonzero"/><clipPath id="id_0"><path d="M77.55 61.916668L581.45 61.916668L581.45 300.45L77.55 300.45L77.55 61.916668Z" clip-rule="nonzero"/></clipPath><path stroke="#000000" stroke-width="0.0" stroke-linecap="butt" stroke-opacity="0.0" clip-path="url(#id_0)" d="M147.0 300.0L102.0 300.0L102.0 300.0L147.0 300.0Z" fill-rule="nonzero"/><path fill="#4285f4" clip-path="url(#id_0)" d="M147.0 300.0L102.0 300.0L102.0 300.0L147.0 300.0Z" fill-rule="nonzero"/><path stroke="#000000" stroke-width="0.0" stroke-linecap="butt" stroke-opacity="0.0" clip-path="url(#id_0)" d="M215.0 300.0L170.0 300.0L170.0 300.0L215.0 300.0Z" fill-rule="nonzero"/><path fill="#4285f4" clip-path="url(#id_0)" d="M215.0 300.0L170.0 300.0L170.0 300.0L215.0 300.0Z" fill-rule="nonzero"/><path stroke="#000000" stroke-width="0.0" stroke-linecap="butt" stroke-opacity="0.0" clip-path="url(#id_0)" d="M284.0 300.0L239.0 300.0L239.0 279.0C239.0 277.89542 239.89543 277.0 241.0 277.0L282.0 277.0C283.10458 277.0 284.0 277.89542 284.0 279.0Z" fill-rule="nonzero"/><path fill="#4285f4" clip-path="url(#id_0)" d="M284.0 300.0L239.0 300.0L239.0 279.0C239.0 277.89542 239.89543 277.0 241.0 277.0L282.0 277.0C283.10458 277.0 284.0 277.89542 284.0 279.0Z" fill-rule="nonzero"/><path stroke="#000000" stroke-width="0.0" stroke-linecap="butt" stroke-opacity="0.0" clip-path="url(#id_0)" d="M353.0 300.0L308.0 300.0L308.0 183.0C308.0 181.89543 308.89542 181.0 310.0 181.0L351.0 181.0C352.10458 181.0 353.0 181.89543 353.0 183.0Z" fill-rule="nonzero"/><path fill="#4285f4" clip-path="url(#id_0)" d="M353.0 300.0L308.0 300.0L308.0 183.0C308.0 181.89543 308.89542 181.0 310.0 181.0L351.0 181.0C352.10458 181.0 353.0 181.89543 353.0 183.0Z" fill-rule="nonzero"/><path stroke="#000000" stroke-width="0.0" stroke-linecap="butt" stroke-opacity="0.0" clip-path="url(#id_0)" d="M421.0 300.0L376.0 300.0L376.0 64.0C376.0 62.89543 376.89542 62.0 378.0 62.0L419.0 62.0C420.10458 62.0 421.0 62.89543 421.0 64.0Z" fill-rule="nonzero"/><path fill="#4285f4" clip-path="url(#id_0)" d="M421.0 300.0L376.0 300.0L376.0 64.0C376.0 62.89543 376.89542 62.0 378.0 62.0L419.0 62.0C420.10458 62.0 421.0 62.89543 421.0 64.0Z" fill-rule="nonzero"/><path stroke="#000000" stroke-width="0.0" stroke-linecap="butt" stroke-opacity="0.0" clip-path="url(#id_0)" d="M490.0 300.0L445.0 300.0L445.0 183.0C445.0 181.89543 445.89542 181.0 447.0 181.0L488.0 181.0C489.10458 181.0 490.0 181.89543 490.0 183.0Z" fill-rule="nonzero"/><path fill="#4285f4" clip-path="url(#id_0)" d="M490.0 300.0L445.0 300.0L445.0 183.0C445.0 181.89543 445.89542 181.0 447.0 181.0L488.0 181.0C489.10458 181.0 490.0 181.89543 490.0 183.0Z" fill-rule="nonzero"/><path stroke="#000000" stroke-width="0.0" stroke-linecap="butt" stroke-opacity="0.0" clip-path="url(#id_0)" d="M558.0 300.0L513.0 300.0L513.0 279.0C513.0 277.89542 513.89545 277.0 515.0 277.0L556.0 277.0C557.10455 277.0 558.0 277.89542 558.0 279.0Z" fill-rule="nonzero"/><path fill="#4285f4" clip-path="url(#id_0)" d="M558.0 300.0L513.0 300.0L513.0 279.0C513.0 277.89542 513.89545 277.0 515.0 277.0L556.0 277.0C557.10455 277.0 558.0 277.89542 558.0 279.0Z" fill-rule="nonzero"/><path fill="#000000" d="M181.96875 349.45L180.92188 349.45L180.92188 342.73126Q180.53125 343.09064 179.90625 343.46564Q179.29688 343.825 178.8125 343.9969L178.8125 342.98126Q179.6875 342.5594 180.34375 341.98126Q181.01562 341.3875 181.29688 340.825L181.96875 340.825L181.96875 349.45ZM188.29688 349.45L188.29688 343.23126L189.23438 343.23126L189.23438 344.10626Q189.53125 343.6375 190.01562 343.3719Q190.5 343.09064 191.125 343.09064Q191.8125 343.09064 192.25 343.3719Q192.70312 343.65314 192.875 344.16876Q193.625 343.09064 194.79688 343.09064Q195.73438 343.09064 196.21875 343.60626Q196.71875 344.10626 196.71875 345.1844L196.71875 349.45L195.67188 349.45L195.67188 345.52814Q195.67188 344.90314 195.5625 344.6219Q195.46875 344.34064 195.20312 344.16876Q194.9375 343.9969 194.5625 343.9969Q193.90625 343.9969 193.46875 344.4344Q193.04688 344.8719 193.04688 345.84064L193.04688 349.45L191.98438 349.45L191.98438 345.40314Q191.98438 344.7 191.71875 344.35626Q191.46875 343.9969 190.89062 343.9969Q190.4375 343.9969 190.0625 344.23126Q189.6875 344.46564 189.51562 344.91876Q189.34375 345.3719 189.34375 346.21564L189.34375 349.45L188.29688 349.45ZM202.54688 347.45L203.64062 347.575Q203.39062 348.52814 202.6875 349.0594Q201.98438 349.59064 200.90625 349.59064Q199.54688 349.59064 198.73438 348.7469Q197.9375 347.90314 197.9375 346.3875Q197.9375 344.825 198.75 343.96564Q199.5625 343.09064 200.84375 343.09064Q202.09375 343.09064 202.875 343.9344Q203.67188 344.77814 203.67188 346.325Q203.67188 346.41876 203.67188 346.60626L199.03125 346.60626Q199.09375 347.6375 199.60938 348.1844Q200.125 348.71564 200.90625 348.71564Q201.48438 348.71564 201.89062 348.41876Q202.3125 348.10626 202.54688 347.45ZM199.09375 345.7469L202.5625 345.7469Q202.5 344.95 202.17188 344.5594Q201.65625 343.95 200.85938 343.95Q200.125 343.95 199.625 344.4344Q199.14062 344.91876 199.09375 345.7469ZM209.35938 348.6844Q208.76562 349.1844 208.21875 349.3875Q207.6875 349.59064 207.0625 349.59064Q206.03125 349.59064 205.48438 349.09064Q204.9375 348.59064 204.9375 347.8094Q204.9375 347.35626 205.14062 346.98126Q205.34375 346.59064 205.6875 346.3719Q206.03125 346.1375 206.45312 346.02814Q206.75 345.9344 207.39062 345.85626Q208.65625 345.71564 209.26562 345.4969Q209.26562 345.27814 209.26562 345.23126Q209.26562 344.575 208.96875 344.3094Q208.5625 343.96564 207.76562 343.96564Q207.03125 343.96564 206.67188 344.23126Q206.3125 344.48126 206.14062 345.1375L205.10938 344.9969Q205.25 344.34064 205.57812 343.9344Q205.90625 343.52814 206.51562 343.3094Q207.125 343.09064 207.92188 343.09064Q208.71875 343.09064 209.21875 343.27814Q209.71875 343.46564 209.95312 343.7469Q210.1875 344.02814 210.28125 344.46564Q210.32812 344.73126 210.32812 345.4344L210.32812 346.84064Q210.32812 348.3094 210.39062 348.7Q210.46875 349.09064 210.67188 349.45L209.5625 349.45Q209.40625 349.1219 209.35938 348.6844ZM209.26562 346.325Q208.6875 346.5594 207.54688 346.73126Q206.89062 346.825 206.625 346.95Q206.35938 347.0594 206.20312 347.27814Q206.0625 347.4969 206.0625 347.77814Q206.0625 348.2 206.375 348.48126Q206.70312 348.7625 207.3125 348.7625Q207.92188 348.7625 208.39062 348.4969Q208.875 348.23126 209.09375 347.7625Q209.26562 347.40314 209.26562 346.71564L209.26562 346.325ZM212.29688 349.45L212.29688 343.23126L213.23438 343.23126L213.23438 344.10626Q213.92188 343.09064 215.21875 343.09064Q215.78125 343.09064 216.25 343.29376Q216.73438 343.4969 216.96875 343.825Q217.20312 344.15314 217.29688 344.59064Q217.34375 344.8875 217.34375 345.6219L217.34375 349.45L216.29688 349.45L216.29688 345.66876Q216.29688 345.0125 216.17188 344.7Q216.04688 344.3875 215.73438 344.2Q215.42188 343.9969 215.0 343.9969Q214.32812 343.9969 213.82812 344.4344Q213.34375 344.85626 213.34375 346.04376L213.34375 349.45L212.29688 349.45ZM218.875 347.59064L219.90625 347.4344Q220.0 348.0594 220.39062 348.3875Q220.79688 348.71564 221.53125 348.71564Q222.25 348.71564 222.59375 348.4344Q222.95312 348.1375 222.95312 347.73126Q222.95312 347.3719 222.64062 347.16876Q222.42188 347.02814 221.5625 346.8094Q220.40625 346.5125 219.95312 346.3094Q219.51562 346.09064 219.28125 345.71564Q219.04688 345.34064 219.04688 344.8719Q219.04688 344.46564 219.23438 344.10626Q219.42188 343.7469 219.75 343.5125Q220.0 343.34064 220.42188 343.21564Q220.84375 343.09064 221.34375 343.09064Q222.0625 343.09064 222.60938 343.3094Q223.17188 343.5125 223.4375 343.8719Q223.70312 344.23126 223.79688 344.825L222.76562 344.96564Q222.70312 344.4969 222.35938 344.23126Q222.03125 343.95 221.40625 343.95Q220.6875 343.95 220.375 344.2Q220.0625 344.4344 220.0625 344.7625Q220.0625 344.96564 220.1875 345.1219Q220.32812 345.29376 220.59375 345.40314Q220.75 345.46564 221.53125 345.66876Q222.65625 345.98126 223.09375 346.16876Q223.53125 346.35626 223.78125 346.71564Q224.03125 347.075 224.03125 347.6219Q224.03125 348.15314 223.71875 348.6219Q223.42188 349.075 222.84375 349.34064Q222.26562 349.59064 221.53125 349.59064Q220.3125 349.59064 219.67188 349.09064Q219.04688 348.575 218.875 347.59064ZM229.125 342.29376L229.125 343.52814L227.98438 343.52814L227.98438 342.5594Q227.98438 341.77814 228.17188 341.41876Q228.42188 340.95 228.95312 340.71564L229.21875 341.1219Q228.89062 341.2625 228.73438 341.52814Q228.57812 341.79376 228.5625 342.29376L229.125 342.29376ZM230.9375 342.29376L230.9375 343.52814L229.79688 343.52814L229.79688 342.5594Q229.79688 341.77814 229.98438 341.41876Q230.23438 340.95 230.76562 340.71564L231.03125 341.1219Q230.70312 341.2625 230.54688 341.52814Q230.40625 341.79376 230.39062 342.29376L230.9375 342.29376ZM232.04688 346.6844L233.10938 346.59064Q233.1875 347.2469 233.46875 347.65314Q233.75 348.0594 234.32812 348.325Q234.92188 348.575 235.65625 348.575Q236.29688 348.575 236.79688 348.3875Q237.29688 348.1844 237.53125 347.85626Q237.78125 347.5125 237.78125 347.1219Q237.78125 346.71564 237.54688 346.41876Q237.3125 346.10626 236.78125 345.90314Q236.42188 345.7625 235.23438 345.48126Q234.0625 345.2 233.59375 344.95Q232.96875 344.6219 232.67188 344.15314Q232.375 343.66876 232.375 343.075Q232.375 342.4344 232.73438 341.8719Q233.10938 341.29376 233.8125 341.0125Q234.53125 340.71564 235.39062 340.71564Q236.34375 340.71564 237.07812 341.02814Q237.8125 341.325 238.20312 341.9344Q238.59375 342.52814 238.625 343.27814L237.53125 343.35626Q237.4375 342.54376 236.92188 342.1375Q236.42188 341.71564 235.4375 341.71564Q234.40625 341.71564 233.9375 342.09064Q233.46875 342.46564 233.46875 342.9969Q233.46875 343.46564 233.79688 343.7625Q234.125 344.0594 235.5 344.3719Q236.89062 344.6844 237.40625 344.91876Q238.15625 345.27814 238.51562 345.8094Q238.875 346.325 238.875 347.02814Q238.875 347.71564 238.48438 348.325Q238.09375 348.91876 237.35938 349.2625Q236.625 349.59064 235.70312 349.59064Q234.53125 349.59064 233.73438 349.2625Q232.95312 348.91876 232.5 348.23126Q232.0625 347.54376 232.04688 346.6844ZM242.59375 348.5125L242.75 349.4344Q242.29688 349.52814 241.95312 349.52814Q241.375 349.52814 241.0625 349.35626Q240.75 349.16876 240.60938 348.8719Q240.48438 348.575 240.48438 347.6219L240.48438 344.04376L239.71875 344.04376L239.71875 343.23126L240.48438 343.23126L240.48438 341.6844L241.53125 341.0594L241.53125 343.23126L242.59375 343.23126L242.59375 344.04376L241.53125 344.04376L241.53125 347.6844Q241.53125 348.1375 241.57812 348.2625Q241.64062 348.3875 241.76562 348.46564Q241.89062 348.54376 242.125 348.54376Q242.3125 348.54376 242.59375 348.5125ZM243.28125 349.45L243.28125 343.23126L244.23438 343.23126L244.23438 344.16876Q244.59375 343.5125 244.89062 343.3094Q245.20312 343.09064 245.57812 343.09064Q246.10938 343.09064 246.65625 343.41876L246.29688 344.40314Q245.90625 344.16876 245.53125 344.16876Q245.17188 344.16876 244.89062 344.3875Q244.625 344.59064 244.51562 344.96564Q244.32812 345.52814 244.32812 346.1844L244.32812 349.45L243.28125 349.45ZM246.90625 346.34064Q246.90625 344.60626 247.85938 343.77814Q248.65625 343.09064 249.8125 343.09064Q251.09375 343.09064 251.90625 343.9344Q252.73438 344.7625 252.73438 346.2469Q252.73438 347.45 252.375 348.1375Q252.01562 348.825 251.3125 349.21564Q250.625 349.59064 249.8125 349.59064Q248.51562 349.59064 247.70312 348.7625Q246.90625 347.91876 246.90625 346.34064ZM247.98438 346.34064Q247.98438 347.52814 248.5 348.1219Q249.03125 348.71564 249.8125 348.71564Q250.60938 348.71564 251.125 348.1219Q251.64062 347.52814 251.64062 346.3094Q251.64062 345.15314 251.10938 344.5594Q250.59375 343.96564 249.8125 343.96564Q249.03125 343.96564 248.5 344.5594Q247.98438 345.1375 247.98438 346.34064ZM254.29688 349.45L254.29688 343.23126L255.23438 343.23126L255.23438 344.10626Q255.92188 343.09064 257.21875 343.09064Q257.78125 343.09064 258.25 343.29376Q258.73438 343.4969 258.96875 343.825Q259.20312 344.15314 259.29688 344.59064Q259.34375 344.8875 259.34375 345.6219L259.34375 349.45L258.29688 349.45L258.29688 345.66876Q258.29688 345.0125 258.17188 344.7Q258.04688 344.3875 257.73438 344.2Q257.42188 343.9969 257.0 343.9969Q256.32812 343.9969 255.82812 344.4344Q255.34375 344.85626 255.34375 346.04376L255.34375 349.45L254.29688 349.45ZM261.09375 349.96564L262.125 350.1219Q262.1875 350.59064 262.48438 350.8094Q262.875 351.10626 263.54688 351.10626Q264.28125 351.10626 264.67188 350.8094Q265.07812 350.5125 265.21875 349.9969Q265.3125 349.66876 265.29688 348.6375Q264.60938 349.45 263.57812 349.45Q262.29688 349.45 261.59375 348.52814Q260.89062 347.59064 260.89062 346.3094Q260.89062 345.41876 261.20312 344.66876Q261.53125 343.90314 262.14062 343.4969Q262.75 343.09064 263.57812 343.09064Q264.6875 343.09064 265.40625 343.98126L265.40625 343.23126L266.375 343.23126L266.375 348.60626Q266.375 350.0594 266.07812 350.66876Q265.78125 351.27814 265.14062 351.6219Q264.5 351.98126 263.5625 351.98126Q262.45312 351.98126 261.76562 351.48126Q261.07812 350.98126 261.09375 349.96564ZM261.96875 346.23126Q261.96875 347.45 262.45312 348.0125Q262.9375 348.575 263.67188 348.575Q264.40625 348.575 264.89062 348.0125Q265.39062 347.45 265.39062 346.2625Q265.39062 345.1219 264.875 344.54376Q264.375 343.96564 263.65625 343.96564Q262.95312 343.96564 262.45312 344.54376Q261.96875 345.10626 261.96875 346.23126ZM268.26562 349.45L268.26562 340.85626L269.32812 340.85626L269.32812 349.45L268.26562 349.45ZM271.25 351.84064L271.125 350.85626Q271.46875 350.95 271.73438 350.95Q272.07812 350.95 272.28125 350.825Q272.5 350.71564 272.64062 350.5125Q272.73438 350.34064 272.96875 349.71564Q272.98438 349.6375 273.0625 349.46564L270.6875 343.23126L271.82812 343.23126L273.125 346.825Q273.375 347.5125 273.57812 348.27814Q273.76562 347.54376 274.01562 346.85626L275.34375 343.23126L276.39062 343.23126L274.03125 349.5594Q273.64062 350.575 273.4375 350.96564Q273.15625 351.4969 272.78125 351.73126Q272.42188 351.98126 271.92188 351.98126Q271.625 351.98126 271.25 351.84064ZM280.42188 349.45L280.42188 340.85626L283.39062 340.85626Q284.39062 340.85626 284.92188 340.98126Q285.65625 341.15314 286.17188 341.59064Q286.85938 342.16876 287.1875 343.075Q287.53125 343.96564 287.53125 345.10626Q287.53125 346.09064 287.29688 346.84064Q287.07812 347.59064 286.71875 348.09064Q286.35938 348.59064 285.92188 348.8719Q285.5 349.15314 284.90625 349.3094Q284.3125 349.45 283.53125 349.45L280.42188 349.45ZM281.5625 348.4344L283.39062 348.4344Q284.25 348.4344 284.73438 348.27814Q285.21875 348.1219 285.5 347.825Q285.90625 347.4344 286.125 346.7469Q286.35938 346.0594 286.35938 345.09064Q286.35938 343.7469 285.90625 343.02814Q285.46875 342.29376 284.84375 342.04376Q284.375 341.8719 283.375 341.8719L281.5625 341.8719L281.5625 348.4344ZM289.29688 342.075L289.29688 340.85626L290.35938 340.85626L290.35938 342.075L289.29688 342.075ZM289.29688 349.45L289.29688 343.23126L290.35938 343.23126L290.35938 349.45L289.29688 349.45ZM291.875 347.59064L292.90625 347.4344Q293.0 348.0594 293.39062 348.3875Q293.79688 348.71564 294.53125 348.71564Q295.25 348.71564 295.59375 348.4344Q295.95312 348.1375 295.95312 347.73126Q295.95312 347.3719 295.64062 347.16876Q295.42188 347.02814 294.5625 346.8094Q293.40625 346.5125 292.95312 346.3094Q292.51562 346.09064 292.28125 345.71564Q292.04688 345.34064 292.04688 344.8719Q292.04688 344.46564 292.23438 344.10626Q292.42188 343.7469 292.75 343.5125Q293.0 343.34064 293.42188 343.21564Q293.84375 343.09064 294.34375 343.09064Q295.0625 343.09064 295.60938 343.3094Q296.17188 343.5125 296.4375 343.8719Q296.70312 344.23126 296.79688 344.825L295.76562 344.96564Q295.70312 344.4969 295.35938 344.23126Q295.03125 343.95 294.40625 343.95Q293.6875 343.95 293.375 344.2Q293.0625 344.4344 293.0625 344.7625Q293.0625 344.96564 293.1875 345.1219Q293.32812 345.29376 293.59375 345.40314Q293.75 345.46564 294.53125 345.66876Q295.65625 345.98126 296.09375 346.16876Q296.53125 346.35626 296.78125 346.71564Q297.03125 347.075 297.03125 347.6219Q297.03125 348.15314 296.71875 348.6219Q296.42188 349.075 295.84375 349.34064Q295.26562 349.59064 294.53125 349.59064Q293.3125 349.59064 292.67188 349.09064Q292.04688 348.575 291.875 347.59064ZM302.35938 348.6844Q301.76562 349.1844 301.21875 349.3875Q300.6875 349.59064 300.0625 349.59064Q299.03125 349.59064 298.48438 349.09064Q297.9375 348.59064 297.9375 347.8094Q297.9375 347.35626 298.14062 346.98126Q298.34375 346.59064 298.6875 346.3719Q299.03125 346.1375 299.45312 346.02814Q299.75 345.9344 300.39062 345.85626Q301.65625 345.71564 302.26562 345.4969Q302.26562 345.27814 302.26562 345.23126Q302.26562 344.575 301.96875 344.3094Q301.5625 343.96564 300.76562 343.96564Q300.03125 343.96564 299.67188 344.23126Q299.3125 344.48126 299.14062 345.1375L298.10938 344.9969Q298.25 344.34064 298.57812 343.9344Q298.90625 343.52814 299.51562 343.3094Q300.125 343.09064 300.92188 343.09064Q301.71875 343.09064 302.21875 343.27814Q302.71875 343.46564 302.95312 343.7469Q303.1875 344.02814 303.28125 344.46564Q303.32812 344.73126 303.32812 345.4344L303.32812 346.84064Q303.32812 348.3094 303.39062 348.7Q303.46875 349.09064 303.67188 349.45L302.5625 349.45Q302.40625 349.1219 302.35938 348.6844ZM302.26562 346.325Q301.6875 346.5594 300.54688 346.73126Q299.89062 346.825 299.625 346.95Q299.35938 347.0594 299.20312 347.27814Q299.0625 347.4969 299.0625 347.77814Q299.0625 348.2 299.375 348.48126Q299.70312 348.7625 300.3125 348.7625Q300.92188 348.7625 301.39062 348.4969Q301.875 348.23126 302.09375 347.7625Q302.26562 347.40314 302.26562 346.71564L302.26562 346.325ZM305.09375 349.96564L306.125 350.1219Q306.1875 350.59064 306.48438 350.8094Q306.875 351.10626 307.54688 351.10626Q308.28125 351.10626 308.67188 350.8094Q309.07812 350.5125 309.21875 349.9969Q309.3125 349.66876 309.29688 348.6375Q308.60938 349.45 307.57812 349.45Q306.29688 349.45 305.59375 348.52814Q304.89062 347.59064 304.89062 346.3094Q304.89062 345.41876 305.20312 344.66876Q305.53125 343.90314 306.14062 343.4969Q306.75 343.09064 307.57812 343.09064Q308.6875 343.09064 309.40625 343.98126L309.40625 343.23126L310.375 343.23126L310.375 348.60626Q310.375 350.0594 310.07812 350.66876Q309.78125 351.27814 309.14062 351.6219Q308.5 351.98126 307.5625 351.98126Q306.45312 351.98126 305.76562 351.48126Q305.07812 350.98126 305.09375 349.96564ZM305.96875 346.23126Q305.96875 347.45 306.45312 348.0125Q306.9375 348.575 307.67188 348.575Q308.40625 348.575 308.89062 348.0125Q309.39062 347.45 309.39062 346.2625Q309.39062 345.1219 308.875 344.54376Q308.375 343.96564 307.65625 343.96564Q306.95312 343.96564 306.45312 344.54376Q305.96875 345.10626 305.96875 346.23126ZM312.28125 349.45L312.28125 343.23126L313.23438 343.23126L313.23438 344.16876Q313.59375 343.5125 313.89062 343.3094Q314.20312 343.09064 314.57812 343.09064Q315.10938 343.09064 315.65625 343.41876L315.29688 344.40314Q314.90625 344.16876 314.53125 344.16876Q314.17188 344.16876 313.89062 344.3875Q313.625 344.59064 313.51562 344.96564Q313.32812 345.52814 313.32812 346.1844L313.32812 349.45L312.28125 349.45ZM320.54688 347.45L321.64062 347.575Q321.39062 348.52814 320.6875 349.0594Q319.98438 349.59064 318.90625 349.59064Q317.54688 349.59064 316.73438 348.7469Q315.9375 347.90314 315.9375 346.3875Q315.9375 344.825 316.75 343.96564Q317.5625 343.09064 318.84375 343.09064Q320.09375 343.09064 320.875 343.9344Q321.67188 344.77814 321.67188 346.325Q321.67188 346.41876 321.67188 346.60626L317.03125 346.60626Q317.09375 347.6375 317.60938 348.1844Q318.125 348.71564 318.90625 348.71564Q319.48438 348.71564 319.89062 348.41876Q320.3125 348.10626 320.54688 347.45ZM317.09375 345.7469L320.5625 345.7469Q320.5 344.95 320.17188 344.5594Q319.65625 343.95 318.85938 343.95Q318.125 343.95 317.625 344.4344Q317.14062 344.91876 317.09375 345.7469ZM327.54688 347.45L328.64062 347.575Q328.39062 348.52814 327.6875 349.0594Q326.98438 349.59064 325.90625 349.59064Q324.54688 349.59064 323.73438 348.7469Q322.9375 347.90314 322.9375 346.3875Q322.9375 344.825 323.75 343.96564Q324.5625 343.09064 325.84375 343.09064Q327.09375 343.09064 327.875 343.9344Q328.67188 344.77814 328.67188 346.325Q328.67188 346.41876 328.67188 346.60626L324.03125 346.60626Q324.09375 347.6375 324.60938 348.1844Q325.125 348.71564 325.90625 348.71564Q326.48438 348.71564 326.89062 348.41876Q327.3125 348.10626 327.54688 347.45ZM324.09375 345.7469L327.5625 345.7469Q327.5 344.95 327.17188 344.5594Q326.65625 343.95 325.85938 343.95Q325.125 343.95 324.625 344.4344Q324.14062 344.91876 324.09375 345.7469ZM330.01562 341.9969L330.01562 340.77814L331.14062 340.77814L331.14062 341.73126Q331.14062 342.52814 330.95312 342.8719Q330.70312 343.34064 330.17188 343.59064L329.92188 343.16876Q330.23438 343.04376 330.39062 342.7625Q330.54688 342.48126 330.5625 341.9969L330.01562 341.9969ZM331.82812 341.9969L331.82812 340.77814L332.95312 340.77814L332.95312 341.73126Q332.95312 342.52814 332.78125 342.8719Q332.53125 343.34064 331.98438 343.59064L331.73438 343.16876Q332.04688 343.04376 332.20312 342.7625Q332.35938 342.48126 332.375 341.9969L331.82812 341.9969ZM334.5625 349.45L334.5625 348.2469L335.76562 348.2469L335.76562 349.45Q335.76562 350.10626 335.53125 350.5125Q335.29688 350.9344 334.79688 351.15314L334.5 350.7Q334.82812 350.5594 334.98438 350.2625Q335.14062 349.98126 335.17188 349.45L334.5625 349.45ZM340.0625 341.98126L340.0625 340.96564L345.625 340.96564L345.625 341.79376Q344.8125 342.66876 344.0 344.1219Q343.20312 345.5594 342.76562 347.09064Q342.4375 348.16876 342.35938 349.45L341.26562 349.45Q341.28125 348.4344 341.65625 346.9969Q342.04688 345.5594 342.75 344.23126Q343.46875 342.90314 344.28125 341.98126L340.0625 341.98126ZM350.29688 349.45L350.29688 343.23126L351.23438 343.23126L351.23438 344.10626Q351.53125 343.6375 352.01562 343.3719Q352.5 343.09064 353.125 343.09064Q353.8125 343.09064 354.25 343.3719Q354.70312 343.65314 354.875 344.16876Q355.625 343.09064 356.79688 343.09064Q357.73438 343.09064 358.21875 343.60626Q358.71875 344.10626 358.71875 345.1844L358.71875 349.45L357.67188 349.45L357.67188 345.52814Q357.67188 344.90314 357.5625 344.6219Q357.46875 344.34064 357.20312 344.16876Q356.9375 343.9969 356.5625 343.9969Q355.90625 343.9969 355.46875 344.4344Q355.04688 344.8719 355.04688 345.84064L355.04688 349.45L353.98438 349.45L353.98438 345.40314Q353.98438 344.7 353.71875 344.35626Q353.46875 343.9969 352.89062 343.9969Q352.4375 343.9969 352.0625 344.23126Q351.6875 344.46564 351.51562 344.91876Q351.34375 345.3719 351.34375 346.21564L351.34375 349.45L350.29688 349.45ZM364.54688 347.45L365.64062 347.575Q365.39062 348.52814 364.6875 349.0594Q363.98438 349.59064 362.90625 349.59064Q361.54688 349.59064 360.73438 348.7469Q359.9375 347.90314 359.9375 346.3875Q359.9375 344.825 360.75 343.96564Q361.5625 343.09064 362.84375 343.09064Q364.09375 343.09064 364.875 343.9344Q365.67188 344.77814 365.67188 346.325Q365.67188 346.41876 365.67188 346.60626L361.03125 346.60626Q361.09375 347.6375 361.60938 348.1844Q362.125 348.71564 362.90625 348.71564Q363.48438 348.71564 363.89062 348.41876Q364.3125 348.10626 364.54688 347.45ZM361.09375 345.7469L364.5625 345.7469Q364.5 344.95 364.17188 344.5594Q363.65625 343.95 362.85938 343.95Q362.125 343.95 361.625 344.4344Q361.14062 344.91876 361.09375 345.7469ZM371.35938 348.6844Q370.76562 349.1844 370.21875 349.3875Q369.6875 349.59064 369.0625 349.59064Q368.03125 349.59064 367.48438 349.09064Q366.9375 348.59064 366.9375 347.8094Q366.9375 347.35626 367.14062 346.98126Q367.34375 346.59064 367.6875 346.3719Q368.03125 346.1375 368.45312 346.02814Q368.75 345.9344 369.39062 345.85626Q370.65625 345.71564 371.26562 345.4969Q371.26562 345.27814 371.26562 345.23126Q371.26562 344.575 370.96875 344.3094Q370.5625 343.96564 369.76562 343.96564Q369.03125 343.96564 368.67188 344.23126Q368.3125 344.48126 368.14062 345.1375L367.10938 344.9969Q367.25 344.34064 367.57812 343.9344Q367.90625 343.52814 368.51562 343.3094Q369.125 343.09064 369.92188 343.09064Q370.71875 343.09064 371.21875 343.27814Q371.71875 343.46564 371.95312 343.7469Q372.1875 344.02814 372.28125 344.46564Q372.32812 344.73126 372.32812 345.4344L372.32812 346.84064Q372.32812 348.3094 372.39062 348.7Q372.46875 349.09064 372.67188 349.45L371.5625 349.45Q371.40625 349.1219 371.35938 348.6844ZM371.26562 346.325Q370.6875 346.5594 369.54688 346.73126Q368.89062 346.825 368.625 346.95Q368.35938 347.0594 368.20312 347.27814Q368.0625 347.4969 368.0625 347.77814Q368.0625 348.2 368.375 348.48126Q368.70312 348.7625 369.3125 348.7625Q369.92188 348.7625 370.39062 348.4969Q370.875 348.23126 371.09375 347.7625Q371.26562 347.40314 371.26562 346.71564L371.26562 346.325ZM374.29688 349.45L374.29688 343.23126L375.23438 343.23126L375.23438 344.10626Q375.92188 343.09064 377.21875 343.09064Q377.78125 343.09064 378.25 343.29376Q378.73438 343.4969 378.96875 343.825Q379.20312 344.15314 379.29688 344.59064Q379.34375 344.8875 379.34375 345.6219L379.34375 349.45L378.29688 349.45L378.29688 345.66876Q378.29688 345.0125 378.17188 344.7Q378.04688 344.3875 377.73438 344.2Q377.42188 343.9969 377.0 343.9969Q376.32812 343.9969 375.82812 344.4344Q375.34375 344.85626 375.34375 346.04376L375.34375 349.45L374.29688 349.45ZM380.875 347.59064L381.90625 347.4344Q382.0 348.0594 382.39062 348.3875Q382.79688 348.71564 383.53125 348.71564Q384.25 348.71564 384.59375 348.4344Q384.95312 348.1375 384.95312 347.73126Q384.95312 347.3719 384.64062 347.16876Q384.42188 347.02814 383.5625 346.8094Q382.40625 346.5125 381.95312 346.3094Q381.51562 346.09064 381.28125 345.71564Q381.04688 345.34064 381.04688 344.8719Q381.04688 344.46564 381.23438 344.10626Q381.42188 343.7469 381.75 343.5125Q382.0 343.34064 382.42188 343.21564Q382.84375 343.09064 383.34375 343.09064Q384.0625 343.09064 384.60938 343.3094Q385.17188 343.5125 385.4375 343.8719Q385.70312 344.23126 385.79688 344.825L384.76562 344.96564Q384.70312 344.4969 384.35938 344.23126Q384.03125 343.95 383.40625 343.95Q382.6875 343.95 382.375 344.2Q382.0625 344.4344 382.0625 344.7625Q382.0625 344.96564 382.1875 345.1219Q382.32812 345.29376 382.59375 345.40314Q382.75 345.46564 383.53125 345.66876Q384.65625 345.98126 385.09375 346.16876Q385.53125 346.35626 385.78125 346.71564Q386.03125 347.075 386.03125 347.6219Q386.03125 348.15314 385.71875 348.6219Q385.42188 349.075 384.84375 349.34064Q384.26562 349.59064 383.53125 349.59064Q382.3125 349.59064 381.67188 349.09064Q381.04688 348.575 380.875 347.59064ZM391.125 342.29376L391.125 343.52814L389.98438 343.52814L389.98438 342.5594Q389.98438 341.77814 390.17188 341.41876Q390.42188 340.95 390.95312 340.71564L391.21875 341.1219Q390.89062 341.2625 390.73438 341.52814Q390.57812 341.79376 390.5625 342.29376L391.125 342.29376ZM392.9375 342.29376L392.9375 343.52814L391.79688 343.52814L391.79688 342.5594Q391.79688 341.77814 391.98438 341.41876Q392.23438 340.95 392.76562 340.71564L393.03125 341.1219Q392.70312 341.2625 392.54688 341.52814Q392.40625 341.79376 392.39062 342.29376L392.9375 342.29376ZM394.04688 346.6844L395.10938 346.59064Q395.1875 347.2469 395.46875 347.65314Q395.75 348.0594 396.32812 348.325Q396.92188 348.575 397.65625 348.575Q398.29688 348.575 398.79688 348.3875Q399.29688 348.1844 399.53125 347.85626Q399.78125 347.5125 399.78125 347.1219Q399.78125 346.71564 399.54688 346.41876Q399.3125 346.10626 398.78125 345.90314Q398.42188 345.7625 397.23438 345.48126Q396.0625 345.2 395.59375 344.95Q394.96875 344.6219 394.67188 344.15314Q394.375 343.66876 394.375 343.075Q394.375 342.4344 394.73438 341.8719Q395.10938 341.29376 395.8125 341.0125Q396.53125 340.71564 397.39062 340.71564Q398.34375 340.71564 399.07812 341.02814Q399.8125 341.325 400.20312 341.9344Q400.59375 342.52814 400.625 343.27814L399.53125 343.35626Q399.4375 342.54376 398.92188 342.1375Q398.42188 341.71564 397.4375 341.71564Q396.40625 341.71564 395.9375 342.09064Q395.46875 342.46564 395.46875 342.9969Q395.46875 343.46564 395.79688 343.7625Q396.125 344.0594 397.5 344.3719Q398.89062 344.6844 399.40625 344.91876Q400.15625 345.27814 400.51562 345.8094Q400.875 346.325 400.875 347.02814Q400.875 347.71564 400.48438 348.325Q400.09375 348.91876 399.35938 349.2625Q398.625 349.59064 397.70312 349.59064Q396.53125 349.59064 395.73438 349.2625Q394.95312 348.91876 394.5 348.23126Q394.0625 347.54376 394.04688 346.6844ZM404.59375 348.5125L404.75 349.4344Q404.29688 349.52814 403.95312 349.52814Q403.375 349.52814 403.0625 349.35626Q402.75 349.16876 402.60938 348.8719Q402.48438 348.575 402.48438 347.6219L402.48438 344.04376L401.71875 344.04376L401.71875 343.23126L402.48438 343.23126L402.48438 341.6844L403.53125 341.0594L403.53125 343.23126L404.59375 343.23126L404.59375 344.04376L403.53125 344.04376L403.53125 347.6844Q403.53125 348.1375 403.57812 348.2625Q403.64062 348.3875 403.76562 348.46564Q403.89062 348.54376 404.125 348.54376Q404.3125 348.54376 404.59375 348.5125ZM405.28125 349.45L405.28125 343.23126L406.23438 343.23126L406.23438 344.16876Q406.59375 343.5125 406.89062 343.3094Q407.20312 343.09064 407.57812 343.09064Q408.10938 343.09064 408.65625 343.41876L408.29688 344.40314Q407.90625 344.16876 407.53125 344.16876Q407.17188 344.16876 406.89062 344.3875Q406.625 344.59064 406.51562 344.96564Q406.32812 345.52814 406.32812 346.1844L406.32812 349.45L405.28125 349.45ZM408.90625 346.34064Q408.90625 344.60626 409.85938 343.77814Q410.65625 343.09064 411.8125 343.09064Q413.09375 343.09064 413.90625 343.9344Q414.73438 344.7625 414.73438 346.2469Q414.73438 347.45 414.375 348.1375Q414.01562 348.825 413.3125 349.21564Q412.625 349.59064 411.8125 349.59064Q410.51562 349.59064 409.70312 348.7625Q408.90625 347.91876 408.90625 346.34064ZM409.98438 346.34064Q409.98438 347.52814 410.5 348.1219Q411.03125 348.71564 411.8125 348.71564Q412.60938 348.71564 413.125 348.1219Q413.64062 347.52814 413.64062 346.3094Q413.64062 345.15314 413.10938 344.5594Q412.59375 343.96564 411.8125 343.96564Q411.03125 343.96564 410.5 344.5594Q409.98438 345.1375 409.98438 346.34064ZM416.29688 349.45L416.29688 343.23126L417.23438 343.23126L417.23438 344.10626Q417.92188 343.09064 419.21875 343.09064Q419.78125 343.09064 420.25 343.29376Q420.73438 343.4969 420.96875 343.825Q421.20312 344.15314 421.29688 344.59064Q421.34375 344.8875 421.34375 345.6219L421.34375 349.45L420.29688 349.45L420.29688 345.66876Q420.29688 345.0125 420.17188 344.7Q420.04688 344.3875 419.73438 344.2Q419.42188 343.9969 419.0 343.9969Q418.32812 343.9969 417.82812 344.4344Q417.34375 344.85626 417.34375 346.04376L417.34375 349.45L416.29688 349.45ZM423.09375 349.96564L424.125 350.1219Q424.1875 350.59064 424.48438 350.8094Q424.875 351.10626 425.54688 351.10626Q426.28125 351.10626 426.67188 350.8094Q427.07812 350.5125 427.21875 349.9969Q427.3125 349.66876 427.29688 348.6375Q426.60938 349.45 425.57812 349.45Q424.29688 349.45 423.59375 348.52814Q422.89062 347.59064 422.89062 346.3094Q422.89062 345.41876 423.20312 344.66876Q423.53125 343.90314 424.14062 343.4969Q424.75 343.09064 425.57812 343.09064Q426.6875 343.09064 427.40625 343.98126L427.40625 343.23126L428.375 343.23126L428.375 348.60626Q428.375 350.0594 428.07812 350.66876Q427.78125 351.27814 427.14062 351.6219Q426.5 351.98126 425.5625 351.98126Q424.45312 351.98126 423.76562 351.48126Q423.07812 350.98126 423.09375 349.96564ZM423.96875 346.23126Q423.96875 347.45 424.45312 348.0125Q424.9375 348.575 425.67188 348.575Q426.40625 348.575 426.89062 348.0125Q427.39062 347.45 427.39062 346.2625Q427.39062 345.1219 426.875 344.54376Q426.375 343.96564 425.65625 343.96564Q424.95312 343.96564 424.45312 344.54376Q423.96875 345.10626 423.96875 346.23126ZM430.26562 349.45L430.26562 340.85626L431.32812 340.85626L431.32812 349.45L430.26562 349.45ZM433.25 351.84064L433.125 350.85626Q433.46875 350.95 433.73438 350.95Q434.07812 350.95 434.28125 350.825Q434.5 350.71564 434.64062 350.5125Q434.73438 350.34064 434.96875 349.71564Q434.98438 349.6375 435.0625 349.46564L432.6875 343.23126L433.82812 343.23126L435.125 346.825Q435.375 347.5125 435.57812 348.27814Q435.76562 347.54376 436.01562 346.85626L437.34375 343.23126L438.39062 343.23126L436.03125 349.5594Q435.64062 350.575 435.4375 350.96564Q435.15625 351.4969 434.78125 351.73126Q434.42188 351.98126 433.92188 351.98126Q433.625 351.98126 433.25 351.84064ZM441.48438 349.45L444.78125 340.85626L446.0 340.85626L449.51562 349.45L448.23438 349.45L447.21875 346.84064L443.64062 346.84064L442.6875 349.45L441.48438 349.45ZM443.96875 345.91876L446.875 345.91876L445.98438 343.54376Q445.5625 342.46564 445.375 341.7625Q445.20312 342.59064 444.90625 343.40314L443.96875 345.91876ZM450.09375 349.96564L451.125 350.1219Q451.1875 350.59064 451.48438 350.8094Q451.875 351.10626 452.54688 351.10626Q453.28125 351.10626 453.67188 350.8094Q454.07812 350.5125 454.21875 349.9969Q454.3125 349.66876 454.29688 348.6375Q453.60938 349.45 452.57812 349.45Q451.29688 349.45 450.59375 348.52814Q449.89062 347.59064 449.89062 346.3094Q449.89062 345.41876 450.20312 344.66876Q450.53125 343.90314 451.14062 343.4969Q451.75 343.09064 452.57812 343.09064Q453.6875 343.09064 454.40625 343.98126L454.40625 343.23126L455.375 343.23126L455.375 348.60626Q455.375 350.0594 455.07812 350.66876Q454.78125 351.27814 454.14062 351.6219Q453.5 351.98126 452.5625 351.98126Q451.45312 351.98126 450.76562 351.48126Q450.07812 350.98126 450.09375 349.96564ZM450.96875 346.23126Q450.96875 347.45 451.45312 348.0125Q451.9375 348.575 452.67188 348.575Q453.40625 348.575 453.89062 348.0125Q454.39062 347.45 454.39062 346.2625Q454.39062 345.1219 453.875 344.54376Q453.375 343.96564 452.65625 343.96564Q451.95312 343.96564 451.45312 344.54376Q450.96875 345.10626 450.96875 346.23126ZM457.28125 349.45L457.28125 343.23126L458.23438 343.23126L458.23438 344.16876Q458.59375 343.5125 458.89062 343.3094Q459.20312 343.09064 459.57812 343.09064Q460.10938 343.09064 460.65625 343.41876L460.29688 344.40314Q459.90625 344.16876 459.53125 344.16876Q459.17188 344.16876 458.89062 344.3875Q458.625 344.59064 458.51562 344.96564Q458.32812 345.52814 458.32812 346.1844L458.32812 349.45L457.28125 349.45ZM465.54688 347.45L466.64062 347.575Q466.39062 348.52814 465.6875 349.0594Q464.98438 349.59064 463.90625 349.59064Q462.54688 349.59064 461.73438 348.7469Q460.9375 347.90314 460.9375 346.3875Q460.9375 344.825 461.75 343.96564Q462.5625 343.09064 463.84375 343.09064Q465.09375 343.09064 465.875 343.9344Q466.67188 344.77814 466.67188 346.325Q466.67188 346.41876 466.67188 346.60626L462.03125 346.60626Q462.09375 347.6375 462.60938 348.1844Q463.125 348.71564 463.90625 348.71564Q464.48438 348.71564 464.89062 348.41876Q465.3125 348.10626 465.54688 347.45ZM462.09375 345.7469L465.5625 345.7469Q465.5 344.95 465.17188 344.5594Q464.65625 343.95 463.85938 343.95Q463.125 343.95 462.625 344.4344Q462.14062 344.91876 462.09375 345.7469ZM472.54688 347.45L473.64062 347.575Q473.39062 348.52814 472.6875 349.0594Q471.98438 349.59064 470.90625 349.59064Q469.54688 349.59064 468.73438 348.7469Q467.9375 347.90314 467.9375 346.3875Q467.9375 344.825 468.75 343.96564Q469.5625 343.09064 470.84375 343.09064Q472.09375 343.09064 472.875 343.9344Q473.67188 344.77814 473.67188 346.325Q473.67188 346.41876 473.67188 346.60626L469.03125 346.60626Q469.09375 347.6375 469.60938 348.1844Q470.125 348.71564 470.90625 348.71564Q471.48438 348.71564 471.89062 348.41876Q472.3125 348.10626 472.54688 347.45ZM469.09375 345.7469L472.5625 345.7469Q472.5 344.95 472.17188 344.5594Q471.65625 343.95 470.85938 343.95Q470.125 343.95 469.625 344.4344Q469.14062 344.91876 469.09375 345.7469ZM475.59375 349.45L475.59375 348.2469L476.79688 348.2469L476.79688 349.45L475.59375 349.45ZM478.34375 343.90314L478.04688 342.2625L478.04688 340.85626L479.25 340.85626L479.25 342.2625L478.98438 343.90314L478.34375 343.90314ZM480.28125 343.90314L480.0 342.2625L480.0 340.85626L481.20312 340.85626L481.20312 342.2625L480.92188 343.90314L480.28125 343.90314Z" fill-rule="nonzero"/><path fill="#000000" d="M29.550013 249.21458L20.956263 249.21458L20.956263 248.08958L24.487513 248.08958L24.487513 243.62083L20.956263 243.62083L20.956263 242.48021L29.550013 242.48021L29.550013 243.62083L25.503138 243.62083L25.503138 248.08958L29.550013 248.08958L29.550013 249.21458ZM26.440638 240.77708Q24.706263 240.77708 23.878138 239.82396Q23.190638 239.02708 23.190638 237.87083Q23.190638 236.58958 24.034388 235.77708Q24.862513 234.94896 26.346888 234.94896Q27.550013 234.94896 28.237513 235.30833Q28.925013 235.66771 29.315638 236.37083Q29.690638 237.05833 29.690638 237.87083Q29.690638 239.16771 28.862513 239.98021Q28.018763 240.77708 26.440638 240.77708ZM26.440638 239.69896Q27.628138 239.69896 28.221888 239.18333Q28.815638 238.65208 28.815638 237.87083Q28.815638 237.07396 28.221888 236.55833Q27.628138 236.04271 26.409388 236.04271Q25.253138 236.04271 24.659388 236.57396Q24.065638 237.08958 24.065638 237.87083Q24.065638 238.65208 24.659388 239.18333Q25.237513 239.69896 26.440638 239.69896ZM29.550013 232.24583L23.331263 234.15208L23.331263 233.05833L26.925013 232.07396L28.253138 231.69896Q28.159388 231.66771 26.971888 231.37083L23.331263 230.38646L23.331263 229.30833L26.940638 228.37083L28.128138 228.05833L26.925013 227.69896L23.331263 226.63646L23.331263 225.60521L29.550013 227.55833L29.550013 228.65208L25.815638 229.63646L24.768763 229.88646L29.550013 231.13646L29.550013 232.24583ZM29.550013 221.38646L23.331263 221.38646L23.331263 220.44896L24.206263 220.44896Q23.737513 220.15208 23.471888 219.66771Q23.190638 219.18333 23.190638 218.55833Q23.190638 217.87083 23.471888 217.43333Q23.753138 216.98021 24.268763 216.80833Q23.190638 216.05833 23.190638 214.88646Q23.190638 213.94896 23.706263 213.46458Q24.206263 212.96458 25.284388 212.96458L29.550013 212.96458L29.550013 214.01146L25.628138 214.01146Q25.003138 214.01146 24.721888 214.12083Q24.440638 214.21458 24.268763 214.48021Q24.096888 214.74583 24.096888 215.12083Q24.096888 215.77708 24.534388 216.21458Q24.971888 216.63646 25.940638 216.63646L29.550013 216.63646L29.550013 217.69896L25.503138 217.69896Q24.800013 217.69896 24.456263 217.96458Q24.096888 218.21458 24.096888 218.79271Q24.096888 219.24583 24.331263 219.62083Q24.565638 219.99583 25.018763 220.16771Q25.471888 220.33958 26.315638 220.33958L29.550013 220.33958L29.550013 221.38646ZM28.784388 207.32396Q29.284388 207.91771 29.487513 208.46458Q29.690638 208.99583 29.690638 209.62083Q29.690638 210.65208 29.190638 211.19896Q28.690638 211.74583 27.909388 211.74583Q27.456263 211.74583 27.081263 211.54271Q26.690638 211.33958 26.471888 210.99583Q26.237513 210.65208 26.128138 210.23021Q26.034388 209.93333 25.956263 209.29271Q25.815638 208.02708 25.596888 207.41771Q25.378138 207.41771 25.331263 207.41771Q24.675013 207.41771 24.409388 207.71458Q24.065638 208.12083 24.065638 208.91771Q24.065638 209.65208 24.331263 210.01146Q24.581263 210.37083 25.237513 210.54271L25.096888 211.57396Q24.440638 211.43333 24.034388 211.10521Q23.628138 210.77708 23.409388 210.16771Q23.190638 209.55833 23.190638 208.76146Q23.190638 207.96458 23.378138 207.46458Q23.565638 206.96458 23.846888 206.73021Q24.128138 206.49583 24.565638 206.40208Q24.831263 206.35521 25.534388 206.35521L26.940638 206.35521Q28.409388 206.35521 28.800013 206.29271Q29.190638 206.21458 29.550013 206.01146L29.550013 207.12083Q29.221888 207.27708 28.784388 207.32396ZM26.425013 207.41771Q26.659388 207.99583 26.831263 209.13646Q26.925013 209.79271 27.050013 210.05833Q27.159388 210.32396 27.378138 210.48021Q27.596888 210.62083 27.878138 210.62083Q28.300013 210.62083 28.581263 210.30833Q28.862513 209.98021 28.862513 209.37083Q28.862513 208.76146 28.596888 208.29271Q28.331263 207.80833 27.862513 207.58958Q27.503138 207.41771 26.815638 207.41771L26.425013 207.41771ZM29.550013 204.38646L23.331263 204.38646L23.331263 203.44896L24.206263 203.44896Q23.190638 202.76146 23.190638 201.46458Q23.190638 200.90208 23.393763 200.43333Q23.596888 199.94896 23.925013 199.71458Q24.253138 199.48021 24.690638 199.38646Q24.987513 199.33958 25.721888 199.33958L29.550013 199.33958L29.550013 200.38646L25.768763 200.38646Q25.112513 200.38646 24.800013 200.51146Q24.487513 200.63646 24.300013 200.94896Q24.096888 201.26146 24.096888 201.68333Q24.096888 202.35521 24.534388 202.85521Q24.956263 203.33958 26.143763 203.33958L29.550013 203.33958L29.550013 204.38646ZM31.940638 197.43333L30.956263 197.55833Q31.050013 197.21458 31.050013 196.94896Q31.050013 196.60521 30.925013 196.40208Q30.815638 196.18333 30.612513 196.04271Q30.440638 195.94896 29.815638 195.71458Q29.737513 195.69896 29.565638 195.62083L23.331263 197.99583L23.331263 196.85521L26.925013 195.55833Q27.612513 195.30833 28.378138 195.10521Q27.643763 194.91771 26.956263 194.66771L23.331263 193.33958L23.331263 192.29271L29.659388 194.65208Q30.675013 195.04271 31.065638 195.24583Q31.596888 195.52708 31.831263 195.90208Q32.08126 196.26146 32.08126 196.76146Q32.08126 197.05833 31.940638 197.43333ZM29.550013 188.40208L23.331263 188.40208L23.331263 187.44896L24.268763 187.44896Q23.612513 187.08958 23.409388 186.79271Q23.190638 186.48021 23.190638 186.10521Q23.190638 185.57396 23.518763 185.02708L24.503138 185.38646Q24.268763 185.77708 24.268763 186.15208Q24.268763 186.51146 24.487513 186.79271Q24.690638 187.05833 25.065638 187.16771Q25.628138 187.35521 26.284388 187.35521L29.550013 187.35521L29.550013 188.40208ZM27.550013 180.13646L27.675013 179.04271Q28.628138 179.29271 29.159388 179.99583Q29.690638 180.69896 29.690638 181.77708Q29.690638 183.13646 28.846888 183.94896Q28.003138 184.74583 26.487513 184.74583Q24.925013 184.74583 24.065638 183.93333Q23.190638 183.12083 23.190638 181.83958Q23.190638 180.58958 24.034388 179.80833Q24.878138 179.01146 26.425013 179.01146Q26.518763 179.01146 26.706263 179.01146L26.706263 183.65208Q27.737513 183.58958 28.284388 183.07396Q28.815638 182.55833 28.815638 181.77708Q28.815638 181.19896 28.518763 180.79271Q28.206263 180.37083 27.550013 180.13646ZM25.846888 183.58958L25.846888 180.12083Q25.050013 180.18333 24.659388 180.51146Q24.050013 181.02708 24.050013 181.82396Q24.050013 182.55833 24.534388 183.05833Q25.018763 183.54271 25.846888 183.58958ZM27.690638 177.80833L27.534388 176.77708Q28.159388 176.68333 28.487513 176.29271Q28.815638 175.88646 28.815638 175.15208Q28.815638 174.43333 28.534388 174.08958Q28.237513 173.73021 27.831263 173.73021Q27.471888 173.73021 27.268763 174.04271Q27.128138 174.26146 26.909388 175.12083Q26.612513 176.27708 26.409388 176.73021Q26.190638 177.16771 25.815638 177.40208Q25.440638 177.63646 24.971888 177.63646Q24.565638 177.63646 24.206263 177.44896Q23.846888 177.26146 23.612513 176.93333Q23.440638 176.68333 23.315638 176.26146Q23.190638 175.83958 23.190638 175.33958Q23.190638 174.62083 23.409388 174.07396Q23.612513 173.51146 23.971888 173.24583Q24.331263 172.98021 24.925013 172.88646L25.065638 173.91771Q24.596888 173.98021 24.331263 174.32396Q24.050013 174.65208 24.050013 175.27708Q24.050013 175.99583 24.300013 176.30833Q24.534388 176.62083 24.862513 176.62083Q25.065638 176.62083 25.221888 176.49583Q25.393763 176.35521 25.503138 176.08958Q25.565638 175.93333 25.768763 175.15208Q26.081263 174.02708 26.268763 173.58958Q26.456263 173.15208 26.815638 172.90208Q27.175013 172.65208 27.721888 172.65208Q28.253138 172.65208 28.721888 172.96458Q29.175013 173.26146 29.440638 173.83958Q29.690638 174.41771 29.690638 175.15208Q29.690638 176.37083 29.190638 177.01146Q28.675013 177.63646 27.690638 177.80833ZM31.940638 171.38646L23.331263 171.38646L23.331263 170.43333L24.128138 170.43333Q23.659388 170.08958 23.425013 169.66771Q23.190638 169.23021 23.190638 168.62083Q23.190638 167.82396 23.596888 167.21458Q24.003138 166.60521 24.753138 166.30833Q25.503138 165.99583 26.393763 165.99583Q27.346888 165.99583 28.112513 166.33958Q28.878138 166.66771 29.284388 167.32396Q29.690638 167.98021 29.690638 168.69896Q29.690638 169.23021 29.471888 169.65208Q29.237513 170.07396 28.909388 170.33958L31.940638 170.33958L31.940638 171.38646ZM26.471888 170.43333Q27.675013 170.43333 28.253138 169.94896Q28.815638 169.46458 28.815638 168.77708Q28.815638 168.07396 28.221888 167.57396Q27.628138 167.07396 26.378138 167.07396Q25.190638 167.07396 24.612513 167.55833Q24.018763 168.04271 24.018763 168.73021Q24.018763 169.40208 24.643763 169.91771Q25.268763 170.43333 26.471888 170.43333ZM26.440638 164.77708Q24.706263 164.77708 23.878138 163.82396Q23.190638 163.02708 23.190638 161.87083Q23.190638 160.58958 24.034388 159.77708Q24.862513 158.94896 26.346888 158.94896Q27.550013 158.94896 28.237513 159.30833Q28.925013 159.66771 29.315638 160.37083Q29.690638 161.05833 29.690638 161.87083Q29.690638 163.16771 28.862513 163.98021Q28.018763 164.77708 26.440638 164.77708ZM26.440638 163.69896Q27.628138 163.69896 28.221888 163.18333Q28.815638 162.65208 28.815638 161.87083Q28.815638 161.07396 28.221888 160.55833Q27.628138 160.04271 26.409388 160.04271Q25.253138 160.04271 24.659388 160.57396Q24.065638 161.08958 24.065638 161.87083Q24.065638 162.65208 24.659388 163.18333Q25.237513 163.69896 26.440638 163.69896ZM29.550013 157.38646L23.331263 157.38646L23.331263 156.44896L24.206263 156.44896Q23.190638 155.76146 23.190638 154.46458Q23.190638 153.90208 23.393763 153.43333Q23.596888 152.94896 23.925013 152.71458Q24.253138 152.48021 24.690638 152.38646Q24.987513 152.33958 25.721888 152.33958L29.550013 152.33958L29.550013 153.38646L25.768763 153.38646Q25.112513 153.38646 24.800013 153.51146Q24.487513 153.63646 24.300013 153.94896Q24.096888 154.26146 24.096888 154.68333Q24.096888 155.35521 24.534388 155.85521Q24.956263 156.33958 26.143763 156.33958L29.550013 156.33958L29.550013 157.38646ZM27.690638 150.80833L27.534388 149.77708Q28.159388 149.68333 28.487513 149.29271Q28.815638 148.88646 28.815638 148.15208Q28.815638 147.43333 28.534388 147.08958Q28.237513 146.73021 27.831263 146.73021Q27.471888 146.73021 27.268763 147.04271Q27.128138 147.26146 26.909388 148.12083Q26.612513 149.27708 26.409388 149.73021Q26.190638 150.16771 25.815638 150.40208Q25.440638 150.63646 24.971888 150.63646Q24.565638 150.63646 24.206263 150.44896Q23.846888 150.26146 23.612513 149.93333Q23.440638 149.68333 23.315638 149.26146Q23.190638 148.83958 23.190638 148.33958Q23.190638 147.62083 23.409388 147.07396Q23.612513 146.51146 23.971888 146.24583Q24.331263 145.98021 24.925013 145.88646L25.065638 146.91771Q24.596888 146.98021 24.331263 147.32396Q24.050013 147.65208 24.050013 148.27708Q24.050013 148.99583 24.300013 149.30833Q24.534388 149.62083 24.862513 149.62083Q25.065638 149.62083 25.221888 149.49583Q25.393763 149.35521 25.503138 149.08958Q25.565638 148.93333 25.768763 148.15208Q26.081263 147.02708 26.268763 146.58958Q26.456263 146.15208 26.815638 145.90208Q27.175013 145.65208 27.721888 145.65208Q28.253138 145.65208 28.721888 145.96458Q29.175013 146.26146 29.440638 146.83958Q29.690638 147.41771 29.690638 148.15208Q29.690638 149.37083 29.190638 150.01146Q28.675013 150.63646 27.690638 150.80833ZM27.550013 140.13646L27.675013 139.04271Q28.628138 139.29271 29.159388 139.99583Q29.690638 140.69896 29.690638 141.77708Q29.690638 143.13646 28.846888 143.94896Q28.003138 144.74583 26.487513 144.74583Q24.925013 144.74583 24.065638 143.93333Q23.190638 143.12083 23.190638 141.83958Q23.190638 140.58958 24.034388 139.80833Q24.878138 139.01146 26.425013 139.01146Q26.518763 139.01146 26.706263 139.01146L26.706263 143.65208Q27.737513 143.58958 28.284388 143.07396Q28.815638 142.55833 28.815638 141.77708Q28.815638 141.19896 28.518763 140.79271Q28.206263 140.37083 27.550013 140.13646ZM25.846888 143.58958L25.846888 140.12083Q25.050013 140.18333 24.659388 140.51146Q24.050013 141.02708 24.050013 141.82396Q24.050013 142.55833 24.534388 143.05833Q25.018763 143.54271 25.846888 143.58958ZM27.690638 137.80833L27.534388 136.77708Q28.159388 136.68333 28.487513 136.29271Q28.815638 135.88646 28.815638 135.15208Q28.815638 134.43333 28.534388 134.08958Q28.237513 133.73021 27.831263 133.73021Q27.471888 133.73021 27.268763 134.04271Q27.128138 134.26146 26.909388 135.12083Q26.612513 136.27708 26.409388 136.73021Q26.190638 137.16771 25.815638 137.40208Q25.440638 137.63646 24.971888 137.63646Q24.565638 137.63646 24.206263 137.44896Q23.846888 137.26146 23.612513 136.93333Q23.440638 136.68333 23.315638 136.26146Q23.190638 135.83958 23.190638 135.33958Q23.190638 134.62083 23.409388 134.07396Q23.612513 133.51146 23.971888 133.24583Q24.331263 132.98021 24.925013 132.88646L25.065638 133.91771Q24.596888 133.98021 24.331263 134.32396Q24.050013 134.65208 24.050013 135.27708Q24.050013 135.99583 24.300013 136.30833Q24.534388 136.62083 24.862513 136.62083Q25.065638 136.62083 25.221888 136.49583Q25.393763 136.35521 25.503138 136.08958Q25.565638 135.93333 25.768763 135.15208Q26.081263 134.02708 26.268763 133.58958Q26.456263 133.15208 26.815638 132.90208Q27.175013 132.65208 27.721888 132.65208Q28.253138 132.65208 28.721888 132.96458Q29.175013 133.26146 29.440638 133.83958Q29.690638 134.41771 29.690638 135.15208Q29.690638 136.37083 29.190638 137.01146Q28.675013 137.63646 27.690638 137.80833ZM27.440638 129.41771Q27.221888 129.41771 27.112513 129.41771Q26.503138 129.41771 26.050013 129.24583Q25.706263 129.12083 25.362513 128.82396Q25.112513 128.62083 24.628138 128.07396Q24.143763 127.527084 23.862513 127.370834Q23.565638 127.19896 23.221888 127.19896Q22.612513 127.19896 22.143763 127.683334Q21.675013 128.15208 21.675013 128.85521Q21.675013 129.52708 22.096888 129.98021Q22.518763 130.43333 23.425013 130.57396L23.284388 131.65208Q22.096888 131.51146 21.456263 130.79271Q20.815638 130.05833 20.815638 128.87083Q20.815638 127.60521 21.503138 126.85521Q22.190638 126.10521 23.159388 126.10521Q23.721888 126.10521 24.206263 126.370834Q24.675013 126.63646 25.346888 127.402084Q25.800013 127.91771 26.018763 128.08958Q26.237513 128.24583 26.518763 128.32396Q26.800013 128.38646 27.440638 128.40208L27.440638 129.41771ZM29.550013 129.48021L28.346888 129.48021L28.346888 128.27708L29.550013 128.27708L29.550013 129.48021Z" fill-rule="nonzero"/><path fill="#000000" d="M65.05 300.21564Q65.05 298.6844 65.3625 297.7625Q65.675 296.825 66.28438 296.325Q66.90938 295.825 67.84688 295.825Q68.53438 295.825 69.05 296.10626Q69.58125 296.3875 69.925 296.91876Q70.26875 297.4344 70.45625 298.1844Q70.64375 298.9344 70.64375 300.21564Q70.64375 301.73126 70.33125 302.65314Q70.03438 303.575 69.40938 304.09064Q68.8 304.59064 67.84688 304.59064Q66.6125 304.59064 65.89375 303.7Q65.05 302.6375 65.05 300.21564ZM66.12813 300.21564Q66.12813 302.325 66.62813 303.02814Q67.12813 303.73126 67.84688 303.73126Q68.58125 303.73126 69.06563 303.02814Q69.56563 302.325 69.56563 300.21564Q69.56563 298.09064 69.06563 297.40314Q68.58125 296.7 67.83125 296.7Q67.1125 296.7 66.675 297.3094Q66.12813 298.09064 66.12813 300.21564Z" fill-rule="nonzero"/><path fill="#000000" d="M70.59688 255.72772L70.59688 256.74335L64.90938 256.74335Q64.90938 256.36835 65.03438 256.00897Q65.25313 255.43085 65.72188 254.86835Q66.20625 254.30585 67.1125 253.57147Q68.51875 252.41522 69.00313 251.74335Q69.50313 251.07147 69.50313 250.47772Q69.50313 249.85272 69.05 249.43085Q68.59688 248.99335 67.87813 248.99335Q67.1125 248.99335 66.65938 249.44647Q66.20625 249.8996 66.19063 250.7121L65.1125 250.60272Q65.22188 249.38397 65.94063 248.75897Q66.675 248.11835 67.90938 248.11835Q69.14375 248.11835 69.8625 248.80585Q70.58125 249.49335 70.58125 250.50897Q70.58125 251.0246 70.3625 251.5246Q70.15938 252.00897 69.65938 252.57147Q69.175 253.11835 68.05 254.07147Q67.09688 254.86835 66.81563 255.16522Q66.55 255.44647 66.37813 255.72772L70.59688 255.72772Z" fill-rule="nonzero"/><path fill="#000000" d="M68.425 209.03667L68.425 206.97417L64.70625 206.97417L64.70625 206.00542L68.62813 200.44292L69.4875 200.44292L69.4875 206.00542L70.64375 206.00542L70.64375 206.97417L69.4875 206.97417L69.4875 209.03667L68.425 209.03667ZM68.425 206.00542L68.425 202.14604L65.7375 206.00542L68.425 206.00542Z" fill-rule="nonzero"/><path fill="#000000" d="M70.51875 154.84563L69.47188 154.92375Q69.33125 154.29875 69.08125 154.0175Q68.64375 153.56438 68.01875 153.56438Q67.51875 153.56438 67.12813 153.84563Q66.64375 154.22063 66.34688 154.92375Q66.06563 155.61125 66.05 156.8925Q66.425 156.31438 66.97188 156.03313Q67.53438 155.75188 68.14375 155.75188Q69.19063 155.75188 69.925 156.53313Q70.675 157.31438 70.675 158.53313Q70.675 159.34563 70.31563 160.04875Q69.97188 160.73625 69.3625 161.11125Q68.75313 161.47063 67.9875 161.47063Q66.65938 161.47063 65.83125 160.50188Q65.00313 159.53313 65.00313 157.31438Q65.00313 154.81438 65.925 153.68938Q66.72188 152.705 68.08125 152.705Q69.09688 152.705 69.7375 153.28313Q70.39375 153.84563 70.51875 154.84563ZM66.22188 158.54875Q66.22188 159.09563 66.44063 159.59563Q66.675 160.08 67.08125 160.34563Q67.50313 160.61125 67.97188 160.61125Q68.62813 160.61125 69.1125 160.08Q69.59688 159.53313 69.59688 158.61125Q69.59688 157.72063 69.1125 157.205Q68.64375 156.68938 67.925 156.68938Q67.20625 156.68938 66.70625 157.205Q66.22188 157.72063 66.22188 158.54875Z" fill-rule="nonzero"/><path fill="#000000" d="M66.675 108.96709Q66.01875 108.71709 65.69063 108.27959Q65.37813 107.82646 65.37813 107.21709Q65.37813 106.27959 66.05 105.63896Q66.7375 104.99834 67.84688 104.99834Q68.97188 104.99834 69.65938 105.65459Q70.34688 106.31084 70.34688 107.24834Q70.34688 107.84209 70.03438 108.27959Q69.72188 108.71709 69.08125 108.96709Q69.87813 109.21709 70.28438 109.79521Q70.69063 110.37334 70.69063 111.17021Q70.69063 112.26396 69.90938 113.01396Q69.14375 113.76396 67.8625 113.76396Q66.59688 113.76396 65.81563 113.01396Q65.03438 112.26396 65.03438 111.13896Q65.03438 110.29521 65.45625 109.73271Q65.89375 109.17021 66.675 108.96709ZM66.45625 107.17021Q66.45625 107.77959 66.84688 108.17021Q67.25313 108.56084 67.87813 108.56084Q68.4875 108.56084 68.87813 108.18584Q69.26875 107.79521 69.26875 107.23271Q69.26875 106.65459 68.8625 106.26396Q68.45625 105.85771 67.8625 105.85771Q67.25313 105.85771 66.84688 106.24834Q66.45625 106.63896 66.45625 107.17021ZM66.12813 111.13896Q66.12813 111.59209 66.33125 112.01396Q66.55 112.43584 66.97188 112.67021Q67.39375 112.90459 67.87813 112.90459Q68.62813 112.90459 69.1125 112.42021Q69.6125 111.93584 69.6125 111.18584Q69.6125 110.42021 69.1125 109.92021Q68.6125 109.42021 67.84688 109.42021Q67.09688 109.42021 66.6125 109.92021Q66.12813 110.40459 66.12813 111.13896Z" fill-rule="nonzero"/><path fill="#000000" d="M62.01875 65.916664L60.971874 65.916664L60.971874 59.197914Q60.58125 59.55729 59.95625 59.93229Q59.346874 60.291664 58.8625 60.46354L58.8625 59.447914Q59.7375 59.02604 60.39375 58.447914Q61.065624 57.854164 61.346874 57.291664L62.01875 57.291664L62.01875 65.916664ZM65.05 61.68229Q65.05 60.15104 65.3625 59.229164Q65.675 58.291664 66.28438 57.791664Q66.90938 57.291664 67.84688 57.291664Q68.53438 57.291664 69.05 57.572914Q69.58125 57.854164 69.925 58.385414Q70.26875 58.90104 70.45625 59.65104Q70.64375 60.40104 70.64375 61.68229Q70.64375 63.197914 70.33125 64.11979Q70.03438 65.041664 69.40938 65.55729Q68.8 66.05729 67.84688 66.05729Q66.6125 66.05729 65.89375 65.166664Q65.05 64.104164 65.05 61.68229ZM66.12813 61.68229Q66.12813 63.791664 66.62813 64.49479Q67.12813 65.197914 67.84688 65.197914Q68.58125 65.197914 69.06563 64.49479Q69.56563 63.791664 69.56563 61.68229Q69.56563 59.55729 69.06563 58.86979Q68.58125 58.166664 67.83125 58.166664Q67.1125 58.166664 66.675 58.77604Q66.12813 59.55729 66.12813 61.68229Z" fill-rule="nonzero"/><path fill="#000000" d="M124.79528 317.45L123.748405 317.45L123.748405 310.73126Q123.35778 311.09064 122.73278 311.46564Q122.123405 311.825 121.63903 311.9969L121.63903 310.98126Q122.51403 310.5594 123.17028 309.98126Q123.842155 309.3875 124.123405 308.825L124.79528 308.825L124.79528 317.45Z" fill-rule="nonzero"/><path fill="#000000" d="M194.93123 316.4344L194.93123 317.45L189.24373 317.45Q189.24373 317.075 189.36873 316.71564Q189.58748 316.1375 190.05623 315.575Q190.5406 315.0125 191.44685 314.27814Q192.8531 313.1219 193.33748 312.45Q193.83748 311.77814 193.83748 311.1844Q193.83748 310.5594 193.38435 310.1375Q192.93123 309.7 192.21248 309.7Q191.44685 309.7 190.99373 310.15314Q190.5406 310.60626 190.52498 311.41876L189.44685 311.3094Q189.55623 310.09064 190.27498 309.46564Q191.00935 308.825 192.24373 308.825Q193.4781 308.825 194.19685 309.5125Q194.9156 310.2 194.9156 311.21564Q194.9156 311.73126 194.69685 312.23126Q194.49373 312.71564 193.99373 313.27814Q193.50935 313.825 192.38435 314.77814Q191.43123 315.575 191.14998 315.8719Q190.88435 316.15314 190.71248 316.4344L194.93123 316.4344Z" fill-rule="nonzero"/><path fill="#000000" d="M257.94217 315.1844L259.00467 315.04376Q259.17654 315.9344 259.61404 316.34064Q260.05154 316.73126 260.67654 316.73126Q261.42654 316.73126 261.94217 316.21564Q262.4578 315.7 262.4578 314.9344Q262.4578 314.21564 261.97342 313.7469Q261.50467 313.2625 260.7703 313.2625Q260.47342 313.2625 260.0203 313.3875L260.1453 312.45Q260.25467 312.46564 260.31717 312.46564Q260.98904 312.46564 261.5203 312.1219Q262.06717 311.7625 262.06717 311.02814Q262.06717 310.45 261.67654 310.075Q261.28592 309.6844 260.66092 309.6844Q260.05154 309.6844 259.62967 310.075Q259.22342 310.46564 259.11404 311.23126L258.05154 311.04376Q258.23904 309.9969 258.92654 309.41876Q259.61404 308.825 260.62967 308.825Q261.3328 308.825 261.92654 309.1375Q262.5203 309.4344 262.8328 309.95Q263.1453 310.46564 263.1453 311.0594Q263.1453 311.60626 262.84842 312.075Q262.55154 312.52814 261.97342 312.79376Q262.72342 312.96564 263.1453 313.52814Q263.56717 314.075 263.56717 314.91876Q263.56717 316.04376 262.73904 316.825Q261.92654 317.60626 260.67654 317.60626Q259.55154 317.60626 258.80154 316.9344Q258.05154 316.2469 257.94217 315.1844Z" fill-rule="nonzero"/><path fill="#000000" d="M329.875 317.45L329.875 315.3875L326.15625 315.3875L326.15625 314.41876L330.07812 308.85626L330.9375 308.85626L330.9375 314.41876L332.09375 314.41876L332.09375 315.3875L330.9375 315.3875L330.9375 317.45L329.875 317.45ZM329.875 314.41876L329.875 310.5594L327.1875 314.41876L329.875 314.41876Z" fill-rule="nonzero"/><path fill="#000000" d="M395.05783 315.2L396.1672 315.10626Q396.2922 315.91876 396.7297 316.325Q397.18283 316.73126 397.82346 316.73126Q398.57346 316.73126 399.1047 316.15314Q399.63596 315.575 399.63596 314.6375Q399.63596 313.73126 399.12033 313.21564Q398.62033 312.6844 397.7922 312.6844Q397.2922 312.6844 396.87033 312.91876Q396.46408 313.15314 396.2297 313.5125L395.24533 313.3875L396.07346 308.98126L400.3547 308.98126L400.3547 309.98126L396.9172 309.98126L396.46408 312.29376Q397.2297 311.7469 398.07346 311.7469Q399.19846 311.7469 399.96408 312.52814Q400.74533 313.3094 400.74533 314.54376Q400.74533 315.7 400.07346 316.5594Q399.24533 317.59064 397.82346 317.59064Q396.65158 317.59064 395.90158 316.9344Q395.1672 316.27814 395.05783 315.2Z" fill-rule="nonzero"/><path fill="#000000" d="M469.08438 310.96564L468.0375 311.04376Q467.89688 310.41876 467.64688 310.1375Q467.20938 309.6844 466.58438 309.6844Q466.08438 309.6844 465.69376 309.96564Q465.20938 310.34064 464.9125 311.04376Q464.63126 311.73126 464.61563 313.0125Q464.99063 312.4344 465.5375 312.15314Q466.1 311.8719 466.70938 311.8719Q467.75626 311.8719 468.49063 312.65314Q469.24063 313.4344 469.24063 314.65314Q469.24063 315.46564 468.88126 316.16876Q468.5375 316.85626 467.92813 317.23126Q467.31876 317.59064 466.55313 317.59064Q465.225 317.59064 464.39688 316.6219Q463.56876 315.65314 463.56876 313.4344Q463.56876 310.9344 464.49063 309.8094Q465.2875 308.825 466.64688 308.825Q467.6625 308.825 468.30313 309.40314Q468.95938 309.96564 469.08438 310.96564ZM464.7875 314.66876Q464.7875 315.21564 465.00626 315.71564Q465.24063 316.2 465.64688 316.46564Q466.06876 316.73126 466.5375 316.73126Q467.19376 316.73126 467.67813 316.2Q468.1625 315.65314 468.1625 314.73126Q468.1625 313.84064 467.67813 313.325Q467.20938 312.8094 466.49063 312.8094Q465.77188 312.8094 465.27188 313.325Q464.7875 313.84064 464.7875 314.66876Z" fill-rule="nonzero"/><path fill="#000000" d="M532.23596 309.98126L532.23596 308.96564L537.79846 308.96564L537.79846 309.79376Q536.98596 310.66876 536.17346 312.1219Q535.3766 313.5594 534.9391 315.09064Q534.61096 316.16876 534.53284 317.45L533.4391 317.45Q533.4547 316.4344 533.8297 314.9969Q534.22034 313.5594 534.92346 312.23126Q535.6422 310.90314 536.4547 309.98126L532.23596 309.98126Z" fill-rule="nonzero"/><path fill="#757575" d="M21.253124 25.628124L21.253124 27.675L19.3625 27.675L19.3625 26.065624Q19.3625 24.753124 19.675 24.175Q20.08125 23.39375 20.971874 22.9875L21.409374 23.675Q20.8625 23.89375 20.6125 24.346874Q20.3625 24.784374 20.33125 25.628124L21.253124 25.628124ZM24.26875 25.628124L24.26875 27.675L22.39375 27.675L22.39375 26.065624Q22.39375 24.753124 22.70625 24.175Q23.1125 23.39375 24.003124 22.9875L24.425 23.675Q23.89375 23.89375 23.628124 24.346874Q23.378124 24.784374 23.3625 25.628124L24.26875 25.628124ZM27.409374 37.55L27.409374 23.2375L29.315624 23.2375L29.315624 37.55L27.409374 37.55ZM39.284374 37.55L39.284374 28.55L37.7375 28.55L37.7375 27.175L39.284374 27.175L39.284374 26.08125Q39.284374 25.034374 39.471874 24.51875Q39.721874 23.83125 40.3625 23.409374Q41.003124 22.9875 42.159374 22.9875Q42.909374 22.9875 43.8 23.159374L43.534374 24.690624Q42.9875 24.596874 42.503124 24.596874Q41.70625 24.596874 41.3625 24.940624Q41.034374 25.284374 41.034374 26.221874L41.034374 27.175L43.065624 27.175L43.065624 28.55L41.034374 28.55L41.034374 37.55L39.284374 37.55ZM51.971874 34.20625L53.784374 34.440624Q53.3625 36.01875 52.190624 36.909374Q51.034374 37.784374 49.221874 37.784374Q46.95625 37.784374 45.6125 36.39375Q44.284374 34.9875 44.284374 32.45625Q44.284374 29.83125 45.628124 28.39375Q46.971874 26.940624 49.128124 26.940624Q51.20625 26.940624 52.51875 28.3625Q53.846874 29.76875 53.846874 32.346874Q53.846874 32.503124 53.83125 32.815624L46.096874 32.815624Q46.190624 34.51875 47.065624 35.425Q47.940624 36.33125 49.2375 36.33125Q50.20625 36.33125 50.878124 35.83125Q51.565624 35.315624 51.971874 34.20625ZM46.190624 31.3625L51.9875 31.3625Q51.878124 30.065624 51.33125 29.409374Q50.4875 28.39375 49.14375 28.39375Q47.940624 28.39375 47.1125 29.20625Q46.284374 30.003124 46.190624 31.3625ZM62.971874 34.20625L64.78438 34.440624Q64.3625 36.01875 63.190624 36.909374Q62.034374 37.784374 60.221874 37.784374Q57.95625 37.784374 56.6125 36.39375Q55.284374 34.9875 55.284374 32.45625Q55.284374 29.83125 56.628124 28.39375Q57.971874 26.940624 60.128124 26.940624Q62.20625 26.940624 63.51875 28.3625Q64.84688 29.76875 64.84688 32.346874Q64.84688 32.503124 64.83125 32.815624L57.096874 32.815624Q57.190624 34.51875 58.065624 35.425Q58.940624 36.33125 60.2375 36.33125Q61.20625 36.33125 61.878124 35.83125Q62.565624 35.315624 62.971874 34.20625ZM57.190624 31.3625L62.9875 31.3625Q62.878124 30.065624 62.33125 29.409374Q61.4875 28.39375 60.14375 28.39375Q58.940624 28.39375 58.1125 29.20625Q57.284374 30.003124 57.190624 31.3625ZM66.83125 37.55L66.83125 23.2375L68.58125 23.2375L68.58125 37.55L66.83125 37.55ZM77.40938 37.55L77.40938 23.2375L79.31563 23.2375L79.31563 37.55L77.40938 37.55ZM95.64375 36.26875Q94.65938 37.096874 93.75313 37.440624Q92.84688 37.784374 91.81563 37.784374Q90.1125 37.784374 89.19063 36.95625Q88.26875 36.1125 88.26875 34.815624Q88.26875 34.05 88.6125 33.425Q88.97188 32.8 89.53438 32.425Q90.09688 32.034374 90.8 31.83125Q91.31563 31.70625 92.3625 31.565624Q94.4875 31.315624 95.4875 30.971874Q95.50313 30.6125 95.50313 30.503124Q95.50313 29.440624 95.00313 28.9875Q94.33125 28.39375 93.00313 28.39375Q91.75313 28.39375 91.15938 28.83125Q90.58125 29.26875 90.3 30.378124L88.58125 30.14375Q88.81563 29.034374 89.34688 28.3625Q89.87813 27.675 90.89375 27.315624Q91.90938 26.940624 93.25313 26.940624Q94.58125 26.940624 95.40938 27.253124Q96.2375 27.565624 96.62813 28.05Q97.01875 28.51875 97.175 29.2375Q97.26875 29.690624 97.26875 30.8625L97.26875 33.20625Q97.26875 35.659374 97.37813 36.315624Q97.4875 36.95625 97.83125 37.55L95.9875 37.55Q95.72188 37.003124 95.64375 36.26875ZM95.4875 32.346874Q94.53438 32.7375 92.6125 33.003124Q91.53438 33.159374 91.08125 33.3625Q90.64375 33.55 90.39375 33.925Q90.14375 34.3 90.14375 34.76875Q90.14375 35.471874 90.675 35.940624Q91.20625 36.409374 92.2375 36.409374Q93.25313 36.409374 94.03438 35.971874Q94.83125 35.51875 95.20625 34.753124Q95.4875 34.14375 95.4875 32.9875L95.4875 32.346874ZM99.8625 37.55L99.8625 27.175L101.44063 27.175L101.44063 28.628124Q101.925 27.878124 102.7375 27.409374Q103.55 26.940624 104.58125 26.940624Q105.7375 26.940624 106.47188 27.425Q107.20625 27.89375 107.51875 28.753124Q108.75313 26.940624 110.72188 26.940624Q112.26875 26.940624 113.09688 27.8Q113.925 28.659374 113.925 30.425L113.925 37.55L112.175 37.55L112.175 31.01875Q112.175 29.95625 112.00313 29.503124Q111.83125 29.034374 111.37813 28.753124Q110.94063 28.471874 110.33125 28.471874Q109.2375 28.471874 108.50313 29.20625Q107.78438 29.925 107.78438 31.51875L107.78438 37.55L106.03438 37.55L106.03438 30.815624Q106.03438 29.64375 105.59688 29.065624Q105.175 28.471874 104.19063 28.471874Q103.45625 28.471874 102.81563 28.8625Q102.19063 29.253124 101.90938 30.003124Q101.62813 30.753124 101.62813 32.175L101.62813 37.55L99.8625 37.55ZM122.55 38.409374L124.25313 38.659374Q124.3625 39.45625 124.84688 39.815624Q125.50313 40.3 126.64375 40.3Q127.8625 40.3 128.51875 39.815624Q129.19063 39.33125 129.425 38.45625Q129.56563 37.909374 129.55 36.190624Q128.39375 37.55 126.675 37.55Q124.53438 37.55 123.3625 36.003124Q122.19063 34.45625 122.19063 32.3Q122.19063 30.815624 122.72188 29.565624Q123.26875 28.315624 124.28438 27.628124Q125.31563 26.940624 126.69063 26.940624Q128.51875 26.940624 129.72188 28.425L129.72188 27.175L131.33125 27.175L131.33125 36.14375Q131.33125 38.565624 130.83125 39.565624Q130.34688 40.58125 129.26875 41.159374Q128.20625 41.753124 126.64375 41.753124Q124.8 41.753124 123.64375 40.925Q122.50313 40.096874 122.55 38.409374ZM124.00313 32.175Q124.00313 34.221874 124.81563 35.159374Q125.62813 36.096874 126.84688 36.096874Q128.05 36.096874 128.8625 35.159374Q129.69063 34.221874 129.69063 32.2375Q129.69063 30.33125 128.84688 29.3625Q128.00313 28.39375 126.81563 28.39375Q125.64375 28.39375 124.81563 29.346874Q124.00313 30.3 124.00313 32.175ZM133.84688 37.55L133.84688 27.175L135.425 27.175L135.425 28.753124Q136.03438 27.64375 136.55 27.3Q137.06563 26.940624 137.675 26.940624Q138.56563 26.940624 139.4875 27.503124L138.87813 29.14375Q138.2375 28.753124 137.59688 28.753124Q137.01875 28.753124 136.55 29.1125Q136.09688 29.45625 135.89375 30.065624Q135.6125 31.003124 135.6125 32.1125L135.6125 37.55L133.84688 37.55ZM140.22188 32.3625Q140.22188 29.4875 141.81563 28.096874Q143.15938 26.940624 145.08125 26.940624Q147.22188 26.940624 148.56563 28.346874Q149.925 29.753124 149.925 32.221874Q149.925 34.221874 149.33125 35.378124Q148.7375 36.51875 147.58125 37.159374Q146.44063 37.784374 145.08125 37.784374Q142.89375 37.784374 141.55 36.39375Q140.22188 34.9875 140.22188 32.3625ZM142.01875 32.3625Q142.01875 34.3625 142.87813 35.346874Q143.75313 36.33125 145.08125 36.33125Q146.39375 36.33125 147.25313 35.346874Q148.12813 34.346874 148.12813 32.3Q148.12813 30.378124 147.25313 29.39375Q146.37813 28.39375 145.08125 28.39375Q143.75313 28.39375 142.87813 29.39375Q142.01875 30.378124 142.01875 32.3625ZM153.78438 37.55L150.6125 27.175L152.425 27.175L154.08125 33.159374L154.69063 35.39375Q154.7375 35.221874 155.22188 33.253124L156.87813 27.175L158.69063 27.175L160.2375 33.190624L160.75313 35.175L161.34688 33.175L163.12813 27.175L164.83125 27.175L161.59688 37.55L159.76875 37.55L158.1125 31.33125L157.72188 29.565624L155.6125 37.55L153.78438 37.55ZM165.87813 25.253124L165.87813 23.2375L167.64375 23.2375L167.64375 25.253124L165.87813 25.253124ZM165.87813 37.55L165.87813 27.175L167.64375 27.175L167.64375 37.55L165.87813 37.55ZM169.8625 37.55L169.8625 27.175L171.45625 27.175L171.45625 28.659374Q172.59688 26.940624 174.75313 26.940624Q175.69063 26.940624 176.47188 27.284374Q177.26875 27.6125 177.65938 28.159374Q178.05 28.70625 178.20625 29.45625Q178.3 29.95625 178.3 31.175L178.3 37.55L176.53438 37.55L176.53438 31.2375Q176.53438 30.159374 176.33125 29.628124Q176.12813 29.096874 175.59688 28.784374Q175.08125 28.471874 174.37813 28.471874Q173.25313 28.471874 172.44063 29.190624Q171.62813 29.89375 171.62813 31.878124L171.62813 37.55L169.8625 37.55ZM180.55 38.409374L182.25313 38.659374Q182.3625 39.45625 182.84688 39.815624Q183.50313 40.3 184.64375 40.3Q185.8625 40.3 186.51875 39.815624Q187.19063 39.33125 187.425 38.45625Q187.56563 37.909374 187.55 36.190624Q186.39375 37.55 184.675 37.55Q182.53438 37.55 181.3625 36.003124Q180.19063 34.45625 180.19063 32.3Q180.19063 30.815624 180.72188 29.565624Q181.26875 28.315624 182.28438 27.628124Q183.31563 26.940624 184.69063 26.940624Q186.51875 26.940624 187.72188 28.425L187.72188 27.175L189.33125 27.175L189.33125 36.14375Q189.33125 38.565624 188.83125 39.565624Q188.34688 40.58125 187.26875 41.159374Q186.20625 41.753124 184.64375 41.753124Q182.8 41.753124 181.64375 40.925Q180.50313 40.096874 180.55 38.409374ZM182.00313 32.175Q182.00313 34.221874 182.81563 35.159374Q183.62813 36.096874 184.84688 36.096874Q186.05 36.096874 186.8625 35.159374Q187.69063 34.221874 187.69063 32.2375Q187.69063 30.33125 186.84688 29.3625Q186.00313 28.39375 184.81563 28.39375Q183.64375 28.39375 182.81563 29.346874Q182.00313 30.3 182.00313 32.175ZM204.64375 36.26875Q203.65938 37.096874 202.75313 37.440624Q201.84688 37.784374 200.81563 37.784374Q199.1125 37.784374 198.19063 36.95625Q197.26875 36.1125 197.26875 34.815624Q197.26875 34.05 197.6125 33.425Q197.97188 32.8 198.53438 32.425Q199.09688 32.034374 199.8 31.83125Q200.31563 31.70625 201.3625 31.565624Q203.4875 31.315624 204.4875 30.971874Q204.50313 30.6125 204.50313 30.503124Q204.50313 29.440624 204.00313 28.9875Q203.33125 28.39375 202.00313 28.39375Q200.75313 28.39375 200.15938 28.83125Q199.58125 29.26875 199.3 30.378124L197.58125 30.14375Q197.81563 29.034374 198.34688 28.3625Q198.87813 27.675 199.89375 27.315624Q200.90938 26.940624 202.25313 26.940624Q203.58125 26.940624 204.40938 27.253124Q205.2375 27.565624 205.62813 28.05Q206.01875 28.51875 206.175 29.2375Q206.26875 29.690624 206.26875 30.8625L206.26875 33.20625Q206.26875 35.659374 206.37813 36.315624Q206.4875 36.95625 206.83125 37.55L204.9875 37.55Q204.72188 37.003124 204.64375 36.26875ZM204.4875 32.346874Q203.53438 32.7375 201.6125 33.003124Q200.53438 33.159374 200.08125 33.3625Q199.64375 33.55 199.39375 33.925Q199.14375 34.3 199.14375 34.76875Q199.14375 35.471874 199.675 35.940624Q200.20625 36.409374 201.2375 36.409374Q202.25313 36.409374 203.03438 35.971874Q203.83125 35.51875 204.20625 34.753124Q204.4875 34.14375 204.4875 32.9875L204.4875 32.346874ZM208.15938 34.45625L209.90938 34.175Q210.05 35.221874 210.72188 35.784374Q211.39375 36.33125 212.59688 36.33125Q213.8 36.33125 214.37813 35.846874Q214.97188 35.346874 214.97188 34.690624Q214.97188 34.096874 214.45625 33.753124Q214.09688 33.51875 212.65938 33.159374Q210.72188 32.659374 209.97188 32.315624Q209.2375 31.95625 208.84688 31.33125Q208.45625 30.690624 208.45625 29.925Q208.45625 29.2375 208.76875 28.64375Q209.09688 28.05 209.64375 27.659374Q210.05 27.3625 210.75313 27.159374Q211.47188 26.940624 212.28438 26.940624Q213.50313 26.940624 214.425 27.3Q215.34688 27.64375 215.78438 28.253124Q216.22188 28.846874 216.39375 29.846874L214.675 30.08125Q214.55 29.284374 213.9875 28.846874Q213.425 28.39375 212.40938 28.39375Q211.19063 28.39375 210.675 28.8Q210.15938 29.190624 210.15938 29.721874Q210.15938 30.065624 210.37813 30.346874Q210.58125 30.628124 211.05 30.815624Q211.31563 30.909374 212.59688 31.253124Q214.47188 31.753124 215.20625 32.08125Q215.94063 32.39375 216.3625 33.003124Q216.78438 33.596874 216.78438 34.503124Q216.78438 35.378124 216.26875 36.159374Q215.75313 36.940624 214.78438 37.3625Q213.81563 37.784374 212.59688 37.784374Q210.58125 37.784374 209.51875 36.940624Q208.45625 36.096874 208.15938 34.45625ZM231.64375 36.26875Q230.65938 37.096874 229.75313 37.440624Q228.84688 37.784374 227.81563 37.784374Q226.1125 37.784374 225.19063 36.95625Q224.26875 36.1125 224.26875 34.815624Q224.26875 34.05 224.6125 33.425Q224.97188 32.8 225.53438 32.425Q226.09688 32.034374 226.8 31.83125Q227.31563 31.70625 228.3625 31.565624Q230.4875 31.315624 231.4875 30.971874Q231.50313 30.6125 231.50313 30.503124Q231.50313 29.440624 231.00313 28.9875Q230.33125 28.39375 229.00313 28.39375Q227.75313 28.39375 227.15938 28.83125Q226.58125 29.26875 226.3 30.378124L224.58125 30.14375Q224.81563 29.034374 225.34688 28.3625Q225.87813 27.675 226.89375 27.315624Q227.90938 26.940624 229.25313 26.940624Q230.58125 26.940624 231.40938 27.253124Q232.2375 27.565624 232.62813 28.05Q233.01875 28.51875 233.175 29.2375Q233.26875 29.690624 233.26875 30.8625L233.26875 33.20625Q233.26875 35.659374 233.37813 36.315624Q233.4875 36.95625 233.83125 37.55L231.9875 37.55Q231.72188 37.003124 231.64375 36.26875ZM231.4875 32.346874Q230.53438 32.7375 228.6125 33.003124Q227.53438 33.159374 227.08125 33.3625Q226.64375 33.55 226.39375 33.925Q226.14375 34.3 226.14375 34.76875Q226.14375 35.471874 226.675 35.940624Q227.20625 36.409374 228.2375 36.409374Q229.25313 36.409374 230.03438 35.971874Q230.83125 35.51875 231.20625 34.753124Q231.4875 34.14375 231.4875 32.9875L231.4875 32.346874ZM235.8625 37.55L235.8625 27.175L237.45625 27.175L237.45625 28.659374Q238.59688 26.940624 240.75313 26.940624Q241.69063 26.940624 242.47188 27.284374Q243.26875 27.6125 243.65938 28.159374Q244.05 28.70625 244.20625 29.45625Q244.3 29.95625 244.3 31.175L244.3 37.55L242.53438 37.55L242.53438 31.2375Q242.53438 30.159374 242.33125 29.628124Q242.12813 29.096874 241.59688 28.784374Q241.08125 28.471874 240.37813 28.471874Q239.25313 28.471874 238.44063 29.190624Q237.62813 29.89375 237.62813 31.878124L237.62813 37.55L235.8625 37.55ZM259.97186 34.20625L261.78436 34.440624Q261.3625 36.01875 260.1906 36.909374Q259.03436 37.784374 257.22186 37.784374Q254.95625 37.784374 253.6125 36.39375Q252.28438 34.9875 252.28438 32.45625Q252.28438 29.83125 253.62813 28.39375Q254.97188 26.940624 257.1281 26.940624Q259.20624 26.940624 260.51874 28.3625Q261.84686 29.76875 261.84686 32.346874Q261.84686 32.503124 261.83124 32.815624L254.09688 32.815624Q254.19063 34.51875 255.06563 35.425Q255.94063 36.33125 257.2375 36.33125Q258.20624 36.33125 258.8781 35.83125Q259.5656 35.315624 259.97186 34.20625ZM254.19063 31.3625L259.9875 31.3625Q259.8781 30.065624 259.33124 29.409374Q258.4875 28.39375 257.14374 28.39375Q255.94063 28.39375 255.1125 29.20625Q254.28438 30.003124 254.19063 31.3625ZM263.8625 37.55L263.8625 27.175L265.45624 27.175L265.45624 28.659374Q266.59686 26.940624 268.7531 26.940624Q269.6906 26.940624 270.47186 27.284374Q271.26874 27.6125 271.65936 28.159374Q272.05 28.70625 272.20624 29.45625Q272.3 29.95625 272.3 31.175L272.3 37.55L270.53436 37.55L270.53436 31.2375Q270.53436 30.159374 270.33124 29.628124Q270.1281 29.096874 269.59686 28.784374Q269.08124 28.471874 268.3781 28.471874Q267.2531 28.471874 266.4406 29.190624Q265.6281 29.89375 265.6281 31.878124L265.6281 37.55L263.8625 37.55ZM274.55 38.409374L276.2531 38.659374Q276.3625 39.45625 276.84686 39.815624Q277.5031 40.3 278.64374 40.3Q279.8625 40.3 280.51874 39.815624Q281.1906 39.33125 281.425 38.45625Q281.5656 37.909374 281.55 36.190624Q280.39374 37.55 278.675 37.55Q276.53436 37.55 275.3625 36.003124Q274.1906 34.45625 274.1906 32.3Q274.1906 30.815624 274.72186 29.565624Q275.26874 28.315624 276.28436 27.628124Q277.3156 26.940624 278.6906 26.940624Q280.51874 26.940624 281.72186 28.425L281.72186 27.175L283.33124 27.175L283.33124 36.14375Q283.33124 38.565624 282.83124 39.565624Q282.34686 40.58125 281.26874 41.159374Q280.20624 41.753124 278.64374 41.753124Q276.8 41.753124 275.64374 40.925Q274.5031 40.096874 274.55 38.409374ZM276.0031 32.175Q276.0031 34.221874 276.8156 35.159374Q277.6281 36.096874 278.84686 36.096874Q280.05 36.096874 280.8625 35.159374Q281.6906 34.221874 281.6906 32.2375Q281.6906 30.33125 280.84686 29.3625Q280.0031 28.39375 278.8156 28.39375Q277.64374 28.39375 276.8156 29.346874Q276.0031 30.3 276.0031 32.175ZM285.8781 25.253124L285.8781 23.2375L287.64374 23.2375L287.64374 25.253124L285.8781 25.253124ZM285.8781 37.55L285.8781 27.175L287.64374 27.175L287.64374 37.55L285.8781 37.55ZM289.8625 37.55L289.8625 27.175L291.45624 27.175L291.45624 28.659374Q292.59686 26.940624 294.7531 26.940624Q295.6906 26.940624 296.47186 27.284374Q297.26874 27.6125 297.65936 28.159374Q298.05 28.70625 298.20624 29.45625Q298.3 29.95625 298.3 31.175L298.3 37.55L296.53436 37.55L296.53436 31.2375Q296.53436 30.159374 296.33124 29.628124Q296.1281 29.096874 295.59686 28.784374Q295.08124 28.471874 294.3781 28.471874Q293.2531 28.471874 292.4406 29.190624Q291.6281 29.89375 291.6281 31.878124L291.6281 37.55L289.8625 37.55ZM307.97186 34.20625L309.78436 34.440624Q309.3625 36.01875 308.1906 36.909374Q307.03436 37.784374 305.22186 37.784374Q302.95624 37.784374 301.6125 36.39375Q300.28436 34.9875 300.28436 32.45625Q300.28436 29.83125 301.6281 28.39375Q302.97186 26.940624 305.1281 26.940624Q307.20624 26.940624 308.51874 28.3625Q309.84686 29.76875 309.84686 32.346874Q309.84686 32.503124 309.83124 32.815624L302.09686 32.815624Q302.1906 34.51875 303.0656 35.425Q303.9406 36.33125 305.2375 36.33125Q306.20624 36.33125 306.8781 35.83125Q307.5656 35.315624 307.97186 34.20625ZM302.1906 31.3625L307.9875 31.3625Q307.8781 30.065624 307.33124 29.409374Q306.4875 28.39375 305.14374 28.39375Q303.9406 28.39375 303.1125 29.20625Q302.28436 30.003124 302.1906 31.3625ZM318.97186 34.20625L320.78436 34.440624Q320.3625 36.01875 319.1906 36.909374Q318.03436 37.784374 316.22186 37.784374Q313.95624 37.784374 312.6125 36.39375Q311.28436 34.9875 311.28436 32.45625Q311.28436 29.83125 312.6281 28.39375Q313.97186 26.940624 316.1281 26.940624Q318.20624 26.940624 319.51874 28.3625Q320.84686 29.76875 320.84686 32.346874Q320.84686 32.503124 320.83124 32.815624L313.09686 32.815624Q313.1906 34.51875 314.0656 35.425Q314.9406 36.33125 316.2375 36.33125Q317.20624 36.33125 317.8781 35.83125Q318.5656 35.315624 318.97186 34.20625ZM313.1906 31.3625L318.9875 31.3625Q318.8781 30.065624 318.33124 29.409374Q317.4875 28.39375 316.14374 28.39375Q314.9406 28.39375 314.1125 29.20625Q313.28436 30.003124 313.1906 31.3625ZM322.84686 37.55L322.84686 27.175L324.425 27.175L324.425 28.753124Q325.03436 27.64375 325.55 27.3Q326.0656 26.940624 326.675 26.940624Q327.5656 26.940624 328.4875 27.503124L327.8781 29.14375Q327.2375 28.753124 326.59686 28.753124Q326.01874 28.753124 325.55 29.1125Q325.09686 29.45625 324.89374 30.065624Q324.6125 31.003124 324.6125 32.1125L324.6125 37.55L322.84686 37.55ZM330.3625 37.55L330.3625 35.55L332.3625 35.55L332.3625 37.55L330.3625 37.55ZM335.39374 25.128124L335.39374 23.08125L337.28436 23.08125L337.28436 24.690624Q337.28436 26.003124 336.9875 26.58125Q336.5656 27.378124 335.675 27.76875L335.2375 27.08125Q335.76874 26.8625 336.01874 26.409374Q336.28436 25.940624 336.3156 25.128124L335.39374 25.128124ZM338.425 25.128124L338.425 23.08125L340.3156 23.08125L340.3156 24.690624Q340.3156 26.003124 340.0031 26.58125Q339.59686 27.378124 338.70624 27.76875L338.26874 27.08125Q338.8 26.8625 339.05 26.409374Q339.3156 25.940624 339.34686 25.128124L338.425 25.128124Z" fill-rule="nonzero"/></svg>