<svg width="21" height="21" viewBox="0 0 21 21" fill="none" xmlns="http://www.w3.org/2000/svg">
<g clip-path="url(#clip0_319_855)">
<path d="M10.5 0.65625C5.06363 0.65625 0.65625 5.06363 0.65625 10.5C0.65625 15.9364 5.06363 20.3438 10.5 20.3438C15.9364 20.3438 20.3438 15.9364 20.3438 10.5C20.3438 5.06363 15.9364 0.65625 10.5 0.65625ZM19.0312 10.5C19.0312 10.5 19.0312 10.5017 19.0312 10.5035C19.0312 14.4008 16.4185 17.6873 12.8485 18.7066L12.7881 18.7215V15.5295C12.7881 14.7723 12.5851 14.2182 12.1791 13.867C12.6306 13.8215 13.0393 13.7471 13.4347 13.6439L13.3787 13.6561C13.7979 13.5389 14.1636 13.3831 14.5022 13.1871L14.4795 13.1994C14.8514 12.9946 15.1655 12.7347 15.4245 12.4259L15.4289 12.4206C15.6826 12.112 15.8894 11.7022 16.0492 11.1912C16.2091 10.6803 16.289 10.0928 16.289 9.429C16.289 8.48458 15.9807 7.68046 15.3641 7.01662C15.6529 6.30613 15.6217 5.50987 15.2705 4.62788C15.0518 4.55729 14.7356 4.60017 14.322 4.7565C13.9064 4.9105 13.552 5.08375 13.2169 5.28763L13.2449 5.27187L12.7995 5.55275C12.1258 5.35938 11.3514 5.24825 10.5507 5.24825C9.75012 5.24825 8.97663 5.35938 8.2425 5.56675L8.302 5.55275C7.78575 4.56663 6.47675 4.50362 5.81962 4.62788C5.38212 5.32525 5.43463 6.42513 5.73738 7.01662C5.12079 7.68046 4.8125 8.48458 4.8125 9.429C4.8125 10.0928 4.89242 10.6782 5.05225 11.1851C5.21208 11.692 5.41713 12.1018 5.66738 12.4145C5.92638 12.7321 6.23875 12.9946 6.594 13.1906L6.61062 13.1985C6.9265 13.3822 7.29225 13.5389 7.67725 13.6474L7.7105 13.6552C8.05088 13.7471 8.4595 13.8206 8.87687 13.8635L8.911 13.8661C8.59892 14.1473 8.40758 14.5495 8.337 15.0728C8.18563 15.1462 8.00975 15.2066 7.82512 15.246L7.81025 15.2486C7.623 15.2863 7.40775 15.3072 7.18813 15.3072C7.17238 15.3072 7.15663 15.3072 7.14088 15.3072H7.1435C6.88567 15.3072 6.62988 15.2232 6.37613 15.0552C6.12238 14.8872 5.90567 14.6431 5.726 14.3229C5.58075 14.077 5.39087 13.874 5.16425 13.7183L5.15812 13.7139C4.92771 13.5575 4.73462 13.4639 4.57887 13.433L4.473 13.4094C4.4555 13.405 4.4345 13.4024 4.4135 13.4024C4.3085 13.4024 4.2175 13.4619 4.17287 13.5485L4.172 13.5503L4.158 13.5774C4.13875 13.6132 4.12825 13.6561 4.12825 13.7016C4.12825 13.811 4.19212 13.9046 4.28487 13.9475L4.28663 13.9484C4.45813 14.0265 4.62787 14.175 4.79588 14.3938C4.935 14.567 5.05837 14.763 5.15725 14.973L5.16512 14.9905L5.28238 15.26C5.38125 15.554 5.56063 15.7999 5.79425 15.9775L5.79775 15.9801C6.0165 16.1516 6.28163 16.275 6.57125 16.3293L6.58262 16.331C6.82412 16.3782 7.105 16.408 7.392 16.4132H7.39638C7.42875 16.4141 7.46725 16.415 7.50575 16.415C7.6965 16.415 7.88375 16.3993 8.06575 16.3695L8.04562 16.3721L8.31513 16.3258C8.31513 16.6221 8.31717 16.9695 8.32125 17.3679C8.32388 17.6094 8.32562 18.2665 8.3265 18.7521C4.64013 17.7537 1.97225 14.4384 1.97225 10.5C1.97225 6.98775 4.09325 3.97075 7.12512 2.66087L7.18025 2.63987C8.16113 2.21375 9.303 1.96613 10.5035 1.96613C15.2136 1.96613 19.0321 5.78463 19.0321 10.4948C19.0321 10.4974 19.0321 10.5 19.0321 10.5026L19.0312 10.5Z" fill="#0B4778"/>
</g>
<defs>
<clipPath id="clip0_319_855">
<rect width="21" height="21" fill="white"/>
</clipPath>
</defs>
</svg>
