<svg width="22" height="25" viewBox="0 0 22 25" fill="none" xmlns="http://www.w3.org/2000/svg">
<path d="M7.84355 20.4587C2.71534 22.0468 2.71534 17.8119 0.664062 17.2825M15.023 23.6349V19.5376C15.1009 18.5164 14.7497 17.5098 14.0589 16.7743C17.2794 16.4038 20.6641 15.1439 20.6641 9.36314C20.6638 7.88495 20.113 6.46346 19.1256 5.39286C19.5931 4.09962 19.5601 2.67015 19.0333 1.40141C19.0333 1.40141 17.823 1.03085 15.023 2.96835C12.6723 2.31068 10.1943 2.31068 7.84355 2.96835C5.04355 1.03085 3.83329 1.40141 3.83329 1.40141C3.3065 2.67015 3.27344 4.09962 3.74099 5.39286C2.74624 6.4714 2.19486 7.90574 2.20245 9.3949C2.20245 15.1333 5.58714 16.3932 8.80765 16.8061C8.12521 17.534 7.7747 18.5271 7.84355 19.5376V23.6349" stroke="#B3EFFF" stroke-width="2" stroke-linecap="round" stroke-linejoin="round"/>
</svg>
