<svg width="24" height="25" viewBox="0 0 24 25" fill="none" xmlns="http://www.w3.org/2000/svg">
<path fill-rule="evenodd" clip-rule="evenodd" d="M16.2573 8.58292C20.1055 8.58292 23.225 11.6587 23.225 15.4528V23.4677H18.5799V15.4528C18.5799 14.1881 17.54 13.1629 16.2573 13.1629C14.9746 13.1629 13.9347 14.1881 13.9347 15.4528V23.4677H9.28957V15.4528C9.28957 11.6587 12.4091 8.58292 16.2573 8.58292ZM0.773438 9.36633H5.4186V23.4677H0.773438V9.36633ZM3.09602 6.23269C4.37874 6.23269 5.4186 5.18045 5.4186 3.88246C5.4186 2.58446 4.37874 1.53223 3.09602 1.53223C1.81329 1.53223 0.773438 2.58446 0.773438 3.88246C0.773438 5.18045 1.81329 6.23269 3.09602 6.23269Z" stroke="#B3EFFF" stroke-width="2" stroke-linecap="round" stroke-linejoin="round"/>
</svg>
